<svg xmlns="http://www.w3.org/2000/svg" viewBox="0 0 300 446"><rect width="300" height="446" fill="#f4ecd8"/><rect x="20.0" y="25.5" width="260" height="395" rx="20.3" fill="#f4ecd8" stroke="#15130f" stroke-width="1.5"/><rect x="36.9" y="42.4" width="226.2" height="354.7" fill="none" stroke="#15130f" stroke-width="0.7"/><g fill="none" stroke="#15130f" stroke-width="0.65" stroke-opacity="0.72" stroke-linecap="round" stroke-linejoin="round"><path d="M150.0,42.4 L263.1,206.5 L150.0,370.6 L36.9,206.5 Z"/></g><path d="M36.9,370.6 H263.1 V397.1 H36.9 Z" fill="#c7dcf0"/><g fill="none" stroke="#15130f" stroke-width="0.8"><line x1="36.9" y1="370.6" x2="263.1" y2="370.6"/><line x1="61.6" y1="370.6" x2="61.6" y2="397.1"/><line x1="238.4" y1="370.6" x2="238.4" y2="397.1"/></g><rect x="141.4" y="34.4" width="17.2" height="19.0" fill="#c7dcf0" stroke="#15130f" stroke-width="0.8"/><path d="M541.0 1306Q697.0 1306 797.5 1224.5Q898.0 1143 898.0 1016Q898.0 934 849.0 869.0Q800.0 804 718.0 776Q668.0 759 667.0 750Q666.0 740 723.0 716Q957.0 617 957.0 376Q957.0 194 834.0 83.5Q711.0 -27 509.0 -27Q311.0 -27 189.5 75.0Q68.0 177 68.0 343Q68.0 527 267.0 635Q285.0 645 286.0 651Q287.0 657 266.0 673Q124.0 777 124.0 943Q124.0 1101 241.5 1203.5Q359.0 1306 541.0 1306ZM510.0 1245Q405.0 1245 336.5 1188.0Q268.0 1131 268.0 1044Q268.0 947 375.0 873Q495.0 790 602.0 790Q672.0 790 719.5 848.0Q767.0 906 767.0 991Q767.0 1097 692.5 1171.0Q618.0 1245 510.0 1245ZM354.0 615Q340.0 616 312.5 598.0Q285.0 580 269.0 560Q216.0 496 216.0 388Q216.0 235 306.0 135.5Q396.0 36 535.0 36Q653.0 36 728.5 100.0Q804.0 164 804.0 265Q804.0 441 612.0 513L510.0 552Q474.0 565 396.0 600Q363.0 614 354.0 615Z" transform="matrix(0.006858 0 0 -0.006858 146.49 49.06)" fill="#15130f"/><path d="M542.0 980Q542.0 1081 524.0 1150.5Q506.0 1220 468.5 1265.0Q431.0 1310 374.0 1310Q309.0 1310 251.5 1260.0Q194.0 1210 140.5 1125.0Q87.0 1040 87.0 960H50.0V1410H87.0Q87.0 1385 110.5 1358.5Q134.0 1332 164.0 1332Q194.0 1332 249.0 1371.0Q304.0 1410 374.0 1410Q483.0 1410 568.5 1352.0Q654.0 1294 698.0 1210.5Q742.0 1127 742.0 1000Q742.0 883 691.0 779Q660.0 716 617.0 675H1060.0V1200Q1060.0 1250 1020.0 1305.0Q980.0 1360 910.0 1360H860.0V1400H1460.0V1360H1410.0Q1340.0 1360 1300.0 1305.0Q1260.0 1250 1260.0 1200V200Q1260.0 150 1300.0 95.0Q1340.0 40 1410.0 40H1460.0V0H860.0V40H910.0Q980.0 40 1020.0 95.0Q1060.0 150 1060.0 200V575H225.0Q430.0 680 486.0 784.5Q542.0 889 542.0 980Z" transform="matrix(0.009268 0 0 -0.009268 42.25 390.40)" fill="#15130f"/><path d="M1250.0 0V1067Q1250.0 1212 1241.5 1255.5Q1233.0 1299 1212.5 1317.5Q1192.0 1336 1168.0 1336L938.0 1106Q950.0 1037 950.0 952V0H750.0V1067Q750.0 1212 741.5 1255.5Q733.0 1299 712.5 1317.5Q692.0 1336 668.0 1336L438.0 1106Q450.0 1037 450.0 952V0H50.0V40H100.0Q170.0 40 210.0 95.0Q250.0 150 250.0 200V1067Q250.0 1212 241.5 1255.5Q233.0 1299 212.5 1317.5Q192.0 1336 168.0 1336V1410Q284.0 1392 358.0 1301Q387.0 1264 408.0 1216L602.0 1410H668.0Q784.0 1392 858.0 1301Q887.0 1264 908.0 1216L1102.0 1410H1168.0Q1284.0 1392 1358.0 1301Q1450.0 1187 1450.0 952V0Q1450.0 -91 1478.0 -175.5Q1506.0 -260 1558.5 -305.0Q1611.0 -350 1667.0 -350H1867.0Q1742.0 -225 1617.0 0H1667.0Q1967.0 -300 2267.0 -400Q1967.0 -500 1667.0 -800H1617.0Q1742.0 -575 1867.0 -450H1667.0Q1559.0 -450 1458.5 -392.0Q1358.0 -334 1304.0 -225.5Q1250.0 -117 1250.0 0Z" transform="matrix(0.008244 0 0 -0.008244 241.20 386.38)" fill="#15130f"/><path d="M45.0 -4Q33.0 -4 26.5 -0.5Q20.0 3 20.0 9Q20.0 17 28.5 20.5Q37.0 24 49.0 27Q73.0 34 90.0 54.0Q107.0 74 111.0 106Q119.0 167 126.5 239.0Q134.0 311 140.5 384.0Q147.0 457 151.0 521Q151.0 528 151.0 537.0Q151.0 546 151.0 555Q150.0 570 145.5 579.5Q141.0 589 130.0 597Q116.0 607 101.0 612.5Q86.0 618 67.0 622Q56.0 624 49.5 629.5Q43.0 635 43.0 643Q43.0 651 51.0 654.0Q59.0 657 72.0 657Q85.0 657 107.0 656.0Q129.0 655 154.5 653.5Q180.0 652 205.0 651.0Q230.0 650 249.0 650Q257.0 650 263.0 645.0Q269.0 640 271.0 633Q277.0 614 283.0 596.0Q289.0 578 296.0 558L446.0 191Q449.0 186 454.0 185.5Q459.0 185 461.0 190L622.0 548Q629.0 577 633.5 599.0Q638.0 621 642.0 634Q645.0 647 655.0 647H696.0Q734.0 649 776.0 653.0Q818.0 657 841.0 657Q849.0 657 856.5 654.5Q864.0 652 864.0 644Q864.0 636 858.0 632.0Q852.0 628 840.0 623Q832.0 621 821.0 616.5Q810.0 612 802.0 608Q781.0 599 770.5 585.0Q760.0 571 761.0 545Q762.0 474 765.0 417.5Q768.0 361 770.5 311.5Q773.0 262 777.0 210.5Q781.0 159 784.0 97Q786.0 69 805.5 53.0Q825.0 37 858.0 29Q870.0 26 877.5 22.0Q885.0 18 885.0 10Q885.0 3 878.5 0.0Q872.0 -3 861.0 -3Q838.0 -3 813.0 -2.0Q788.0 -1 764.5 0.0Q741.0 1 720.0 1Q700.0 1 679.0 0.0Q658.0 -1 636.0 -2.5Q614.0 -4 590.0 -4Q580.0 -4 572.5 -0.5Q565.0 3 565.0 9Q565.0 17 572.5 22.0Q580.0 27 592.0 29Q626.0 36 639.5 50.0Q653.0 64 651.0 97Q650.0 162 648.0 222.0Q646.0 282 644.0 341.0Q642.0 400 639.0 460Q638.0 468 634.5 467.5Q631.0 467 627.0 459L423.0 -1Q419.0 -12 410.0 -10.5Q401.0 -9 398.0 -1Q352.0 115 301.5 228.5Q251.0 342 202.0 459Q199.0 467 193.5 465.0Q188.0 463 187.0 454Q182.0 398 178.0 338.5Q174.0 279 173.0 220.0Q172.0 161 172.0 103Q172.0 76 189.5 57.0Q207.0 38 243.0 29Q255.0 27 263.5 22.5Q272.0 18 272.0 10Q272.0 3 264.0 0.0Q256.0 -3 246.0 -3Q219.0 -3 205.0 -2.0Q191.0 -1 179.0 0.0Q167.0 1 147.0 1Q126.0 1 107.5 0.0Q89.0 -1 73.0 -2.5Q57.0 -4 45.0 -4ZM936.0 -5Q924.0 -5 916.0 -1.5Q908.0 2 908.0 10Q908.0 19 915.5 24.0Q923.0 29 935.0 33Q964.0 41 985.5 57.5Q1007.0 74 1020.0 103Q1045.0 162 1068.0 216.5Q1091.0 271 1112.0 325.0Q1133.0 379 1154.5 435.0Q1176.0 491 1198.0 553Q1209.0 584 1213.0 601.0Q1217.0 618 1220.0 626Q1235.0 630 1248.0 634.0Q1261.0 638 1277.0 644Q1291.0 651 1301.0 662.0Q1311.0 673 1316.0 679Q1319.0 681 1322.0 681.5Q1325.0 682 1328.0 677Q1331.0 671 1333.0 665.0Q1335.0 659 1337.0 652Q1359.0 581 1382.5 508.5Q1406.0 436 1429.0 365.5Q1452.0 295 1473.5 230.5Q1495.0 166 1513.0 112Q1522.0 85 1535.5 69.0Q1549.0 53 1565.5 44.5Q1582.0 36 1602.0 31Q1615.0 28 1622.0 23.0Q1629.0 18 1629.0 9Q1629.0 3 1622.5 0.0Q1616.0 -3 1606.0 -3Q1588.0 -3 1560.5 -2.0Q1533.0 -1 1504.0 0.5Q1475.0 2 1452.0 2Q1432.0 2 1407.5 1.0Q1383.0 0 1358.5 -1.0Q1334.0 -2 1317.0 -2Q1307.0 -2 1299.5 1.5Q1292.0 5 1292.0 12Q1292.0 20 1300.0 25.5Q1308.0 31 1319.0 33Q1355.0 39 1371.0 51.5Q1387.0 64 1383.0 88Q1380.0 105 1374.0 128.5Q1368.0 152 1361.5 177.5Q1355.0 203 1348.0 224Q1346.0 232 1342.0 235.5Q1338.0 239 1327.0 239H1147.0Q1140.0 239 1136.0 234.5Q1132.0 230 1130.0 221Q1126.0 208 1120.5 191.5Q1115.0 175 1109.5 157.5Q1104.0 140 1099.5 125.0Q1095.0 110 1093.0 99Q1088.0 72 1102.5 56.5Q1117.0 41 1153.0 32Q1180.0 25 1180.0 11Q1180.0 5 1173.5 1.5Q1167.0 -2 1155.0 -2Q1132.0 -2 1107.0 -0.5Q1082.0 1 1052.0 1Q1022.0 1 993.5 -2.0Q965.0 -5 936.0 -5ZM1174.0 285H1313.0Q1327.0 285 1327.0 291Q1327.0 294 1326.5 296.0Q1326.0 298 1325.0 302L1255.0 533Q1251.0 547 1248.0 547Q1246.0 547 1241.0 534L1157.0 302Q1155.0 297 1155.0 294Q1155.0 289 1160.5 287.0Q1166.0 285 1174.0 285ZM2299.0 -18Q2287.0 -18 2259.0 -3.0Q2231.0 12 2202.0 49Q2185.0 68 2160.5 95.5Q2136.0 123 2106.5 156.0Q2077.0 189 2045.0 225.0Q2013.0 261 1981.5 297.0Q1950.0 333 1920.0 366.0Q1890.0 399 1865.0 426.5Q1840.0 454 1823.0 474Q1819.0 479 1814.5 482.5Q1810.0 486 1807.0 486Q1803.0 486 1801.0 479.0Q1799.0 472 1799.0 466Q1799.0 420 1799.5 357.0Q1800.0 294 1800.0 229.0Q1800.0 164 1800.0 109Q1800.0 78 1818.0 58.0Q1836.0 38 1875.0 29Q1887.0 27 1895.5 22.5Q1904.0 18 1904.0 10Q1904.0 3 1896.0 0.0Q1888.0 -3 1878.0 -3Q1851.0 -3 1835.0 -2.0Q1819.0 -1 1806.0 0.0Q1793.0 1 1773.0 1Q1752.0 1 1735.5 0.0Q1719.0 -1 1706.0 -2.5Q1693.0 -4 1681.0 -4Q1671.0 -4 1663.0 -0.5Q1655.0 3 1655.0 9Q1655.0 17 1662.5 21.5Q1670.0 26 1683.0 30Q1709.0 38 1721.5 59.5Q1734.0 81 1737.0 111Q1741.0 149 1745.0 210.5Q1749.0 272 1752.5 349.0Q1756.0 426 1756.0 508Q1756.0 560 1729.5 583.0Q1703.0 606 1663.0 620Q1656.0 622 1645.0 628.0Q1634.0 634 1634.0 643Q1634.0 652 1642.0 655.0Q1650.0 658 1659.0 658Q1680.0 658 1701.0 657.0Q1722.0 656 1743.5 655.5Q1765.0 655 1788.5 654.0Q1812.0 653 1839.0 653Q1848.0 653 1852.5 649.5Q1857.0 646 1861.0 640Q1877.0 621 1902.0 592.5Q1927.0 564 1956.5 529.5Q1986.0 495 2018.5 457.0Q2051.0 419 2083.5 381.0Q2116.0 343 2146.0 308.5Q2176.0 274 2200.5 245.5Q2225.0 217 2241.0 199Q2245.0 195 2250.5 189.0Q2256.0 183 2260.0 183Q2268.0 183 2269.0 200Q2269.0 226 2269.0 266.5Q2269.0 307 2269.5 356.5Q2270.0 406 2269.5 458.0Q2269.0 510 2268.0 558Q2267.0 583 2247.5 597.5Q2228.0 612 2199.0 618Q2187.0 621 2176.5 625.5Q2166.0 630 2166.0 639Q2166.0 646 2176.5 649.0Q2187.0 652 2196.0 652Q2216.0 652 2229.5 652.0Q2243.0 652 2255.0 651.5Q2267.0 651 2280.0 651Q2302.0 651 2316.0 651.5Q2330.0 652 2346.5 653.0Q2363.0 654 2390.0 654Q2402.0 654 2409.5 650.5Q2417.0 647 2417.0 641Q2417.0 626 2388.0 620Q2353.0 613 2338.5 601.0Q2324.0 589 2323.0 561Q2323.0 536 2322.5 497.0Q2322.0 458 2321.0 412.0Q2320.0 366 2318.5 318.0Q2317.0 270 2316.5 224.0Q2316.0 178 2316.0 141Q2316.0 117 2318.0 92.0Q2320.0 67 2322.5 47.5Q2325.0 28 2325.0 20Q2325.0 -2 2318.0 -10.0Q2311.0 -18 2299.0 -18ZM2467.0 -4Q2458.0 -4 2451.0 -0.5Q2444.0 3 2444.0 9Q2444.0 24 2469.0 29Q2507.0 37 2524.0 51.0Q2541.0 65 2541.0 97V551Q2541.0 584 2527.0 598.0Q2513.0 612 2474.0 620Q2449.0 625 2449.0 641Q2449.0 647 2456.0 650.5Q2463.0 654 2472.0 654Q2496.0 654 2519.0 653.0Q2542.0 652 2563.5 651.0Q2585.0 650 2607.0 650Q2628.0 650 2649.5 651.0Q2671.0 652 2694.0 653.0Q2717.0 654 2741.0 654Q2751.0 654 2757.0 650.5Q2763.0 647 2763.0 640Q2763.0 632 2756.5 627.5Q2750.0 623 2738.0 620Q2698.0 610 2684.0 596.0Q2670.0 582 2670.0 550V98Q2670.0 67 2686.5 53.0Q2703.0 39 2741.0 29Q2754.0 26 2760.5 22.0Q2767.0 18 2767.0 10Q2767.0 3 2761.0 0.0Q2755.0 -3 2745.0 -3Q2721.0 -3 2697.0 -2.0Q2673.0 -1 2650.5 0.0Q2628.0 1 2607.0 1Q2585.0 1 2562.0 0.0Q2539.0 -1 2515.0 -2.5Q2491.0 -4 2467.0 -4ZM2825.0 -4Q2816.0 -4 2809.0 -0.5Q2802.0 3 2802.0 9Q2802.0 24 2827.0 29Q2865.0 37 2881.0 51.0Q2897.0 65 2897.0 98V538Q2897.0 576 2884.5 594.0Q2872.0 612 2836.0 620Q2822.0 623 2816.0 628.5Q2810.0 634 2810.0 640Q2810.0 647 2816.5 650.5Q2823.0 654 2834.0 654Q2858.0 654 2878.5 653.5Q2899.0 653 2918.0 652.0Q2937.0 651 2957.0 651Q2979.0 651 2998.5 653.0Q3018.0 655 3038.5 657.0Q3059.0 659 3086.0 659Q3205.0 659 3276.0 609.0Q3347.0 559 3347.0 471Q3347.0 409 3321.5 356.5Q3296.0 304 3243.5 272.0Q3191.0 240 3111.0 240Q3086.0 240 3073.0 247.5Q3060.0 255 3060.0 264Q3060.0 270 3066.5 274.5Q3073.0 279 3078.0 279Q3087.0 279 3095.5 277.5Q3104.0 276 3121.0 276Q3168.0 276 3192.5 324.0Q3217.0 372 3217.0 452Q3217.0 540 3181.5 580.5Q3146.0 621 3086.0 621Q3058.0 621 3042.5 609.5Q3027.0 598 3027.0 573L3026.0 104Q3026.0 71 3042.5 54.5Q3059.0 38 3099.0 29Q3112.0 27 3118.0 22.5Q3124.0 18 3124.0 10Q3124.0 3 3118.5 0.0Q3113.0 -3 3102.0 -3Q3079.0 -3 3055.0 -1.5Q3031.0 0 3008.5 1.0Q2986.0 2 2966.0 2Q2944.0 2 2920.5 1.0Q2897.0 0 2873.0 -2.0Q2849.0 -4 2825.0 -4ZM3745.0 -14Q3652.0 -14 3590.0 19.0Q3528.0 52 3497.0 111.0Q3466.0 170 3466.0 249V541Q3466.0 571 3452.5 592.0Q3439.0 613 3417.0 619Q3387.0 627 3387.0 641Q3387.0 647 3395.0 650.5Q3403.0 654 3415.0 654Q3443.0 654 3473.5 652.0Q3504.0 650 3533.0 650Q3559.0 650 3592.5 651.5Q3626.0 653 3650.0 653Q3662.0 653 3669.5 650.0Q3677.0 647 3677.0 640Q3677.0 630 3664.5 625.5Q3652.0 621 3635.0 614Q3621.0 608 3608.5 589.5Q3596.0 571 3596.0 539V270Q3596.0 198 3620.0 151.5Q3644.0 105 3684.0 83.0Q3724.0 61 3774.0 61Q3869.0 61 3915.0 121.0Q3961.0 181 3961.0 293Q3961.0 318 3961.0 352.0Q3961.0 386 3960.5 422.5Q3960.0 459 3959.0 492Q3959.0 531 3953.5 555.5Q3948.0 580 3938.0 594.5Q3928.0 609 3910.0 617Q3900.0 621 3886.5 626.0Q3873.0 631 3873.0 639Q3873.0 647 3881.0 650.0Q3889.0 653 3902.0 653Q3934.0 653 3951.5 652.0Q3969.0 651 3992.0 651Q4009.0 651 4022.5 651.5Q4036.0 652 4049.0 653.0Q4062.0 654 4079.0 654Q4091.0 654 4098.0 651.5Q4105.0 649 4105.0 641Q4105.0 627 4076.0 620Q4045.0 612 4033.0 591.0Q4021.0 570 4019.0 536Q4015.0 457 4013.5 391.0Q4012.0 325 4011.0 258Q4010.0 178 3974.5 116.5Q3939.0 55 3879.0 20.5Q3819.0 -14 3745.0 -14ZM4160.0 -5Q4149.0 -5 4143.0 -0.5Q4137.0 4 4137.0 9Q4137.0 17 4144.0 21.5Q4151.0 26 4158.0 28Q4194.0 37 4211.0 50.5Q4228.0 64 4228.0 95V555Q4228.0 578 4222.5 590.0Q4217.0 602 4203.5 608.5Q4190.0 615 4164.0 620Q4138.0 625 4138.0 641Q4138.0 647 4145.0 650.5Q4152.0 654 4161.0 654Q4186.0 654 4208.5 653.0Q4231.0 652 4252.0 651.0Q4273.0 650 4294.0 650Q4317.0 650 4340.5 651.0Q4364.0 652 4388.5 653.0Q4413.0 654 4436.0 654Q4446.0 654 4452.0 650.5Q4458.0 647 4458.0 640Q4458.0 632 4451.5 627.5Q4445.0 623 4433.0 620Q4394.0 610 4375.5 598.5Q4357.0 587 4357.0 558V101Q4357.0 72 4370.0 58.5Q4383.0 45 4419.0 45H4528.0Q4551.0 45 4570.0 53.0Q4589.0 61 4601.0 73Q4619.0 89 4631.0 107.0Q4643.0 125 4654.0 149Q4661.0 164 4667.0 172.0Q4673.0 180 4679.0 180Q4686.0 180 4689.0 173.5Q4692.0 167 4692.0 160Q4692.0 159 4691.0 154.0Q4690.0 149 4690.0 146Q4682.0 117 4676.5 96.0Q4671.0 75 4667.5 55.5Q4664.0 36 4661.0 13Q4660.0 6 4657.0 0.5Q4654.0 -5 4645.0 -5Q4615.0 -5 4573.0 -4.0Q4531.0 -3 4484.0 -2.5Q4437.0 -2 4389.5 -1.0Q4342.0 0 4300.0 0Q4278.0 0 4249.5 -1.0Q4221.0 -2 4196.0 -3.5Q4171.0 -5 4160.0 -5ZM4723.0 -5Q4711.0 -5 4703.0 -1.5Q4695.0 2 4695.0 10Q4695.0 19 4702.5 24.0Q4710.0 29 4722.0 33Q4751.0 41 4772.5 57.5Q4794.0 74 4807.0 103Q4832.0 162 4855.0 216.5Q4878.0 271 4899.0 325.0Q4920.0 379 4941.5 435.0Q4963.0 491 4985.0 553Q4996.0 584 5000.0 601.0Q5004.0 618 5007.0 626Q5022.0 630 5035.0 634.0Q5048.0 638 5064.0 644Q5078.0 651 5088.0 662.0Q5098.0 673 5103.0 679Q5106.0 681 5109.0 681.5Q5112.0 682 5115.0 677Q5118.0 671 5120.0 665.0Q5122.0 659 5124.0 652Q5146.0 581 5169.5 508.5Q5193.0 436 5216.0 365.5Q5239.0 295 5260.5 230.5Q5282.0 166 5300.0 112Q5309.0 85 5322.5 69.0Q5336.0 53 5352.5 44.5Q5369.0 36 5389.0 31Q5402.0 28 5409.0 23.0Q5416.0 18 5416.0 9Q5416.0 3 5409.5 0.0Q5403.0 -3 5393.0 -3Q5375.0 -3 5347.5 -2.0Q5320.0 -1 5291.0 0.5Q5262.0 2 5239.0 2Q5219.0 2 5194.5 1.0Q5170.0 0 5145.5 -1.0Q5121.0 -2 5104.0 -2Q5094.0 -2 5086.5 1.5Q5079.0 5 5079.0 12Q5079.0 20 5087.0 25.5Q5095.0 31 5106.0 33Q5142.0 39 5158.0 51.5Q5174.0 64 5170.0 88Q5167.0 105 5161.0 128.5Q5155.0 152 5148.5 177.5Q5142.0 203 5135.0 224Q5133.0 232 5129.0 235.5Q5125.0 239 5114.0 239H4934.0Q4927.0 239 4923.0 234.5Q4919.0 230 4917.0 221Q4913.0 208 4907.5 191.5Q4902.0 175 4896.5 157.5Q4891.0 140 4886.5 125.0Q4882.0 110 4880.0 99Q4875.0 72 4889.5 56.5Q4904.0 41 4940.0 32Q4967.0 25 4967.0 11Q4967.0 5 4960.5 1.5Q4954.0 -2 4942.0 -2Q4919.0 -2 4894.0 -0.5Q4869.0 1 4839.0 1Q4809.0 1 4780.5 -2.0Q4752.0 -5 4723.0 -5ZM4961.0 285H5100.0Q5114.0 285 5114.0 291Q5114.0 294 5113.5 296.0Q5113.0 298 5112.0 302L5042.0 533Q5038.0 547 5035.0 547Q5033.0 547 5028.0 534L4944.0 302Q4942.0 297 4942.0 294Q4942.0 289 4947.5 287.0Q4953.0 285 4961.0 285ZM5619.0 -4Q5609.0 -4 5601.5 -0.5Q5594.0 3 5594.0 9Q5594.0 17 5601.0 22.0Q5608.0 27 5621.0 29Q5659.0 37 5677.0 51.5Q5695.0 66 5695.0 99V504Q5695.0 545 5693.0 566.0Q5691.0 587 5687.5 594.5Q5684.0 602 5677.0 603Q5667.0 607 5652.0 608.0Q5637.0 609 5623.0 609H5592.0Q5563.0 609 5536.0 595.5Q5509.0 582 5494.0 559Q5490.0 553 5481.5 542.0Q5473.0 531 5463.5 522.0Q5454.0 513 5444.0 513Q5437.0 513 5434.5 518.0Q5432.0 523 5432.0 529Q5432.0 541 5438.0 553Q5455.0 587 5463.5 612.5Q5472.0 638 5475.0 673Q5477.0 688 5483.5 692.5Q5490.0 697 5497.0 697Q5503.0 697 5511.5 684.5Q5520.0 672 5527.0 664Q5536.0 655 5559.0 650.5Q5582.0 646 5598.0 646L5967.0 647Q5995.0 647 6014.0 651.5Q6033.0 656 6044.0 661Q6059.0 670 6068.0 679.5Q6077.0 689 6089.0 689Q6094.0 689 6096.5 683.5Q6099.0 678 6099.0 670Q6099.0 665 6098.0 658.5Q6097.0 652 6096.0 647Q6092.0 628 6088.0 613.5Q6084.0 599 6081.5 586.5Q6079.0 574 6079.0 558V541Q6079.0 527 6075.0 517.0Q6071.0 507 6062.0 507Q6054.0 507 6048.5 516.5Q6043.0 526 6037.0 546Q6028.0 578 6007.0 593.5Q5986.0 609 5941.0 609H5873.0Q5854.0 609 5843.5 602.0Q5833.0 595 5828.5 571.5Q5824.0 548 5824.0 499V100Q5824.0 68 5842.0 53.5Q5860.0 39 5899.0 29Q5911.0 26 5918.0 22.0Q5925.0 18 5925.0 10Q5925.0 3 5918.5 0.0Q5912.0 -3 5902.0 -3Q5878.0 -3 5854.0 -2.0Q5830.0 -1 5806.5 0.0Q5783.0 1 5761.0 1Q5739.0 1 5715.5 0.0Q5692.0 -1 5667.5 -2.5Q5643.0 -4 5619.0 -4ZM6137.0 -4Q6128.0 -4 6121.0 -0.5Q6114.0 3 6114.0 9Q6114.0 24 6139.0 29Q6177.0 37 6194.0 51.0Q6211.0 65 6211.0 97V551Q6211.0 584 6197.0 598.0Q6183.0 612 6144.0 620Q6119.0 625 6119.0 641Q6119.0 647 6126.0 650.5Q6133.0 654 6142.0 654Q6166.0 654 6189.0 653.0Q6212.0 652 6233.5 651.0Q6255.0 650 6277.0 650Q6298.0 650 6319.5 651.0Q6341.0 652 6364.0 653.0Q6387.0 654 6411.0 654Q6421.0 654 6427.0 650.5Q6433.0 647 6433.0 640Q6433.0 632 6426.5 627.5Q6420.0 623 6408.0 620Q6368.0 610 6354.0 596.0Q6340.0 582 6340.0 550V98Q6340.0 67 6356.5 53.0Q6373.0 39 6411.0 29Q6424.0 26 6430.5 22.0Q6437.0 18 6437.0 10Q6437.0 3 6431.0 0.0Q6425.0 -3 6415.0 -3Q6391.0 -3 6367.0 -2.0Q6343.0 -1 6320.5 0.0Q6298.0 1 6277.0 1Q6255.0 1 6232.0 0.0Q6209.0 -1 6185.0 -2.5Q6161.0 -4 6137.0 -4ZM6829.0 -14Q6761.0 -14 6699.0 9.5Q6637.0 33 6589.5 76.5Q6542.0 120 6514.5 180.5Q6487.0 241 6487.0 315Q6487.0 383 6509.5 445.5Q6532.0 508 6576.5 557.0Q6621.0 606 6686.5 635.0Q6752.0 664 6838.0 664Q6906.0 664 6967.5 640.5Q7029.0 617 7077.0 573.5Q7125.0 530 7152.5 469.5Q7180.0 409 7180.0 335Q7180.0 268 7157.5 205.0Q7135.0 142 7090.5 93.0Q7046.0 44 6980.5 15.0Q6915.0 -14 6829.0 -14ZM6846.0 30Q6909.0 30 6951.5 62.0Q6994.0 94 7015.5 151.5Q7037.0 209 7037.0 284Q7037.0 348 7024.0 408.0Q7011.0 468 6984.0 515.5Q6957.0 563 6916.5 591.0Q6876.0 619 6820.0 619Q6757.0 619 6714.5 587.0Q6672.0 555 6651.0 498.0Q6630.0 441 6630.0 366Q6630.0 302 6643.0 242.0Q6656.0 182 6682.5 134.0Q6709.0 86 6749.5 58.0Q6790.0 30 6846.0 30ZM7890.0 -18Q7878.0 -18 7850.0 -3.0Q7822.0 12 7793.0 49Q7776.0 68 7751.5 95.5Q7727.0 123 7697.5 156.0Q7668.0 189 7636.0 225.0Q7604.0 261 7572.5 297.0Q7541.0 333 7511.0 366.0Q7481.0 399 7456.0 426.5Q7431.0 454 7414.0 474Q7410.0 479 7405.5 482.5Q7401.0 486 7398.0 486Q7394.0 486 7392.0 479.0Q7390.0 472 7390.0 466Q7390.0 420 7390.5 357.0Q7391.0 294 7391.0 229.0Q7391.0 164 7391.0 109Q7391.0 78 7409.0 58.0Q7427.0 38 7466.0 29Q7478.0 27 7486.5 22.5Q7495.0 18 7495.0 10Q7495.0 3 7487.0 0.0Q7479.0 -3 7469.0 -3Q7442.0 -3 7426.0 -2.0Q7410.0 -1 7397.0 0.0Q7384.0 1 7364.0 1Q7343.0 1 7326.5 0.0Q7310.0 -1 7297.0 -2.5Q7284.0 -4 7272.0 -4Q7262.0 -4 7254.0 -0.5Q7246.0 3 7246.0 9Q7246.0 17 7253.5 21.5Q7261.0 26 7274.0 30Q7300.0 38 7312.5 59.5Q7325.0 81 7328.0 111Q7332.0 149 7336.0 210.5Q7340.0 272 7343.5 349.0Q7347.0 426 7347.0 508Q7347.0 560 7320.5 583.0Q7294.0 606 7254.0 620Q7247.0 622 7236.0 628.0Q7225.0 634 7225.0 643Q7225.0 652 7233.0 655.0Q7241.0 658 7250.0 658Q7271.0 658 7292.0 657.0Q7313.0 656 7334.5 655.5Q7356.0 655 7379.5 654.0Q7403.0 653 7430.0 653Q7439.0 653 7443.5 649.5Q7448.0 646 7452.0 640Q7468.0 621 7493.0 592.5Q7518.0 564 7547.5 529.5Q7577.0 495 7609.5 457.0Q7642.0 419 7674.5 381.0Q7707.0 343 7737.0 308.5Q7767.0 274 7791.5 245.5Q7816.0 217 7832.0 199Q7836.0 195 7841.5 189.0Q7847.0 183 7851.0 183Q7859.0 183 7860.0 200Q7860.0 226 7860.0 266.5Q7860.0 307 7860.5 356.5Q7861.0 406 7860.5 458.0Q7860.0 510 7859.0 558Q7858.0 583 7838.5 597.5Q7819.0 612 7790.0 618Q7778.0 621 7767.5 625.5Q7757.0 630 7757.0 639Q7757.0 646 7767.5 649.0Q7778.0 652 7787.0 652Q7807.0 652 7820.5 652.0Q7834.0 652 7846.0 651.5Q7858.0 651 7871.0 651Q7893.0 651 7907.0 651.5Q7921.0 652 7937.5 653.0Q7954.0 654 7981.0 654Q7993.0 654 8000.5 650.5Q8008.0 647 8008.0 641Q8008.0 626 7979.0 620Q7944.0 613 7929.5 601.0Q7915.0 589 7914.0 561Q7914.0 536 7913.5 497.0Q7913.0 458 7912.0 412.0Q7911.0 366 7909.5 318.0Q7908.0 270 7907.5 224.0Q7907.0 178 7907.0 141Q7907.0 117 7909.0 92.0Q7911.0 67 7913.5 47.5Q7916.0 28 7916.0 20Q7916.0 -2 7909.0 -10.0Q7902.0 -18 7890.0 -18Z" transform="matrix(0.018920 0 0 -0.018920 74.06 390.29)" fill="#15130f"/></svg>