<svg xmlns="http://www.w3.org/2000/svg" viewBox="0 0 300 446"><rect width="300" height="446" fill="#f4ecd8"/><rect x="20.0" y="25.5" width="260" height="395" rx="20.3" fill="#f4ecd8" stroke="#15130f" stroke-width="1.5"/><rect x="36.9" y="42.4" width="226.2" height="354.7" fill="none" stroke="#15130f" stroke-width="0.7"/><g fill="none" stroke="#15130f" stroke-width="0.65" stroke-opacity="0.72" stroke-linecap="round" stroke-linejoin="round"><path d="M150.0,42.4 L263.1,206.5 L150.0,370.6 L36.9,206.5 Z"/></g><path d="M36.9,370.6 H263.1 V397.1 H36.9 Z" fill="#c7dcf0"/><g fill="none" stroke="#15130f" stroke-width="0.8"><line x1="36.9" y1="370.6" x2="263.1" y2="370.6"/><line x1="61.6" y1="370.6" x2="61.6" y2="397.1"/><line x1="238.4" y1="370.6" x2="238.4" y2="397.1"/></g><rect x="141.4" y="34.4" width="17.2" height="19.0" fill="#c7dcf0" stroke="#15130f" stroke-width="0.8"/><path d="M923.0 348Q946.0 348 948.0 331L946.0 321L931.0 277Q917.0 236 896.0 192L845.0 85Q815.0 23 792.5 9.5Q770.0 -4 697.0 -4Q653.0 -4 591.0 -1L506.0 4Q458.0 6 371.0 6Q208.0 6 167.0 -1Q139.0 -6 126.0 -6Q95.0 -6 95.0 21Q95.0 40 154.0 106Q246.0 211 365.0 383.0Q484.0 555 541.0 665Q617.0 813 617.0 932Q617.0 1035 559.0 1096.0Q501.0 1157 404.0 1157Q266.0 1157 156.0 1033Q146.0 1021 138.0 1021Q131.0 1021 122.5 1029.5Q114.0 1038 114.0 1046Q114.0 1059 145.0 1101.5Q176.0 1144 210.0 1176Q343.0 1307 517.0 1307Q655.0 1307 740.0 1230.5Q825.0 1154 825.0 1029Q825.0 803 432.0 355L384.0 300Q342.0 253 342.0 233Q342.0 198 426.0 198L590.0 200L686.0 201Q750.0 204 811.0 241.0Q872.0 278 902.0 333Q911.0 348 923.0 348Z" transform="matrix(0.006858 0 0 -0.006858 146.42 49.14)" fill="#15130f"/><path d="M542.0 980Q542.0 1081 524.0 1150.5Q506.0 1220 468.5 1265.0Q431.0 1310 374.0 1310Q309.0 1310 251.5 1260.0Q194.0 1210 140.5 1125.0Q87.0 1040 87.0 960H50.0V1410H87.0Q87.0 1385 110.5 1358.5Q134.0 1332 164.0 1332Q194.0 1332 249.0 1371.0Q304.0 1410 374.0 1410Q483.0 1410 568.5 1352.0Q654.0 1294 698.0 1210.5Q742.0 1127 742.0 1000Q742.0 883 691.0 779Q660.0 716 617.0 675H1060.0V1200Q1060.0 1250 1020.0 1305.0Q980.0 1360 910.0 1360H860.0V1400H1460.0V1360H1410.0Q1340.0 1360 1300.0 1305.0Q1260.0 1250 1260.0 1200V200Q1260.0 150 1300.0 95.0Q1340.0 40 1410.0 40H1460.0V0H860.0V40H910.0Q980.0 40 1020.0 95.0Q1060.0 150 1060.0 200V575H225.0Q430.0 680 486.0 784.5Q542.0 889 542.0 980Z" transform="matrix(0.009268 0 0 -0.009268 42.25 390.40)" fill="#15130f"/><path d="M467.0 450Q467.0 349 495.0 264.5Q523.0 180 575.5 135.0Q628.0 90 684.0 90Q741.0 90 793.5 135.0Q846.0 180 874.0 264.5Q902.0 349 902.0 450Q902.0 541 874.0 625.5Q846.0 710 793.5 755.0Q741.0 800 684.0 800Q628.0 800 575.5 755.0Q523.0 710 495.0 625.5Q467.0 541 467.0 450ZM897.0 840Q995.0 782 1048.0 676Q1102.0 567 1102.0 450Q1102.0 323 1048.0 214.5Q994.0 106 893.5 48.0Q793.0 -10 684.0 -10Q576.0 -10 475.5 48.0Q375.0 106 321.0 214.5Q267.0 323 267.0 450Q267.0 567 321.0 676Q374.0 782 472.0 840Q374.0 878 321.0 950Q267.0 1022 267.0 1100Q267.0 1162 239.0 1210.5Q211.0 1259 158.5 1284.5Q106.0 1310 50.0 1310V1410Q158.0 1410 258.5 1371.5Q359.0 1333 413.0 1260.5Q467.0 1188 467.0 1100Q467.0 1048 495.0 999.5Q523.0 951 575.5 925.5Q628.0 900 684.0 900Q741.0 900 793.5 925.5Q846.0 951 874.0 999.5Q902.0 1048 902.0 1100Q902.0 1188 956.0 1260.5Q1010.0 1333 1110.5 1371.5Q1211.0 1410 1320.0 1410V1310Q1263.0 1310 1210.5 1284.5Q1158.0 1259 1130.0 1210.5Q1102.0 1162 1102.0 1100Q1102.0 1022 1048.0 950Q995.0 878 897.0 840Z" transform="matrix(0.009268 0 0 -0.009268 244.40 390.35)" fill="#15130f"/><path d="M214.0 -15Q171.0 -15 132.5 -4.0Q94.0 7 62.0 29Q56.0 34 51.0 39.5Q46.0 45 43.0 52Q35.0 77 32.0 113.5Q29.0 150 30.0 184Q30.0 191 35.5 194.0Q41.0 197 49.0 197Q57.0 197 61.5 194.5Q66.0 192 68.0 185Q90.0 110 132.0 68.0Q174.0 26 227.0 26Q260.0 26 283.0 41.0Q306.0 56 318.0 80.0Q330.0 104 330.0 132Q330.0 167 317.5 190.0Q305.0 213 280.0 231.5Q255.0 250 217.0 271Q176.0 295 137.0 321.5Q98.0 348 73.0 384.5Q48.0 421 48.0 475Q48.0 531 76.5 573.5Q105.0 616 156.0 640.0Q207.0 664 274.0 664Q311.0 664 343.0 656.0Q375.0 648 394.0 640Q405.0 636 410.5 630.0Q416.0 624 419.0 611Q425.0 590 429.5 561.0Q434.0 532 434.0 500Q434.0 488 416.0 488Q408.0 488 400.0 492.0Q392.0 496 390.0 503Q372.0 561 340.5 591.0Q309.0 621 263.0 621Q232.0 621 210.0 610.5Q188.0 600 175.0 578.5Q162.0 557 162.0 523Q162.0 497 179.5 475.0Q197.0 453 228.5 432.0Q260.0 411 299.0 386Q347.0 358 379.5 329.5Q412.0 301 429.0 266.5Q446.0 232 446.0 185Q446.0 119 417.0 74.5Q388.0 30 336.0 7.5Q284.0 -15 214.0 -15ZM693.0 -4Q683.0 -4 675.5 -0.5Q668.0 3 668.0 9Q668.0 17 675.0 22.0Q682.0 27 695.0 29Q733.0 37 751.0 51.5Q769.0 66 769.0 99V504Q769.0 545 767.0 566.0Q765.0 587 761.5 594.5Q758.0 602 751.0 603Q741.0 607 726.0 608.0Q711.0 609 697.0 609H666.0Q637.0 609 610.0 595.5Q583.0 582 568.0 559Q564.0 553 555.5 542.0Q547.0 531 537.5 522.0Q528.0 513 518.0 513Q511.0 513 508.5 518.0Q506.0 523 506.0 529Q506.0 541 512.0 553Q529.0 587 537.5 612.5Q546.0 638 549.0 673Q551.0 688 557.5 692.5Q564.0 697 571.0 697Q577.0 697 585.5 684.5Q594.0 672 601.0 664Q610.0 655 633.0 650.5Q656.0 646 672.0 646L1041.0 647Q1069.0 647 1088.0 651.5Q1107.0 656 1118.0 661Q1133.0 670 1142.0 679.5Q1151.0 689 1163.0 689Q1168.0 689 1170.5 683.5Q1173.0 678 1173.0 670Q1173.0 665 1172.0 658.5Q1171.0 652 1170.0 647Q1166.0 628 1162.0 613.5Q1158.0 599 1155.5 586.5Q1153.0 574 1153.0 558V541Q1153.0 527 1149.0 517.0Q1145.0 507 1136.0 507Q1128.0 507 1122.5 516.5Q1117.0 526 1111.0 546Q1102.0 578 1081.0 593.5Q1060.0 609 1015.0 609H947.0Q928.0 609 917.5 602.0Q907.0 595 902.5 571.5Q898.0 548 898.0 499V100Q898.0 68 916.0 53.5Q934.0 39 973.0 29Q985.0 26 992.0 22.0Q999.0 18 999.0 10Q999.0 3 992.5 0.0Q986.0 -3 976.0 -3Q952.0 -3 928.0 -2.0Q904.0 -1 880.5 0.0Q857.0 1 835.0 1Q813.0 1 789.5 0.0Q766.0 -1 741.5 -2.5Q717.0 -4 693.0 -4ZM1195.0 -5Q1183.0 -5 1175.0 -1.5Q1167.0 2 1167.0 10Q1167.0 19 1174.5 24.0Q1182.0 29 1194.0 33Q1223.0 41 1244.5 57.5Q1266.0 74 1279.0 103Q1304.0 162 1327.0 216.5Q1350.0 271 1371.0 325.0Q1392.0 379 1413.5 435.0Q1435.0 491 1457.0 553Q1468.0 584 1472.0 601.0Q1476.0 618 1479.0 626Q1494.0 630 1507.0 634.0Q1520.0 638 1536.0 644Q1550.0 651 1560.0 662.0Q1570.0 673 1575.0 679Q1578.0 681 1581.0 681.5Q1584.0 682 1587.0 677Q1590.0 671 1592.0 665.0Q1594.0 659 1596.0 652Q1618.0 581 1641.5 508.5Q1665.0 436 1688.0 365.5Q1711.0 295 1732.5 230.5Q1754.0 166 1772.0 112Q1781.0 85 1794.5 69.0Q1808.0 53 1824.5 44.5Q1841.0 36 1861.0 31Q1874.0 28 1881.0 23.0Q1888.0 18 1888.0 9Q1888.0 3 1881.5 0.0Q1875.0 -3 1865.0 -3Q1847.0 -3 1819.5 -2.0Q1792.0 -1 1763.0 0.5Q1734.0 2 1711.0 2Q1691.0 2 1666.5 1.0Q1642.0 0 1617.5 -1.0Q1593.0 -2 1576.0 -2Q1566.0 -2 1558.5 1.5Q1551.0 5 1551.0 12Q1551.0 20 1559.0 25.5Q1567.0 31 1578.0 33Q1614.0 39 1630.0 51.5Q1646.0 64 1642.0 88Q1639.0 105 1633.0 128.5Q1627.0 152 1620.5 177.5Q1614.0 203 1607.0 224Q1605.0 232 1601.0 235.5Q1597.0 239 1586.0 239H1406.0Q1399.0 239 1395.0 234.5Q1391.0 230 1389.0 221Q1385.0 208 1379.5 191.5Q1374.0 175 1368.5 157.5Q1363.0 140 1358.5 125.0Q1354.0 110 1352.0 99Q1347.0 72 1361.5 56.5Q1376.0 41 1412.0 32Q1439.0 25 1439.0 11Q1439.0 5 1432.5 1.5Q1426.0 -2 1414.0 -2Q1391.0 -2 1366.0 -0.5Q1341.0 1 1311.0 1Q1281.0 1 1252.5 -2.0Q1224.0 -5 1195.0 -5ZM1433.0 285H1572.0Q1586.0 285 1586.0 291Q1586.0 294 1585.5 296.0Q1585.0 298 1584.0 302L1514.0 533Q1510.0 547 1507.0 547Q1505.0 547 1500.0 534L1416.0 302Q1414.0 297 1414.0 294Q1414.0 289 1419.5 287.0Q1425.0 285 1433.0 285ZM2091.0 -4Q2081.0 -4 2073.5 -0.5Q2066.0 3 2066.0 9Q2066.0 17 2073.0 22.0Q2080.0 27 2093.0 29Q2131.0 37 2149.0 51.5Q2167.0 66 2167.0 99V504Q2167.0 545 2165.0 566.0Q2163.0 587 2159.5 594.5Q2156.0 602 2149.0 603Q2139.0 607 2124.0 608.0Q2109.0 609 2095.0 609H2064.0Q2035.0 609 2008.0 595.5Q1981.0 582 1966.0 559Q1962.0 553 1953.5 542.0Q1945.0 531 1935.5 522.0Q1926.0 513 1916.0 513Q1909.0 513 1906.5 518.0Q1904.0 523 1904.0 529Q1904.0 541 1910.0 553Q1927.0 587 1935.5 612.5Q1944.0 638 1947.0 673Q1949.0 688 1955.5 692.5Q1962.0 697 1969.0 697Q1975.0 697 1983.5 684.5Q1992.0 672 1999.0 664Q2008.0 655 2031.0 650.5Q2054.0 646 2070.0 646L2439.0 647Q2467.0 647 2486.0 651.5Q2505.0 656 2516.0 661Q2531.0 670 2540.0 679.5Q2549.0 689 2561.0 689Q2566.0 689 2568.5 683.5Q2571.0 678 2571.0 670Q2571.0 665 2570.0 658.5Q2569.0 652 2568.0 647Q2564.0 628 2560.0 613.5Q2556.0 599 2553.5 586.5Q2551.0 574 2551.0 558V541Q2551.0 527 2547.0 517.0Q2543.0 507 2534.0 507Q2526.0 507 2520.5 516.5Q2515.0 526 2509.0 546Q2500.0 578 2479.0 593.5Q2458.0 609 2413.0 609H2345.0Q2326.0 609 2315.5 602.0Q2305.0 595 2300.5 571.5Q2296.0 548 2296.0 499V100Q2296.0 68 2314.0 53.5Q2332.0 39 2371.0 29Q2383.0 26 2390.0 22.0Q2397.0 18 2397.0 10Q2397.0 3 2390.5 0.0Q2384.0 -3 2374.0 -3Q2350.0 -3 2326.0 -2.0Q2302.0 -1 2278.5 0.0Q2255.0 1 2233.0 1Q2211.0 1 2187.5 0.0Q2164.0 -1 2139.5 -2.5Q2115.0 -4 2091.0 -4ZM2942.0 -14Q2849.0 -14 2787.0 19.0Q2725.0 52 2694.0 111.0Q2663.0 170 2663.0 249V541Q2663.0 571 2649.5 592.0Q2636.0 613 2614.0 619Q2584.0 627 2584.0 641Q2584.0 647 2592.0 650.5Q2600.0 654 2612.0 654Q2640.0 654 2670.5 652.0Q2701.0 650 2730.0 650Q2756.0 650 2789.5 651.5Q2823.0 653 2847.0 653Q2859.0 653 2866.5 650.0Q2874.0 647 2874.0 640Q2874.0 630 2861.5 625.5Q2849.0 621 2832.0 614Q2818.0 608 2805.5 589.5Q2793.0 571 2793.0 539V270Q2793.0 198 2817.0 151.5Q2841.0 105 2881.0 83.0Q2921.0 61 2971.0 61Q3066.0 61 3112.0 121.0Q3158.0 181 3158.0 293Q3158.0 318 3158.0 352.0Q3158.0 386 3157.5 422.5Q3157.0 459 3156.0 492Q3156.0 531 3150.5 555.5Q3145.0 580 3135.0 594.5Q3125.0 609 3107.0 617Q3097.0 621 3083.5 626.0Q3070.0 631 3070.0 639Q3070.0 647 3078.0 650.0Q3086.0 653 3099.0 653Q3131.0 653 3148.5 652.0Q3166.0 651 3189.0 651Q3206.0 651 3219.5 651.5Q3233.0 652 3246.0 653.0Q3259.0 654 3276.0 654Q3288.0 654 3295.0 651.5Q3302.0 649 3302.0 641Q3302.0 627 3273.0 620Q3242.0 612 3230.0 591.0Q3218.0 570 3216.0 536Q3212.0 457 3210.5 391.0Q3209.0 325 3208.0 258Q3207.0 178 3171.5 116.5Q3136.0 55 3076.0 20.5Q3016.0 -14 2942.0 -14ZM3525.0 -15Q3482.0 -15 3443.5 -4.0Q3405.0 7 3373.0 29Q3367.0 34 3362.0 39.5Q3357.0 45 3354.0 52Q3346.0 77 3343.0 113.5Q3340.0 150 3341.0 184Q3341.0 191 3346.5 194.0Q3352.0 197 3360.0 197Q3368.0 197 3372.5 194.5Q3377.0 192 3379.0 185Q3401.0 110 3443.0 68.0Q3485.0 26 3538.0 26Q3571.0 26 3594.0 41.0Q3617.0 56 3629.0 80.0Q3641.0 104 3641.0 132Q3641.0 167 3628.5 190.0Q3616.0 213 3591.0 231.5Q3566.0 250 3528.0 271Q3487.0 295 3448.0 321.5Q3409.0 348 3384.0 384.5Q3359.0 421 3359.0 475Q3359.0 531 3387.5 573.5Q3416.0 616 3467.0 640.0Q3518.0 664 3585.0 664Q3622.0 664 3654.0 656.0Q3686.0 648 3705.0 640Q3716.0 636 3721.5 630.0Q3727.0 624 3730.0 611Q3736.0 590 3740.5 561.0Q3745.0 532 3745.0 500Q3745.0 488 3727.0 488Q3719.0 488 3711.0 492.0Q3703.0 496 3701.0 503Q3683.0 561 3651.5 591.0Q3620.0 621 3574.0 621Q3543.0 621 3521.0 610.5Q3499.0 600 3486.0 578.5Q3473.0 557 3473.0 523Q3473.0 497 3490.5 475.0Q3508.0 453 3539.5 432.0Q3571.0 411 3610.0 386Q3658.0 358 3690.5 329.5Q3723.0 301 3740.0 266.5Q3757.0 232 3757.0 185Q3757.0 119 3728.0 74.5Q3699.0 30 3647.0 7.5Q3595.0 -15 3525.0 -15Z" transform="matrix(0.022120 0 0 -0.022120 108.12 391.41)" fill="#15130f"/></svg>