<svg xmlns="http://www.w3.org/2000/svg" viewBox="0 0 300 446"><rect width="300" height="446" fill="#f4ecd8"/><rect x="20.0" y="25.5" width="260" height="395" rx="20.3" fill="#f4ecd8" stroke="#15130f" stroke-width="1.5"/><rect x="36.9" y="42.4" width="226.2" height="354.7" fill="none" stroke="#15130f" stroke-width="0.7"/><g fill="none" stroke="#15130f" stroke-width="0.65" stroke-opacity="0.72" stroke-linecap="round" stroke-linejoin="round"><path d="M150.0,42.4 L263.1,206.5 L150.0,370.6 L36.9,206.5 Z"/></g><path d="M36.9,370.6 H263.1 V397.1 H36.9 Z" fill="#c7dcf0"/><g fill="none" stroke="#15130f" stroke-width="0.8"><line x1="36.9" y1="370.6" x2="263.1" y2="370.6"/><line x1="61.6" y1="370.6" x2="61.6" y2="397.1"/><line x1="238.4" y1="370.6" x2="238.4" y2="397.1"/></g><rect x="141.4" y="34.4" width="17.2" height="19.0" fill="#c7dcf0" stroke="#15130f" stroke-width="0.8"/><path d="M754.0 1055H388.0Q323.0 1055 311.0 963Q305.0 912 298.0 870Q294.0 844 294.0 822Q294.0 792 325.0 792Q335.0 792 350.0 795Q414.0 806 475.0 806Q664.0 806 775.5 709.5Q887.0 613 887.0 449Q887.0 250 738.0 111.5Q589.0 -27 375.0 -27Q285.0 -27 176.5 10.0Q68.0 47 68.0 78Q68.0 105 94.0 105Q101.0 105 112.0 101Q255.0 47 343.0 47Q489.0 47 590.5 139.0Q692.0 231 692.0 365Q692.0 477 611.5 550.0Q531.0 623 407.0 623Q373.0 623 299.0 612Q255.0 606 240.0 606Q196.0 606 196.0 658Q196.0 671 205.0 708Q212.0 739 227.0 858Q234.0 917 245.0 993L264.0 1132Q277.0 1226 285.5 1240.0Q294.0 1254 337.0 1254H727.0Q767.0 1254 797.0 1284L837.0 1323Q845.0 1331 858.0 1331Q875.0 1331 875.0 1315Q875.0 1301 869.0 1285L847.0 1208L830.0 1148Q809.0 1075 801.0 1065.0Q793.0 1055 754.0 1055Z" transform="matrix(0.006858 0 0 -0.006858 146.73 49.15)" fill="#15130f"/><path d="M542.0 980Q542.0 1081 524.0 1150.5Q506.0 1220 468.5 1265.0Q431.0 1310 374.0 1310Q309.0 1310 251.5 1260.0Q194.0 1210 140.5 1125.0Q87.0 1040 87.0 960H50.0V1410H87.0Q87.0 1385 110.5 1358.5Q134.0 1332 164.0 1332Q194.0 1332 249.0 1371.0Q304.0 1410 374.0 1410Q483.0 1410 568.5 1352.0Q654.0 1294 698.0 1210.5Q742.0 1127 742.0 1000Q742.0 883 691.0 779Q660.0 716 617.0 675H1060.0V1200Q1060.0 1250 1020.0 1305.0Q980.0 1360 910.0 1360H860.0V1400H1460.0V1360H1410.0Q1340.0 1360 1300.0 1305.0Q1260.0 1250 1260.0 1200V200Q1260.0 150 1300.0 95.0Q1340.0 40 1410.0 40H1460.0V0H860.0V40H910.0Q980.0 40 1020.0 95.0Q1060.0 150 1060.0 200V575H225.0Q430.0 680 486.0 784.5Q542.0 889 542.0 980Z" transform="matrix(0.009268 0 0 -0.009268 42.25 390.40)" fill="#15130f"/><path d="M250.0 439Q250.0 348 278.0 263.5Q306.0 179 358.5 134.0Q411.0 89 467.0 89Q524.0 89 576.5 134.0Q629.0 179 657.0 263.5Q685.0 348 685.0 439Q685.0 530 657.0 614.5Q629.0 699 576.5 744.0Q524.0 789 467.0 789Q411.0 789 358.5 744.0Q306.0 699 278.0 614.5Q250.0 530 250.0 439ZM831.0 665Q885.0 556 885.0 439Q885.0 322 831.0 213.5Q777.0 105 676.5 47.0Q576.0 -11 467.0 -11Q359.0 -11 258.5 47.0Q158.0 105 104.0 213.5Q50.0 322 50.0 439Q50.0 556 104.0 664.5Q158.0 773 258.5 831.0Q359.0 889 467.0 889Q503.0 889 537.0 883V900Q537.0 1115 681.0 1262.5Q825.0 1410 1118.0 1410Q1411.0 1410 1555.5 1262.5Q1700.0 1115 1700.0 900Q1700.0 684 1389.0 330.0Q1078.0 -24 1078.0 -204Q1078.0 -303 1125.5 -356.5Q1173.0 -410 1248.0 -410Q1356.0 -410 1446.5 -374.0Q1537.0 -338 1581.0 -266.5Q1625.0 -195 1651.0 -51H1688.0V-510H1651.0Q1644.0 -464 1629.5 -449.0Q1615.0 -434 1590.0 -434Q1554.0 -434 1450.0 -472.0Q1346.0 -510 1227.0 -510Q1089.0 -510 994.5 -400.0Q900.0 -290 900.0 -128Q900.0 102 1200.0 452.5Q1500.0 803 1500.0 950Q1500.0 1100 1414.0 1205.0Q1328.0 1310 1118.0 1310Q905.0 1310 821.0 1205.0Q737.0 1100 737.0 900Q737.0 836 768.0 782.5Q799.0 729 831.0 665Z" transform="matrix(0.009268 0 0 -0.009268 242.64 388.04)" fill="#15130f"/><path d="M42.0 -4Q33.0 -4 26.0 -0.5Q19.0 3 19.0 9Q19.0 24 44.0 29Q82.0 37 98.0 51.0Q114.0 65 114.0 98V538Q114.0 576 101.5 594.0Q89.0 612 53.0 620Q39.0 623 33.0 628.5Q27.0 634 27.0 640Q27.0 647 33.5 650.5Q40.0 654 51.0 654Q75.0 654 95.5 653.5Q116.0 653 135.0 652.0Q154.0 651 174.0 651Q196.0 651 215.5 653.0Q235.0 655 255.5 657.0Q276.0 659 303.0 659Q422.0 659 493.0 609.0Q564.0 559 564.0 471Q564.0 409 538.5 356.5Q513.0 304 460.5 272.0Q408.0 240 328.0 240Q303.0 240 290.0 247.5Q277.0 255 277.0 264Q277.0 270 283.5 274.5Q290.0 279 295.0 279Q304.0 279 312.5 277.5Q321.0 276 338.0 276Q385.0 276 409.5 324.0Q434.0 372 434.0 452Q434.0 540 398.5 580.5Q363.0 621 303.0 621Q275.0 621 259.5 609.5Q244.0 598 244.0 573L243.0 104Q243.0 71 259.5 54.5Q276.0 38 316.0 29Q329.0 27 335.0 22.5Q341.0 18 341.0 10Q341.0 3 335.5 0.0Q330.0 -3 319.0 -3Q296.0 -3 272.0 -1.5Q248.0 0 225.5 1.0Q203.0 2 183.0 2Q161.0 2 137.5 1.0Q114.0 0 90.0 -2.0Q66.0 -4 42.0 -4ZM962.0 -14Q869.0 -14 807.0 19.0Q745.0 52 714.0 111.0Q683.0 170 683.0 249V541Q683.0 571 669.5 592.0Q656.0 613 634.0 619Q604.0 627 604.0 641Q604.0 647 612.0 650.5Q620.0 654 632.0 654Q660.0 654 690.5 652.0Q721.0 650 750.0 650Q776.0 650 809.5 651.5Q843.0 653 867.0 653Q879.0 653 886.5 650.0Q894.0 647 894.0 640Q894.0 630 881.5 625.5Q869.0 621 852.0 614Q838.0 608 825.5 589.5Q813.0 571 813.0 539V270Q813.0 198 837.0 151.5Q861.0 105 901.0 83.0Q941.0 61 991.0 61Q1086.0 61 1132.0 121.0Q1178.0 181 1178.0 293Q1178.0 318 1178.0 352.0Q1178.0 386 1177.5 422.5Q1177.0 459 1176.0 492Q1176.0 531 1170.5 555.5Q1165.0 580 1155.0 594.5Q1145.0 609 1127.0 617Q1117.0 621 1103.5 626.0Q1090.0 631 1090.0 639Q1090.0 647 1098.0 650.0Q1106.0 653 1119.0 653Q1151.0 653 1168.5 652.0Q1186.0 651 1209.0 651Q1226.0 651 1239.5 651.5Q1253.0 652 1266.0 653.0Q1279.0 654 1296.0 654Q1308.0 654 1315.0 651.5Q1322.0 649 1322.0 641Q1322.0 627 1293.0 620Q1262.0 612 1250.0 591.0Q1238.0 570 1236.0 536Q1232.0 457 1230.5 391.0Q1229.0 325 1228.0 258Q1227.0 178 1191.5 116.5Q1156.0 55 1096.0 20.5Q1036.0 -14 962.0 -14ZM1372.0 -5Q1361.0 -5 1354.5 -1.0Q1348.0 3 1348.0 9Q1348.0 22 1374.0 28Q1409.0 37 1425.5 50.5Q1442.0 64 1442.0 97V550Q1442.0 584 1428.5 599.0Q1415.0 614 1379.0 620Q1365.0 622 1359.0 628.0Q1353.0 634 1353.0 640Q1353.0 647 1359.5 650.5Q1366.0 654 1377.0 654Q1407.0 654 1426.0 653.0Q1445.0 652 1462.0 650.5Q1479.0 649 1502.0 649Q1524.0 649 1541.5 651.0Q1559.0 653 1580.0 655.0Q1601.0 657 1634.0 657Q1752.0 657 1812.5 623.5Q1873.0 590 1873.0 508Q1873.0 476 1859.5 449.0Q1846.0 422 1828.0 407Q1812.0 392 1796.0 383.0Q1780.0 374 1757.0 367Q1753.0 366 1753.0 362.0Q1753.0 358 1757.0 357Q1782.0 351 1808.5 341.0Q1835.0 331 1858.5 313.0Q1882.0 295 1896.5 266.5Q1911.0 238 1911.0 194Q1911.0 138 1893.5 105.5Q1876.0 73 1851.5 56.0Q1827.0 39 1806.0 28Q1774.0 12 1732.5 4.0Q1691.0 -4 1633.0 -4Q1606.0 -4 1575.0 -2.0Q1544.0 0 1510.0 0Q1487.0 0 1464.5 -1.0Q1442.0 -2 1419.0 -3.5Q1396.0 -5 1372.0 -5ZM1638.0 46Q1673.0 46 1703.0 65.0Q1733.0 84 1751.0 116.0Q1769.0 148 1769.0 187Q1769.0 224 1759.0 247.5Q1749.0 271 1735.5 285.5Q1722.0 300 1711.0 307Q1701.0 314 1678.5 322.0Q1656.0 330 1621.0 330Q1599.0 330 1585.0 320.0Q1571.0 310 1571.0 297V112Q1571.0 77 1588.5 61.5Q1606.0 46 1638.0 46ZM1613.0 369Q1638.0 369 1662.0 375.0Q1686.0 381 1710.0 397Q1719.0 404 1732.5 426.0Q1746.0 448 1746.0 490Q1746.0 527 1735.5 556.0Q1725.0 585 1699.5 601.5Q1674.0 618 1629.0 618Q1596.0 618 1583.5 607.0Q1571.0 596 1571.0 574V405Q1571.0 384 1586.0 376.5Q1601.0 369 1613.0 369ZM1990.0 -5Q1979.0 -5 1973.0 -0.5Q1967.0 4 1967.0 9Q1967.0 17 1974.0 21.5Q1981.0 26 1988.0 28Q2024.0 37 2041.0 50.5Q2058.0 64 2058.0 95V555Q2058.0 578 2052.5 590.0Q2047.0 602 2033.5 608.5Q2020.0 615 1994.0 620Q1968.0 625 1968.0 641Q1968.0 647 1975.0 650.5Q1982.0 654 1991.0 654Q2016.0 654 2038.5 653.0Q2061.0 652 2082.0 651.0Q2103.0 650 2124.0 650Q2147.0 650 2170.5 651.0Q2194.0 652 2218.5 653.0Q2243.0 654 2266.0 654Q2276.0 654 2282.0 650.5Q2288.0 647 2288.0 640Q2288.0 632 2281.5 627.5Q2275.0 623 2263.0 620Q2224.0 610 2205.5 598.5Q2187.0 587 2187.0 558V101Q2187.0 72 2200.0 58.5Q2213.0 45 2249.0 45H2358.0Q2381.0 45 2400.0 53.0Q2419.0 61 2431.0 73Q2449.0 89 2461.0 107.0Q2473.0 125 2484.0 149Q2491.0 164 2497.0 172.0Q2503.0 180 2509.0 180Q2516.0 180 2519.0 173.5Q2522.0 167 2522.0 160Q2522.0 159 2521.0 154.0Q2520.0 149 2520.0 146Q2512.0 117 2506.5 96.0Q2501.0 75 2497.5 55.5Q2494.0 36 2491.0 13Q2490.0 6 2487.0 0.5Q2484.0 -5 2475.0 -5Q2445.0 -5 2403.0 -4.0Q2361.0 -3 2314.0 -2.5Q2267.0 -2 2219.5 -1.0Q2172.0 0 2130.0 0Q2108.0 0 2079.5 -1.0Q2051.0 -2 2026.0 -3.5Q2001.0 -5 1990.0 -5ZM2569.0 -4Q2560.0 -4 2553.0 -0.5Q2546.0 3 2546.0 9Q2546.0 24 2571.0 29Q2609.0 37 2626.0 51.0Q2643.0 65 2643.0 97V551Q2643.0 584 2629.0 598.0Q2615.0 612 2576.0 620Q2551.0 625 2551.0 641Q2551.0 647 2558.0 650.5Q2565.0 654 2574.0 654Q2598.0 654 2621.0 653.0Q2644.0 652 2665.5 651.0Q2687.0 650 2709.0 650Q2730.0 650 2751.5 651.0Q2773.0 652 2796.0 653.0Q2819.0 654 2843.0 654Q2853.0 654 2859.0 650.5Q2865.0 647 2865.0 640Q2865.0 632 2858.5 627.5Q2852.0 623 2840.0 620Q2800.0 610 2786.0 596.0Q2772.0 582 2772.0 550V98Q2772.0 67 2788.5 53.0Q2805.0 39 2843.0 29Q2856.0 26 2862.5 22.0Q2869.0 18 2869.0 10Q2869.0 3 2863.0 0.0Q2857.0 -3 2847.0 -3Q2823.0 -3 2799.0 -2.0Q2775.0 -1 2752.5 0.0Q2730.0 1 2709.0 1Q2687.0 1 2664.0 0.0Q2641.0 -1 2617.0 -2.5Q2593.0 -4 2569.0 -4ZM3290.0 -14Q3215.0 -14 3148.0 9.5Q3081.0 33 3029.5 77.0Q2978.0 121 2948.5 182.5Q2919.0 244 2919.0 319Q2919.0 389 2948.0 451.0Q2977.0 513 3030.0 561.0Q3083.0 609 3156.5 636.5Q3230.0 664 3318.0 664Q3352.0 664 3382.5 659.5Q3413.0 655 3442.0 648.5Q3471.0 642 3499.0 632Q3510.0 628 3516.5 621.0Q3523.0 614 3524.0 602Q3528.0 572 3530.0 542.5Q3532.0 513 3532.0 484Q3533.0 474 3525.0 469.5Q3517.0 465 3508.0 468.5Q3499.0 472 3495.0 483Q3487.0 511 3476.5 535.5Q3466.0 560 3445.0 577Q3422.0 596 3387.0 607.5Q3352.0 619 3305.0 619Q3251.0 619 3207.0 597.0Q3163.0 575 3131.5 536.0Q3100.0 497 3083.0 448.0Q3066.0 399 3066.0 345Q3066.0 281 3081.5 224.0Q3097.0 167 3128.5 123.5Q3160.0 80 3205.0 55.5Q3250.0 31 3308.0 31Q3382.0 31 3428.0 63.0Q3474.0 95 3506.0 158Q3514.0 174 3528.0 173.5Q3542.0 173 3542.0 157Q3542.0 145 3539.0 127.0Q3536.0 109 3530.5 88.5Q3525.0 68 3518.0 48Q3514.0 36 3508.0 30.0Q3502.0 24 3490.0 19Q3452.0 3 3400.5 -5.5Q3349.0 -14 3290.0 -14ZM3634.0 -4Q3625.0 -4 3618.0 -0.5Q3611.0 3 3611.0 9Q3611.0 24 3636.0 29Q3674.0 37 3691.0 51.0Q3708.0 65 3708.0 97V551Q3708.0 584 3694.0 598.0Q3680.0 612 3641.0 620Q3616.0 625 3616.0 641Q3616.0 647 3623.0 650.5Q3630.0 654 3639.0 654Q3663.0 654 3686.0 653.0Q3709.0 652 3730.5 651.0Q3752.0 650 3774.0 650Q3795.0 650 3816.5 651.0Q3838.0 652 3861.0 653.0Q3884.0 654 3908.0 654Q3918.0 654 3924.0 650.5Q3930.0 647 3930.0 640Q3930.0 632 3923.5 627.5Q3917.0 623 3905.0 620Q3865.0 610 3851.0 596.0Q3837.0 582 3837.0 550V98Q3837.0 67 3853.5 53.0Q3870.0 39 3908.0 29Q3921.0 26 3927.5 22.0Q3934.0 18 3934.0 10Q3934.0 3 3928.0 0.0Q3922.0 -3 3912.0 -3Q3888.0 -3 3864.0 -2.0Q3840.0 -1 3817.5 0.0Q3795.0 1 3774.0 1Q3752.0 1 3729.0 0.0Q3706.0 -1 3682.0 -2.5Q3658.0 -4 3634.0 -4ZM4159.0 -4Q4149.0 -4 4141.5 -0.5Q4134.0 3 4134.0 9Q4134.0 17 4141.0 22.0Q4148.0 27 4161.0 29Q4199.0 37 4217.0 51.5Q4235.0 66 4235.0 99V504Q4235.0 545 4233.0 566.0Q4231.0 587 4227.5 594.5Q4224.0 602 4217.0 603Q4207.0 607 4192.0 608.0Q4177.0 609 4163.0 609H4132.0Q4103.0 609 4076.0 595.5Q4049.0 582 4034.0 559Q4030.0 553 4021.5 542.0Q4013.0 531 4003.5 522.0Q3994.0 513 3984.0 513Q3977.0 513 3974.5 518.0Q3972.0 523 3972.0 529Q3972.0 541 3978.0 553Q3995.0 587 4003.5 612.5Q4012.0 638 4015.0 673Q4017.0 688 4023.5 692.5Q4030.0 697 4037.0 697Q4043.0 697 4051.5 684.5Q4060.0 672 4067.0 664Q4076.0 655 4099.0 650.5Q4122.0 646 4138.0 646L4507.0 647Q4535.0 647 4554.0 651.5Q4573.0 656 4584.0 661Q4599.0 670 4608.0 679.5Q4617.0 689 4629.0 689Q4634.0 689 4636.5 683.5Q4639.0 678 4639.0 670Q4639.0 665 4638.0 658.5Q4637.0 652 4636.0 647Q4632.0 628 4628.0 613.5Q4624.0 599 4621.5 586.5Q4619.0 574 4619.0 558V541Q4619.0 527 4615.0 517.0Q4611.0 507 4602.0 507Q4594.0 507 4588.5 516.5Q4583.0 526 4577.0 546Q4568.0 578 4547.0 593.5Q4526.0 609 4481.0 609H4413.0Q4394.0 609 4383.5 602.0Q4373.0 595 4368.5 571.5Q4364.0 548 4364.0 499V100Q4364.0 68 4382.0 53.5Q4400.0 39 4439.0 29Q4451.0 26 4458.0 22.0Q4465.0 18 4465.0 10Q4465.0 3 4458.5 0.0Q4452.0 -3 4442.0 -3Q4418.0 -3 4394.0 -2.0Q4370.0 -1 4346.5 0.0Q4323.0 1 4301.0 1Q4279.0 1 4255.5 0.0Q4232.0 -1 4207.5 -2.5Q4183.0 -4 4159.0 -4ZM4826.0 -6Q4813.0 -6 4805.5 -2.0Q4798.0 2 4798.0 9Q4798.0 17 4806.5 21.5Q4815.0 26 4828.0 29Q4866.0 36 4883.0 56.0Q4900.0 76 4900.0 109V251Q4900.0 280 4890.0 303.5Q4880.0 327 4871.0 343L4746.0 540Q4738.0 553 4725.5 569.5Q4713.0 586 4698.0 600.0Q4683.0 614 4664.0 619Q4652.0 623 4644.5 627.5Q4637.0 632 4637.0 640Q4637.0 647 4644.0 650.5Q4651.0 654 4661.0 654Q4697.0 654 4732.5 651.5Q4768.0 649 4808.0 649Q4837.0 649 4863.5 651.5Q4890.0 654 4918.0 654Q4928.0 654 4937.0 650.5Q4946.0 647 4946.0 640Q4946.0 632 4937.0 627.0Q4928.0 622 4916.0 619Q4893.0 614 4881.5 607.0Q4870.0 600 4870.0 586Q4870.0 571 4882.0 551L4981.0 376Q4994.0 351 5003.0 351Q5008.0 351 5013.0 357.0Q5018.0 363 5026.0 376Q5050.0 415 5070.0 453.0Q5090.0 491 5113.0 536Q5119.0 548 5122.5 559.5Q5126.0 571 5126.0 580Q5126.0 600 5110.0 608.5Q5094.0 617 5077.0 619Q5067.0 620 5056.0 626.0Q5045.0 632 5045.0 640Q5045.0 647 5054.0 650.0Q5063.0 653 5074.0 653Q5101.0 653 5121.5 651.0Q5142.0 649 5167.0 649Q5195.0 649 5220.5 652.0Q5246.0 655 5270.0 655Q5282.0 655 5290.5 652.0Q5299.0 649 5299.0 641Q5299.0 632 5287.0 627.5Q5275.0 623 5261.0 619Q5233.0 611 5213.0 592.0Q5193.0 573 5174.0 543Q5157.0 515 5142.0 491.5Q5127.0 468 5113.5 446.5Q5100.0 425 5086.0 402.5Q5072.0 380 5056.0 353Q5046.0 336 5040.5 322.0Q5035.0 308 5032.0 293.0Q5029.0 278 5029.0 258V110Q5029.0 73 5046.0 55.5Q5063.0 38 5101.0 29Q5115.0 26 5123.5 22.0Q5132.0 18 5132.0 9Q5132.0 3 5124.5 -1.0Q5117.0 -5 5105.0 -5Q5081.0 -5 5057.0 -3.0Q5033.0 -1 5010.5 0.5Q4988.0 2 4966.0 2Q4944.0 2 4921.0 0.5Q4898.0 -1 4874.0 -3.5Q4850.0 -6 4826.0 -6Z" transform="matrix(0.022120 0 0 -0.022120 91.18 391.42)" fill="#15130f"/></svg>