<svg xmlns="http://www.w3.org/2000/svg" viewBox="0 0 300 446"><rect width="300" height="446" fill="#f4ecd8"/><rect x="20.0" y="25.5" width="260" height="395" rx="20.3" fill="#f4ecd8" stroke="#15130f" stroke-width="1.5"/><rect x="36.9" y="42.4" width="226.2" height="354.7" fill="none" stroke="#15130f" stroke-width="0.7"/><g fill="none" stroke="#15130f" stroke-width="0.65" stroke-opacity="0.72" stroke-linecap="round" stroke-linejoin="round"><path d="M150.0,42.4 L263.1,206.5 L150.0,370.6 L36.9,206.5 Z"/></g><path d="M36.9,370.6 H263.1 V397.1 H36.9 Z" fill="#c7dcf0"/><g fill="none" stroke="#15130f" stroke-width="0.8"><line x1="36.9" y1="370.6" x2="263.1" y2="370.6"/><line x1="61.6" y1="370.6" x2="61.6" y2="397.1"/><line x1="238.4" y1="370.6" x2="238.4" y2="397.1"/></g><rect x="141.4" y="34.4" width="17.2" height="19.0" fill="#c7dcf0" stroke="#15130f" stroke-width="0.8"/><path d="M766.0 262V-54Q764.0 -88 718.0 -88L649.0 -99Q619.0 -104 598.0 -110Q582.0 -115 572.0 -116Q548.0 -118 548.0 -92Q548.0 -82 552.0 -63Q563.0 -18 563.0 41V262L564.0 290L552.0 316Q541.0 325 493.0 325H98.0Q53.0 325 39.5 332.5Q26.0 340 26.0 366Q26.0 415 264.0 747Q442.0 995 584.5 1169.0Q727.0 1343 752.0 1343Q768.0 1343 768.0 1317L767.0 1232L766.0 1143V549L771.0 522Q778.0 506 822.0 506Q899.0 506 922.0 572Q928.0 590 941.0 590Q967.0 590 967.0 567Q967.0 557 965.0 547Q961.0 528 956.0 462Q950.0 372 930.0 347.5Q910.0 323 845.0 323H812.0Q781.0 323 773.5 313.0Q766.0 303 766.0 262ZM563.0 570V743L561.0 856L563.0 958L562.0 984Q562.0 1001 553.0 1001Q544.0 1001 523.0 973L489.0 928L381.0 788Q316.0 705 230.0 573Q216.0 551 207.0 540Q196.0 525 196.0 515Q197.0 499 236.0 499L268.0 498H528.0Q564.0 498 564.0 546Z" transform="matrix(0.006858 0 0 -0.006858 146.59 48.88)" fill="#15130f"/><path d="M542.0 980Q542.0 1081 524.0 1150.5Q506.0 1220 468.5 1265.0Q431.0 1310 374.0 1310Q309.0 1310 251.5 1260.0Q194.0 1210 140.5 1125.0Q87.0 1040 87.0 960H50.0V1410H87.0Q87.0 1385 110.5 1358.5Q134.0 1332 164.0 1332Q194.0 1332 249.0 1371.0Q304.0 1410 374.0 1410Q483.0 1410 568.5 1352.0Q654.0 1294 698.0 1210.5Q742.0 1127 742.0 1000Q742.0 883 691.0 779Q660.0 716 617.0 675H1060.0V1200Q1060.0 1250 1020.0 1305.0Q980.0 1360 910.0 1360H860.0V1400H1460.0V1360H1410.0Q1340.0 1360 1300.0 1305.0Q1260.0 1250 1260.0 1200V200Q1260.0 150 1300.0 95.0Q1340.0 40 1410.0 40H1460.0V0H860.0V40H910.0Q980.0 40 1020.0 95.0Q1060.0 150 1060.0 200V575H225.0Q430.0 680 486.0 784.5Q542.0 889 542.0 980Z" transform="matrix(0.009268 0 0 -0.009268 42.25 390.40)" fill="#15130f"/><path d="M250.0 800Q250.0 735 271.5 674.5Q293.0 614 333.5 582.0Q374.0 550 417.0 550Q461.0 550 501.5 582.0Q542.0 614 563.5 674.5Q585.0 735 585.0 800Q585.0 865 563.5 925.5Q542.0 986 501.5 1018.0Q461.0 1050 417.0 1050Q374.0 1050 333.5 1018.0Q293.0 986 271.5 925.5Q250.0 865 250.0 800ZM1744.0 1050Q1700.0 1100 1637.0 1148Q1423.0 1310 1050.0 1310Q671.0 1310 460.0 1148Q533.0 1140 602.0 1105Q690.0 1060 737.5 975.5Q785.0 891 785.0 800Q785.0 709 737.5 624.5Q690.0 540 601.5 495.0Q513.0 450 417.0 450Q322.0 450 233.5 495.0Q145.0 540 97.5 624.5Q50.0 709 50.0 800Q50.0 1058 324.5 1234.0Q599.0 1410 1050.0 1410Q1501.0 1410 1776.0 1234Q1905.0 1151 1973.0 1050ZM1850.0 600Q1850.0 665 1828.5 725.5Q1807.0 786 1766.5 818.0Q1726.0 850 1683.0 850Q1639.0 850 1598.5 818.0Q1558.0 786 1536.5 725.5Q1515.0 665 1515.0 600Q1515.0 535 1536.5 474.5Q1558.0 414 1598.5 382.0Q1639.0 350 1683.0 350Q1726.0 350 1766.5 382.0Q1807.0 414 1828.5 474.5Q1850.0 535 1850.0 600ZM356.0 350Q400.0 300 464.0 252Q677.0 90 1050.0 90Q1429.0 90 1640.0 252Q1567.0 260 1499.0 295Q1410.0 340 1362.5 424.5Q1315.0 509 1315.0 600Q1315.0 691 1362.5 775.5Q1410.0 860 1498.5 905.0Q1587.0 950 1683.0 950Q1778.0 950 1866.5 905.0Q1955.0 860 2002.5 775.5Q2050.0 691 2050.0 600Q2050.0 342 1775.5 166.0Q1501.0 -10 1050.0 -10Q599.0 -10 325.0 166Q195.0 249 127.0 350Z" transform="matrix(0.009139 0 0 -0.009139 241.15 390.26)" fill="#15130f"/><path d="M214.0 -15Q171.0 -15 132.5 -4.0Q94.0 7 62.0 29Q56.0 34 51.0 39.5Q46.0 45 43.0 52Q35.0 77 32.0 113.5Q29.0 150 30.0 184Q30.0 191 35.5 194.0Q41.0 197 49.0 197Q57.0 197 61.5 194.5Q66.0 192 68.0 185Q90.0 110 132.0 68.0Q174.0 26 227.0 26Q260.0 26 283.0 41.0Q306.0 56 318.0 80.0Q330.0 104 330.0 132Q330.0 167 317.5 190.0Q305.0 213 280.0 231.5Q255.0 250 217.0 271Q176.0 295 137.0 321.5Q98.0 348 73.0 384.5Q48.0 421 48.0 475Q48.0 531 76.5 573.5Q105.0 616 156.0 640.0Q207.0 664 274.0 664Q311.0 664 343.0 656.0Q375.0 648 394.0 640Q405.0 636 410.5 630.0Q416.0 624 419.0 611Q425.0 590 429.5 561.0Q434.0 532 434.0 500Q434.0 488 416.0 488Q408.0 488 400.0 492.0Q392.0 496 390.0 503Q372.0 561 340.5 591.0Q309.0 621 263.0 621Q232.0 621 210.0 610.5Q188.0 600 175.0 578.5Q162.0 557 162.0 523Q162.0 497 179.5 475.0Q197.0 453 228.5 432.0Q260.0 411 299.0 386Q347.0 358 379.5 329.5Q412.0 301 429.0 266.5Q446.0 232 446.0 185Q446.0 119 417.0 74.5Q388.0 30 336.0 7.5Q284.0 -15 214.0 -15ZM526.0 -4Q517.0 -4 510.0 -0.5Q503.0 3 503.0 9Q503.0 24 528.0 29Q566.0 37 582.0 51.0Q598.0 65 598.0 98V538Q598.0 576 585.5 594.0Q573.0 612 537.0 620Q523.0 623 517.0 628.5Q511.0 634 511.0 640Q511.0 647 517.5 650.5Q524.0 654 535.0 654Q559.0 654 579.5 653.5Q600.0 653 619.0 652.0Q638.0 651 658.0 651Q680.0 651 699.5 653.0Q719.0 655 739.5 657.0Q760.0 659 787.0 659Q906.0 659 977.0 609.0Q1048.0 559 1048.0 471Q1048.0 409 1022.5 356.5Q997.0 304 944.5 272.0Q892.0 240 812.0 240Q787.0 240 774.0 247.5Q761.0 255 761.0 264Q761.0 270 767.5 274.5Q774.0 279 779.0 279Q788.0 279 796.5 277.5Q805.0 276 822.0 276Q869.0 276 893.5 324.0Q918.0 372 918.0 452Q918.0 540 882.5 580.5Q847.0 621 787.0 621Q759.0 621 743.5 609.5Q728.0 598 728.0 573L727.0 104Q727.0 71 743.5 54.5Q760.0 38 800.0 29Q813.0 27 819.0 22.5Q825.0 18 825.0 10Q825.0 3 819.5 0.0Q814.0 -3 803.0 -3Q780.0 -3 756.0 -1.5Q732.0 0 709.5 1.0Q687.0 2 667.0 2Q645.0 2 621.5 1.0Q598.0 0 574.0 -2.0Q550.0 -4 526.0 -4ZM1122.0 -5Q1111.0 -5 1104.5 -1.0Q1098.0 3 1098.0 9Q1098.0 22 1124.0 28Q1160.0 37 1175.5 50.5Q1191.0 64 1191.0 97V550Q1191.0 584 1177.5 598.0Q1164.0 612 1127.0 620Q1113.0 623 1107.0 628.5Q1101.0 634 1101.0 640Q1101.0 647 1107.5 650.5Q1114.0 654 1125.0 654Q1154.0 654 1180.5 653.0Q1207.0 652 1232.0 651.0Q1257.0 650 1284.0 650Q1330.0 650 1381.5 651.0Q1433.0 652 1474.0 652Q1507.0 653 1528.5 655.0Q1550.0 657 1554.0 657Q1561.0 657 1568.5 654.0Q1576.0 651 1577.0 642Q1581.0 609 1587.0 577.0Q1593.0 545 1593.0 521Q1593.0 512 1588.5 507.5Q1584.0 503 1579.0 503Q1574.0 503 1570.0 506.5Q1566.0 510 1563.0 517Q1555.0 540 1548.0 557.0Q1541.0 574 1532.0 583Q1519.0 597 1502.0 605.0Q1485.0 613 1461.0 613H1368.0Q1350.0 613 1335.0 602.5Q1320.0 592 1320.0 573V377Q1320.0 366 1326.5 360.0Q1333.0 354 1342.0 354H1434.0Q1461.0 354 1472.5 369.0Q1484.0 384 1492.0 410Q1499.0 430 1511.0 430Q1516.0 430 1520.0 424.5Q1524.0 419 1524.0 410Q1523.0 400 1522.0 386.0Q1521.0 372 1520.5 358.0Q1520.0 344 1520.0 333Q1520.0 321 1520.5 306.0Q1521.0 291 1521.5 276.5Q1522.0 262 1523.0 252Q1524.0 241 1521.5 235.0Q1519.0 229 1513.0 229Q1497.0 229 1490.0 257Q1482.0 285 1471.0 299.0Q1460.0 313 1441.0 313H1347.0Q1334.0 313 1327.0 308.0Q1320.0 303 1320.0 289V99Q1320.0 66 1334.0 53.0Q1348.0 40 1377.0 40H1459.0Q1484.0 40 1504.5 45.0Q1525.0 50 1540.0 61Q1557.0 73 1570.5 93.5Q1584.0 114 1597.0 139Q1601.0 147 1605.0 149.5Q1609.0 152 1615.0 152Q1620.0 151 1622.5 146.0Q1625.0 141 1625.0 135Q1625.0 121 1620.0 99.0Q1615.0 77 1607.5 53.5Q1600.0 30 1594.0 10Q1591.0 3 1586.0 -0.5Q1581.0 -4 1574.0 -4Q1550.0 -4 1512.5 -3.5Q1475.0 -3 1431.0 -2.0Q1387.0 -1 1341.0 -0.5Q1295.0 0 1253.0 0Q1232.0 0 1210.5 -1.0Q1189.0 -2 1167.0 -3.5Q1145.0 -5 1122.0 -5ZM2049.0 -14Q1974.0 -14 1907.0 9.5Q1840.0 33 1788.5 77.0Q1737.0 121 1707.5 182.5Q1678.0 244 1678.0 319Q1678.0 389 1707.0 451.0Q1736.0 513 1789.0 561.0Q1842.0 609 1915.5 636.5Q1989.0 664 2077.0 664Q2111.0 664 2141.5 659.5Q2172.0 655 2201.0 648.5Q2230.0 642 2258.0 632Q2269.0 628 2275.5 621.0Q2282.0 614 2283.0 602Q2287.0 572 2289.0 542.5Q2291.0 513 2291.0 484Q2292.0 474 2284.0 469.5Q2276.0 465 2267.0 468.5Q2258.0 472 2254.0 483Q2246.0 511 2235.5 535.5Q2225.0 560 2204.0 577Q2181.0 596 2146.0 607.5Q2111.0 619 2064.0 619Q2010.0 619 1966.0 597.0Q1922.0 575 1890.5 536.0Q1859.0 497 1842.0 448.0Q1825.0 399 1825.0 345Q1825.0 281 1840.5 224.0Q1856.0 167 1887.5 123.5Q1919.0 80 1964.0 55.5Q2009.0 31 2067.0 31Q2141.0 31 2187.0 63.0Q2233.0 95 2265.0 158Q2273.0 174 2287.0 173.5Q2301.0 173 2301.0 157Q2301.0 145 2298.0 127.0Q2295.0 109 2289.5 88.5Q2284.0 68 2277.0 48Q2273.0 36 2267.0 30.0Q2261.0 24 2249.0 19Q2211.0 3 2159.5 -5.5Q2108.0 -14 2049.0 -14ZM2726.0 -14Q2633.0 -14 2571.0 19.0Q2509.0 52 2478.0 111.0Q2447.0 170 2447.0 249V541Q2447.0 571 2433.5 592.0Q2420.0 613 2398.0 619Q2368.0 627 2368.0 641Q2368.0 647 2376.0 650.5Q2384.0 654 2396.0 654Q2424.0 654 2454.5 652.0Q2485.0 650 2514.0 650Q2540.0 650 2573.5 651.5Q2607.0 653 2631.0 653Q2643.0 653 2650.5 650.0Q2658.0 647 2658.0 640Q2658.0 630 2645.5 625.5Q2633.0 621 2616.0 614Q2602.0 608 2589.5 589.5Q2577.0 571 2577.0 539V270Q2577.0 198 2601.0 151.5Q2625.0 105 2665.0 83.0Q2705.0 61 2755.0 61Q2850.0 61 2896.0 121.0Q2942.0 181 2942.0 293Q2942.0 318 2942.0 352.0Q2942.0 386 2941.5 422.5Q2941.0 459 2940.0 492Q2940.0 531 2934.5 555.5Q2929.0 580 2919.0 594.5Q2909.0 609 2891.0 617Q2881.0 621 2867.5 626.0Q2854.0 631 2854.0 639Q2854.0 647 2862.0 650.0Q2870.0 653 2883.0 653Q2915.0 653 2932.5 652.0Q2950.0 651 2973.0 651Q2990.0 651 3003.5 651.5Q3017.0 652 3030.0 653.0Q3043.0 654 3060.0 654Q3072.0 654 3079.0 651.5Q3086.0 649 3086.0 641Q3086.0 627 3057.0 620Q3026.0 612 3014.0 591.0Q3002.0 570 3000.0 536Q2996.0 457 2994.5 391.0Q2993.0 325 2992.0 258Q2991.0 178 2955.5 116.5Q2920.0 55 2860.0 20.5Q2800.0 -14 2726.0 -14ZM3141.0 -5Q3130.0 -5 3124.0 -0.5Q3118.0 4 3118.0 9Q3118.0 17 3125.0 21.5Q3132.0 26 3139.0 28Q3175.0 37 3192.0 50.5Q3209.0 64 3209.0 95V555Q3209.0 578 3203.5 590.0Q3198.0 602 3184.5 608.5Q3171.0 615 3145.0 620Q3119.0 625 3119.0 641Q3119.0 647 3126.0 650.5Q3133.0 654 3142.0 654Q3167.0 654 3189.5 653.0Q3212.0 652 3233.0 651.0Q3254.0 650 3275.0 650Q3298.0 650 3321.5 651.0Q3345.0 652 3369.5 653.0Q3394.0 654 3417.0 654Q3427.0 654 3433.0 650.5Q3439.0 647 3439.0 640Q3439.0 632 3432.5 627.5Q3426.0 623 3414.0 620Q3375.0 610 3356.5 598.5Q3338.0 587 3338.0 558V101Q3338.0 72 3351.0 58.5Q3364.0 45 3400.0 45H3509.0Q3532.0 45 3551.0 53.0Q3570.0 61 3582.0 73Q3600.0 89 3612.0 107.0Q3624.0 125 3635.0 149Q3642.0 164 3648.0 172.0Q3654.0 180 3660.0 180Q3667.0 180 3670.0 173.5Q3673.0 167 3673.0 160Q3673.0 159 3672.0 154.0Q3671.0 149 3671.0 146Q3663.0 117 3657.5 96.0Q3652.0 75 3648.5 55.5Q3645.0 36 3642.0 13Q3641.0 6 3638.0 0.5Q3635.0 -5 3626.0 -5Q3596.0 -5 3554.0 -4.0Q3512.0 -3 3465.0 -2.5Q3418.0 -2 3370.5 -1.0Q3323.0 0 3281.0 0Q3259.0 0 3230.5 -1.0Q3202.0 -2 3177.0 -3.5Q3152.0 -5 3141.0 -5ZM3704.0 -5Q3692.0 -5 3684.0 -1.5Q3676.0 2 3676.0 10Q3676.0 19 3683.5 24.0Q3691.0 29 3703.0 33Q3732.0 41 3753.5 57.5Q3775.0 74 3788.0 103Q3813.0 162 3836.0 216.5Q3859.0 271 3880.0 325.0Q3901.0 379 3922.5 435.0Q3944.0 491 3966.0 553Q3977.0 584 3981.0 601.0Q3985.0 618 3988.0 626Q4003.0 630 4016.0 634.0Q4029.0 638 4045.0 644Q4059.0 651 4069.0 662.0Q4079.0 673 4084.0 679Q4087.0 681 4090.0 681.5Q4093.0 682 4096.0 677Q4099.0 671 4101.0 665.0Q4103.0 659 4105.0 652Q4127.0 581 4150.5 508.5Q4174.0 436 4197.0 365.5Q4220.0 295 4241.5 230.5Q4263.0 166 4281.0 112Q4290.0 85 4303.5 69.0Q4317.0 53 4333.5 44.5Q4350.0 36 4370.0 31Q4383.0 28 4390.0 23.0Q4397.0 18 4397.0 9Q4397.0 3 4390.5 0.0Q4384.0 -3 4374.0 -3Q4356.0 -3 4328.5 -2.0Q4301.0 -1 4272.0 0.5Q4243.0 2 4220.0 2Q4200.0 2 4175.5 1.0Q4151.0 0 4126.5 -1.0Q4102.0 -2 4085.0 -2Q4075.0 -2 4067.5 1.5Q4060.0 5 4060.0 12Q4060.0 20 4068.0 25.5Q4076.0 31 4087.0 33Q4123.0 39 4139.0 51.5Q4155.0 64 4151.0 88Q4148.0 105 4142.0 128.5Q4136.0 152 4129.5 177.5Q4123.0 203 4116.0 224Q4114.0 232 4110.0 235.5Q4106.0 239 4095.0 239H3915.0Q3908.0 239 3904.0 234.5Q3900.0 230 3898.0 221Q3894.0 208 3888.5 191.5Q3883.0 175 3877.5 157.5Q3872.0 140 3867.5 125.0Q3863.0 110 3861.0 99Q3856.0 72 3870.5 56.5Q3885.0 41 3921.0 32Q3948.0 25 3948.0 11Q3948.0 5 3941.5 1.5Q3935.0 -2 3923.0 -2Q3900.0 -2 3875.0 -0.5Q3850.0 1 3820.0 1Q3790.0 1 3761.5 -2.0Q3733.0 -5 3704.0 -5ZM3942.0 285H4081.0Q4095.0 285 4095.0 291Q4095.0 294 4094.5 296.0Q4094.0 298 4093.0 302L4023.0 533Q4019.0 547 4016.0 547Q4014.0 547 4009.0 534L3925.0 302Q3923.0 297 3923.0 294Q3923.0 289 3928.5 287.0Q3934.0 285 3942.0 285ZM4600.0 -4Q4590.0 -4 4582.5 -0.5Q4575.0 3 4575.0 9Q4575.0 17 4582.0 22.0Q4589.0 27 4602.0 29Q4640.0 37 4658.0 51.5Q4676.0 66 4676.0 99V504Q4676.0 545 4674.0 566.0Q4672.0 587 4668.5 594.5Q4665.0 602 4658.0 603Q4648.0 607 4633.0 608.0Q4618.0 609 4604.0 609H4573.0Q4544.0 609 4517.0 595.5Q4490.0 582 4475.0 559Q4471.0 553 4462.5 542.0Q4454.0 531 4444.5 522.0Q4435.0 513 4425.0 513Q4418.0 513 4415.5 518.0Q4413.0 523 4413.0 529Q4413.0 541 4419.0 553Q4436.0 587 4444.5 612.5Q4453.0 638 4456.0 673Q4458.0 688 4464.5 692.5Q4471.0 697 4478.0 697Q4484.0 697 4492.5 684.5Q4501.0 672 4508.0 664Q4517.0 655 4540.0 650.5Q4563.0 646 4579.0 646L4948.0 647Q4976.0 647 4995.0 651.5Q5014.0 656 5025.0 661Q5040.0 670 5049.0 679.5Q5058.0 689 5070.0 689Q5075.0 689 5077.5 683.5Q5080.0 678 5080.0 670Q5080.0 665 5079.0 658.5Q5078.0 652 5077.0 647Q5073.0 628 5069.0 613.5Q5065.0 599 5062.5 586.5Q5060.0 574 5060.0 558V541Q5060.0 527 5056.0 517.0Q5052.0 507 5043.0 507Q5035.0 507 5029.5 516.5Q5024.0 526 5018.0 546Q5009.0 578 4988.0 593.5Q4967.0 609 4922.0 609H4854.0Q4835.0 609 4824.5 602.0Q4814.0 595 4809.5 571.5Q4805.0 548 4805.0 499V100Q4805.0 68 4823.0 53.5Q4841.0 39 4880.0 29Q4892.0 26 4899.0 22.0Q4906.0 18 4906.0 10Q4906.0 3 4899.5 0.0Q4893.0 -3 4883.0 -3Q4859.0 -3 4835.0 -2.0Q4811.0 -1 4787.5 0.0Q4764.0 1 4742.0 1Q4720.0 1 4696.5 0.0Q4673.0 -1 4648.5 -2.5Q4624.0 -4 4600.0 -4ZM5118.0 -4Q5109.0 -4 5102.0 -0.5Q5095.0 3 5095.0 9Q5095.0 24 5120.0 29Q5158.0 37 5175.0 51.0Q5192.0 65 5192.0 97V551Q5192.0 584 5178.0 598.0Q5164.0 612 5125.0 620Q5100.0 625 5100.0 641Q5100.0 647 5107.0 650.5Q5114.0 654 5123.0 654Q5147.0 654 5170.0 653.0Q5193.0 652 5214.5 651.0Q5236.0 650 5258.0 650Q5279.0 650 5300.5 651.0Q5322.0 652 5345.0 653.0Q5368.0 654 5392.0 654Q5402.0 654 5408.0 650.5Q5414.0 647 5414.0 640Q5414.0 632 5407.5 627.5Q5401.0 623 5389.0 620Q5349.0 610 5335.0 596.0Q5321.0 582 5321.0 550V98Q5321.0 67 5337.5 53.0Q5354.0 39 5392.0 29Q5405.0 26 5411.5 22.0Q5418.0 18 5418.0 10Q5418.0 3 5412.0 0.0Q5406.0 -3 5396.0 -3Q5372.0 -3 5348.0 -2.0Q5324.0 -1 5301.5 0.0Q5279.0 1 5258.0 1Q5236.0 1 5213.0 0.0Q5190.0 -1 5166.0 -2.5Q5142.0 -4 5118.0 -4ZM5810.0 -14Q5742.0 -14 5680.0 9.5Q5618.0 33 5570.5 76.5Q5523.0 120 5495.5 180.5Q5468.0 241 5468.0 315Q5468.0 383 5490.5 445.5Q5513.0 508 5557.5 557.0Q5602.0 606 5667.5 635.0Q5733.0 664 5819.0 664Q5887.0 664 5948.5 640.5Q6010.0 617 6058.0 573.5Q6106.0 530 6133.5 469.5Q6161.0 409 6161.0 335Q6161.0 268 6138.5 205.0Q6116.0 142 6071.5 93.0Q6027.0 44 5961.5 15.0Q5896.0 -14 5810.0 -14ZM5827.0 30Q5890.0 30 5932.5 62.0Q5975.0 94 5996.5 151.5Q6018.0 209 6018.0 284Q6018.0 348 6005.0 408.0Q5992.0 468 5965.0 515.5Q5938.0 563 5897.5 591.0Q5857.0 619 5801.0 619Q5738.0 619 5695.5 587.0Q5653.0 555 5632.0 498.0Q5611.0 441 5611.0 366Q5611.0 302 5624.0 242.0Q5637.0 182 5663.5 134.0Q5690.0 86 5730.5 58.0Q5771.0 30 5827.0 30ZM6871.0 -18Q6859.0 -18 6831.0 -3.0Q6803.0 12 6774.0 49Q6757.0 68 6732.5 95.5Q6708.0 123 6678.5 156.0Q6649.0 189 6617.0 225.0Q6585.0 261 6553.5 297.0Q6522.0 333 6492.0 366.0Q6462.0 399 6437.0 426.5Q6412.0 454 6395.0 474Q6391.0 479 6386.5 482.5Q6382.0 486 6379.0 486Q6375.0 486 6373.0 479.0Q6371.0 472 6371.0 466Q6371.0 420 6371.5 357.0Q6372.0 294 6372.0 229.0Q6372.0 164 6372.0 109Q6372.0 78 6390.0 58.0Q6408.0 38 6447.0 29Q6459.0 27 6467.5 22.5Q6476.0 18 6476.0 10Q6476.0 3 6468.0 0.0Q6460.0 -3 6450.0 -3Q6423.0 -3 6407.0 -2.0Q6391.0 -1 6378.0 0.0Q6365.0 1 6345.0 1Q6324.0 1 6307.5 0.0Q6291.0 -1 6278.0 -2.5Q6265.0 -4 6253.0 -4Q6243.0 -4 6235.0 -0.5Q6227.0 3 6227.0 9Q6227.0 17 6234.5 21.5Q6242.0 26 6255.0 30Q6281.0 38 6293.5 59.5Q6306.0 81 6309.0 111Q6313.0 149 6317.0 210.5Q6321.0 272 6324.5 349.0Q6328.0 426 6328.0 508Q6328.0 560 6301.5 583.0Q6275.0 606 6235.0 620Q6228.0 622 6217.0 628.0Q6206.0 634 6206.0 643Q6206.0 652 6214.0 655.0Q6222.0 658 6231.0 658Q6252.0 658 6273.0 657.0Q6294.0 656 6315.5 655.5Q6337.0 655 6360.5 654.0Q6384.0 653 6411.0 653Q6420.0 653 6424.5 649.5Q6429.0 646 6433.0 640Q6449.0 621 6474.0 592.5Q6499.0 564 6528.5 529.5Q6558.0 495 6590.5 457.0Q6623.0 419 6655.5 381.0Q6688.0 343 6718.0 308.5Q6748.0 274 6772.5 245.5Q6797.0 217 6813.0 199Q6817.0 195 6822.5 189.0Q6828.0 183 6832.0 183Q6840.0 183 6841.0 200Q6841.0 226 6841.0 266.5Q6841.0 307 6841.5 356.5Q6842.0 406 6841.5 458.0Q6841.0 510 6840.0 558Q6839.0 583 6819.5 597.5Q6800.0 612 6771.0 618Q6759.0 621 6748.5 625.5Q6738.0 630 6738.0 639Q6738.0 646 6748.5 649.0Q6759.0 652 6768.0 652Q6788.0 652 6801.5 652.0Q6815.0 652 6827.0 651.5Q6839.0 651 6852.0 651Q6874.0 651 6888.0 651.5Q6902.0 652 6918.5 653.0Q6935.0 654 6962.0 654Q6974.0 654 6981.5 650.5Q6989.0 647 6989.0 641Q6989.0 626 6960.0 620Q6925.0 613 6910.5 601.0Q6896.0 589 6895.0 561Q6895.0 536 6894.5 497.0Q6894.0 458 6893.0 412.0Q6892.0 366 6890.5 318.0Q6889.0 270 6888.5 224.0Q6888.0 178 6888.0 141Q6888.0 117 6890.0 92.0Q6892.0 67 6894.5 47.5Q6897.0 28 6897.0 20Q6897.0 -2 6890.0 -10.0Q6883.0 -18 6871.0 -18Z" transform="matrix(0.021720 0 0 -0.021720 73.78 391.24)" fill="#15130f"/></svg>