<svg xmlns="http://www.w3.org/2000/svg" viewBox="0 0 300 446"><rect width="300" height="446" fill="#f4ecd8"/><rect x="20.0" y="25.5" width="260" height="395" rx="20.3" fill="#f4ecd8" stroke="#15130f" stroke-width="1.5"/><rect x="36.9" y="42.4" width="226.2" height="354.7" fill="none" stroke="#15130f" stroke-width="0.7"/><g fill="none" stroke="#15130f" stroke-width="0.65" stroke-opacity="0.72" stroke-linecap="round" stroke-linejoin="round"><path d="M150.0,42.4 L263.1,206.5 L150.0,370.6 L36.9,206.5 Z"/></g><path d="M36.9,370.6 H263.1 V397.1 H36.9 Z" fill="#c7dcf0"/><g fill="none" stroke="#15130f" stroke-width="0.8"><line x1="36.9" y1="370.6" x2="263.1" y2="370.6"/><line x1="61.6" y1="370.6" x2="61.6" y2="397.1"/><line x1="238.4" y1="370.6" x2="238.4" y2="397.1"/></g><rect x="141.4" y="34.4" width="17.2" height="19.0" fill="#c7dcf0" stroke="#15130f" stroke-width="0.8"/><path d="M511.0 1307Q708.0 1307 834.5 1159.0Q961.0 1011 961.0 779Q961.0 491 764.5 263.5Q568.0 36 272.0 -19L193.0 -34Q180.0 -36 170.0 -36Q144.0 -36 145.0 -7Q146.0 8 153.5 12.0Q161.0 16 206.0 26Q348.0 58 482.0 175.0Q616.0 292 661.0 422L680.0 478Q690.0 507 690.0 524Q690.0 554 668.0 553Q658.0 552 642.0 541Q589.0 503 512.5 475.5Q436.0 448 384.0 448Q245.0 448 150.5 558.5Q56.0 669 56.0 830Q56.0 1039 184.0 1173.0Q312.0 1307 511.0 1307ZM455.0 1245Q364.0 1245 307.5 1166.5Q251.0 1088 251.0 963Q251.0 787 326.5 675.5Q402.0 564 522.0 564Q619.0 564 684.5 640.5Q750.0 717 750.0 830Q750.0 997 661.5 1121.0Q573.0 1245 455.0 1245Z" transform="matrix(0.006858 0 0 -0.006858 146.51 49.04)" fill="#15130f"/><path d="M542.0 980Q542.0 1081 524.0 1150.5Q506.0 1220 468.5 1265.0Q431.0 1310 374.0 1310Q309.0 1310 251.5 1260.0Q194.0 1210 140.5 1125.0Q87.0 1040 87.0 960H50.0V1410H87.0Q87.0 1385 110.5 1358.5Q134.0 1332 164.0 1332Q194.0 1332 249.0 1371.0Q304.0 1410 374.0 1410Q483.0 1410 568.5 1352.0Q654.0 1294 698.0 1210.5Q742.0 1127 742.0 1000Q742.0 883 691.0 779Q660.0 716 617.0 675H1060.0V1200Q1060.0 1250 1020.0 1305.0Q980.0 1360 910.0 1360H860.0V1400H1460.0V1360H1410.0Q1340.0 1360 1300.0 1305.0Q1260.0 1250 1260.0 1200V200Q1260.0 150 1300.0 95.0Q1340.0 40 1410.0 40H1460.0V0H860.0V40H910.0Q980.0 40 1020.0 95.0Q1060.0 150 1060.0 200V575H225.0Q430.0 680 486.0 784.5Q542.0 889 542.0 980Z" transform="matrix(0.009268 0 0 -0.009268 42.25 390.40)" fill="#15130f"/><path d="M525.0 394 121.0 -10 50.0 61 454.0 465 136.0 783 277.0 924 595.0 606 1152.0 1163Q975.0 1163 728.0 1234L763.0 1269Q1188.0 1269 1470.0 1410Q1329.0 1128 1329.0 703L1294.0 668Q1223.0 915 1223.0 1092L666.0 535L984.0 217L843.0 76Z" transform="matrix(0.007599 0 0 -0.007599 244.97 389.19)" fill="#15130f"/><path d="M42.0 -4Q33.0 -4 26.0 -0.5Q19.0 3 19.0 9Q19.0 24 44.0 29Q82.0 37 98.0 51.0Q114.0 65 114.0 98V538Q114.0 576 101.5 594.0Q89.0 612 53.0 620Q39.0 623 33.0 628.5Q27.0 634 27.0 640Q27.0 647 33.5 650.5Q40.0 654 51.0 654Q75.0 654 95.5 653.5Q116.0 653 135.0 652.0Q154.0 651 174.0 651Q196.0 651 215.5 653.0Q235.0 655 255.5 657.0Q276.0 659 303.0 659Q422.0 659 493.0 609.0Q564.0 559 564.0 471Q564.0 409 538.5 356.5Q513.0 304 460.5 272.0Q408.0 240 328.0 240Q303.0 240 290.0 247.5Q277.0 255 277.0 264Q277.0 270 283.5 274.5Q290.0 279 295.0 279Q304.0 279 312.5 277.5Q321.0 276 338.0 276Q385.0 276 409.5 324.0Q434.0 372 434.0 452Q434.0 540 398.5 580.5Q363.0 621 303.0 621Q275.0 621 259.5 609.5Q244.0 598 244.0 573L243.0 104Q243.0 71 259.5 54.5Q276.0 38 316.0 29Q329.0 27 335.0 22.5Q341.0 18 341.0 10Q341.0 3 335.5 0.0Q330.0 -3 319.0 -3Q296.0 -3 272.0 -1.5Q248.0 0 225.5 1.0Q203.0 2 183.0 2Q161.0 2 137.5 1.0Q114.0 0 90.0 -2.0Q66.0 -4 42.0 -4ZM1231.0 -21Q1188.0 -21 1156.0 -11.5Q1124.0 -2 1101.0 16.0Q1078.0 34 1059.0 58Q1037.0 88 1016.0 116.5Q995.0 145 973.5 179.5Q952.0 214 926.0 262Q913.0 285 893.0 296Q880.0 303 866.5 306.0Q853.0 309 844.0 309Q838.0 310 835.0 304.0Q832.0 298 832.0 289V103Q832.0 72 848.5 55.0Q865.0 38 905.0 29Q918.0 27 924.0 22.5Q930.0 18 930.0 10Q930.0 3 924.5 0.0Q919.0 -3 908.0 -3Q885.0 -3 861.0 -1.5Q837.0 0 814.5 1.0Q792.0 2 772.0 2Q750.0 2 726.5 1.0Q703.0 0 679.0 -2.0Q655.0 -4 631.0 -4Q622.0 -4 615.0 -0.5Q608.0 3 608.0 9Q608.0 24 633.0 29Q671.0 37 687.0 51.0Q703.0 65 703.0 98V540Q703.0 569 698.5 584.5Q694.0 600 681.0 608.0Q668.0 616 642.0 620Q628.0 622 622.0 628.0Q616.0 634 616.0 640Q616.0 647 622.5 650.5Q629.0 654 640.0 654Q670.0 654 688.0 653.0Q706.0 652 722.5 650.5Q739.0 649 762.0 649Q784.0 649 801.0 651.0Q818.0 653 839.0 655.0Q860.0 657 893.0 657Q1008.0 657 1069.0 617.0Q1130.0 577 1130.0 495Q1130.0 450 1111.0 418.5Q1092.0 387 1063.5 367.0Q1035.0 347 1005.0 336Q1001.0 335 1001.5 331.0Q1002.0 327 1005.0 324Q1035.0 278 1063.5 236.5Q1092.0 195 1123.5 158.0Q1155.0 121 1192.0 87Q1223.0 58 1255.5 52.5Q1288.0 47 1323.0 47Q1338.0 47 1338.0 32Q1338.0 12 1323.0 0.5Q1308.0 -11 1283.5 -16.0Q1259.0 -21 1231.0 -21ZM875.0 338Q916.0 338 943.5 356.5Q971.0 375 985.5 406.0Q1000.0 437 1000.0 475Q1000.0 520 989.0 551.5Q978.0 583 951.5 600.5Q925.0 618 879.0 618Q853.0 618 843.5 599.5Q834.0 581 833.0 525Q832.0 502 832.0 464.5Q832.0 427 832.0 375Q832.0 353 843.5 345.5Q855.0 338 875.0 338ZM1373.0 -4Q1364.0 -4 1357.0 -0.5Q1350.0 3 1350.0 9Q1350.0 24 1375.0 29Q1413.0 37 1430.0 51.0Q1447.0 65 1447.0 97V551Q1447.0 584 1433.0 598.0Q1419.0 612 1380.0 620Q1355.0 625 1355.0 641Q1355.0 647 1362.0 650.5Q1369.0 654 1378.0 654Q1402.0 654 1425.0 653.0Q1448.0 652 1469.5 651.0Q1491.0 650 1513.0 650Q1534.0 650 1555.5 651.0Q1577.0 652 1600.0 653.0Q1623.0 654 1647.0 654Q1657.0 654 1663.0 650.5Q1669.0 647 1669.0 640Q1669.0 632 1662.5 627.5Q1656.0 623 1644.0 620Q1604.0 610 1590.0 596.0Q1576.0 582 1576.0 550V98Q1576.0 67 1592.5 53.0Q1609.0 39 1647.0 29Q1660.0 26 1666.5 22.0Q1673.0 18 1673.0 10Q1673.0 3 1667.0 0.0Q1661.0 -3 1651.0 -3Q1627.0 -3 1603.0 -2.0Q1579.0 -1 1556.5 0.0Q1534.0 1 1513.0 1Q1491.0 1 1468.0 0.0Q1445.0 -1 1421.0 -2.5Q1397.0 -4 1373.0 -4ZM2365.0 -18Q2353.0 -18 2325.0 -3.0Q2297.0 12 2268.0 49Q2251.0 68 2226.5 95.5Q2202.0 123 2172.5 156.0Q2143.0 189 2111.0 225.0Q2079.0 261 2047.5 297.0Q2016.0 333 1986.0 366.0Q1956.0 399 1931.0 426.5Q1906.0 454 1889.0 474Q1885.0 479 1880.5 482.5Q1876.0 486 1873.0 486Q1869.0 486 1867.0 479.0Q1865.0 472 1865.0 466Q1865.0 420 1865.5 357.0Q1866.0 294 1866.0 229.0Q1866.0 164 1866.0 109Q1866.0 78 1884.0 58.0Q1902.0 38 1941.0 29Q1953.0 27 1961.5 22.5Q1970.0 18 1970.0 10Q1970.0 3 1962.0 0.0Q1954.0 -3 1944.0 -3Q1917.0 -3 1901.0 -2.0Q1885.0 -1 1872.0 0.0Q1859.0 1 1839.0 1Q1818.0 1 1801.5 0.0Q1785.0 -1 1772.0 -2.5Q1759.0 -4 1747.0 -4Q1737.0 -4 1729.0 -0.5Q1721.0 3 1721.0 9Q1721.0 17 1728.5 21.5Q1736.0 26 1749.0 30Q1775.0 38 1787.5 59.5Q1800.0 81 1803.0 111Q1807.0 149 1811.0 210.5Q1815.0 272 1818.5 349.0Q1822.0 426 1822.0 508Q1822.0 560 1795.5 583.0Q1769.0 606 1729.0 620Q1722.0 622 1711.0 628.0Q1700.0 634 1700.0 643Q1700.0 652 1708.0 655.0Q1716.0 658 1725.0 658Q1746.0 658 1767.0 657.0Q1788.0 656 1809.5 655.5Q1831.0 655 1854.5 654.0Q1878.0 653 1905.0 653Q1914.0 653 1918.5 649.5Q1923.0 646 1927.0 640Q1943.0 621 1968.0 592.5Q1993.0 564 2022.5 529.5Q2052.0 495 2084.5 457.0Q2117.0 419 2149.5 381.0Q2182.0 343 2212.0 308.5Q2242.0 274 2266.5 245.5Q2291.0 217 2307.0 199Q2311.0 195 2316.5 189.0Q2322.0 183 2326.0 183Q2334.0 183 2335.0 200Q2335.0 226 2335.0 266.5Q2335.0 307 2335.5 356.5Q2336.0 406 2335.5 458.0Q2335.0 510 2334.0 558Q2333.0 583 2313.5 597.5Q2294.0 612 2265.0 618Q2253.0 621 2242.5 625.5Q2232.0 630 2232.0 639Q2232.0 646 2242.5 649.0Q2253.0 652 2262.0 652Q2282.0 652 2295.5 652.0Q2309.0 652 2321.0 651.5Q2333.0 651 2346.0 651Q2368.0 651 2382.0 651.5Q2396.0 652 2412.5 653.0Q2429.0 654 2456.0 654Q2468.0 654 2475.5 650.5Q2483.0 647 2483.0 641Q2483.0 626 2454.0 620Q2419.0 613 2404.5 601.0Q2390.0 589 2389.0 561Q2389.0 536 2388.5 497.0Q2388.0 458 2387.0 412.0Q2386.0 366 2384.5 318.0Q2383.0 270 2382.5 224.0Q2382.0 178 2382.0 141Q2382.0 117 2384.0 92.0Q2386.0 67 2388.5 47.5Q2391.0 28 2391.0 20Q2391.0 -2 2384.0 -10.0Q2377.0 -18 2365.0 -18ZM2898.0 -14Q2823.0 -14 2756.0 9.5Q2689.0 33 2637.5 77.0Q2586.0 121 2556.5 182.5Q2527.0 244 2527.0 319Q2527.0 389 2556.0 451.0Q2585.0 513 2638.0 561.0Q2691.0 609 2764.5 636.5Q2838.0 664 2926.0 664Q2960.0 664 2990.5 659.5Q3021.0 655 3050.0 648.5Q3079.0 642 3107.0 632Q3118.0 628 3124.5 621.0Q3131.0 614 3132.0 602Q3136.0 572 3138.0 542.5Q3140.0 513 3140.0 484Q3141.0 474 3133.0 469.5Q3125.0 465 3116.0 468.5Q3107.0 472 3103.0 483Q3095.0 511 3084.5 535.5Q3074.0 560 3053.0 577Q3030.0 596 2995.0 607.5Q2960.0 619 2913.0 619Q2859.0 619 2815.0 597.0Q2771.0 575 2739.5 536.0Q2708.0 497 2691.0 448.0Q2674.0 399 2674.0 345Q2674.0 281 2689.5 224.0Q2705.0 167 2736.5 123.5Q2768.0 80 2813.0 55.5Q2858.0 31 2916.0 31Q2990.0 31 3036.0 63.0Q3082.0 95 3114.0 158Q3122.0 174 3136.0 173.5Q3150.0 173 3150.0 157Q3150.0 145 3147.0 127.0Q3144.0 109 3138.5 88.5Q3133.0 68 3126.0 48Q3122.0 36 3116.0 30.0Q3110.0 24 3098.0 19Q3060.0 3 3008.5 -5.5Q2957.0 -14 2898.0 -14ZM3242.0 -4Q3233.0 -4 3226.0 -0.5Q3219.0 3 3219.0 9Q3219.0 24 3244.0 29Q3282.0 37 3299.0 51.0Q3316.0 65 3316.0 97V551Q3316.0 584 3302.0 598.0Q3288.0 612 3249.0 620Q3224.0 625 3224.0 641Q3224.0 647 3231.0 650.5Q3238.0 654 3247.0 654Q3271.0 654 3294.0 653.0Q3317.0 652 3338.5 651.0Q3360.0 650 3382.0 650Q3403.0 650 3424.5 651.0Q3446.0 652 3469.0 653.0Q3492.0 654 3516.0 654Q3526.0 654 3532.0 650.5Q3538.0 647 3538.0 640Q3538.0 632 3531.5 627.5Q3525.0 623 3513.0 620Q3473.0 610 3459.0 596.0Q3445.0 582 3445.0 550V98Q3445.0 67 3461.5 53.0Q3478.0 39 3516.0 29Q3529.0 26 3535.5 22.0Q3542.0 18 3542.0 10Q3542.0 3 3536.0 0.0Q3530.0 -3 3520.0 -3Q3496.0 -3 3472.0 -2.0Q3448.0 -1 3425.5 0.0Q3403.0 1 3382.0 1Q3360.0 1 3337.0 0.0Q3314.0 -1 3290.0 -2.5Q3266.0 -4 3242.0 -4ZM3600.0 -4Q3591.0 -4 3584.0 -0.5Q3577.0 3 3577.0 9Q3577.0 24 3602.0 29Q3640.0 37 3656.0 51.0Q3672.0 65 3672.0 98V538Q3672.0 576 3659.5 594.0Q3647.0 612 3611.0 620Q3597.0 623 3591.0 628.5Q3585.0 634 3585.0 640Q3585.0 647 3591.5 650.5Q3598.0 654 3609.0 654Q3633.0 654 3653.5 653.5Q3674.0 653 3693.0 652.0Q3712.0 651 3732.0 651Q3754.0 651 3773.5 653.0Q3793.0 655 3813.5 657.0Q3834.0 659 3861.0 659Q3980.0 659 4051.0 609.0Q4122.0 559 4122.0 471Q4122.0 409 4096.5 356.5Q4071.0 304 4018.5 272.0Q3966.0 240 3886.0 240Q3861.0 240 3848.0 247.5Q3835.0 255 3835.0 264Q3835.0 270 3841.5 274.5Q3848.0 279 3853.0 279Q3862.0 279 3870.5 277.5Q3879.0 276 3896.0 276Q3943.0 276 3967.5 324.0Q3992.0 372 3992.0 452Q3992.0 540 3956.5 580.5Q3921.0 621 3861.0 621Q3833.0 621 3817.5 609.5Q3802.0 598 3802.0 573L3801.0 104Q3801.0 71 3817.5 54.5Q3834.0 38 3874.0 29Q3887.0 27 3893.0 22.5Q3899.0 18 3899.0 10Q3899.0 3 3893.5 0.0Q3888.0 -3 3877.0 -3Q3854.0 -3 3830.0 -1.5Q3806.0 0 3783.5 1.0Q3761.0 2 3741.0 2Q3719.0 2 3695.5 1.0Q3672.0 0 3648.0 -2.0Q3624.0 -4 3600.0 -4ZM4193.0 -5Q4182.0 -5 4176.0 -0.5Q4170.0 4 4170.0 9Q4170.0 17 4177.0 21.5Q4184.0 26 4191.0 28Q4227.0 37 4244.0 50.5Q4261.0 64 4261.0 95V555Q4261.0 578 4255.5 590.0Q4250.0 602 4236.5 608.5Q4223.0 615 4197.0 620Q4171.0 625 4171.0 641Q4171.0 647 4178.0 650.5Q4185.0 654 4194.0 654Q4219.0 654 4241.5 653.0Q4264.0 652 4285.0 651.0Q4306.0 650 4327.0 650Q4350.0 650 4373.5 651.0Q4397.0 652 4421.5 653.0Q4446.0 654 4469.0 654Q4479.0 654 4485.0 650.5Q4491.0 647 4491.0 640Q4491.0 632 4484.5 627.5Q4478.0 623 4466.0 620Q4427.0 610 4408.5 598.5Q4390.0 587 4390.0 558V101Q4390.0 72 4403.0 58.5Q4416.0 45 4452.0 45H4561.0Q4584.0 45 4603.0 53.0Q4622.0 61 4634.0 73Q4652.0 89 4664.0 107.0Q4676.0 125 4687.0 149Q4694.0 164 4700.0 172.0Q4706.0 180 4712.0 180Q4719.0 180 4722.0 173.5Q4725.0 167 4725.0 160Q4725.0 159 4724.0 154.0Q4723.0 149 4723.0 146Q4715.0 117 4709.5 96.0Q4704.0 75 4700.5 55.5Q4697.0 36 4694.0 13Q4693.0 6 4690.0 0.5Q4687.0 -5 4678.0 -5Q4648.0 -5 4606.0 -4.0Q4564.0 -3 4517.0 -2.5Q4470.0 -2 4422.5 -1.0Q4375.0 0 4333.0 0Q4311.0 0 4282.5 -1.0Q4254.0 -2 4229.0 -3.5Q4204.0 -5 4193.0 -5ZM4781.0 -5Q4770.0 -5 4763.5 -1.0Q4757.0 3 4757.0 9Q4757.0 22 4783.0 28Q4819.0 37 4834.5 50.5Q4850.0 64 4850.0 97V550Q4850.0 584 4836.5 598.0Q4823.0 612 4786.0 620Q4772.0 623 4766.0 628.5Q4760.0 634 4760.0 640Q4760.0 647 4766.5 650.5Q4773.0 654 4784.0 654Q4813.0 654 4839.5 653.0Q4866.0 652 4891.0 651.0Q4916.0 650 4943.0 650Q4989.0 650 5040.5 651.0Q5092.0 652 5133.0 652Q5166.0 653 5187.5 655.0Q5209.0 657 5213.0 657Q5220.0 657 5227.5 654.0Q5235.0 651 5236.0 642Q5240.0 609 5246.0 577.0Q5252.0 545 5252.0 521Q5252.0 512 5247.5 507.5Q5243.0 503 5238.0 503Q5233.0 503 5229.0 506.5Q5225.0 510 5222.0 517Q5214.0 540 5207.0 557.0Q5200.0 574 5191.0 583Q5178.0 597 5161.0 605.0Q5144.0 613 5120.0 613H5027.0Q5009.0 613 4994.0 602.5Q4979.0 592 4979.0 573V377Q4979.0 366 4985.5 360.0Q4992.0 354 5001.0 354H5093.0Q5120.0 354 5131.5 369.0Q5143.0 384 5151.0 410Q5158.0 430 5170.0 430Q5175.0 430 5179.0 424.5Q5183.0 419 5183.0 410Q5182.0 400 5181.0 386.0Q5180.0 372 5179.5 358.0Q5179.0 344 5179.0 333Q5179.0 321 5179.5 306.0Q5180.0 291 5180.5 276.5Q5181.0 262 5182.0 252Q5183.0 241 5180.5 235.0Q5178.0 229 5172.0 229Q5156.0 229 5149.0 257Q5141.0 285 5130.0 299.0Q5119.0 313 5100.0 313H5006.0Q4993.0 313 4986.0 308.0Q4979.0 303 4979.0 289V99Q4979.0 66 4993.0 53.0Q5007.0 40 5036.0 40H5118.0Q5143.0 40 5163.5 45.0Q5184.0 50 5199.0 61Q5216.0 73 5229.5 93.5Q5243.0 114 5256.0 139Q5260.0 147 5264.0 149.5Q5268.0 152 5274.0 152Q5279.0 151 5281.5 146.0Q5284.0 141 5284.0 135Q5284.0 121 5279.0 99.0Q5274.0 77 5266.5 53.5Q5259.0 30 5253.0 10Q5250.0 3 5245.0 -0.5Q5240.0 -4 5233.0 -4Q5209.0 -4 5171.5 -3.5Q5134.0 -3 5090.0 -2.0Q5046.0 -1 5000.0 -0.5Q4954.0 0 4912.0 0Q4891.0 0 4869.5 -1.0Q4848.0 -2 4826.0 -3.5Q4804.0 -5 4781.0 -5Z" transform="matrix(0.022120 0 0 -0.022120 91.35 390.98)" fill="#15130f"/></svg>