<svg xmlns="http://www.w3.org/2000/svg" viewBox="0 0 300 446"><rect width="300" height="446" fill="#f4ecd8"/><rect x="20.0" y="25.5" width="260" height="395" rx="20.3" fill="#f4ecd8" stroke="#15130f" stroke-width="1.5"/><rect x="36.9" y="42.4" width="226.2" height="354.7" fill="none" stroke="#15130f" stroke-width="0.7"/><g fill="none" stroke="#15130f" stroke-width="0.65" stroke-opacity="0.72" stroke-linecap="round" stroke-linejoin="round"><path d="M150.0,42.4 L263.1,206.5 L150.0,370.6 L36.9,206.5 Z"/></g><path d="M36.9,370.6 H263.1 V397.1 H36.9 Z" fill="#c7dcf0"/><g fill="none" stroke="#15130f" stroke-width="0.8"><line x1="36.9" y1="370.6" x2="263.1" y2="370.6"/><line x1="61.6" y1="370.6" x2="61.6" y2="397.1"/><line x1="238.4" y1="370.6" x2="238.4" y2="397.1"/></g><rect x="141.4" y="34.4" width="17.2" height="19.0" fill="#c7dcf0" stroke="#15130f" stroke-width="0.8"/><path d="M75.0 168Q89.0 168 121.0 137Q210.0 49 357.0 49Q484.0 49 578.5 151.5Q673.0 254 673.0 391Q673.0 501 621.5 569.0Q570.0 637 487.0 637Q457.0 637 397.0 627Q385.0 624 376.0 624Q350.0 622 350.0 653Q350.0 669 395.0 689Q482.0 727 549.0 817.0Q616.0 907 616.0 985Q616.0 1072 560.5 1130.5Q505.0 1189 421.0 1189Q331.0 1189 253.0 1126L199.0 1080L179.0 1065L166.0 1058Q147.0 1056 148.0 1079Q150.0 1117 220.0 1184Q350.0 1307 509.0 1307Q629.0 1307 713.5 1235.0Q798.0 1163 798.0 1060Q798.0 1000 758.5 940.5Q719.0 881 626.0 800Q617.0 793 617.0 788Q616.0 774 648.0 772Q759.0 762 825.0 682.5Q891.0 603 891.0 477Q891.0 268 742.5 120.5Q594.0 -27 383.0 -27Q303.0 -27 219.5 6.0Q136.0 39 85.0 91Q50.0 127 49.0 143Q47.0 168 75.0 168Z" transform="matrix(0.006858 0 0 -0.006858 146.78 49.07)" fill="#15130f"/><path d="M542.0 980Q542.0 1081 524.0 1150.5Q506.0 1220 468.5 1265.0Q431.0 1310 374.0 1310Q309.0 1310 251.5 1260.0Q194.0 1210 140.5 1125.0Q87.0 1040 87.0 960H50.0V1410H87.0Q87.0 1385 110.5 1358.5Q134.0 1332 164.0 1332Q194.0 1332 249.0 1371.0Q304.0 1410 374.0 1410Q483.0 1410 568.5 1352.0Q654.0 1294 698.0 1210.5Q742.0 1127 742.0 1000Q742.0 883 691.0 779Q660.0 716 617.0 675H1060.0V1200Q1060.0 1250 1020.0 1305.0Q980.0 1360 910.0 1360H860.0V1400H1460.0V1360H1410.0Q1340.0 1360 1300.0 1305.0Q1260.0 1250 1260.0 1200V200Q1260.0 150 1300.0 95.0Q1340.0 40 1410.0 40H1460.0V0H860.0V40H910.0Q980.0 40 1020.0 95.0Q1060.0 150 1060.0 200V575H225.0Q430.0 680 486.0 784.5Q542.0 889 542.0 980Z" transform="matrix(0.009268 0 0 -0.009268 42.25 390.40)" fill="#15130f"/><path d="M642.0 249Q737.0 260 842.0 260Q947.0 260 1042.0 249V1151Q947.0 1140 842.0 1140Q737.0 1140 642.0 1151ZM1242.0 210Q1425.0 159 1565.0 55Q1601.0 29 1633.0 0H1386.0Q1179.0 160 842.0 160Q499.0 160 294.0 0H51.0Q83.0 29 119.0 55Q259.0 159 442.0 210V1189Q257.0 1241 117.0 1345Q81.0 1372 50.0 1400H292.0Q498.0 1240 842.0 1240Q1181.0 1240 1388.0 1400H1634.0Q1603.0 1372 1568.0 1345Q1428.0 1241 1242.0 1189Z" transform="matrix(0.009268 0 0 -0.009268 242.95 390.35)" fill="#15130f"/><path d="M41.0 -5Q30.0 -5 23.5 -1.0Q17.0 3 17.0 9Q17.0 22 43.0 28Q78.0 37 94.5 50.5Q111.0 64 111.0 97V550Q111.0 584 97.5 599.0Q84.0 614 48.0 620Q34.0 622 28.0 628.0Q22.0 634 22.0 640Q22.0 647 28.5 650.5Q35.0 654 46.0 654Q76.0 654 95.0 653.0Q114.0 652 131.0 650.5Q148.0 649 171.0 649Q193.0 649 210.5 651.0Q228.0 653 249.0 655.0Q270.0 657 303.0 657Q421.0 657 481.5 623.5Q542.0 590 542.0 508Q542.0 476 528.5 449.0Q515.0 422 497.0 407Q481.0 392 465.0 383.0Q449.0 374 426.0 367Q422.0 366 422.0 362.0Q422.0 358 426.0 357Q451.0 351 477.5 341.0Q504.0 331 527.5 313.0Q551.0 295 565.5 266.5Q580.0 238 580.0 194Q580.0 138 562.5 105.5Q545.0 73 520.5 56.0Q496.0 39 475.0 28Q443.0 12 401.5 4.0Q360.0 -4 302.0 -4Q275.0 -4 244.0 -2.0Q213.0 0 179.0 0Q156.0 0 133.5 -1.0Q111.0 -2 88.0 -3.5Q65.0 -5 41.0 -5ZM307.0 46Q342.0 46 372.0 65.0Q402.0 84 420.0 116.0Q438.0 148 438.0 187Q438.0 224 428.0 247.5Q418.0 271 404.5 285.5Q391.0 300 380.0 307Q370.0 314 347.5 322.0Q325.0 330 290.0 330Q268.0 330 254.0 320.0Q240.0 310 240.0 297V112Q240.0 77 257.5 61.5Q275.0 46 307.0 46ZM282.0 369Q307.0 369 331.0 375.0Q355.0 381 379.0 397Q388.0 404 401.5 426.0Q415.0 448 415.0 490Q415.0 527 404.5 556.0Q394.0 585 368.5 601.5Q343.0 618 298.0 618Q265.0 618 252.5 607.0Q240.0 596 240.0 574V405Q240.0 384 255.0 376.5Q270.0 369 282.0 369ZM659.0 -5Q648.0 -5 642.0 -0.5Q636.0 4 636.0 9Q636.0 17 643.0 21.5Q650.0 26 657.0 28Q693.0 37 710.0 50.5Q727.0 64 727.0 95V555Q727.0 578 721.5 590.0Q716.0 602 702.5 608.5Q689.0 615 663.0 620Q637.0 625 637.0 641Q637.0 647 644.0 650.5Q651.0 654 660.0 654Q685.0 654 707.5 653.0Q730.0 652 751.0 651.0Q772.0 650 793.0 650Q816.0 650 839.5 651.0Q863.0 652 887.5 653.0Q912.0 654 935.0 654Q945.0 654 951.0 650.5Q957.0 647 957.0 640Q957.0 632 950.5 627.5Q944.0 623 932.0 620Q893.0 610 874.5 598.5Q856.0 587 856.0 558V101Q856.0 72 869.0 58.5Q882.0 45 918.0 45H1027.0Q1050.0 45 1069.0 53.0Q1088.0 61 1100.0 73Q1118.0 89 1130.0 107.0Q1142.0 125 1153.0 149Q1160.0 164 1166.0 172.0Q1172.0 180 1178.0 180Q1185.0 180 1188.0 173.5Q1191.0 167 1191.0 160Q1191.0 159 1190.0 154.0Q1189.0 149 1189.0 146Q1181.0 117 1175.5 96.0Q1170.0 75 1166.5 55.5Q1163.0 36 1160.0 13Q1159.0 6 1156.0 0.5Q1153.0 -5 1144.0 -5Q1114.0 -5 1072.0 -4.0Q1030.0 -3 983.0 -2.5Q936.0 -2 888.5 -1.0Q841.0 0 799.0 0Q777.0 0 748.5 -1.0Q720.0 -2 695.0 -3.5Q670.0 -5 659.0 -5ZM1571.0 -14Q1478.0 -14 1416.0 19.0Q1354.0 52 1323.0 111.0Q1292.0 170 1292.0 249V541Q1292.0 571 1278.5 592.0Q1265.0 613 1243.0 619Q1213.0 627 1213.0 641Q1213.0 647 1221.0 650.5Q1229.0 654 1241.0 654Q1269.0 654 1299.5 652.0Q1330.0 650 1359.0 650Q1385.0 650 1418.5 651.5Q1452.0 653 1476.0 653Q1488.0 653 1495.5 650.0Q1503.0 647 1503.0 640Q1503.0 630 1490.5 625.5Q1478.0 621 1461.0 614Q1447.0 608 1434.5 589.5Q1422.0 571 1422.0 539V270Q1422.0 198 1446.0 151.5Q1470.0 105 1510.0 83.0Q1550.0 61 1600.0 61Q1695.0 61 1741.0 121.0Q1787.0 181 1787.0 293Q1787.0 318 1787.0 352.0Q1787.0 386 1786.5 422.5Q1786.0 459 1785.0 492Q1785.0 531 1779.5 555.5Q1774.0 580 1764.0 594.5Q1754.0 609 1736.0 617Q1726.0 621 1712.5 626.0Q1699.0 631 1699.0 639Q1699.0 647 1707.0 650.0Q1715.0 653 1728.0 653Q1760.0 653 1777.5 652.0Q1795.0 651 1818.0 651Q1835.0 651 1848.5 651.5Q1862.0 652 1875.0 653.0Q1888.0 654 1905.0 654Q1917.0 654 1924.0 651.5Q1931.0 649 1931.0 641Q1931.0 627 1902.0 620Q1871.0 612 1859.0 591.0Q1847.0 570 1845.0 536Q1841.0 457 1839.5 391.0Q1838.0 325 1837.0 258Q1836.0 178 1800.5 116.5Q1765.0 55 1705.0 20.5Q1645.0 -14 1571.0 -14ZM1985.0 -4Q1976.0 -4 1969.0 -0.5Q1962.0 3 1962.0 9Q1962.0 24 1987.0 29Q2025.0 37 2039.5 51.0Q2054.0 65 2054.0 98V538Q2054.0 576 2041.5 594.0Q2029.0 612 1993.0 620Q1979.0 623 1973.0 628.5Q1967.0 634 1967.0 640Q1967.0 647 1973.5 650.5Q1980.0 654 1991.0 654Q2019.0 654 2045.0 653.0Q2071.0 652 2096.0 651.0Q2121.0 650 2147.0 650Q2183.0 650 2225.5 650.0Q2268.0 650 2306.0 650Q2344.0 650 2374.5 655.5Q2405.0 661 2426.0 661Q2432.0 661 2439.5 657.5Q2447.0 654 2448.0 645Q2450.0 626 2451.0 602.0Q2452.0 578 2452.5 556.0Q2453.0 534 2453.0 521Q2453.0 501 2442.0 501Q2437.0 501 2431.5 505.0Q2426.0 509 2424.0 516Q2418.0 538 2410.5 555.5Q2403.0 573 2392.0 583Q2379.0 598 2361.5 604.0Q2344.0 610 2321.0 610H2230.0Q2206.0 610 2194.5 596.5Q2183.0 583 2183.0 562Q2183.0 544 2183.0 519.0Q2183.0 494 2183.0 472Q2183.0 449 2183.0 423.0Q2183.0 397 2183.0 376Q2183.0 366 2187.5 359.5Q2192.0 353 2202.0 353Q2229.0 353 2256.5 354.0Q2284.0 355 2305.0 355Q2329.0 355 2342.5 369.0Q2356.0 383 2364.0 403Q2368.0 410 2373.5 415.0Q2379.0 420 2384.0 420Q2389.0 420 2393.5 415.0Q2398.0 410 2397.0 400Q2395.0 381 2393.5 364.5Q2392.0 348 2392.0 334Q2392.0 316 2393.0 302.0Q2394.0 288 2396.0 265Q2397.0 254 2394.5 248.0Q2392.0 242 2386.0 242Q2378.0 242 2371.5 250.0Q2365.0 258 2363.0 266Q2355.0 293 2342.5 303.0Q2330.0 313 2314.0 313Q2302.0 313 2289.5 313.5Q2277.0 314 2266.0 314Q2251.0 314 2235.5 314.0Q2220.0 314 2205.0 313Q2194.0 312 2188.0 306.5Q2182.0 301 2182.0 289Q2182.0 243 2182.5 195.0Q2183.0 147 2184.0 99Q2185.0 68 2201.0 53.0Q2217.0 38 2257.0 29Q2270.0 27 2276.0 22.5Q2282.0 18 2282.0 10Q2282.0 3 2276.5 0.0Q2271.0 -3 2260.0 -3Q2237.0 -3 2212.5 -1.5Q2188.0 0 2165.5 1.0Q2143.0 2 2124.0 2Q2102.0 2 2079.0 1.0Q2056.0 0 2032.5 -2.0Q2009.0 -4 1985.0 -4ZM2520.0 -4Q2511.0 -4 2504.0 -0.5Q2497.0 3 2497.0 9Q2497.0 24 2522.0 29Q2560.0 37 2574.5 51.0Q2589.0 65 2589.0 98V538Q2589.0 576 2576.5 594.0Q2564.0 612 2528.0 620Q2514.0 623 2508.0 628.5Q2502.0 634 2502.0 640Q2502.0 647 2508.5 650.5Q2515.0 654 2526.0 654Q2554.0 654 2580.0 653.0Q2606.0 652 2631.0 651.0Q2656.0 650 2682.0 650Q2718.0 650 2760.5 650.0Q2803.0 650 2841.0 650Q2879.0 650 2909.5 655.5Q2940.0 661 2961.0 661Q2967.0 661 2974.5 657.5Q2982.0 654 2983.0 645Q2985.0 626 2986.0 602.0Q2987.0 578 2987.5 556.0Q2988.0 534 2988.0 521Q2988.0 501 2977.0 501Q2972.0 501 2966.5 505.0Q2961.0 509 2959.0 516Q2953.0 538 2945.5 555.5Q2938.0 573 2927.0 583Q2914.0 598 2896.5 604.0Q2879.0 610 2856.0 610H2765.0Q2741.0 610 2729.5 596.5Q2718.0 583 2718.0 562Q2718.0 544 2718.0 519.0Q2718.0 494 2718.0 472Q2718.0 449 2718.0 423.0Q2718.0 397 2718.0 376Q2718.0 366 2722.5 359.5Q2727.0 353 2737.0 353Q2764.0 353 2791.5 354.0Q2819.0 355 2840.0 355Q2864.0 355 2877.5 369.0Q2891.0 383 2899.0 403Q2903.0 410 2908.5 415.0Q2914.0 420 2919.0 420Q2924.0 420 2928.5 415.0Q2933.0 410 2932.0 400Q2930.0 381 2928.5 364.5Q2927.0 348 2927.0 334Q2927.0 316 2928.0 302.0Q2929.0 288 2931.0 265Q2932.0 254 2929.5 248.0Q2927.0 242 2921.0 242Q2913.0 242 2906.5 250.0Q2900.0 258 2898.0 266Q2890.0 293 2877.5 303.0Q2865.0 313 2849.0 313Q2837.0 313 2824.5 313.5Q2812.0 314 2801.0 314Q2786.0 314 2770.5 314.0Q2755.0 314 2740.0 313Q2729.0 312 2723.0 306.5Q2717.0 301 2717.0 289Q2717.0 243 2717.5 195.0Q2718.0 147 2719.0 99Q2720.0 68 2736.0 53.0Q2752.0 38 2792.0 29Q2805.0 27 2811.0 22.5Q2817.0 18 2817.0 10Q2817.0 3 2811.5 0.0Q2806.0 -3 2795.0 -3Q2772.0 -3 2747.5 -1.5Q2723.0 0 2700.5 1.0Q2678.0 2 2659.0 2Q2637.0 2 2614.0 1.0Q2591.0 0 2567.5 -2.0Q2544.0 -4 2520.0 -4Z" transform="matrix(0.022120 0 0 -0.022120 116.76 391.02)" fill="#15130f"/></svg>