<svg xmlns="http://www.w3.org/2000/svg" viewBox="0 0 300 446"><rect width="300" height="446" fill="#f4ecd8"/><rect x="20.0" y="25.5" width="260" height="395" rx="20.3" fill="#f4ecd8" stroke="#15130f" stroke-width="1.5"/><rect x="36.9" y="42.4" width="226.2" height="354.7" fill="none" stroke="#15130f" stroke-width="0.7"/><g fill="none" stroke="#15130f" stroke-width="0.65" stroke-opacity="0.72" stroke-linecap="round" stroke-linejoin="round"><line x1="150.0" y1="42.4" x2="150.0" y2="210.0"/><line x1="36.9" y1="210.0" x2="263.1" y2="210.0"/></g><path d="M36.9,370.6 H263.1 V397.1 H36.9 Z" fill="#e59680"/><g fill="none" stroke="#15130f" stroke-width="0.8"><line x1="36.9" y1="370.6" x2="263.1" y2="370.6"/><line x1="61.6" y1="370.6" x2="61.6" y2="397.1"/><line x1="238.4" y1="370.6" x2="238.4" y2="397.1"/></g><rect x="141.4" y="34.4" width="17.2" height="19.0" fill="#e59680" stroke="#15130f" stroke-width="0.8"/><path d="M853.0 1316Q873.0 1316 875.0 1308L880.0 1293L883.0 1279Q881.0 1265 840.0 1259Q750.0 1244 640.0 1176.5Q530.0 1109 463.0 1027Q420.0 973 377.5 882.5Q335.0 792 335.0 753Q335.0 727 354.0 728Q367.0 729 385.0 742Q435.0 777 512.0 803.0Q589.0 829 645.0 829Q781.0 829 874.5 722.0Q968.0 615 968.0 459Q968.0 243 841.0 108.0Q714.0 -27 511.0 -27Q313.0 -27 187.5 122.5Q62.0 272 62.0 508Q62.0 756 224.0 971.5Q386.0 1187 633.0 1268Q779.0 1316 853.0 1316ZM501.0 715Q402.0 715 337.5 638.5Q273.0 562 273.0 445Q273.0 284 361.5 159.5Q450.0 35 565.0 35Q658.0 35 715.0 113.0Q772.0 191 772.0 318Q772.0 497 697.5 606.0Q623.0 715 501.0 715Z" transform="matrix(0.006858 0 0 -0.006858 146.47 49.10)" fill="#15130f"/><path d="M250.0 450Q250.0 349 278.0 264.5Q306.0 180 358.5 135.0Q411.0 90 467.0 90Q524.0 90 576.5 135.0Q629.0 180 657.0 264.5Q685.0 349 685.0 450Q685.0 541 657.0 625.5Q629.0 710 576.5 755.0Q524.0 800 467.0 800Q411.0 800 358.5 755.0Q306.0 710 278.0 625.5Q250.0 541 250.0 450ZM800.0 729Q817.0 704 831.0 676Q885.0 567 885.0 450Q885.0 323 831.0 214.5Q777.0 106 676.5 48.0Q576.0 -10 467.0 -10Q359.0 -10 258.5 48.0Q158.0 106 104.0 214.5Q50.0 323 50.0 450Q50.0 567 104.0 675.5Q158.0 784 258.5 842.0Q359.0 900 467.0 900Q576.0 900 677.0 842Q706.0 825 732.0 803L1082.0 1153Q905.0 1153 658.0 1223L693.0 1259Q1117.0 1259 1400.0 1400Q1259.0 1117 1259.0 693L1223.0 658Q1153.0 905 1153.0 1082Z" transform="matrix(0.009268 0 0 -0.009268 42.53 390.31)" fill="#15130f"/><path d="M1450.0 635V-198Q1651.0 -179 1769.0 -4Q1900.0 191 1900.0 410Q1900.0 633 1769.0 827Q1742.0 865 1711.0 896ZM1259.0 -187Q1250.0 -126 1250.0 -52V1067Q1250.0 1212 1241.5 1255.5Q1233.0 1299 1212.5 1317.5Q1192.0 1336 1168.0 1336L938.0 1106Q950.0 1037 950.0 952V0H750.0V1067Q750.0 1212 741.5 1255.5Q733.0 1299 712.5 1317.5Q692.0 1336 668.0 1336L438.0 1106Q450.0 1037 450.0 952V0H50.0V40H100.0Q170.0 40 210.0 95.0Q250.0 150 250.0 200V1067Q250.0 1212 241.5 1255.5Q233.0 1299 212.5 1317.5Q192.0 1336 168.0 1336V1410Q284.0 1392 358.0 1301Q387.0 1264 408.0 1216L602.0 1410H668.0Q784.0 1392 858.0 1301Q887.0 1264 908.0 1216L1102.0 1410H1168.0Q1284.0 1392 1358.0 1301Q1450.0 1187 1450.0 952V775L1726.0 1051Q1824.0 1007 1908.0 915Q2100.0 710 2100.0 410Q2100.0 109 1906.0 -95Q1729.0 -282 1453.0 -298Q1455.0 -337 1459.0 -355Q1467.0 -399 1487.5 -417.5Q1508.0 -436 1532.0 -436V-510Q1416.0 -491 1343.0 -401Q1305.0 -354 1282.0 -286Q1118.0 -247 974.0 -95Q963.0 -83 952.0 -71L977.0 -36Q1088.0 -154 1259.0 -187Z" transform="matrix(0.008916 0 0 -0.008916 241.17 387.88)" fill="#15130f"/><path d="M405.0 -14Q330.0 -14 263.0 9.5Q196.0 33 144.5 77.0Q93.0 121 63.5 182.5Q34.0 244 34.0 319Q34.0 389 63.0 451.0Q92.0 513 145.0 561.0Q198.0 609 271.5 636.5Q345.0 664 433.0 664Q467.0 664 497.5 659.5Q528.0 655 557.0 648.5Q586.0 642 614.0 632Q625.0 628 631.5 621.0Q638.0 614 639.0 602Q643.0 572 645.0 542.5Q647.0 513 647.0 484Q648.0 474 640.0 469.5Q632.0 465 623.0 468.5Q614.0 472 610.0 483Q602.0 511 591.5 535.5Q581.0 560 560.0 577Q537.0 596 502.0 607.5Q467.0 619 420.0 619Q366.0 619 322.0 597.0Q278.0 575 246.5 536.0Q215.0 497 198.0 448.0Q181.0 399 181.0 345Q181.0 281 196.5 224.0Q212.0 167 243.5 123.5Q275.0 80 320.0 55.5Q365.0 31 423.0 31Q497.0 31 543.0 63.0Q589.0 95 621.0 158Q629.0 174 643.0 173.5Q657.0 173 657.0 157Q657.0 145 654.0 127.0Q651.0 109 645.5 88.5Q640.0 68 633.0 48Q629.0 36 623.0 30.0Q617.0 24 605.0 19Q567.0 3 515.5 -5.5Q464.0 -14 405.0 -14ZM1351.0 -21Q1308.0 -21 1276.0 -11.5Q1244.0 -2 1221.0 16.0Q1198.0 34 1179.0 58Q1157.0 88 1136.0 116.5Q1115.0 145 1093.5 179.5Q1072.0 214 1046.0 262Q1033.0 285 1013.0 296Q1000.0 303 986.5 306.0Q973.0 309 964.0 309Q958.0 310 955.0 304.0Q952.0 298 952.0 289V103Q952.0 72 968.5 55.0Q985.0 38 1025.0 29Q1038.0 27 1044.0 22.5Q1050.0 18 1050.0 10Q1050.0 3 1044.5 0.0Q1039.0 -3 1028.0 -3Q1005.0 -3 981.0 -1.5Q957.0 0 934.5 1.0Q912.0 2 892.0 2Q870.0 2 846.5 1.0Q823.0 0 799.0 -2.0Q775.0 -4 751.0 -4Q742.0 -4 735.0 -0.5Q728.0 3 728.0 9Q728.0 24 753.0 29Q791.0 37 807.0 51.0Q823.0 65 823.0 98V540Q823.0 569 818.5 584.5Q814.0 600 801.0 608.0Q788.0 616 762.0 620Q748.0 622 742.0 628.0Q736.0 634 736.0 640Q736.0 647 742.5 650.5Q749.0 654 760.0 654Q790.0 654 808.0 653.0Q826.0 652 842.5 650.5Q859.0 649 882.0 649Q904.0 649 921.0 651.0Q938.0 653 959.0 655.0Q980.0 657 1013.0 657Q1128.0 657 1189.0 617.0Q1250.0 577 1250.0 495Q1250.0 450 1231.0 418.5Q1212.0 387 1183.5 367.0Q1155.0 347 1125.0 336Q1121.0 335 1121.5 331.0Q1122.0 327 1125.0 324Q1155.0 278 1183.5 236.5Q1212.0 195 1243.5 158.0Q1275.0 121 1312.0 87Q1343.0 58 1375.5 52.5Q1408.0 47 1443.0 47Q1458.0 47 1458.0 32Q1458.0 12 1443.0 0.5Q1428.0 -11 1403.5 -16.0Q1379.0 -21 1351.0 -21ZM995.0 338Q1036.0 338 1063.5 356.5Q1091.0 375 1105.5 406.0Q1120.0 437 1120.0 475Q1120.0 520 1109.0 551.5Q1098.0 583 1071.5 600.5Q1045.0 618 999.0 618Q973.0 618 963.5 599.5Q954.0 581 953.0 525Q952.0 502 952.0 464.5Q952.0 427 952.0 375Q952.0 353 963.5 345.5Q975.0 338 995.0 338ZM1493.0 -4Q1484.0 -4 1477.0 -0.5Q1470.0 3 1470.0 9Q1470.0 24 1495.0 29Q1533.0 37 1550.0 51.0Q1567.0 65 1567.0 97V551Q1567.0 584 1553.0 598.0Q1539.0 612 1500.0 620Q1475.0 625 1475.0 641Q1475.0 647 1482.0 650.5Q1489.0 654 1498.0 654Q1522.0 654 1545.0 653.0Q1568.0 652 1589.5 651.0Q1611.0 650 1633.0 650Q1654.0 650 1675.5 651.0Q1697.0 652 1720.0 653.0Q1743.0 654 1767.0 654Q1777.0 654 1783.0 650.5Q1789.0 647 1789.0 640Q1789.0 632 1782.5 627.5Q1776.0 623 1764.0 620Q1724.0 610 1710.0 596.0Q1696.0 582 1696.0 550V98Q1696.0 67 1712.5 53.0Q1729.0 39 1767.0 29Q1780.0 26 1786.5 22.0Q1793.0 18 1793.0 10Q1793.0 3 1787.0 0.0Q1781.0 -3 1771.0 -3Q1747.0 -3 1723.0 -2.0Q1699.0 -1 1676.5 0.0Q1654.0 1 1633.0 1Q1611.0 1 1588.0 0.0Q1565.0 -1 1541.0 -2.5Q1517.0 -4 1493.0 -4ZM2018.0 -4Q2008.0 -4 2000.5 -0.5Q1993.0 3 1993.0 9Q1993.0 17 2000.0 22.0Q2007.0 27 2020.0 29Q2058.0 37 2076.0 51.5Q2094.0 66 2094.0 99V504Q2094.0 545 2092.0 566.0Q2090.0 587 2086.5 594.5Q2083.0 602 2076.0 603Q2066.0 607 2051.0 608.0Q2036.0 609 2022.0 609H1991.0Q1962.0 609 1935.0 595.5Q1908.0 582 1893.0 559Q1889.0 553 1880.5 542.0Q1872.0 531 1862.5 522.0Q1853.0 513 1843.0 513Q1836.0 513 1833.5 518.0Q1831.0 523 1831.0 529Q1831.0 541 1837.0 553Q1854.0 587 1862.5 612.5Q1871.0 638 1874.0 673Q1876.0 688 1882.5 692.5Q1889.0 697 1896.0 697Q1902.0 697 1910.5 684.5Q1919.0 672 1926.0 664Q1935.0 655 1958.0 650.5Q1981.0 646 1997.0 646L2366.0 647Q2394.0 647 2413.0 651.5Q2432.0 656 2443.0 661Q2458.0 670 2467.0 679.5Q2476.0 689 2488.0 689Q2493.0 689 2495.5 683.5Q2498.0 678 2498.0 670Q2498.0 665 2497.0 658.5Q2496.0 652 2495.0 647Q2491.0 628 2487.0 613.5Q2483.0 599 2480.5 586.5Q2478.0 574 2478.0 558V541Q2478.0 527 2474.0 517.0Q2470.0 507 2461.0 507Q2453.0 507 2447.5 516.5Q2442.0 526 2436.0 546Q2427.0 578 2406.0 593.5Q2385.0 609 2340.0 609H2272.0Q2253.0 609 2242.5 602.0Q2232.0 595 2227.5 571.5Q2223.0 548 2223.0 499V100Q2223.0 68 2241.0 53.5Q2259.0 39 2298.0 29Q2310.0 26 2317.0 22.0Q2324.0 18 2324.0 10Q2324.0 3 2317.5 0.0Q2311.0 -3 2301.0 -3Q2277.0 -3 2253.0 -2.0Q2229.0 -1 2205.5 0.0Q2182.0 1 2160.0 1Q2138.0 1 2114.5 0.0Q2091.0 -1 2066.5 -2.5Q2042.0 -4 2018.0 -4ZM2536.0 -4Q2527.0 -4 2520.0 -0.5Q2513.0 3 2513.0 9Q2513.0 24 2538.0 29Q2576.0 37 2593.0 51.0Q2610.0 65 2610.0 97V551Q2610.0 584 2596.0 598.0Q2582.0 612 2543.0 620Q2518.0 625 2518.0 641Q2518.0 647 2525.0 650.5Q2532.0 654 2541.0 654Q2565.0 654 2588.0 653.0Q2611.0 652 2632.5 651.0Q2654.0 650 2676.0 650Q2697.0 650 2718.5 651.0Q2740.0 652 2763.0 653.0Q2786.0 654 2810.0 654Q2820.0 654 2826.0 650.5Q2832.0 647 2832.0 640Q2832.0 632 2825.5 627.5Q2819.0 623 2807.0 620Q2767.0 610 2753.0 596.0Q2739.0 582 2739.0 550V98Q2739.0 67 2755.5 53.0Q2772.0 39 2810.0 29Q2823.0 26 2829.5 22.0Q2836.0 18 2836.0 10Q2836.0 3 2830.0 0.0Q2824.0 -3 2814.0 -3Q2790.0 -3 2766.0 -2.0Q2742.0 -1 2719.5 0.0Q2697.0 1 2676.0 1Q2654.0 1 2631.0 0.0Q2608.0 -1 2584.0 -2.5Q2560.0 -4 2536.0 -4ZM3257.0 -14Q3182.0 -14 3115.0 9.5Q3048.0 33 2996.5 77.0Q2945.0 121 2915.5 182.5Q2886.0 244 2886.0 319Q2886.0 389 2915.0 451.0Q2944.0 513 2997.0 561.0Q3050.0 609 3123.5 636.5Q3197.0 664 3285.0 664Q3319.0 664 3349.5 659.5Q3380.0 655 3409.0 648.5Q3438.0 642 3466.0 632Q3477.0 628 3483.5 621.0Q3490.0 614 3491.0 602Q3495.0 572 3497.0 542.5Q3499.0 513 3499.0 484Q3500.0 474 3492.0 469.5Q3484.0 465 3475.0 468.5Q3466.0 472 3462.0 483Q3454.0 511 3443.5 535.5Q3433.0 560 3412.0 577Q3389.0 596 3354.0 607.5Q3319.0 619 3272.0 619Q3218.0 619 3174.0 597.0Q3130.0 575 3098.5 536.0Q3067.0 497 3050.0 448.0Q3033.0 399 3033.0 345Q3033.0 281 3048.5 224.0Q3064.0 167 3095.5 123.5Q3127.0 80 3172.0 55.5Q3217.0 31 3275.0 31Q3349.0 31 3395.0 63.0Q3441.0 95 3473.0 158Q3481.0 174 3495.0 173.5Q3509.0 173 3509.0 157Q3509.0 145 3506.0 127.0Q3503.0 109 3497.5 88.5Q3492.0 68 3485.0 48Q3481.0 36 3475.0 30.0Q3469.0 24 3457.0 19Q3419.0 3 3367.5 -5.5Q3316.0 -14 3257.0 -14ZM3601.0 -4Q3592.0 -4 3585.0 -0.5Q3578.0 3 3578.0 9Q3578.0 24 3603.0 29Q3641.0 37 3658.0 51.0Q3675.0 65 3675.0 97V551Q3675.0 584 3661.0 598.0Q3647.0 612 3608.0 620Q3583.0 625 3583.0 641Q3583.0 647 3590.0 650.5Q3597.0 654 3606.0 654Q3630.0 654 3653.0 653.0Q3676.0 652 3697.5 651.0Q3719.0 650 3741.0 650Q3762.0 650 3783.5 651.0Q3805.0 652 3828.0 653.0Q3851.0 654 3875.0 654Q3885.0 654 3891.0 650.5Q3897.0 647 3897.0 640Q3897.0 632 3890.5 627.5Q3884.0 623 3872.0 620Q3832.0 610 3818.0 596.0Q3804.0 582 3804.0 550V98Q3804.0 67 3820.5 53.0Q3837.0 39 3875.0 29Q3888.0 26 3894.5 22.0Q3901.0 18 3901.0 10Q3901.0 3 3895.0 0.0Q3889.0 -3 3879.0 -3Q3855.0 -3 3831.0 -2.0Q3807.0 -1 3784.5 0.0Q3762.0 1 3741.0 1Q3719.0 1 3696.0 0.0Q3673.0 -1 3649.0 -2.5Q3625.0 -4 3601.0 -4ZM4131.0 -15Q4088.0 -15 4049.5 -4.0Q4011.0 7 3979.0 29Q3973.0 34 3968.0 39.5Q3963.0 45 3960.0 52Q3952.0 77 3949.0 113.5Q3946.0 150 3947.0 184Q3947.0 191 3952.5 194.0Q3958.0 197 3966.0 197Q3974.0 197 3978.5 194.5Q3983.0 192 3985.0 185Q4007.0 110 4049.0 68.0Q4091.0 26 4144.0 26Q4177.0 26 4200.0 41.0Q4223.0 56 4235.0 80.0Q4247.0 104 4247.0 132Q4247.0 167 4234.5 190.0Q4222.0 213 4197.0 231.5Q4172.0 250 4134.0 271Q4093.0 295 4054.0 321.5Q4015.0 348 3990.0 384.5Q3965.0 421 3965.0 475Q3965.0 531 3993.5 573.5Q4022.0 616 4073.0 640.0Q4124.0 664 4191.0 664Q4228.0 664 4260.0 656.0Q4292.0 648 4311.0 640Q4322.0 636 4327.5 630.0Q4333.0 624 4336.0 611Q4342.0 590 4346.5 561.0Q4351.0 532 4351.0 500Q4351.0 488 4333.0 488Q4325.0 488 4317.0 492.0Q4309.0 496 4307.0 503Q4289.0 561 4257.5 591.0Q4226.0 621 4180.0 621Q4149.0 621 4127.0 610.5Q4105.0 600 4092.0 578.5Q4079.0 557 4079.0 523Q4079.0 497 4096.5 475.0Q4114.0 453 4145.5 432.0Q4177.0 411 4216.0 386Q4264.0 358 4296.5 329.5Q4329.0 301 4346.0 266.5Q4363.0 232 4363.0 185Q4363.0 119 4334.0 74.5Q4305.0 30 4253.0 7.5Q4201.0 -15 4131.0 -15ZM4446.0 -4Q4434.0 -4 4427.5 -0.5Q4421.0 3 4421.0 9Q4421.0 17 4429.5 20.5Q4438.0 24 4450.0 27Q4474.0 34 4491.0 54.0Q4508.0 74 4512.0 106Q4520.0 167 4527.5 239.0Q4535.0 311 4541.5 384.0Q4548.0 457 4552.0 521Q4552.0 528 4552.0 537.0Q4552.0 546 4552.0 555Q4551.0 570 4546.5 579.5Q4542.0 589 4531.0 597Q4517.0 607 4502.0 612.5Q4487.0 618 4468.0 622Q4457.0 624 4450.5 629.5Q4444.0 635 4444.0 643Q4444.0 651 4452.0 654.0Q4460.0 657 4473.0 657Q4486.0 657 4508.0 656.0Q4530.0 655 4555.5 653.5Q4581.0 652 4606.0 651.0Q4631.0 650 4650.0 650Q4658.0 650 4664.0 645.0Q4670.0 640 4672.0 633Q4678.0 614 4684.0 596.0Q4690.0 578 4697.0 558L4847.0 191Q4850.0 186 4855.0 185.5Q4860.0 185 4862.0 190L5023.0 548Q5030.0 577 5034.5 599.0Q5039.0 621 5043.0 634Q5046.0 647 5056.0 647H5097.0Q5135.0 649 5177.0 653.0Q5219.0 657 5242.0 657Q5250.0 657 5257.5 654.5Q5265.0 652 5265.0 644Q5265.0 636 5259.0 632.0Q5253.0 628 5241.0 623Q5233.0 621 5222.0 616.5Q5211.0 612 5203.0 608Q5182.0 599 5171.5 585.0Q5161.0 571 5162.0 545Q5163.0 474 5166.0 417.5Q5169.0 361 5171.5 311.5Q5174.0 262 5178.0 210.5Q5182.0 159 5185.0 97Q5187.0 69 5206.5 53.0Q5226.0 37 5259.0 29Q5271.0 26 5278.5 22.0Q5286.0 18 5286.0 10Q5286.0 3 5279.5 0.0Q5273.0 -3 5262.0 -3Q5239.0 -3 5214.0 -2.0Q5189.0 -1 5165.5 0.0Q5142.0 1 5121.0 1Q5101.0 1 5080.0 0.0Q5059.0 -1 5037.0 -2.5Q5015.0 -4 4991.0 -4Q4981.0 -4 4973.5 -0.5Q4966.0 3 4966.0 9Q4966.0 17 4973.5 22.0Q4981.0 27 4993.0 29Q5027.0 36 5040.5 50.0Q5054.0 64 5052.0 97Q5051.0 162 5049.0 222.0Q5047.0 282 5045.0 341.0Q5043.0 400 5040.0 460Q5039.0 468 5035.5 467.5Q5032.0 467 5028.0 459L4824.0 -1Q4820.0 -12 4811.0 -10.5Q4802.0 -9 4799.0 -1Q4753.0 115 4702.5 228.5Q4652.0 342 4603.0 459Q4600.0 467 4594.5 465.0Q4589.0 463 4588.0 454Q4583.0 398 4579.0 338.5Q4575.0 279 4574.0 220.0Q4573.0 161 4573.0 103Q4573.0 76 4590.5 57.0Q4608.0 38 4644.0 29Q4656.0 27 4664.5 22.5Q4673.0 18 4673.0 10Q4673.0 3 4665.0 0.0Q4657.0 -3 4647.0 -3Q4620.0 -3 4606.0 -2.0Q4592.0 -1 4580.0 0.0Q4568.0 1 4548.0 1Q4527.0 1 4508.5 0.0Q4490.0 -1 4474.0 -2.5Q4458.0 -4 4446.0 -4Z" transform="matrix(0.022120 0 0 -0.022120 91.16 391.34)" fill="#15130f"/></svg>