<svg xmlns="http://www.w3.org/2000/svg" viewBox="0 0 300 446"><rect width="300" height="446" fill="#f4ecd8"/><rect x="20.0" y="25.5" width="260" height="395" rx="20.3" fill="#f4ecd8" stroke="#15130f" stroke-width="1.5"/><rect x="36.9" y="42.4" width="226.2" height="354.7" fill="none" stroke="#15130f" stroke-width="0.7"/><g fill="none" stroke="#15130f" stroke-width="0.65" stroke-opacity="0.72" stroke-linecap="round" stroke-linejoin="round"><line x1="150.0" y1="42.4" x2="150.0" y2="210.0"/><line x1="36.9" y1="210.0" x2="263.1" y2="210.0"/></g><path d="M36.9,370.6 H263.1 V397.1 H36.9 Z" fill="#e59680"/><g fill="none" stroke="#15130f" stroke-width="0.8"><line x1="36.9" y1="370.6" x2="263.1" y2="370.6"/><line x1="61.6" y1="370.6" x2="61.6" y2="397.1"/><line x1="238.4" y1="370.6" x2="238.4" y2="397.1"/></g><rect x="141.4" y="34.4" width="17.2" height="19.0" fill="#e59680" stroke="#15130f" stroke-width="0.8"/><path d="M649.0 1092V235L647.0 193L657.0 137Q686.0 59 825.0 52Q867.0 50 867.0 28Q867.0 -7 780.0 -7Q761.0 -7 652.0 2Q595.0 7 494.0 7Q394.0 7 322.0 -2Q293.0 -5 280.0 -5Q255.0 -5 255.0 20Q255.0 41 281.0 45Q384.0 61 415.0 92.0Q446.0 123 446.0 210L445.0 248V1010Q445.0 1115 363.0 1115Q331.0 1115 306.0 1104L281.0 1093Q270.0 1089 261.0 1089Q235.0 1089 235.0 1113Q235.0 1137 260.0 1150.0Q285.0 1163 362.0 1180Q506.0 1211 567.0 1267L614.0 1310Q625.0 1320 641.0 1320Q661.0 1320 661.0 1282Q661.0 1271 659.0 1243L651.0 1153Q649.0 1126 649.0 1092ZM1673.0 1092V235L1671.0 193L1681.0 137Q1710.0 59 1849.0 52Q1891.0 50 1891.0 28Q1891.0 -7 1804.0 -7Q1785.0 -7 1676.0 2Q1619.0 7 1518.0 7Q1418.0 7 1346.0 -2Q1317.0 -5 1304.0 -5Q1279.0 -5 1279.0 20Q1279.0 41 1305.0 45Q1408.0 61 1439.0 92.0Q1470.0 123 1470.0 210L1469.0 248V1010Q1469.0 1115 1387.0 1115Q1355.0 1115 1330.0 1104L1305.0 1093Q1294.0 1089 1285.0 1089Q1259.0 1089 1259.0 1113Q1259.0 1137 1284.0 1150.0Q1309.0 1163 1386.0 1180Q1530.0 1211 1591.0 1267L1638.0 1310Q1649.0 1320 1665.0 1320Q1685.0 1320 1685.0 1282Q1685.0 1271 1683.0 1243L1675.0 1153Q1673.0 1126 1673.0 1092Z" transform="matrix(0.006024 0 0 -0.006024 143.60 48.63)" fill="#15130f"/><path d="M250.0 450Q250.0 349 278.0 264.5Q306.0 180 358.5 135.0Q411.0 90 467.0 90Q524.0 90 576.5 135.0Q629.0 180 657.0 264.5Q685.0 349 685.0 450Q685.0 541 657.0 625.5Q629.0 710 576.5 755.0Q524.0 800 467.0 800Q411.0 800 358.5 755.0Q306.0 710 278.0 625.5Q250.0 541 250.0 450ZM800.0 729Q817.0 704 831.0 676Q885.0 567 885.0 450Q885.0 323 831.0 214.5Q777.0 106 676.5 48.0Q576.0 -10 467.0 -10Q359.0 -10 258.5 48.0Q158.0 106 104.0 214.5Q50.0 323 50.0 450Q50.0 567 104.0 675.5Q158.0 784 258.5 842.0Q359.0 900 467.0 900Q576.0 900 677.0 842Q706.0 825 732.0 803L1082.0 1153Q905.0 1153 658.0 1223L693.0 1259Q1117.0 1259 1400.0 1400Q1259.0 1117 1259.0 693L1223.0 658Q1153.0 905 1153.0 1082Z" transform="matrix(0.009268 0 0 -0.009268 42.53 390.31)" fill="#15130f"/><path d="M56.0 700 567.0 1430 833.0 968 1150.0 1420 1416.0 959 1733.0 1410 2033.0 891 1910.0 704 1662.0 1134 1345.0 682 1078.0 1143 762.0 692 495.0 1153 179.0 700ZM50.0 0 567.0 738 833.0 276 1150.0 728 1416.0 267 1733.0 718 2033.0 199 1910.0 12 1662.0 442 1345.0 -10 1078.0 451 762.0 0 495.0 461 173.0 0Z" transform="matrix(0.009217 0 0 -0.009217 241.15 390.41)" fill="#15130f"/><path d="M642.0 -21Q599.0 -21 567.0 -11.5Q535.0 -2 512.0 16.0Q489.0 34 470.0 58Q448.0 88 427.0 116.5Q406.0 145 384.5 179.5Q363.0 214 337.0 262Q324.0 285 304.0 296Q291.0 303 277.5 306.0Q264.0 309 255.0 309Q249.0 310 246.0 304.0Q243.0 298 243.0 289V103Q243.0 72 259.5 55.0Q276.0 38 316.0 29Q329.0 27 335.0 22.5Q341.0 18 341.0 10Q341.0 3 335.5 0.0Q330.0 -3 319.0 -3Q296.0 -3 272.0 -1.5Q248.0 0 225.5 1.0Q203.0 2 183.0 2Q161.0 2 137.5 1.0Q114.0 0 90.0 -2.0Q66.0 -4 42.0 -4Q33.0 -4 26.0 -0.5Q19.0 3 19.0 9Q19.0 24 44.0 29Q82.0 37 98.0 51.0Q114.0 65 114.0 98V540Q114.0 569 109.5 584.5Q105.0 600 92.0 608.0Q79.0 616 53.0 620Q39.0 622 33.0 628.0Q27.0 634 27.0 640Q27.0 647 33.5 650.5Q40.0 654 51.0 654Q81.0 654 99.0 653.0Q117.0 652 133.5 650.5Q150.0 649 173.0 649Q195.0 649 212.0 651.0Q229.0 653 250.0 655.0Q271.0 657 304.0 657Q419.0 657 480.0 617.0Q541.0 577 541.0 495Q541.0 450 522.0 418.5Q503.0 387 474.5 367.0Q446.0 347 416.0 336Q412.0 335 412.5 331.0Q413.0 327 416.0 324Q446.0 278 474.5 236.5Q503.0 195 534.5 158.0Q566.0 121 603.0 87Q634.0 58 666.5 52.5Q699.0 47 734.0 47Q749.0 47 749.0 32Q749.0 12 734.0 0.5Q719.0 -11 694.5 -16.0Q670.0 -21 642.0 -21ZM286.0 338Q327.0 338 354.5 356.5Q382.0 375 396.5 406.0Q411.0 437 411.0 475Q411.0 520 400.0 551.5Q389.0 583 362.5 600.5Q336.0 618 290.0 618Q264.0 618 254.5 599.5Q245.0 581 244.0 525Q243.0 502 243.0 464.5Q243.0 427 243.0 375Q243.0 353 254.5 345.5Q266.0 338 286.0 338ZM793.0 -5Q782.0 -5 775.5 -1.0Q769.0 3 769.0 9Q769.0 22 795.0 28Q831.0 37 846.5 50.5Q862.0 64 862.0 97V550Q862.0 584 848.5 598.0Q835.0 612 798.0 620Q784.0 623 778.0 628.5Q772.0 634 772.0 640Q772.0 647 778.5 650.5Q785.0 654 796.0 654Q825.0 654 851.5 653.0Q878.0 652 903.0 651.0Q928.0 650 955.0 650Q1001.0 650 1052.5 651.0Q1104.0 652 1145.0 652Q1178.0 653 1199.5 655.0Q1221.0 657 1225.0 657Q1232.0 657 1239.5 654.0Q1247.0 651 1248.0 642Q1252.0 609 1258.0 577.0Q1264.0 545 1264.0 521Q1264.0 512 1259.5 507.5Q1255.0 503 1250.0 503Q1245.0 503 1241.0 506.5Q1237.0 510 1234.0 517Q1226.0 540 1219.0 557.0Q1212.0 574 1203.0 583Q1190.0 597 1173.0 605.0Q1156.0 613 1132.0 613H1039.0Q1021.0 613 1006.0 602.5Q991.0 592 991.0 573V377Q991.0 366 997.5 360.0Q1004.0 354 1013.0 354H1105.0Q1132.0 354 1143.5 369.0Q1155.0 384 1163.0 410Q1170.0 430 1182.0 430Q1187.0 430 1191.0 424.5Q1195.0 419 1195.0 410Q1194.0 400 1193.0 386.0Q1192.0 372 1191.5 358.0Q1191.0 344 1191.0 333Q1191.0 321 1191.5 306.0Q1192.0 291 1192.5 276.5Q1193.0 262 1194.0 252Q1195.0 241 1192.5 235.0Q1190.0 229 1184.0 229Q1168.0 229 1161.0 257Q1153.0 285 1142.0 299.0Q1131.0 313 1112.0 313H1018.0Q1005.0 313 998.0 308.0Q991.0 303 991.0 289V99Q991.0 66 1005.0 53.0Q1019.0 40 1048.0 40H1130.0Q1155.0 40 1175.5 45.0Q1196.0 50 1211.0 61Q1228.0 73 1241.5 93.5Q1255.0 114 1268.0 139Q1272.0 147 1276.0 149.5Q1280.0 152 1286.0 152Q1291.0 151 1293.5 146.0Q1296.0 141 1296.0 135Q1296.0 121 1291.0 99.0Q1286.0 77 1278.5 53.5Q1271.0 30 1265.0 10Q1262.0 3 1257.0 -0.5Q1252.0 -4 1245.0 -4Q1221.0 -4 1183.5 -3.5Q1146.0 -3 1102.0 -2.0Q1058.0 -1 1012.0 -0.5Q966.0 0 924.0 0Q903.0 0 881.5 -1.0Q860.0 -2 838.0 -3.5Q816.0 -5 793.0 -5ZM1356.0 -5Q1345.0 -5 1338.5 -1.0Q1332.0 3 1332.0 9Q1332.0 22 1358.0 28Q1393.0 37 1409.5 50.5Q1426.0 64 1426.0 97V550Q1426.0 584 1412.5 599.0Q1399.0 614 1363.0 620Q1349.0 622 1343.0 628.0Q1337.0 634 1337.0 640Q1337.0 647 1343.5 650.5Q1350.0 654 1361.0 654Q1391.0 654 1410.0 653.0Q1429.0 652 1446.0 650.5Q1463.0 649 1486.0 649Q1508.0 649 1525.5 651.0Q1543.0 653 1564.0 655.0Q1585.0 657 1618.0 657Q1736.0 657 1796.5 623.5Q1857.0 590 1857.0 508Q1857.0 476 1843.5 449.0Q1830.0 422 1812.0 407Q1796.0 392 1780.0 383.0Q1764.0 374 1741.0 367Q1737.0 366 1737.0 362.0Q1737.0 358 1741.0 357Q1766.0 351 1792.5 341.0Q1819.0 331 1842.5 313.0Q1866.0 295 1880.5 266.5Q1895.0 238 1895.0 194Q1895.0 138 1877.5 105.5Q1860.0 73 1835.5 56.0Q1811.0 39 1790.0 28Q1758.0 12 1716.5 4.0Q1675.0 -4 1617.0 -4Q1590.0 -4 1559.0 -2.0Q1528.0 0 1494.0 0Q1471.0 0 1448.5 -1.0Q1426.0 -2 1403.0 -3.5Q1380.0 -5 1356.0 -5ZM1622.0 46Q1657.0 46 1687.0 65.0Q1717.0 84 1735.0 116.0Q1753.0 148 1753.0 187Q1753.0 224 1743.0 247.5Q1733.0 271 1719.5 285.5Q1706.0 300 1695.0 307Q1685.0 314 1662.5 322.0Q1640.0 330 1605.0 330Q1583.0 330 1569.0 320.0Q1555.0 310 1555.0 297V112Q1555.0 77 1572.5 61.5Q1590.0 46 1622.0 46ZM1597.0 369Q1622.0 369 1646.0 375.0Q1670.0 381 1694.0 397Q1703.0 404 1716.5 426.0Q1730.0 448 1730.0 490Q1730.0 527 1719.5 556.0Q1709.0 585 1683.5 601.5Q1658.0 618 1613.0 618Q1580.0 618 1567.5 607.0Q1555.0 596 1555.0 574V405Q1555.0 384 1570.0 376.5Q1585.0 369 1597.0 369ZM1977.0 -5Q1966.0 -5 1959.5 -1.0Q1953.0 3 1953.0 9Q1953.0 22 1979.0 28Q2015.0 37 2030.5 50.5Q2046.0 64 2046.0 97V550Q2046.0 584 2032.5 598.0Q2019.0 612 1982.0 620Q1968.0 623 1962.0 628.5Q1956.0 634 1956.0 640Q1956.0 647 1962.5 650.5Q1969.0 654 1980.0 654Q2009.0 654 2035.5 653.0Q2062.0 652 2087.0 651.0Q2112.0 650 2139.0 650Q2185.0 650 2236.5 651.0Q2288.0 652 2329.0 652Q2362.0 653 2383.5 655.0Q2405.0 657 2409.0 657Q2416.0 657 2423.5 654.0Q2431.0 651 2432.0 642Q2436.0 609 2442.0 577.0Q2448.0 545 2448.0 521Q2448.0 512 2443.5 507.5Q2439.0 503 2434.0 503Q2429.0 503 2425.0 506.5Q2421.0 510 2418.0 517Q2410.0 540 2403.0 557.0Q2396.0 574 2387.0 583Q2374.0 597 2357.0 605.0Q2340.0 613 2316.0 613H2223.0Q2205.0 613 2190.0 602.5Q2175.0 592 2175.0 573V377Q2175.0 366 2181.5 360.0Q2188.0 354 2197.0 354H2289.0Q2316.0 354 2327.5 369.0Q2339.0 384 2347.0 410Q2354.0 430 2366.0 430Q2371.0 430 2375.0 424.5Q2379.0 419 2379.0 410Q2378.0 400 2377.0 386.0Q2376.0 372 2375.5 358.0Q2375.0 344 2375.0 333Q2375.0 321 2375.5 306.0Q2376.0 291 2376.5 276.5Q2377.0 262 2378.0 252Q2379.0 241 2376.5 235.0Q2374.0 229 2368.0 229Q2352.0 229 2345.0 257Q2337.0 285 2326.0 299.0Q2315.0 313 2296.0 313H2202.0Q2189.0 313 2182.0 308.0Q2175.0 303 2175.0 289V99Q2175.0 66 2189.0 53.0Q2203.0 40 2232.0 40H2314.0Q2339.0 40 2359.5 45.0Q2380.0 50 2395.0 61Q2412.0 73 2425.5 93.5Q2439.0 114 2452.0 139Q2456.0 147 2460.0 149.5Q2464.0 152 2470.0 152Q2475.0 151 2477.5 146.0Q2480.0 141 2480.0 135Q2480.0 121 2475.0 99.0Q2470.0 77 2462.5 53.5Q2455.0 30 2449.0 10Q2446.0 3 2441.0 -0.5Q2436.0 -4 2429.0 -4Q2405.0 -4 2367.5 -3.5Q2330.0 -3 2286.0 -2.0Q2242.0 -1 2196.0 -0.5Q2150.0 0 2108.0 0Q2087.0 0 2065.5 -1.0Q2044.0 -2 2022.0 -3.5Q2000.0 -5 1977.0 -5ZM2545.0 -5Q2534.0 -5 2528.0 -0.5Q2522.0 4 2522.0 9Q2522.0 17 2529.0 21.5Q2536.0 26 2543.0 28Q2579.0 37 2596.0 50.5Q2613.0 64 2613.0 95V555Q2613.0 578 2607.5 590.0Q2602.0 602 2588.5 608.5Q2575.0 615 2549.0 620Q2523.0 625 2523.0 641Q2523.0 647 2530.0 650.5Q2537.0 654 2546.0 654Q2571.0 654 2593.5 653.0Q2616.0 652 2637.0 651.0Q2658.0 650 2679.0 650Q2702.0 650 2725.5 651.0Q2749.0 652 2773.5 653.0Q2798.0 654 2821.0 654Q2831.0 654 2837.0 650.5Q2843.0 647 2843.0 640Q2843.0 632 2836.5 627.5Q2830.0 623 2818.0 620Q2779.0 610 2760.5 598.5Q2742.0 587 2742.0 558V101Q2742.0 72 2755.0 58.5Q2768.0 45 2804.0 45H2913.0Q2936.0 45 2955.0 53.0Q2974.0 61 2986.0 73Q3004.0 89 3016.0 107.0Q3028.0 125 3039.0 149Q3046.0 164 3052.0 172.0Q3058.0 180 3064.0 180Q3071.0 180 3074.0 173.5Q3077.0 167 3077.0 160Q3077.0 159 3076.0 154.0Q3075.0 149 3075.0 146Q3067.0 117 3061.5 96.0Q3056.0 75 3052.5 55.5Q3049.0 36 3046.0 13Q3045.0 6 3042.0 0.5Q3039.0 -5 3030.0 -5Q3000.0 -5 2958.0 -4.0Q2916.0 -3 2869.0 -2.5Q2822.0 -2 2774.5 -1.0Q2727.0 0 2685.0 0Q2663.0 0 2634.5 -1.0Q2606.0 -2 2581.0 -3.5Q2556.0 -5 2545.0 -5ZM3130.0 -5Q3119.0 -5 3113.0 -0.5Q3107.0 4 3107.0 9Q3107.0 17 3114.0 21.5Q3121.0 26 3128.0 28Q3164.0 37 3181.0 50.5Q3198.0 64 3198.0 95V555Q3198.0 578 3192.5 590.0Q3187.0 602 3173.5 608.5Q3160.0 615 3134.0 620Q3108.0 625 3108.0 641Q3108.0 647 3115.0 650.5Q3122.0 654 3131.0 654Q3156.0 654 3178.5 653.0Q3201.0 652 3222.0 651.0Q3243.0 650 3264.0 650Q3287.0 650 3310.5 651.0Q3334.0 652 3358.5 653.0Q3383.0 654 3406.0 654Q3416.0 654 3422.0 650.5Q3428.0 647 3428.0 640Q3428.0 632 3421.5 627.5Q3415.0 623 3403.0 620Q3364.0 610 3345.5 598.5Q3327.0 587 3327.0 558V101Q3327.0 72 3340.0 58.5Q3353.0 45 3389.0 45H3498.0Q3521.0 45 3540.0 53.0Q3559.0 61 3571.0 73Q3589.0 89 3601.0 107.0Q3613.0 125 3624.0 149Q3631.0 164 3637.0 172.0Q3643.0 180 3649.0 180Q3656.0 180 3659.0 173.5Q3662.0 167 3662.0 160Q3662.0 159 3661.0 154.0Q3660.0 149 3660.0 146Q3652.0 117 3646.5 96.0Q3641.0 75 3637.5 55.5Q3634.0 36 3631.0 13Q3630.0 6 3627.0 0.5Q3624.0 -5 3615.0 -5Q3585.0 -5 3543.0 -4.0Q3501.0 -3 3454.0 -2.5Q3407.0 -2 3359.5 -1.0Q3312.0 0 3270.0 0Q3248.0 0 3219.5 -1.0Q3191.0 -2 3166.0 -3.5Q3141.0 -5 3130.0 -5ZM3709.0 -4Q3700.0 -4 3693.0 -0.5Q3686.0 3 3686.0 9Q3686.0 24 3711.0 29Q3749.0 37 3766.0 51.0Q3783.0 65 3783.0 97V551Q3783.0 584 3769.0 598.0Q3755.0 612 3716.0 620Q3691.0 625 3691.0 641Q3691.0 647 3698.0 650.5Q3705.0 654 3714.0 654Q3738.0 654 3761.0 653.0Q3784.0 652 3805.5 651.0Q3827.0 650 3849.0 650Q3870.0 650 3891.5 651.0Q3913.0 652 3936.0 653.0Q3959.0 654 3983.0 654Q3993.0 654 3999.0 650.5Q4005.0 647 4005.0 640Q4005.0 632 3998.5 627.5Q3992.0 623 3980.0 620Q3940.0 610 3926.0 596.0Q3912.0 582 3912.0 550V98Q3912.0 67 3928.5 53.0Q3945.0 39 3983.0 29Q3996.0 26 4002.5 22.0Q4009.0 18 4009.0 10Q4009.0 3 4003.0 0.0Q3997.0 -3 3987.0 -3Q3963.0 -3 3939.0 -2.0Q3915.0 -1 3892.5 0.0Q3870.0 1 3849.0 1Q3827.0 1 3804.0 0.0Q3781.0 -1 3757.0 -2.5Q3733.0 -4 3709.0 -4ZM4401.0 -14Q4333.0 -14 4271.0 9.5Q4209.0 33 4161.5 76.5Q4114.0 120 4086.5 180.5Q4059.0 241 4059.0 315Q4059.0 383 4081.5 445.5Q4104.0 508 4148.5 557.0Q4193.0 606 4258.5 635.0Q4324.0 664 4410.0 664Q4478.0 664 4539.5 640.5Q4601.0 617 4649.0 573.5Q4697.0 530 4724.5 469.5Q4752.0 409 4752.0 335Q4752.0 268 4729.5 205.0Q4707.0 142 4662.5 93.0Q4618.0 44 4552.5 15.0Q4487.0 -14 4401.0 -14ZM4418.0 30Q4481.0 30 4523.5 62.0Q4566.0 94 4587.5 151.5Q4609.0 209 4609.0 284Q4609.0 348 4596.0 408.0Q4583.0 468 4556.0 515.5Q4529.0 563 4488.5 591.0Q4448.0 619 4392.0 619Q4329.0 619 4286.5 587.0Q4244.0 555 4223.0 498.0Q4202.0 441 4202.0 366Q4202.0 302 4215.0 242.0Q4228.0 182 4254.5 134.0Q4281.0 86 4321.5 58.0Q4362.0 30 4418.0 30ZM5462.0 -18Q5450.0 -18 5422.0 -3.0Q5394.0 12 5365.0 49Q5348.0 68 5323.5 95.5Q5299.0 123 5269.5 156.0Q5240.0 189 5208.0 225.0Q5176.0 261 5144.5 297.0Q5113.0 333 5083.0 366.0Q5053.0 399 5028.0 426.5Q5003.0 454 4986.0 474Q4982.0 479 4977.5 482.5Q4973.0 486 4970.0 486Q4966.0 486 4964.0 479.0Q4962.0 472 4962.0 466Q4962.0 420 4962.5 357.0Q4963.0 294 4963.0 229.0Q4963.0 164 4963.0 109Q4963.0 78 4981.0 58.0Q4999.0 38 5038.0 29Q5050.0 27 5058.5 22.5Q5067.0 18 5067.0 10Q5067.0 3 5059.0 0.0Q5051.0 -3 5041.0 -3Q5014.0 -3 4998.0 -2.0Q4982.0 -1 4969.0 0.0Q4956.0 1 4936.0 1Q4915.0 1 4898.5 0.0Q4882.0 -1 4869.0 -2.5Q4856.0 -4 4844.0 -4Q4834.0 -4 4826.0 -0.5Q4818.0 3 4818.0 9Q4818.0 17 4825.5 21.5Q4833.0 26 4846.0 30Q4872.0 38 4884.5 59.5Q4897.0 81 4900.0 111Q4904.0 149 4908.0 210.5Q4912.0 272 4915.5 349.0Q4919.0 426 4919.0 508Q4919.0 560 4892.5 583.0Q4866.0 606 4826.0 620Q4819.0 622 4808.0 628.0Q4797.0 634 4797.0 643Q4797.0 652 4805.0 655.0Q4813.0 658 4822.0 658Q4843.0 658 4864.0 657.0Q4885.0 656 4906.5 655.5Q4928.0 655 4951.5 654.0Q4975.0 653 5002.0 653Q5011.0 653 5015.5 649.5Q5020.0 646 5024.0 640Q5040.0 621 5065.0 592.5Q5090.0 564 5119.5 529.5Q5149.0 495 5181.5 457.0Q5214.0 419 5246.5 381.0Q5279.0 343 5309.0 308.5Q5339.0 274 5363.5 245.5Q5388.0 217 5404.0 199Q5408.0 195 5413.5 189.0Q5419.0 183 5423.0 183Q5431.0 183 5432.0 200Q5432.0 226 5432.0 266.5Q5432.0 307 5432.5 356.5Q5433.0 406 5432.5 458.0Q5432.0 510 5431.0 558Q5430.0 583 5410.5 597.5Q5391.0 612 5362.0 618Q5350.0 621 5339.5 625.5Q5329.0 630 5329.0 639Q5329.0 646 5339.5 649.0Q5350.0 652 5359.0 652Q5379.0 652 5392.5 652.0Q5406.0 652 5418.0 651.5Q5430.0 651 5443.0 651Q5465.0 651 5479.0 651.5Q5493.0 652 5509.5 653.0Q5526.0 654 5553.0 654Q5565.0 654 5572.5 650.5Q5580.0 647 5580.0 641Q5580.0 626 5551.0 620Q5516.0 613 5501.5 601.0Q5487.0 589 5486.0 561Q5486.0 536 5485.5 497.0Q5485.0 458 5484.0 412.0Q5483.0 366 5481.5 318.0Q5480.0 270 5479.5 224.0Q5479.0 178 5479.0 141Q5479.0 117 5481.0 92.0Q5483.0 67 5485.5 47.5Q5488.0 28 5488.0 20Q5488.0 -2 5481.0 -10.0Q5474.0 -18 5462.0 -18Z" transform="matrix(0.022120 0 0 -0.022120 88.08 390.98)" fill="#15130f"/></svg>