<svg xmlns="http://www.w3.org/2000/svg" viewBox="0 0 300 446"><rect width="300" height="446" fill="#f4ecd8"/><rect x="20.0" y="25.5" width="260" height="395" rx="20.3" fill="#f4ecd8" stroke="#15130f" stroke-width="1.5"/><rect x="36.9" y="42.4" width="226.2" height="354.7" fill="none" stroke="#15130f" stroke-width="0.7"/><g fill="none" stroke="#15130f" stroke-width="0.65" stroke-opacity="0.72" stroke-linecap="round" stroke-linejoin="round"><line x1="150.0" y1="42.4" x2="150.0" y2="210.0"/><line x1="36.9" y1="210.0" x2="263.1" y2="210.0"/></g><path d="M36.9,370.6 H263.1 V397.1 H36.9 Z" fill="#e59680"/><g fill="none" stroke="#15130f" stroke-width="0.8"><line x1="36.9" y1="370.6" x2="263.1" y2="370.6"/><line x1="61.6" y1="370.6" x2="61.6" y2="397.1"/><line x1="238.4" y1="370.6" x2="238.4" y2="397.1"/></g><rect x="141.4" y="34.4" width="17.2" height="19.0" fill="#e59680" stroke="#15130f" stroke-width="0.8"/><path d="M766.0 262V-54Q764.0 -88 718.0 -88L649.0 -99Q619.0 -104 598.0 -110Q582.0 -115 572.0 -116Q548.0 -118 548.0 -92Q548.0 -82 552.0 -63Q563.0 -18 563.0 41V262L564.0 290L552.0 316Q541.0 325 493.0 325H98.0Q53.0 325 39.5 332.5Q26.0 340 26.0 366Q26.0 415 264.0 747Q442.0 995 584.5 1169.0Q727.0 1343 752.0 1343Q768.0 1343 768.0 1317L767.0 1232L766.0 1143V549L771.0 522Q778.0 506 822.0 506Q899.0 506 922.0 572Q928.0 590 941.0 590Q967.0 590 967.0 567Q967.0 557 965.0 547Q961.0 528 956.0 462Q950.0 372 930.0 347.5Q910.0 323 845.0 323H812.0Q781.0 323 773.5 313.0Q766.0 303 766.0 262ZM563.0 570V743L561.0 856L563.0 958L562.0 984Q562.0 1001 553.0 1001Q544.0 1001 523.0 973L489.0 928L381.0 788Q316.0 705 230.0 573Q216.0 551 207.0 540Q196.0 525 196.0 515Q197.0 499 236.0 499L268.0 498H528.0Q564.0 498 564.0 546Z" transform="matrix(0.006858 0 0 -0.006858 146.59 48.88)" fill="#15130f"/><path d="M250.0 450Q250.0 349 278.0 264.5Q306.0 180 358.5 135.0Q411.0 90 467.0 90Q524.0 90 576.5 135.0Q629.0 180 657.0 264.5Q685.0 349 685.0 450Q685.0 541 657.0 625.5Q629.0 710 576.5 755.0Q524.0 800 467.0 800Q411.0 800 358.5 755.0Q306.0 710 278.0 625.5Q250.0 541 250.0 450ZM800.0 729Q817.0 704 831.0 676Q885.0 567 885.0 450Q885.0 323 831.0 214.5Q777.0 106 676.5 48.0Q576.0 -10 467.0 -10Q359.0 -10 258.5 48.0Q158.0 106 104.0 214.5Q50.0 323 50.0 450Q50.0 567 104.0 675.5Q158.0 784 258.5 842.0Q359.0 900 467.0 900Q576.0 900 677.0 842Q706.0 825 732.0 803L1082.0 1153Q905.0 1153 658.0 1223L693.0 1259Q1117.0 1259 1400.0 1400Q1259.0 1117 1259.0 693L1223.0 658Q1153.0 905 1153.0 1082Z" transform="matrix(0.009268 0 0 -0.009268 42.53 390.31)" fill="#15130f"/><path d="M250.0 800Q250.0 735 271.5 674.5Q293.0 614 333.5 582.0Q374.0 550 417.0 550Q461.0 550 501.5 582.0Q542.0 614 563.5 674.5Q585.0 735 585.0 800Q585.0 865 563.5 925.5Q542.0 986 501.5 1018.0Q461.0 1050 417.0 1050Q374.0 1050 333.5 1018.0Q293.0 986 271.5 925.5Q250.0 865 250.0 800ZM1744.0 1050Q1700.0 1100 1637.0 1148Q1423.0 1310 1050.0 1310Q671.0 1310 460.0 1148Q533.0 1140 602.0 1105Q690.0 1060 737.5 975.5Q785.0 891 785.0 800Q785.0 709 737.5 624.5Q690.0 540 601.5 495.0Q513.0 450 417.0 450Q322.0 450 233.5 495.0Q145.0 540 97.5 624.5Q50.0 709 50.0 800Q50.0 1058 324.5 1234.0Q599.0 1410 1050.0 1410Q1501.0 1410 1776.0 1234Q1905.0 1151 1973.0 1050ZM1850.0 600Q1850.0 665 1828.5 725.5Q1807.0 786 1766.5 818.0Q1726.0 850 1683.0 850Q1639.0 850 1598.5 818.0Q1558.0 786 1536.5 725.5Q1515.0 665 1515.0 600Q1515.0 535 1536.5 474.5Q1558.0 414 1598.5 382.0Q1639.0 350 1683.0 350Q1726.0 350 1766.5 382.0Q1807.0 414 1828.5 474.5Q1850.0 535 1850.0 600ZM356.0 350Q400.0 300 464.0 252Q677.0 90 1050.0 90Q1429.0 90 1640.0 252Q1567.0 260 1499.0 295Q1410.0 340 1362.5 424.5Q1315.0 509 1315.0 600Q1315.0 691 1362.5 775.5Q1410.0 860 1498.5 905.0Q1587.0 950 1683.0 950Q1778.0 950 1866.5 905.0Q1955.0 860 2002.5 775.5Q2050.0 691 2050.0 600Q2050.0 342 1775.5 166.0Q1501.0 -10 1050.0 -10Q599.0 -10 325.0 166Q195.0 249 127.0 350Z" transform="matrix(0.009139 0 0 -0.009139 241.15 390.26)" fill="#15130f"/><path d="M734.0 -248Q670.0 -248 611.0 -227.5Q552.0 -207 502.0 -171Q464.0 -144 432.0 -120.5Q400.0 -97 360.0 -63Q335.0 -41 306.5 -21.5Q278.0 -2 246.0 11Q211.0 25 173.5 49.5Q136.0 74 104.5 110.5Q73.0 147 53.5 197.5Q34.0 248 34.0 315Q34.0 383 56.5 445.5Q79.0 508 123.5 557.0Q168.0 606 233.5 635.0Q299.0 664 385.0 664Q453.0 664 514.5 640.5Q576.0 617 624.0 573.5Q672.0 530 699.5 469.5Q727.0 409 727.0 335Q727.0 264 702.0 198.5Q677.0 133 628.0 83.0Q579.0 33 506.0 8Q496.0 5 496.0 -1Q496.0 -6 501.0 -11Q526.0 -36 552.0 -59.0Q578.0 -82 615.0 -111Q664.0 -150 707.0 -166.0Q750.0 -182 797.0 -182Q810.0 -182 821.5 -180.5Q833.0 -179 839.0 -177Q845.0 -176 850.0 -175.0Q855.0 -174 860.0 -174Q882.0 -174 882.0 -191Q882.0 -200 878.0 -205.5Q874.0 -211 863.0 -218Q840.0 -233 806.5 -240.5Q773.0 -248 734.0 -248ZM393.0 31Q488.0 31 536.0 99.5Q584.0 168 584.0 284Q584.0 350 571.0 409.5Q558.0 469 531.0 516.0Q504.0 563 463.5 590.0Q423.0 617 367.0 617Q272.0 617 224.5 549.0Q177.0 481 177.0 366Q177.0 300 190.0 240.5Q203.0 181 229.5 133.5Q256.0 86 296.5 58.5Q337.0 31 393.0 31ZM1134.0 -14Q1041.0 -14 979.0 19.0Q917.0 52 886.0 111.0Q855.0 170 855.0 249V541Q855.0 571 841.5 592.0Q828.0 613 806.0 619Q776.0 627 776.0 641Q776.0 647 784.0 650.5Q792.0 654 804.0 654Q832.0 654 862.5 652.0Q893.0 650 922.0 650Q948.0 650 981.5 651.5Q1015.0 653 1039.0 653Q1051.0 653 1058.5 650.0Q1066.0 647 1066.0 640Q1066.0 630 1053.5 625.5Q1041.0 621 1024.0 614Q1010.0 608 997.5 589.5Q985.0 571 985.0 539V270Q985.0 198 1009.0 151.5Q1033.0 105 1073.0 83.0Q1113.0 61 1163.0 61Q1258.0 61 1304.0 121.0Q1350.0 181 1350.0 293Q1350.0 318 1350.0 352.0Q1350.0 386 1349.5 422.5Q1349.0 459 1348.0 492Q1348.0 531 1342.5 555.5Q1337.0 580 1327.0 594.5Q1317.0 609 1299.0 617Q1289.0 621 1275.5 626.0Q1262.0 631 1262.0 639Q1262.0 647 1270.0 650.0Q1278.0 653 1291.0 653Q1323.0 653 1340.5 652.0Q1358.0 651 1381.0 651Q1398.0 651 1411.5 651.5Q1425.0 652 1438.0 653.0Q1451.0 654 1468.0 654Q1480.0 654 1487.0 651.5Q1494.0 649 1494.0 641Q1494.0 627 1465.0 620Q1434.0 612 1422.0 591.0Q1410.0 570 1408.0 536Q1404.0 457 1402.5 391.0Q1401.0 325 1400.0 258Q1399.0 178 1363.5 116.5Q1328.0 55 1268.0 20.5Q1208.0 -14 1134.0 -14ZM1527.0 -5Q1515.0 -5 1507.0 -1.5Q1499.0 2 1499.0 10Q1499.0 19 1506.5 24.0Q1514.0 29 1526.0 33Q1555.0 41 1576.5 57.5Q1598.0 74 1611.0 103Q1636.0 162 1659.0 216.5Q1682.0 271 1703.0 325.0Q1724.0 379 1745.5 435.0Q1767.0 491 1789.0 553Q1800.0 584 1804.0 601.0Q1808.0 618 1811.0 626Q1826.0 630 1839.0 634.0Q1852.0 638 1868.0 644Q1882.0 651 1892.0 662.0Q1902.0 673 1907.0 679Q1910.0 681 1913.0 681.5Q1916.0 682 1919.0 677Q1922.0 671 1924.0 665.0Q1926.0 659 1928.0 652Q1950.0 581 1973.5 508.5Q1997.0 436 2020.0 365.5Q2043.0 295 2064.5 230.5Q2086.0 166 2104.0 112Q2113.0 85 2126.5 69.0Q2140.0 53 2156.5 44.5Q2173.0 36 2193.0 31Q2206.0 28 2213.0 23.0Q2220.0 18 2220.0 9Q2220.0 3 2213.5 0.0Q2207.0 -3 2197.0 -3Q2179.0 -3 2151.5 -2.0Q2124.0 -1 2095.0 0.5Q2066.0 2 2043.0 2Q2023.0 2 1998.5 1.0Q1974.0 0 1949.5 -1.0Q1925.0 -2 1908.0 -2Q1898.0 -2 1890.5 1.5Q1883.0 5 1883.0 12Q1883.0 20 1891.0 25.5Q1899.0 31 1910.0 33Q1946.0 39 1962.0 51.5Q1978.0 64 1974.0 88Q1971.0 105 1965.0 128.5Q1959.0 152 1952.5 177.5Q1946.0 203 1939.0 224Q1937.0 232 1933.0 235.5Q1929.0 239 1918.0 239H1738.0Q1731.0 239 1727.0 234.5Q1723.0 230 1721.0 221Q1717.0 208 1711.5 191.5Q1706.0 175 1700.5 157.5Q1695.0 140 1690.5 125.0Q1686.0 110 1684.0 99Q1679.0 72 1693.5 56.5Q1708.0 41 1744.0 32Q1771.0 25 1771.0 11Q1771.0 5 1764.5 1.5Q1758.0 -2 1746.0 -2Q1723.0 -2 1698.0 -0.5Q1673.0 1 1643.0 1Q1613.0 1 1584.5 -2.0Q1556.0 -5 1527.0 -5ZM1765.0 285H1904.0Q1918.0 285 1918.0 291Q1918.0 294 1917.5 296.0Q1917.0 298 1916.0 302L1846.0 533Q1842.0 547 1839.0 547Q1837.0 547 1832.0 534L1748.0 302Q1746.0 297 1746.0 294Q1746.0 289 1751.5 287.0Q1757.0 285 1765.0 285ZM2856.0 -21Q2813.0 -21 2781.0 -11.5Q2749.0 -2 2726.0 16.0Q2703.0 34 2684.0 58Q2662.0 88 2641.0 116.5Q2620.0 145 2598.5 179.5Q2577.0 214 2551.0 262Q2538.0 285 2518.0 296Q2505.0 303 2491.5 306.0Q2478.0 309 2469.0 309Q2463.0 310 2460.0 304.0Q2457.0 298 2457.0 289V103Q2457.0 72 2473.5 55.0Q2490.0 38 2530.0 29Q2543.0 27 2549.0 22.5Q2555.0 18 2555.0 10Q2555.0 3 2549.5 0.0Q2544.0 -3 2533.0 -3Q2510.0 -3 2486.0 -1.5Q2462.0 0 2439.5 1.0Q2417.0 2 2397.0 2Q2375.0 2 2351.5 1.0Q2328.0 0 2304.0 -2.0Q2280.0 -4 2256.0 -4Q2247.0 -4 2240.0 -0.5Q2233.0 3 2233.0 9Q2233.0 24 2258.0 29Q2296.0 37 2312.0 51.0Q2328.0 65 2328.0 98V540Q2328.0 569 2323.5 584.5Q2319.0 600 2306.0 608.0Q2293.0 616 2267.0 620Q2253.0 622 2247.0 628.0Q2241.0 634 2241.0 640Q2241.0 647 2247.5 650.5Q2254.0 654 2265.0 654Q2295.0 654 2313.0 653.0Q2331.0 652 2347.5 650.5Q2364.0 649 2387.0 649Q2409.0 649 2426.0 651.0Q2443.0 653 2464.0 655.0Q2485.0 657 2518.0 657Q2633.0 657 2694.0 617.0Q2755.0 577 2755.0 495Q2755.0 450 2736.0 418.5Q2717.0 387 2688.5 367.0Q2660.0 347 2630.0 336Q2626.0 335 2626.5 331.0Q2627.0 327 2630.0 324Q2660.0 278 2688.5 236.5Q2717.0 195 2748.5 158.0Q2780.0 121 2817.0 87Q2848.0 58 2880.5 52.5Q2913.0 47 2948.0 47Q2963.0 47 2963.0 32Q2963.0 12 2948.0 0.5Q2933.0 -11 2908.5 -16.0Q2884.0 -21 2856.0 -21ZM2500.0 338Q2541.0 338 2568.5 356.5Q2596.0 375 2610.5 406.0Q2625.0 437 2625.0 475Q2625.0 520 2614.0 551.5Q2603.0 583 2576.5 600.5Q2550.0 618 2504.0 618Q2478.0 618 2468.5 599.5Q2459.0 581 2458.0 525Q2457.0 502 2457.0 464.5Q2457.0 427 2457.0 375Q2457.0 353 2468.5 345.5Q2480.0 338 2500.0 338ZM3600.0 -21Q3557.0 -21 3525.0 -11.5Q3493.0 -2 3470.0 16.0Q3447.0 34 3428.0 58Q3406.0 88 3385.0 116.5Q3364.0 145 3342.5 179.5Q3321.0 214 3295.0 262Q3282.0 285 3262.0 296Q3249.0 303 3235.5 306.0Q3222.0 309 3213.0 309Q3207.0 310 3204.0 304.0Q3201.0 298 3201.0 289V103Q3201.0 72 3217.5 55.0Q3234.0 38 3274.0 29Q3287.0 27 3293.0 22.5Q3299.0 18 3299.0 10Q3299.0 3 3293.5 0.0Q3288.0 -3 3277.0 -3Q3254.0 -3 3230.0 -1.5Q3206.0 0 3183.5 1.0Q3161.0 2 3141.0 2Q3119.0 2 3095.5 1.0Q3072.0 0 3048.0 -2.0Q3024.0 -4 3000.0 -4Q2991.0 -4 2984.0 -0.5Q2977.0 3 2977.0 9Q2977.0 24 3002.0 29Q3040.0 37 3056.0 51.0Q3072.0 65 3072.0 98V540Q3072.0 569 3067.5 584.5Q3063.0 600 3050.0 608.0Q3037.0 616 3011.0 620Q2997.0 622 2991.0 628.0Q2985.0 634 2985.0 640Q2985.0 647 2991.5 650.5Q2998.0 654 3009.0 654Q3039.0 654 3057.0 653.0Q3075.0 652 3091.5 650.5Q3108.0 649 3131.0 649Q3153.0 649 3170.0 651.0Q3187.0 653 3208.0 655.0Q3229.0 657 3262.0 657Q3377.0 657 3438.0 617.0Q3499.0 577 3499.0 495Q3499.0 450 3480.0 418.5Q3461.0 387 3432.5 367.0Q3404.0 347 3374.0 336Q3370.0 335 3370.5 331.0Q3371.0 327 3374.0 324Q3404.0 278 3432.5 236.5Q3461.0 195 3492.5 158.0Q3524.0 121 3561.0 87Q3592.0 58 3624.5 52.5Q3657.0 47 3692.0 47Q3707.0 47 3707.0 32Q3707.0 12 3692.0 0.5Q3677.0 -11 3652.5 -16.0Q3628.0 -21 3600.0 -21ZM3244.0 338Q3285.0 338 3312.5 356.5Q3340.0 375 3354.5 406.0Q3369.0 437 3369.0 475Q3369.0 520 3358.0 551.5Q3347.0 583 3320.5 600.5Q3294.0 618 3248.0 618Q3222.0 618 3212.5 599.5Q3203.0 581 3202.0 525Q3201.0 502 3201.0 464.5Q3201.0 427 3201.0 375Q3201.0 353 3212.5 345.5Q3224.0 338 3244.0 338ZM3751.0 -5Q3740.0 -5 3733.5 -1.0Q3727.0 3 3727.0 9Q3727.0 22 3753.0 28Q3789.0 37 3804.5 50.5Q3820.0 64 3820.0 97V550Q3820.0 584 3806.5 598.0Q3793.0 612 3756.0 620Q3742.0 623 3736.0 628.5Q3730.0 634 3730.0 640Q3730.0 647 3736.5 650.5Q3743.0 654 3754.0 654Q3783.0 654 3809.5 653.0Q3836.0 652 3861.0 651.0Q3886.0 650 3913.0 650Q3959.0 650 4010.5 651.0Q4062.0 652 4103.0 652Q4136.0 653 4157.5 655.0Q4179.0 657 4183.0 657Q4190.0 657 4197.5 654.0Q4205.0 651 4206.0 642Q4210.0 609 4216.0 577.0Q4222.0 545 4222.0 521Q4222.0 512 4217.5 507.5Q4213.0 503 4208.0 503Q4203.0 503 4199.0 506.5Q4195.0 510 4192.0 517Q4184.0 540 4177.0 557.0Q4170.0 574 4161.0 583Q4148.0 597 4131.0 605.0Q4114.0 613 4090.0 613H3997.0Q3979.0 613 3964.0 602.5Q3949.0 592 3949.0 573V377Q3949.0 366 3955.5 360.0Q3962.0 354 3971.0 354H4063.0Q4090.0 354 4101.5 369.0Q4113.0 384 4121.0 410Q4128.0 430 4140.0 430Q4145.0 430 4149.0 424.5Q4153.0 419 4153.0 410Q4152.0 400 4151.0 386.0Q4150.0 372 4149.5 358.0Q4149.0 344 4149.0 333Q4149.0 321 4149.5 306.0Q4150.0 291 4150.5 276.5Q4151.0 262 4152.0 252Q4153.0 241 4150.5 235.0Q4148.0 229 4142.0 229Q4126.0 229 4119.0 257Q4111.0 285 4100.0 299.0Q4089.0 313 4070.0 313H3976.0Q3963.0 313 3956.0 308.0Q3949.0 303 3949.0 289V99Q3949.0 66 3963.0 53.0Q3977.0 40 4006.0 40H4088.0Q4113.0 40 4133.5 45.0Q4154.0 50 4169.0 61Q4186.0 73 4199.5 93.5Q4213.0 114 4226.0 139Q4230.0 147 4234.0 149.5Q4238.0 152 4244.0 152Q4249.0 151 4251.5 146.0Q4254.0 141 4254.0 135Q4254.0 121 4249.0 99.0Q4244.0 77 4236.5 53.5Q4229.0 30 4223.0 10Q4220.0 3 4215.0 -0.5Q4210.0 -4 4203.0 -4Q4179.0 -4 4141.5 -3.5Q4104.0 -3 4060.0 -2.0Q4016.0 -1 3970.0 -0.5Q3924.0 0 3882.0 0Q3861.0 0 3839.5 -1.0Q3818.0 -2 3796.0 -3.5Q3774.0 -5 3751.0 -5ZM4319.0 -5Q4308.0 -5 4302.0 -0.5Q4296.0 4 4296.0 9Q4296.0 17 4303.0 21.5Q4310.0 26 4317.0 28Q4353.0 37 4370.0 50.5Q4387.0 64 4387.0 95V555Q4387.0 578 4381.5 590.0Q4376.0 602 4362.5 608.5Q4349.0 615 4323.0 620Q4297.0 625 4297.0 641Q4297.0 647 4304.0 650.5Q4311.0 654 4320.0 654Q4345.0 654 4367.5 653.0Q4390.0 652 4411.0 651.0Q4432.0 650 4453.0 650Q4476.0 650 4499.5 651.0Q4523.0 652 4547.5 653.0Q4572.0 654 4595.0 654Q4605.0 654 4611.0 650.5Q4617.0 647 4617.0 640Q4617.0 632 4610.5 627.5Q4604.0 623 4592.0 620Q4553.0 610 4534.5 598.5Q4516.0 587 4516.0 558V101Q4516.0 72 4529.0 58.5Q4542.0 45 4578.0 45H4687.0Q4710.0 45 4729.0 53.0Q4748.0 61 4760.0 73Q4778.0 89 4790.0 107.0Q4802.0 125 4813.0 149Q4820.0 164 4826.0 172.0Q4832.0 180 4838.0 180Q4845.0 180 4848.0 173.5Q4851.0 167 4851.0 160Q4851.0 159 4850.0 154.0Q4849.0 149 4849.0 146Q4841.0 117 4835.5 96.0Q4830.0 75 4826.5 55.5Q4823.0 36 4820.0 13Q4819.0 6 4816.0 0.5Q4813.0 -5 4804.0 -5Q4774.0 -5 4732.0 -4.0Q4690.0 -3 4643.0 -2.5Q4596.0 -2 4548.5 -1.0Q4501.0 0 4459.0 0Q4437.0 0 4408.5 -1.0Q4380.0 -2 4355.0 -3.5Q4330.0 -5 4319.0 -5Z" transform="matrix(0.022120 0 0 -0.022120 95.97 388.66)" fill="#15130f"/></svg>