<svg xmlns="http://www.w3.org/2000/svg" viewBox="0 0 300 446"><rect width="300" height="446" fill="#f4ecd8"/><rect x="20.0" y="25.5" width="260" height="395" rx="20.3" fill="#f4ecd8" stroke="#15130f" stroke-width="1.5"/><rect x="36.9" y="42.4" width="226.2" height="354.7" fill="none" stroke="#15130f" stroke-width="0.7"/><g fill="none" stroke="#15130f" stroke-width="0.65" stroke-opacity="0.72" stroke-linecap="round" stroke-linejoin="round"><line x1="150.0" y1="42.4" x2="150.0" y2="210.0"/><line x1="36.9" y1="210.0" x2="263.1" y2="210.0"/></g><path d="M36.9,370.6 H263.1 V397.1 H36.9 Z" fill="#e59680"/><g fill="none" stroke="#15130f" stroke-width="0.8"><line x1="36.9" y1="370.6" x2="263.1" y2="370.6"/><line x1="61.6" y1="370.6" x2="61.6" y2="397.1"/><line x1="238.4" y1="370.6" x2="238.4" y2="397.1"/></g><rect x="141.4" y="34.4" width="17.2" height="19.0" fill="#e59680" stroke="#15130f" stroke-width="0.8"/><path d="M649.0 1092V235L647.0 193L657.0 137Q686.0 59 825.0 52Q867.0 50 867.0 28Q867.0 -7 780.0 -7Q761.0 -7 652.0 2Q595.0 7 494.0 7Q394.0 7 322.0 -2Q293.0 -5 280.0 -5Q255.0 -5 255.0 20Q255.0 41 281.0 45Q384.0 61 415.0 92.0Q446.0 123 446.0 210L445.0 248V1010Q445.0 1115 363.0 1115Q331.0 1115 306.0 1104L281.0 1093Q270.0 1089 261.0 1089Q235.0 1089 235.0 1113Q235.0 1137 260.0 1150.0Q285.0 1163 362.0 1180Q506.0 1211 567.0 1267L614.0 1310Q625.0 1320 641.0 1320Q661.0 1320 661.0 1282Q661.0 1271 659.0 1243L651.0 1153Q649.0 1126 649.0 1092Z" transform="matrix(0.006858 0 0 -0.006858 146.22 49.18)" fill="#15130f"/><path d="M250.0 450Q250.0 349 278.0 264.5Q306.0 180 358.5 135.0Q411.0 90 467.0 90Q524.0 90 576.5 135.0Q629.0 180 657.0 264.5Q685.0 349 685.0 450Q685.0 541 657.0 625.5Q629.0 710 576.5 755.0Q524.0 800 467.0 800Q411.0 800 358.5 755.0Q306.0 710 278.0 625.5Q250.0 541 250.0 450ZM800.0 729Q817.0 704 831.0 676Q885.0 567 885.0 450Q885.0 323 831.0 214.5Q777.0 106 676.5 48.0Q576.0 -10 467.0 -10Q359.0 -10 258.5 48.0Q158.0 106 104.0 214.5Q50.0 323 50.0 450Q50.0 567 104.0 675.5Q158.0 784 258.5 842.0Q359.0 900 467.0 900Q576.0 900 677.0 842Q706.0 825 732.0 803L1082.0 1153Q905.0 1153 658.0 1223L693.0 1259Q1117.0 1259 1400.0 1400Q1259.0 1117 1259.0 693L1223.0 658Q1153.0 905 1153.0 1082Z" transform="matrix(0.009268 0 0 -0.009268 42.53 390.31)" fill="#15130f"/><path d="M917.0 -500Q917.0 362 797.0 836.0Q677.0 1310 467.0 1310Q411.0 1310 358.5 1265.0Q306.0 1220 278.0 1135.5Q250.0 1051 250.0 960Q250.0 869 278.0 784.5Q306.0 700 358.5 655.0Q411.0 610 467.0 610Q524.0 610 577.0 655Q605.0 680 641.0 680Q670.0 680 703.0 663Q734.0 647 734.0 628Q734.0 601 677.0 568Q576.0 510 467.0 510Q359.0 510 258.5 568.0Q158.0 626 104.0 734.5Q50.0 843 50.0 960Q50.0 1077 104.0 1185.5Q158.0 1294 258.5 1352.0Q359.0 1410 467.0 1410Q760.0 1410 939.0 959Q983.0 845 1017.0 696Q1051.0 845 1096.0 959Q1274.0 1410 1567.0 1410Q1675.0 1410 1775.5 1352.0Q1876.0 1294 1930.0 1185.5Q1984.0 1077 1984.0 960Q1984.0 843 1930.0 734.5Q1876.0 626 1775.5 568.0Q1675.0 510 1567.0 510Q1458.0 510 1357.0 568Q1300.0 601 1300.0 628Q1300.0 647 1331.0 663Q1364.0 680 1393.0 680Q1429.0 680 1457.0 655Q1510.0 610 1567.0 610Q1623.0 610 1675.5 655.0Q1728.0 700 1756.0 784.5Q1784.0 869 1784.0 960Q1784.0 1051 1756.0 1135.5Q1728.0 1220 1675.5 1265.0Q1623.0 1310 1567.0 1310Q1357.0 1310 1237.0 836.0Q1117.0 362 1117.0 -500Z" transform="matrix(0.009268 0 0 -0.009268 241.32 388.08)" fill="#15130f"/><path d="M40.0 -4Q31.0 -4 24.0 -0.5Q17.0 3 17.0 9Q17.0 24 42.0 29Q80.0 37 97.0 51.0Q114.0 65 114.0 97V551Q114.0 584 100.0 598.0Q86.0 612 47.0 620Q22.0 625 22.0 641Q22.0 647 29.0 650.5Q36.0 654 45.0 654Q69.0 654 92.0 653.0Q115.0 652 136.5 651.0Q158.0 650 180.0 650Q201.0 650 222.5 651.0Q244.0 652 267.0 653.0Q290.0 654 314.0 654Q324.0 654 330.0 650.5Q336.0 647 336.0 640Q336.0 632 329.5 627.5Q323.0 623 311.0 620Q271.0 610 257.0 596.0Q243.0 582 243.0 550V98Q243.0 67 259.5 53.0Q276.0 39 314.0 29Q327.0 26 333.5 22.0Q340.0 18 340.0 10Q340.0 3 334.0 0.0Q328.0 -3 318.0 -3Q294.0 -3 270.0 -2.0Q246.0 -1 223.5 0.0Q201.0 1 180.0 1Q158.0 1 135.0 0.0Q112.0 -1 88.0 -2.5Q64.0 -4 40.0 -4ZM401.0 -4Q389.0 -4 382.5 -0.5Q376.0 3 376.0 9Q376.0 17 384.5 20.5Q393.0 24 405.0 27Q429.0 34 446.0 54.0Q463.0 74 467.0 106Q475.0 167 482.5 239.0Q490.0 311 496.5 384.0Q503.0 457 507.0 521Q507.0 528 507.0 537.0Q507.0 546 507.0 555Q506.0 570 501.5 579.5Q497.0 589 486.0 597Q472.0 607 457.0 612.5Q442.0 618 423.0 622Q412.0 624 405.5 629.5Q399.0 635 399.0 643Q399.0 651 407.0 654.0Q415.0 657 428.0 657Q441.0 657 463.0 656.0Q485.0 655 510.5 653.5Q536.0 652 561.0 651.0Q586.0 650 605.0 650Q613.0 650 619.0 645.0Q625.0 640 627.0 633Q633.0 614 639.0 596.0Q645.0 578 652.0 558L802.0 191Q805.0 186 810.0 185.5Q815.0 185 817.0 190L978.0 548Q985.0 577 989.5 599.0Q994.0 621 998.0 634Q1001.0 647 1011.0 647H1052.0Q1090.0 649 1132.0 653.0Q1174.0 657 1197.0 657Q1205.0 657 1212.5 654.5Q1220.0 652 1220.0 644Q1220.0 636 1214.0 632.0Q1208.0 628 1196.0 623Q1188.0 621 1177.0 616.5Q1166.0 612 1158.0 608Q1137.0 599 1126.5 585.0Q1116.0 571 1117.0 545Q1118.0 474 1121.0 417.5Q1124.0 361 1126.5 311.5Q1129.0 262 1133.0 210.5Q1137.0 159 1140.0 97Q1142.0 69 1161.5 53.0Q1181.0 37 1214.0 29Q1226.0 26 1233.5 22.0Q1241.0 18 1241.0 10Q1241.0 3 1234.5 0.0Q1228.0 -3 1217.0 -3Q1194.0 -3 1169.0 -2.0Q1144.0 -1 1120.5 0.0Q1097.0 1 1076.0 1Q1056.0 1 1035.0 0.0Q1014.0 -1 992.0 -2.5Q970.0 -4 946.0 -4Q936.0 -4 928.5 -0.5Q921.0 3 921.0 9Q921.0 17 928.5 22.0Q936.0 27 948.0 29Q982.0 36 995.5 50.0Q1009.0 64 1007.0 97Q1006.0 162 1004.0 222.0Q1002.0 282 1000.0 341.0Q998.0 400 995.0 460Q994.0 468 990.5 467.5Q987.0 467 983.0 459L779.0 -1Q775.0 -12 766.0 -10.5Q757.0 -9 754.0 -1Q708.0 115 657.5 228.5Q607.0 342 558.0 459Q555.0 467 549.5 465.0Q544.0 463 543.0 454Q538.0 398 534.0 338.5Q530.0 279 529.0 220.0Q528.0 161 528.0 103Q528.0 76 545.5 57.0Q563.0 38 599.0 29Q611.0 27 619.5 22.5Q628.0 18 628.0 10Q628.0 3 620.0 0.0Q612.0 -3 602.0 -3Q575.0 -3 561.0 -2.0Q547.0 -1 535.0 0.0Q523.0 1 503.0 1Q482.0 1 463.5 0.0Q445.0 -1 429.0 -2.5Q413.0 -4 401.0 -4ZM1310.0 -4Q1301.0 -4 1294.0 -0.5Q1287.0 3 1287.0 9Q1287.0 24 1312.0 29Q1350.0 37 1366.0 51.0Q1382.0 65 1382.0 98V538Q1382.0 576 1369.5 594.0Q1357.0 612 1321.0 620Q1307.0 623 1301.0 628.5Q1295.0 634 1295.0 640Q1295.0 647 1301.5 650.5Q1308.0 654 1319.0 654Q1343.0 654 1363.5 653.5Q1384.0 653 1403.0 652.0Q1422.0 651 1442.0 651Q1464.0 651 1483.5 653.0Q1503.0 655 1523.5 657.0Q1544.0 659 1571.0 659Q1690.0 659 1761.0 609.0Q1832.0 559 1832.0 471Q1832.0 409 1806.5 356.5Q1781.0 304 1728.5 272.0Q1676.0 240 1596.0 240Q1571.0 240 1558.0 247.5Q1545.0 255 1545.0 264Q1545.0 270 1551.5 274.5Q1558.0 279 1563.0 279Q1572.0 279 1580.5 277.5Q1589.0 276 1606.0 276Q1653.0 276 1677.5 324.0Q1702.0 372 1702.0 452Q1702.0 540 1666.5 580.5Q1631.0 621 1571.0 621Q1543.0 621 1527.5 609.5Q1512.0 598 1512.0 573L1511.0 104Q1511.0 71 1527.5 54.5Q1544.0 38 1584.0 29Q1597.0 27 1603.0 22.5Q1609.0 18 1609.0 10Q1609.0 3 1603.5 0.0Q1598.0 -3 1587.0 -3Q1564.0 -3 1540.0 -1.5Q1516.0 0 1493.5 1.0Q1471.0 2 1451.0 2Q1429.0 2 1405.5 1.0Q1382.0 0 1358.0 -2.0Q1334.0 -4 1310.0 -4ZM2230.0 -14Q2137.0 -14 2075.0 19.0Q2013.0 52 1982.0 111.0Q1951.0 170 1951.0 249V541Q1951.0 571 1937.5 592.0Q1924.0 613 1902.0 619Q1872.0 627 1872.0 641Q1872.0 647 1880.0 650.5Q1888.0 654 1900.0 654Q1928.0 654 1958.5 652.0Q1989.0 650 2018.0 650Q2044.0 650 2077.5 651.5Q2111.0 653 2135.0 653Q2147.0 653 2154.5 650.0Q2162.0 647 2162.0 640Q2162.0 630 2149.5 625.5Q2137.0 621 2120.0 614Q2106.0 608 2093.5 589.5Q2081.0 571 2081.0 539V270Q2081.0 198 2105.0 151.5Q2129.0 105 2169.0 83.0Q2209.0 61 2259.0 61Q2354.0 61 2400.0 121.0Q2446.0 181 2446.0 293Q2446.0 318 2446.0 352.0Q2446.0 386 2445.5 422.5Q2445.0 459 2444.0 492Q2444.0 531 2438.5 555.5Q2433.0 580 2423.0 594.5Q2413.0 609 2395.0 617Q2385.0 621 2371.5 626.0Q2358.0 631 2358.0 639Q2358.0 647 2366.0 650.0Q2374.0 653 2387.0 653Q2419.0 653 2436.5 652.0Q2454.0 651 2477.0 651Q2494.0 651 2507.5 651.5Q2521.0 652 2534.0 653.0Q2547.0 654 2564.0 654Q2576.0 654 2583.0 651.5Q2590.0 649 2590.0 641Q2590.0 627 2561.0 620Q2530.0 612 2518.0 591.0Q2506.0 570 2504.0 536Q2500.0 457 2498.5 391.0Q2497.0 325 2496.0 258Q2495.0 178 2459.5 116.5Q2424.0 55 2364.0 20.5Q2304.0 -14 2230.0 -14ZM2645.0 -5Q2634.0 -5 2628.0 -0.5Q2622.0 4 2622.0 9Q2622.0 17 2629.0 21.5Q2636.0 26 2643.0 28Q2679.0 37 2696.0 50.5Q2713.0 64 2713.0 95V555Q2713.0 578 2707.5 590.0Q2702.0 602 2688.5 608.5Q2675.0 615 2649.0 620Q2623.0 625 2623.0 641Q2623.0 647 2630.0 650.5Q2637.0 654 2646.0 654Q2671.0 654 2693.5 653.0Q2716.0 652 2737.0 651.0Q2758.0 650 2779.0 650Q2802.0 650 2825.5 651.0Q2849.0 652 2873.5 653.0Q2898.0 654 2921.0 654Q2931.0 654 2937.0 650.5Q2943.0 647 2943.0 640Q2943.0 632 2936.5 627.5Q2930.0 623 2918.0 620Q2879.0 610 2860.5 598.5Q2842.0 587 2842.0 558V101Q2842.0 72 2855.0 58.5Q2868.0 45 2904.0 45H3013.0Q3036.0 45 3055.0 53.0Q3074.0 61 3086.0 73Q3104.0 89 3116.0 107.0Q3128.0 125 3139.0 149Q3146.0 164 3152.0 172.0Q3158.0 180 3164.0 180Q3171.0 180 3174.0 173.5Q3177.0 167 3177.0 160Q3177.0 159 3176.0 154.0Q3175.0 149 3175.0 146Q3167.0 117 3161.5 96.0Q3156.0 75 3152.5 55.5Q3149.0 36 3146.0 13Q3145.0 6 3142.0 0.5Q3139.0 -5 3130.0 -5Q3100.0 -5 3058.0 -4.0Q3016.0 -3 2969.0 -2.5Q2922.0 -2 2874.5 -1.0Q2827.0 0 2785.0 0Q2763.0 0 2734.5 -1.0Q2706.0 -2 2681.0 -3.5Q2656.0 -5 2645.0 -5ZM3398.0 -15Q3355.0 -15 3316.5 -4.0Q3278.0 7 3246.0 29Q3240.0 34 3235.0 39.5Q3230.0 45 3227.0 52Q3219.0 77 3216.0 113.5Q3213.0 150 3214.0 184Q3214.0 191 3219.5 194.0Q3225.0 197 3233.0 197Q3241.0 197 3245.5 194.5Q3250.0 192 3252.0 185Q3274.0 110 3316.0 68.0Q3358.0 26 3411.0 26Q3444.0 26 3467.0 41.0Q3490.0 56 3502.0 80.0Q3514.0 104 3514.0 132Q3514.0 167 3501.5 190.0Q3489.0 213 3464.0 231.5Q3439.0 250 3401.0 271Q3360.0 295 3321.0 321.5Q3282.0 348 3257.0 384.5Q3232.0 421 3232.0 475Q3232.0 531 3260.5 573.5Q3289.0 616 3340.0 640.0Q3391.0 664 3458.0 664Q3495.0 664 3527.0 656.0Q3559.0 648 3578.0 640Q3589.0 636 3594.5 630.0Q3600.0 624 3603.0 611Q3609.0 590 3613.5 561.0Q3618.0 532 3618.0 500Q3618.0 488 3600.0 488Q3592.0 488 3584.0 492.0Q3576.0 496 3574.0 503Q3556.0 561 3524.5 591.0Q3493.0 621 3447.0 621Q3416.0 621 3394.0 610.5Q3372.0 600 3359.0 578.5Q3346.0 557 3346.0 523Q3346.0 497 3363.5 475.0Q3381.0 453 3412.5 432.0Q3444.0 411 3483.0 386Q3531.0 358 3563.5 329.5Q3596.0 301 3613.0 266.5Q3630.0 232 3630.0 185Q3630.0 119 3601.0 74.5Q3572.0 30 3520.0 7.5Q3468.0 -15 3398.0 -15ZM3708.0 -4Q3699.0 -4 3692.0 -0.5Q3685.0 3 3685.0 9Q3685.0 24 3710.0 29Q3748.0 37 3765.0 51.0Q3782.0 65 3782.0 97V551Q3782.0 584 3768.0 598.0Q3754.0 612 3715.0 620Q3690.0 625 3690.0 641Q3690.0 647 3697.0 650.5Q3704.0 654 3713.0 654Q3737.0 654 3760.0 653.0Q3783.0 652 3804.5 651.0Q3826.0 650 3848.0 650Q3869.0 650 3890.5 651.0Q3912.0 652 3935.0 653.0Q3958.0 654 3982.0 654Q3992.0 654 3998.0 650.5Q4004.0 647 4004.0 640Q4004.0 632 3997.5 627.5Q3991.0 623 3979.0 620Q3939.0 610 3925.0 596.0Q3911.0 582 3911.0 550V98Q3911.0 67 3927.5 53.0Q3944.0 39 3982.0 29Q3995.0 26 4001.5 22.0Q4008.0 18 4008.0 10Q4008.0 3 4002.0 0.0Q3996.0 -3 3986.0 -3Q3962.0 -3 3938.0 -2.0Q3914.0 -1 3891.5 0.0Q3869.0 1 3848.0 1Q3826.0 1 3803.0 0.0Q3780.0 -1 3756.0 -2.5Q3732.0 -4 3708.0 -4ZM4362.0 -15Q4350.0 -15 4345.0 -2Q4339.0 11 4330.0 34.0Q4321.0 57 4314.0 76L4123.0 549Q4113.0 574 4096.0 592.5Q4079.0 611 4051.0 619Q4039.0 623 4031.5 627.5Q4024.0 632 4024.0 640Q4024.0 647 4031.0 650.5Q4038.0 654 4048.0 654Q4066.0 654 4090.5 653.0Q4115.0 652 4140.0 651.0Q4165.0 650 4186.0 650Q4206.0 650 4232.0 651.0Q4258.0 652 4282.5 653.0Q4307.0 654 4324.0 654Q4334.0 654 4343.0 650.5Q4352.0 647 4352.0 640Q4352.0 632 4343.0 626.5Q4334.0 621 4321.0 619Q4292.0 614 4276.5 605.5Q4261.0 597 4261.0 580Q4261.0 570 4264.0 561.0Q4267.0 552 4268.0 545L4403.0 177Q4405.0 172 4407.5 171.0Q4410.0 170 4413.0 178L4536.0 502Q4556.0 554 4542.5 583.5Q4529.0 613 4489.0 619Q4476.0 621 4466.5 626.5Q4457.0 632 4457.0 640Q4457.0 647 4466.0 650.0Q4475.0 653 4486.0 653Q4504.0 653 4519.0 652.5Q4534.0 652 4549.0 651.5Q4564.0 651 4583.0 651Q4612.0 651 4640.5 653.0Q4669.0 655 4694.0 655Q4706.0 655 4715.0 652.0Q4724.0 649 4724.0 641Q4724.0 632 4715.5 628.0Q4707.0 624 4695.0 621Q4662.0 613 4640.5 589.0Q4619.0 565 4603.0 527L4439.0 133Q4428.0 106 4417.5 82.0Q4407.0 58 4398.5 37.0Q4390.0 16 4381.0 -2Q4378.0 -9 4374.0 -12.0Q4370.0 -15 4362.0 -15ZM4768.0 -5Q4757.0 -5 4750.5 -1.0Q4744.0 3 4744.0 9Q4744.0 22 4770.0 28Q4806.0 37 4821.5 50.5Q4837.0 64 4837.0 97V550Q4837.0 584 4823.5 598.0Q4810.0 612 4773.0 620Q4759.0 623 4753.0 628.5Q4747.0 634 4747.0 640Q4747.0 647 4753.5 650.5Q4760.0 654 4771.0 654Q4800.0 654 4826.5 653.0Q4853.0 652 4878.0 651.0Q4903.0 650 4930.0 650Q4976.0 650 5027.5 651.0Q5079.0 652 5120.0 652Q5153.0 653 5174.5 655.0Q5196.0 657 5200.0 657Q5207.0 657 5214.5 654.0Q5222.0 651 5223.0 642Q5227.0 609 5233.0 577.0Q5239.0 545 5239.0 521Q5239.0 512 5234.5 507.5Q5230.0 503 5225.0 503Q5220.0 503 5216.0 506.5Q5212.0 510 5209.0 517Q5201.0 540 5194.0 557.0Q5187.0 574 5178.0 583Q5165.0 597 5148.0 605.0Q5131.0 613 5107.0 613H5014.0Q4996.0 613 4981.0 602.5Q4966.0 592 4966.0 573V377Q4966.0 366 4972.5 360.0Q4979.0 354 4988.0 354H5080.0Q5107.0 354 5118.5 369.0Q5130.0 384 5138.0 410Q5145.0 430 5157.0 430Q5162.0 430 5166.0 424.5Q5170.0 419 5170.0 410Q5169.0 400 5168.0 386.0Q5167.0 372 5166.5 358.0Q5166.0 344 5166.0 333Q5166.0 321 5166.5 306.0Q5167.0 291 5167.5 276.5Q5168.0 262 5169.0 252Q5170.0 241 5167.5 235.0Q5165.0 229 5159.0 229Q5143.0 229 5136.0 257Q5128.0 285 5117.0 299.0Q5106.0 313 5087.0 313H4993.0Q4980.0 313 4973.0 308.0Q4966.0 303 4966.0 289V99Q4966.0 66 4980.0 53.0Q4994.0 40 5023.0 40H5105.0Q5130.0 40 5150.5 45.0Q5171.0 50 5186.0 61Q5203.0 73 5216.5 93.5Q5230.0 114 5243.0 139Q5247.0 147 5251.0 149.5Q5255.0 152 5261.0 152Q5266.0 151 5268.5 146.0Q5271.0 141 5271.0 135Q5271.0 121 5266.0 99.0Q5261.0 77 5253.5 53.5Q5246.0 30 5240.0 10Q5237.0 3 5232.0 -0.5Q5227.0 -4 5220.0 -4Q5196.0 -4 5158.5 -3.5Q5121.0 -3 5077.0 -2.0Q5033.0 -1 4987.0 -0.5Q4941.0 0 4899.0 0Q4878.0 0 4856.5 -1.0Q4835.0 -2 4813.0 -3.5Q4791.0 -5 4768.0 -5ZM5966.0 -18Q5954.0 -18 5926.0 -3.0Q5898.0 12 5869.0 49Q5852.0 68 5827.5 95.5Q5803.0 123 5773.5 156.0Q5744.0 189 5712.0 225.0Q5680.0 261 5648.5 297.0Q5617.0 333 5587.0 366.0Q5557.0 399 5532.0 426.5Q5507.0 454 5490.0 474Q5486.0 479 5481.5 482.5Q5477.0 486 5474.0 486Q5470.0 486 5468.0 479.0Q5466.0 472 5466.0 466Q5466.0 420 5466.5 357.0Q5467.0 294 5467.0 229.0Q5467.0 164 5467.0 109Q5467.0 78 5485.0 58.0Q5503.0 38 5542.0 29Q5554.0 27 5562.5 22.5Q5571.0 18 5571.0 10Q5571.0 3 5563.0 0.0Q5555.0 -3 5545.0 -3Q5518.0 -3 5502.0 -2.0Q5486.0 -1 5473.0 0.0Q5460.0 1 5440.0 1Q5419.0 1 5402.5 0.0Q5386.0 -1 5373.0 -2.5Q5360.0 -4 5348.0 -4Q5338.0 -4 5330.0 -0.5Q5322.0 3 5322.0 9Q5322.0 17 5329.5 21.5Q5337.0 26 5350.0 30Q5376.0 38 5388.5 59.5Q5401.0 81 5404.0 111Q5408.0 149 5412.0 210.5Q5416.0 272 5419.5 349.0Q5423.0 426 5423.0 508Q5423.0 560 5396.5 583.0Q5370.0 606 5330.0 620Q5323.0 622 5312.0 628.0Q5301.0 634 5301.0 643Q5301.0 652 5309.0 655.0Q5317.0 658 5326.0 658Q5347.0 658 5368.0 657.0Q5389.0 656 5410.5 655.5Q5432.0 655 5455.5 654.0Q5479.0 653 5506.0 653Q5515.0 653 5519.5 649.5Q5524.0 646 5528.0 640Q5544.0 621 5569.0 592.5Q5594.0 564 5623.5 529.5Q5653.0 495 5685.5 457.0Q5718.0 419 5750.5 381.0Q5783.0 343 5813.0 308.5Q5843.0 274 5867.5 245.5Q5892.0 217 5908.0 199Q5912.0 195 5917.5 189.0Q5923.0 183 5927.0 183Q5935.0 183 5936.0 200Q5936.0 226 5936.0 266.5Q5936.0 307 5936.5 356.5Q5937.0 406 5936.5 458.0Q5936.0 510 5935.0 558Q5934.0 583 5914.5 597.5Q5895.0 612 5866.0 618Q5854.0 621 5843.5 625.5Q5833.0 630 5833.0 639Q5833.0 646 5843.5 649.0Q5854.0 652 5863.0 652Q5883.0 652 5896.5 652.0Q5910.0 652 5922.0 651.5Q5934.0 651 5947.0 651Q5969.0 651 5983.0 651.5Q5997.0 652 6013.5 653.0Q6030.0 654 6057.0 654Q6069.0 654 6076.5 650.5Q6084.0 647 6084.0 641Q6084.0 626 6055.0 620Q6020.0 613 6005.5 601.0Q5991.0 589 5990.0 561Q5990.0 536 5989.5 497.0Q5989.0 458 5988.0 412.0Q5987.0 366 5985.5 318.0Q5984.0 270 5983.5 224.0Q5983.0 178 5983.0 141Q5983.0 117 5985.0 92.0Q5987.0 67 5989.5 47.5Q5992.0 28 5992.0 20Q5992.0 -2 5985.0 -10.0Q5978.0 -18 5966.0 -18ZM6143.0 -5Q6132.0 -5 6125.5 -1.0Q6119.0 3 6119.0 9Q6119.0 22 6145.0 28Q6181.0 37 6196.5 50.5Q6212.0 64 6212.0 97V550Q6212.0 584 6198.5 598.0Q6185.0 612 6148.0 620Q6134.0 623 6128.0 628.5Q6122.0 634 6122.0 640Q6122.0 647 6128.5 650.5Q6135.0 654 6146.0 654Q6175.0 654 6201.5 653.0Q6228.0 652 6253.0 651.0Q6278.0 650 6305.0 650Q6351.0 650 6402.5 651.0Q6454.0 652 6495.0 652Q6528.0 653 6549.5 655.0Q6571.0 657 6575.0 657Q6582.0 657 6589.5 654.0Q6597.0 651 6598.0 642Q6602.0 609 6608.0 577.0Q6614.0 545 6614.0 521Q6614.0 512 6609.5 507.5Q6605.0 503 6600.0 503Q6595.0 503 6591.0 506.5Q6587.0 510 6584.0 517Q6576.0 540 6569.0 557.0Q6562.0 574 6553.0 583Q6540.0 597 6523.0 605.0Q6506.0 613 6482.0 613H6389.0Q6371.0 613 6356.0 602.5Q6341.0 592 6341.0 573V377Q6341.0 366 6347.5 360.0Q6354.0 354 6363.0 354H6455.0Q6482.0 354 6493.5 369.0Q6505.0 384 6513.0 410Q6520.0 430 6532.0 430Q6537.0 430 6541.0 424.5Q6545.0 419 6545.0 410Q6544.0 400 6543.0 386.0Q6542.0 372 6541.5 358.0Q6541.0 344 6541.0 333Q6541.0 321 6541.5 306.0Q6542.0 291 6542.5 276.5Q6543.0 262 6544.0 252Q6545.0 241 6542.5 235.0Q6540.0 229 6534.0 229Q6518.0 229 6511.0 257Q6503.0 285 6492.0 299.0Q6481.0 313 6462.0 313H6368.0Q6355.0 313 6348.0 308.0Q6341.0 303 6341.0 289V99Q6341.0 66 6355.0 53.0Q6369.0 40 6398.0 40H6480.0Q6505.0 40 6525.5 45.0Q6546.0 50 6561.0 61Q6578.0 73 6591.5 93.5Q6605.0 114 6618.0 139Q6622.0 147 6626.0 149.5Q6630.0 152 6636.0 152Q6641.0 151 6643.5 146.0Q6646.0 141 6646.0 135Q6646.0 121 6641.0 99.0Q6636.0 77 6628.5 53.5Q6621.0 30 6615.0 10Q6612.0 3 6607.0 -0.5Q6602.0 -4 6595.0 -4Q6571.0 -4 6533.5 -3.5Q6496.0 -3 6452.0 -2.0Q6408.0 -1 6362.0 -0.5Q6316.0 0 6274.0 0Q6253.0 0 6231.5 -1.0Q6210.0 -2 6188.0 -3.5Q6166.0 -5 6143.0 -5ZM6879.0 -15Q6836.0 -15 6797.5 -4.0Q6759.0 7 6727.0 29Q6721.0 34 6716.0 39.5Q6711.0 45 6708.0 52Q6700.0 77 6697.0 113.5Q6694.0 150 6695.0 184Q6695.0 191 6700.5 194.0Q6706.0 197 6714.0 197Q6722.0 197 6726.5 194.5Q6731.0 192 6733.0 185Q6755.0 110 6797.0 68.0Q6839.0 26 6892.0 26Q6925.0 26 6948.0 41.0Q6971.0 56 6983.0 80.0Q6995.0 104 6995.0 132Q6995.0 167 6982.5 190.0Q6970.0 213 6945.0 231.5Q6920.0 250 6882.0 271Q6841.0 295 6802.0 321.5Q6763.0 348 6738.0 384.5Q6713.0 421 6713.0 475Q6713.0 531 6741.5 573.5Q6770.0 616 6821.0 640.0Q6872.0 664 6939.0 664Q6976.0 664 7008.0 656.0Q7040.0 648 7059.0 640Q7070.0 636 7075.5 630.0Q7081.0 624 7084.0 611Q7090.0 590 7094.5 561.0Q7099.0 532 7099.0 500Q7099.0 488 7081.0 488Q7073.0 488 7065.0 492.0Q7057.0 496 7055.0 503Q7037.0 561 7005.5 591.0Q6974.0 621 6928.0 621Q6897.0 621 6875.0 610.5Q6853.0 600 6840.0 578.5Q6827.0 557 6827.0 523Q6827.0 497 6844.5 475.0Q6862.0 453 6893.5 432.0Q6925.0 411 6964.0 386Q7012.0 358 7044.5 329.5Q7077.0 301 7094.0 266.5Q7111.0 232 7111.0 185Q7111.0 119 7082.0 74.5Q7053.0 30 7001.0 7.5Q6949.0 -15 6879.0 -15ZM7363.0 -15Q7320.0 -15 7281.5 -4.0Q7243.0 7 7211.0 29Q7205.0 34 7200.0 39.5Q7195.0 45 7192.0 52Q7184.0 77 7181.0 113.5Q7178.0 150 7179.0 184Q7179.0 191 7184.5 194.0Q7190.0 197 7198.0 197Q7206.0 197 7210.5 194.5Q7215.0 192 7217.0 185Q7239.0 110 7281.0 68.0Q7323.0 26 7376.0 26Q7409.0 26 7432.0 41.0Q7455.0 56 7467.0 80.0Q7479.0 104 7479.0 132Q7479.0 167 7466.5 190.0Q7454.0 213 7429.0 231.5Q7404.0 250 7366.0 271Q7325.0 295 7286.0 321.5Q7247.0 348 7222.0 384.5Q7197.0 421 7197.0 475Q7197.0 531 7225.5 573.5Q7254.0 616 7305.0 640.0Q7356.0 664 7423.0 664Q7460.0 664 7492.0 656.0Q7524.0 648 7543.0 640Q7554.0 636 7559.5 630.0Q7565.0 624 7568.0 611Q7574.0 590 7578.5 561.0Q7583.0 532 7583.0 500Q7583.0 488 7565.0 488Q7557.0 488 7549.0 492.0Q7541.0 496 7539.0 503Q7521.0 561 7489.5 591.0Q7458.0 621 7412.0 621Q7381.0 621 7359.0 610.5Q7337.0 600 7324.0 578.5Q7311.0 557 7311.0 523Q7311.0 497 7328.5 475.0Q7346.0 453 7377.5 432.0Q7409.0 411 7448.0 386Q7496.0 358 7528.5 329.5Q7561.0 301 7578.0 266.5Q7595.0 232 7595.0 185Q7595.0 119 7566.0 74.5Q7537.0 30 7485.0 7.5Q7433.0 -15 7363.0 -15Z" transform="matrix(0.019920 0 0 -0.019920 74.18 390.30)" fill="#15130f"/></svg>