<svg xmlns="http://www.w3.org/2000/svg" viewBox="0 0 300 446"><rect width="300" height="446" fill="#f4ecd8"/><rect x="20.0" y="25.5" width="260" height="395" rx="20.3" fill="#f4ecd8" stroke="#15130f" stroke-width="1.5"/><rect x="36.9" y="42.4" width="226.2" height="354.7" fill="none" stroke="#15130f" stroke-width="0.7"/><g fill="none" stroke="#15130f" stroke-width="0.65" stroke-opacity="0.72" stroke-linecap="round" stroke-linejoin="round"><line x1="150.0" y1="42.4" x2="150.0" y2="210.0"/><line x1="36.9" y1="210.0" x2="263.1" y2="210.0"/></g><path d="M36.9,370.6 H263.1 V397.1 H36.9 Z" fill="#e59680"/><g fill="none" stroke="#15130f" stroke-width="0.8"><line x1="36.9" y1="370.6" x2="263.1" y2="370.6"/><line x1="61.6" y1="370.6" x2="61.6" y2="397.1"/><line x1="238.4" y1="370.6" x2="238.4" y2="397.1"/></g><rect x="141.4" y="34.4" width="17.2" height="19.0" fill="#e59680" stroke="#15130f" stroke-width="0.8"/><path d="M731.0 1093H467.0L377.0 1095L276.0 1077Q209.0 1046 197.0 961Q190.0 917 170.0 915Q139.0 913 139.0 965Q139.0 1051 170.0 1146L196.0 1225L203.0 1262Q208.0 1287 239.0 1287Q249.0 1287 279.0 1285Q310.0 1282 401.0 1282H808.0Q871.0 1282 886.5 1270.5Q902.0 1259 902.0 1214Q902.0 1092 809.0 873L717.0 658Q578.0 330 578.0 161Q578.0 67 592.0 11L604.0 -35Q606.0 -41 606.0 -47Q606.0 -64 575.0 -70Q570.0 -71 557.0 -75Q476.0 -101 435.0 -101Q377.0 -101 357.5 -74.5Q338.0 -48 338.0 28Q338.0 262 500.0 501L605.0 657Q677.0 762 737.5 889.5Q798.0 1017 798.0 1061Q798.0 1093 731.0 1093Z" transform="matrix(0.006858 0 0 -0.006858 146.43 48.74)" fill="#15130f"/><path d="M250.0 450Q250.0 349 278.0 264.5Q306.0 180 358.5 135.0Q411.0 90 467.0 90Q524.0 90 576.5 135.0Q629.0 180 657.0 264.5Q685.0 349 685.0 450Q685.0 541 657.0 625.5Q629.0 710 576.5 755.0Q524.0 800 467.0 800Q411.0 800 358.5 755.0Q306.0 710 278.0 625.5Q250.0 541 250.0 450ZM800.0 729Q817.0 704 831.0 676Q885.0 567 885.0 450Q885.0 323 831.0 214.5Q777.0 106 676.5 48.0Q576.0 -10 467.0 -10Q359.0 -10 258.5 48.0Q158.0 106 104.0 214.5Q50.0 323 50.0 450Q50.0 567 104.0 675.5Q158.0 784 258.5 842.0Q359.0 900 467.0 900Q576.0 900 677.0 842Q706.0 825 732.0 803L1082.0 1153Q905.0 1153 658.0 1223L693.0 1259Q1117.0 1259 1400.0 1400Q1259.0 1117 1259.0 693L1223.0 658Q1153.0 905 1153.0 1082Z" transform="matrix(0.009268 0 0 -0.009268 42.53 390.31)" fill="#15130f"/><path d="M50.0 100H1650.0V0H50.0ZM50.0 300V400H339.0Q300.0 491 300.0 600Q300.0 815 451.0 962.5Q602.0 1110 850.0 1110Q1098.0 1110 1249.0 962.5Q1400.0 815 1400.0 600Q1400.0 491 1361.0 400H1650.0V300H1090.0Q1099.0 310 1149.5 403.0Q1200.0 496 1200.0 600Q1200.0 750 1106.5 880.0Q1013.0 1010 850.0 1010Q684.0 1010 592.0 880.0Q500.0 750 500.0 600Q500.0 496 550.0 403.0Q600.0 310 608.0 300Z" transform="matrix(0.009268 0 0 -0.009268 242.87 389.01)" fill="#15130f"/><path d="M405.0 -14Q330.0 -14 263.0 9.5Q196.0 33 144.5 77.0Q93.0 121 63.5 182.5Q34.0 244 34.0 319Q34.0 389 63.0 451.0Q92.0 513 145.0 561.0Q198.0 609 271.5 636.5Q345.0 664 433.0 664Q467.0 664 497.5 659.5Q528.0 655 557.0 648.5Q586.0 642 614.0 632Q625.0 628 631.5 621.0Q638.0 614 639.0 602Q643.0 572 645.0 542.5Q647.0 513 647.0 484Q648.0 474 640.0 469.5Q632.0 465 623.0 468.5Q614.0 472 610.0 483Q602.0 511 591.5 535.5Q581.0 560 560.0 577Q537.0 596 502.0 607.5Q467.0 619 420.0 619Q366.0 619 322.0 597.0Q278.0 575 246.5 536.0Q215.0 497 198.0 448.0Q181.0 399 181.0 345Q181.0 281 196.5 224.0Q212.0 167 243.5 123.5Q275.0 80 320.0 55.5Q365.0 31 423.0 31Q497.0 31 543.0 63.0Q589.0 95 621.0 158Q629.0 174 643.0 173.5Q657.0 173 657.0 157Q657.0 145 654.0 127.0Q651.0 109 645.5 88.5Q640.0 68 633.0 48Q629.0 36 623.0 30.0Q617.0 24 605.0 19Q567.0 3 515.5 -5.5Q464.0 -14 405.0 -14ZM757.0 -4Q748.0 -4 741.0 0.0Q734.0 4 734.0 10Q734.0 24 759.0 29Q795.0 37 807.0 51.0Q819.0 65 819.0 98V551Q819.0 584 809.0 598.0Q799.0 612 762.0 620Q737.0 625 737.0 640Q737.0 647 743.5 650.5Q750.0 654 760.0 654Q784.0 654 805.0 653.0Q826.0 652 846.0 651.0Q866.0 650 886.0 650Q906.0 650 927.5 651.0Q949.0 652 972.0 653.0Q995.0 654 1018.0 654Q1040.0 654 1040.0 639Q1040.0 631 1034.0 627.0Q1028.0 623 1015.0 620Q976.0 610 962.5 595.0Q949.0 580 949.0 550V364Q949.0 357 953.5 354.5Q958.0 352 964.0 352H1263.0Q1274.0 352 1274.0 366V551Q1274.0 580 1261.0 595.0Q1248.0 610 1209.0 620Q1196.0 623 1189.5 627.0Q1183.0 631 1183.0 639Q1183.0 654 1205.0 654Q1229.0 654 1253.0 653.0Q1277.0 652 1299.5 651.0Q1322.0 650 1343.0 650Q1362.0 650 1380.0 651.0Q1398.0 652 1418.5 653.0Q1439.0 654 1463.0 654Q1472.0 654 1479.0 650.5Q1486.0 647 1486.0 640Q1486.0 625 1460.0 620Q1425.0 612 1414.5 597.0Q1404.0 582 1404.0 551V98Q1404.0 65 1415.0 51.0Q1426.0 37 1462.0 29Q1487.0 24 1487.0 10Q1487.0 4 1480.0 0.0Q1473.0 -4 1464.0 -4Q1441.0 -4 1420.0 -2.5Q1399.0 -1 1378.5 0.0Q1358.0 1 1338.0 1Q1318.0 1 1296.0 0.0Q1274.0 -1 1251.0 -2.0Q1228.0 -3 1204.0 -3Q1195.0 -3 1189.0 0.5Q1183.0 4 1183.0 11Q1183.0 19 1189.0 22.5Q1195.0 26 1207.0 29Q1243.0 38 1258.5 53.0Q1274.0 68 1274.0 98V288Q1274.0 294 1272.5 299.0Q1271.0 304 1264.0 304H960.0Q949.0 304 949.0 289V102Q949.0 72 966.5 55.0Q984.0 38 1020.0 29Q1033.0 26 1039.0 22.5Q1045.0 19 1045.0 11Q1045.0 4 1039.5 0.5Q1034.0 -3 1023.0 -3Q1000.0 -3 976.0 -2.0Q952.0 -1 929.5 0.0Q907.0 1 886.0 1Q865.0 1 844.0 0.0Q823.0 -1 801.0 -2.5Q779.0 -4 757.0 -4ZM1889.0 -14Q1821.0 -14 1759.0 9.5Q1697.0 33 1649.5 76.5Q1602.0 120 1574.5 180.5Q1547.0 241 1547.0 315Q1547.0 383 1569.5 445.5Q1592.0 508 1636.5 557.0Q1681.0 606 1746.5 635.0Q1812.0 664 1898.0 664Q1966.0 664 2027.5 640.5Q2089.0 617 2137.0 573.5Q2185.0 530 2212.5 469.5Q2240.0 409 2240.0 335Q2240.0 268 2217.5 205.0Q2195.0 142 2150.5 93.0Q2106.0 44 2040.5 15.0Q1975.0 -14 1889.0 -14ZM1906.0 30Q1969.0 30 2011.5 62.0Q2054.0 94 2075.5 151.5Q2097.0 209 2097.0 284Q2097.0 348 2084.0 408.0Q2071.0 468 2044.0 515.5Q2017.0 563 1976.5 591.0Q1936.0 619 1880.0 619Q1817.0 619 1774.5 587.0Q1732.0 555 1711.0 498.0Q1690.0 441 1690.0 366Q1690.0 302 1703.0 242.0Q1716.0 182 1742.5 134.0Q1769.0 86 1809.5 58.0Q1850.0 30 1906.0 30ZM2314.0 -4Q2305.0 -4 2298.0 -0.5Q2291.0 3 2291.0 9Q2291.0 24 2316.0 29Q2354.0 37 2371.0 51.0Q2388.0 65 2388.0 97V551Q2388.0 584 2374.0 598.0Q2360.0 612 2321.0 620Q2296.0 625 2296.0 641Q2296.0 647 2303.0 650.5Q2310.0 654 2319.0 654Q2343.0 654 2366.0 653.0Q2389.0 652 2410.5 651.0Q2432.0 650 2454.0 650Q2475.0 650 2496.5 651.0Q2518.0 652 2541.0 653.0Q2564.0 654 2588.0 654Q2598.0 654 2604.0 650.5Q2610.0 647 2610.0 640Q2610.0 632 2603.5 627.5Q2597.0 623 2585.0 620Q2545.0 610 2531.0 596.0Q2517.0 582 2517.0 550V98Q2517.0 67 2533.5 53.0Q2550.0 39 2588.0 29Q2601.0 26 2607.5 22.0Q2614.0 18 2614.0 10Q2614.0 3 2608.0 0.0Q2602.0 -3 2592.0 -3Q2568.0 -3 2544.0 -2.0Q2520.0 -1 2497.5 0.0Q2475.0 1 2454.0 1Q2432.0 1 2409.0 0.0Q2386.0 -1 2362.0 -2.5Q2338.0 -4 2314.0 -4ZM3035.0 -14Q2960.0 -14 2893.0 9.5Q2826.0 33 2774.5 77.0Q2723.0 121 2693.5 182.5Q2664.0 244 2664.0 319Q2664.0 389 2693.0 451.0Q2722.0 513 2775.0 561.0Q2828.0 609 2901.5 636.5Q2975.0 664 3063.0 664Q3097.0 664 3127.5 659.5Q3158.0 655 3187.0 648.5Q3216.0 642 3244.0 632Q3255.0 628 3261.5 621.0Q3268.0 614 3269.0 602Q3273.0 572 3275.0 542.5Q3277.0 513 3277.0 484Q3278.0 474 3270.0 469.5Q3262.0 465 3253.0 468.5Q3244.0 472 3240.0 483Q3232.0 511 3221.5 535.5Q3211.0 560 3190.0 577Q3167.0 596 3132.0 607.5Q3097.0 619 3050.0 619Q2996.0 619 2952.0 597.0Q2908.0 575 2876.5 536.0Q2845.0 497 2828.0 448.0Q2811.0 399 2811.0 345Q2811.0 281 2826.5 224.0Q2842.0 167 2873.5 123.5Q2905.0 80 2950.0 55.5Q2995.0 31 3053.0 31Q3127.0 31 3173.0 63.0Q3219.0 95 3251.0 158Q3259.0 174 3273.0 173.5Q3287.0 173 3287.0 157Q3287.0 145 3284.0 127.0Q3281.0 109 3275.5 88.5Q3270.0 68 3263.0 48Q3259.0 36 3253.0 30.0Q3247.0 24 3235.0 19Q3197.0 3 3145.5 -5.5Q3094.0 -14 3035.0 -14ZM3388.0 -5Q3377.0 -5 3370.5 -1.0Q3364.0 3 3364.0 9Q3364.0 22 3390.0 28Q3426.0 37 3441.5 50.5Q3457.0 64 3457.0 97V550Q3457.0 584 3443.5 598.0Q3430.0 612 3393.0 620Q3379.0 623 3373.0 628.5Q3367.0 634 3367.0 640Q3367.0 647 3373.5 650.5Q3380.0 654 3391.0 654Q3420.0 654 3446.5 653.0Q3473.0 652 3498.0 651.0Q3523.0 650 3550.0 650Q3596.0 650 3647.5 651.0Q3699.0 652 3740.0 652Q3773.0 653 3794.5 655.0Q3816.0 657 3820.0 657Q3827.0 657 3834.5 654.0Q3842.0 651 3843.0 642Q3847.0 609 3853.0 577.0Q3859.0 545 3859.0 521Q3859.0 512 3854.5 507.5Q3850.0 503 3845.0 503Q3840.0 503 3836.0 506.5Q3832.0 510 3829.0 517Q3821.0 540 3814.0 557.0Q3807.0 574 3798.0 583Q3785.0 597 3768.0 605.0Q3751.0 613 3727.0 613H3634.0Q3616.0 613 3601.0 602.5Q3586.0 592 3586.0 573V377Q3586.0 366 3592.5 360.0Q3599.0 354 3608.0 354H3700.0Q3727.0 354 3738.5 369.0Q3750.0 384 3758.0 410Q3765.0 430 3777.0 430Q3782.0 430 3786.0 424.5Q3790.0 419 3790.0 410Q3789.0 400 3788.0 386.0Q3787.0 372 3786.5 358.0Q3786.0 344 3786.0 333Q3786.0 321 3786.5 306.0Q3787.0 291 3787.5 276.5Q3788.0 262 3789.0 252Q3790.0 241 3787.5 235.0Q3785.0 229 3779.0 229Q3763.0 229 3756.0 257Q3748.0 285 3737.0 299.0Q3726.0 313 3707.0 313H3613.0Q3600.0 313 3593.0 308.0Q3586.0 303 3586.0 289V99Q3586.0 66 3600.0 53.0Q3614.0 40 3643.0 40H3725.0Q3750.0 40 3770.5 45.0Q3791.0 50 3806.0 61Q3823.0 73 3836.5 93.5Q3850.0 114 3863.0 139Q3867.0 147 3871.0 149.5Q3875.0 152 3881.0 152Q3886.0 151 3888.5 146.0Q3891.0 141 3891.0 135Q3891.0 121 3886.0 99.0Q3881.0 77 3873.5 53.5Q3866.0 30 3860.0 10Q3857.0 3 3852.0 -0.5Q3847.0 -4 3840.0 -4Q3816.0 -4 3778.5 -3.5Q3741.0 -3 3697.0 -2.0Q3653.0 -1 3607.0 -0.5Q3561.0 0 3519.0 0Q3498.0 0 3476.5 -1.0Q3455.0 -2 3433.0 -3.5Q3411.0 -5 3388.0 -5Z" transform="matrix(0.022120 0 0 -0.022120 106.59 391.06)" fill="#15130f"/></svg>