<svg xmlns="http://www.w3.org/2000/svg" viewBox="0 0 300 446"><rect width="300" height="446" fill="#f4ecd8"/><rect x="20.0" y="25.5" width="260" height="395" rx="20.3" fill="#f4ecd8" stroke="#15130f" stroke-width="1.5"/><rect x="36.9" y="42.4" width="226.2" height="354.7" fill="none" stroke="#15130f" stroke-width="0.7"/><g fill="none" stroke="#15130f" stroke-width="0.65" stroke-opacity="0.72" stroke-linecap="round" stroke-linejoin="round"><line x1="150.0" y1="42.4" x2="150.0" y2="210.0"/><line x1="36.9" y1="210.0" x2="263.1" y2="210.0"/></g><path d="M36.9,370.6 H263.1 V397.1 H36.9 Z" fill="#e59680"/><g fill="none" stroke="#15130f" stroke-width="0.8"><line x1="36.9" y1="370.6" x2="263.1" y2="370.6"/><line x1="61.6" y1="370.6" x2="61.6" y2="397.1"/><line x1="238.4" y1="370.6" x2="238.4" y2="397.1"/></g><rect x="141.4" y="34.4" width="17.2" height="19.0" fill="#e59680" stroke="#15130f" stroke-width="0.8"/><path d="M649.0 1092V235L647.0 193L657.0 137Q686.0 59 825.0 52Q867.0 50 867.0 28Q867.0 -7 780.0 -7Q761.0 -7 652.0 2Q595.0 7 494.0 7Q394.0 7 322.0 -2Q293.0 -5 280.0 -5Q255.0 -5 255.0 20Q255.0 41 281.0 45Q384.0 61 415.0 92.0Q446.0 123 446.0 210L445.0 248V1010Q445.0 1115 363.0 1115Q331.0 1115 306.0 1104L281.0 1093Q270.0 1089 261.0 1089Q235.0 1089 235.0 1113Q235.0 1137 260.0 1150.0Q285.0 1163 362.0 1180Q506.0 1211 567.0 1267L614.0 1310Q625.0 1320 641.0 1320Q661.0 1320 661.0 1282Q661.0 1271 659.0 1243L651.0 1153Q649.0 1126 649.0 1092ZM1947.0 348Q1970.0 348 1972.0 331L1970.0 321L1955.0 277Q1941.0 236 1920.0 192L1869.0 85Q1839.0 23 1816.5 9.5Q1794.0 -4 1721.0 -4Q1677.0 -4 1615.0 -1L1530.0 4Q1482.0 6 1395.0 6Q1232.0 6 1191.0 -1Q1163.0 -6 1150.0 -6Q1119.0 -6 1119.0 21Q1119.0 40 1178.0 106Q1270.0 211 1389.0 383.0Q1508.0 555 1565.0 665Q1641.0 813 1641.0 932Q1641.0 1035 1583.0 1096.0Q1525.0 1157 1428.0 1157Q1290.0 1157 1180.0 1033Q1170.0 1021 1162.0 1021Q1155.0 1021 1146.5 1029.5Q1138.0 1038 1138.0 1046Q1138.0 1059 1169.0 1101.5Q1200.0 1144 1234.0 1176Q1367.0 1307 1541.0 1307Q1679.0 1307 1764.0 1230.5Q1849.0 1154 1849.0 1029Q1849.0 803 1456.0 355L1408.0 300Q1366.0 253 1366.0 233Q1366.0 198 1450.0 198L1614.0 200L1710.0 201Q1774.0 204 1835.0 241.0Q1896.0 278 1926.0 333Q1935.0 348 1947.0 348Z" transform="matrix(0.006024 0 0 -0.006024 143.35 48.63)" fill="#15130f"/><path d="M250.0 450Q250.0 349 278.0 264.5Q306.0 180 358.5 135.0Q411.0 90 467.0 90Q524.0 90 576.5 135.0Q629.0 180 657.0 264.5Q685.0 349 685.0 450Q685.0 541 657.0 625.5Q629.0 710 576.5 755.0Q524.0 800 467.0 800Q411.0 800 358.5 755.0Q306.0 710 278.0 625.5Q250.0 541 250.0 450ZM800.0 729Q817.0 704 831.0 676Q885.0 567 885.0 450Q885.0 323 831.0 214.5Q777.0 106 676.5 48.0Q576.0 -10 467.0 -10Q359.0 -10 258.5 48.0Q158.0 106 104.0 214.5Q50.0 323 50.0 450Q50.0 567 104.0 675.5Q158.0 784 258.5 842.0Q359.0 900 467.0 900Q576.0 900 677.0 842Q706.0 825 732.0 803L1082.0 1153Q905.0 1153 658.0 1223L693.0 1259Q1117.0 1259 1400.0 1400Q1259.0 1117 1259.0 693L1223.0 658Q1153.0 905 1153.0 1082Z" transform="matrix(0.009268 0 0 -0.009268 42.53 390.31)" fill="#15130f"/><path d="M548.0 750Q533.0 984 370.0 1200Q330.0 1250 250.0 1305.0Q170.0 1360 100.0 1360H50.0V1400H402.0Q440.0 1370 476.0 1337Q731.0 1091 749.0 750H951.0Q969.0 1091 1224.0 1337Q1260.0 1370 1298.0 1400H1650.0V1360H1600.0Q1530.0 1360 1450.0 1305.0Q1370.0 1250 1330.0 1200Q1167.0 984 1152.0 750H1600.0V650H1152.0Q1168.0 413 1340.0 190Q1378.0 145 1450.0 95Q1530.0 40 1600.0 40H1650.0V0H1301.0Q1262.0 29 1227.0 63Q969.0 308 951.0 650H749.0Q731.0 308 473.0 63Q438.0 29 399.0 0H50.0V40H100.0Q170.0 40 250.0 95Q322.0 145 360.0 190Q532.0 413 548.0 650H100.0V750Z" transform="matrix(0.009268 0 0 -0.009268 242.87 390.35)" fill="#15130f"/><path d="M49.0 -5Q38.0 -5 31.5 -1.0Q25.0 3 25.0 9Q25.0 22 51.0 28Q87.0 37 102.5 50.5Q118.0 64 118.0 97V550Q118.0 584 104.5 598.0Q91.0 612 54.0 620Q40.0 623 34.0 628.5Q28.0 634 28.0 640Q28.0 647 34.5 650.5Q41.0 654 52.0 654Q81.0 654 107.5 653.0Q134.0 652 159.0 651.0Q184.0 650 211.0 650Q257.0 650 308.5 651.0Q360.0 652 401.0 652Q434.0 653 455.5 655.0Q477.0 657 481.0 657Q488.0 657 495.5 654.0Q503.0 651 504.0 642Q508.0 609 514.0 577.0Q520.0 545 520.0 521Q520.0 512 515.5 507.5Q511.0 503 506.0 503Q501.0 503 497.0 506.5Q493.0 510 490.0 517Q482.0 540 475.0 557.0Q468.0 574 459.0 583Q446.0 597 429.0 605.0Q412.0 613 388.0 613H295.0Q277.0 613 262.0 602.5Q247.0 592 247.0 573V377Q247.0 366 253.5 360.0Q260.0 354 269.0 354H361.0Q388.0 354 399.5 369.0Q411.0 384 419.0 410Q426.0 430 438.0 430Q443.0 430 447.0 424.5Q451.0 419 451.0 410Q450.0 400 449.0 386.0Q448.0 372 447.5 358.0Q447.0 344 447.0 333Q447.0 321 447.5 306.0Q448.0 291 448.5 276.5Q449.0 262 450.0 252Q451.0 241 448.5 235.0Q446.0 229 440.0 229Q424.0 229 417.0 257Q409.0 285 398.0 299.0Q387.0 313 368.0 313H274.0Q261.0 313 254.0 308.0Q247.0 303 247.0 289V99Q247.0 66 261.0 53.0Q275.0 40 304.0 40H386.0Q411.0 40 431.5 45.0Q452.0 50 467.0 61Q484.0 73 497.5 93.5Q511.0 114 524.0 139Q528.0 147 532.0 149.5Q536.0 152 542.0 152Q547.0 151 549.5 146.0Q552.0 141 552.0 135Q552.0 121 547.0 99.0Q542.0 77 534.5 53.5Q527.0 30 521.0 10Q518.0 3 513.0 -0.5Q508.0 -4 501.0 -4Q477.0 -4 439.5 -3.5Q402.0 -3 358.0 -2.0Q314.0 -1 268.0 -0.5Q222.0 0 180.0 0Q159.0 0 137.5 -1.0Q116.0 -2 94.0 -3.5Q72.0 -5 49.0 -5ZM785.0 -15Q742.0 -15 703.5 -4.0Q665.0 7 633.0 29Q627.0 34 622.0 39.5Q617.0 45 614.0 52Q606.0 77 603.0 113.5Q600.0 150 601.0 184Q601.0 191 606.5 194.0Q612.0 197 620.0 197Q628.0 197 632.5 194.5Q637.0 192 639.0 185Q661.0 110 703.0 68.0Q745.0 26 798.0 26Q831.0 26 854.0 41.0Q877.0 56 889.0 80.0Q901.0 104 901.0 132Q901.0 167 888.5 190.0Q876.0 213 851.0 231.5Q826.0 250 788.0 271Q747.0 295 708.0 321.5Q669.0 348 644.0 384.5Q619.0 421 619.0 475Q619.0 531 647.5 573.5Q676.0 616 727.0 640.0Q778.0 664 845.0 664Q882.0 664 914.0 656.0Q946.0 648 965.0 640Q976.0 636 981.5 630.0Q987.0 624 990.0 611Q996.0 590 1000.5 561.0Q1005.0 532 1005.0 500Q1005.0 488 987.0 488Q979.0 488 971.0 492.0Q963.0 496 961.0 503Q943.0 561 911.5 591.0Q880.0 621 834.0 621Q803.0 621 781.0 610.5Q759.0 600 746.0 578.5Q733.0 557 733.0 523Q733.0 497 750.5 475.0Q768.0 453 799.5 432.0Q831.0 411 870.0 386Q918.0 358 950.5 329.5Q983.0 301 1000.0 266.5Q1017.0 232 1017.0 185Q1017.0 119 988.0 74.5Q959.0 30 907.0 7.5Q855.0 -15 785.0 -15ZM1460.0 -14Q1385.0 -14 1318.0 9.5Q1251.0 33 1199.5 77.0Q1148.0 121 1118.5 182.5Q1089.0 244 1089.0 319Q1089.0 389 1118.0 451.0Q1147.0 513 1200.0 561.0Q1253.0 609 1326.5 636.5Q1400.0 664 1488.0 664Q1522.0 664 1552.5 659.5Q1583.0 655 1612.0 648.5Q1641.0 642 1669.0 632Q1680.0 628 1686.5 621.0Q1693.0 614 1694.0 602Q1698.0 572 1700.0 542.5Q1702.0 513 1702.0 484Q1703.0 474 1695.0 469.5Q1687.0 465 1678.0 468.5Q1669.0 472 1665.0 483Q1657.0 511 1646.5 535.5Q1636.0 560 1615.0 577Q1592.0 596 1557.0 607.5Q1522.0 619 1475.0 619Q1421.0 619 1377.0 597.0Q1333.0 575 1301.5 536.0Q1270.0 497 1253.0 448.0Q1236.0 399 1236.0 345Q1236.0 281 1251.5 224.0Q1267.0 167 1298.5 123.5Q1330.0 80 1375.0 55.5Q1420.0 31 1478.0 31Q1552.0 31 1598.0 63.0Q1644.0 95 1676.0 158Q1684.0 174 1698.0 173.5Q1712.0 173 1712.0 157Q1712.0 145 1709.0 127.0Q1706.0 109 1700.5 88.5Q1695.0 68 1688.0 48Q1684.0 36 1678.0 30.0Q1672.0 24 1660.0 19Q1622.0 3 1570.5 -5.5Q1519.0 -14 1460.0 -14ZM1788.0 -5Q1776.0 -5 1768.0 -1.5Q1760.0 2 1760.0 10Q1760.0 19 1767.5 24.0Q1775.0 29 1787.0 33Q1816.0 41 1837.5 57.5Q1859.0 74 1872.0 103Q1897.0 162 1920.0 216.5Q1943.0 271 1964.0 325.0Q1985.0 379 2006.5 435.0Q2028.0 491 2050.0 553Q2061.0 584 2065.0 601.0Q2069.0 618 2072.0 626Q2087.0 630 2100.0 634.0Q2113.0 638 2129.0 644Q2143.0 651 2153.0 662.0Q2163.0 673 2168.0 679Q2171.0 681 2174.0 681.5Q2177.0 682 2180.0 677Q2183.0 671 2185.0 665.0Q2187.0 659 2189.0 652Q2211.0 581 2234.5 508.5Q2258.0 436 2281.0 365.5Q2304.0 295 2325.5 230.5Q2347.0 166 2365.0 112Q2374.0 85 2387.5 69.0Q2401.0 53 2417.5 44.5Q2434.0 36 2454.0 31Q2467.0 28 2474.0 23.0Q2481.0 18 2481.0 9Q2481.0 3 2474.5 0.0Q2468.0 -3 2458.0 -3Q2440.0 -3 2412.5 -2.0Q2385.0 -1 2356.0 0.5Q2327.0 2 2304.0 2Q2284.0 2 2259.5 1.0Q2235.0 0 2210.5 -1.0Q2186.0 -2 2169.0 -2Q2159.0 -2 2151.5 1.5Q2144.0 5 2144.0 12Q2144.0 20 2152.0 25.5Q2160.0 31 2171.0 33Q2207.0 39 2223.0 51.5Q2239.0 64 2235.0 88Q2232.0 105 2226.0 128.5Q2220.0 152 2213.5 177.5Q2207.0 203 2200.0 224Q2198.0 232 2194.0 235.5Q2190.0 239 2179.0 239H1999.0Q1992.0 239 1988.0 234.5Q1984.0 230 1982.0 221Q1978.0 208 1972.5 191.5Q1967.0 175 1961.5 157.5Q1956.0 140 1951.5 125.0Q1947.0 110 1945.0 99Q1940.0 72 1954.5 56.5Q1969.0 41 2005.0 32Q2032.0 25 2032.0 11Q2032.0 5 2025.5 1.5Q2019.0 -2 2007.0 -2Q1984.0 -2 1959.0 -0.5Q1934.0 1 1904.0 1Q1874.0 1 1845.5 -2.0Q1817.0 -5 1788.0 -5ZM2026.0 285H2165.0Q2179.0 285 2179.0 291Q2179.0 294 2178.5 296.0Q2178.0 298 2177.0 302L2107.0 533Q2103.0 547 2100.0 547Q2098.0 547 2093.0 534L2009.0 302Q2007.0 297 2007.0 294Q2007.0 289 2012.5 287.0Q2018.0 285 2026.0 285ZM2517.0 -4Q2508.0 -4 2501.0 -0.5Q2494.0 3 2494.0 9Q2494.0 24 2519.0 29Q2557.0 37 2573.0 51.0Q2589.0 65 2589.0 98V538Q2589.0 576 2576.5 594.0Q2564.0 612 2528.0 620Q2514.0 623 2508.0 628.5Q2502.0 634 2502.0 640Q2502.0 647 2508.5 650.5Q2515.0 654 2526.0 654Q2550.0 654 2570.5 653.5Q2591.0 653 2610.0 652.0Q2629.0 651 2649.0 651Q2671.0 651 2690.5 653.0Q2710.0 655 2730.5 657.0Q2751.0 659 2778.0 659Q2897.0 659 2968.0 609.0Q3039.0 559 3039.0 471Q3039.0 409 3013.5 356.5Q2988.0 304 2935.5 272.0Q2883.0 240 2803.0 240Q2778.0 240 2765.0 247.5Q2752.0 255 2752.0 264Q2752.0 270 2758.5 274.5Q2765.0 279 2770.0 279Q2779.0 279 2787.5 277.5Q2796.0 276 2813.0 276Q2860.0 276 2884.5 324.0Q2909.0 372 2909.0 452Q2909.0 540 2873.5 580.5Q2838.0 621 2778.0 621Q2750.0 621 2734.5 609.5Q2719.0 598 2719.0 573L2718.0 104Q2718.0 71 2734.5 54.5Q2751.0 38 2791.0 29Q2804.0 27 2810.0 22.5Q2816.0 18 2816.0 10Q2816.0 3 2810.5 0.0Q2805.0 -3 2794.0 -3Q2771.0 -3 2747.0 -1.5Q2723.0 0 2700.5 1.0Q2678.0 2 2658.0 2Q2636.0 2 2612.5 1.0Q2589.0 0 2565.0 -2.0Q2541.0 -4 2517.0 -4ZM3113.0 -5Q3102.0 -5 3095.5 -1.0Q3089.0 3 3089.0 9Q3089.0 22 3115.0 28Q3151.0 37 3166.5 50.5Q3182.0 64 3182.0 97V550Q3182.0 584 3168.5 598.0Q3155.0 612 3118.0 620Q3104.0 623 3098.0 628.5Q3092.0 634 3092.0 640Q3092.0 647 3098.5 650.5Q3105.0 654 3116.0 654Q3145.0 654 3171.5 653.0Q3198.0 652 3223.0 651.0Q3248.0 650 3275.0 650Q3321.0 650 3372.5 651.0Q3424.0 652 3465.0 652Q3498.0 653 3519.5 655.0Q3541.0 657 3545.0 657Q3552.0 657 3559.5 654.0Q3567.0 651 3568.0 642Q3572.0 609 3578.0 577.0Q3584.0 545 3584.0 521Q3584.0 512 3579.5 507.5Q3575.0 503 3570.0 503Q3565.0 503 3561.0 506.5Q3557.0 510 3554.0 517Q3546.0 540 3539.0 557.0Q3532.0 574 3523.0 583Q3510.0 597 3493.0 605.0Q3476.0 613 3452.0 613H3359.0Q3341.0 613 3326.0 602.5Q3311.0 592 3311.0 573V377Q3311.0 366 3317.5 360.0Q3324.0 354 3333.0 354H3425.0Q3452.0 354 3463.5 369.0Q3475.0 384 3483.0 410Q3490.0 430 3502.0 430Q3507.0 430 3511.0 424.5Q3515.0 419 3515.0 410Q3514.0 400 3513.0 386.0Q3512.0 372 3511.5 358.0Q3511.0 344 3511.0 333Q3511.0 321 3511.5 306.0Q3512.0 291 3512.5 276.5Q3513.0 262 3514.0 252Q3515.0 241 3512.5 235.0Q3510.0 229 3504.0 229Q3488.0 229 3481.0 257Q3473.0 285 3462.0 299.0Q3451.0 313 3432.0 313H3338.0Q3325.0 313 3318.0 308.0Q3311.0 303 3311.0 289V99Q3311.0 66 3325.0 53.0Q3339.0 40 3368.0 40H3450.0Q3475.0 40 3495.5 45.0Q3516.0 50 3531.0 61Q3548.0 73 3561.5 93.5Q3575.0 114 3588.0 139Q3592.0 147 3596.0 149.5Q3600.0 152 3606.0 152Q3611.0 151 3613.5 146.0Q3616.0 141 3616.0 135Q3616.0 121 3611.0 99.0Q3606.0 77 3598.5 53.5Q3591.0 30 3585.0 10Q3582.0 3 3577.0 -0.5Q3572.0 -4 3565.0 -4Q3541.0 -4 3503.5 -3.5Q3466.0 -3 3422.0 -2.0Q3378.0 -1 3332.0 -0.5Q3286.0 0 3244.0 0Q3223.0 0 3201.5 -1.0Q3180.0 -2 3158.0 -3.5Q3136.0 -5 3113.0 -5Z" transform="matrix(0.022120 0 0 -0.022120 109.73 391.24)" fill="#15130f"/></svg>