<svg xmlns="http://www.w3.org/2000/svg" viewBox="0 0 300 446"><rect width="300" height="446" fill="#f4ecd8"/><rect x="20.0" y="25.5" width="260" height="395" rx="20.3" fill="#f4ecd8" stroke="#15130f" stroke-width="1.5"/><rect x="36.9" y="42.4" width="226.2" height="354.7" fill="none" stroke="#15130f" stroke-width="0.7"/><g fill="none" stroke="#15130f" stroke-width="0.65" stroke-opacity="0.72" stroke-linecap="round" stroke-linejoin="round"><line x1="150.0" y1="42.4" x2="150.0" y2="210.0"/><line x1="36.9" y1="210.0" x2="263.1" y2="210.0"/></g><path d="M36.9,370.6 H263.1 V397.1 H36.9 Z" fill="#e59680"/><g fill="none" stroke="#15130f" stroke-width="0.8"><line x1="36.9" y1="370.6" x2="263.1" y2="370.6"/><line x1="61.6" y1="370.6" x2="61.6" y2="397.1"/><line x1="238.4" y1="370.6" x2="238.4" y2="397.1"/></g><rect x="141.4" y="34.4" width="17.2" height="19.0" fill="#e59680" stroke="#15130f" stroke-width="0.8"/><path d="M923.0 348Q946.0 348 948.0 331L946.0 321L931.0 277Q917.0 236 896.0 192L845.0 85Q815.0 23 792.5 9.5Q770.0 -4 697.0 -4Q653.0 -4 591.0 -1L506.0 4Q458.0 6 371.0 6Q208.0 6 167.0 -1Q139.0 -6 126.0 -6Q95.0 -6 95.0 21Q95.0 40 154.0 106Q246.0 211 365.0 383.0Q484.0 555 541.0 665Q617.0 813 617.0 932Q617.0 1035 559.0 1096.0Q501.0 1157 404.0 1157Q266.0 1157 156.0 1033Q146.0 1021 138.0 1021Q131.0 1021 122.5 1029.5Q114.0 1038 114.0 1046Q114.0 1059 145.0 1101.5Q176.0 1144 210.0 1176Q343.0 1307 517.0 1307Q655.0 1307 740.0 1230.5Q825.0 1154 825.0 1029Q825.0 803 432.0 355L384.0 300Q342.0 253 342.0 233Q342.0 198 426.0 198L590.0 200L686.0 201Q750.0 204 811.0 241.0Q872.0 278 902.0 333Q911.0 348 923.0 348Z" transform="matrix(0.006858 0 0 -0.006858 146.42 49.14)" fill="#15130f"/><path d="M250.0 450Q250.0 349 278.0 264.5Q306.0 180 358.5 135.0Q411.0 90 467.0 90Q524.0 90 576.5 135.0Q629.0 180 657.0 264.5Q685.0 349 685.0 450Q685.0 541 657.0 625.5Q629.0 710 576.5 755.0Q524.0 800 467.0 800Q411.0 800 358.5 755.0Q306.0 710 278.0 625.5Q250.0 541 250.0 450ZM800.0 729Q817.0 704 831.0 676Q885.0 567 885.0 450Q885.0 323 831.0 214.5Q777.0 106 676.5 48.0Q576.0 -10 467.0 -10Q359.0 -10 258.5 48.0Q158.0 106 104.0 214.5Q50.0 323 50.0 450Q50.0 567 104.0 675.5Q158.0 784 258.5 842.0Q359.0 900 467.0 900Q576.0 900 677.0 842Q706.0 825 732.0 803L1082.0 1153Q905.0 1153 658.0 1223L693.0 1259Q1117.0 1259 1400.0 1400Q1259.0 1117 1259.0 693L1223.0 658Q1153.0 905 1153.0 1082Z" transform="matrix(0.009268 0 0 -0.009268 42.53 390.31)" fill="#15130f"/><path d="M467.0 450Q467.0 349 495.0 264.5Q523.0 180 575.5 135.0Q628.0 90 684.0 90Q741.0 90 793.5 135.0Q846.0 180 874.0 264.5Q902.0 349 902.0 450Q902.0 541 874.0 625.5Q846.0 710 793.5 755.0Q741.0 800 684.0 800Q628.0 800 575.5 755.0Q523.0 710 495.0 625.5Q467.0 541 467.0 450ZM897.0 840Q995.0 782 1048.0 676Q1102.0 567 1102.0 450Q1102.0 323 1048.0 214.5Q994.0 106 893.5 48.0Q793.0 -10 684.0 -10Q576.0 -10 475.5 48.0Q375.0 106 321.0 214.5Q267.0 323 267.0 450Q267.0 567 321.0 676Q374.0 782 472.0 840Q374.0 878 321.0 950Q267.0 1022 267.0 1100Q267.0 1162 239.0 1210.5Q211.0 1259 158.5 1284.5Q106.0 1310 50.0 1310V1410Q158.0 1410 258.5 1371.5Q359.0 1333 413.0 1260.5Q467.0 1188 467.0 1100Q467.0 1048 495.0 999.5Q523.0 951 575.5 925.5Q628.0 900 684.0 900Q741.0 900 793.5 925.5Q846.0 951 874.0 999.5Q902.0 1048 902.0 1100Q902.0 1188 956.0 1260.5Q1010.0 1333 1110.5 1371.5Q1211.0 1410 1320.0 1410V1310Q1263.0 1310 1210.5 1284.5Q1158.0 1259 1130.0 1210.5Q1102.0 1162 1102.0 1100Q1102.0 1022 1048.0 950Q995.0 878 897.0 840Z" transform="matrix(0.009268 0 0 -0.009268 244.40 390.35)" fill="#15130f"/><path d="M379.0 -7Q352.0 -7 314.0 -5.0Q276.0 -3 237.5 -1.5Q199.0 0 174.0 0Q154.0 0 133.5 -0.5Q113.0 -1 91.0 -2.5Q69.0 -4 44.0 -4Q35.0 -4 28.0 -0.5Q21.0 3 21.0 10Q21.0 19 27.5 23.0Q34.0 27 47.0 29Q85.0 37 99.0 51.0Q113.0 65 113.0 98V550Q113.0 584 99.5 598.0Q86.0 612 47.0 620Q34.0 622 27.5 626.5Q21.0 631 21.0 640Q21.0 647 28.0 650.5Q35.0 654 44.0 654Q68.0 654 90.0 653.5Q112.0 653 133.5 651.5Q155.0 650 177.0 650Q192.0 650 217.5 651.5Q243.0 653 272.5 654.5Q302.0 656 328.0 657.5Q354.0 659 370.0 659Q454.0 659 521.0 635.0Q588.0 611 635.5 568.0Q683.0 525 708.0 466.0Q733.0 407 733.0 338Q733.0 269 708.0 207.0Q683.0 145 636.5 97.0Q590.0 49 524.5 21.0Q459.0 -7 379.0 -7ZM364.0 39Q436.0 39 486.5 73.5Q537.0 108 563.0 170.5Q589.0 233 589.0 315Q589.0 383 571.5 438.5Q554.0 494 522.5 532.5Q491.0 571 447.5 592.0Q404.0 613 353.0 613Q317.0 613 292.5 611.0Q268.0 609 255.5 599.5Q243.0 590 243.0 568V128Q243.0 93 258.5 73.5Q274.0 54 301.5 46.5Q329.0 39 364.0 39ZM811.0 -5Q800.0 -5 793.5 -1.0Q787.0 3 787.0 9Q787.0 22 813.0 28Q849.0 37 864.5 50.5Q880.0 64 880.0 97V550Q880.0 584 866.5 598.0Q853.0 612 816.0 620Q802.0 623 796.0 628.5Q790.0 634 790.0 640Q790.0 647 796.5 650.5Q803.0 654 814.0 654Q843.0 654 869.5 653.0Q896.0 652 921.0 651.0Q946.0 650 973.0 650Q1019.0 650 1070.5 651.0Q1122.0 652 1163.0 652Q1196.0 653 1217.5 655.0Q1239.0 657 1243.0 657Q1250.0 657 1257.5 654.0Q1265.0 651 1266.0 642Q1270.0 609 1276.0 577.0Q1282.0 545 1282.0 521Q1282.0 512 1277.5 507.5Q1273.0 503 1268.0 503Q1263.0 503 1259.0 506.5Q1255.0 510 1252.0 517Q1244.0 540 1237.0 557.0Q1230.0 574 1221.0 583Q1208.0 597 1191.0 605.0Q1174.0 613 1150.0 613H1057.0Q1039.0 613 1024.0 602.5Q1009.0 592 1009.0 573V377Q1009.0 366 1015.5 360.0Q1022.0 354 1031.0 354H1123.0Q1150.0 354 1161.5 369.0Q1173.0 384 1181.0 410Q1188.0 430 1200.0 430Q1205.0 430 1209.0 424.5Q1213.0 419 1213.0 410Q1212.0 400 1211.0 386.0Q1210.0 372 1209.5 358.0Q1209.0 344 1209.0 333Q1209.0 321 1209.5 306.0Q1210.0 291 1210.5 276.5Q1211.0 262 1212.0 252Q1213.0 241 1210.5 235.0Q1208.0 229 1202.0 229Q1186.0 229 1179.0 257Q1171.0 285 1160.0 299.0Q1149.0 313 1130.0 313H1036.0Q1023.0 313 1016.0 308.0Q1009.0 303 1009.0 289V99Q1009.0 66 1023.0 53.0Q1037.0 40 1066.0 40H1148.0Q1173.0 40 1193.5 45.0Q1214.0 50 1229.0 61Q1246.0 73 1259.5 93.5Q1273.0 114 1286.0 139Q1290.0 147 1294.0 149.5Q1298.0 152 1304.0 152Q1309.0 151 1311.5 146.0Q1314.0 141 1314.0 135Q1314.0 121 1309.0 99.0Q1304.0 77 1296.5 53.5Q1289.0 30 1283.0 10Q1280.0 3 1275.0 -0.5Q1270.0 -4 1263.0 -4Q1239.0 -4 1201.5 -3.5Q1164.0 -3 1120.0 -2.0Q1076.0 -1 1030.0 -0.5Q984.0 0 942.0 0Q921.0 0 899.5 -1.0Q878.0 -2 856.0 -3.5Q834.0 -5 811.0 -5ZM1378.0 -4Q1369.0 -4 1362.0 -0.5Q1355.0 3 1355.0 9Q1355.0 24 1380.0 29Q1418.0 37 1432.5 51.0Q1447.0 65 1447.0 98V538Q1447.0 576 1434.5 594.0Q1422.0 612 1386.0 620Q1372.0 623 1366.0 628.5Q1360.0 634 1360.0 640Q1360.0 647 1366.5 650.5Q1373.0 654 1384.0 654Q1412.0 654 1438.0 653.0Q1464.0 652 1489.0 651.0Q1514.0 650 1540.0 650Q1576.0 650 1618.5 650.0Q1661.0 650 1699.0 650Q1737.0 650 1767.5 655.5Q1798.0 661 1819.0 661Q1825.0 661 1832.5 657.5Q1840.0 654 1841.0 645Q1843.0 626 1844.0 602.0Q1845.0 578 1845.5 556.0Q1846.0 534 1846.0 521Q1846.0 501 1835.0 501Q1830.0 501 1824.5 505.0Q1819.0 509 1817.0 516Q1811.0 538 1803.5 555.5Q1796.0 573 1785.0 583Q1772.0 598 1754.5 604.0Q1737.0 610 1714.0 610H1623.0Q1599.0 610 1587.5 596.5Q1576.0 583 1576.0 562Q1576.0 544 1576.0 519.0Q1576.0 494 1576.0 472Q1576.0 449 1576.0 423.0Q1576.0 397 1576.0 376Q1576.0 366 1580.5 359.5Q1585.0 353 1595.0 353Q1622.0 353 1649.5 354.0Q1677.0 355 1698.0 355Q1722.0 355 1735.5 369.0Q1749.0 383 1757.0 403Q1761.0 410 1766.5 415.0Q1772.0 420 1777.0 420Q1782.0 420 1786.5 415.0Q1791.0 410 1790.0 400Q1788.0 381 1786.5 364.5Q1785.0 348 1785.0 334Q1785.0 316 1786.0 302.0Q1787.0 288 1789.0 265Q1790.0 254 1787.5 248.0Q1785.0 242 1779.0 242Q1771.0 242 1764.5 250.0Q1758.0 258 1756.0 266Q1748.0 293 1735.5 303.0Q1723.0 313 1707.0 313Q1695.0 313 1682.5 313.5Q1670.0 314 1659.0 314Q1644.0 314 1628.5 314.0Q1613.0 314 1598.0 313Q1587.0 312 1581.0 306.5Q1575.0 301 1575.0 289Q1575.0 243 1575.5 195.0Q1576.0 147 1577.0 99Q1578.0 68 1594.0 53.0Q1610.0 38 1650.0 29Q1663.0 27 1669.0 22.5Q1675.0 18 1675.0 10Q1675.0 3 1669.5 0.0Q1664.0 -3 1653.0 -3Q1630.0 -3 1605.5 -1.5Q1581.0 0 1558.5 1.0Q1536.0 2 1517.0 2Q1495.0 2 1472.0 1.0Q1449.0 0 1425.5 -2.0Q1402.0 -4 1378.0 -4ZM1917.0 -5Q1906.0 -5 1899.5 -1.0Q1893.0 3 1893.0 9Q1893.0 22 1919.0 28Q1955.0 37 1970.5 50.5Q1986.0 64 1986.0 97V550Q1986.0 584 1972.5 598.0Q1959.0 612 1922.0 620Q1908.0 623 1902.0 628.5Q1896.0 634 1896.0 640Q1896.0 647 1902.5 650.5Q1909.0 654 1920.0 654Q1949.0 654 1975.5 653.0Q2002.0 652 2027.0 651.0Q2052.0 650 2079.0 650Q2125.0 650 2176.5 651.0Q2228.0 652 2269.0 652Q2302.0 653 2323.5 655.0Q2345.0 657 2349.0 657Q2356.0 657 2363.5 654.0Q2371.0 651 2372.0 642Q2376.0 609 2382.0 577.0Q2388.0 545 2388.0 521Q2388.0 512 2383.5 507.5Q2379.0 503 2374.0 503Q2369.0 503 2365.0 506.5Q2361.0 510 2358.0 517Q2350.0 540 2343.0 557.0Q2336.0 574 2327.0 583Q2314.0 597 2297.0 605.0Q2280.0 613 2256.0 613H2163.0Q2145.0 613 2130.0 602.5Q2115.0 592 2115.0 573V377Q2115.0 366 2121.5 360.0Q2128.0 354 2137.0 354H2229.0Q2256.0 354 2267.5 369.0Q2279.0 384 2287.0 410Q2294.0 430 2306.0 430Q2311.0 430 2315.0 424.5Q2319.0 419 2319.0 410Q2318.0 400 2317.0 386.0Q2316.0 372 2315.5 358.0Q2315.0 344 2315.0 333Q2315.0 321 2315.5 306.0Q2316.0 291 2316.5 276.5Q2317.0 262 2318.0 252Q2319.0 241 2316.5 235.0Q2314.0 229 2308.0 229Q2292.0 229 2285.0 257Q2277.0 285 2266.0 299.0Q2255.0 313 2236.0 313H2142.0Q2129.0 313 2122.0 308.0Q2115.0 303 2115.0 289V99Q2115.0 66 2129.0 53.0Q2143.0 40 2172.0 40H2254.0Q2279.0 40 2299.5 45.0Q2320.0 50 2335.0 61Q2352.0 73 2365.5 93.5Q2379.0 114 2392.0 139Q2396.0 147 2400.0 149.5Q2404.0 152 2410.0 152Q2415.0 151 2417.5 146.0Q2420.0 141 2420.0 135Q2420.0 121 2415.0 99.0Q2410.0 77 2402.5 53.5Q2395.0 30 2389.0 10Q2386.0 3 2381.0 -0.5Q2376.0 -4 2369.0 -4Q2345.0 -4 2307.5 -3.5Q2270.0 -3 2226.0 -2.0Q2182.0 -1 2136.0 -0.5Q2090.0 0 2048.0 0Q2027.0 0 2005.5 -1.0Q1984.0 -2 1962.0 -3.5Q1940.0 -5 1917.0 -5ZM3115.0 -18Q3103.0 -18 3075.0 -3.0Q3047.0 12 3018.0 49Q3001.0 68 2976.5 95.5Q2952.0 123 2922.5 156.0Q2893.0 189 2861.0 225.0Q2829.0 261 2797.5 297.0Q2766.0 333 2736.0 366.0Q2706.0 399 2681.0 426.5Q2656.0 454 2639.0 474Q2635.0 479 2630.5 482.5Q2626.0 486 2623.0 486Q2619.0 486 2617.0 479.0Q2615.0 472 2615.0 466Q2615.0 420 2615.5 357.0Q2616.0 294 2616.0 229.0Q2616.0 164 2616.0 109Q2616.0 78 2634.0 58.0Q2652.0 38 2691.0 29Q2703.0 27 2711.5 22.5Q2720.0 18 2720.0 10Q2720.0 3 2712.0 0.0Q2704.0 -3 2694.0 -3Q2667.0 -3 2651.0 -2.0Q2635.0 -1 2622.0 0.0Q2609.0 1 2589.0 1Q2568.0 1 2551.5 0.0Q2535.0 -1 2522.0 -2.5Q2509.0 -4 2497.0 -4Q2487.0 -4 2479.0 -0.5Q2471.0 3 2471.0 9Q2471.0 17 2478.5 21.5Q2486.0 26 2499.0 30Q2525.0 38 2537.5 59.5Q2550.0 81 2553.0 111Q2557.0 149 2561.0 210.5Q2565.0 272 2568.5 349.0Q2572.0 426 2572.0 508Q2572.0 560 2545.5 583.0Q2519.0 606 2479.0 620Q2472.0 622 2461.0 628.0Q2450.0 634 2450.0 643Q2450.0 652 2458.0 655.0Q2466.0 658 2475.0 658Q2496.0 658 2517.0 657.0Q2538.0 656 2559.5 655.5Q2581.0 655 2604.5 654.0Q2628.0 653 2655.0 653Q2664.0 653 2668.5 649.5Q2673.0 646 2677.0 640Q2693.0 621 2718.0 592.5Q2743.0 564 2772.5 529.5Q2802.0 495 2834.5 457.0Q2867.0 419 2899.5 381.0Q2932.0 343 2962.0 308.5Q2992.0 274 3016.5 245.5Q3041.0 217 3057.0 199Q3061.0 195 3066.5 189.0Q3072.0 183 3076.0 183Q3084.0 183 3085.0 200Q3085.0 226 3085.0 266.5Q3085.0 307 3085.5 356.5Q3086.0 406 3085.5 458.0Q3085.0 510 3084.0 558Q3083.0 583 3063.5 597.5Q3044.0 612 3015.0 618Q3003.0 621 2992.5 625.5Q2982.0 630 2982.0 639Q2982.0 646 2992.5 649.0Q3003.0 652 3012.0 652Q3032.0 652 3045.5 652.0Q3059.0 652 3071.0 651.5Q3083.0 651 3096.0 651Q3118.0 651 3132.0 651.5Q3146.0 652 3162.5 653.0Q3179.0 654 3206.0 654Q3218.0 654 3225.5 650.5Q3233.0 647 3233.0 641Q3233.0 626 3204.0 620Q3169.0 613 3154.5 601.0Q3140.0 589 3139.0 561Q3139.0 536 3138.5 497.0Q3138.0 458 3137.0 412.0Q3136.0 366 3134.5 318.0Q3133.0 270 3132.5 224.0Q3132.0 178 3132.0 141Q3132.0 117 3134.0 92.0Q3136.0 67 3138.5 47.5Q3141.0 28 3141.0 20Q3141.0 -2 3134.0 -10.0Q3127.0 -18 3115.0 -18ZM3457.0 -15Q3414.0 -15 3375.5 -4.0Q3337.0 7 3305.0 29Q3299.0 34 3294.0 39.5Q3289.0 45 3286.0 52Q3278.0 77 3275.0 113.5Q3272.0 150 3273.0 184Q3273.0 191 3278.5 194.0Q3284.0 197 3292.0 197Q3300.0 197 3304.5 194.5Q3309.0 192 3311.0 185Q3333.0 110 3375.0 68.0Q3417.0 26 3470.0 26Q3503.0 26 3526.0 41.0Q3549.0 56 3561.0 80.0Q3573.0 104 3573.0 132Q3573.0 167 3560.5 190.0Q3548.0 213 3523.0 231.5Q3498.0 250 3460.0 271Q3419.0 295 3380.0 321.5Q3341.0 348 3316.0 384.5Q3291.0 421 3291.0 475Q3291.0 531 3319.5 573.5Q3348.0 616 3399.0 640.0Q3450.0 664 3517.0 664Q3554.0 664 3586.0 656.0Q3618.0 648 3637.0 640Q3648.0 636 3653.5 630.0Q3659.0 624 3662.0 611Q3668.0 590 3672.5 561.0Q3677.0 532 3677.0 500Q3677.0 488 3659.0 488Q3651.0 488 3643.0 492.0Q3635.0 496 3633.0 503Q3615.0 561 3583.5 591.0Q3552.0 621 3506.0 621Q3475.0 621 3453.0 610.5Q3431.0 600 3418.0 578.5Q3405.0 557 3405.0 523Q3405.0 497 3422.5 475.0Q3440.0 453 3471.5 432.0Q3503.0 411 3542.0 386Q3590.0 358 3622.5 329.5Q3655.0 301 3672.0 266.5Q3689.0 232 3689.0 185Q3689.0 119 3660.0 74.5Q3631.0 30 3579.0 7.5Q3527.0 -15 3457.0 -15ZM3776.0 -5Q3765.0 -5 3758.5 -1.0Q3752.0 3 3752.0 9Q3752.0 22 3778.0 28Q3814.0 37 3829.5 50.5Q3845.0 64 3845.0 97V550Q3845.0 584 3831.5 598.0Q3818.0 612 3781.0 620Q3767.0 623 3761.0 628.5Q3755.0 634 3755.0 640Q3755.0 647 3761.5 650.5Q3768.0 654 3779.0 654Q3808.0 654 3834.5 653.0Q3861.0 652 3886.0 651.0Q3911.0 650 3938.0 650Q3984.0 650 4035.5 651.0Q4087.0 652 4128.0 652Q4161.0 653 4182.5 655.0Q4204.0 657 4208.0 657Q4215.0 657 4222.5 654.0Q4230.0 651 4231.0 642Q4235.0 609 4241.0 577.0Q4247.0 545 4247.0 521Q4247.0 512 4242.5 507.5Q4238.0 503 4233.0 503Q4228.0 503 4224.0 506.5Q4220.0 510 4217.0 517Q4209.0 540 4202.0 557.0Q4195.0 574 4186.0 583Q4173.0 597 4156.0 605.0Q4139.0 613 4115.0 613H4022.0Q4004.0 613 3989.0 602.5Q3974.0 592 3974.0 573V377Q3974.0 366 3980.5 360.0Q3987.0 354 3996.0 354H4088.0Q4115.0 354 4126.5 369.0Q4138.0 384 4146.0 410Q4153.0 430 4165.0 430Q4170.0 430 4174.0 424.5Q4178.0 419 4178.0 410Q4177.0 400 4176.0 386.0Q4175.0 372 4174.5 358.0Q4174.0 344 4174.0 333Q4174.0 321 4174.5 306.0Q4175.0 291 4175.5 276.5Q4176.0 262 4177.0 252Q4178.0 241 4175.5 235.0Q4173.0 229 4167.0 229Q4151.0 229 4144.0 257Q4136.0 285 4125.0 299.0Q4114.0 313 4095.0 313H4001.0Q3988.0 313 3981.0 308.0Q3974.0 303 3974.0 289V99Q3974.0 66 3988.0 53.0Q4002.0 40 4031.0 40H4113.0Q4138.0 40 4158.5 45.0Q4179.0 50 4194.0 61Q4211.0 73 4224.5 93.5Q4238.0 114 4251.0 139Q4255.0 147 4259.0 149.5Q4263.0 152 4269.0 152Q4274.0 151 4276.5 146.0Q4279.0 141 4279.0 135Q4279.0 121 4274.0 99.0Q4269.0 77 4261.5 53.5Q4254.0 30 4248.0 10Q4245.0 3 4240.0 -0.5Q4235.0 -4 4228.0 -4Q4204.0 -4 4166.5 -3.5Q4129.0 -3 4085.0 -2.0Q4041.0 -1 3995.0 -0.5Q3949.0 0 3907.0 0Q3886.0 0 3864.5 -1.0Q3843.0 -2 3821.0 -3.5Q3799.0 -5 3776.0 -5Z" transform="matrix(0.022120 0 0 -0.022120 102.44 391.01)" fill="#15130f"/></svg>