<svg xmlns="http://www.w3.org/2000/svg" viewBox="0 0 300 446"><rect width="300" height="446" fill="#f4ecd8"/><rect x="20.0" y="25.5" width="260" height="395" rx="20.3" fill="#f4ecd8" stroke="#15130f" stroke-width="1.5"/><rect x="36.9" y="42.4" width="226.2" height="354.7" fill="none" stroke="#15130f" stroke-width="0.7"/><g fill="none" stroke="#15130f" stroke-width="0.65" stroke-opacity="0.72" stroke-linecap="round" stroke-linejoin="round"><line x1="150.0" y1="42.4" x2="150.0" y2="210.0"/><line x1="36.9" y1="210.0" x2="263.1" y2="210.0"/></g><path d="M36.9,370.6 H263.1 V397.1 H36.9 Z" fill="#e59680"/><g fill="none" stroke="#15130f" stroke-width="0.8"><line x1="36.9" y1="370.6" x2="263.1" y2="370.6"/><line x1="61.6" y1="370.6" x2="61.6" y2="397.1"/><line x1="238.4" y1="370.6" x2="238.4" y2="397.1"/></g><rect x="141.4" y="34.4" width="17.2" height="19.0" fill="#e59680" stroke="#15130f" stroke-width="0.8"/><path d="M511.0 1307Q708.0 1307 834.5 1159.0Q961.0 1011 961.0 779Q961.0 491 764.5 263.5Q568.0 36 272.0 -19L193.0 -34Q180.0 -36 170.0 -36Q144.0 -36 145.0 -7Q146.0 8 153.5 12.0Q161.0 16 206.0 26Q348.0 58 482.0 175.0Q616.0 292 661.0 422L680.0 478Q690.0 507 690.0 524Q690.0 554 668.0 553Q658.0 552 642.0 541Q589.0 503 512.5 475.5Q436.0 448 384.0 448Q245.0 448 150.5 558.5Q56.0 669 56.0 830Q56.0 1039 184.0 1173.0Q312.0 1307 511.0 1307ZM455.0 1245Q364.0 1245 307.5 1166.5Q251.0 1088 251.0 963Q251.0 787 326.5 675.5Q402.0 564 522.0 564Q619.0 564 684.5 640.5Q750.0 717 750.0 830Q750.0 997 661.5 1121.0Q573.0 1245 455.0 1245Z" transform="matrix(0.006858 0 0 -0.006858 146.51 49.04)" fill="#15130f"/><path d="M250.0 450Q250.0 349 278.0 264.5Q306.0 180 358.5 135.0Q411.0 90 467.0 90Q524.0 90 576.5 135.0Q629.0 180 657.0 264.5Q685.0 349 685.0 450Q685.0 541 657.0 625.5Q629.0 710 576.5 755.0Q524.0 800 467.0 800Q411.0 800 358.5 755.0Q306.0 710 278.0 625.5Q250.0 541 250.0 450ZM800.0 729Q817.0 704 831.0 676Q885.0 567 885.0 450Q885.0 323 831.0 214.5Q777.0 106 676.5 48.0Q576.0 -10 467.0 -10Q359.0 -10 258.5 48.0Q158.0 106 104.0 214.5Q50.0 323 50.0 450Q50.0 567 104.0 675.5Q158.0 784 258.5 842.0Q359.0 900 467.0 900Q576.0 900 677.0 842Q706.0 825 732.0 803L1082.0 1153Q905.0 1153 658.0 1223L693.0 1259Q1117.0 1259 1400.0 1400Q1259.0 1117 1259.0 693L1223.0 658Q1153.0 905 1153.0 1082Z" transform="matrix(0.009268 0 0 -0.009268 42.53 390.31)" fill="#15130f"/><path d="M525.0 394 121.0 -10 50.0 61 454.0 465 136.0 783 277.0 924 595.0 606 1152.0 1163Q975.0 1163 728.0 1234L763.0 1269Q1188.0 1269 1470.0 1410Q1329.0 1128 1329.0 703L1294.0 668Q1223.0 915 1223.0 1092L666.0 535L984.0 217L843.0 76Z" transform="matrix(0.007599 0 0 -0.007599 244.97 389.19)" fill="#15130f"/><path d="M379.0 -7Q352.0 -7 314.0 -5.0Q276.0 -3 237.5 -1.5Q199.0 0 174.0 0Q154.0 0 133.5 -0.5Q113.0 -1 91.0 -2.5Q69.0 -4 44.0 -4Q35.0 -4 28.0 -0.5Q21.0 3 21.0 10Q21.0 19 27.5 23.0Q34.0 27 47.0 29Q85.0 37 99.0 51.0Q113.0 65 113.0 98V550Q113.0 584 99.5 598.0Q86.0 612 47.0 620Q34.0 622 27.5 626.5Q21.0 631 21.0 640Q21.0 647 28.0 650.5Q35.0 654 44.0 654Q68.0 654 90.0 653.5Q112.0 653 133.5 651.5Q155.0 650 177.0 650Q192.0 650 217.5 651.5Q243.0 653 272.5 654.5Q302.0 656 328.0 657.5Q354.0 659 370.0 659Q454.0 659 521.0 635.0Q588.0 611 635.5 568.0Q683.0 525 708.0 466.0Q733.0 407 733.0 338Q733.0 269 708.0 207.0Q683.0 145 636.5 97.0Q590.0 49 524.5 21.0Q459.0 -7 379.0 -7ZM364.0 39Q436.0 39 486.5 73.5Q537.0 108 563.0 170.5Q589.0 233 589.0 315Q589.0 383 571.5 438.5Q554.0 494 522.5 532.5Q491.0 571 447.5 592.0Q404.0 613 353.0 613Q317.0 613 292.5 611.0Q268.0 609 255.5 599.5Q243.0 590 243.0 568V128Q243.0 93 258.5 73.5Q274.0 54 301.5 46.5Q329.0 39 364.0 39ZM1138.0 -14Q1070.0 -14 1008.0 9.5Q946.0 33 898.5 76.5Q851.0 120 823.5 180.5Q796.0 241 796.0 315Q796.0 383 818.5 445.5Q841.0 508 885.5 557.0Q930.0 606 995.5 635.0Q1061.0 664 1147.0 664Q1215.0 664 1276.5 640.5Q1338.0 617 1386.0 573.5Q1434.0 530 1461.5 469.5Q1489.0 409 1489.0 335Q1489.0 268 1466.5 205.0Q1444.0 142 1399.5 93.0Q1355.0 44 1289.5 15.0Q1224.0 -14 1138.0 -14ZM1155.0 30Q1218.0 30 1260.5 62.0Q1303.0 94 1324.5 151.5Q1346.0 209 1346.0 284Q1346.0 348 1333.0 408.0Q1320.0 468 1293.0 515.5Q1266.0 563 1225.5 591.0Q1185.0 619 1129.0 619Q1066.0 619 1023.5 587.0Q981.0 555 960.0 498.0Q939.0 441 939.0 366Q939.0 302 952.0 242.0Q965.0 182 991.5 134.0Q1018.0 86 1058.5 58.0Q1099.0 30 1155.0 30ZM1568.0 -4Q1556.0 -4 1549.5 -0.5Q1543.0 3 1543.0 9Q1543.0 17 1551.5 20.5Q1560.0 24 1572.0 27Q1596.0 34 1613.0 54.0Q1630.0 74 1634.0 106Q1642.0 167 1649.5 239.0Q1657.0 311 1663.5 384.0Q1670.0 457 1674.0 521Q1674.0 528 1674.0 537.0Q1674.0 546 1674.0 555Q1673.0 570 1668.5 579.5Q1664.0 589 1653.0 597Q1639.0 607 1624.0 612.5Q1609.0 618 1590.0 622Q1579.0 624 1572.5 629.5Q1566.0 635 1566.0 643Q1566.0 651 1574.0 654.0Q1582.0 657 1595.0 657Q1608.0 657 1630.0 656.0Q1652.0 655 1677.5 653.5Q1703.0 652 1728.0 651.0Q1753.0 650 1772.0 650Q1780.0 650 1786.0 645.0Q1792.0 640 1794.0 633Q1800.0 614 1806.0 596.0Q1812.0 578 1819.0 558L1969.0 191Q1972.0 186 1977.0 185.5Q1982.0 185 1984.0 190L2145.0 548Q2152.0 577 2156.5 599.0Q2161.0 621 2165.0 634Q2168.0 647 2178.0 647H2219.0Q2257.0 649 2299.0 653.0Q2341.0 657 2364.0 657Q2372.0 657 2379.5 654.5Q2387.0 652 2387.0 644Q2387.0 636 2381.0 632.0Q2375.0 628 2363.0 623Q2355.0 621 2344.0 616.5Q2333.0 612 2325.0 608Q2304.0 599 2293.5 585.0Q2283.0 571 2284.0 545Q2285.0 474 2288.0 417.5Q2291.0 361 2293.5 311.5Q2296.0 262 2300.0 210.5Q2304.0 159 2307.0 97Q2309.0 69 2328.5 53.0Q2348.0 37 2381.0 29Q2393.0 26 2400.5 22.0Q2408.0 18 2408.0 10Q2408.0 3 2401.5 0.0Q2395.0 -3 2384.0 -3Q2361.0 -3 2336.0 -2.0Q2311.0 -1 2287.5 0.0Q2264.0 1 2243.0 1Q2223.0 1 2202.0 0.0Q2181.0 -1 2159.0 -2.5Q2137.0 -4 2113.0 -4Q2103.0 -4 2095.5 -0.5Q2088.0 3 2088.0 9Q2088.0 17 2095.5 22.0Q2103.0 27 2115.0 29Q2149.0 36 2162.5 50.0Q2176.0 64 2174.0 97Q2173.0 162 2171.0 222.0Q2169.0 282 2167.0 341.0Q2165.0 400 2162.0 460Q2161.0 468 2157.5 467.5Q2154.0 467 2150.0 459L1946.0 -1Q1942.0 -12 1933.0 -10.5Q1924.0 -9 1921.0 -1Q1875.0 115 1824.5 228.5Q1774.0 342 1725.0 459Q1722.0 467 1716.5 465.0Q1711.0 463 1710.0 454Q1705.0 398 1701.0 338.5Q1697.0 279 1696.0 220.0Q1695.0 161 1695.0 103Q1695.0 76 1712.5 57.0Q1730.0 38 1766.0 29Q1778.0 27 1786.5 22.5Q1795.0 18 1795.0 10Q1795.0 3 1787.0 0.0Q1779.0 -3 1769.0 -3Q1742.0 -3 1728.0 -2.0Q1714.0 -1 1702.0 0.0Q1690.0 1 1670.0 1Q1649.0 1 1630.5 0.0Q1612.0 -1 1596.0 -2.5Q1580.0 -4 1568.0 -4ZM2475.0 -4Q2466.0 -4 2459.0 -0.5Q2452.0 3 2452.0 9Q2452.0 24 2477.0 29Q2515.0 37 2532.0 51.0Q2549.0 65 2549.0 97V551Q2549.0 584 2535.0 598.0Q2521.0 612 2482.0 620Q2457.0 625 2457.0 641Q2457.0 647 2464.0 650.5Q2471.0 654 2480.0 654Q2504.0 654 2527.0 653.0Q2550.0 652 2571.5 651.0Q2593.0 650 2615.0 650Q2636.0 650 2657.5 651.0Q2679.0 652 2702.0 653.0Q2725.0 654 2749.0 654Q2759.0 654 2765.0 650.5Q2771.0 647 2771.0 640Q2771.0 632 2764.5 627.5Q2758.0 623 2746.0 620Q2706.0 610 2692.0 596.0Q2678.0 582 2678.0 550V98Q2678.0 67 2694.5 53.0Q2711.0 39 2749.0 29Q2762.0 26 2768.5 22.0Q2775.0 18 2775.0 10Q2775.0 3 2769.0 0.0Q2763.0 -3 2753.0 -3Q2729.0 -3 2705.0 -2.0Q2681.0 -1 2658.5 0.0Q2636.0 1 2615.0 1Q2593.0 1 2570.0 0.0Q2547.0 -1 2523.0 -2.5Q2499.0 -4 2475.0 -4ZM3467.0 -18Q3455.0 -18 3427.0 -3.0Q3399.0 12 3370.0 49Q3353.0 68 3328.5 95.5Q3304.0 123 3274.5 156.0Q3245.0 189 3213.0 225.0Q3181.0 261 3149.5 297.0Q3118.0 333 3088.0 366.0Q3058.0 399 3033.0 426.5Q3008.0 454 2991.0 474Q2987.0 479 2982.5 482.5Q2978.0 486 2975.0 486Q2971.0 486 2969.0 479.0Q2967.0 472 2967.0 466Q2967.0 420 2967.5 357.0Q2968.0 294 2968.0 229.0Q2968.0 164 2968.0 109Q2968.0 78 2986.0 58.0Q3004.0 38 3043.0 29Q3055.0 27 3063.5 22.5Q3072.0 18 3072.0 10Q3072.0 3 3064.0 0.0Q3056.0 -3 3046.0 -3Q3019.0 -3 3003.0 -2.0Q2987.0 -1 2974.0 0.0Q2961.0 1 2941.0 1Q2920.0 1 2903.5 0.0Q2887.0 -1 2874.0 -2.5Q2861.0 -4 2849.0 -4Q2839.0 -4 2831.0 -0.5Q2823.0 3 2823.0 9Q2823.0 17 2830.5 21.5Q2838.0 26 2851.0 30Q2877.0 38 2889.5 59.5Q2902.0 81 2905.0 111Q2909.0 149 2913.0 210.5Q2917.0 272 2920.5 349.0Q2924.0 426 2924.0 508Q2924.0 560 2897.5 583.0Q2871.0 606 2831.0 620Q2824.0 622 2813.0 628.0Q2802.0 634 2802.0 643Q2802.0 652 2810.0 655.0Q2818.0 658 2827.0 658Q2848.0 658 2869.0 657.0Q2890.0 656 2911.5 655.5Q2933.0 655 2956.5 654.0Q2980.0 653 3007.0 653Q3016.0 653 3020.5 649.5Q3025.0 646 3029.0 640Q3045.0 621 3070.0 592.5Q3095.0 564 3124.5 529.5Q3154.0 495 3186.5 457.0Q3219.0 419 3251.5 381.0Q3284.0 343 3314.0 308.5Q3344.0 274 3368.5 245.5Q3393.0 217 3409.0 199Q3413.0 195 3418.5 189.0Q3424.0 183 3428.0 183Q3436.0 183 3437.0 200Q3437.0 226 3437.0 266.5Q3437.0 307 3437.5 356.5Q3438.0 406 3437.5 458.0Q3437.0 510 3436.0 558Q3435.0 583 3415.5 597.5Q3396.0 612 3367.0 618Q3355.0 621 3344.5 625.5Q3334.0 630 3334.0 639Q3334.0 646 3344.5 649.0Q3355.0 652 3364.0 652Q3384.0 652 3397.5 652.0Q3411.0 652 3423.0 651.5Q3435.0 651 3448.0 651Q3470.0 651 3484.0 651.5Q3498.0 652 3514.5 653.0Q3531.0 654 3558.0 654Q3570.0 654 3577.5 650.5Q3585.0 647 3585.0 641Q3585.0 626 3556.0 620Q3521.0 613 3506.5 601.0Q3492.0 589 3491.0 561Q3491.0 536 3490.5 497.0Q3490.0 458 3489.0 412.0Q3488.0 366 3486.5 318.0Q3485.0 270 3484.5 224.0Q3484.0 178 3484.0 141Q3484.0 117 3486.0 92.0Q3488.0 67 3490.5 47.5Q3493.0 28 3493.0 20Q3493.0 -2 3486.0 -10.0Q3479.0 -18 3467.0 -18ZM3619.0 -5Q3607.0 -5 3599.0 -1.5Q3591.0 2 3591.0 10Q3591.0 19 3598.5 24.0Q3606.0 29 3618.0 33Q3647.0 41 3668.5 57.5Q3690.0 74 3703.0 103Q3728.0 162 3751.0 216.5Q3774.0 271 3795.0 325.0Q3816.0 379 3837.5 435.0Q3859.0 491 3881.0 553Q3892.0 584 3896.0 601.0Q3900.0 618 3903.0 626Q3918.0 630 3931.0 634.0Q3944.0 638 3960.0 644Q3974.0 651 3984.0 662.0Q3994.0 673 3999.0 679Q4002.0 681 4005.0 681.5Q4008.0 682 4011.0 677Q4014.0 671 4016.0 665.0Q4018.0 659 4020.0 652Q4042.0 581 4065.5 508.5Q4089.0 436 4112.0 365.5Q4135.0 295 4156.5 230.5Q4178.0 166 4196.0 112Q4205.0 85 4218.5 69.0Q4232.0 53 4248.5 44.5Q4265.0 36 4285.0 31Q4298.0 28 4305.0 23.0Q4312.0 18 4312.0 9Q4312.0 3 4305.5 0.0Q4299.0 -3 4289.0 -3Q4271.0 -3 4243.5 -2.0Q4216.0 -1 4187.0 0.5Q4158.0 2 4135.0 2Q4115.0 2 4090.5 1.0Q4066.0 0 4041.5 -1.0Q4017.0 -2 4000.0 -2Q3990.0 -2 3982.5 1.5Q3975.0 5 3975.0 12Q3975.0 20 3983.0 25.5Q3991.0 31 4002.0 33Q4038.0 39 4054.0 51.5Q4070.0 64 4066.0 88Q4063.0 105 4057.0 128.5Q4051.0 152 4044.5 177.5Q4038.0 203 4031.0 224Q4029.0 232 4025.0 235.5Q4021.0 239 4010.0 239H3830.0Q3823.0 239 3819.0 234.5Q3815.0 230 3813.0 221Q3809.0 208 3803.5 191.5Q3798.0 175 3792.5 157.5Q3787.0 140 3782.5 125.0Q3778.0 110 3776.0 99Q3771.0 72 3785.5 56.5Q3800.0 41 3836.0 32Q3863.0 25 3863.0 11Q3863.0 5 3856.5 1.5Q3850.0 -2 3838.0 -2Q3815.0 -2 3790.0 -0.5Q3765.0 1 3735.0 1Q3705.0 1 3676.5 -2.0Q3648.0 -5 3619.0 -5ZM3857.0 285H3996.0Q4010.0 285 4010.0 291Q4010.0 294 4009.5 296.0Q4009.0 298 4008.0 302L3938.0 533Q3934.0 547 3931.0 547Q3929.0 547 3924.0 534L3840.0 302Q3838.0 297 3838.0 294Q3838.0 289 3843.5 287.0Q3849.0 285 3857.0 285ZM4515.0 -4Q4505.0 -4 4497.5 -0.5Q4490.0 3 4490.0 9Q4490.0 17 4497.0 22.0Q4504.0 27 4517.0 29Q4555.0 37 4573.0 51.5Q4591.0 66 4591.0 99V504Q4591.0 545 4589.0 566.0Q4587.0 587 4583.5 594.5Q4580.0 602 4573.0 603Q4563.0 607 4548.0 608.0Q4533.0 609 4519.0 609H4488.0Q4459.0 609 4432.0 595.5Q4405.0 582 4390.0 559Q4386.0 553 4377.5 542.0Q4369.0 531 4359.5 522.0Q4350.0 513 4340.0 513Q4333.0 513 4330.5 518.0Q4328.0 523 4328.0 529Q4328.0 541 4334.0 553Q4351.0 587 4359.5 612.5Q4368.0 638 4371.0 673Q4373.0 688 4379.5 692.5Q4386.0 697 4393.0 697Q4399.0 697 4407.5 684.5Q4416.0 672 4423.0 664Q4432.0 655 4455.0 650.5Q4478.0 646 4494.0 646L4863.0 647Q4891.0 647 4910.0 651.5Q4929.0 656 4940.0 661Q4955.0 670 4964.0 679.5Q4973.0 689 4985.0 689Q4990.0 689 4992.5 683.5Q4995.0 678 4995.0 670Q4995.0 665 4994.0 658.5Q4993.0 652 4992.0 647Q4988.0 628 4984.0 613.5Q4980.0 599 4977.5 586.5Q4975.0 574 4975.0 558V541Q4975.0 527 4971.0 517.0Q4967.0 507 4958.0 507Q4950.0 507 4944.5 516.5Q4939.0 526 4933.0 546Q4924.0 578 4903.0 593.5Q4882.0 609 4837.0 609H4769.0Q4750.0 609 4739.5 602.0Q4729.0 595 4724.5 571.5Q4720.0 548 4720.0 499V100Q4720.0 68 4738.0 53.5Q4756.0 39 4795.0 29Q4807.0 26 4814.0 22.0Q4821.0 18 4821.0 10Q4821.0 3 4814.5 0.0Q4808.0 -3 4798.0 -3Q4774.0 -3 4750.0 -2.0Q4726.0 -1 4702.5 0.0Q4679.0 1 4657.0 1Q4635.0 1 4611.5 0.0Q4588.0 -1 4563.5 -2.5Q4539.0 -4 4515.0 -4ZM5033.0 -4Q5024.0 -4 5017.0 -0.5Q5010.0 3 5010.0 9Q5010.0 24 5035.0 29Q5073.0 37 5090.0 51.0Q5107.0 65 5107.0 97V551Q5107.0 584 5093.0 598.0Q5079.0 612 5040.0 620Q5015.0 625 5015.0 641Q5015.0 647 5022.0 650.5Q5029.0 654 5038.0 654Q5062.0 654 5085.0 653.0Q5108.0 652 5129.5 651.0Q5151.0 650 5173.0 650Q5194.0 650 5215.5 651.0Q5237.0 652 5260.0 653.0Q5283.0 654 5307.0 654Q5317.0 654 5323.0 650.5Q5329.0 647 5329.0 640Q5329.0 632 5322.5 627.5Q5316.0 623 5304.0 620Q5264.0 610 5250.0 596.0Q5236.0 582 5236.0 550V98Q5236.0 67 5252.5 53.0Q5269.0 39 5307.0 29Q5320.0 26 5326.5 22.0Q5333.0 18 5333.0 10Q5333.0 3 5327.0 0.0Q5321.0 -3 5311.0 -3Q5287.0 -3 5263.0 -2.0Q5239.0 -1 5216.5 0.0Q5194.0 1 5173.0 1Q5151.0 1 5128.0 0.0Q5105.0 -1 5081.0 -2.5Q5057.0 -4 5033.0 -4ZM5725.0 -14Q5657.0 -14 5595.0 9.5Q5533.0 33 5485.5 76.5Q5438.0 120 5410.5 180.5Q5383.0 241 5383.0 315Q5383.0 383 5405.5 445.5Q5428.0 508 5472.5 557.0Q5517.0 606 5582.5 635.0Q5648.0 664 5734.0 664Q5802.0 664 5863.5 640.5Q5925.0 617 5973.0 573.5Q6021.0 530 6048.5 469.5Q6076.0 409 6076.0 335Q6076.0 268 6053.5 205.0Q6031.0 142 5986.5 93.0Q5942.0 44 5876.5 15.0Q5811.0 -14 5725.0 -14ZM5742.0 30Q5805.0 30 5847.5 62.0Q5890.0 94 5911.5 151.5Q5933.0 209 5933.0 284Q5933.0 348 5920.0 408.0Q5907.0 468 5880.0 515.5Q5853.0 563 5812.5 591.0Q5772.0 619 5716.0 619Q5653.0 619 5610.5 587.0Q5568.0 555 5547.0 498.0Q5526.0 441 5526.0 366Q5526.0 302 5539.0 242.0Q5552.0 182 5578.5 134.0Q5605.0 86 5645.5 58.0Q5686.0 30 5742.0 30ZM6786.0 -18Q6774.0 -18 6746.0 -3.0Q6718.0 12 6689.0 49Q6672.0 68 6647.5 95.5Q6623.0 123 6593.5 156.0Q6564.0 189 6532.0 225.0Q6500.0 261 6468.5 297.0Q6437.0 333 6407.0 366.0Q6377.0 399 6352.0 426.5Q6327.0 454 6310.0 474Q6306.0 479 6301.5 482.5Q6297.0 486 6294.0 486Q6290.0 486 6288.0 479.0Q6286.0 472 6286.0 466Q6286.0 420 6286.5 357.0Q6287.0 294 6287.0 229.0Q6287.0 164 6287.0 109Q6287.0 78 6305.0 58.0Q6323.0 38 6362.0 29Q6374.0 27 6382.5 22.5Q6391.0 18 6391.0 10Q6391.0 3 6383.0 0.0Q6375.0 -3 6365.0 -3Q6338.0 -3 6322.0 -2.0Q6306.0 -1 6293.0 0.0Q6280.0 1 6260.0 1Q6239.0 1 6222.5 0.0Q6206.0 -1 6193.0 -2.5Q6180.0 -4 6168.0 -4Q6158.0 -4 6150.0 -0.5Q6142.0 3 6142.0 9Q6142.0 17 6149.5 21.5Q6157.0 26 6170.0 30Q6196.0 38 6208.5 59.5Q6221.0 81 6224.0 111Q6228.0 149 6232.0 210.5Q6236.0 272 6239.5 349.0Q6243.0 426 6243.0 508Q6243.0 560 6216.5 583.0Q6190.0 606 6150.0 620Q6143.0 622 6132.0 628.0Q6121.0 634 6121.0 643Q6121.0 652 6129.0 655.0Q6137.0 658 6146.0 658Q6167.0 658 6188.0 657.0Q6209.0 656 6230.5 655.5Q6252.0 655 6275.5 654.0Q6299.0 653 6326.0 653Q6335.0 653 6339.5 649.5Q6344.0 646 6348.0 640Q6364.0 621 6389.0 592.5Q6414.0 564 6443.5 529.5Q6473.0 495 6505.5 457.0Q6538.0 419 6570.5 381.0Q6603.0 343 6633.0 308.5Q6663.0 274 6687.5 245.5Q6712.0 217 6728.0 199Q6732.0 195 6737.5 189.0Q6743.0 183 6747.0 183Q6755.0 183 6756.0 200Q6756.0 226 6756.0 266.5Q6756.0 307 6756.5 356.5Q6757.0 406 6756.5 458.0Q6756.0 510 6755.0 558Q6754.0 583 6734.5 597.5Q6715.0 612 6686.0 618Q6674.0 621 6663.5 625.5Q6653.0 630 6653.0 639Q6653.0 646 6663.5 649.0Q6674.0 652 6683.0 652Q6703.0 652 6716.5 652.0Q6730.0 652 6742.0 651.5Q6754.0 651 6767.0 651Q6789.0 651 6803.0 651.5Q6817.0 652 6833.5 653.0Q6850.0 654 6877.0 654Q6889.0 654 6896.5 650.5Q6904.0 647 6904.0 641Q6904.0 626 6875.0 620Q6840.0 613 6825.5 601.0Q6811.0 589 6810.0 561Q6810.0 536 6809.5 497.0Q6809.0 458 6808.0 412.0Q6807.0 366 6805.5 318.0Q6804.0 270 6803.5 224.0Q6803.0 178 6803.0 141Q6803.0 117 6805.0 92.0Q6807.0 67 6809.5 47.5Q6812.0 28 6812.0 20Q6812.0 -2 6805.0 -10.0Q6798.0 -18 6786.0 -18Z" transform="matrix(0.021920 0 0 -0.021920 74.10 391.31)" fill="#15130f"/></svg>