<svg xmlns="http://www.w3.org/2000/svg" viewBox="0 0 300 446"><rect width="300" height="446" fill="#f4ecd8"/><rect x="20.0" y="25.5" width="260" height="395" rx="20.3" fill="#f4ecd8" stroke="#15130f" stroke-width="1.5"/><rect x="36.9" y="42.4" width="226.2" height="354.7" fill="none" stroke="#15130f" stroke-width="0.7"/><g fill="none" stroke="#15130f" stroke-width="0.65" stroke-opacity="0.72" stroke-linecap="round" stroke-linejoin="round"><line x1="36.9" y1="42.4" x2="263.1" y2="370.6"/></g><path d="M36.9,370.6 H263.1 V397.1 H36.9 Z" fill="#bfdedc"/><g fill="none" stroke="#15130f" stroke-width="0.8"><line x1="36.9" y1="370.6" x2="263.1" y2="370.6"/><line x1="61.6" y1="370.6" x2="61.6" y2="397.1"/><line x1="238.4" y1="370.6" x2="238.4" y2="397.1"/></g><rect x="141.4" y="34.4" width="17.2" height="19.0" fill="#bfdedc" stroke="#15130f" stroke-width="0.8"/><path d="M511.0 1307Q708.0 1307 834.5 1159.0Q961.0 1011 961.0 779Q961.0 491 764.5 263.5Q568.0 36 272.0 -19L193.0 -34Q180.0 -36 170.0 -36Q144.0 -36 145.0 -7Q146.0 8 153.5 12.0Q161.0 16 206.0 26Q348.0 58 482.0 175.0Q616.0 292 661.0 422L680.0 478Q690.0 507 690.0 524Q690.0 554 668.0 553Q658.0 552 642.0 541Q589.0 503 512.5 475.5Q436.0 448 384.0 448Q245.0 448 150.5 558.5Q56.0 669 56.0 830Q56.0 1039 184.0 1173.0Q312.0 1307 511.0 1307ZM455.0 1245Q364.0 1245 307.5 1166.5Q251.0 1088 251.0 963Q251.0 787 326.5 675.5Q402.0 564 522.0 564Q619.0 564 684.5 640.5Q750.0 717 750.0 830Q750.0 997 661.5 1121.0Q573.0 1245 455.0 1245Z" transform="matrix(0.006858 0 0 -0.006858 146.51 49.04)" fill="#15130f"/><path d="M250.0 950Q250.0 859 278.0 774.5Q306.0 690 358.5 645.0Q411.0 600 467.0 600Q524.0 600 576.5 645.0Q629.0 690 657.0 774.5Q685.0 859 685.0 950Q685.0 1051 657.0 1135.5Q629.0 1220 576.5 1265.0Q524.0 1310 467.0 1310Q411.0 1310 358.5 1265.0Q306.0 1220 278.0 1135.5Q250.0 1051 250.0 950ZM589.0 1391Q633.0 1377 677.0 1352Q777.0 1294 831.0 1185.5Q885.0 1077 885.0 950Q885.0 833 831.0 724.5Q777.0 616 677.0 558Q623.0 527 568.0 513V350H785.0V250H568.0V170Q568.0 120 593.0 80.0Q618.0 40 688.0 40H738.0V0H198.0V40H248.0Q318.0 40 343.0 80.0Q368.0 120 368.0 170V250H150.0V350H368.0V513Q312.0 527 259.0 558Q158.0 616 104.0 724.5Q50.0 833 50.0 950Q50.0 1077 104.0 1185.5Q158.0 1294 259.0 1352Q301.0 1377 346.0 1391Q253.0 1414 191.0 1476Q126.0 1541 119.0 1596Q117.0 1608 117.0 1620Q117.0 1656 138.5 1677.5Q160.0 1699 196.0 1700Q231.0 1700 251.5 1679.0Q272.0 1658 282.0 1630Q289.0 1613 292.5 1548.0Q296.0 1483 346.5 1467.5Q397.0 1452 467.0 1452Q537.0 1452 587.5 1467.5Q638.0 1483 641.5 1548.0Q645.0 1613 652.0 1630Q662.0 1658 682.5 1679.0Q703.0 1700 738.0 1700Q774.0 1699 795.5 1677.5Q817.0 1656 817.0 1620Q817.0 1608 815.0 1596Q808.0 1541 743.0 1476Q681.0 1414 589.0 1391Z" transform="matrix(0.009268 0 0 -0.009268 44.92 391.74)" fill="#15130f"/><path d="M525.0 394 121.0 -10 50.0 61 454.0 465 136.0 783 277.0 924 595.0 606 1152.0 1163Q975.0 1163 728.0 1234L763.0 1269Q1188.0 1269 1470.0 1410Q1329.0 1128 1329.0 703L1294.0 668Q1223.0 915 1223.0 1092L666.0 535L984.0 217L843.0 76Z" transform="matrix(0.007599 0 0 -0.007599 244.97 389.19)" fill="#15130f"/><path d="M379.0 -7Q352.0 -7 314.0 -5.0Q276.0 -3 237.5 -1.5Q199.0 0 174.0 0Q154.0 0 133.5 -0.5Q113.0 -1 91.0 -2.5Q69.0 -4 44.0 -4Q35.0 -4 28.0 -0.5Q21.0 3 21.0 10Q21.0 19 27.5 23.0Q34.0 27 47.0 29Q85.0 37 99.0 51.0Q113.0 65 113.0 98V550Q113.0 584 99.5 598.0Q86.0 612 47.0 620Q34.0 622 27.5 626.5Q21.0 631 21.0 640Q21.0 647 28.0 650.5Q35.0 654 44.0 654Q68.0 654 90.0 653.5Q112.0 653 133.5 651.5Q155.0 650 177.0 650Q192.0 650 217.5 651.5Q243.0 653 272.5 654.5Q302.0 656 328.0 657.5Q354.0 659 370.0 659Q454.0 659 521.0 635.0Q588.0 611 635.5 568.0Q683.0 525 708.0 466.0Q733.0 407 733.0 338Q733.0 269 708.0 207.0Q683.0 145 636.5 97.0Q590.0 49 524.5 21.0Q459.0 -7 379.0 -7ZM364.0 39Q436.0 39 486.5 73.5Q537.0 108 563.0 170.5Q589.0 233 589.0 315Q589.0 383 571.5 438.5Q554.0 494 522.5 532.5Q491.0 571 447.5 592.0Q404.0 613 353.0 613Q317.0 613 292.5 611.0Q268.0 609 255.5 599.5Q243.0 590 243.0 568V128Q243.0 93 258.5 73.5Q274.0 54 301.5 46.5Q329.0 39 364.0 39ZM802.0 -4Q793.0 -4 786.0 -0.5Q779.0 3 779.0 9Q779.0 24 804.0 29Q842.0 37 859.0 51.0Q876.0 65 876.0 97V551Q876.0 584 862.0 598.0Q848.0 612 809.0 620Q784.0 625 784.0 641Q784.0 647 791.0 650.5Q798.0 654 807.0 654Q831.0 654 854.0 653.0Q877.0 652 898.5 651.0Q920.0 650 942.0 650Q963.0 650 984.5 651.0Q1006.0 652 1029.0 653.0Q1052.0 654 1076.0 654Q1086.0 654 1092.0 650.5Q1098.0 647 1098.0 640Q1098.0 632 1091.5 627.5Q1085.0 623 1073.0 620Q1033.0 610 1019.0 596.0Q1005.0 582 1005.0 550V98Q1005.0 67 1021.5 53.0Q1038.0 39 1076.0 29Q1089.0 26 1095.5 22.0Q1102.0 18 1102.0 10Q1102.0 3 1096.0 0.0Q1090.0 -3 1080.0 -3Q1056.0 -3 1032.0 -2.0Q1008.0 -1 985.5 0.0Q963.0 1 942.0 1Q920.0 1 897.0 0.0Q874.0 -1 850.0 -2.5Q826.0 -4 802.0 -4ZM1332.0 -15Q1289.0 -15 1250.5 -4.0Q1212.0 7 1180.0 29Q1174.0 34 1169.0 39.5Q1164.0 45 1161.0 52Q1153.0 77 1150.0 113.5Q1147.0 150 1148.0 184Q1148.0 191 1153.5 194.0Q1159.0 197 1167.0 197Q1175.0 197 1179.5 194.5Q1184.0 192 1186.0 185Q1208.0 110 1250.0 68.0Q1292.0 26 1345.0 26Q1378.0 26 1401.0 41.0Q1424.0 56 1436.0 80.0Q1448.0 104 1448.0 132Q1448.0 167 1435.5 190.0Q1423.0 213 1398.0 231.5Q1373.0 250 1335.0 271Q1294.0 295 1255.0 321.5Q1216.0 348 1191.0 384.5Q1166.0 421 1166.0 475Q1166.0 531 1194.5 573.5Q1223.0 616 1274.0 640.0Q1325.0 664 1392.0 664Q1429.0 664 1461.0 656.0Q1493.0 648 1512.0 640Q1523.0 636 1528.5 630.0Q1534.0 624 1537.0 611Q1543.0 590 1547.5 561.0Q1552.0 532 1552.0 500Q1552.0 488 1534.0 488Q1526.0 488 1518.0 492.0Q1510.0 496 1508.0 503Q1490.0 561 1458.5 591.0Q1427.0 621 1381.0 621Q1350.0 621 1328.0 610.5Q1306.0 600 1293.0 578.5Q1280.0 557 1280.0 523Q1280.0 497 1297.5 475.0Q1315.0 453 1346.5 432.0Q1378.0 411 1417.0 386Q1465.0 358 1497.5 329.5Q1530.0 301 1547.0 266.5Q1564.0 232 1564.0 185Q1564.0 119 1535.0 74.5Q1506.0 30 1454.0 7.5Q1402.0 -15 1332.0 -15ZM2007.0 -14Q1932.0 -14 1865.0 9.5Q1798.0 33 1746.5 77.0Q1695.0 121 1665.5 182.5Q1636.0 244 1636.0 319Q1636.0 389 1665.0 451.0Q1694.0 513 1747.0 561.0Q1800.0 609 1873.5 636.5Q1947.0 664 2035.0 664Q2069.0 664 2099.5 659.5Q2130.0 655 2159.0 648.5Q2188.0 642 2216.0 632Q2227.0 628 2233.5 621.0Q2240.0 614 2241.0 602Q2245.0 572 2247.0 542.5Q2249.0 513 2249.0 484Q2250.0 474 2242.0 469.5Q2234.0 465 2225.0 468.5Q2216.0 472 2212.0 483Q2204.0 511 2193.5 535.5Q2183.0 560 2162.0 577Q2139.0 596 2104.0 607.5Q2069.0 619 2022.0 619Q1968.0 619 1924.0 597.0Q1880.0 575 1848.5 536.0Q1817.0 497 1800.0 448.0Q1783.0 399 1783.0 345Q1783.0 281 1798.5 224.0Q1814.0 167 1845.5 123.5Q1877.0 80 1922.0 55.5Q1967.0 31 2025.0 31Q2099.0 31 2145.0 63.0Q2191.0 95 2223.0 158Q2231.0 174 2245.0 173.5Q2259.0 173 2259.0 157Q2259.0 145 2256.0 127.0Q2253.0 109 2247.5 88.5Q2242.0 68 2235.0 48Q2231.0 36 2225.0 30.0Q2219.0 24 2207.0 19Q2169.0 3 2117.5 -5.5Q2066.0 -14 2007.0 -14ZM2687.0 -14Q2619.0 -14 2557.0 9.5Q2495.0 33 2447.5 76.5Q2400.0 120 2372.5 180.5Q2345.0 241 2345.0 315Q2345.0 383 2367.5 445.5Q2390.0 508 2434.5 557.0Q2479.0 606 2544.5 635.0Q2610.0 664 2696.0 664Q2764.0 664 2825.5 640.5Q2887.0 617 2935.0 573.5Q2983.0 530 3010.5 469.5Q3038.0 409 3038.0 335Q3038.0 268 3015.5 205.0Q2993.0 142 2948.5 93.0Q2904.0 44 2838.5 15.0Q2773.0 -14 2687.0 -14ZM2704.0 30Q2767.0 30 2809.5 62.0Q2852.0 94 2873.5 151.5Q2895.0 209 2895.0 284Q2895.0 348 2882.0 408.0Q2869.0 468 2842.0 515.5Q2815.0 563 2774.5 591.0Q2734.0 619 2678.0 619Q2615.0 619 2572.5 587.0Q2530.0 555 2509.0 498.0Q2488.0 441 2488.0 366Q2488.0 302 2501.0 242.0Q2514.0 182 2540.5 134.0Q2567.0 86 2607.5 58.0Q2648.0 30 2704.0 30ZM3410.0 -15Q3398.0 -15 3393.0 -2Q3387.0 11 3378.0 34.0Q3369.0 57 3362.0 76L3171.0 549Q3161.0 574 3144.0 592.5Q3127.0 611 3099.0 619Q3087.0 623 3079.5 627.5Q3072.0 632 3072.0 640Q3072.0 647 3079.0 650.5Q3086.0 654 3096.0 654Q3114.0 654 3138.5 653.0Q3163.0 652 3188.0 651.0Q3213.0 650 3234.0 650Q3254.0 650 3280.0 651.0Q3306.0 652 3330.5 653.0Q3355.0 654 3372.0 654Q3382.0 654 3391.0 650.5Q3400.0 647 3400.0 640Q3400.0 632 3391.0 626.5Q3382.0 621 3369.0 619Q3340.0 614 3324.5 605.5Q3309.0 597 3309.0 580Q3309.0 570 3312.0 561.0Q3315.0 552 3316.0 545L3451.0 177Q3453.0 172 3455.5 171.0Q3458.0 170 3461.0 178L3584.0 502Q3604.0 554 3590.5 583.5Q3577.0 613 3537.0 619Q3524.0 621 3514.5 626.5Q3505.0 632 3505.0 640Q3505.0 647 3514.0 650.0Q3523.0 653 3534.0 653Q3552.0 653 3567.0 652.5Q3582.0 652 3597.0 651.5Q3612.0 651 3631.0 651Q3660.0 651 3688.5 653.0Q3717.0 655 3742.0 655Q3754.0 655 3763.0 652.0Q3772.0 649 3772.0 641Q3772.0 632 3763.5 628.0Q3755.0 624 3743.0 621Q3710.0 613 3688.5 589.0Q3667.0 565 3651.0 527L3487.0 133Q3476.0 106 3465.5 82.0Q3455.0 58 3446.5 37.0Q3438.0 16 3429.0 -2Q3426.0 -9 3422.0 -12.0Q3418.0 -15 3410.0 -15ZM3816.0 -5Q3805.0 -5 3798.5 -1.0Q3792.0 3 3792.0 9Q3792.0 22 3818.0 28Q3854.0 37 3869.5 50.5Q3885.0 64 3885.0 97V550Q3885.0 584 3871.5 598.0Q3858.0 612 3821.0 620Q3807.0 623 3801.0 628.5Q3795.0 634 3795.0 640Q3795.0 647 3801.5 650.5Q3808.0 654 3819.0 654Q3848.0 654 3874.5 653.0Q3901.0 652 3926.0 651.0Q3951.0 650 3978.0 650Q4024.0 650 4075.5 651.0Q4127.0 652 4168.0 652Q4201.0 653 4222.5 655.0Q4244.0 657 4248.0 657Q4255.0 657 4262.5 654.0Q4270.0 651 4271.0 642Q4275.0 609 4281.0 577.0Q4287.0 545 4287.0 521Q4287.0 512 4282.5 507.5Q4278.0 503 4273.0 503Q4268.0 503 4264.0 506.5Q4260.0 510 4257.0 517Q4249.0 540 4242.0 557.0Q4235.0 574 4226.0 583Q4213.0 597 4196.0 605.0Q4179.0 613 4155.0 613H4062.0Q4044.0 613 4029.0 602.5Q4014.0 592 4014.0 573V377Q4014.0 366 4020.5 360.0Q4027.0 354 4036.0 354H4128.0Q4155.0 354 4166.5 369.0Q4178.0 384 4186.0 410Q4193.0 430 4205.0 430Q4210.0 430 4214.0 424.5Q4218.0 419 4218.0 410Q4217.0 400 4216.0 386.0Q4215.0 372 4214.5 358.0Q4214.0 344 4214.0 333Q4214.0 321 4214.5 306.0Q4215.0 291 4215.5 276.5Q4216.0 262 4217.0 252Q4218.0 241 4215.5 235.0Q4213.0 229 4207.0 229Q4191.0 229 4184.0 257Q4176.0 285 4165.0 299.0Q4154.0 313 4135.0 313H4041.0Q4028.0 313 4021.0 308.0Q4014.0 303 4014.0 289V99Q4014.0 66 4028.0 53.0Q4042.0 40 4071.0 40H4153.0Q4178.0 40 4198.5 45.0Q4219.0 50 4234.0 61Q4251.0 73 4264.5 93.5Q4278.0 114 4291.0 139Q4295.0 147 4299.0 149.5Q4303.0 152 4309.0 152Q4314.0 151 4316.5 146.0Q4319.0 141 4319.0 135Q4319.0 121 4314.0 99.0Q4309.0 77 4301.5 53.5Q4294.0 30 4288.0 10Q4285.0 3 4280.0 -0.5Q4275.0 -4 4268.0 -4Q4244.0 -4 4206.5 -3.5Q4169.0 -3 4125.0 -2.0Q4081.0 -1 4035.0 -0.5Q3989.0 0 3947.0 0Q3926.0 0 3904.5 -1.0Q3883.0 -2 3861.0 -3.5Q3839.0 -5 3816.0 -5ZM4980.0 -21Q4937.0 -21 4905.0 -11.5Q4873.0 -2 4850.0 16.0Q4827.0 34 4808.0 58Q4786.0 88 4765.0 116.5Q4744.0 145 4722.5 179.5Q4701.0 214 4675.0 262Q4662.0 285 4642.0 296Q4629.0 303 4615.5 306.0Q4602.0 309 4593.0 309Q4587.0 310 4584.0 304.0Q4581.0 298 4581.0 289V103Q4581.0 72 4597.5 55.0Q4614.0 38 4654.0 29Q4667.0 27 4673.0 22.5Q4679.0 18 4679.0 10Q4679.0 3 4673.5 0.0Q4668.0 -3 4657.0 -3Q4634.0 -3 4610.0 -1.5Q4586.0 0 4563.5 1.0Q4541.0 2 4521.0 2Q4499.0 2 4475.5 1.0Q4452.0 0 4428.0 -2.0Q4404.0 -4 4380.0 -4Q4371.0 -4 4364.0 -0.5Q4357.0 3 4357.0 9Q4357.0 24 4382.0 29Q4420.0 37 4436.0 51.0Q4452.0 65 4452.0 98V540Q4452.0 569 4447.5 584.5Q4443.0 600 4430.0 608.0Q4417.0 616 4391.0 620Q4377.0 622 4371.0 628.0Q4365.0 634 4365.0 640Q4365.0 647 4371.5 650.5Q4378.0 654 4389.0 654Q4419.0 654 4437.0 653.0Q4455.0 652 4471.5 650.5Q4488.0 649 4511.0 649Q4533.0 649 4550.0 651.0Q4567.0 653 4588.0 655.0Q4609.0 657 4642.0 657Q4757.0 657 4818.0 617.0Q4879.0 577 4879.0 495Q4879.0 450 4860.0 418.5Q4841.0 387 4812.5 367.0Q4784.0 347 4754.0 336Q4750.0 335 4750.5 331.0Q4751.0 327 4754.0 324Q4784.0 278 4812.5 236.5Q4841.0 195 4872.5 158.0Q4904.0 121 4941.0 87Q4972.0 58 5004.5 52.5Q5037.0 47 5072.0 47Q5087.0 47 5087.0 32Q5087.0 12 5072.0 0.5Q5057.0 -11 5032.5 -16.0Q5008.0 -21 4980.0 -21ZM4624.0 338Q4665.0 338 4692.5 356.5Q4720.0 375 4734.5 406.0Q4749.0 437 4749.0 475Q4749.0 520 4738.0 551.5Q4727.0 583 4700.5 600.5Q4674.0 618 4628.0 618Q4602.0 618 4592.5 599.5Q4583.0 581 4582.0 525Q4581.0 502 4581.0 464.5Q4581.0 427 4581.0 375Q4581.0 353 4592.5 345.5Q4604.0 338 4624.0 338ZM5271.0 -6Q5258.0 -6 5250.5 -2.0Q5243.0 2 5243.0 9Q5243.0 17 5251.5 21.5Q5260.0 26 5273.0 29Q5311.0 36 5328.0 56.0Q5345.0 76 5345.0 109V251Q5345.0 280 5335.0 303.5Q5325.0 327 5316.0 343L5191.0 540Q5183.0 553 5170.5 569.5Q5158.0 586 5143.0 600.0Q5128.0 614 5109.0 619Q5097.0 623 5089.5 627.5Q5082.0 632 5082.0 640Q5082.0 647 5089.0 650.5Q5096.0 654 5106.0 654Q5142.0 654 5177.5 651.5Q5213.0 649 5253.0 649Q5282.0 649 5308.5 651.5Q5335.0 654 5363.0 654Q5373.0 654 5382.0 650.5Q5391.0 647 5391.0 640Q5391.0 632 5382.0 627.0Q5373.0 622 5361.0 619Q5338.0 614 5326.5 607.0Q5315.0 600 5315.0 586Q5315.0 571 5327.0 551L5426.0 376Q5439.0 351 5448.0 351Q5453.0 351 5458.0 357.0Q5463.0 363 5471.0 376Q5495.0 415 5515.0 453.0Q5535.0 491 5558.0 536Q5564.0 548 5567.5 559.5Q5571.0 571 5571.0 580Q5571.0 600 5555.0 608.5Q5539.0 617 5522.0 619Q5512.0 620 5501.0 626.0Q5490.0 632 5490.0 640Q5490.0 647 5499.0 650.0Q5508.0 653 5519.0 653Q5546.0 653 5566.5 651.0Q5587.0 649 5612.0 649Q5640.0 649 5665.5 652.0Q5691.0 655 5715.0 655Q5727.0 655 5735.5 652.0Q5744.0 649 5744.0 641Q5744.0 632 5732.0 627.5Q5720.0 623 5706.0 619Q5678.0 611 5658.0 592.0Q5638.0 573 5619.0 543Q5602.0 515 5587.0 491.5Q5572.0 468 5558.5 446.5Q5545.0 425 5531.0 402.5Q5517.0 380 5501.0 353Q5491.0 336 5485.5 322.0Q5480.0 308 5477.0 293.0Q5474.0 278 5474.0 258V110Q5474.0 73 5491.0 55.5Q5508.0 38 5546.0 29Q5560.0 26 5568.5 22.0Q5577.0 18 5577.0 9Q5577.0 3 5569.5 -1.0Q5562.0 -5 5550.0 -5Q5526.0 -5 5502.0 -3.0Q5478.0 -1 5455.5 0.5Q5433.0 2 5411.0 2Q5389.0 2 5366.0 0.5Q5343.0 -1 5319.0 -3.5Q5295.0 -6 5271.0 -6Z" transform="matrix(0.022120 0 0 -0.022120 86.24 390.98)" fill="#15130f"/></svg>