<svg xmlns="http://www.w3.org/2000/svg" viewBox="0 0 300 446"><rect width="300" height="446" fill="#f4ecd8"/><rect x="20.0" y="25.5" width="260" height="395" rx="20.3" fill="#f4ecd8" stroke="#15130f" stroke-width="1.5"/><rect x="36.9" y="42.4" width="226.2" height="354.7" fill="none" stroke="#15130f" stroke-width="0.7"/><g fill="none" stroke="#15130f" stroke-width="0.65" stroke-opacity="0.72" stroke-linecap="round" stroke-linejoin="round"><line x1="36.9" y1="42.4" x2="263.1" y2="370.6"/></g><path d="M36.9,370.6 H263.1 V397.1 H36.9 Z" fill="#bfdedc"/><g fill="none" stroke="#15130f" stroke-width="0.8"><line x1="36.9" y1="370.6" x2="263.1" y2="370.6"/><line x1="61.6" y1="370.6" x2="61.6" y2="397.1"/><line x1="238.4" y1="370.6" x2="238.4" y2="397.1"/></g><rect x="141.4" y="34.4" width="17.2" height="19.0" fill="#bfdedc" stroke="#15130f" stroke-width="0.8"/><path d="M649.0 1092V235L647.0 193L657.0 137Q686.0 59 825.0 52Q867.0 50 867.0 28Q867.0 -7 780.0 -7Q761.0 -7 652.0 2Q595.0 7 494.0 7Q394.0 7 322.0 -2Q293.0 -5 280.0 -5Q255.0 -5 255.0 20Q255.0 41 281.0 45Q384.0 61 415.0 92.0Q446.0 123 446.0 210L445.0 248V1010Q445.0 1115 363.0 1115Q331.0 1115 306.0 1104L281.0 1093Q270.0 1089 261.0 1089Q235.0 1089 235.0 1113Q235.0 1137 260.0 1150.0Q285.0 1163 362.0 1180Q506.0 1211 567.0 1267L614.0 1310Q625.0 1320 641.0 1320Q661.0 1320 661.0 1282Q661.0 1271 659.0 1243L651.0 1153Q649.0 1126 649.0 1092ZM1947.0 348Q1970.0 348 1972.0 331L1970.0 321L1955.0 277Q1941.0 236 1920.0 192L1869.0 85Q1839.0 23 1816.5 9.5Q1794.0 -4 1721.0 -4Q1677.0 -4 1615.0 -1L1530.0 4Q1482.0 6 1395.0 6Q1232.0 6 1191.0 -1Q1163.0 -6 1150.0 -6Q1119.0 -6 1119.0 21Q1119.0 40 1178.0 106Q1270.0 211 1389.0 383.0Q1508.0 555 1565.0 665Q1641.0 813 1641.0 932Q1641.0 1035 1583.0 1096.0Q1525.0 1157 1428.0 1157Q1290.0 1157 1180.0 1033Q1170.0 1021 1162.0 1021Q1155.0 1021 1146.5 1029.5Q1138.0 1038 1138.0 1046Q1138.0 1059 1169.0 1101.5Q1200.0 1144 1234.0 1176Q1367.0 1307 1541.0 1307Q1679.0 1307 1764.0 1230.5Q1849.0 1154 1849.0 1029Q1849.0 803 1456.0 355L1408.0 300Q1366.0 253 1366.0 233Q1366.0 198 1450.0 198L1614.0 200L1710.0 201Q1774.0 204 1835.0 241.0Q1896.0 278 1926.0 333Q1935.0 348 1947.0 348Z" transform="matrix(0.006024 0 0 -0.006024 143.35 48.63)" fill="#15130f"/><path d="M250.0 950Q250.0 859 278.0 774.5Q306.0 690 358.5 645.0Q411.0 600 467.0 600Q524.0 600 576.5 645.0Q629.0 690 657.0 774.5Q685.0 859 685.0 950Q685.0 1051 657.0 1135.5Q629.0 1220 576.5 1265.0Q524.0 1310 467.0 1310Q411.0 1310 358.5 1265.0Q306.0 1220 278.0 1135.5Q250.0 1051 250.0 950ZM589.0 1391Q633.0 1377 677.0 1352Q777.0 1294 831.0 1185.5Q885.0 1077 885.0 950Q885.0 833 831.0 724.5Q777.0 616 677.0 558Q623.0 527 568.0 513V350H785.0V250H568.0V170Q568.0 120 593.0 80.0Q618.0 40 688.0 40H738.0V0H198.0V40H248.0Q318.0 40 343.0 80.0Q368.0 120 368.0 170V250H150.0V350H368.0V513Q312.0 527 259.0 558Q158.0 616 104.0 724.5Q50.0 833 50.0 950Q50.0 1077 104.0 1185.5Q158.0 1294 259.0 1352Q301.0 1377 346.0 1391Q253.0 1414 191.0 1476Q126.0 1541 119.0 1596Q117.0 1608 117.0 1620Q117.0 1656 138.5 1677.5Q160.0 1699 196.0 1700Q231.0 1700 251.5 1679.0Q272.0 1658 282.0 1630Q289.0 1613 292.5 1548.0Q296.0 1483 346.5 1467.5Q397.0 1452 467.0 1452Q537.0 1452 587.5 1467.5Q638.0 1483 641.5 1548.0Q645.0 1613 652.0 1630Q662.0 1658 682.5 1679.0Q703.0 1700 738.0 1700Q774.0 1699 795.5 1677.5Q817.0 1656 817.0 1620Q817.0 1608 815.0 1596Q808.0 1541 743.0 1476Q681.0 1414 589.0 1391Z" transform="matrix(0.009268 0 0 -0.009268 44.92 391.74)" fill="#15130f"/><path d="M548.0 750Q533.0 984 370.0 1200Q330.0 1250 250.0 1305.0Q170.0 1360 100.0 1360H50.0V1400H402.0Q440.0 1370 476.0 1337Q731.0 1091 749.0 750H951.0Q969.0 1091 1224.0 1337Q1260.0 1370 1298.0 1400H1650.0V1360H1600.0Q1530.0 1360 1450.0 1305.0Q1370.0 1250 1330.0 1200Q1167.0 984 1152.0 750H1600.0V650H1152.0Q1168.0 413 1340.0 190Q1378.0 145 1450.0 95Q1530.0 40 1600.0 40H1650.0V0H1301.0Q1262.0 29 1227.0 63Q969.0 308 951.0 650H749.0Q731.0 308 473.0 63Q438.0 29 399.0 0H50.0V40H100.0Q170.0 40 250.0 95Q322.0 145 360.0 190Q532.0 413 548.0 650H100.0V750Z" transform="matrix(0.009268 0 0 -0.009268 242.87 390.35)" fill="#15130f"/><path d="M40.0 -4Q31.0 -4 24.0 -0.5Q17.0 3 17.0 9Q17.0 24 42.0 29Q80.0 37 97.0 51.0Q114.0 65 114.0 97V551Q114.0 584 100.0 598.0Q86.0 612 47.0 620Q22.0 625 22.0 641Q22.0 647 29.0 650.5Q36.0 654 45.0 654Q69.0 654 92.0 653.0Q115.0 652 136.5 651.0Q158.0 650 180.0 650Q201.0 650 222.5 651.0Q244.0 652 267.0 653.0Q290.0 654 314.0 654Q324.0 654 330.0 650.5Q336.0 647 336.0 640Q336.0 632 329.5 627.5Q323.0 623 311.0 620Q271.0 610 257.0 596.0Q243.0 582 243.0 550V98Q243.0 67 259.5 53.0Q276.0 39 314.0 29Q327.0 26 333.5 22.0Q340.0 18 340.0 10Q340.0 3 334.0 0.0Q328.0 -3 318.0 -3Q294.0 -3 270.0 -2.0Q246.0 -1 223.5 0.0Q201.0 1 180.0 1Q158.0 1 135.0 0.0Q112.0 -1 88.0 -2.5Q64.0 -4 40.0 -4ZM1032.0 -18Q1020.0 -18 992.0 -3.0Q964.0 12 935.0 49Q918.0 68 893.5 95.5Q869.0 123 839.5 156.0Q810.0 189 778.0 225.0Q746.0 261 714.5 297.0Q683.0 333 653.0 366.0Q623.0 399 598.0 426.5Q573.0 454 556.0 474Q552.0 479 547.5 482.5Q543.0 486 540.0 486Q536.0 486 534.0 479.0Q532.0 472 532.0 466Q532.0 420 532.5 357.0Q533.0 294 533.0 229.0Q533.0 164 533.0 109Q533.0 78 551.0 58.0Q569.0 38 608.0 29Q620.0 27 628.5 22.5Q637.0 18 637.0 10Q637.0 3 629.0 0.0Q621.0 -3 611.0 -3Q584.0 -3 568.0 -2.0Q552.0 -1 539.0 0.0Q526.0 1 506.0 1Q485.0 1 468.5 0.0Q452.0 -1 439.0 -2.5Q426.0 -4 414.0 -4Q404.0 -4 396.0 -0.5Q388.0 3 388.0 9Q388.0 17 395.5 21.5Q403.0 26 416.0 30Q442.0 38 454.5 59.5Q467.0 81 470.0 111Q474.0 149 478.0 210.5Q482.0 272 485.5 349.0Q489.0 426 489.0 508Q489.0 560 462.5 583.0Q436.0 606 396.0 620Q389.0 622 378.0 628.0Q367.0 634 367.0 643Q367.0 652 375.0 655.0Q383.0 658 392.0 658Q413.0 658 434.0 657.0Q455.0 656 476.5 655.5Q498.0 655 521.5 654.0Q545.0 653 572.0 653Q581.0 653 585.5 649.5Q590.0 646 594.0 640Q610.0 621 635.0 592.5Q660.0 564 689.5 529.5Q719.0 495 751.5 457.0Q784.0 419 816.5 381.0Q849.0 343 879.0 308.5Q909.0 274 933.5 245.5Q958.0 217 974.0 199Q978.0 195 983.5 189.0Q989.0 183 993.0 183Q1001.0 183 1002.0 200Q1002.0 226 1002.0 266.5Q1002.0 307 1002.5 356.5Q1003.0 406 1002.5 458.0Q1002.0 510 1001.0 558Q1000.0 583 980.5 597.5Q961.0 612 932.0 618Q920.0 621 909.5 625.5Q899.0 630 899.0 639Q899.0 646 909.5 649.0Q920.0 652 929.0 652Q949.0 652 962.5 652.0Q976.0 652 988.0 651.5Q1000.0 651 1013.0 651Q1035.0 651 1049.0 651.5Q1063.0 652 1079.5 653.0Q1096.0 654 1123.0 654Q1135.0 654 1142.5 650.5Q1150.0 647 1150.0 641Q1150.0 626 1121.0 620Q1086.0 613 1071.5 601.0Q1057.0 589 1056.0 561Q1056.0 536 1055.5 497.0Q1055.0 458 1054.0 412.0Q1053.0 366 1051.5 318.0Q1050.0 270 1049.5 224.0Q1049.0 178 1049.0 141Q1049.0 117 1051.0 92.0Q1053.0 67 1055.5 47.5Q1058.0 28 1058.0 20Q1058.0 -2 1051.0 -10.0Q1044.0 -18 1032.0 -18ZM1374.0 -15Q1331.0 -15 1292.5 -4.0Q1254.0 7 1222.0 29Q1216.0 34 1211.0 39.5Q1206.0 45 1203.0 52Q1195.0 77 1192.0 113.5Q1189.0 150 1190.0 184Q1190.0 191 1195.5 194.0Q1201.0 197 1209.0 197Q1217.0 197 1221.5 194.5Q1226.0 192 1228.0 185Q1250.0 110 1292.0 68.0Q1334.0 26 1387.0 26Q1420.0 26 1443.0 41.0Q1466.0 56 1478.0 80.0Q1490.0 104 1490.0 132Q1490.0 167 1477.5 190.0Q1465.0 213 1440.0 231.5Q1415.0 250 1377.0 271Q1336.0 295 1297.0 321.5Q1258.0 348 1233.0 384.5Q1208.0 421 1208.0 475Q1208.0 531 1236.5 573.5Q1265.0 616 1316.0 640.0Q1367.0 664 1434.0 664Q1471.0 664 1503.0 656.0Q1535.0 648 1554.0 640Q1565.0 636 1570.5 630.0Q1576.0 624 1579.0 611Q1585.0 590 1589.5 561.0Q1594.0 532 1594.0 500Q1594.0 488 1576.0 488Q1568.0 488 1560.0 492.0Q1552.0 496 1550.0 503Q1532.0 561 1500.5 591.0Q1469.0 621 1423.0 621Q1392.0 621 1370.0 610.5Q1348.0 600 1335.0 578.5Q1322.0 557 1322.0 523Q1322.0 497 1339.5 475.0Q1357.0 453 1388.5 432.0Q1420.0 411 1459.0 386Q1507.0 358 1539.5 329.5Q1572.0 301 1589.0 266.5Q1606.0 232 1606.0 185Q1606.0 119 1577.0 74.5Q1548.0 30 1496.0 7.5Q1444.0 -15 1374.0 -15ZM1686.0 -4Q1677.0 -4 1670.0 -0.5Q1663.0 3 1663.0 9Q1663.0 24 1688.0 29Q1726.0 37 1742.0 51.0Q1758.0 65 1758.0 98V538Q1758.0 576 1745.5 594.0Q1733.0 612 1697.0 620Q1683.0 623 1677.0 628.5Q1671.0 634 1671.0 640Q1671.0 647 1677.5 650.5Q1684.0 654 1695.0 654Q1719.0 654 1739.5 653.5Q1760.0 653 1779.0 652.0Q1798.0 651 1818.0 651Q1840.0 651 1859.5 653.0Q1879.0 655 1899.5 657.0Q1920.0 659 1947.0 659Q2066.0 659 2137.0 609.0Q2208.0 559 2208.0 471Q2208.0 409 2182.5 356.5Q2157.0 304 2104.5 272.0Q2052.0 240 1972.0 240Q1947.0 240 1934.0 247.5Q1921.0 255 1921.0 264Q1921.0 270 1927.5 274.5Q1934.0 279 1939.0 279Q1948.0 279 1956.5 277.5Q1965.0 276 1982.0 276Q2029.0 276 2053.5 324.0Q2078.0 372 2078.0 452Q2078.0 540 2042.5 580.5Q2007.0 621 1947.0 621Q1919.0 621 1903.5 609.5Q1888.0 598 1888.0 573L1887.0 104Q1887.0 71 1903.5 54.5Q1920.0 38 1960.0 29Q1973.0 27 1979.0 22.5Q1985.0 18 1985.0 10Q1985.0 3 1979.5 0.0Q1974.0 -3 1963.0 -3Q1940.0 -3 1916.0 -1.5Q1892.0 0 1869.5 1.0Q1847.0 2 1827.0 2Q1805.0 2 1781.5 1.0Q1758.0 0 1734.0 -2.0Q1710.0 -4 1686.0 -4ZM2273.0 -4Q2264.0 -4 2257.0 -0.5Q2250.0 3 2250.0 9Q2250.0 24 2275.0 29Q2313.0 37 2330.0 51.0Q2347.0 65 2347.0 97V551Q2347.0 584 2333.0 598.0Q2319.0 612 2280.0 620Q2255.0 625 2255.0 641Q2255.0 647 2262.0 650.5Q2269.0 654 2278.0 654Q2302.0 654 2325.0 653.0Q2348.0 652 2369.5 651.0Q2391.0 650 2413.0 650Q2434.0 650 2455.5 651.0Q2477.0 652 2500.0 653.0Q2523.0 654 2547.0 654Q2557.0 654 2563.0 650.5Q2569.0 647 2569.0 640Q2569.0 632 2562.5 627.5Q2556.0 623 2544.0 620Q2504.0 610 2490.0 596.0Q2476.0 582 2476.0 550V98Q2476.0 67 2492.5 53.0Q2509.0 39 2547.0 29Q2560.0 26 2566.5 22.0Q2573.0 18 2573.0 10Q2573.0 3 2567.0 0.0Q2561.0 -3 2551.0 -3Q2527.0 -3 2503.0 -2.0Q2479.0 -1 2456.5 0.0Q2434.0 1 2413.0 1Q2391.0 1 2368.0 0.0Q2345.0 -1 2321.0 -2.5Q2297.0 -4 2273.0 -4ZM3231.0 -21Q3188.0 -21 3156.0 -11.5Q3124.0 -2 3101.0 16.0Q3078.0 34 3059.0 58Q3037.0 88 3016.0 116.5Q2995.0 145 2973.5 179.5Q2952.0 214 2926.0 262Q2913.0 285 2893.0 296Q2880.0 303 2866.5 306.0Q2853.0 309 2844.0 309Q2838.0 310 2835.0 304.0Q2832.0 298 2832.0 289V103Q2832.0 72 2848.5 55.0Q2865.0 38 2905.0 29Q2918.0 27 2924.0 22.5Q2930.0 18 2930.0 10Q2930.0 3 2924.5 0.0Q2919.0 -3 2908.0 -3Q2885.0 -3 2861.0 -1.5Q2837.0 0 2814.5 1.0Q2792.0 2 2772.0 2Q2750.0 2 2726.5 1.0Q2703.0 0 2679.0 -2.0Q2655.0 -4 2631.0 -4Q2622.0 -4 2615.0 -0.5Q2608.0 3 2608.0 9Q2608.0 24 2633.0 29Q2671.0 37 2687.0 51.0Q2703.0 65 2703.0 98V540Q2703.0 569 2698.5 584.5Q2694.0 600 2681.0 608.0Q2668.0 616 2642.0 620Q2628.0 622 2622.0 628.0Q2616.0 634 2616.0 640Q2616.0 647 2622.5 650.5Q2629.0 654 2640.0 654Q2670.0 654 2688.0 653.0Q2706.0 652 2722.5 650.5Q2739.0 649 2762.0 649Q2784.0 649 2801.0 651.0Q2818.0 653 2839.0 655.0Q2860.0 657 2893.0 657Q3008.0 657 3069.0 617.0Q3130.0 577 3130.0 495Q3130.0 450 3111.0 418.5Q3092.0 387 3063.5 367.0Q3035.0 347 3005.0 336Q3001.0 335 3001.5 331.0Q3002.0 327 3005.0 324Q3035.0 278 3063.5 236.5Q3092.0 195 3123.5 158.0Q3155.0 121 3192.0 87Q3223.0 58 3255.5 52.5Q3288.0 47 3323.0 47Q3338.0 47 3338.0 32Q3338.0 12 3323.0 0.5Q3308.0 -11 3283.5 -16.0Q3259.0 -21 3231.0 -21ZM2875.0 338Q2916.0 338 2943.5 356.5Q2971.0 375 2985.5 406.0Q3000.0 437 3000.0 475Q3000.0 520 2989.0 551.5Q2978.0 583 2951.5 600.5Q2925.0 618 2879.0 618Q2853.0 618 2843.5 599.5Q2834.0 581 2833.0 525Q2832.0 502 2832.0 464.5Q2832.0 427 2832.0 375Q2832.0 353 2843.5 345.5Q2855.0 338 2875.0 338ZM3357.0 -5Q3345.0 -5 3337.0 -1.5Q3329.0 2 3329.0 10Q3329.0 19 3336.5 24.0Q3344.0 29 3356.0 33Q3385.0 41 3406.5 57.5Q3428.0 74 3441.0 103Q3466.0 162 3489.0 216.5Q3512.0 271 3533.0 325.0Q3554.0 379 3575.5 435.0Q3597.0 491 3619.0 553Q3630.0 584 3634.0 601.0Q3638.0 618 3641.0 626Q3656.0 630 3669.0 634.0Q3682.0 638 3698.0 644Q3712.0 651 3722.0 662.0Q3732.0 673 3737.0 679Q3740.0 681 3743.0 681.5Q3746.0 682 3749.0 677Q3752.0 671 3754.0 665.0Q3756.0 659 3758.0 652Q3780.0 581 3803.5 508.5Q3827.0 436 3850.0 365.5Q3873.0 295 3894.5 230.5Q3916.0 166 3934.0 112Q3943.0 85 3956.5 69.0Q3970.0 53 3986.5 44.5Q4003.0 36 4023.0 31Q4036.0 28 4043.0 23.0Q4050.0 18 4050.0 9Q4050.0 3 4043.5 0.0Q4037.0 -3 4027.0 -3Q4009.0 -3 3981.5 -2.0Q3954.0 -1 3925.0 0.5Q3896.0 2 3873.0 2Q3853.0 2 3828.5 1.0Q3804.0 0 3779.5 -1.0Q3755.0 -2 3738.0 -2Q3728.0 -2 3720.5 1.5Q3713.0 5 3713.0 12Q3713.0 20 3721.0 25.5Q3729.0 31 3740.0 33Q3776.0 39 3792.0 51.5Q3808.0 64 3804.0 88Q3801.0 105 3795.0 128.5Q3789.0 152 3782.5 177.5Q3776.0 203 3769.0 224Q3767.0 232 3763.0 235.5Q3759.0 239 3748.0 239H3568.0Q3561.0 239 3557.0 234.5Q3553.0 230 3551.0 221Q3547.0 208 3541.5 191.5Q3536.0 175 3530.5 157.5Q3525.0 140 3520.5 125.0Q3516.0 110 3514.0 99Q3509.0 72 3523.5 56.5Q3538.0 41 3574.0 32Q3601.0 25 3601.0 11Q3601.0 5 3594.5 1.5Q3588.0 -2 3576.0 -2Q3553.0 -2 3528.0 -0.5Q3503.0 1 3473.0 1Q3443.0 1 3414.5 -2.0Q3386.0 -5 3357.0 -5ZM3595.0 285H3734.0Q3748.0 285 3748.0 291Q3748.0 294 3747.5 296.0Q3747.0 298 3746.0 302L3676.0 533Q3672.0 547 3669.0 547Q3667.0 547 3662.0 534L3578.0 302Q3576.0 297 3576.0 294Q3576.0 289 3581.5 287.0Q3587.0 285 3595.0 285ZM4253.0 -4Q4243.0 -4 4235.5 -0.5Q4228.0 3 4228.0 9Q4228.0 17 4235.0 22.0Q4242.0 27 4255.0 29Q4293.0 37 4311.0 51.5Q4329.0 66 4329.0 99V504Q4329.0 545 4327.0 566.0Q4325.0 587 4321.5 594.5Q4318.0 602 4311.0 603Q4301.0 607 4286.0 608.0Q4271.0 609 4257.0 609H4226.0Q4197.0 609 4170.0 595.5Q4143.0 582 4128.0 559Q4124.0 553 4115.5 542.0Q4107.0 531 4097.5 522.0Q4088.0 513 4078.0 513Q4071.0 513 4068.5 518.0Q4066.0 523 4066.0 529Q4066.0 541 4072.0 553Q4089.0 587 4097.5 612.5Q4106.0 638 4109.0 673Q4111.0 688 4117.5 692.5Q4124.0 697 4131.0 697Q4137.0 697 4145.5 684.5Q4154.0 672 4161.0 664Q4170.0 655 4193.0 650.5Q4216.0 646 4232.0 646L4601.0 647Q4629.0 647 4648.0 651.5Q4667.0 656 4678.0 661Q4693.0 670 4702.0 679.5Q4711.0 689 4723.0 689Q4728.0 689 4730.5 683.5Q4733.0 678 4733.0 670Q4733.0 665 4732.0 658.5Q4731.0 652 4730.0 647Q4726.0 628 4722.0 613.5Q4718.0 599 4715.5 586.5Q4713.0 574 4713.0 558V541Q4713.0 527 4709.0 517.0Q4705.0 507 4696.0 507Q4688.0 507 4682.5 516.5Q4677.0 526 4671.0 546Q4662.0 578 4641.0 593.5Q4620.0 609 4575.0 609H4507.0Q4488.0 609 4477.5 602.0Q4467.0 595 4462.5 571.5Q4458.0 548 4458.0 499V100Q4458.0 68 4476.0 53.5Q4494.0 39 4533.0 29Q4545.0 26 4552.0 22.0Q4559.0 18 4559.0 10Q4559.0 3 4552.5 0.0Q4546.0 -3 4536.0 -3Q4512.0 -3 4488.0 -2.0Q4464.0 -1 4440.5 0.0Q4417.0 1 4395.0 1Q4373.0 1 4349.5 0.0Q4326.0 -1 4301.5 -2.5Q4277.0 -4 4253.0 -4ZM4771.0 -4Q4762.0 -4 4755.0 -0.5Q4748.0 3 4748.0 9Q4748.0 24 4773.0 29Q4811.0 37 4828.0 51.0Q4845.0 65 4845.0 97V551Q4845.0 584 4831.0 598.0Q4817.0 612 4778.0 620Q4753.0 625 4753.0 641Q4753.0 647 4760.0 650.5Q4767.0 654 4776.0 654Q4800.0 654 4823.0 653.0Q4846.0 652 4867.5 651.0Q4889.0 650 4911.0 650Q4932.0 650 4953.5 651.0Q4975.0 652 4998.0 653.0Q5021.0 654 5045.0 654Q5055.0 654 5061.0 650.5Q5067.0 647 5067.0 640Q5067.0 632 5060.5 627.5Q5054.0 623 5042.0 620Q5002.0 610 4988.0 596.0Q4974.0 582 4974.0 550V98Q4974.0 67 4990.5 53.0Q5007.0 39 5045.0 29Q5058.0 26 5064.5 22.0Q5071.0 18 5071.0 10Q5071.0 3 5065.0 0.0Q5059.0 -3 5049.0 -3Q5025.0 -3 5001.0 -2.0Q4977.0 -1 4954.5 0.0Q4932.0 1 4911.0 1Q4889.0 1 4866.0 0.0Q4843.0 -1 4819.0 -2.5Q4795.0 -4 4771.0 -4ZM5463.0 -14Q5395.0 -14 5333.0 9.5Q5271.0 33 5223.5 76.5Q5176.0 120 5148.5 180.5Q5121.0 241 5121.0 315Q5121.0 383 5143.5 445.5Q5166.0 508 5210.5 557.0Q5255.0 606 5320.5 635.0Q5386.0 664 5472.0 664Q5540.0 664 5601.5 640.5Q5663.0 617 5711.0 573.5Q5759.0 530 5786.5 469.5Q5814.0 409 5814.0 335Q5814.0 268 5791.5 205.0Q5769.0 142 5724.5 93.0Q5680.0 44 5614.5 15.0Q5549.0 -14 5463.0 -14ZM5480.0 30Q5543.0 30 5585.5 62.0Q5628.0 94 5649.5 151.5Q5671.0 209 5671.0 284Q5671.0 348 5658.0 408.0Q5645.0 468 5618.0 515.5Q5591.0 563 5550.5 591.0Q5510.0 619 5454.0 619Q5391.0 619 5348.5 587.0Q5306.0 555 5285.0 498.0Q5264.0 441 5264.0 366Q5264.0 302 5277.0 242.0Q5290.0 182 5316.5 134.0Q5343.0 86 5383.5 58.0Q5424.0 30 5480.0 30ZM6524.0 -18Q6512.0 -18 6484.0 -3.0Q6456.0 12 6427.0 49Q6410.0 68 6385.5 95.5Q6361.0 123 6331.5 156.0Q6302.0 189 6270.0 225.0Q6238.0 261 6206.5 297.0Q6175.0 333 6145.0 366.0Q6115.0 399 6090.0 426.5Q6065.0 454 6048.0 474Q6044.0 479 6039.5 482.5Q6035.0 486 6032.0 486Q6028.0 486 6026.0 479.0Q6024.0 472 6024.0 466Q6024.0 420 6024.5 357.0Q6025.0 294 6025.0 229.0Q6025.0 164 6025.0 109Q6025.0 78 6043.0 58.0Q6061.0 38 6100.0 29Q6112.0 27 6120.5 22.5Q6129.0 18 6129.0 10Q6129.0 3 6121.0 0.0Q6113.0 -3 6103.0 -3Q6076.0 -3 6060.0 -2.0Q6044.0 -1 6031.0 0.0Q6018.0 1 5998.0 1Q5977.0 1 5960.5 0.0Q5944.0 -1 5931.0 -2.5Q5918.0 -4 5906.0 -4Q5896.0 -4 5888.0 -0.5Q5880.0 3 5880.0 9Q5880.0 17 5887.5 21.5Q5895.0 26 5908.0 30Q5934.0 38 5946.5 59.5Q5959.0 81 5962.0 111Q5966.0 149 5970.0 210.5Q5974.0 272 5977.5 349.0Q5981.0 426 5981.0 508Q5981.0 560 5954.5 583.0Q5928.0 606 5888.0 620Q5881.0 622 5870.0 628.0Q5859.0 634 5859.0 643Q5859.0 652 5867.0 655.0Q5875.0 658 5884.0 658Q5905.0 658 5926.0 657.0Q5947.0 656 5968.5 655.5Q5990.0 655 6013.5 654.0Q6037.0 653 6064.0 653Q6073.0 653 6077.5 649.5Q6082.0 646 6086.0 640Q6102.0 621 6127.0 592.5Q6152.0 564 6181.5 529.5Q6211.0 495 6243.5 457.0Q6276.0 419 6308.5 381.0Q6341.0 343 6371.0 308.5Q6401.0 274 6425.5 245.5Q6450.0 217 6466.0 199Q6470.0 195 6475.5 189.0Q6481.0 183 6485.0 183Q6493.0 183 6494.0 200Q6494.0 226 6494.0 266.5Q6494.0 307 6494.5 356.5Q6495.0 406 6494.5 458.0Q6494.0 510 6493.0 558Q6492.0 583 6472.5 597.5Q6453.0 612 6424.0 618Q6412.0 621 6401.5 625.5Q6391.0 630 6391.0 639Q6391.0 646 6401.5 649.0Q6412.0 652 6421.0 652Q6441.0 652 6454.5 652.0Q6468.0 652 6480.0 651.5Q6492.0 651 6505.0 651Q6527.0 651 6541.0 651.5Q6555.0 652 6571.5 653.0Q6588.0 654 6615.0 654Q6627.0 654 6634.5 650.5Q6642.0 647 6642.0 641Q6642.0 626 6613.0 620Q6578.0 613 6563.5 601.0Q6549.0 589 6548.0 561Q6548.0 536 6547.5 497.0Q6547.0 458 6546.0 412.0Q6545.0 366 6543.5 318.0Q6542.0 270 6541.5 224.0Q6541.0 178 6541.0 141Q6541.0 117 6543.0 92.0Q6545.0 67 6547.5 47.5Q6550.0 28 6550.0 20Q6550.0 -2 6543.0 -10.0Q6536.0 -18 6524.0 -18Z" transform="matrix(0.022120 0 0 -0.022120 76.35 391.34)" fill="#15130f"/></svg>