<svg xmlns="http://www.w3.org/2000/svg" viewBox="0 0 300 446"><rect width="300" height="446" fill="#f4ecd8"/><rect x="20.0" y="25.5" width="260" height="395" rx="20.3" fill="#f4ecd8" stroke="#15130f" stroke-width="1.5"/><rect x="36.9" y="42.4" width="226.2" height="354.7" fill="none" stroke="#15130f" stroke-width="0.7"/><g fill="none" stroke="#15130f" stroke-width="0.65" stroke-opacity="0.72" stroke-linecap="round" stroke-linejoin="round"><line x1="36.9" y1="42.4" x2="263.1" y2="370.6"/></g><path d="M36.9,370.6 H263.1 V397.1 H36.9 Z" fill="#bfdedc"/><g fill="none" stroke="#15130f" stroke-width="0.8"><line x1="36.9" y1="370.6" x2="263.1" y2="370.6"/><line x1="61.6" y1="370.6" x2="61.6" y2="397.1"/><line x1="238.4" y1="370.6" x2="238.4" y2="397.1"/></g><rect x="141.4" y="34.4" width="17.2" height="19.0" fill="#bfdedc" stroke="#15130f" stroke-width="0.8"/><path d="M649.0 1092V235L647.0 193L657.0 137Q686.0 59 825.0 52Q867.0 50 867.0 28Q867.0 -7 780.0 -7Q761.0 -7 652.0 2Q595.0 7 494.0 7Q394.0 7 322.0 -2Q293.0 -5 280.0 -5Q255.0 -5 255.0 20Q255.0 41 281.0 45Q384.0 61 415.0 92.0Q446.0 123 446.0 210L445.0 248V1010Q445.0 1115 363.0 1115Q331.0 1115 306.0 1104L281.0 1093Q270.0 1089 261.0 1089Q235.0 1089 235.0 1113Q235.0 1137 260.0 1150.0Q285.0 1163 362.0 1180Q506.0 1211 567.0 1267L614.0 1310Q625.0 1320 641.0 1320Q661.0 1320 661.0 1282Q661.0 1271 659.0 1243L651.0 1153Q649.0 1126 649.0 1092ZM1569.0 1307Q1753.0 1307 1878.5 1138.5Q2004.0 970 2004.0 722Q2004.0 567 1951.0 407.5Q1898.0 248 1812.0 142Q1674.0 -27 1496.0 -27Q1308.0 -27 1187.5 146.0Q1067.0 319 1067.0 588Q1067.0 880 1216.0 1093.5Q1365.0 1307 1569.0 1307ZM1470.0 1205Q1366.0 1205 1305.5 1102.0Q1245.0 999 1245.0 824Q1245.0 522 1354.0 312.5Q1463.0 103 1620.0 103Q1723.0 103 1784.0 206.5Q1845.0 310 1845.0 485Q1845.0 644 1797.5 809.0Q1750.0 974 1675.0 1077Q1580.0 1205 1470.0 1205Z" transform="matrix(0.006024 0 0 -0.006024 143.26 48.57)" fill="#15130f"/><path d="M250.0 950Q250.0 859 278.0 774.5Q306.0 690 358.5 645.0Q411.0 600 467.0 600Q524.0 600 576.5 645.0Q629.0 690 657.0 774.5Q685.0 859 685.0 950Q685.0 1051 657.0 1135.5Q629.0 1220 576.5 1265.0Q524.0 1310 467.0 1310Q411.0 1310 358.5 1265.0Q306.0 1220 278.0 1135.5Q250.0 1051 250.0 950ZM589.0 1391Q633.0 1377 677.0 1352Q777.0 1294 831.0 1185.5Q885.0 1077 885.0 950Q885.0 833 831.0 724.5Q777.0 616 677.0 558Q623.0 527 568.0 513V350H785.0V250H568.0V170Q568.0 120 593.0 80.0Q618.0 40 688.0 40H738.0V0H198.0V40H248.0Q318.0 40 343.0 80.0Q368.0 120 368.0 170V250H150.0V350H368.0V513Q312.0 527 259.0 558Q158.0 616 104.0 724.5Q50.0 833 50.0 950Q50.0 1077 104.0 1185.5Q158.0 1294 259.0 1352Q301.0 1377 346.0 1391Q253.0 1414 191.0 1476Q126.0 1541 119.0 1596Q117.0 1608 117.0 1620Q117.0 1656 138.5 1677.5Q160.0 1699 196.0 1700Q231.0 1700 251.5 1679.0Q272.0 1658 282.0 1630Q289.0 1613 292.5 1548.0Q296.0 1483 346.5 1467.5Q397.0 1452 467.0 1452Q537.0 1452 587.5 1467.5Q638.0 1483 641.5 1548.0Q645.0 1613 652.0 1630Q662.0 1658 682.5 1679.0Q703.0 1700 738.0 1700Q774.0 1699 795.5 1677.5Q817.0 1656 817.0 1620Q817.0 1608 815.0 1596Q808.0 1541 743.0 1476Q681.0 1414 589.0 1391Z" transform="matrix(0.009268 0 0 -0.009268 44.92 391.74)" fill="#15130f"/><path d="M1415.0 450Q1415.0 359 1443.0 274.5Q1471.0 190 1523.5 145.0Q1576.0 100 1632.0 100Q1689.0 100 1741.5 145.0Q1794.0 190 1822.0 274.5Q1850.0 359 1850.0 450Q1850.0 541 1822.0 625.5Q1794.0 710 1741.5 755.0Q1689.0 800 1632.0 800Q1576.0 800 1523.5 755.0Q1471.0 710 1443.0 625.5Q1415.0 541 1415.0 450ZM1395.0 824Q1409.0 834 1424.0 842Q1524.0 900 1632.0 900Q1741.0 900 1841.5 842.0Q1942.0 784 1996.0 675.5Q2050.0 567 2050.0 450Q2050.0 333 1996.0 224.5Q1942.0 116 1841.5 58.0Q1741.0 0 1632.0 0Q1524.0 0 1424.0 58Q1379.0 84 1343.0 120Q1297.0 25 1221.0 -55Q1027.0 -260 715.0 -260Q483.0 -260 289.0 -55Q278.0 -43 267.0 -31L292.0 4Q446.0 -160 715.0 -160Q952.0 -160 1083.5 35.5Q1215.0 231 1215.0 450Q1215.0 906 1106.0 1305Q927.0 1266 820.0 895Q700.0 479 700.0 0H500.0Q500.0 479 380.0 894.5Q260.0 1310 50.0 1310V1410Q343.0 1410 522.0 1003Q566.0 901 600.0 786Q634.0 901 679.0 1003Q857.0 1410 1150.0 1410H1255.0Q1359.0 1153 1395.0 824Z" transform="matrix(0.009139 0 0 -0.009139 241.15 389.12)" fill="#15130f"/><path d="M376.0 -14Q308.0 -14 246.0 9.5Q184.0 33 136.5 76.5Q89.0 120 61.5 180.5Q34.0 241 34.0 315Q34.0 383 56.5 445.5Q79.0 508 123.5 557.0Q168.0 606 233.5 635.0Q299.0 664 385.0 664Q453.0 664 514.5 640.5Q576.0 617 624.0 573.5Q672.0 530 699.5 469.5Q727.0 409 727.0 335Q727.0 268 704.5 205.0Q682.0 142 637.5 93.0Q593.0 44 527.5 15.0Q462.0 -14 376.0 -14ZM393.0 30Q456.0 30 498.5 62.0Q541.0 94 562.5 151.5Q584.0 209 584.0 284Q584.0 348 571.0 408.0Q558.0 468 531.0 515.5Q504.0 563 463.5 591.0Q423.0 619 367.0 619Q304.0 619 261.5 587.0Q219.0 555 198.0 498.0Q177.0 441 177.0 366Q177.0 302 190.0 242.0Q203.0 182 229.5 134.0Q256.0 86 296.5 58.0Q337.0 30 393.0 30ZM1403.0 -21Q1360.0 -21 1328.0 -11.5Q1296.0 -2 1273.0 16.0Q1250.0 34 1231.0 58Q1209.0 88 1188.0 116.5Q1167.0 145 1145.5 179.5Q1124.0 214 1098.0 262Q1085.0 285 1065.0 296Q1052.0 303 1038.5 306.0Q1025.0 309 1016.0 309Q1010.0 310 1007.0 304.0Q1004.0 298 1004.0 289V103Q1004.0 72 1020.5 55.0Q1037.0 38 1077.0 29Q1090.0 27 1096.0 22.5Q1102.0 18 1102.0 10Q1102.0 3 1096.5 0.0Q1091.0 -3 1080.0 -3Q1057.0 -3 1033.0 -1.5Q1009.0 0 986.5 1.0Q964.0 2 944.0 2Q922.0 2 898.5 1.0Q875.0 0 851.0 -2.0Q827.0 -4 803.0 -4Q794.0 -4 787.0 -0.5Q780.0 3 780.0 9Q780.0 24 805.0 29Q843.0 37 859.0 51.0Q875.0 65 875.0 98V540Q875.0 569 870.5 584.5Q866.0 600 853.0 608.0Q840.0 616 814.0 620Q800.0 622 794.0 628.0Q788.0 634 788.0 640Q788.0 647 794.5 650.5Q801.0 654 812.0 654Q842.0 654 860.0 653.0Q878.0 652 894.5 650.5Q911.0 649 934.0 649Q956.0 649 973.0 651.0Q990.0 653 1011.0 655.0Q1032.0 657 1065.0 657Q1180.0 657 1241.0 617.0Q1302.0 577 1302.0 495Q1302.0 450 1283.0 418.5Q1264.0 387 1235.5 367.0Q1207.0 347 1177.0 336Q1173.0 335 1173.5 331.0Q1174.0 327 1177.0 324Q1207.0 278 1235.5 236.5Q1264.0 195 1295.5 158.0Q1327.0 121 1364.0 87Q1395.0 58 1427.5 52.5Q1460.0 47 1495.0 47Q1510.0 47 1510.0 32Q1510.0 12 1495.0 0.5Q1480.0 -11 1455.5 -16.0Q1431.0 -21 1403.0 -21ZM1047.0 338Q1088.0 338 1115.5 356.5Q1143.0 375 1157.5 406.0Q1172.0 437 1172.0 475Q1172.0 520 1161.0 551.5Q1150.0 583 1123.5 600.5Q1097.0 618 1051.0 618Q1025.0 618 1015.5 599.5Q1006.0 581 1005.0 525Q1004.0 502 1004.0 464.5Q1004.0 427 1004.0 375Q1004.0 353 1015.5 345.5Q1027.0 338 1047.0 338ZM1888.0 -14Q1817.0 -14 1754.0 10.0Q1691.0 34 1642.5 77.5Q1594.0 121 1566.5 181.0Q1539.0 241 1539.0 313Q1539.0 384 1566.5 447.0Q1594.0 510 1644.0 558.5Q1694.0 607 1762.5 635.5Q1831.0 664 1914.0 664Q1933.0 664 1961.0 660.5Q1989.0 657 2019.0 652.0Q2049.0 647 2074.5 641.0Q2100.0 635 2114.0 629Q2121.0 626 2125.0 621.5Q2129.0 617 2130.0 609Q2135.0 576 2138.0 546.0Q2141.0 516 2141.0 494Q2141.0 486 2136.5 480.0Q2132.0 474 2125.0 474Q2114.0 474 2109.0 481.5Q2104.0 489 2100.0 498Q2092.0 516 2082.0 533.5Q2072.0 551 2057.0 567Q2047.0 577 2029.5 588.5Q2012.0 600 1985.0 608.0Q1958.0 616 1919.0 616Q1864.0 616 1820.0 593.5Q1776.0 571 1746.0 531.0Q1716.0 491 1700.0 440.5Q1684.0 390 1684.0 335Q1684.0 266 1700.0 210.5Q1716.0 155 1745.0 115.5Q1774.0 76 1814.0 55.0Q1854.0 34 1904.0 34Q1940.0 34 1960.5 44.5Q1981.0 55 1990.0 63Q2001.0 72 2008.0 90.0Q2015.0 108 2016.0 132Q2016.0 141 2016.5 155.0Q2017.0 169 2017.5 183.0Q2018.0 197 2018.0 206Q2018.0 217 2014.5 225.5Q2011.0 234 2001.0 239Q1992.0 246 1978.0 251.5Q1964.0 257 1949.5 259.5Q1935.0 262 1926.0 263Q1919.0 264 1911.0 269.5Q1903.0 275 1903.0 283Q1903.0 291 1910.5 295.0Q1918.0 299 1924.0 299Q1947.0 299 1971.5 298.0Q1996.0 297 2020.5 296.0Q2045.0 295 2068.0 295Q2096.0 295 2123.5 297.0Q2151.0 299 2180.0 299Q2186.0 299 2192.5 295.5Q2199.0 292 2199.0 283Q2199.0 275 2192.0 270.0Q2185.0 265 2179.0 264Q2152.0 257 2142.5 246.0Q2133.0 235 2130.0 215Q2126.0 193 2124.5 176.0Q2123.0 159 2123.0 140V109Q2123.0 104 2126.5 100.0Q2130.0 96 2134.0 91Q2138.0 86 2141.5 81.0Q2145.0 76 2145.0 71Q2145.0 65 2141.5 58.5Q2138.0 52 2127.0 50Q2120.0 49 2100.0 39.0Q2080.0 29 2049.5 16.5Q2019.0 4 1978.5 -5.0Q1938.0 -14 1888.0 -14ZM2251.0 -5Q2239.0 -5 2231.0 -1.5Q2223.0 2 2223.0 10Q2223.0 19 2230.5 24.0Q2238.0 29 2250.0 33Q2279.0 41 2300.5 57.5Q2322.0 74 2335.0 103Q2360.0 162 2383.0 216.5Q2406.0 271 2427.0 325.0Q2448.0 379 2469.5 435.0Q2491.0 491 2513.0 553Q2524.0 584 2528.0 601.0Q2532.0 618 2535.0 626Q2550.0 630 2563.0 634.0Q2576.0 638 2592.0 644Q2606.0 651 2616.0 662.0Q2626.0 673 2631.0 679Q2634.0 681 2637.0 681.5Q2640.0 682 2643.0 677Q2646.0 671 2648.0 665.0Q2650.0 659 2652.0 652Q2674.0 581 2697.5 508.5Q2721.0 436 2744.0 365.5Q2767.0 295 2788.5 230.5Q2810.0 166 2828.0 112Q2837.0 85 2850.5 69.0Q2864.0 53 2880.5 44.5Q2897.0 36 2917.0 31Q2930.0 28 2937.0 23.0Q2944.0 18 2944.0 9Q2944.0 3 2937.5 0.0Q2931.0 -3 2921.0 -3Q2903.0 -3 2875.5 -2.0Q2848.0 -1 2819.0 0.5Q2790.0 2 2767.0 2Q2747.0 2 2722.5 1.0Q2698.0 0 2673.5 -1.0Q2649.0 -2 2632.0 -2Q2622.0 -2 2614.5 1.5Q2607.0 5 2607.0 12Q2607.0 20 2615.0 25.5Q2623.0 31 2634.0 33Q2670.0 39 2686.0 51.5Q2702.0 64 2698.0 88Q2695.0 105 2689.0 128.5Q2683.0 152 2676.5 177.5Q2670.0 203 2663.0 224Q2661.0 232 2657.0 235.5Q2653.0 239 2642.0 239H2462.0Q2455.0 239 2451.0 234.5Q2447.0 230 2445.0 221Q2441.0 208 2435.5 191.5Q2430.0 175 2424.5 157.5Q2419.0 140 2414.5 125.0Q2410.0 110 2408.0 99Q2403.0 72 2417.5 56.5Q2432.0 41 2468.0 32Q2495.0 25 2495.0 11Q2495.0 5 2488.5 1.5Q2482.0 -2 2470.0 -2Q2447.0 -2 2422.0 -0.5Q2397.0 1 2367.0 1Q2337.0 1 2308.5 -2.0Q2280.0 -5 2251.0 -5ZM2489.0 285H2628.0Q2642.0 285 2642.0 291Q2642.0 294 2641.5 296.0Q2641.0 298 2640.0 302L2570.0 533Q2566.0 547 2563.0 547Q2561.0 547 2556.0 534L2472.0 302Q2470.0 297 2470.0 294Q2470.0 289 2475.5 287.0Q2481.0 285 2489.0 285ZM3614.0 -18Q3602.0 -18 3574.0 -3.0Q3546.0 12 3517.0 49Q3500.0 68 3475.5 95.5Q3451.0 123 3421.5 156.0Q3392.0 189 3360.0 225.0Q3328.0 261 3296.5 297.0Q3265.0 333 3235.0 366.0Q3205.0 399 3180.0 426.5Q3155.0 454 3138.0 474Q3134.0 479 3129.5 482.5Q3125.0 486 3122.0 486Q3118.0 486 3116.0 479.0Q3114.0 472 3114.0 466Q3114.0 420 3114.5 357.0Q3115.0 294 3115.0 229.0Q3115.0 164 3115.0 109Q3115.0 78 3133.0 58.0Q3151.0 38 3190.0 29Q3202.0 27 3210.5 22.5Q3219.0 18 3219.0 10Q3219.0 3 3211.0 0.0Q3203.0 -3 3193.0 -3Q3166.0 -3 3150.0 -2.0Q3134.0 -1 3121.0 0.0Q3108.0 1 3088.0 1Q3067.0 1 3050.5 0.0Q3034.0 -1 3021.0 -2.5Q3008.0 -4 2996.0 -4Q2986.0 -4 2978.0 -0.5Q2970.0 3 2970.0 9Q2970.0 17 2977.5 21.5Q2985.0 26 2998.0 30Q3024.0 38 3036.5 59.5Q3049.0 81 3052.0 111Q3056.0 149 3060.0 210.5Q3064.0 272 3067.5 349.0Q3071.0 426 3071.0 508Q3071.0 560 3044.5 583.0Q3018.0 606 2978.0 620Q2971.0 622 2960.0 628.0Q2949.0 634 2949.0 643Q2949.0 652 2957.0 655.0Q2965.0 658 2974.0 658Q2995.0 658 3016.0 657.0Q3037.0 656 3058.5 655.5Q3080.0 655 3103.5 654.0Q3127.0 653 3154.0 653Q3163.0 653 3167.5 649.5Q3172.0 646 3176.0 640Q3192.0 621 3217.0 592.5Q3242.0 564 3271.5 529.5Q3301.0 495 3333.5 457.0Q3366.0 419 3398.5 381.0Q3431.0 343 3461.0 308.5Q3491.0 274 3515.5 245.5Q3540.0 217 3556.0 199Q3560.0 195 3565.5 189.0Q3571.0 183 3575.0 183Q3583.0 183 3584.0 200Q3584.0 226 3584.0 266.5Q3584.0 307 3584.5 356.5Q3585.0 406 3584.5 458.0Q3584.0 510 3583.0 558Q3582.0 583 3562.5 597.5Q3543.0 612 3514.0 618Q3502.0 621 3491.5 625.5Q3481.0 630 3481.0 639Q3481.0 646 3491.5 649.0Q3502.0 652 3511.0 652Q3531.0 652 3544.5 652.0Q3558.0 652 3570.0 651.5Q3582.0 651 3595.0 651Q3617.0 651 3631.0 651.5Q3645.0 652 3661.5 653.0Q3678.0 654 3705.0 654Q3717.0 654 3724.5 650.5Q3732.0 647 3732.0 641Q3732.0 626 3703.0 620Q3668.0 613 3653.5 601.0Q3639.0 589 3638.0 561Q3638.0 536 3637.5 497.0Q3637.0 458 3636.0 412.0Q3635.0 366 3633.5 318.0Q3632.0 270 3631.5 224.0Q3631.0 178 3631.0 141Q3631.0 117 3633.0 92.0Q3635.0 67 3637.5 47.5Q3640.0 28 3640.0 20Q3640.0 -2 3633.0 -10.0Q3626.0 -18 3614.0 -18ZM3782.0 -4Q3773.0 -4 3766.0 -0.5Q3759.0 3 3759.0 9Q3759.0 24 3784.0 29Q3822.0 37 3839.0 51.0Q3856.0 65 3856.0 97V551Q3856.0 584 3842.0 598.0Q3828.0 612 3789.0 620Q3764.0 625 3764.0 641Q3764.0 647 3771.0 650.5Q3778.0 654 3787.0 654Q3811.0 654 3834.0 653.0Q3857.0 652 3878.5 651.0Q3900.0 650 3922.0 650Q3943.0 650 3964.5 651.0Q3986.0 652 4009.0 653.0Q4032.0 654 4056.0 654Q4066.0 654 4072.0 650.5Q4078.0 647 4078.0 640Q4078.0 632 4071.5 627.5Q4065.0 623 4053.0 620Q4013.0 610 3999.0 596.0Q3985.0 582 3985.0 550V98Q3985.0 67 4001.5 53.0Q4018.0 39 4056.0 29Q4069.0 26 4075.5 22.0Q4082.0 18 4082.0 10Q4082.0 3 4076.0 0.0Q4070.0 -3 4060.0 -3Q4036.0 -3 4012.0 -2.0Q3988.0 -1 3965.5 0.0Q3943.0 1 3922.0 1Q3900.0 1 3877.0 0.0Q3854.0 -1 3830.0 -2.5Q3806.0 -4 3782.0 -4ZM4623.0 -4Q4601.0 -4 4570.0 -3.5Q4539.0 -3 4502.0 -2.5Q4465.0 -2 4425.0 -1.5Q4385.0 -1 4347.0 -1Q4313.0 -1 4278.5 -1.5Q4244.0 -2 4211.0 -3L4134.0 -4Q4126.0 -4 4123.5 7.0Q4121.0 18 4122.0 20Q4128.0 31 4137.5 47.0Q4147.0 63 4158.5 81.0Q4170.0 99 4180.0 114Q4221.0 176 4259.0 234.0Q4297.0 292 4334.5 348.0Q4372.0 404 4410.0 462.0Q4448.0 520 4487.0 583Q4489.0 586 4491.0 589.5Q4493.0 593 4493.0 596Q4493.0 600 4489.5 602.5Q4486.0 605 4476.0 606Q4455.0 606 4428.5 606.5Q4402.0 607 4375.0 607Q4353.0 607 4332.5 607.0Q4312.0 607 4294.0 606Q4259.0 605 4227.0 584.0Q4195.0 563 4176.0 525Q4170.0 514 4161.5 502.5Q4153.0 491 4139.0 491Q4132.0 491 4129.0 495.5Q4126.0 500 4126.0 506Q4126.0 512 4128.5 519.5Q4131.0 527 4133.0 533Q4142.0 553 4147.5 572.0Q4153.0 591 4156.5 612.5Q4160.0 634 4162.0 659Q4164.0 673 4168.5 678.0Q4173.0 683 4181.0 683Q4189.0 683 4201.5 674.0Q4214.0 665 4226.0 660Q4242.0 654 4263.5 651.0Q4285.0 648 4312.0 648Q4339.0 648 4370.0 648.0Q4401.0 648 4433.0 648Q4455.0 648 4485.0 648.5Q4515.0 649 4547.5 649.5Q4580.0 650 4609.5 651.0Q4639.0 652 4661.0 652Q4667.0 652 4672.5 643.0Q4678.0 634 4676.0 630L4610.0 531Q4570.0 473 4533.5 417.0Q4497.0 361 4462.5 306.0Q4428.0 251 4393.0 195.5Q4358.0 140 4321.0 83Q4313.0 70 4313.0 61Q4313.0 55 4318.0 51.5Q4323.0 48 4332.0 47Q4348.0 46 4373.0 45.0Q4398.0 44 4420.0 44Q4459.0 44 4492.0 46.5Q4525.0 49 4554.0 56Q4615.0 72 4649.0 157Q4652.0 164 4657.5 168.5Q4663.0 173 4669.0 173Q4682.0 173 4682.0 159Q4682.0 150 4678.0 131.5Q4674.0 113 4668.5 91.0Q4663.0 69 4657.0 48.5Q4651.0 28 4647.0 14Q4644.0 6 4638.0 1.0Q4632.0 -4 4623.0 -4ZM4721.0 -5Q4709.0 -5 4701.0 -1.5Q4693.0 2 4693.0 10Q4693.0 19 4700.5 24.0Q4708.0 29 4720.0 33Q4749.0 41 4770.5 57.5Q4792.0 74 4805.0 103Q4830.0 162 4853.0 216.5Q4876.0 271 4897.0 325.0Q4918.0 379 4939.5 435.0Q4961.0 491 4983.0 553Q4994.0 584 4998.0 601.0Q5002.0 618 5005.0 626Q5020.0 630 5033.0 634.0Q5046.0 638 5062.0 644Q5076.0 651 5086.0 662.0Q5096.0 673 5101.0 679Q5104.0 681 5107.0 681.5Q5110.0 682 5113.0 677Q5116.0 671 5118.0 665.0Q5120.0 659 5122.0 652Q5144.0 581 5167.5 508.5Q5191.0 436 5214.0 365.5Q5237.0 295 5258.5 230.5Q5280.0 166 5298.0 112Q5307.0 85 5320.5 69.0Q5334.0 53 5350.5 44.5Q5367.0 36 5387.0 31Q5400.0 28 5407.0 23.0Q5414.0 18 5414.0 9Q5414.0 3 5407.5 0.0Q5401.0 -3 5391.0 -3Q5373.0 -3 5345.5 -2.0Q5318.0 -1 5289.0 0.5Q5260.0 2 5237.0 2Q5217.0 2 5192.5 1.0Q5168.0 0 5143.5 -1.0Q5119.0 -2 5102.0 -2Q5092.0 -2 5084.5 1.5Q5077.0 5 5077.0 12Q5077.0 20 5085.0 25.5Q5093.0 31 5104.0 33Q5140.0 39 5156.0 51.5Q5172.0 64 5168.0 88Q5165.0 105 5159.0 128.5Q5153.0 152 5146.5 177.5Q5140.0 203 5133.0 224Q5131.0 232 5127.0 235.5Q5123.0 239 5112.0 239H4932.0Q4925.0 239 4921.0 234.5Q4917.0 230 4915.0 221Q4911.0 208 4905.5 191.5Q4900.0 175 4894.5 157.5Q4889.0 140 4884.5 125.0Q4880.0 110 4878.0 99Q4873.0 72 4887.5 56.5Q4902.0 41 4938.0 32Q4965.0 25 4965.0 11Q4965.0 5 4958.5 1.5Q4952.0 -2 4940.0 -2Q4917.0 -2 4892.0 -0.5Q4867.0 1 4837.0 1Q4807.0 1 4778.5 -2.0Q4750.0 -5 4721.0 -5ZM4959.0 285H5098.0Q5112.0 285 5112.0 291Q5112.0 294 5111.5 296.0Q5111.0 298 5110.0 302L5040.0 533Q5036.0 547 5033.0 547Q5031.0 547 5026.0 534L4942.0 302Q4940.0 297 4940.0 294Q4940.0 289 4945.5 287.0Q4951.0 285 4959.0 285ZM5617.0 -4Q5607.0 -4 5599.5 -0.5Q5592.0 3 5592.0 9Q5592.0 17 5599.0 22.0Q5606.0 27 5619.0 29Q5657.0 37 5675.0 51.5Q5693.0 66 5693.0 99V504Q5693.0 545 5691.0 566.0Q5689.0 587 5685.5 594.5Q5682.0 602 5675.0 603Q5665.0 607 5650.0 608.0Q5635.0 609 5621.0 609H5590.0Q5561.0 609 5534.0 595.5Q5507.0 582 5492.0 559Q5488.0 553 5479.5 542.0Q5471.0 531 5461.5 522.0Q5452.0 513 5442.0 513Q5435.0 513 5432.5 518.0Q5430.0 523 5430.0 529Q5430.0 541 5436.0 553Q5453.0 587 5461.5 612.5Q5470.0 638 5473.0 673Q5475.0 688 5481.5 692.5Q5488.0 697 5495.0 697Q5501.0 697 5509.5 684.5Q5518.0 672 5525.0 664Q5534.0 655 5557.0 650.5Q5580.0 646 5596.0 646L5965.0 647Q5993.0 647 6012.0 651.5Q6031.0 656 6042.0 661Q6057.0 670 6066.0 679.5Q6075.0 689 6087.0 689Q6092.0 689 6094.5 683.5Q6097.0 678 6097.0 670Q6097.0 665 6096.0 658.5Q6095.0 652 6094.0 647Q6090.0 628 6086.0 613.5Q6082.0 599 6079.5 586.5Q6077.0 574 6077.0 558V541Q6077.0 527 6073.0 517.0Q6069.0 507 6060.0 507Q6052.0 507 6046.5 516.5Q6041.0 526 6035.0 546Q6026.0 578 6005.0 593.5Q5984.0 609 5939.0 609H5871.0Q5852.0 609 5841.5 602.0Q5831.0 595 5826.5 571.5Q5822.0 548 5822.0 499V100Q5822.0 68 5840.0 53.5Q5858.0 39 5897.0 29Q5909.0 26 5916.0 22.0Q5923.0 18 5923.0 10Q5923.0 3 5916.5 0.0Q5910.0 -3 5900.0 -3Q5876.0 -3 5852.0 -2.0Q5828.0 -1 5804.5 0.0Q5781.0 1 5759.0 1Q5737.0 1 5713.5 0.0Q5690.0 -1 5665.5 -2.5Q5641.0 -4 5617.0 -4ZM6135.0 -4Q6126.0 -4 6119.0 -0.5Q6112.0 3 6112.0 9Q6112.0 24 6137.0 29Q6175.0 37 6192.0 51.0Q6209.0 65 6209.0 97V551Q6209.0 584 6195.0 598.0Q6181.0 612 6142.0 620Q6117.0 625 6117.0 641Q6117.0 647 6124.0 650.5Q6131.0 654 6140.0 654Q6164.0 654 6187.0 653.0Q6210.0 652 6231.5 651.0Q6253.0 650 6275.0 650Q6296.0 650 6317.5 651.0Q6339.0 652 6362.0 653.0Q6385.0 654 6409.0 654Q6419.0 654 6425.0 650.5Q6431.0 647 6431.0 640Q6431.0 632 6424.5 627.5Q6418.0 623 6406.0 620Q6366.0 610 6352.0 596.0Q6338.0 582 6338.0 550V98Q6338.0 67 6354.5 53.0Q6371.0 39 6409.0 29Q6422.0 26 6428.5 22.0Q6435.0 18 6435.0 10Q6435.0 3 6429.0 0.0Q6423.0 -3 6413.0 -3Q6389.0 -3 6365.0 -2.0Q6341.0 -1 6318.5 0.0Q6296.0 1 6275.0 1Q6253.0 1 6230.0 0.0Q6207.0 -1 6183.0 -2.5Q6159.0 -4 6135.0 -4ZM6827.0 -14Q6759.0 -14 6697.0 9.5Q6635.0 33 6587.5 76.5Q6540.0 120 6512.5 180.5Q6485.0 241 6485.0 315Q6485.0 383 6507.5 445.5Q6530.0 508 6574.5 557.0Q6619.0 606 6684.5 635.0Q6750.0 664 6836.0 664Q6904.0 664 6965.5 640.5Q7027.0 617 7075.0 573.5Q7123.0 530 7150.5 469.5Q7178.0 409 7178.0 335Q7178.0 268 7155.5 205.0Q7133.0 142 7088.5 93.0Q7044.0 44 6978.5 15.0Q6913.0 -14 6827.0 -14ZM6844.0 30Q6907.0 30 6949.5 62.0Q6992.0 94 7013.5 151.5Q7035.0 209 7035.0 284Q7035.0 348 7022.0 408.0Q7009.0 468 6982.0 515.5Q6955.0 563 6914.5 591.0Q6874.0 619 6818.0 619Q6755.0 619 6712.5 587.0Q6670.0 555 6649.0 498.0Q6628.0 441 6628.0 366Q6628.0 302 6641.0 242.0Q6654.0 182 6680.5 134.0Q6707.0 86 6747.5 58.0Q6788.0 30 6844.0 30ZM7888.0 -18Q7876.0 -18 7848.0 -3.0Q7820.0 12 7791.0 49Q7774.0 68 7749.5 95.5Q7725.0 123 7695.5 156.0Q7666.0 189 7634.0 225.0Q7602.0 261 7570.5 297.0Q7539.0 333 7509.0 366.0Q7479.0 399 7454.0 426.5Q7429.0 454 7412.0 474Q7408.0 479 7403.5 482.5Q7399.0 486 7396.0 486Q7392.0 486 7390.0 479.0Q7388.0 472 7388.0 466Q7388.0 420 7388.5 357.0Q7389.0 294 7389.0 229.0Q7389.0 164 7389.0 109Q7389.0 78 7407.0 58.0Q7425.0 38 7464.0 29Q7476.0 27 7484.5 22.5Q7493.0 18 7493.0 10Q7493.0 3 7485.0 0.0Q7477.0 -3 7467.0 -3Q7440.0 -3 7424.0 -2.0Q7408.0 -1 7395.0 0.0Q7382.0 1 7362.0 1Q7341.0 1 7324.5 0.0Q7308.0 -1 7295.0 -2.5Q7282.0 -4 7270.0 -4Q7260.0 -4 7252.0 -0.5Q7244.0 3 7244.0 9Q7244.0 17 7251.5 21.5Q7259.0 26 7272.0 30Q7298.0 38 7310.5 59.5Q7323.0 81 7326.0 111Q7330.0 149 7334.0 210.5Q7338.0 272 7341.5 349.0Q7345.0 426 7345.0 508Q7345.0 560 7318.5 583.0Q7292.0 606 7252.0 620Q7245.0 622 7234.0 628.0Q7223.0 634 7223.0 643Q7223.0 652 7231.0 655.0Q7239.0 658 7248.0 658Q7269.0 658 7290.0 657.0Q7311.0 656 7332.5 655.5Q7354.0 655 7377.5 654.0Q7401.0 653 7428.0 653Q7437.0 653 7441.5 649.5Q7446.0 646 7450.0 640Q7466.0 621 7491.0 592.5Q7516.0 564 7545.5 529.5Q7575.0 495 7607.5 457.0Q7640.0 419 7672.5 381.0Q7705.0 343 7735.0 308.5Q7765.0 274 7789.5 245.5Q7814.0 217 7830.0 199Q7834.0 195 7839.5 189.0Q7845.0 183 7849.0 183Q7857.0 183 7858.0 200Q7858.0 226 7858.0 266.5Q7858.0 307 7858.5 356.5Q7859.0 406 7858.5 458.0Q7858.0 510 7857.0 558Q7856.0 583 7836.5 597.5Q7817.0 612 7788.0 618Q7776.0 621 7765.5 625.5Q7755.0 630 7755.0 639Q7755.0 646 7765.5 649.0Q7776.0 652 7785.0 652Q7805.0 652 7818.5 652.0Q7832.0 652 7844.0 651.5Q7856.0 651 7869.0 651Q7891.0 651 7905.0 651.5Q7919.0 652 7935.5 653.0Q7952.0 654 7979.0 654Q7991.0 654 7998.5 650.5Q8006.0 647 8006.0 641Q8006.0 626 7977.0 620Q7942.0 613 7927.5 601.0Q7913.0 589 7912.0 561Q7912.0 536 7911.5 497.0Q7911.0 458 7910.0 412.0Q7909.0 366 7907.5 318.0Q7906.0 270 7905.5 224.0Q7905.0 178 7905.0 141Q7905.0 117 7907.0 92.0Q7909.0 67 7911.5 47.5Q7914.0 28 7914.0 20Q7914.0 -2 7907.0 -10.0Q7900.0 -18 7888.0 -18Z" transform="matrix(0.018920 0 0 -0.018920 73.94 390.26)" fill="#15130f"/></svg>