<svg xmlns="http://www.w3.org/2000/svg" viewBox="0 0 300 446"><rect width="300" height="446" fill="#f4ecd8"/><rect x="20.0" y="25.5" width="260" height="395" rx="20.3" fill="#f4ecd8" stroke="#15130f" stroke-width="1.5"/><rect x="36.9" y="42.4" width="226.2" height="354.7" fill="none" stroke="#15130f" stroke-width="0.7"/><g fill="none" stroke="#15130f" stroke-width="0.65" stroke-opacity="0.72" stroke-linecap="round" stroke-linejoin="round"><line x1="36.9" y1="42.4" x2="263.1" y2="370.6"/></g><path d="M36.9,370.6 H263.1 V397.1 H36.9 Z" fill="#bfdedc"/><g fill="none" stroke="#15130f" stroke-width="0.8"><line x1="36.9" y1="370.6" x2="263.1" y2="370.6"/><line x1="61.6" y1="370.6" x2="61.6" y2="397.1"/><line x1="238.4" y1="370.6" x2="238.4" y2="397.1"/></g><rect x="141.4" y="34.4" width="17.2" height="19.0" fill="#bfdedc" stroke="#15130f" stroke-width="0.8"/><path d="M754.0 1055H388.0Q323.0 1055 311.0 963Q305.0 912 298.0 870Q294.0 844 294.0 822Q294.0 792 325.0 792Q335.0 792 350.0 795Q414.0 806 475.0 806Q664.0 806 775.5 709.5Q887.0 613 887.0 449Q887.0 250 738.0 111.5Q589.0 -27 375.0 -27Q285.0 -27 176.5 10.0Q68.0 47 68.0 78Q68.0 105 94.0 105Q101.0 105 112.0 101Q255.0 47 343.0 47Q489.0 47 590.5 139.0Q692.0 231 692.0 365Q692.0 477 611.5 550.0Q531.0 623 407.0 623Q373.0 623 299.0 612Q255.0 606 240.0 606Q196.0 606 196.0 658Q196.0 671 205.0 708Q212.0 739 227.0 858Q234.0 917 245.0 993L264.0 1132Q277.0 1226 285.5 1240.0Q294.0 1254 337.0 1254H727.0Q767.0 1254 797.0 1284L837.0 1323Q845.0 1331 858.0 1331Q875.0 1331 875.0 1315Q875.0 1301 869.0 1285L847.0 1208L830.0 1148Q809.0 1075 801.0 1065.0Q793.0 1055 754.0 1055Z" transform="matrix(0.006858 0 0 -0.006858 146.73 49.15)" fill="#15130f"/><path d="M250.0 950Q250.0 859 278.0 774.5Q306.0 690 358.5 645.0Q411.0 600 467.0 600Q524.0 600 576.5 645.0Q629.0 690 657.0 774.5Q685.0 859 685.0 950Q685.0 1051 657.0 1135.5Q629.0 1220 576.5 1265.0Q524.0 1310 467.0 1310Q411.0 1310 358.5 1265.0Q306.0 1220 278.0 1135.5Q250.0 1051 250.0 950ZM589.0 1391Q633.0 1377 677.0 1352Q777.0 1294 831.0 1185.5Q885.0 1077 885.0 950Q885.0 833 831.0 724.5Q777.0 616 677.0 558Q623.0 527 568.0 513V350H785.0V250H568.0V170Q568.0 120 593.0 80.0Q618.0 40 688.0 40H738.0V0H198.0V40H248.0Q318.0 40 343.0 80.0Q368.0 120 368.0 170V250H150.0V350H368.0V513Q312.0 527 259.0 558Q158.0 616 104.0 724.5Q50.0 833 50.0 950Q50.0 1077 104.0 1185.5Q158.0 1294 259.0 1352Q301.0 1377 346.0 1391Q253.0 1414 191.0 1476Q126.0 1541 119.0 1596Q117.0 1608 117.0 1620Q117.0 1656 138.5 1677.5Q160.0 1699 196.0 1700Q231.0 1700 251.5 1679.0Q272.0 1658 282.0 1630Q289.0 1613 292.5 1548.0Q296.0 1483 346.5 1467.5Q397.0 1452 467.0 1452Q537.0 1452 587.5 1467.5Q638.0 1483 641.5 1548.0Q645.0 1613 652.0 1630Q662.0 1658 682.5 1679.0Q703.0 1700 738.0 1700Q774.0 1699 795.5 1677.5Q817.0 1656 817.0 1620Q817.0 1608 815.0 1596Q808.0 1541 743.0 1476Q681.0 1414 589.0 1391Z" transform="matrix(0.009268 0 0 -0.009268 44.92 391.74)" fill="#15130f"/><path d="M250.0 439Q250.0 348 278.0 263.5Q306.0 179 358.5 134.0Q411.0 89 467.0 89Q524.0 89 576.5 134.0Q629.0 179 657.0 263.5Q685.0 348 685.0 439Q685.0 530 657.0 614.5Q629.0 699 576.5 744.0Q524.0 789 467.0 789Q411.0 789 358.5 744.0Q306.0 699 278.0 614.5Q250.0 530 250.0 439ZM831.0 665Q885.0 556 885.0 439Q885.0 322 831.0 213.5Q777.0 105 676.5 47.0Q576.0 -11 467.0 -11Q359.0 -11 258.5 47.0Q158.0 105 104.0 213.5Q50.0 322 50.0 439Q50.0 556 104.0 664.5Q158.0 773 258.5 831.0Q359.0 889 467.0 889Q503.0 889 537.0 883V900Q537.0 1115 681.0 1262.5Q825.0 1410 1118.0 1410Q1411.0 1410 1555.5 1262.5Q1700.0 1115 1700.0 900Q1700.0 684 1389.0 330.0Q1078.0 -24 1078.0 -204Q1078.0 -303 1125.5 -356.5Q1173.0 -410 1248.0 -410Q1356.0 -410 1446.5 -374.0Q1537.0 -338 1581.0 -266.5Q1625.0 -195 1651.0 -51H1688.0V-510H1651.0Q1644.0 -464 1629.5 -449.0Q1615.0 -434 1590.0 -434Q1554.0 -434 1450.0 -472.0Q1346.0 -510 1227.0 -510Q1089.0 -510 994.5 -400.0Q900.0 -290 900.0 -128Q900.0 102 1200.0 452.5Q1500.0 803 1500.0 950Q1500.0 1100 1414.0 1205.0Q1328.0 1310 1118.0 1310Q905.0 1310 821.0 1205.0Q737.0 1100 737.0 900Q737.0 836 768.0 782.5Q799.0 729 831.0 665Z" transform="matrix(0.009268 0 0 -0.009268 242.64 388.04)" fill="#15130f"/><path d="M379.0 -7Q352.0 -7 314.0 -5.0Q276.0 -3 237.5 -1.5Q199.0 0 174.0 0Q154.0 0 133.5 -0.5Q113.0 -1 91.0 -2.5Q69.0 -4 44.0 -4Q35.0 -4 28.0 -0.5Q21.0 3 21.0 10Q21.0 19 27.5 23.0Q34.0 27 47.0 29Q85.0 37 99.0 51.0Q113.0 65 113.0 98V550Q113.0 584 99.5 598.0Q86.0 612 47.0 620Q34.0 622 27.5 626.5Q21.0 631 21.0 640Q21.0 647 28.0 650.5Q35.0 654 44.0 654Q68.0 654 90.0 653.5Q112.0 653 133.5 651.5Q155.0 650 177.0 650Q192.0 650 217.5 651.5Q243.0 653 272.5 654.5Q302.0 656 328.0 657.5Q354.0 659 370.0 659Q454.0 659 521.0 635.0Q588.0 611 635.5 568.0Q683.0 525 708.0 466.0Q733.0 407 733.0 338Q733.0 269 708.0 207.0Q683.0 145 636.5 97.0Q590.0 49 524.5 21.0Q459.0 -7 379.0 -7ZM364.0 39Q436.0 39 486.5 73.5Q537.0 108 563.0 170.5Q589.0 233 589.0 315Q589.0 383 571.5 438.5Q554.0 494 522.5 532.5Q491.0 571 447.5 592.0Q404.0 613 353.0 613Q317.0 613 292.5 611.0Q268.0 609 255.5 599.5Q243.0 590 243.0 568V128Q243.0 93 258.5 73.5Q274.0 54 301.5 46.5Q329.0 39 364.0 39ZM1404.0 -21Q1361.0 -21 1329.0 -11.5Q1297.0 -2 1274.0 16.0Q1251.0 34 1232.0 58Q1210.0 88 1189.0 116.5Q1168.0 145 1146.5 179.5Q1125.0 214 1099.0 262Q1086.0 285 1066.0 296Q1053.0 303 1039.5 306.0Q1026.0 309 1017.0 309Q1011.0 310 1008.0 304.0Q1005.0 298 1005.0 289V103Q1005.0 72 1021.5 55.0Q1038.0 38 1078.0 29Q1091.0 27 1097.0 22.5Q1103.0 18 1103.0 10Q1103.0 3 1097.5 0.0Q1092.0 -3 1081.0 -3Q1058.0 -3 1034.0 -1.5Q1010.0 0 987.5 1.0Q965.0 2 945.0 2Q923.0 2 899.5 1.0Q876.0 0 852.0 -2.0Q828.0 -4 804.0 -4Q795.0 -4 788.0 -0.5Q781.0 3 781.0 9Q781.0 24 806.0 29Q844.0 37 860.0 51.0Q876.0 65 876.0 98V540Q876.0 569 871.5 584.5Q867.0 600 854.0 608.0Q841.0 616 815.0 620Q801.0 622 795.0 628.0Q789.0 634 789.0 640Q789.0 647 795.5 650.5Q802.0 654 813.0 654Q843.0 654 861.0 653.0Q879.0 652 895.5 650.5Q912.0 649 935.0 649Q957.0 649 974.0 651.0Q991.0 653 1012.0 655.0Q1033.0 657 1066.0 657Q1181.0 657 1242.0 617.0Q1303.0 577 1303.0 495Q1303.0 450 1284.0 418.5Q1265.0 387 1236.5 367.0Q1208.0 347 1178.0 336Q1174.0 335 1174.5 331.0Q1175.0 327 1178.0 324Q1208.0 278 1236.5 236.5Q1265.0 195 1296.5 158.0Q1328.0 121 1365.0 87Q1396.0 58 1428.5 52.5Q1461.0 47 1496.0 47Q1511.0 47 1511.0 32Q1511.0 12 1496.0 0.5Q1481.0 -11 1456.5 -16.0Q1432.0 -21 1404.0 -21ZM1048.0 338Q1089.0 338 1116.5 356.5Q1144.0 375 1158.5 406.0Q1173.0 437 1173.0 475Q1173.0 520 1162.0 551.5Q1151.0 583 1124.5 600.5Q1098.0 618 1052.0 618Q1026.0 618 1016.5 599.5Q1007.0 581 1006.0 525Q1005.0 502 1005.0 464.5Q1005.0 427 1005.0 375Q1005.0 353 1016.5 345.5Q1028.0 338 1048.0 338ZM1530.0 -5Q1518.0 -5 1510.0 -1.5Q1502.0 2 1502.0 10Q1502.0 19 1509.5 24.0Q1517.0 29 1529.0 33Q1558.0 41 1579.5 57.5Q1601.0 74 1614.0 103Q1639.0 162 1662.0 216.5Q1685.0 271 1706.0 325.0Q1727.0 379 1748.5 435.0Q1770.0 491 1792.0 553Q1803.0 584 1807.0 601.0Q1811.0 618 1814.0 626Q1829.0 630 1842.0 634.0Q1855.0 638 1871.0 644Q1885.0 651 1895.0 662.0Q1905.0 673 1910.0 679Q1913.0 681 1916.0 681.5Q1919.0 682 1922.0 677Q1925.0 671 1927.0 665.0Q1929.0 659 1931.0 652Q1953.0 581 1976.5 508.5Q2000.0 436 2023.0 365.5Q2046.0 295 2067.5 230.5Q2089.0 166 2107.0 112Q2116.0 85 2129.5 69.0Q2143.0 53 2159.5 44.5Q2176.0 36 2196.0 31Q2209.0 28 2216.0 23.0Q2223.0 18 2223.0 9Q2223.0 3 2216.5 0.0Q2210.0 -3 2200.0 -3Q2182.0 -3 2154.5 -2.0Q2127.0 -1 2098.0 0.5Q2069.0 2 2046.0 2Q2026.0 2 2001.5 1.0Q1977.0 0 1952.5 -1.0Q1928.0 -2 1911.0 -2Q1901.0 -2 1893.5 1.5Q1886.0 5 1886.0 12Q1886.0 20 1894.0 25.5Q1902.0 31 1913.0 33Q1949.0 39 1965.0 51.5Q1981.0 64 1977.0 88Q1974.0 105 1968.0 128.5Q1962.0 152 1955.5 177.5Q1949.0 203 1942.0 224Q1940.0 232 1936.0 235.5Q1932.0 239 1921.0 239H1741.0Q1734.0 239 1730.0 234.5Q1726.0 230 1724.0 221Q1720.0 208 1714.5 191.5Q1709.0 175 1703.5 157.5Q1698.0 140 1693.5 125.0Q1689.0 110 1687.0 99Q1682.0 72 1696.5 56.5Q1711.0 41 1747.0 32Q1774.0 25 1774.0 11Q1774.0 5 1767.5 1.5Q1761.0 -2 1749.0 -2Q1726.0 -2 1701.0 -0.5Q1676.0 1 1646.0 1Q1616.0 1 1587.5 -2.0Q1559.0 -5 1530.0 -5ZM1768.0 285H1907.0Q1921.0 285 1921.0 291Q1921.0 294 1920.5 296.0Q1920.0 298 1919.0 302L1849.0 533Q1845.0 547 1842.0 547Q1840.0 547 1835.0 534L1751.0 302Q1749.0 297 1749.0 294Q1749.0 289 1754.5 287.0Q1760.0 285 1768.0 285ZM2262.0 -4Q2250.0 -4 2243.5 -0.5Q2237.0 3 2237.0 9Q2237.0 17 2245.5 20.5Q2254.0 24 2266.0 27Q2290.0 34 2307.0 54.0Q2324.0 74 2328.0 106Q2336.0 167 2343.5 239.0Q2351.0 311 2357.5 384.0Q2364.0 457 2368.0 521Q2368.0 528 2368.0 537.0Q2368.0 546 2368.0 555Q2367.0 570 2362.5 579.5Q2358.0 589 2347.0 597Q2333.0 607 2318.0 612.5Q2303.0 618 2284.0 622Q2273.0 624 2266.5 629.5Q2260.0 635 2260.0 643Q2260.0 651 2268.0 654.0Q2276.0 657 2289.0 657Q2302.0 657 2324.0 656.0Q2346.0 655 2371.5 653.5Q2397.0 652 2422.0 651.0Q2447.0 650 2466.0 650Q2474.0 650 2480.0 645.0Q2486.0 640 2488.0 633Q2494.0 614 2500.0 596.0Q2506.0 578 2513.0 558L2663.0 191Q2666.0 186 2671.0 185.5Q2676.0 185 2678.0 190L2839.0 548Q2846.0 577 2850.5 599.0Q2855.0 621 2859.0 634Q2862.0 647 2872.0 647H2913.0Q2951.0 649 2993.0 653.0Q3035.0 657 3058.0 657Q3066.0 657 3073.5 654.5Q3081.0 652 3081.0 644Q3081.0 636 3075.0 632.0Q3069.0 628 3057.0 623Q3049.0 621 3038.0 616.5Q3027.0 612 3019.0 608Q2998.0 599 2987.5 585.0Q2977.0 571 2978.0 545Q2979.0 474 2982.0 417.5Q2985.0 361 2987.5 311.5Q2990.0 262 2994.0 210.5Q2998.0 159 3001.0 97Q3003.0 69 3022.5 53.0Q3042.0 37 3075.0 29Q3087.0 26 3094.5 22.0Q3102.0 18 3102.0 10Q3102.0 3 3095.5 0.0Q3089.0 -3 3078.0 -3Q3055.0 -3 3030.0 -2.0Q3005.0 -1 2981.5 0.0Q2958.0 1 2937.0 1Q2917.0 1 2896.0 0.0Q2875.0 -1 2853.0 -2.5Q2831.0 -4 2807.0 -4Q2797.0 -4 2789.5 -0.5Q2782.0 3 2782.0 9Q2782.0 17 2789.5 22.0Q2797.0 27 2809.0 29Q2843.0 36 2856.5 50.0Q2870.0 64 2868.0 97Q2867.0 162 2865.0 222.0Q2863.0 282 2861.0 341.0Q2859.0 400 2856.0 460Q2855.0 468 2851.5 467.5Q2848.0 467 2844.0 459L2640.0 -1Q2636.0 -12 2627.0 -10.5Q2618.0 -9 2615.0 -1Q2569.0 115 2518.5 228.5Q2468.0 342 2419.0 459Q2416.0 467 2410.5 465.0Q2405.0 463 2404.0 454Q2399.0 398 2395.0 338.5Q2391.0 279 2390.0 220.0Q2389.0 161 2389.0 103Q2389.0 76 2406.5 57.0Q2424.0 38 2460.0 29Q2472.0 27 2480.5 22.5Q2489.0 18 2489.0 10Q2489.0 3 2481.0 0.0Q2473.0 -3 2463.0 -3Q2436.0 -3 2422.0 -2.0Q2408.0 -1 2396.0 0.0Q2384.0 1 2364.0 1Q2343.0 1 2324.5 0.0Q2306.0 -1 2290.0 -2.5Q2274.0 -4 2262.0 -4ZM3153.0 -5Q3141.0 -5 3133.0 -1.5Q3125.0 2 3125.0 10Q3125.0 19 3132.5 24.0Q3140.0 29 3152.0 33Q3181.0 41 3202.5 57.5Q3224.0 74 3237.0 103Q3262.0 162 3285.0 216.5Q3308.0 271 3329.0 325.0Q3350.0 379 3371.5 435.0Q3393.0 491 3415.0 553Q3426.0 584 3430.0 601.0Q3434.0 618 3437.0 626Q3452.0 630 3465.0 634.0Q3478.0 638 3494.0 644Q3508.0 651 3518.0 662.0Q3528.0 673 3533.0 679Q3536.0 681 3539.0 681.5Q3542.0 682 3545.0 677Q3548.0 671 3550.0 665.0Q3552.0 659 3554.0 652Q3576.0 581 3599.5 508.5Q3623.0 436 3646.0 365.5Q3669.0 295 3690.5 230.5Q3712.0 166 3730.0 112Q3739.0 85 3752.5 69.0Q3766.0 53 3782.5 44.5Q3799.0 36 3819.0 31Q3832.0 28 3839.0 23.0Q3846.0 18 3846.0 9Q3846.0 3 3839.5 0.0Q3833.0 -3 3823.0 -3Q3805.0 -3 3777.5 -2.0Q3750.0 -1 3721.0 0.5Q3692.0 2 3669.0 2Q3649.0 2 3624.5 1.0Q3600.0 0 3575.5 -1.0Q3551.0 -2 3534.0 -2Q3524.0 -2 3516.5 1.5Q3509.0 5 3509.0 12Q3509.0 20 3517.0 25.5Q3525.0 31 3536.0 33Q3572.0 39 3588.0 51.5Q3604.0 64 3600.0 88Q3597.0 105 3591.0 128.5Q3585.0 152 3578.5 177.5Q3572.0 203 3565.0 224Q3563.0 232 3559.0 235.5Q3555.0 239 3544.0 239H3364.0Q3357.0 239 3353.0 234.5Q3349.0 230 3347.0 221Q3343.0 208 3337.5 191.5Q3332.0 175 3326.5 157.5Q3321.0 140 3316.5 125.0Q3312.0 110 3310.0 99Q3305.0 72 3319.5 56.5Q3334.0 41 3370.0 32Q3397.0 25 3397.0 11Q3397.0 5 3390.5 1.5Q3384.0 -2 3372.0 -2Q3349.0 -2 3324.0 -0.5Q3299.0 1 3269.0 1Q3239.0 1 3210.5 -2.0Q3182.0 -5 3153.0 -5ZM3391.0 285H3530.0Q3544.0 285 3544.0 291Q3544.0 294 3543.5 296.0Q3543.0 298 3542.0 302L3472.0 533Q3468.0 547 3465.0 547Q3463.0 547 3458.0 534L3374.0 302Q3372.0 297 3372.0 294Q3372.0 289 3377.5 287.0Q3383.0 285 3391.0 285Z" transform="matrix(0.022120 0 0 -0.022120 107.23 391.17)" fill="#15130f"/></svg>