<svg xmlns="http://www.w3.org/2000/svg" viewBox="0 0 300 446"><rect width="300" height="446" fill="#f4ecd8"/><rect x="20.0" y="25.5" width="260" height="395" rx="20.3" fill="#f4ecd8" stroke="#15130f" stroke-width="1.5"/><rect x="36.9" y="42.4" width="226.2" height="354.7" fill="none" stroke="#15130f" stroke-width="0.7"/><g fill="none" stroke="#15130f" stroke-width="0.65" stroke-opacity="0.72" stroke-linecap="round" stroke-linejoin="round"><line x1="36.9" y1="42.4" x2="263.1" y2="370.6"/></g><path d="M36.9,370.6 H263.1 V397.1 H36.9 Z" fill="#bfdedc"/><g fill="none" stroke="#15130f" stroke-width="0.8"><line x1="36.9" y1="370.6" x2="263.1" y2="370.6"/><line x1="61.6" y1="370.6" x2="61.6" y2="397.1"/><line x1="238.4" y1="370.6" x2="238.4" y2="397.1"/></g><rect x="141.4" y="34.4" width="17.2" height="19.0" fill="#bfdedc" stroke="#15130f" stroke-width="0.8"/><path d="M766.0 262V-54Q764.0 -88 718.0 -88L649.0 -99Q619.0 -104 598.0 -110Q582.0 -115 572.0 -116Q548.0 -118 548.0 -92Q548.0 -82 552.0 -63Q563.0 -18 563.0 41V262L564.0 290L552.0 316Q541.0 325 493.0 325H98.0Q53.0 325 39.5 332.5Q26.0 340 26.0 366Q26.0 415 264.0 747Q442.0 995 584.5 1169.0Q727.0 1343 752.0 1343Q768.0 1343 768.0 1317L767.0 1232L766.0 1143V549L771.0 522Q778.0 506 822.0 506Q899.0 506 922.0 572Q928.0 590 941.0 590Q967.0 590 967.0 567Q967.0 557 965.0 547Q961.0 528 956.0 462Q950.0 372 930.0 347.5Q910.0 323 845.0 323H812.0Q781.0 323 773.5 313.0Q766.0 303 766.0 262ZM563.0 570V743L561.0 856L563.0 958L562.0 984Q562.0 1001 553.0 1001Q544.0 1001 523.0 973L489.0 928L381.0 788Q316.0 705 230.0 573Q216.0 551 207.0 540Q196.0 525 196.0 515Q197.0 499 236.0 499L268.0 498H528.0Q564.0 498 564.0 546Z" transform="matrix(0.006858 0 0 -0.006858 146.59 48.88)" fill="#15130f"/><path d="M250.0 950Q250.0 859 278.0 774.5Q306.0 690 358.5 645.0Q411.0 600 467.0 600Q524.0 600 576.5 645.0Q629.0 690 657.0 774.5Q685.0 859 685.0 950Q685.0 1051 657.0 1135.5Q629.0 1220 576.5 1265.0Q524.0 1310 467.0 1310Q411.0 1310 358.5 1265.0Q306.0 1220 278.0 1135.5Q250.0 1051 250.0 950ZM589.0 1391Q633.0 1377 677.0 1352Q777.0 1294 831.0 1185.5Q885.0 1077 885.0 950Q885.0 833 831.0 724.5Q777.0 616 677.0 558Q623.0 527 568.0 513V350H785.0V250H568.0V170Q568.0 120 593.0 80.0Q618.0 40 688.0 40H738.0V0H198.0V40H248.0Q318.0 40 343.0 80.0Q368.0 120 368.0 170V250H150.0V350H368.0V513Q312.0 527 259.0 558Q158.0 616 104.0 724.5Q50.0 833 50.0 950Q50.0 1077 104.0 1185.5Q158.0 1294 259.0 1352Q301.0 1377 346.0 1391Q253.0 1414 191.0 1476Q126.0 1541 119.0 1596Q117.0 1608 117.0 1620Q117.0 1656 138.5 1677.5Q160.0 1699 196.0 1700Q231.0 1700 251.5 1679.0Q272.0 1658 282.0 1630Q289.0 1613 292.5 1548.0Q296.0 1483 346.5 1467.5Q397.0 1452 467.0 1452Q537.0 1452 587.5 1467.5Q638.0 1483 641.5 1548.0Q645.0 1613 652.0 1630Q662.0 1658 682.5 1679.0Q703.0 1700 738.0 1700Q774.0 1699 795.5 1677.5Q817.0 1656 817.0 1620Q817.0 1608 815.0 1596Q808.0 1541 743.0 1476Q681.0 1414 589.0 1391Z" transform="matrix(0.009268 0 0 -0.009268 44.92 391.74)" fill="#15130f"/><path d="M250.0 800Q250.0 735 271.5 674.5Q293.0 614 333.5 582.0Q374.0 550 417.0 550Q461.0 550 501.5 582.0Q542.0 614 563.5 674.5Q585.0 735 585.0 800Q585.0 865 563.5 925.5Q542.0 986 501.5 1018.0Q461.0 1050 417.0 1050Q374.0 1050 333.5 1018.0Q293.0 986 271.5 925.5Q250.0 865 250.0 800ZM1744.0 1050Q1700.0 1100 1637.0 1148Q1423.0 1310 1050.0 1310Q671.0 1310 460.0 1148Q533.0 1140 602.0 1105Q690.0 1060 737.5 975.5Q785.0 891 785.0 800Q785.0 709 737.5 624.5Q690.0 540 601.5 495.0Q513.0 450 417.0 450Q322.0 450 233.5 495.0Q145.0 540 97.5 624.5Q50.0 709 50.0 800Q50.0 1058 324.5 1234.0Q599.0 1410 1050.0 1410Q1501.0 1410 1776.0 1234Q1905.0 1151 1973.0 1050ZM1850.0 600Q1850.0 665 1828.5 725.5Q1807.0 786 1766.5 818.0Q1726.0 850 1683.0 850Q1639.0 850 1598.5 818.0Q1558.0 786 1536.5 725.5Q1515.0 665 1515.0 600Q1515.0 535 1536.5 474.5Q1558.0 414 1598.5 382.0Q1639.0 350 1683.0 350Q1726.0 350 1766.5 382.0Q1807.0 414 1828.5 474.5Q1850.0 535 1850.0 600ZM356.0 350Q400.0 300 464.0 252Q677.0 90 1050.0 90Q1429.0 90 1640.0 252Q1567.0 260 1499.0 295Q1410.0 340 1362.5 424.5Q1315.0 509 1315.0 600Q1315.0 691 1362.5 775.5Q1410.0 860 1498.5 905.0Q1587.0 950 1683.0 950Q1778.0 950 1866.5 905.0Q1955.0 860 2002.5 775.5Q2050.0 691 2050.0 600Q2050.0 342 1775.5 166.0Q1501.0 -10 1050.0 -10Q599.0 -10 325.0 166Q195.0 249 127.0 350Z" transform="matrix(0.009139 0 0 -0.009139 241.15 390.26)" fill="#15130f"/><path d="M40.0 -4Q31.0 -4 24.0 -0.5Q17.0 3 17.0 9Q17.0 24 42.0 29Q80.0 37 97.0 51.0Q114.0 65 114.0 97V551Q114.0 584 100.0 598.0Q86.0 612 47.0 620Q22.0 625 22.0 641Q22.0 647 29.0 650.5Q36.0 654 45.0 654Q69.0 654 92.0 653.0Q115.0 652 136.5 651.0Q158.0 650 180.0 650Q201.0 650 222.5 651.0Q244.0 652 267.0 653.0Q290.0 654 314.0 654Q324.0 654 330.0 650.5Q336.0 647 336.0 640Q336.0 632 329.5 627.5Q323.0 623 311.0 620Q271.0 610 257.0 596.0Q243.0 582 243.0 550V98Q243.0 67 259.5 53.0Q276.0 39 314.0 29Q327.0 26 333.5 22.0Q340.0 18 340.0 10Q340.0 3 334.0 0.0Q328.0 -3 318.0 -3Q294.0 -3 270.0 -2.0Q246.0 -1 223.5 0.0Q201.0 1 180.0 1Q158.0 1 135.0 0.0Q112.0 -1 88.0 -2.5Q64.0 -4 40.0 -4ZM1032.0 -18Q1020.0 -18 992.0 -3.0Q964.0 12 935.0 49Q918.0 68 893.5 95.5Q869.0 123 839.5 156.0Q810.0 189 778.0 225.0Q746.0 261 714.5 297.0Q683.0 333 653.0 366.0Q623.0 399 598.0 426.5Q573.0 454 556.0 474Q552.0 479 547.5 482.5Q543.0 486 540.0 486Q536.0 486 534.0 479.0Q532.0 472 532.0 466Q532.0 420 532.5 357.0Q533.0 294 533.0 229.0Q533.0 164 533.0 109Q533.0 78 551.0 58.0Q569.0 38 608.0 29Q620.0 27 628.5 22.5Q637.0 18 637.0 10Q637.0 3 629.0 0.0Q621.0 -3 611.0 -3Q584.0 -3 568.0 -2.0Q552.0 -1 539.0 0.0Q526.0 1 506.0 1Q485.0 1 468.5 0.0Q452.0 -1 439.0 -2.5Q426.0 -4 414.0 -4Q404.0 -4 396.0 -0.5Q388.0 3 388.0 9Q388.0 17 395.5 21.5Q403.0 26 416.0 30Q442.0 38 454.5 59.5Q467.0 81 470.0 111Q474.0 149 478.0 210.5Q482.0 272 485.5 349.0Q489.0 426 489.0 508Q489.0 560 462.5 583.0Q436.0 606 396.0 620Q389.0 622 378.0 628.0Q367.0 634 367.0 643Q367.0 652 375.0 655.0Q383.0 658 392.0 658Q413.0 658 434.0 657.0Q455.0 656 476.5 655.5Q498.0 655 521.5 654.0Q545.0 653 572.0 653Q581.0 653 585.5 649.5Q590.0 646 594.0 640Q610.0 621 635.0 592.5Q660.0 564 689.5 529.5Q719.0 495 751.5 457.0Q784.0 419 816.5 381.0Q849.0 343 879.0 308.5Q909.0 274 933.5 245.5Q958.0 217 974.0 199Q978.0 195 983.5 189.0Q989.0 183 993.0 183Q1001.0 183 1002.0 200Q1002.0 226 1002.0 266.5Q1002.0 307 1002.5 356.5Q1003.0 406 1002.5 458.0Q1002.0 510 1001.0 558Q1000.0 583 980.5 597.5Q961.0 612 932.0 618Q920.0 621 909.5 625.5Q899.0 630 899.0 639Q899.0 646 909.5 649.0Q920.0 652 929.0 652Q949.0 652 962.5 652.0Q976.0 652 988.0 651.5Q1000.0 651 1013.0 651Q1035.0 651 1049.0 651.5Q1063.0 652 1079.5 653.0Q1096.0 654 1123.0 654Q1135.0 654 1142.5 650.5Q1150.0 647 1150.0 641Q1150.0 626 1121.0 620Q1086.0 613 1071.5 601.0Q1057.0 589 1056.0 561Q1056.0 536 1055.5 497.0Q1055.0 458 1054.0 412.0Q1053.0 366 1051.5 318.0Q1050.0 270 1049.5 224.0Q1049.0 178 1049.0 141Q1049.0 117 1051.0 92.0Q1053.0 67 1055.5 47.5Q1058.0 28 1058.0 20Q1058.0 -2 1051.0 -10.0Q1044.0 -18 1032.0 -18ZM1369.0 -4Q1359.0 -4 1351.5 -0.5Q1344.0 3 1344.0 9Q1344.0 17 1351.0 22.0Q1358.0 27 1371.0 29Q1409.0 37 1427.0 51.5Q1445.0 66 1445.0 99V504Q1445.0 545 1443.0 566.0Q1441.0 587 1437.5 594.5Q1434.0 602 1427.0 603Q1417.0 607 1402.0 608.0Q1387.0 609 1373.0 609H1342.0Q1313.0 609 1286.0 595.5Q1259.0 582 1244.0 559Q1240.0 553 1231.5 542.0Q1223.0 531 1213.5 522.0Q1204.0 513 1194.0 513Q1187.0 513 1184.5 518.0Q1182.0 523 1182.0 529Q1182.0 541 1188.0 553Q1205.0 587 1213.5 612.5Q1222.0 638 1225.0 673Q1227.0 688 1233.5 692.5Q1240.0 697 1247.0 697Q1253.0 697 1261.5 684.5Q1270.0 672 1277.0 664Q1286.0 655 1309.0 650.5Q1332.0 646 1348.0 646L1717.0 647Q1745.0 647 1764.0 651.5Q1783.0 656 1794.0 661Q1809.0 670 1818.0 679.5Q1827.0 689 1839.0 689Q1844.0 689 1846.5 683.5Q1849.0 678 1849.0 670Q1849.0 665 1848.0 658.5Q1847.0 652 1846.0 647Q1842.0 628 1838.0 613.5Q1834.0 599 1831.5 586.5Q1829.0 574 1829.0 558V541Q1829.0 527 1825.0 517.0Q1821.0 507 1812.0 507Q1804.0 507 1798.5 516.5Q1793.0 526 1787.0 546Q1778.0 578 1757.0 593.5Q1736.0 609 1691.0 609H1623.0Q1604.0 609 1593.5 602.0Q1583.0 595 1578.5 571.5Q1574.0 548 1574.0 499V100Q1574.0 68 1592.0 53.5Q1610.0 39 1649.0 29Q1661.0 26 1668.0 22.0Q1675.0 18 1675.0 10Q1675.0 3 1668.5 0.0Q1662.0 -3 1652.0 -3Q1628.0 -3 1604.0 -2.0Q1580.0 -1 1556.5 0.0Q1533.0 1 1511.0 1Q1489.0 1 1465.5 0.0Q1442.0 -1 1417.5 -2.5Q1393.0 -4 1369.0 -4ZM2220.0 -14Q2127.0 -14 2065.0 19.0Q2003.0 52 1972.0 111.0Q1941.0 170 1941.0 249V541Q1941.0 571 1927.5 592.0Q1914.0 613 1892.0 619Q1862.0 627 1862.0 641Q1862.0 647 1870.0 650.5Q1878.0 654 1890.0 654Q1918.0 654 1948.5 652.0Q1979.0 650 2008.0 650Q2034.0 650 2067.5 651.5Q2101.0 653 2125.0 653Q2137.0 653 2144.5 650.0Q2152.0 647 2152.0 640Q2152.0 630 2139.5 625.5Q2127.0 621 2110.0 614Q2096.0 608 2083.5 589.5Q2071.0 571 2071.0 539V270Q2071.0 198 2095.0 151.5Q2119.0 105 2159.0 83.0Q2199.0 61 2249.0 61Q2344.0 61 2390.0 121.0Q2436.0 181 2436.0 293Q2436.0 318 2436.0 352.0Q2436.0 386 2435.5 422.5Q2435.0 459 2434.0 492Q2434.0 531 2428.5 555.5Q2423.0 580 2413.0 594.5Q2403.0 609 2385.0 617Q2375.0 621 2361.5 626.0Q2348.0 631 2348.0 639Q2348.0 647 2356.0 650.0Q2364.0 653 2377.0 653Q2409.0 653 2426.5 652.0Q2444.0 651 2467.0 651Q2484.0 651 2497.5 651.5Q2511.0 652 2524.0 653.0Q2537.0 654 2554.0 654Q2566.0 654 2573.0 651.5Q2580.0 649 2580.0 641Q2580.0 627 2551.0 620Q2520.0 612 2508.0 591.0Q2496.0 570 2494.0 536Q2490.0 457 2488.5 391.0Q2487.0 325 2486.0 258Q2485.0 178 2449.5 116.5Q2414.0 55 2354.0 20.5Q2294.0 -14 2220.0 -14ZM2629.0 -4Q2620.0 -4 2613.0 -0.5Q2606.0 3 2606.0 9Q2606.0 24 2631.0 29Q2669.0 37 2686.0 51.0Q2703.0 65 2703.0 97V551Q2703.0 584 2689.0 598.0Q2675.0 612 2636.0 620Q2611.0 625 2611.0 641Q2611.0 647 2618.0 650.5Q2625.0 654 2634.0 654Q2658.0 654 2681.0 653.0Q2704.0 652 2725.5 651.0Q2747.0 650 2769.0 650Q2790.0 650 2811.5 651.0Q2833.0 652 2856.0 653.0Q2879.0 654 2903.0 654Q2913.0 654 2919.0 650.5Q2925.0 647 2925.0 640Q2925.0 632 2918.5 627.5Q2912.0 623 2900.0 620Q2860.0 610 2846.0 596.0Q2832.0 582 2832.0 550V98Q2832.0 67 2848.5 53.0Q2865.0 39 2903.0 29Q2916.0 26 2922.5 22.0Q2929.0 18 2929.0 10Q2929.0 3 2923.0 0.0Q2917.0 -3 2907.0 -3Q2883.0 -3 2859.0 -2.0Q2835.0 -1 2812.5 0.0Q2790.0 1 2769.0 1Q2747.0 1 2724.0 0.0Q2701.0 -1 2677.0 -2.5Q2653.0 -4 2629.0 -4ZM3154.0 -4Q3144.0 -4 3136.5 -0.5Q3129.0 3 3129.0 9Q3129.0 17 3136.0 22.0Q3143.0 27 3156.0 29Q3194.0 37 3212.0 51.5Q3230.0 66 3230.0 99V504Q3230.0 545 3228.0 566.0Q3226.0 587 3222.5 594.5Q3219.0 602 3212.0 603Q3202.0 607 3187.0 608.0Q3172.0 609 3158.0 609H3127.0Q3098.0 609 3071.0 595.5Q3044.0 582 3029.0 559Q3025.0 553 3016.5 542.0Q3008.0 531 2998.5 522.0Q2989.0 513 2979.0 513Q2972.0 513 2969.5 518.0Q2967.0 523 2967.0 529Q2967.0 541 2973.0 553Q2990.0 587 2998.5 612.5Q3007.0 638 3010.0 673Q3012.0 688 3018.5 692.5Q3025.0 697 3032.0 697Q3038.0 697 3046.5 684.5Q3055.0 672 3062.0 664Q3071.0 655 3094.0 650.5Q3117.0 646 3133.0 646L3502.0 647Q3530.0 647 3549.0 651.5Q3568.0 656 3579.0 661Q3594.0 670 3603.0 679.5Q3612.0 689 3624.0 689Q3629.0 689 3631.5 683.5Q3634.0 678 3634.0 670Q3634.0 665 3633.0 658.5Q3632.0 652 3631.0 647Q3627.0 628 3623.0 613.5Q3619.0 599 3616.5 586.5Q3614.0 574 3614.0 558V541Q3614.0 527 3610.0 517.0Q3606.0 507 3597.0 507Q3589.0 507 3583.5 516.5Q3578.0 526 3572.0 546Q3563.0 578 3542.0 593.5Q3521.0 609 3476.0 609H3408.0Q3389.0 609 3378.5 602.0Q3368.0 595 3363.5 571.5Q3359.0 548 3359.0 499V100Q3359.0 68 3377.0 53.5Q3395.0 39 3434.0 29Q3446.0 26 3453.0 22.0Q3460.0 18 3460.0 10Q3460.0 3 3453.5 0.0Q3447.0 -3 3437.0 -3Q3413.0 -3 3389.0 -2.0Q3365.0 -1 3341.5 0.0Q3318.0 1 3296.0 1Q3274.0 1 3250.5 0.0Q3227.0 -1 3202.5 -2.5Q3178.0 -4 3154.0 -4ZM3672.0 -4Q3663.0 -4 3656.0 -0.5Q3649.0 3 3649.0 9Q3649.0 24 3674.0 29Q3712.0 37 3729.0 51.0Q3746.0 65 3746.0 97V551Q3746.0 584 3732.0 598.0Q3718.0 612 3679.0 620Q3654.0 625 3654.0 641Q3654.0 647 3661.0 650.5Q3668.0 654 3677.0 654Q3701.0 654 3724.0 653.0Q3747.0 652 3768.5 651.0Q3790.0 650 3812.0 650Q3833.0 650 3854.5 651.0Q3876.0 652 3899.0 653.0Q3922.0 654 3946.0 654Q3956.0 654 3962.0 650.5Q3968.0 647 3968.0 640Q3968.0 632 3961.5 627.5Q3955.0 623 3943.0 620Q3903.0 610 3889.0 596.0Q3875.0 582 3875.0 550V98Q3875.0 67 3891.5 53.0Q3908.0 39 3946.0 29Q3959.0 26 3965.5 22.0Q3972.0 18 3972.0 10Q3972.0 3 3966.0 0.0Q3960.0 -3 3950.0 -3Q3926.0 -3 3902.0 -2.0Q3878.0 -1 3855.5 0.0Q3833.0 1 3812.0 1Q3790.0 1 3767.0 0.0Q3744.0 -1 3720.0 -2.5Q3696.0 -4 3672.0 -4ZM4364.0 -14Q4296.0 -14 4234.0 9.5Q4172.0 33 4124.5 76.5Q4077.0 120 4049.5 180.5Q4022.0 241 4022.0 315Q4022.0 383 4044.5 445.5Q4067.0 508 4111.5 557.0Q4156.0 606 4221.5 635.0Q4287.0 664 4373.0 664Q4441.0 664 4502.5 640.5Q4564.0 617 4612.0 573.5Q4660.0 530 4687.5 469.5Q4715.0 409 4715.0 335Q4715.0 268 4692.5 205.0Q4670.0 142 4625.5 93.0Q4581.0 44 4515.5 15.0Q4450.0 -14 4364.0 -14ZM4381.0 30Q4444.0 30 4486.5 62.0Q4529.0 94 4550.5 151.5Q4572.0 209 4572.0 284Q4572.0 348 4559.0 408.0Q4546.0 468 4519.0 515.5Q4492.0 563 4451.5 591.0Q4411.0 619 4355.0 619Q4292.0 619 4249.5 587.0Q4207.0 555 4186.0 498.0Q4165.0 441 4165.0 366Q4165.0 302 4178.0 242.0Q4191.0 182 4217.5 134.0Q4244.0 86 4284.5 58.0Q4325.0 30 4381.0 30ZM5425.0 -18Q5413.0 -18 5385.0 -3.0Q5357.0 12 5328.0 49Q5311.0 68 5286.5 95.5Q5262.0 123 5232.5 156.0Q5203.0 189 5171.0 225.0Q5139.0 261 5107.5 297.0Q5076.0 333 5046.0 366.0Q5016.0 399 4991.0 426.5Q4966.0 454 4949.0 474Q4945.0 479 4940.5 482.5Q4936.0 486 4933.0 486Q4929.0 486 4927.0 479.0Q4925.0 472 4925.0 466Q4925.0 420 4925.5 357.0Q4926.0 294 4926.0 229.0Q4926.0 164 4926.0 109Q4926.0 78 4944.0 58.0Q4962.0 38 5001.0 29Q5013.0 27 5021.5 22.5Q5030.0 18 5030.0 10Q5030.0 3 5022.0 0.0Q5014.0 -3 5004.0 -3Q4977.0 -3 4961.0 -2.0Q4945.0 -1 4932.0 0.0Q4919.0 1 4899.0 1Q4878.0 1 4861.5 0.0Q4845.0 -1 4832.0 -2.5Q4819.0 -4 4807.0 -4Q4797.0 -4 4789.0 -0.5Q4781.0 3 4781.0 9Q4781.0 17 4788.5 21.5Q4796.0 26 4809.0 30Q4835.0 38 4847.5 59.5Q4860.0 81 4863.0 111Q4867.0 149 4871.0 210.5Q4875.0 272 4878.5 349.0Q4882.0 426 4882.0 508Q4882.0 560 4855.5 583.0Q4829.0 606 4789.0 620Q4782.0 622 4771.0 628.0Q4760.0 634 4760.0 643Q4760.0 652 4768.0 655.0Q4776.0 658 4785.0 658Q4806.0 658 4827.0 657.0Q4848.0 656 4869.5 655.5Q4891.0 655 4914.5 654.0Q4938.0 653 4965.0 653Q4974.0 653 4978.5 649.5Q4983.0 646 4987.0 640Q5003.0 621 5028.0 592.5Q5053.0 564 5082.5 529.5Q5112.0 495 5144.5 457.0Q5177.0 419 5209.5 381.0Q5242.0 343 5272.0 308.5Q5302.0 274 5326.5 245.5Q5351.0 217 5367.0 199Q5371.0 195 5376.5 189.0Q5382.0 183 5386.0 183Q5394.0 183 5395.0 200Q5395.0 226 5395.0 266.5Q5395.0 307 5395.5 356.5Q5396.0 406 5395.5 458.0Q5395.0 510 5394.0 558Q5393.0 583 5373.5 597.5Q5354.0 612 5325.0 618Q5313.0 621 5302.5 625.5Q5292.0 630 5292.0 639Q5292.0 646 5302.5 649.0Q5313.0 652 5322.0 652Q5342.0 652 5355.5 652.0Q5369.0 652 5381.0 651.5Q5393.0 651 5406.0 651Q5428.0 651 5442.0 651.5Q5456.0 652 5472.5 653.0Q5489.0 654 5516.0 654Q5528.0 654 5535.5 650.5Q5543.0 647 5543.0 641Q5543.0 626 5514.0 620Q5479.0 613 5464.5 601.0Q5450.0 589 5449.0 561Q5449.0 536 5448.5 497.0Q5448.0 458 5447.0 412.0Q5446.0 366 5444.5 318.0Q5443.0 270 5442.5 224.0Q5442.0 178 5442.0 141Q5442.0 117 5444.0 92.0Q5446.0 67 5448.5 47.5Q5451.0 28 5451.0 20Q5451.0 -2 5444.0 -10.0Q5437.0 -18 5425.0 -18Z" transform="matrix(0.022120 0 0 -0.022120 88.51 391.38)" fill="#15130f"/></svg>