<svg xmlns="http://www.w3.org/2000/svg" viewBox="0 0 300 446"><rect width="300" height="446" fill="#f4ecd8"/><rect x="20.0" y="25.5" width="260" height="395" rx="20.3" fill="#f4ecd8" stroke="#15130f" stroke-width="1.5"/><rect x="36.9" y="42.4" width="226.2" height="354.7" fill="none" stroke="#15130f" stroke-width="0.7"/><g fill="none" stroke="#15130f" stroke-width="0.65" stroke-opacity="0.72" stroke-linecap="round" stroke-linejoin="round"><line x1="36.9" y1="42.4" x2="263.1" y2="370.6"/></g><path d="M36.9,370.6 H263.1 V397.1 H36.9 Z" fill="#bfdedc"/><g fill="none" stroke="#15130f" stroke-width="0.8"><line x1="36.9" y1="370.6" x2="263.1" y2="370.6"/><line x1="61.6" y1="370.6" x2="61.6" y2="397.1"/><line x1="238.4" y1="370.6" x2="238.4" y2="397.1"/></g><rect x="141.4" y="34.4" width="17.2" height="19.0" fill="#bfdedc" stroke="#15130f" stroke-width="0.8"/><path d="M731.0 1093H467.0L377.0 1095L276.0 1077Q209.0 1046 197.0 961Q190.0 917 170.0 915Q139.0 913 139.0 965Q139.0 1051 170.0 1146L196.0 1225L203.0 1262Q208.0 1287 239.0 1287Q249.0 1287 279.0 1285Q310.0 1282 401.0 1282H808.0Q871.0 1282 886.5 1270.5Q902.0 1259 902.0 1214Q902.0 1092 809.0 873L717.0 658Q578.0 330 578.0 161Q578.0 67 592.0 11L604.0 -35Q606.0 -41 606.0 -47Q606.0 -64 575.0 -70Q570.0 -71 557.0 -75Q476.0 -101 435.0 -101Q377.0 -101 357.5 -74.5Q338.0 -48 338.0 28Q338.0 262 500.0 501L605.0 657Q677.0 762 737.5 889.5Q798.0 1017 798.0 1061Q798.0 1093 731.0 1093Z" transform="matrix(0.006858 0 0 -0.006858 146.43 48.74)" fill="#15130f"/><path d="M250.0 950Q250.0 859 278.0 774.5Q306.0 690 358.5 645.0Q411.0 600 467.0 600Q524.0 600 576.5 645.0Q629.0 690 657.0 774.5Q685.0 859 685.0 950Q685.0 1051 657.0 1135.5Q629.0 1220 576.5 1265.0Q524.0 1310 467.0 1310Q411.0 1310 358.5 1265.0Q306.0 1220 278.0 1135.5Q250.0 1051 250.0 950ZM589.0 1391Q633.0 1377 677.0 1352Q777.0 1294 831.0 1185.5Q885.0 1077 885.0 950Q885.0 833 831.0 724.5Q777.0 616 677.0 558Q623.0 527 568.0 513V350H785.0V250H568.0V170Q568.0 120 593.0 80.0Q618.0 40 688.0 40H738.0V0H198.0V40H248.0Q318.0 40 343.0 80.0Q368.0 120 368.0 170V250H150.0V350H368.0V513Q312.0 527 259.0 558Q158.0 616 104.0 724.5Q50.0 833 50.0 950Q50.0 1077 104.0 1185.5Q158.0 1294 259.0 1352Q301.0 1377 346.0 1391Q253.0 1414 191.0 1476Q126.0 1541 119.0 1596Q117.0 1608 117.0 1620Q117.0 1656 138.5 1677.5Q160.0 1699 196.0 1700Q231.0 1700 251.5 1679.0Q272.0 1658 282.0 1630Q289.0 1613 292.5 1548.0Q296.0 1483 346.5 1467.5Q397.0 1452 467.0 1452Q537.0 1452 587.5 1467.5Q638.0 1483 641.5 1548.0Q645.0 1613 652.0 1630Q662.0 1658 682.5 1679.0Q703.0 1700 738.0 1700Q774.0 1699 795.5 1677.5Q817.0 1656 817.0 1620Q817.0 1608 815.0 1596Q808.0 1541 743.0 1476Q681.0 1414 589.0 1391Z" transform="matrix(0.009268 0 0 -0.009268 44.92 391.74)" fill="#15130f"/><path d="M50.0 100H1650.0V0H50.0ZM50.0 300V400H339.0Q300.0 491 300.0 600Q300.0 815 451.0 962.5Q602.0 1110 850.0 1110Q1098.0 1110 1249.0 962.5Q1400.0 815 1400.0 600Q1400.0 491 1361.0 400H1650.0V300H1090.0Q1099.0 310 1149.5 403.0Q1200.0 496 1200.0 600Q1200.0 750 1106.5 880.0Q1013.0 1010 850.0 1010Q684.0 1010 592.0 880.0Q500.0 750 500.0 600Q500.0 496 550.0 403.0Q600.0 310 608.0 300Z" transform="matrix(0.009268 0 0 -0.009268 242.87 389.01)" fill="#15130f"/><path d="M40.0 -4Q31.0 -4 24.0 -0.5Q17.0 3 17.0 9Q17.0 24 42.0 29Q80.0 37 97.0 51.0Q114.0 65 114.0 97V551Q114.0 584 100.0 598.0Q86.0 612 47.0 620Q22.0 625 22.0 641Q22.0 647 29.0 650.5Q36.0 654 45.0 654Q69.0 654 92.0 653.0Q115.0 652 136.5 651.0Q158.0 650 180.0 650Q201.0 650 222.5 651.0Q244.0 652 267.0 653.0Q290.0 654 314.0 654Q324.0 654 330.0 650.5Q336.0 647 336.0 640Q336.0 632 329.5 627.5Q323.0 623 311.0 620Q271.0 610 257.0 596.0Q243.0 582 243.0 550V98Q243.0 67 259.5 53.0Q276.0 39 314.0 29Q327.0 26 333.5 22.0Q340.0 18 340.0 10Q340.0 3 334.0 0.0Q328.0 -3 318.0 -3Q294.0 -3 270.0 -2.0Q246.0 -1 223.5 0.0Q201.0 1 180.0 1Q158.0 1 135.0 0.0Q112.0 -1 88.0 -2.5Q64.0 -4 40.0 -4ZM1032.0 -18Q1020.0 -18 992.0 -3.0Q964.0 12 935.0 49Q918.0 68 893.5 95.5Q869.0 123 839.5 156.0Q810.0 189 778.0 225.0Q746.0 261 714.5 297.0Q683.0 333 653.0 366.0Q623.0 399 598.0 426.5Q573.0 454 556.0 474Q552.0 479 547.5 482.5Q543.0 486 540.0 486Q536.0 486 534.0 479.0Q532.0 472 532.0 466Q532.0 420 532.5 357.0Q533.0 294 533.0 229.0Q533.0 164 533.0 109Q533.0 78 551.0 58.0Q569.0 38 608.0 29Q620.0 27 628.5 22.5Q637.0 18 637.0 10Q637.0 3 629.0 0.0Q621.0 -3 611.0 -3Q584.0 -3 568.0 -2.0Q552.0 -1 539.0 0.0Q526.0 1 506.0 1Q485.0 1 468.5 0.0Q452.0 -1 439.0 -2.5Q426.0 -4 414.0 -4Q404.0 -4 396.0 -0.5Q388.0 3 388.0 9Q388.0 17 395.5 21.5Q403.0 26 416.0 30Q442.0 38 454.5 59.5Q467.0 81 470.0 111Q474.0 149 478.0 210.5Q482.0 272 485.5 349.0Q489.0 426 489.0 508Q489.0 560 462.5 583.0Q436.0 606 396.0 620Q389.0 622 378.0 628.0Q367.0 634 367.0 643Q367.0 652 375.0 655.0Q383.0 658 392.0 658Q413.0 658 434.0 657.0Q455.0 656 476.5 655.5Q498.0 655 521.5 654.0Q545.0 653 572.0 653Q581.0 653 585.5 649.5Q590.0 646 594.0 640Q610.0 621 635.0 592.5Q660.0 564 689.5 529.5Q719.0 495 751.5 457.0Q784.0 419 816.5 381.0Q849.0 343 879.0 308.5Q909.0 274 933.5 245.5Q958.0 217 974.0 199Q978.0 195 983.5 189.0Q989.0 183 993.0 183Q1001.0 183 1002.0 200Q1002.0 226 1002.0 266.5Q1002.0 307 1002.5 356.5Q1003.0 406 1002.5 458.0Q1002.0 510 1001.0 558Q1000.0 583 980.5 597.5Q961.0 612 932.0 618Q920.0 621 909.5 625.5Q899.0 630 899.0 639Q899.0 646 909.5 649.0Q920.0 652 929.0 652Q949.0 652 962.5 652.0Q976.0 652 988.0 651.5Q1000.0 651 1013.0 651Q1035.0 651 1049.0 651.5Q1063.0 652 1079.5 653.0Q1096.0 654 1123.0 654Q1135.0 654 1142.5 650.5Q1150.0 647 1150.0 641Q1150.0 626 1121.0 620Q1086.0 613 1071.5 601.0Q1057.0 589 1056.0 561Q1056.0 536 1055.5 497.0Q1055.0 458 1054.0 412.0Q1053.0 366 1051.5 318.0Q1050.0 270 1049.5 224.0Q1049.0 178 1049.0 141Q1049.0 117 1051.0 92.0Q1053.0 67 1055.5 47.5Q1058.0 28 1058.0 20Q1058.0 -2 1051.0 -10.0Q1044.0 -18 1032.0 -18ZM1205.0 -4Q1196.0 -4 1189.0 -0.5Q1182.0 3 1182.0 9Q1182.0 24 1207.0 29Q1245.0 37 1259.5 51.0Q1274.0 65 1274.0 98V538Q1274.0 576 1261.5 594.0Q1249.0 612 1213.0 620Q1199.0 623 1193.0 628.5Q1187.0 634 1187.0 640Q1187.0 647 1193.5 650.5Q1200.0 654 1211.0 654Q1239.0 654 1265.0 653.0Q1291.0 652 1316.0 651.0Q1341.0 650 1367.0 650Q1403.0 650 1445.5 650.0Q1488.0 650 1526.0 650Q1564.0 650 1594.5 655.5Q1625.0 661 1646.0 661Q1652.0 661 1659.5 657.5Q1667.0 654 1668.0 645Q1670.0 626 1671.0 602.0Q1672.0 578 1672.5 556.0Q1673.0 534 1673.0 521Q1673.0 501 1662.0 501Q1657.0 501 1651.5 505.0Q1646.0 509 1644.0 516Q1638.0 538 1630.5 555.5Q1623.0 573 1612.0 583Q1599.0 598 1581.5 604.0Q1564.0 610 1541.0 610H1450.0Q1426.0 610 1414.5 596.5Q1403.0 583 1403.0 562Q1403.0 544 1403.0 519.0Q1403.0 494 1403.0 472Q1403.0 449 1403.0 423.0Q1403.0 397 1403.0 376Q1403.0 366 1407.5 359.5Q1412.0 353 1422.0 353Q1449.0 353 1476.5 354.0Q1504.0 355 1525.0 355Q1549.0 355 1562.5 369.0Q1576.0 383 1584.0 403Q1588.0 410 1593.5 415.0Q1599.0 420 1604.0 420Q1609.0 420 1613.5 415.0Q1618.0 410 1617.0 400Q1615.0 381 1613.5 364.5Q1612.0 348 1612.0 334Q1612.0 316 1613.0 302.0Q1614.0 288 1616.0 265Q1617.0 254 1614.5 248.0Q1612.0 242 1606.0 242Q1598.0 242 1591.5 250.0Q1585.0 258 1583.0 266Q1575.0 293 1562.5 303.0Q1550.0 313 1534.0 313Q1522.0 313 1509.5 313.5Q1497.0 314 1486.0 314Q1471.0 314 1455.5 314.0Q1440.0 314 1425.0 313Q1414.0 312 1408.0 306.5Q1402.0 301 1402.0 289Q1402.0 243 1402.5 195.0Q1403.0 147 1404.0 99Q1405.0 68 1421.0 53.0Q1437.0 38 1477.0 29Q1490.0 27 1496.0 22.5Q1502.0 18 1502.0 10Q1502.0 3 1496.5 0.0Q1491.0 -3 1480.0 -3Q1457.0 -3 1432.5 -1.5Q1408.0 0 1385.5 1.0Q1363.0 2 1344.0 2Q1322.0 2 1299.0 1.0Q1276.0 0 1252.5 -2.0Q1229.0 -4 1205.0 -4ZM1741.0 -5Q1730.0 -5 1724.0 -0.5Q1718.0 4 1718.0 9Q1718.0 17 1725.0 21.5Q1732.0 26 1739.0 28Q1775.0 37 1792.0 50.5Q1809.0 64 1809.0 95V555Q1809.0 578 1803.5 590.0Q1798.0 602 1784.5 608.5Q1771.0 615 1745.0 620Q1719.0 625 1719.0 641Q1719.0 647 1726.0 650.5Q1733.0 654 1742.0 654Q1767.0 654 1789.5 653.0Q1812.0 652 1833.0 651.0Q1854.0 650 1875.0 650Q1898.0 650 1921.5 651.0Q1945.0 652 1969.5 653.0Q1994.0 654 2017.0 654Q2027.0 654 2033.0 650.5Q2039.0 647 2039.0 640Q2039.0 632 2032.5 627.5Q2026.0 623 2014.0 620Q1975.0 610 1956.5 598.5Q1938.0 587 1938.0 558V101Q1938.0 72 1951.0 58.5Q1964.0 45 2000.0 45H2109.0Q2132.0 45 2151.0 53.0Q2170.0 61 2182.0 73Q2200.0 89 2212.0 107.0Q2224.0 125 2235.0 149Q2242.0 164 2248.0 172.0Q2254.0 180 2260.0 180Q2267.0 180 2270.0 173.5Q2273.0 167 2273.0 160Q2273.0 159 2272.0 154.0Q2271.0 149 2271.0 146Q2263.0 117 2257.5 96.0Q2252.0 75 2248.5 55.5Q2245.0 36 2242.0 13Q2241.0 6 2238.0 0.5Q2235.0 -5 2226.0 -5Q2196.0 -5 2154.0 -4.0Q2112.0 -3 2065.0 -2.5Q2018.0 -2 1970.5 -1.0Q1923.0 0 1881.0 0Q1859.0 0 1830.5 -1.0Q1802.0 -2 1777.0 -3.5Q1752.0 -5 1741.0 -5ZM2653.0 -14Q2560.0 -14 2498.0 19.0Q2436.0 52 2405.0 111.0Q2374.0 170 2374.0 249V541Q2374.0 571 2360.5 592.0Q2347.0 613 2325.0 619Q2295.0 627 2295.0 641Q2295.0 647 2303.0 650.5Q2311.0 654 2323.0 654Q2351.0 654 2381.5 652.0Q2412.0 650 2441.0 650Q2467.0 650 2500.5 651.5Q2534.0 653 2558.0 653Q2570.0 653 2577.5 650.0Q2585.0 647 2585.0 640Q2585.0 630 2572.5 625.5Q2560.0 621 2543.0 614Q2529.0 608 2516.5 589.5Q2504.0 571 2504.0 539V270Q2504.0 198 2528.0 151.5Q2552.0 105 2592.0 83.0Q2632.0 61 2682.0 61Q2777.0 61 2823.0 121.0Q2869.0 181 2869.0 293Q2869.0 318 2869.0 352.0Q2869.0 386 2868.5 422.5Q2868.0 459 2867.0 492Q2867.0 531 2861.5 555.5Q2856.0 580 2846.0 594.5Q2836.0 609 2818.0 617Q2808.0 621 2794.5 626.0Q2781.0 631 2781.0 639Q2781.0 647 2789.0 650.0Q2797.0 653 2810.0 653Q2842.0 653 2859.5 652.0Q2877.0 651 2900.0 651Q2917.0 651 2930.5 651.5Q2944.0 652 2957.0 653.0Q2970.0 654 2987.0 654Q2999.0 654 3006.0 651.5Q3013.0 649 3013.0 641Q3013.0 627 2984.0 620Q2953.0 612 2941.0 591.0Q2929.0 570 2927.0 536Q2923.0 457 2921.5 391.0Q2920.0 325 2919.0 258Q2918.0 178 2882.5 116.5Q2847.0 55 2787.0 20.5Q2727.0 -14 2653.0 -14ZM3071.0 -5Q3060.0 -5 3053.5 -1.0Q3047.0 3 3047.0 9Q3047.0 22 3073.0 28Q3109.0 37 3124.5 50.5Q3140.0 64 3140.0 97V550Q3140.0 584 3126.5 598.0Q3113.0 612 3076.0 620Q3062.0 623 3056.0 628.5Q3050.0 634 3050.0 640Q3050.0 647 3056.5 650.5Q3063.0 654 3074.0 654Q3103.0 654 3129.5 653.0Q3156.0 652 3181.0 651.0Q3206.0 650 3233.0 650Q3279.0 650 3330.5 651.0Q3382.0 652 3423.0 652Q3456.0 653 3477.5 655.0Q3499.0 657 3503.0 657Q3510.0 657 3517.5 654.0Q3525.0 651 3526.0 642Q3530.0 609 3536.0 577.0Q3542.0 545 3542.0 521Q3542.0 512 3537.5 507.5Q3533.0 503 3528.0 503Q3523.0 503 3519.0 506.5Q3515.0 510 3512.0 517Q3504.0 540 3497.0 557.0Q3490.0 574 3481.0 583Q3468.0 597 3451.0 605.0Q3434.0 613 3410.0 613H3317.0Q3299.0 613 3284.0 602.5Q3269.0 592 3269.0 573V377Q3269.0 366 3275.5 360.0Q3282.0 354 3291.0 354H3383.0Q3410.0 354 3421.5 369.0Q3433.0 384 3441.0 410Q3448.0 430 3460.0 430Q3465.0 430 3469.0 424.5Q3473.0 419 3473.0 410Q3472.0 400 3471.0 386.0Q3470.0 372 3469.5 358.0Q3469.0 344 3469.0 333Q3469.0 321 3469.5 306.0Q3470.0 291 3470.5 276.5Q3471.0 262 3472.0 252Q3473.0 241 3470.5 235.0Q3468.0 229 3462.0 229Q3446.0 229 3439.0 257Q3431.0 285 3420.0 299.0Q3409.0 313 3390.0 313H3296.0Q3283.0 313 3276.0 308.0Q3269.0 303 3269.0 289V99Q3269.0 66 3283.0 53.0Q3297.0 40 3326.0 40H3408.0Q3433.0 40 3453.5 45.0Q3474.0 50 3489.0 61Q3506.0 73 3519.5 93.5Q3533.0 114 3546.0 139Q3550.0 147 3554.0 149.5Q3558.0 152 3564.0 152Q3569.0 151 3571.5 146.0Q3574.0 141 3574.0 135Q3574.0 121 3569.0 99.0Q3564.0 77 3556.5 53.5Q3549.0 30 3543.0 10Q3540.0 3 3535.0 -0.5Q3530.0 -4 3523.0 -4Q3499.0 -4 3461.5 -3.5Q3424.0 -3 3380.0 -2.0Q3336.0 -1 3290.0 -0.5Q3244.0 0 3202.0 0Q3181.0 0 3159.5 -1.0Q3138.0 -2 3116.0 -3.5Q3094.0 -5 3071.0 -5ZM4269.0 -18Q4257.0 -18 4229.0 -3.0Q4201.0 12 4172.0 49Q4155.0 68 4130.5 95.5Q4106.0 123 4076.5 156.0Q4047.0 189 4015.0 225.0Q3983.0 261 3951.5 297.0Q3920.0 333 3890.0 366.0Q3860.0 399 3835.0 426.5Q3810.0 454 3793.0 474Q3789.0 479 3784.5 482.5Q3780.0 486 3777.0 486Q3773.0 486 3771.0 479.0Q3769.0 472 3769.0 466Q3769.0 420 3769.5 357.0Q3770.0 294 3770.0 229.0Q3770.0 164 3770.0 109Q3770.0 78 3788.0 58.0Q3806.0 38 3845.0 29Q3857.0 27 3865.5 22.5Q3874.0 18 3874.0 10Q3874.0 3 3866.0 0.0Q3858.0 -3 3848.0 -3Q3821.0 -3 3805.0 -2.0Q3789.0 -1 3776.0 0.0Q3763.0 1 3743.0 1Q3722.0 1 3705.5 0.0Q3689.0 -1 3676.0 -2.5Q3663.0 -4 3651.0 -4Q3641.0 -4 3633.0 -0.5Q3625.0 3 3625.0 9Q3625.0 17 3632.5 21.5Q3640.0 26 3653.0 30Q3679.0 38 3691.5 59.5Q3704.0 81 3707.0 111Q3711.0 149 3715.0 210.5Q3719.0 272 3722.5 349.0Q3726.0 426 3726.0 508Q3726.0 560 3699.5 583.0Q3673.0 606 3633.0 620Q3626.0 622 3615.0 628.0Q3604.0 634 3604.0 643Q3604.0 652 3612.0 655.0Q3620.0 658 3629.0 658Q3650.0 658 3671.0 657.0Q3692.0 656 3713.5 655.5Q3735.0 655 3758.5 654.0Q3782.0 653 3809.0 653Q3818.0 653 3822.5 649.5Q3827.0 646 3831.0 640Q3847.0 621 3872.0 592.5Q3897.0 564 3926.5 529.5Q3956.0 495 3988.5 457.0Q4021.0 419 4053.5 381.0Q4086.0 343 4116.0 308.5Q4146.0 274 4170.5 245.5Q4195.0 217 4211.0 199Q4215.0 195 4220.5 189.0Q4226.0 183 4230.0 183Q4238.0 183 4239.0 200Q4239.0 226 4239.0 266.5Q4239.0 307 4239.5 356.5Q4240.0 406 4239.5 458.0Q4239.0 510 4238.0 558Q4237.0 583 4217.5 597.5Q4198.0 612 4169.0 618Q4157.0 621 4146.5 625.5Q4136.0 630 4136.0 639Q4136.0 646 4146.5 649.0Q4157.0 652 4166.0 652Q4186.0 652 4199.5 652.0Q4213.0 652 4225.0 651.5Q4237.0 651 4250.0 651Q4272.0 651 4286.0 651.5Q4300.0 652 4316.5 653.0Q4333.0 654 4360.0 654Q4372.0 654 4379.5 650.5Q4387.0 647 4387.0 641Q4387.0 626 4358.0 620Q4323.0 613 4308.5 601.0Q4294.0 589 4293.0 561Q4293.0 536 4292.5 497.0Q4292.0 458 4291.0 412.0Q4290.0 366 4288.5 318.0Q4287.0 270 4286.5 224.0Q4286.0 178 4286.0 141Q4286.0 117 4288.0 92.0Q4290.0 67 4292.5 47.5Q4295.0 28 4295.0 20Q4295.0 -2 4288.0 -10.0Q4281.0 -18 4269.0 -18ZM4802.0 -14Q4727.0 -14 4660.0 9.5Q4593.0 33 4541.5 77.0Q4490.0 121 4460.5 182.5Q4431.0 244 4431.0 319Q4431.0 389 4460.0 451.0Q4489.0 513 4542.0 561.0Q4595.0 609 4668.5 636.5Q4742.0 664 4830.0 664Q4864.0 664 4894.5 659.5Q4925.0 655 4954.0 648.5Q4983.0 642 5011.0 632Q5022.0 628 5028.5 621.0Q5035.0 614 5036.0 602Q5040.0 572 5042.0 542.5Q5044.0 513 5044.0 484Q5045.0 474 5037.0 469.5Q5029.0 465 5020.0 468.5Q5011.0 472 5007.0 483Q4999.0 511 4988.5 535.5Q4978.0 560 4957.0 577Q4934.0 596 4899.0 607.5Q4864.0 619 4817.0 619Q4763.0 619 4719.0 597.0Q4675.0 575 4643.5 536.0Q4612.0 497 4595.0 448.0Q4578.0 399 4578.0 345Q4578.0 281 4593.5 224.0Q4609.0 167 4640.5 123.5Q4672.0 80 4717.0 55.5Q4762.0 31 4820.0 31Q4894.0 31 4940.0 63.0Q4986.0 95 5018.0 158Q5026.0 174 5040.0 173.5Q5054.0 173 5054.0 157Q5054.0 145 5051.0 127.0Q5048.0 109 5042.5 88.5Q5037.0 68 5030.0 48Q5026.0 36 5020.0 30.0Q5014.0 24 5002.0 19Q4964.0 3 4912.5 -5.5Q4861.0 -14 4802.0 -14ZM5155.0 -5Q5144.0 -5 5137.5 -1.0Q5131.0 3 5131.0 9Q5131.0 22 5157.0 28Q5193.0 37 5208.5 50.5Q5224.0 64 5224.0 97V550Q5224.0 584 5210.5 598.0Q5197.0 612 5160.0 620Q5146.0 623 5140.0 628.5Q5134.0 634 5134.0 640Q5134.0 647 5140.5 650.5Q5147.0 654 5158.0 654Q5187.0 654 5213.5 653.0Q5240.0 652 5265.0 651.0Q5290.0 650 5317.0 650Q5363.0 650 5414.5 651.0Q5466.0 652 5507.0 652Q5540.0 653 5561.5 655.0Q5583.0 657 5587.0 657Q5594.0 657 5601.5 654.0Q5609.0 651 5610.0 642Q5614.0 609 5620.0 577.0Q5626.0 545 5626.0 521Q5626.0 512 5621.5 507.5Q5617.0 503 5612.0 503Q5607.0 503 5603.0 506.5Q5599.0 510 5596.0 517Q5588.0 540 5581.0 557.0Q5574.0 574 5565.0 583Q5552.0 597 5535.0 605.0Q5518.0 613 5494.0 613H5401.0Q5383.0 613 5368.0 602.5Q5353.0 592 5353.0 573V377Q5353.0 366 5359.5 360.0Q5366.0 354 5375.0 354H5467.0Q5494.0 354 5505.5 369.0Q5517.0 384 5525.0 410Q5532.0 430 5544.0 430Q5549.0 430 5553.0 424.5Q5557.0 419 5557.0 410Q5556.0 400 5555.0 386.0Q5554.0 372 5553.5 358.0Q5553.0 344 5553.0 333Q5553.0 321 5553.5 306.0Q5554.0 291 5554.5 276.5Q5555.0 262 5556.0 252Q5557.0 241 5554.5 235.0Q5552.0 229 5546.0 229Q5530.0 229 5523.0 257Q5515.0 285 5504.0 299.0Q5493.0 313 5474.0 313H5380.0Q5367.0 313 5360.0 308.0Q5353.0 303 5353.0 289V99Q5353.0 66 5367.0 53.0Q5381.0 40 5410.0 40H5492.0Q5517.0 40 5537.5 45.0Q5558.0 50 5573.0 61Q5590.0 73 5603.5 93.5Q5617.0 114 5630.0 139Q5634.0 147 5638.0 149.5Q5642.0 152 5648.0 152Q5653.0 151 5655.5 146.0Q5658.0 141 5658.0 135Q5658.0 121 5653.0 99.0Q5648.0 77 5640.5 53.5Q5633.0 30 5627.0 10Q5624.0 3 5619.0 -0.5Q5614.0 -4 5607.0 -4Q5583.0 -4 5545.5 -3.5Q5508.0 -3 5464.0 -2.0Q5420.0 -1 5374.0 -0.5Q5328.0 0 5286.0 0Q5265.0 0 5243.5 -1.0Q5222.0 -2 5200.0 -3.5Q5178.0 -5 5155.0 -5Z" transform="matrix(0.022120 0 0 -0.022120 87.23 391.01)" fill="#15130f"/></svg>