<svg xmlns="http://www.w3.org/2000/svg" viewBox="0 0 300 446"><rect width="300" height="446" fill="#f4ecd8"/><rect x="20.0" y="25.5" width="260" height="395" rx="20.3" fill="#f4ecd8" stroke="#15130f" stroke-width="1.5"/><rect x="36.9" y="42.4" width="226.2" height="354.7" fill="none" stroke="#15130f" stroke-width="0.7"/><g fill="none" stroke="#15130f" stroke-width="0.65" stroke-opacity="0.72" stroke-linecap="round" stroke-linejoin="round"><line x1="36.9" y1="42.4" x2="263.1" y2="370.6"/></g><path d="M36.9,370.6 H263.1 V397.1 H36.9 Z" fill="#bfdedc"/><g fill="none" stroke="#15130f" stroke-width="0.8"><line x1="36.9" y1="370.6" x2="263.1" y2="370.6"/><line x1="61.6" y1="370.6" x2="61.6" y2="397.1"/><line x1="238.4" y1="370.6" x2="238.4" y2="397.1"/></g><rect x="141.4" y="34.4" width="17.2" height="19.0" fill="#bfdedc" stroke="#15130f" stroke-width="0.8"/><path d="M853.0 1316Q873.0 1316 875.0 1308L880.0 1293L883.0 1279Q881.0 1265 840.0 1259Q750.0 1244 640.0 1176.5Q530.0 1109 463.0 1027Q420.0 973 377.5 882.5Q335.0 792 335.0 753Q335.0 727 354.0 728Q367.0 729 385.0 742Q435.0 777 512.0 803.0Q589.0 829 645.0 829Q781.0 829 874.5 722.0Q968.0 615 968.0 459Q968.0 243 841.0 108.0Q714.0 -27 511.0 -27Q313.0 -27 187.5 122.5Q62.0 272 62.0 508Q62.0 756 224.0 971.5Q386.0 1187 633.0 1268Q779.0 1316 853.0 1316ZM501.0 715Q402.0 715 337.5 638.5Q273.0 562 273.0 445Q273.0 284 361.5 159.5Q450.0 35 565.0 35Q658.0 35 715.0 113.0Q772.0 191 772.0 318Q772.0 497 697.5 606.0Q623.0 715 501.0 715Z" transform="matrix(0.006858 0 0 -0.006858 146.47 49.10)" fill="#15130f"/><path d="M250.0 950Q250.0 859 278.0 774.5Q306.0 690 358.5 645.0Q411.0 600 467.0 600Q524.0 600 576.5 645.0Q629.0 690 657.0 774.5Q685.0 859 685.0 950Q685.0 1051 657.0 1135.5Q629.0 1220 576.5 1265.0Q524.0 1310 467.0 1310Q411.0 1310 358.5 1265.0Q306.0 1220 278.0 1135.5Q250.0 1051 250.0 950ZM589.0 1391Q633.0 1377 677.0 1352Q777.0 1294 831.0 1185.5Q885.0 1077 885.0 950Q885.0 833 831.0 724.5Q777.0 616 677.0 558Q623.0 527 568.0 513V350H785.0V250H568.0V170Q568.0 120 593.0 80.0Q618.0 40 688.0 40H738.0V0H198.0V40H248.0Q318.0 40 343.0 80.0Q368.0 120 368.0 170V250H150.0V350H368.0V513Q312.0 527 259.0 558Q158.0 616 104.0 724.5Q50.0 833 50.0 950Q50.0 1077 104.0 1185.5Q158.0 1294 259.0 1352Q301.0 1377 346.0 1391Q253.0 1414 191.0 1476Q126.0 1541 119.0 1596Q117.0 1608 117.0 1620Q117.0 1656 138.5 1677.5Q160.0 1699 196.0 1700Q231.0 1700 251.5 1679.0Q272.0 1658 282.0 1630Q289.0 1613 292.5 1548.0Q296.0 1483 346.5 1467.5Q397.0 1452 467.0 1452Q537.0 1452 587.5 1467.5Q638.0 1483 641.5 1548.0Q645.0 1613 652.0 1630Q662.0 1658 682.5 1679.0Q703.0 1700 738.0 1700Q774.0 1699 795.5 1677.5Q817.0 1656 817.0 1620Q817.0 1608 815.0 1596Q808.0 1541 743.0 1476Q681.0 1414 589.0 1391Z" transform="matrix(0.009268 0 0 -0.009268 44.92 391.74)" fill="#15130f"/><path d="M1450.0 635V-198Q1651.0 -179 1769.0 -4Q1900.0 191 1900.0 410Q1900.0 633 1769.0 827Q1742.0 865 1711.0 896ZM1259.0 -187Q1250.0 -126 1250.0 -52V1067Q1250.0 1212 1241.5 1255.5Q1233.0 1299 1212.5 1317.5Q1192.0 1336 1168.0 1336L938.0 1106Q950.0 1037 950.0 952V0H750.0V1067Q750.0 1212 741.5 1255.5Q733.0 1299 712.5 1317.5Q692.0 1336 668.0 1336L438.0 1106Q450.0 1037 450.0 952V0H50.0V40H100.0Q170.0 40 210.0 95.0Q250.0 150 250.0 200V1067Q250.0 1212 241.5 1255.5Q233.0 1299 212.5 1317.5Q192.0 1336 168.0 1336V1410Q284.0 1392 358.0 1301Q387.0 1264 408.0 1216L602.0 1410H668.0Q784.0 1392 858.0 1301Q887.0 1264 908.0 1216L1102.0 1410H1168.0Q1284.0 1392 1358.0 1301Q1450.0 1187 1450.0 952V775L1726.0 1051Q1824.0 1007 1908.0 915Q2100.0 710 2100.0 410Q2100.0 109 1906.0 -95Q1729.0 -282 1453.0 -298Q1455.0 -337 1459.0 -355Q1467.0 -399 1487.5 -417.5Q1508.0 -436 1532.0 -436V-510Q1416.0 -491 1343.0 -401Q1305.0 -354 1282.0 -286Q1118.0 -247 974.0 -95Q963.0 -83 952.0 -71L977.0 -36Q1088.0 -154 1259.0 -187Z" transform="matrix(0.008916 0 0 -0.008916 241.17 387.88)" fill="#15130f"/><path d="M405.0 -14Q330.0 -14 263.0 9.5Q196.0 33 144.5 77.0Q93.0 121 63.5 182.5Q34.0 244 34.0 319Q34.0 389 63.0 451.0Q92.0 513 145.0 561.0Q198.0 609 271.5 636.5Q345.0 664 433.0 664Q467.0 664 497.5 659.5Q528.0 655 557.0 648.5Q586.0 642 614.0 632Q625.0 628 631.5 621.0Q638.0 614 639.0 602Q643.0 572 645.0 542.5Q647.0 513 647.0 484Q648.0 474 640.0 469.5Q632.0 465 623.0 468.5Q614.0 472 610.0 483Q602.0 511 591.5 535.5Q581.0 560 560.0 577Q537.0 596 502.0 607.5Q467.0 619 420.0 619Q366.0 619 322.0 597.0Q278.0 575 246.5 536.0Q215.0 497 198.0 448.0Q181.0 399 181.0 345Q181.0 281 196.5 224.0Q212.0 167 243.5 123.5Q275.0 80 320.0 55.5Q365.0 31 423.0 31Q497.0 31 543.0 63.0Q589.0 95 621.0 158Q629.0 174 643.0 173.5Q657.0 173 657.0 157Q657.0 145 654.0 127.0Q651.0 109 645.5 88.5Q640.0 68 633.0 48Q629.0 36 623.0 30.0Q617.0 24 605.0 19Q567.0 3 515.5 -5.5Q464.0 -14 405.0 -14ZM733.0 -5Q721.0 -5 713.0 -1.5Q705.0 2 705.0 10Q705.0 19 712.5 24.0Q720.0 29 732.0 33Q761.0 41 782.5 57.5Q804.0 74 817.0 103Q842.0 162 865.0 216.5Q888.0 271 909.0 325.0Q930.0 379 951.5 435.0Q973.0 491 995.0 553Q1006.0 584 1010.0 601.0Q1014.0 618 1017.0 626Q1032.0 630 1045.0 634.0Q1058.0 638 1074.0 644Q1088.0 651 1098.0 662.0Q1108.0 673 1113.0 679Q1116.0 681 1119.0 681.5Q1122.0 682 1125.0 677Q1128.0 671 1130.0 665.0Q1132.0 659 1134.0 652Q1156.0 581 1179.5 508.5Q1203.0 436 1226.0 365.5Q1249.0 295 1270.5 230.5Q1292.0 166 1310.0 112Q1319.0 85 1332.5 69.0Q1346.0 53 1362.5 44.5Q1379.0 36 1399.0 31Q1412.0 28 1419.0 23.0Q1426.0 18 1426.0 9Q1426.0 3 1419.5 0.0Q1413.0 -3 1403.0 -3Q1385.0 -3 1357.5 -2.0Q1330.0 -1 1301.0 0.5Q1272.0 2 1249.0 2Q1229.0 2 1204.5 1.0Q1180.0 0 1155.5 -1.0Q1131.0 -2 1114.0 -2Q1104.0 -2 1096.5 1.5Q1089.0 5 1089.0 12Q1089.0 20 1097.0 25.5Q1105.0 31 1116.0 33Q1152.0 39 1168.0 51.5Q1184.0 64 1180.0 88Q1177.0 105 1171.0 128.5Q1165.0 152 1158.5 177.5Q1152.0 203 1145.0 224Q1143.0 232 1139.0 235.5Q1135.0 239 1124.0 239H944.0Q937.0 239 933.0 234.5Q929.0 230 927.0 221Q923.0 208 917.5 191.5Q912.0 175 906.5 157.5Q901.0 140 896.5 125.0Q892.0 110 890.0 99Q885.0 72 899.5 56.5Q914.0 41 950.0 32Q977.0 25 977.0 11Q977.0 5 970.5 1.5Q964.0 -2 952.0 -2Q929.0 -2 904.0 -0.5Q879.0 1 849.0 1Q819.0 1 790.5 -2.0Q762.0 -5 733.0 -5ZM971.0 285H1110.0Q1124.0 285 1124.0 291Q1124.0 294 1123.5 296.0Q1123.0 298 1122.0 302L1052.0 533Q1048.0 547 1045.0 547Q1043.0 547 1038.0 534L954.0 302Q952.0 297 952.0 294Q952.0 289 957.5 287.0Q963.0 285 971.0 285ZM1793.0 -14Q1700.0 -14 1638.0 19.0Q1576.0 52 1545.0 111.0Q1514.0 170 1514.0 249V541Q1514.0 571 1500.5 592.0Q1487.0 613 1465.0 619Q1435.0 627 1435.0 641Q1435.0 647 1443.0 650.5Q1451.0 654 1463.0 654Q1491.0 654 1521.5 652.0Q1552.0 650 1581.0 650Q1607.0 650 1640.5 651.5Q1674.0 653 1698.0 653Q1710.0 653 1717.5 650.0Q1725.0 647 1725.0 640Q1725.0 630 1712.5 625.5Q1700.0 621 1683.0 614Q1669.0 608 1656.5 589.5Q1644.0 571 1644.0 539V270Q1644.0 198 1668.0 151.5Q1692.0 105 1732.0 83.0Q1772.0 61 1822.0 61Q1917.0 61 1963.0 121.0Q2009.0 181 2009.0 293Q2009.0 318 2009.0 352.0Q2009.0 386 2008.5 422.5Q2008.0 459 2007.0 492Q2007.0 531 2001.5 555.5Q1996.0 580 1986.0 594.5Q1976.0 609 1958.0 617Q1948.0 621 1934.5 626.0Q1921.0 631 1921.0 639Q1921.0 647 1929.0 650.0Q1937.0 653 1950.0 653Q1982.0 653 1999.5 652.0Q2017.0 651 2040.0 651Q2057.0 651 2070.5 651.5Q2084.0 652 2097.0 653.0Q2110.0 654 2127.0 654Q2139.0 654 2146.0 651.5Q2153.0 649 2153.0 641Q2153.0 627 2124.0 620Q2093.0 612 2081.0 591.0Q2069.0 570 2067.0 536Q2063.0 457 2061.5 391.0Q2060.0 325 2059.0 258Q2058.0 178 2022.5 116.5Q1987.0 55 1927.0 20.5Q1867.0 -14 1793.0 -14ZM2371.0 -4Q2361.0 -4 2353.5 -0.5Q2346.0 3 2346.0 9Q2346.0 17 2353.0 22.0Q2360.0 27 2373.0 29Q2411.0 37 2429.0 51.5Q2447.0 66 2447.0 99V504Q2447.0 545 2445.0 566.0Q2443.0 587 2439.5 594.5Q2436.0 602 2429.0 603Q2419.0 607 2404.0 608.0Q2389.0 609 2375.0 609H2344.0Q2315.0 609 2288.0 595.5Q2261.0 582 2246.0 559Q2242.0 553 2233.5 542.0Q2225.0 531 2215.5 522.0Q2206.0 513 2196.0 513Q2189.0 513 2186.5 518.0Q2184.0 523 2184.0 529Q2184.0 541 2190.0 553Q2207.0 587 2215.5 612.5Q2224.0 638 2227.0 673Q2229.0 688 2235.5 692.5Q2242.0 697 2249.0 697Q2255.0 697 2263.5 684.5Q2272.0 672 2279.0 664Q2288.0 655 2311.0 650.5Q2334.0 646 2350.0 646L2719.0 647Q2747.0 647 2766.0 651.5Q2785.0 656 2796.0 661Q2811.0 670 2820.0 679.5Q2829.0 689 2841.0 689Q2846.0 689 2848.5 683.5Q2851.0 678 2851.0 670Q2851.0 665 2850.0 658.5Q2849.0 652 2848.0 647Q2844.0 628 2840.0 613.5Q2836.0 599 2833.5 586.5Q2831.0 574 2831.0 558V541Q2831.0 527 2827.0 517.0Q2823.0 507 2814.0 507Q2806.0 507 2800.5 516.5Q2795.0 526 2789.0 546Q2780.0 578 2759.0 593.5Q2738.0 609 2693.0 609H2625.0Q2606.0 609 2595.5 602.0Q2585.0 595 2580.5 571.5Q2576.0 548 2576.0 499V100Q2576.0 68 2594.0 53.5Q2612.0 39 2651.0 29Q2663.0 26 2670.0 22.0Q2677.0 18 2677.0 10Q2677.0 3 2670.5 0.0Q2664.0 -3 2654.0 -3Q2630.0 -3 2606.0 -2.0Q2582.0 -1 2558.5 0.0Q2535.0 1 2513.0 1Q2491.0 1 2467.5 0.0Q2444.0 -1 2419.5 -2.5Q2395.0 -4 2371.0 -4ZM2889.0 -4Q2880.0 -4 2873.0 -0.5Q2866.0 3 2866.0 9Q2866.0 24 2891.0 29Q2929.0 37 2946.0 51.0Q2963.0 65 2963.0 97V551Q2963.0 584 2949.0 598.0Q2935.0 612 2896.0 620Q2871.0 625 2871.0 641Q2871.0 647 2878.0 650.5Q2885.0 654 2894.0 654Q2918.0 654 2941.0 653.0Q2964.0 652 2985.5 651.0Q3007.0 650 3029.0 650Q3050.0 650 3071.5 651.0Q3093.0 652 3116.0 653.0Q3139.0 654 3163.0 654Q3173.0 654 3179.0 650.5Q3185.0 647 3185.0 640Q3185.0 632 3178.5 627.5Q3172.0 623 3160.0 620Q3120.0 610 3106.0 596.0Q3092.0 582 3092.0 550V98Q3092.0 67 3108.5 53.0Q3125.0 39 3163.0 29Q3176.0 26 3182.5 22.0Q3189.0 18 3189.0 10Q3189.0 3 3183.0 0.0Q3177.0 -3 3167.0 -3Q3143.0 -3 3119.0 -2.0Q3095.0 -1 3072.5 0.0Q3050.0 1 3029.0 1Q3007.0 1 2984.0 0.0Q2961.0 -1 2937.0 -2.5Q2913.0 -4 2889.0 -4ZM3581.0 -14Q3513.0 -14 3451.0 9.5Q3389.0 33 3341.5 76.5Q3294.0 120 3266.5 180.5Q3239.0 241 3239.0 315Q3239.0 383 3261.5 445.5Q3284.0 508 3328.5 557.0Q3373.0 606 3438.5 635.0Q3504.0 664 3590.0 664Q3658.0 664 3719.5 640.5Q3781.0 617 3829.0 573.5Q3877.0 530 3904.5 469.5Q3932.0 409 3932.0 335Q3932.0 268 3909.5 205.0Q3887.0 142 3842.5 93.0Q3798.0 44 3732.5 15.0Q3667.0 -14 3581.0 -14ZM3598.0 30Q3661.0 30 3703.5 62.0Q3746.0 94 3767.5 151.5Q3789.0 209 3789.0 284Q3789.0 348 3776.0 408.0Q3763.0 468 3736.0 515.5Q3709.0 563 3668.5 591.0Q3628.0 619 3572.0 619Q3509.0 619 3466.5 587.0Q3424.0 555 3403.0 498.0Q3382.0 441 3382.0 366Q3382.0 302 3395.0 242.0Q3408.0 182 3434.5 134.0Q3461.0 86 3501.5 58.0Q3542.0 30 3598.0 30ZM4642.0 -18Q4630.0 -18 4602.0 -3.0Q4574.0 12 4545.0 49Q4528.0 68 4503.5 95.5Q4479.0 123 4449.5 156.0Q4420.0 189 4388.0 225.0Q4356.0 261 4324.5 297.0Q4293.0 333 4263.0 366.0Q4233.0 399 4208.0 426.5Q4183.0 454 4166.0 474Q4162.0 479 4157.5 482.5Q4153.0 486 4150.0 486Q4146.0 486 4144.0 479.0Q4142.0 472 4142.0 466Q4142.0 420 4142.5 357.0Q4143.0 294 4143.0 229.0Q4143.0 164 4143.0 109Q4143.0 78 4161.0 58.0Q4179.0 38 4218.0 29Q4230.0 27 4238.5 22.5Q4247.0 18 4247.0 10Q4247.0 3 4239.0 0.0Q4231.0 -3 4221.0 -3Q4194.0 -3 4178.0 -2.0Q4162.0 -1 4149.0 0.0Q4136.0 1 4116.0 1Q4095.0 1 4078.5 0.0Q4062.0 -1 4049.0 -2.5Q4036.0 -4 4024.0 -4Q4014.0 -4 4006.0 -0.5Q3998.0 3 3998.0 9Q3998.0 17 4005.5 21.5Q4013.0 26 4026.0 30Q4052.0 38 4064.5 59.5Q4077.0 81 4080.0 111Q4084.0 149 4088.0 210.5Q4092.0 272 4095.5 349.0Q4099.0 426 4099.0 508Q4099.0 560 4072.5 583.0Q4046.0 606 4006.0 620Q3999.0 622 3988.0 628.0Q3977.0 634 3977.0 643Q3977.0 652 3985.0 655.0Q3993.0 658 4002.0 658Q4023.0 658 4044.0 657.0Q4065.0 656 4086.5 655.5Q4108.0 655 4131.5 654.0Q4155.0 653 4182.0 653Q4191.0 653 4195.5 649.5Q4200.0 646 4204.0 640Q4220.0 621 4245.0 592.5Q4270.0 564 4299.5 529.5Q4329.0 495 4361.5 457.0Q4394.0 419 4426.5 381.0Q4459.0 343 4489.0 308.5Q4519.0 274 4543.5 245.5Q4568.0 217 4584.0 199Q4588.0 195 4593.5 189.0Q4599.0 183 4603.0 183Q4611.0 183 4612.0 200Q4612.0 226 4612.0 266.5Q4612.0 307 4612.5 356.5Q4613.0 406 4612.5 458.0Q4612.0 510 4611.0 558Q4610.0 583 4590.5 597.5Q4571.0 612 4542.0 618Q4530.0 621 4519.5 625.5Q4509.0 630 4509.0 639Q4509.0 646 4519.5 649.0Q4530.0 652 4539.0 652Q4559.0 652 4572.5 652.0Q4586.0 652 4598.0 651.5Q4610.0 651 4623.0 651Q4645.0 651 4659.0 651.5Q4673.0 652 4689.5 653.0Q4706.0 654 4733.0 654Q4745.0 654 4752.5 650.5Q4760.0 647 4760.0 641Q4760.0 626 4731.0 620Q4696.0 613 4681.5 601.0Q4667.0 589 4666.0 561Q4666.0 536 4665.5 497.0Q4665.0 458 4664.0 412.0Q4663.0 366 4661.5 318.0Q4660.0 270 4659.5 224.0Q4659.0 178 4659.0 141Q4659.0 117 4661.0 92.0Q4663.0 67 4665.5 47.5Q4668.0 28 4668.0 20Q4668.0 -2 4661.0 -10.0Q4654.0 -18 4642.0 -18Z" transform="matrix(0.022120 0 0 -0.022120 96.98 391.38)" fill="#15130f"/></svg>