<svg xmlns="http://www.w3.org/2000/svg" viewBox="0 0 300 446"><rect width="300" height="446" fill="#f4ecd8"/><rect x="20.0" y="25.5" width="260" height="395" rx="20.3" fill="#f4ecd8" stroke="#15130f" stroke-width="1.5"/><rect x="36.9" y="42.4" width="226.2" height="354.7" fill="none" stroke="#15130f" stroke-width="0.7"/><g fill="none" stroke="#15130f" stroke-width="0.65" stroke-opacity="0.72" stroke-linecap="round" stroke-linejoin="round"><line x1="36.9" y1="281.5" x2="263.1" y2="281.5"/></g><path d="M36.9,370.6 H263.1 V397.1 H36.9 Z" fill="#d7e8c4"/><g fill="none" stroke="#15130f" stroke-width="0.8"><line x1="36.9" y1="370.6" x2="263.1" y2="370.6"/><line x1="61.6" y1="370.6" x2="61.6" y2="397.1"/><line x1="238.4" y1="370.6" x2="238.4" y2="397.1"/></g><rect x="141.4" y="34.4" width="17.2" height="19.0" fill="#d7e8c4" stroke="#15130f" stroke-width="0.8"/><path d="M649.0 1092V235L647.0 193L657.0 137Q686.0 59 825.0 52Q867.0 50 867.0 28Q867.0 -7 780.0 -7Q761.0 -7 652.0 2Q595.0 7 494.0 7Q394.0 7 322.0 -2Q293.0 -5 280.0 -5Q255.0 -5 255.0 20Q255.0 41 281.0 45Q384.0 61 415.0 92.0Q446.0 123 446.0 210L445.0 248V1010Q445.0 1115 363.0 1115Q331.0 1115 306.0 1104L281.0 1093Q270.0 1089 261.0 1089Q235.0 1089 235.0 1113Q235.0 1137 260.0 1150.0Q285.0 1163 362.0 1180Q506.0 1211 567.0 1267L614.0 1310Q625.0 1320 641.0 1320Q661.0 1320 661.0 1282Q661.0 1271 659.0 1243L651.0 1153Q649.0 1126 649.0 1092ZM1947.0 348Q1970.0 348 1972.0 331L1970.0 321L1955.0 277Q1941.0 236 1920.0 192L1869.0 85Q1839.0 23 1816.5 9.5Q1794.0 -4 1721.0 -4Q1677.0 -4 1615.0 -1L1530.0 4Q1482.0 6 1395.0 6Q1232.0 6 1191.0 -1Q1163.0 -6 1150.0 -6Q1119.0 -6 1119.0 21Q1119.0 40 1178.0 106Q1270.0 211 1389.0 383.0Q1508.0 555 1565.0 665Q1641.0 813 1641.0 932Q1641.0 1035 1583.0 1096.0Q1525.0 1157 1428.0 1157Q1290.0 1157 1180.0 1033Q1170.0 1021 1162.0 1021Q1155.0 1021 1146.5 1029.5Q1138.0 1038 1138.0 1046Q1138.0 1059 1169.0 1101.5Q1200.0 1144 1234.0 1176Q1367.0 1307 1541.0 1307Q1679.0 1307 1764.0 1230.5Q1849.0 1154 1849.0 1029Q1849.0 803 1456.0 355L1408.0 300Q1366.0 253 1366.0 233Q1366.0 198 1450.0 198L1614.0 200L1710.0 201Q1774.0 204 1835.0 241.0Q1896.0 278 1926.0 333Q1935.0 348 1947.0 348Z" transform="matrix(0.006024 0 0 -0.006024 143.35 48.63)" fill="#15130f"/><path d="M101.0 47Q181.0 63 244.0 113Q309.0 164 358.0 252Q477.0 463 477.0 701Q477.0 941 358.0 1151Q310.0 1237 245.0 1288Q180.0 1338 100.0 1353Q188.0 1394 291.0 1405Q333.0 1410 377.0 1410Q670.0 1410 848.5 1205.0Q1027.0 1000 1027.0 699Q1027.0 399 847.0 194.5Q667.0 -10 377.0 -10Q332.0 -10 290.0 -5Q188.0 7 101.0 47ZM498.0 1241Q677.0 1021 677.0 699Q677.0 378 497.0 159Q468.0 124 436.0 94Q607.0 118 708.0 286Q827.0 481 827.0 701Q827.0 923 708.0 1117Q607.0 1281 438.0 1306Q470.0 1276 498.0 1241Z" transform="matrix(0.009268 0 0 -0.009268 44.03 390.35)" fill="#15130f"/><path d="M548.0 750Q533.0 984 370.0 1200Q330.0 1250 250.0 1305.0Q170.0 1360 100.0 1360H50.0V1400H402.0Q440.0 1370 476.0 1337Q731.0 1091 749.0 750H951.0Q969.0 1091 1224.0 1337Q1260.0 1370 1298.0 1400H1650.0V1360H1600.0Q1530.0 1360 1450.0 1305.0Q1370.0 1250 1330.0 1200Q1167.0 984 1152.0 750H1600.0V650H1152.0Q1168.0 413 1340.0 190Q1378.0 145 1450.0 95Q1530.0 40 1600.0 40H1650.0V0H1301.0Q1262.0 29 1227.0 63Q969.0 308 951.0 650H749.0Q731.0 308 473.0 63Q438.0 29 399.0 0H50.0V40H100.0Q170.0 40 250.0 95Q322.0 145 360.0 190Q532.0 413 548.0 650H100.0V750Z" transform="matrix(0.009268 0 0 -0.009268 242.87 390.35)" fill="#15130f"/><path d="M49.0 -5Q38.0 -5 31.5 -1.0Q25.0 3 25.0 9Q25.0 22 51.0 28Q87.0 37 102.5 50.5Q118.0 64 118.0 97V550Q118.0 584 104.5 598.0Q91.0 612 54.0 620Q40.0 623 34.0 628.5Q28.0 634 28.0 640Q28.0 647 34.5 650.5Q41.0 654 52.0 654Q81.0 654 107.5 653.0Q134.0 652 159.0 651.0Q184.0 650 211.0 650Q257.0 650 308.5 651.0Q360.0 652 401.0 652Q434.0 653 455.5 655.0Q477.0 657 481.0 657Q488.0 657 495.5 654.0Q503.0 651 504.0 642Q508.0 609 514.0 577.0Q520.0 545 520.0 521Q520.0 512 515.5 507.5Q511.0 503 506.0 503Q501.0 503 497.0 506.5Q493.0 510 490.0 517Q482.0 540 475.0 557.0Q468.0 574 459.0 583Q446.0 597 429.0 605.0Q412.0 613 388.0 613H295.0Q277.0 613 262.0 602.5Q247.0 592 247.0 573V377Q247.0 366 253.5 360.0Q260.0 354 269.0 354H361.0Q388.0 354 399.5 369.0Q411.0 384 419.0 410Q426.0 430 438.0 430Q443.0 430 447.0 424.5Q451.0 419 451.0 410Q450.0 400 449.0 386.0Q448.0 372 447.5 358.0Q447.0 344 447.0 333Q447.0 321 447.5 306.0Q448.0 291 448.5 276.5Q449.0 262 450.0 252Q451.0 241 448.5 235.0Q446.0 229 440.0 229Q424.0 229 417.0 257Q409.0 285 398.0 299.0Q387.0 313 368.0 313H274.0Q261.0 313 254.0 308.0Q247.0 303 247.0 289V99Q247.0 66 261.0 53.0Q275.0 40 304.0 40H386.0Q411.0 40 431.5 45.0Q452.0 50 467.0 61Q484.0 73 497.5 93.5Q511.0 114 524.0 139Q528.0 147 532.0 149.5Q536.0 152 542.0 152Q547.0 151 549.5 146.0Q552.0 141 552.0 135Q552.0 121 547.0 99.0Q542.0 77 534.5 53.5Q527.0 30 521.0 10Q518.0 3 513.0 -0.5Q508.0 -4 501.0 -4Q477.0 -4 439.5 -3.5Q402.0 -3 358.0 -2.0Q314.0 -1 268.0 -0.5Q222.0 0 180.0 0Q159.0 0 137.5 -1.0Q116.0 -2 94.0 -3.5Q72.0 -5 49.0 -5ZM616.0 -4Q604.0 -4 597.5 -0.5Q591.0 3 591.0 9Q591.0 17 599.5 20.5Q608.0 24 620.0 27Q644.0 34 661.0 54.0Q678.0 74 682.0 106Q690.0 167 697.5 239.0Q705.0 311 711.5 384.0Q718.0 457 722.0 521Q722.0 528 722.0 537.0Q722.0 546 722.0 555Q721.0 570 716.5 579.5Q712.0 589 701.0 597Q687.0 607 672.0 612.5Q657.0 618 638.0 622Q627.0 624 620.5 629.5Q614.0 635 614.0 643Q614.0 651 622.0 654.0Q630.0 657 643.0 657Q656.0 657 678.0 656.0Q700.0 655 725.5 653.5Q751.0 652 776.0 651.0Q801.0 650 820.0 650Q828.0 650 834.0 645.0Q840.0 640 842.0 633Q848.0 614 854.0 596.0Q860.0 578 867.0 558L1017.0 191Q1020.0 186 1025.0 185.5Q1030.0 185 1032.0 190L1193.0 548Q1200.0 577 1204.5 599.0Q1209.0 621 1213.0 634Q1216.0 647 1226.0 647H1267.0Q1305.0 649 1347.0 653.0Q1389.0 657 1412.0 657Q1420.0 657 1427.5 654.5Q1435.0 652 1435.0 644Q1435.0 636 1429.0 632.0Q1423.0 628 1411.0 623Q1403.0 621 1392.0 616.5Q1381.0 612 1373.0 608Q1352.0 599 1341.5 585.0Q1331.0 571 1332.0 545Q1333.0 474 1336.0 417.5Q1339.0 361 1341.5 311.5Q1344.0 262 1348.0 210.5Q1352.0 159 1355.0 97Q1357.0 69 1376.5 53.0Q1396.0 37 1429.0 29Q1441.0 26 1448.5 22.0Q1456.0 18 1456.0 10Q1456.0 3 1449.5 0.0Q1443.0 -3 1432.0 -3Q1409.0 -3 1384.0 -2.0Q1359.0 -1 1335.5 0.0Q1312.0 1 1291.0 1Q1271.0 1 1250.0 0.0Q1229.0 -1 1207.0 -2.5Q1185.0 -4 1161.0 -4Q1151.0 -4 1143.5 -0.5Q1136.0 3 1136.0 9Q1136.0 17 1143.5 22.0Q1151.0 27 1163.0 29Q1197.0 36 1210.5 50.0Q1224.0 64 1222.0 97Q1221.0 162 1219.0 222.0Q1217.0 282 1215.0 341.0Q1213.0 400 1210.0 460Q1209.0 468 1205.5 467.5Q1202.0 467 1198.0 459L994.0 -1Q990.0 -12 981.0 -10.5Q972.0 -9 969.0 -1Q923.0 115 872.5 228.5Q822.0 342 773.0 459Q770.0 467 764.5 465.0Q759.0 463 758.0 454Q753.0 398 749.0 338.5Q745.0 279 744.0 220.0Q743.0 161 743.0 103Q743.0 76 760.5 57.0Q778.0 38 814.0 29Q826.0 27 834.5 22.5Q843.0 18 843.0 10Q843.0 3 835.0 0.0Q827.0 -3 817.0 -3Q790.0 -3 776.0 -2.0Q762.0 -1 750.0 0.0Q738.0 1 718.0 1Q697.0 1 678.5 0.0Q660.0 -1 644.0 -2.5Q628.0 -4 616.0 -4ZM1525.0 -4Q1516.0 -4 1509.0 -0.5Q1502.0 3 1502.0 9Q1502.0 24 1527.0 29Q1565.0 37 1581.0 51.0Q1597.0 65 1597.0 98V538Q1597.0 576 1584.5 594.0Q1572.0 612 1536.0 620Q1522.0 623 1516.0 628.5Q1510.0 634 1510.0 640Q1510.0 647 1516.5 650.5Q1523.0 654 1534.0 654Q1558.0 654 1578.5 653.5Q1599.0 653 1618.0 652.0Q1637.0 651 1657.0 651Q1679.0 651 1698.5 653.0Q1718.0 655 1738.5 657.0Q1759.0 659 1786.0 659Q1905.0 659 1976.0 609.0Q2047.0 559 2047.0 471Q2047.0 409 2021.5 356.5Q1996.0 304 1943.5 272.0Q1891.0 240 1811.0 240Q1786.0 240 1773.0 247.5Q1760.0 255 1760.0 264Q1760.0 270 1766.5 274.5Q1773.0 279 1778.0 279Q1787.0 279 1795.5 277.5Q1804.0 276 1821.0 276Q1868.0 276 1892.5 324.0Q1917.0 372 1917.0 452Q1917.0 540 1881.5 580.5Q1846.0 621 1786.0 621Q1758.0 621 1742.5 609.5Q1727.0 598 1727.0 573L1726.0 104Q1726.0 71 1742.5 54.5Q1759.0 38 1799.0 29Q1812.0 27 1818.0 22.5Q1824.0 18 1824.0 10Q1824.0 3 1818.5 0.0Q1813.0 -3 1802.0 -3Q1779.0 -3 1755.0 -1.5Q1731.0 0 1708.5 1.0Q1686.0 2 1666.0 2Q1644.0 2 1620.5 1.0Q1597.0 0 1573.0 -2.0Q1549.0 -4 1525.0 -4ZM2096.0 -5Q2084.0 -5 2076.0 -1.5Q2068.0 2 2068.0 10Q2068.0 19 2075.5 24.0Q2083.0 29 2095.0 33Q2124.0 41 2145.5 57.5Q2167.0 74 2180.0 103Q2205.0 162 2228.0 216.5Q2251.0 271 2272.0 325.0Q2293.0 379 2314.5 435.0Q2336.0 491 2358.0 553Q2369.0 584 2373.0 601.0Q2377.0 618 2380.0 626Q2395.0 630 2408.0 634.0Q2421.0 638 2437.0 644Q2451.0 651 2461.0 662.0Q2471.0 673 2476.0 679Q2479.0 681 2482.0 681.5Q2485.0 682 2488.0 677Q2491.0 671 2493.0 665.0Q2495.0 659 2497.0 652Q2519.0 581 2542.5 508.5Q2566.0 436 2589.0 365.5Q2612.0 295 2633.5 230.5Q2655.0 166 2673.0 112Q2682.0 85 2695.5 69.0Q2709.0 53 2725.5 44.5Q2742.0 36 2762.0 31Q2775.0 28 2782.0 23.0Q2789.0 18 2789.0 9Q2789.0 3 2782.5 0.0Q2776.0 -3 2766.0 -3Q2748.0 -3 2720.5 -2.0Q2693.0 -1 2664.0 0.5Q2635.0 2 2612.0 2Q2592.0 2 2567.5 1.0Q2543.0 0 2518.5 -1.0Q2494.0 -2 2477.0 -2Q2467.0 -2 2459.5 1.5Q2452.0 5 2452.0 12Q2452.0 20 2460.0 25.5Q2468.0 31 2479.0 33Q2515.0 39 2531.0 51.5Q2547.0 64 2543.0 88Q2540.0 105 2534.0 128.5Q2528.0 152 2521.5 177.5Q2515.0 203 2508.0 224Q2506.0 232 2502.0 235.5Q2498.0 239 2487.0 239H2307.0Q2300.0 239 2296.0 234.5Q2292.0 230 2290.0 221Q2286.0 208 2280.5 191.5Q2275.0 175 2269.5 157.5Q2264.0 140 2259.5 125.0Q2255.0 110 2253.0 99Q2248.0 72 2262.5 56.5Q2277.0 41 2313.0 32Q2340.0 25 2340.0 11Q2340.0 5 2333.5 1.5Q2327.0 -2 2315.0 -2Q2292.0 -2 2267.0 -0.5Q2242.0 1 2212.0 1Q2182.0 1 2153.5 -2.0Q2125.0 -5 2096.0 -5ZM2334.0 285H2473.0Q2487.0 285 2487.0 291Q2487.0 294 2486.5 296.0Q2486.0 298 2485.0 302L2415.0 533Q2411.0 547 2408.0 547Q2406.0 547 2401.0 534L2317.0 302Q2315.0 297 2315.0 294Q2315.0 289 2320.5 287.0Q2326.0 285 2334.0 285ZM2992.0 -4Q2982.0 -4 2974.5 -0.5Q2967.0 3 2967.0 9Q2967.0 17 2974.0 22.0Q2981.0 27 2994.0 29Q3032.0 37 3050.0 51.5Q3068.0 66 3068.0 99V504Q3068.0 545 3066.0 566.0Q3064.0 587 3060.5 594.5Q3057.0 602 3050.0 603Q3040.0 607 3025.0 608.0Q3010.0 609 2996.0 609H2965.0Q2936.0 609 2909.0 595.5Q2882.0 582 2867.0 559Q2863.0 553 2854.5 542.0Q2846.0 531 2836.5 522.0Q2827.0 513 2817.0 513Q2810.0 513 2807.5 518.0Q2805.0 523 2805.0 529Q2805.0 541 2811.0 553Q2828.0 587 2836.5 612.5Q2845.0 638 2848.0 673Q2850.0 688 2856.5 692.5Q2863.0 697 2870.0 697Q2876.0 697 2884.5 684.5Q2893.0 672 2900.0 664Q2909.0 655 2932.0 650.5Q2955.0 646 2971.0 646L3340.0 647Q3368.0 647 3387.0 651.5Q3406.0 656 3417.0 661Q3432.0 670 3441.0 679.5Q3450.0 689 3462.0 689Q3467.0 689 3469.5 683.5Q3472.0 678 3472.0 670Q3472.0 665 3471.0 658.5Q3470.0 652 3469.0 647Q3465.0 628 3461.0 613.5Q3457.0 599 3454.5 586.5Q3452.0 574 3452.0 558V541Q3452.0 527 3448.0 517.0Q3444.0 507 3435.0 507Q3427.0 507 3421.5 516.5Q3416.0 526 3410.0 546Q3401.0 578 3380.0 593.5Q3359.0 609 3314.0 609H3246.0Q3227.0 609 3216.5 602.0Q3206.0 595 3201.5 571.5Q3197.0 548 3197.0 499V100Q3197.0 68 3215.0 53.5Q3233.0 39 3272.0 29Q3284.0 26 3291.0 22.0Q3298.0 18 3298.0 10Q3298.0 3 3291.5 0.0Q3285.0 -3 3275.0 -3Q3251.0 -3 3227.0 -2.0Q3203.0 -1 3179.5 0.0Q3156.0 1 3134.0 1Q3112.0 1 3088.5 0.0Q3065.0 -1 3040.5 -2.5Q3016.0 -4 2992.0 -4ZM3518.0 -4Q3509.0 -4 3502.0 0.0Q3495.0 4 3495.0 10Q3495.0 24 3520.0 29Q3556.0 37 3568.0 51.0Q3580.0 65 3580.0 98V551Q3580.0 584 3570.0 598.0Q3560.0 612 3523.0 620Q3498.0 625 3498.0 640Q3498.0 647 3504.5 650.5Q3511.0 654 3521.0 654Q3545.0 654 3566.0 653.0Q3587.0 652 3607.0 651.0Q3627.0 650 3647.0 650Q3667.0 650 3688.5 651.0Q3710.0 652 3733.0 653.0Q3756.0 654 3779.0 654Q3801.0 654 3801.0 639Q3801.0 631 3795.0 627.0Q3789.0 623 3776.0 620Q3737.0 610 3723.5 595.0Q3710.0 580 3710.0 550V364Q3710.0 357 3714.5 354.5Q3719.0 352 3725.0 352H4024.0Q4035.0 352 4035.0 366V551Q4035.0 580 4022.0 595.0Q4009.0 610 3970.0 620Q3957.0 623 3950.5 627.0Q3944.0 631 3944.0 639Q3944.0 654 3966.0 654Q3990.0 654 4014.0 653.0Q4038.0 652 4060.5 651.0Q4083.0 650 4104.0 650Q4123.0 650 4141.0 651.0Q4159.0 652 4179.5 653.0Q4200.0 654 4224.0 654Q4233.0 654 4240.0 650.5Q4247.0 647 4247.0 640Q4247.0 625 4221.0 620Q4186.0 612 4175.5 597.0Q4165.0 582 4165.0 551V98Q4165.0 65 4176.0 51.0Q4187.0 37 4223.0 29Q4248.0 24 4248.0 10Q4248.0 4 4241.0 0.0Q4234.0 -4 4225.0 -4Q4202.0 -4 4181.0 -2.5Q4160.0 -1 4139.5 0.0Q4119.0 1 4099.0 1Q4079.0 1 4057.0 0.0Q4035.0 -1 4012.0 -2.0Q3989.0 -3 3965.0 -3Q3956.0 -3 3950.0 0.5Q3944.0 4 3944.0 11Q3944.0 19 3950.0 22.5Q3956.0 26 3968.0 29Q4004.0 38 4019.5 53.0Q4035.0 68 4035.0 98V288Q4035.0 294 4033.5 299.0Q4032.0 304 4025.0 304H3721.0Q3710.0 304 3710.0 289V102Q3710.0 72 3727.5 55.0Q3745.0 38 3781.0 29Q3794.0 26 3800.0 22.5Q3806.0 19 3806.0 11Q3806.0 4 3800.5 0.5Q3795.0 -3 3784.0 -3Q3761.0 -3 3737.0 -2.0Q3713.0 -1 3690.5 0.0Q3668.0 1 3647.0 1Q3626.0 1 3605.0 0.0Q3584.0 -1 3562.0 -2.5Q3540.0 -4 3518.0 -4ZM4463.0 -6Q4450.0 -6 4442.5 -2.0Q4435.0 2 4435.0 9Q4435.0 17 4443.5 21.5Q4452.0 26 4465.0 29Q4503.0 36 4520.0 56.0Q4537.0 76 4537.0 109V251Q4537.0 280 4527.0 303.5Q4517.0 327 4508.0 343L4383.0 540Q4375.0 553 4362.5 569.5Q4350.0 586 4335.0 600.0Q4320.0 614 4301.0 619Q4289.0 623 4281.5 627.5Q4274.0 632 4274.0 640Q4274.0 647 4281.0 650.5Q4288.0 654 4298.0 654Q4334.0 654 4369.5 651.5Q4405.0 649 4445.0 649Q4474.0 649 4500.5 651.5Q4527.0 654 4555.0 654Q4565.0 654 4574.0 650.5Q4583.0 647 4583.0 640Q4583.0 632 4574.0 627.0Q4565.0 622 4553.0 619Q4530.0 614 4518.5 607.0Q4507.0 600 4507.0 586Q4507.0 571 4519.0 551L4618.0 376Q4631.0 351 4640.0 351Q4645.0 351 4650.0 357.0Q4655.0 363 4663.0 376Q4687.0 415 4707.0 453.0Q4727.0 491 4750.0 536Q4756.0 548 4759.5 559.5Q4763.0 571 4763.0 580Q4763.0 600 4747.0 608.5Q4731.0 617 4714.0 619Q4704.0 620 4693.0 626.0Q4682.0 632 4682.0 640Q4682.0 647 4691.0 650.0Q4700.0 653 4711.0 653Q4738.0 653 4758.5 651.0Q4779.0 649 4804.0 649Q4832.0 649 4857.5 652.0Q4883.0 655 4907.0 655Q4919.0 655 4927.5 652.0Q4936.0 649 4936.0 641Q4936.0 632 4924.0 627.5Q4912.0 623 4898.0 619Q4870.0 611 4850.0 592.0Q4830.0 573 4811.0 543Q4794.0 515 4779.0 491.5Q4764.0 468 4750.5 446.5Q4737.0 425 4723.0 402.5Q4709.0 380 4693.0 353Q4683.0 336 4677.5 322.0Q4672.0 308 4669.0 293.0Q4666.0 278 4666.0 258V110Q4666.0 73 4683.0 55.5Q4700.0 38 4738.0 29Q4752.0 26 4760.5 22.0Q4769.0 18 4769.0 9Q4769.0 3 4761.5 -1.0Q4754.0 -5 4742.0 -5Q4718.0 -5 4694.0 -3.0Q4670.0 -1 4647.5 0.5Q4625.0 2 4603.0 2Q4581.0 2 4558.0 0.5Q4535.0 -1 4511.0 -3.5Q4487.0 -6 4463.0 -6Z" transform="matrix(0.022120 0 0 -0.022120 95.13 391.46)" fill="#15130f"/></svg>