<svg xmlns="http://www.w3.org/2000/svg" viewBox="0 0 300 446"><rect width="300" height="446" fill="#f4ecd8"/><rect x="20.0" y="25.5" width="260" height="395" rx="20.3" fill="#f4ecd8" stroke="#15130f" stroke-width="1.5"/><rect x="36.9" y="42.4" width="226.2" height="354.7" fill="none" stroke="#15130f" stroke-width="0.7"/><g fill="none" stroke="#15130f" stroke-width="0.65" stroke-opacity="0.72" stroke-linecap="round" stroke-linejoin="round"><line x1="36.9" y1="281.5" x2="263.1" y2="281.5"/></g><path d="M36.9,370.6 H263.1 V397.1 H36.9 Z" fill="#d7e8c4"/><g fill="none" stroke="#15130f" stroke-width="0.8"><line x1="36.9" y1="370.6" x2="263.1" y2="370.6"/><line x1="61.6" y1="370.6" x2="61.6" y2="397.1"/><line x1="238.4" y1="370.6" x2="238.4" y2="397.1"/></g><rect x="141.4" y="34.4" width="17.2" height="19.0" fill="#d7e8c4" stroke="#15130f" stroke-width="0.8"/><path d="M649.0 1092V235L647.0 193L657.0 137Q686.0 59 825.0 52Q867.0 50 867.0 28Q867.0 -7 780.0 -7Q761.0 -7 652.0 2Q595.0 7 494.0 7Q394.0 7 322.0 -2Q293.0 -5 280.0 -5Q255.0 -5 255.0 20Q255.0 41 281.0 45Q384.0 61 415.0 92.0Q446.0 123 446.0 210L445.0 248V1010Q445.0 1115 363.0 1115Q331.0 1115 306.0 1104L281.0 1093Q270.0 1089 261.0 1089Q235.0 1089 235.0 1113Q235.0 1137 260.0 1150.0Q285.0 1163 362.0 1180Q506.0 1211 567.0 1267L614.0 1310Q625.0 1320 641.0 1320Q661.0 1320 661.0 1282Q661.0 1271 659.0 1243L651.0 1153Q649.0 1126 649.0 1092ZM1569.0 1307Q1753.0 1307 1878.5 1138.5Q2004.0 970 2004.0 722Q2004.0 567 1951.0 407.5Q1898.0 248 1812.0 142Q1674.0 -27 1496.0 -27Q1308.0 -27 1187.5 146.0Q1067.0 319 1067.0 588Q1067.0 880 1216.0 1093.5Q1365.0 1307 1569.0 1307ZM1470.0 1205Q1366.0 1205 1305.5 1102.0Q1245.0 999 1245.0 824Q1245.0 522 1354.0 312.5Q1463.0 103 1620.0 103Q1723.0 103 1784.0 206.5Q1845.0 310 1845.0 485Q1845.0 644 1797.5 809.0Q1750.0 974 1675.0 1077Q1580.0 1205 1470.0 1205Z" transform="matrix(0.006024 0 0 -0.006024 143.26 48.57)" fill="#15130f"/><path d="M101.0 47Q181.0 63 244.0 113Q309.0 164 358.0 252Q477.0 463 477.0 701Q477.0 941 358.0 1151Q310.0 1237 245.0 1288Q180.0 1338 100.0 1353Q188.0 1394 291.0 1405Q333.0 1410 377.0 1410Q670.0 1410 848.5 1205.0Q1027.0 1000 1027.0 699Q1027.0 399 847.0 194.5Q667.0 -10 377.0 -10Q332.0 -10 290.0 -5Q188.0 7 101.0 47ZM498.0 1241Q677.0 1021 677.0 699Q677.0 378 497.0 159Q468.0 124 436.0 94Q607.0 118 708.0 286Q827.0 481 827.0 701Q827.0 923 708.0 1117Q607.0 1281 438.0 1306Q470.0 1276 498.0 1241Z" transform="matrix(0.009268 0 0 -0.009268 44.03 390.35)" fill="#15130f"/><path d="M1415.0 450Q1415.0 359 1443.0 274.5Q1471.0 190 1523.5 145.0Q1576.0 100 1632.0 100Q1689.0 100 1741.5 145.0Q1794.0 190 1822.0 274.5Q1850.0 359 1850.0 450Q1850.0 541 1822.0 625.5Q1794.0 710 1741.5 755.0Q1689.0 800 1632.0 800Q1576.0 800 1523.5 755.0Q1471.0 710 1443.0 625.5Q1415.0 541 1415.0 450ZM1395.0 824Q1409.0 834 1424.0 842Q1524.0 900 1632.0 900Q1741.0 900 1841.5 842.0Q1942.0 784 1996.0 675.5Q2050.0 567 2050.0 450Q2050.0 333 1996.0 224.5Q1942.0 116 1841.5 58.0Q1741.0 0 1632.0 0Q1524.0 0 1424.0 58Q1379.0 84 1343.0 120Q1297.0 25 1221.0 -55Q1027.0 -260 715.0 -260Q483.0 -260 289.0 -55Q278.0 -43 267.0 -31L292.0 4Q446.0 -160 715.0 -160Q952.0 -160 1083.5 35.5Q1215.0 231 1215.0 450Q1215.0 906 1106.0 1305Q927.0 1266 820.0 895Q700.0 479 700.0 0H500.0Q500.0 479 380.0 894.5Q260.0 1310 50.0 1310V1410Q343.0 1410 522.0 1003Q566.0 901 600.0 786Q634.0 901 679.0 1003Q857.0 1410 1150.0 1410H1255.0Q1359.0 1153 1395.0 824Z" transform="matrix(0.009139 0 0 -0.009139 241.15 389.12)" fill="#15130f"/><path d="M42.0 -4Q33.0 -4 26.0 -0.5Q19.0 3 19.0 9Q19.0 24 44.0 29Q82.0 37 98.0 51.0Q114.0 65 114.0 98V538Q114.0 576 101.5 594.0Q89.0 612 53.0 620Q39.0 623 33.0 628.5Q27.0 634 27.0 640Q27.0 647 33.5 650.5Q40.0 654 51.0 654Q75.0 654 95.5 653.5Q116.0 653 135.0 652.0Q154.0 651 174.0 651Q196.0 651 215.5 653.0Q235.0 655 255.5 657.0Q276.0 659 303.0 659Q422.0 659 493.0 609.0Q564.0 559 564.0 471Q564.0 409 538.5 356.5Q513.0 304 460.5 272.0Q408.0 240 328.0 240Q303.0 240 290.0 247.5Q277.0 255 277.0 264Q277.0 270 283.5 274.5Q290.0 279 295.0 279Q304.0 279 312.5 277.5Q321.0 276 338.0 276Q385.0 276 409.5 324.0Q434.0 372 434.0 452Q434.0 540 398.5 580.5Q363.0 621 303.0 621Q275.0 621 259.5 609.5Q244.0 598 244.0 573L243.0 104Q243.0 71 259.5 54.5Q276.0 38 316.0 29Q329.0 27 335.0 22.5Q341.0 18 341.0 10Q341.0 3 335.5 0.0Q330.0 -3 319.0 -3Q296.0 -3 272.0 -1.5Q248.0 0 225.5 1.0Q203.0 2 183.0 2Q161.0 2 137.5 1.0Q114.0 0 90.0 -2.0Q66.0 -4 42.0 -4ZM1231.0 -21Q1188.0 -21 1156.0 -11.5Q1124.0 -2 1101.0 16.0Q1078.0 34 1059.0 58Q1037.0 88 1016.0 116.5Q995.0 145 973.5 179.5Q952.0 214 926.0 262Q913.0 285 893.0 296Q880.0 303 866.5 306.0Q853.0 309 844.0 309Q838.0 310 835.0 304.0Q832.0 298 832.0 289V103Q832.0 72 848.5 55.0Q865.0 38 905.0 29Q918.0 27 924.0 22.5Q930.0 18 930.0 10Q930.0 3 924.5 0.0Q919.0 -3 908.0 -3Q885.0 -3 861.0 -1.5Q837.0 0 814.5 1.0Q792.0 2 772.0 2Q750.0 2 726.5 1.0Q703.0 0 679.0 -2.0Q655.0 -4 631.0 -4Q622.0 -4 615.0 -0.5Q608.0 3 608.0 9Q608.0 24 633.0 29Q671.0 37 687.0 51.0Q703.0 65 703.0 98V540Q703.0 569 698.5 584.5Q694.0 600 681.0 608.0Q668.0 616 642.0 620Q628.0 622 622.0 628.0Q616.0 634 616.0 640Q616.0 647 622.5 650.5Q629.0 654 640.0 654Q670.0 654 688.0 653.0Q706.0 652 722.5 650.5Q739.0 649 762.0 649Q784.0 649 801.0 651.0Q818.0 653 839.0 655.0Q860.0 657 893.0 657Q1008.0 657 1069.0 617.0Q1130.0 577 1130.0 495Q1130.0 450 1111.0 418.5Q1092.0 387 1063.5 367.0Q1035.0 347 1005.0 336Q1001.0 335 1001.5 331.0Q1002.0 327 1005.0 324Q1035.0 278 1063.5 236.5Q1092.0 195 1123.5 158.0Q1155.0 121 1192.0 87Q1223.0 58 1255.5 52.5Q1288.0 47 1323.0 47Q1338.0 47 1338.0 32Q1338.0 12 1323.0 0.5Q1308.0 -11 1283.5 -16.0Q1259.0 -21 1231.0 -21ZM875.0 338Q916.0 338 943.5 356.5Q971.0 375 985.5 406.0Q1000.0 437 1000.0 475Q1000.0 520 989.0 551.5Q978.0 583 951.5 600.5Q925.0 618 879.0 618Q853.0 618 843.5 599.5Q834.0 581 833.0 525Q832.0 502 832.0 464.5Q832.0 427 832.0 375Q832.0 353 843.5 345.5Q855.0 338 875.0 338ZM1357.0 -5Q1345.0 -5 1337.0 -1.5Q1329.0 2 1329.0 10Q1329.0 19 1336.5 24.0Q1344.0 29 1356.0 33Q1385.0 41 1406.5 57.5Q1428.0 74 1441.0 103Q1466.0 162 1489.0 216.5Q1512.0 271 1533.0 325.0Q1554.0 379 1575.5 435.0Q1597.0 491 1619.0 553Q1630.0 584 1634.0 601.0Q1638.0 618 1641.0 626Q1656.0 630 1669.0 634.0Q1682.0 638 1698.0 644Q1712.0 651 1722.0 662.0Q1732.0 673 1737.0 679Q1740.0 681 1743.0 681.5Q1746.0 682 1749.0 677Q1752.0 671 1754.0 665.0Q1756.0 659 1758.0 652Q1780.0 581 1803.5 508.5Q1827.0 436 1850.0 365.5Q1873.0 295 1894.5 230.5Q1916.0 166 1934.0 112Q1943.0 85 1956.5 69.0Q1970.0 53 1986.5 44.5Q2003.0 36 2023.0 31Q2036.0 28 2043.0 23.0Q2050.0 18 2050.0 9Q2050.0 3 2043.5 0.0Q2037.0 -3 2027.0 -3Q2009.0 -3 1981.5 -2.0Q1954.0 -1 1925.0 0.5Q1896.0 2 1873.0 2Q1853.0 2 1828.5 1.0Q1804.0 0 1779.5 -1.0Q1755.0 -2 1738.0 -2Q1728.0 -2 1720.5 1.5Q1713.0 5 1713.0 12Q1713.0 20 1721.0 25.5Q1729.0 31 1740.0 33Q1776.0 39 1792.0 51.5Q1808.0 64 1804.0 88Q1801.0 105 1795.0 128.5Q1789.0 152 1782.5 177.5Q1776.0 203 1769.0 224Q1767.0 232 1763.0 235.5Q1759.0 239 1748.0 239H1568.0Q1561.0 239 1557.0 234.5Q1553.0 230 1551.0 221Q1547.0 208 1541.5 191.5Q1536.0 175 1530.5 157.5Q1525.0 140 1520.5 125.0Q1516.0 110 1514.0 99Q1509.0 72 1523.5 56.5Q1538.0 41 1574.0 32Q1601.0 25 1601.0 11Q1601.0 5 1594.5 1.5Q1588.0 -2 1576.0 -2Q1553.0 -2 1528.0 -0.5Q1503.0 1 1473.0 1Q1443.0 1 1414.5 -2.0Q1386.0 -5 1357.0 -5ZM1595.0 285H1734.0Q1748.0 285 1748.0 291Q1748.0 294 1747.5 296.0Q1747.0 298 1746.0 302L1676.0 533Q1672.0 547 1669.0 547Q1667.0 547 1662.0 534L1578.0 302Q1576.0 297 1576.0 294Q1576.0 289 1581.5 287.0Q1587.0 285 1595.0 285ZM2449.0 -14Q2374.0 -14 2307.0 9.5Q2240.0 33 2188.5 77.0Q2137.0 121 2107.5 182.5Q2078.0 244 2078.0 319Q2078.0 389 2107.0 451.0Q2136.0 513 2189.0 561.0Q2242.0 609 2315.5 636.5Q2389.0 664 2477.0 664Q2511.0 664 2541.5 659.5Q2572.0 655 2601.0 648.5Q2630.0 642 2658.0 632Q2669.0 628 2675.5 621.0Q2682.0 614 2683.0 602Q2687.0 572 2689.0 542.5Q2691.0 513 2691.0 484Q2692.0 474 2684.0 469.5Q2676.0 465 2667.0 468.5Q2658.0 472 2654.0 483Q2646.0 511 2635.5 535.5Q2625.0 560 2604.0 577Q2581.0 596 2546.0 607.5Q2511.0 619 2464.0 619Q2410.0 619 2366.0 597.0Q2322.0 575 2290.5 536.0Q2259.0 497 2242.0 448.0Q2225.0 399 2225.0 345Q2225.0 281 2240.5 224.0Q2256.0 167 2287.5 123.5Q2319.0 80 2364.0 55.5Q2409.0 31 2467.0 31Q2541.0 31 2587.0 63.0Q2633.0 95 2665.0 158Q2673.0 174 2687.0 173.5Q2701.0 173 2701.0 157Q2701.0 145 2698.0 127.0Q2695.0 109 2689.5 88.5Q2684.0 68 2677.0 48Q2673.0 36 2667.0 30.0Q2661.0 24 2649.0 19Q2611.0 3 2559.5 -5.5Q2508.0 -14 2449.0 -14ZM2962.0 -4Q2952.0 -4 2944.5 -0.5Q2937.0 3 2937.0 9Q2937.0 17 2944.0 22.0Q2951.0 27 2964.0 29Q3002.0 37 3020.0 51.5Q3038.0 66 3038.0 99V504Q3038.0 545 3036.0 566.0Q3034.0 587 3030.5 594.5Q3027.0 602 3020.0 603Q3010.0 607 2995.0 608.0Q2980.0 609 2966.0 609H2935.0Q2906.0 609 2879.0 595.5Q2852.0 582 2837.0 559Q2833.0 553 2824.5 542.0Q2816.0 531 2806.5 522.0Q2797.0 513 2787.0 513Q2780.0 513 2777.5 518.0Q2775.0 523 2775.0 529Q2775.0 541 2781.0 553Q2798.0 587 2806.5 612.5Q2815.0 638 2818.0 673Q2820.0 688 2826.5 692.5Q2833.0 697 2840.0 697Q2846.0 697 2854.5 684.5Q2863.0 672 2870.0 664Q2879.0 655 2902.0 650.5Q2925.0 646 2941.0 646L3310.0 647Q3338.0 647 3357.0 651.5Q3376.0 656 3387.0 661Q3402.0 670 3411.0 679.5Q3420.0 689 3432.0 689Q3437.0 689 3439.5 683.5Q3442.0 678 3442.0 670Q3442.0 665 3441.0 658.5Q3440.0 652 3439.0 647Q3435.0 628 3431.0 613.5Q3427.0 599 3424.5 586.5Q3422.0 574 3422.0 558V541Q3422.0 527 3418.0 517.0Q3414.0 507 3405.0 507Q3397.0 507 3391.5 516.5Q3386.0 526 3380.0 546Q3371.0 578 3350.0 593.5Q3329.0 609 3284.0 609H3216.0Q3197.0 609 3186.5 602.0Q3176.0 595 3171.5 571.5Q3167.0 548 3167.0 499V100Q3167.0 68 3185.0 53.5Q3203.0 39 3242.0 29Q3254.0 26 3261.0 22.0Q3268.0 18 3268.0 10Q3268.0 3 3261.5 0.0Q3255.0 -3 3245.0 -3Q3221.0 -3 3197.0 -2.0Q3173.0 -1 3149.5 0.0Q3126.0 1 3104.0 1Q3082.0 1 3058.5 0.0Q3035.0 -1 3010.5 -2.5Q2986.0 -4 2962.0 -4ZM3480.0 -4Q3471.0 -4 3464.0 -0.5Q3457.0 3 3457.0 9Q3457.0 24 3482.0 29Q3520.0 37 3537.0 51.0Q3554.0 65 3554.0 97V551Q3554.0 584 3540.0 598.0Q3526.0 612 3487.0 620Q3462.0 625 3462.0 641Q3462.0 647 3469.0 650.5Q3476.0 654 3485.0 654Q3509.0 654 3532.0 653.0Q3555.0 652 3576.5 651.0Q3598.0 650 3620.0 650Q3641.0 650 3662.5 651.0Q3684.0 652 3707.0 653.0Q3730.0 654 3754.0 654Q3764.0 654 3770.0 650.5Q3776.0 647 3776.0 640Q3776.0 632 3769.5 627.5Q3763.0 623 3751.0 620Q3711.0 610 3697.0 596.0Q3683.0 582 3683.0 550V98Q3683.0 67 3699.5 53.0Q3716.0 39 3754.0 29Q3767.0 26 3773.5 22.0Q3780.0 18 3780.0 10Q3780.0 3 3774.0 0.0Q3768.0 -3 3758.0 -3Q3734.0 -3 3710.0 -2.0Q3686.0 -1 3663.5 0.0Q3641.0 1 3620.0 1Q3598.0 1 3575.0 0.0Q3552.0 -1 3528.0 -2.5Q3504.0 -4 3480.0 -4ZM4201.0 -14Q4126.0 -14 4059.0 9.5Q3992.0 33 3940.5 77.0Q3889.0 121 3859.5 182.5Q3830.0 244 3830.0 319Q3830.0 389 3859.0 451.0Q3888.0 513 3941.0 561.0Q3994.0 609 4067.5 636.5Q4141.0 664 4229.0 664Q4263.0 664 4293.5 659.5Q4324.0 655 4353.0 648.5Q4382.0 642 4410.0 632Q4421.0 628 4427.5 621.0Q4434.0 614 4435.0 602Q4439.0 572 4441.0 542.5Q4443.0 513 4443.0 484Q4444.0 474 4436.0 469.5Q4428.0 465 4419.0 468.5Q4410.0 472 4406.0 483Q4398.0 511 4387.5 535.5Q4377.0 560 4356.0 577Q4333.0 596 4298.0 607.5Q4263.0 619 4216.0 619Q4162.0 619 4118.0 597.0Q4074.0 575 4042.5 536.0Q4011.0 497 3994.0 448.0Q3977.0 399 3977.0 345Q3977.0 281 3992.5 224.0Q4008.0 167 4039.5 123.5Q4071.0 80 4116.0 55.5Q4161.0 31 4219.0 31Q4293.0 31 4339.0 63.0Q4385.0 95 4417.0 158Q4425.0 174 4439.0 173.5Q4453.0 173 4453.0 157Q4453.0 145 4450.0 127.0Q4447.0 109 4441.5 88.5Q4436.0 68 4429.0 48Q4425.0 36 4419.0 30.0Q4413.0 24 4401.0 19Q4363.0 3 4311.5 -5.5Q4260.0 -14 4201.0 -14ZM4529.0 -5Q4517.0 -5 4509.0 -1.5Q4501.0 2 4501.0 10Q4501.0 19 4508.5 24.0Q4516.0 29 4528.0 33Q4557.0 41 4578.5 57.5Q4600.0 74 4613.0 103Q4638.0 162 4661.0 216.5Q4684.0 271 4705.0 325.0Q4726.0 379 4747.5 435.0Q4769.0 491 4791.0 553Q4802.0 584 4806.0 601.0Q4810.0 618 4813.0 626Q4828.0 630 4841.0 634.0Q4854.0 638 4870.0 644Q4884.0 651 4894.0 662.0Q4904.0 673 4909.0 679Q4912.0 681 4915.0 681.5Q4918.0 682 4921.0 677Q4924.0 671 4926.0 665.0Q4928.0 659 4930.0 652Q4952.0 581 4975.5 508.5Q4999.0 436 5022.0 365.5Q5045.0 295 5066.5 230.5Q5088.0 166 5106.0 112Q5115.0 85 5128.5 69.0Q5142.0 53 5158.5 44.5Q5175.0 36 5195.0 31Q5208.0 28 5215.0 23.0Q5222.0 18 5222.0 9Q5222.0 3 5215.5 0.0Q5209.0 -3 5199.0 -3Q5181.0 -3 5153.5 -2.0Q5126.0 -1 5097.0 0.5Q5068.0 2 5045.0 2Q5025.0 2 5000.5 1.0Q4976.0 0 4951.5 -1.0Q4927.0 -2 4910.0 -2Q4900.0 -2 4892.5 1.5Q4885.0 5 4885.0 12Q4885.0 20 4893.0 25.5Q4901.0 31 4912.0 33Q4948.0 39 4964.0 51.5Q4980.0 64 4976.0 88Q4973.0 105 4967.0 128.5Q4961.0 152 4954.5 177.5Q4948.0 203 4941.0 224Q4939.0 232 4935.0 235.5Q4931.0 239 4920.0 239H4740.0Q4733.0 239 4729.0 234.5Q4725.0 230 4723.0 221Q4719.0 208 4713.5 191.5Q4708.0 175 4702.5 157.5Q4697.0 140 4692.5 125.0Q4688.0 110 4686.0 99Q4681.0 72 4695.5 56.5Q4710.0 41 4746.0 32Q4773.0 25 4773.0 11Q4773.0 5 4766.5 1.5Q4760.0 -2 4748.0 -2Q4725.0 -2 4700.0 -0.5Q4675.0 1 4645.0 1Q4615.0 1 4586.5 -2.0Q4558.0 -5 4529.0 -5ZM4767.0 285H4906.0Q4920.0 285 4920.0 291Q4920.0 294 4919.5 296.0Q4919.0 298 4918.0 302L4848.0 533Q4844.0 547 4841.0 547Q4839.0 547 4834.0 534L4750.0 302Q4748.0 297 4748.0 294Q4748.0 289 4753.5 287.0Q4759.0 285 4767.0 285ZM5262.0 -5Q5251.0 -5 5245.0 -0.5Q5239.0 4 5239.0 9Q5239.0 17 5246.0 21.5Q5253.0 26 5260.0 28Q5296.0 37 5313.0 50.5Q5330.0 64 5330.0 95V555Q5330.0 578 5324.5 590.0Q5319.0 602 5305.5 608.5Q5292.0 615 5266.0 620Q5240.0 625 5240.0 641Q5240.0 647 5247.0 650.5Q5254.0 654 5263.0 654Q5288.0 654 5310.5 653.0Q5333.0 652 5354.0 651.0Q5375.0 650 5396.0 650Q5419.0 650 5442.5 651.0Q5466.0 652 5490.5 653.0Q5515.0 654 5538.0 654Q5548.0 654 5554.0 650.5Q5560.0 647 5560.0 640Q5560.0 632 5553.5 627.5Q5547.0 623 5535.0 620Q5496.0 610 5477.5 598.5Q5459.0 587 5459.0 558V101Q5459.0 72 5472.0 58.5Q5485.0 45 5521.0 45H5630.0Q5653.0 45 5672.0 53.0Q5691.0 61 5703.0 73Q5721.0 89 5733.0 107.0Q5745.0 125 5756.0 149Q5763.0 164 5769.0 172.0Q5775.0 180 5781.0 180Q5788.0 180 5791.0 173.5Q5794.0 167 5794.0 160Q5794.0 159 5793.0 154.0Q5792.0 149 5792.0 146Q5784.0 117 5778.5 96.0Q5773.0 75 5769.5 55.5Q5766.0 36 5763.0 13Q5762.0 6 5759.0 0.5Q5756.0 -5 5747.0 -5Q5717.0 -5 5675.0 -4.0Q5633.0 -3 5586.0 -2.5Q5539.0 -2 5491.5 -1.0Q5444.0 0 5402.0 0Q5380.0 0 5351.5 -1.0Q5323.0 -2 5298.0 -3.5Q5273.0 -5 5262.0 -5ZM5841.0 -4Q5832.0 -4 5825.0 -0.5Q5818.0 3 5818.0 9Q5818.0 24 5843.0 29Q5881.0 37 5898.0 51.0Q5915.0 65 5915.0 97V551Q5915.0 584 5901.0 598.0Q5887.0 612 5848.0 620Q5823.0 625 5823.0 641Q5823.0 647 5830.0 650.5Q5837.0 654 5846.0 654Q5870.0 654 5893.0 653.0Q5916.0 652 5937.5 651.0Q5959.0 650 5981.0 650Q6002.0 650 6023.5 651.0Q6045.0 652 6068.0 653.0Q6091.0 654 6115.0 654Q6125.0 654 6131.0 650.5Q6137.0 647 6137.0 640Q6137.0 632 6130.5 627.5Q6124.0 623 6112.0 620Q6072.0 610 6058.0 596.0Q6044.0 582 6044.0 550V98Q6044.0 67 6060.5 53.0Q6077.0 39 6115.0 29Q6128.0 26 6134.5 22.0Q6141.0 18 6141.0 10Q6141.0 3 6135.0 0.0Q6129.0 -3 6119.0 -3Q6095.0 -3 6071.0 -2.0Q6047.0 -1 6024.5 0.0Q6002.0 1 5981.0 1Q5959.0 1 5936.0 0.0Q5913.0 -1 5889.0 -2.5Q5865.0 -4 5841.0 -4ZM6366.0 -4Q6356.0 -4 6348.5 -0.5Q6341.0 3 6341.0 9Q6341.0 17 6348.0 22.0Q6355.0 27 6368.0 29Q6406.0 37 6424.0 51.5Q6442.0 66 6442.0 99V504Q6442.0 545 6440.0 566.0Q6438.0 587 6434.5 594.5Q6431.0 602 6424.0 603Q6414.0 607 6399.0 608.0Q6384.0 609 6370.0 609H6339.0Q6310.0 609 6283.0 595.5Q6256.0 582 6241.0 559Q6237.0 553 6228.5 542.0Q6220.0 531 6210.5 522.0Q6201.0 513 6191.0 513Q6184.0 513 6181.5 518.0Q6179.0 523 6179.0 529Q6179.0 541 6185.0 553Q6202.0 587 6210.5 612.5Q6219.0 638 6222.0 673Q6224.0 688 6230.5 692.5Q6237.0 697 6244.0 697Q6250.0 697 6258.5 684.5Q6267.0 672 6274.0 664Q6283.0 655 6306.0 650.5Q6329.0 646 6345.0 646L6714.0 647Q6742.0 647 6761.0 651.5Q6780.0 656 6791.0 661Q6806.0 670 6815.0 679.5Q6824.0 689 6836.0 689Q6841.0 689 6843.5 683.5Q6846.0 678 6846.0 670Q6846.0 665 6845.0 658.5Q6844.0 652 6843.0 647Q6839.0 628 6835.0 613.5Q6831.0 599 6828.5 586.5Q6826.0 574 6826.0 558V541Q6826.0 527 6822.0 517.0Q6818.0 507 6809.0 507Q6801.0 507 6795.5 516.5Q6790.0 526 6784.0 546Q6775.0 578 6754.0 593.5Q6733.0 609 6688.0 609H6620.0Q6601.0 609 6590.5 602.0Q6580.0 595 6575.5 571.5Q6571.0 548 6571.0 499V100Q6571.0 68 6589.0 53.5Q6607.0 39 6646.0 29Q6658.0 26 6665.0 22.0Q6672.0 18 6672.0 10Q6672.0 3 6665.5 0.0Q6659.0 -3 6649.0 -3Q6625.0 -3 6601.0 -2.0Q6577.0 -1 6553.5 0.0Q6530.0 1 6508.0 1Q6486.0 1 6462.5 0.0Q6439.0 -1 6414.5 -2.5Q6390.0 -4 6366.0 -4ZM7033.0 -6Q7020.0 -6 7012.5 -2.0Q7005.0 2 7005.0 9Q7005.0 17 7013.5 21.5Q7022.0 26 7035.0 29Q7073.0 36 7090.0 56.0Q7107.0 76 7107.0 109V251Q7107.0 280 7097.0 303.5Q7087.0 327 7078.0 343L6953.0 540Q6945.0 553 6932.5 569.5Q6920.0 586 6905.0 600.0Q6890.0 614 6871.0 619Q6859.0 623 6851.5 627.5Q6844.0 632 6844.0 640Q6844.0 647 6851.0 650.5Q6858.0 654 6868.0 654Q6904.0 654 6939.5 651.5Q6975.0 649 7015.0 649Q7044.0 649 7070.5 651.5Q7097.0 654 7125.0 654Q7135.0 654 7144.0 650.5Q7153.0 647 7153.0 640Q7153.0 632 7144.0 627.0Q7135.0 622 7123.0 619Q7100.0 614 7088.5 607.0Q7077.0 600 7077.0 586Q7077.0 571 7089.0 551L7188.0 376Q7201.0 351 7210.0 351Q7215.0 351 7220.0 357.0Q7225.0 363 7233.0 376Q7257.0 415 7277.0 453.0Q7297.0 491 7320.0 536Q7326.0 548 7329.5 559.5Q7333.0 571 7333.0 580Q7333.0 600 7317.0 608.5Q7301.0 617 7284.0 619Q7274.0 620 7263.0 626.0Q7252.0 632 7252.0 640Q7252.0 647 7261.0 650.0Q7270.0 653 7281.0 653Q7308.0 653 7328.5 651.0Q7349.0 649 7374.0 649Q7402.0 649 7427.5 652.0Q7453.0 655 7477.0 655Q7489.0 655 7497.5 652.0Q7506.0 649 7506.0 641Q7506.0 632 7494.0 627.5Q7482.0 623 7468.0 619Q7440.0 611 7420.0 592.0Q7400.0 573 7381.0 543Q7364.0 515 7349.0 491.5Q7334.0 468 7320.5 446.5Q7307.0 425 7293.0 402.5Q7279.0 380 7263.0 353Q7253.0 336 7247.5 322.0Q7242.0 308 7239.0 293.0Q7236.0 278 7236.0 258V110Q7236.0 73 7253.0 55.5Q7270.0 38 7308.0 29Q7322.0 26 7330.5 22.0Q7339.0 18 7339.0 9Q7339.0 3 7331.5 -1.0Q7324.0 -5 7312.0 -5Q7288.0 -5 7264.0 -3.0Q7240.0 -1 7217.5 0.5Q7195.0 2 7173.0 2Q7151.0 2 7128.0 0.5Q7105.0 -1 7081.0 -3.5Q7057.0 -6 7033.0 -6Z" transform="matrix(0.020120 0 0 -0.020120 74.30 390.67)" fill="#15130f"/></svg>