<svg xmlns="http://www.w3.org/2000/svg" viewBox="0 0 300 446"><rect width="300" height="446" fill="#f4ecd8"/><rect x="20.0" y="25.5" width="260" height="395" rx="20.3" fill="#f4ecd8" stroke="#15130f" stroke-width="1.5"/><rect x="36.9" y="42.4" width="226.2" height="354.7" fill="none" stroke="#15130f" stroke-width="0.7"/><g fill="none" stroke="#15130f" stroke-width="0.65" stroke-opacity="0.72" stroke-linecap="round" stroke-linejoin="round"><line x1="36.9" y1="281.5" x2="263.1" y2="281.5"/></g><path d="M36.9,370.6 H263.1 V397.1 H36.9 Z" fill="#d7e8c4"/><g fill="none" stroke="#15130f" stroke-width="0.8"><line x1="36.9" y1="370.6" x2="263.1" y2="370.6"/><line x1="61.6" y1="370.6" x2="61.6" y2="397.1"/><line x1="238.4" y1="370.6" x2="238.4" y2="397.1"/></g><rect x="141.4" y="34.4" width="17.2" height="19.0" fill="#d7e8c4" stroke="#15130f" stroke-width="0.8"/><path d="M541.0 1306Q697.0 1306 797.5 1224.5Q898.0 1143 898.0 1016Q898.0 934 849.0 869.0Q800.0 804 718.0 776Q668.0 759 667.0 750Q666.0 740 723.0 716Q957.0 617 957.0 376Q957.0 194 834.0 83.5Q711.0 -27 509.0 -27Q311.0 -27 189.5 75.0Q68.0 177 68.0 343Q68.0 527 267.0 635Q285.0 645 286.0 651Q287.0 657 266.0 673Q124.0 777 124.0 943Q124.0 1101 241.5 1203.5Q359.0 1306 541.0 1306ZM510.0 1245Q405.0 1245 336.5 1188.0Q268.0 1131 268.0 1044Q268.0 947 375.0 873Q495.0 790 602.0 790Q672.0 790 719.5 848.0Q767.0 906 767.0 991Q767.0 1097 692.5 1171.0Q618.0 1245 510.0 1245ZM354.0 615Q340.0 616 312.5 598.0Q285.0 580 269.0 560Q216.0 496 216.0 388Q216.0 235 306.0 135.5Q396.0 36 535.0 36Q653.0 36 728.5 100.0Q804.0 164 804.0 265Q804.0 441 612.0 513L510.0 552Q474.0 565 396.0 600Q363.0 614 354.0 615Z" transform="matrix(0.006858 0 0 -0.006858 146.49 49.06)" fill="#15130f"/><path d="M101.0 47Q181.0 63 244.0 113Q309.0 164 358.0 252Q477.0 463 477.0 701Q477.0 941 358.0 1151Q310.0 1237 245.0 1288Q180.0 1338 100.0 1353Q188.0 1394 291.0 1405Q333.0 1410 377.0 1410Q670.0 1410 848.5 1205.0Q1027.0 1000 1027.0 699Q1027.0 399 847.0 194.5Q667.0 -10 377.0 -10Q332.0 -10 290.0 -5Q188.0 7 101.0 47ZM498.0 1241Q677.0 1021 677.0 699Q677.0 378 497.0 159Q468.0 124 436.0 94Q607.0 118 708.0 286Q827.0 481 827.0 701Q827.0 923 708.0 1117Q607.0 1281 438.0 1306Q470.0 1276 498.0 1241Z" transform="matrix(0.009268 0 0 -0.009268 44.03 390.35)" fill="#15130f"/><path d="M1250.0 0V1067Q1250.0 1212 1241.5 1255.5Q1233.0 1299 1212.5 1317.5Q1192.0 1336 1168.0 1336L938.0 1106Q950.0 1037 950.0 952V0H750.0V1067Q750.0 1212 741.5 1255.5Q733.0 1299 712.5 1317.5Q692.0 1336 668.0 1336L438.0 1106Q450.0 1037 450.0 952V0H50.0V40H100.0Q170.0 40 210.0 95.0Q250.0 150 250.0 200V1067Q250.0 1212 241.5 1255.5Q233.0 1299 212.5 1317.5Q192.0 1336 168.0 1336V1410Q284.0 1392 358.0 1301Q387.0 1264 408.0 1216L602.0 1410H668.0Q784.0 1392 858.0 1301Q887.0 1264 908.0 1216L1102.0 1410H1168.0Q1284.0 1392 1358.0 1301Q1450.0 1187 1450.0 952V0Q1450.0 -91 1478.0 -175.5Q1506.0 -260 1558.5 -305.0Q1611.0 -350 1667.0 -350H1867.0Q1742.0 -225 1617.0 0H1667.0Q1967.0 -300 2267.0 -400Q1967.0 -500 1667.0 -800H1617.0Q1742.0 -575 1867.0 -450H1667.0Q1559.0 -450 1458.5 -392.0Q1358.0 -334 1304.0 -225.5Q1250.0 -117 1250.0 0Z" transform="matrix(0.008244 0 0 -0.008244 241.20 386.38)" fill="#15130f"/><path d="M42.0 -4Q33.0 -4 26.0 -0.5Q19.0 3 19.0 9Q19.0 24 44.0 29Q82.0 37 98.0 51.0Q114.0 65 114.0 98V538Q114.0 576 101.5 594.0Q89.0 612 53.0 620Q39.0 623 33.0 628.5Q27.0 634 27.0 640Q27.0 647 33.5 650.5Q40.0 654 51.0 654Q75.0 654 95.5 653.5Q116.0 653 135.0 652.0Q154.0 651 174.0 651Q196.0 651 215.5 653.0Q235.0 655 255.5 657.0Q276.0 659 303.0 659Q422.0 659 493.0 609.0Q564.0 559 564.0 471Q564.0 409 538.5 356.5Q513.0 304 460.5 272.0Q408.0 240 328.0 240Q303.0 240 290.0 247.5Q277.0 255 277.0 264Q277.0 270 283.5 274.5Q290.0 279 295.0 279Q304.0 279 312.5 277.5Q321.0 276 338.0 276Q385.0 276 409.5 324.0Q434.0 372 434.0 452Q434.0 540 398.5 580.5Q363.0 621 303.0 621Q275.0 621 259.5 609.5Q244.0 598 244.0 573L243.0 104Q243.0 71 259.5 54.5Q276.0 38 316.0 29Q329.0 27 335.0 22.5Q341.0 18 341.0 10Q341.0 3 335.5 0.0Q330.0 -3 319.0 -3Q296.0 -3 272.0 -1.5Q248.0 0 225.5 1.0Q203.0 2 183.0 2Q161.0 2 137.5 1.0Q114.0 0 90.0 -2.0Q66.0 -4 42.0 -4ZM965.0 -14Q897.0 -14 835.0 9.5Q773.0 33 725.5 76.5Q678.0 120 650.5 180.5Q623.0 241 623.0 315Q623.0 383 645.5 445.5Q668.0 508 712.5 557.0Q757.0 606 822.5 635.0Q888.0 664 974.0 664Q1042.0 664 1103.5 640.5Q1165.0 617 1213.0 573.5Q1261.0 530 1288.5 469.5Q1316.0 409 1316.0 335Q1316.0 268 1293.5 205.0Q1271.0 142 1226.5 93.0Q1182.0 44 1116.5 15.0Q1051.0 -14 965.0 -14ZM982.0 30Q1045.0 30 1087.5 62.0Q1130.0 94 1151.5 151.5Q1173.0 209 1173.0 284Q1173.0 348 1160.0 408.0Q1147.0 468 1120.0 515.5Q1093.0 563 1052.5 591.0Q1012.0 619 956.0 619Q893.0 619 850.5 587.0Q808.0 555 787.0 498.0Q766.0 441 766.0 366Q766.0 302 779.0 242.0Q792.0 182 818.5 134.0Q845.0 86 885.5 58.0Q926.0 30 982.0 30ZM1709.0 -17Q1702.0 -17 1698.0 -8.5Q1694.0 0 1690.0 10L1450.0 554Q1439.0 578 1423.5 594.5Q1408.0 611 1380.0 619Q1368.0 623 1359.0 627.5Q1350.0 632 1350.0 640Q1350.0 647 1358.5 650.5Q1367.0 654 1377.0 654Q1405.0 654 1436.5 652.0Q1468.0 650 1495.0 650Q1525.0 650 1554.0 652.0Q1583.0 654 1608.0 654Q1621.0 654 1629.5 650.5Q1638.0 647 1638.0 640Q1638.0 632 1629.5 627.5Q1621.0 623 1605.0 619Q1591.0 616 1587.5 607.5Q1584.0 599 1584.0 588Q1584.0 579 1587.0 568.0Q1590.0 557 1590.0 554Q1611.0 503 1630.5 457.0Q1650.0 411 1669.0 366.0Q1688.0 321 1708.0 275.0Q1728.0 229 1749.0 178Q1754.0 167 1757.5 167.0Q1761.0 167 1765.0 177L1828.0 310Q1831.0 317 1832.5 322.0Q1834.0 327 1834.0 331Q1834.0 336 1832.5 341.0Q1831.0 346 1828.0 353L1740.0 547Q1729.0 574 1706.5 592.5Q1684.0 611 1656.0 619Q1644.0 623 1636.5 627.5Q1629.0 632 1629.0 640Q1629.0 647 1636.0 650.5Q1643.0 654 1652.0 654Q1671.0 654 1693.0 653.0Q1715.0 652 1737.5 651.0Q1760.0 650 1778.0 650Q1805.0 650 1832.0 651.5Q1859.0 653 1884.0 653Q1898.0 653 1906.5 650.0Q1915.0 647 1915.0 640Q1915.0 634 1909.0 629.5Q1903.0 625 1893.5 620.5Q1884.0 616 1878.0 609Q1866.0 606 1864.5 598.5Q1863.0 591 1866.0 583Q1869.0 575 1875.0 559.0Q1881.0 543 1888.0 524.5Q1895.0 506 1902.0 489.0Q1909.0 472 1913.0 463Q1919.0 450 1922.5 451.5Q1926.0 453 1931.0 463Q1938.0 478 1946.5 501.0Q1955.0 524 1962.5 545.5Q1970.0 567 1974.0 577Q1977.0 584 1977.0 592Q1977.0 606 1966.0 612.5Q1955.0 619 1943.5 624.5Q1932.0 630 1932.0 639Q1932.0 646 1937.0 649.5Q1942.0 653 1957.0 653Q1982.0 653 1990.5 651.5Q1999.0 650 2013.0 650Q2029.0 651 2043.0 652.5Q2057.0 654 2082.0 654Q2094.0 654 2102.5 651.0Q2111.0 648 2111.0 640Q2111.0 631 2103.0 627.0Q2095.0 623 2082.0 620Q2051.0 612 2038.0 598.0Q2025.0 584 2013.0 562Q2004.0 546 1993.0 523.0Q1982.0 500 1970.5 475.0Q1959.0 450 1950.0 428Q1945.0 418 1944.5 405.5Q1944.0 393 1949.0 382L2034.0 176Q2037.0 168 2040.5 170.5Q2044.0 173 2046.0 179Q2079.0 258 2114.5 354.0Q2150.0 450 2181.0 540Q2188.0 559 2189.5 568.5Q2191.0 578 2191.0 585Q2190.0 597 2183.5 606.0Q2177.0 615 2162.0 619Q2152.0 621 2141.0 626.5Q2130.0 632 2130.0 640Q2130.0 647 2139.0 650.0Q2148.0 653 2159.0 653Q2186.0 653 2200.0 651.5Q2214.0 650 2230.0 651Q2249.0 651 2268.0 653.0Q2287.0 655 2312.0 655Q2326.0 655 2335.0 652.0Q2344.0 649 2344.0 641Q2344.0 632 2334.5 628.0Q2325.0 624 2312.0 621Q2291.0 616 2276.0 603.5Q2261.0 591 2251.5 576.0Q2242.0 561 2236.0 545L2022.0 7Q2019.0 -1 2014.0 -7.5Q2009.0 -14 2003.0 -14Q1996.0 -14 1990.5 -8.5Q1985.0 -3 1981.0 5Q1965.0 42 1948.0 79.5Q1931.0 117 1911.5 164.0Q1892.0 211 1865.0 271Q1862.0 278 1858.5 277.0Q1855.0 276 1852.0 268Q1831.0 223 1811.0 181.5Q1791.0 140 1771.5 98.0Q1752.0 56 1731.0 10Q1727.0 0 1721.5 -8.5Q1716.0 -17 1709.0 -17ZM2385.0 -5Q2374.0 -5 2367.5 -1.0Q2361.0 3 2361.0 9Q2361.0 22 2387.0 28Q2423.0 37 2438.5 50.5Q2454.0 64 2454.0 97V550Q2454.0 584 2440.5 598.0Q2427.0 612 2390.0 620Q2376.0 623 2370.0 628.5Q2364.0 634 2364.0 640Q2364.0 647 2370.5 650.5Q2377.0 654 2388.0 654Q2417.0 654 2443.5 653.0Q2470.0 652 2495.0 651.0Q2520.0 650 2547.0 650Q2593.0 650 2644.5 651.0Q2696.0 652 2737.0 652Q2770.0 653 2791.5 655.0Q2813.0 657 2817.0 657Q2824.0 657 2831.5 654.0Q2839.0 651 2840.0 642Q2844.0 609 2850.0 577.0Q2856.0 545 2856.0 521Q2856.0 512 2851.5 507.5Q2847.0 503 2842.0 503Q2837.0 503 2833.0 506.5Q2829.0 510 2826.0 517Q2818.0 540 2811.0 557.0Q2804.0 574 2795.0 583Q2782.0 597 2765.0 605.0Q2748.0 613 2724.0 613H2631.0Q2613.0 613 2598.0 602.5Q2583.0 592 2583.0 573V377Q2583.0 366 2589.5 360.0Q2596.0 354 2605.0 354H2697.0Q2724.0 354 2735.5 369.0Q2747.0 384 2755.0 410Q2762.0 430 2774.0 430Q2779.0 430 2783.0 424.5Q2787.0 419 2787.0 410Q2786.0 400 2785.0 386.0Q2784.0 372 2783.5 358.0Q2783.0 344 2783.0 333Q2783.0 321 2783.5 306.0Q2784.0 291 2784.5 276.5Q2785.0 262 2786.0 252Q2787.0 241 2784.5 235.0Q2782.0 229 2776.0 229Q2760.0 229 2753.0 257Q2745.0 285 2734.0 299.0Q2723.0 313 2704.0 313H2610.0Q2597.0 313 2590.0 308.0Q2583.0 303 2583.0 289V99Q2583.0 66 2597.0 53.0Q2611.0 40 2640.0 40H2722.0Q2747.0 40 2767.5 45.0Q2788.0 50 2803.0 61Q2820.0 73 2833.5 93.5Q2847.0 114 2860.0 139Q2864.0 147 2868.0 149.5Q2872.0 152 2878.0 152Q2883.0 151 2885.5 146.0Q2888.0 141 2888.0 135Q2888.0 121 2883.0 99.0Q2878.0 77 2870.5 53.5Q2863.0 30 2857.0 10Q2854.0 3 2849.0 -0.5Q2844.0 -4 2837.0 -4Q2813.0 -4 2775.5 -3.5Q2738.0 -3 2694.0 -2.0Q2650.0 -1 2604.0 -0.5Q2558.0 0 2516.0 0Q2495.0 0 2473.5 -1.0Q2452.0 -2 2430.0 -3.5Q2408.0 -5 2385.0 -5ZM3549.0 -21Q3506.0 -21 3474.0 -11.5Q3442.0 -2 3419.0 16.0Q3396.0 34 3377.0 58Q3355.0 88 3334.0 116.5Q3313.0 145 3291.5 179.5Q3270.0 214 3244.0 262Q3231.0 285 3211.0 296Q3198.0 303 3184.5 306.0Q3171.0 309 3162.0 309Q3156.0 310 3153.0 304.0Q3150.0 298 3150.0 289V103Q3150.0 72 3166.5 55.0Q3183.0 38 3223.0 29Q3236.0 27 3242.0 22.5Q3248.0 18 3248.0 10Q3248.0 3 3242.5 0.0Q3237.0 -3 3226.0 -3Q3203.0 -3 3179.0 -1.5Q3155.0 0 3132.5 1.0Q3110.0 2 3090.0 2Q3068.0 2 3044.5 1.0Q3021.0 0 2997.0 -2.0Q2973.0 -4 2949.0 -4Q2940.0 -4 2933.0 -0.5Q2926.0 3 2926.0 9Q2926.0 24 2951.0 29Q2989.0 37 3005.0 51.0Q3021.0 65 3021.0 98V540Q3021.0 569 3016.5 584.5Q3012.0 600 2999.0 608.0Q2986.0 616 2960.0 620Q2946.0 622 2940.0 628.0Q2934.0 634 2934.0 640Q2934.0 647 2940.5 650.5Q2947.0 654 2958.0 654Q2988.0 654 3006.0 653.0Q3024.0 652 3040.5 650.5Q3057.0 649 3080.0 649Q3102.0 649 3119.0 651.0Q3136.0 653 3157.0 655.0Q3178.0 657 3211.0 657Q3326.0 657 3387.0 617.0Q3448.0 577 3448.0 495Q3448.0 450 3429.0 418.5Q3410.0 387 3381.5 367.0Q3353.0 347 3323.0 336Q3319.0 335 3319.5 331.0Q3320.0 327 3323.0 324Q3353.0 278 3381.5 236.5Q3410.0 195 3441.5 158.0Q3473.0 121 3510.0 87Q3541.0 58 3573.5 52.5Q3606.0 47 3641.0 47Q3656.0 47 3656.0 32Q3656.0 12 3641.0 0.5Q3626.0 -11 3601.5 -16.0Q3577.0 -21 3549.0 -21ZM3193.0 338Q3234.0 338 3261.5 356.5Q3289.0 375 3303.5 406.0Q3318.0 437 3318.0 475Q3318.0 520 3307.0 551.5Q3296.0 583 3269.5 600.5Q3243.0 618 3197.0 618Q3171.0 618 3161.5 599.5Q3152.0 581 3151.0 525Q3150.0 502 3150.0 464.5Q3150.0 427 3150.0 375Q3150.0 353 3161.5 345.5Q3173.0 338 3193.0 338Z" transform="matrix(0.022120 0 0 -0.022120 109.35 390.98)" fill="#15130f"/></svg>