<svg xmlns="http://www.w3.org/2000/svg" viewBox="0 0 300 446"><rect width="300" height="446" fill="#f4ecd8"/><rect x="20.0" y="25.5" width="260" height="395" rx="20.3" fill="#f4ecd8" stroke="#15130f" stroke-width="1.5"/><rect x="36.9" y="42.4" width="226.2" height="354.7" fill="none" stroke="#15130f" stroke-width="0.7"/><g fill="none" stroke="#15130f" stroke-width="0.65" stroke-opacity="0.72" stroke-linecap="round" stroke-linejoin="round"><line x1="36.9" y1="281.5" x2="263.1" y2="281.5"/></g><path d="M36.9,370.6 H263.1 V397.1 H36.9 Z" fill="#d7e8c4"/><g fill="none" stroke="#15130f" stroke-width="0.8"><line x1="36.9" y1="370.6" x2="263.1" y2="370.6"/><line x1="61.6" y1="370.6" x2="61.6" y2="397.1"/><line x1="238.4" y1="370.6" x2="238.4" y2="397.1"/></g><rect x="141.4" y="34.4" width="17.2" height="19.0" fill="#d7e8c4" stroke="#15130f" stroke-width="0.8"/><path d="M511.0 1307Q708.0 1307 834.5 1159.0Q961.0 1011 961.0 779Q961.0 491 764.5 263.5Q568.0 36 272.0 -19L193.0 -34Q180.0 -36 170.0 -36Q144.0 -36 145.0 -7Q146.0 8 153.5 12.0Q161.0 16 206.0 26Q348.0 58 482.0 175.0Q616.0 292 661.0 422L680.0 478Q690.0 507 690.0 524Q690.0 554 668.0 553Q658.0 552 642.0 541Q589.0 503 512.5 475.5Q436.0 448 384.0 448Q245.0 448 150.5 558.5Q56.0 669 56.0 830Q56.0 1039 184.0 1173.0Q312.0 1307 511.0 1307ZM455.0 1245Q364.0 1245 307.5 1166.5Q251.0 1088 251.0 963Q251.0 787 326.5 675.5Q402.0 564 522.0 564Q619.0 564 684.5 640.5Q750.0 717 750.0 830Q750.0 997 661.5 1121.0Q573.0 1245 455.0 1245Z" transform="matrix(0.006858 0 0 -0.006858 146.51 49.04)" fill="#15130f"/><path d="M101.0 47Q181.0 63 244.0 113Q309.0 164 358.0 252Q477.0 463 477.0 701Q477.0 941 358.0 1151Q310.0 1237 245.0 1288Q180.0 1338 100.0 1353Q188.0 1394 291.0 1405Q333.0 1410 377.0 1410Q670.0 1410 848.5 1205.0Q1027.0 1000 1027.0 699Q1027.0 399 847.0 194.5Q667.0 -10 377.0 -10Q332.0 -10 290.0 -5Q188.0 7 101.0 47ZM498.0 1241Q677.0 1021 677.0 699Q677.0 378 497.0 159Q468.0 124 436.0 94Q607.0 118 708.0 286Q827.0 481 827.0 701Q827.0 923 708.0 1117Q607.0 1281 438.0 1306Q470.0 1276 498.0 1241Z" transform="matrix(0.009268 0 0 -0.009268 44.03 390.35)" fill="#15130f"/><path d="M525.0 394 121.0 -10 50.0 61 454.0 465 136.0 783 277.0 924 595.0 606 1152.0 1163Q975.0 1163 728.0 1234L763.0 1269Q1188.0 1269 1470.0 1410Q1329.0 1128 1329.0 703L1294.0 668Q1223.0 915 1223.0 1092L666.0 535L984.0 217L843.0 76Z" transform="matrix(0.007599 0 0 -0.007599 244.97 389.19)" fill="#15130f"/><path d="M376.0 -14Q308.0 -14 246.0 9.5Q184.0 33 136.5 76.5Q89.0 120 61.5 180.5Q34.0 241 34.0 315Q34.0 383 56.5 445.5Q79.0 508 123.5 557.0Q168.0 606 233.5 635.0Q299.0 664 385.0 664Q453.0 664 514.5 640.5Q576.0 617 624.0 573.5Q672.0 530 699.5 469.5Q727.0 409 727.0 335Q727.0 268 704.5 205.0Q682.0 142 637.5 93.0Q593.0 44 527.5 15.0Q462.0 -14 376.0 -14ZM393.0 30Q456.0 30 498.5 62.0Q541.0 94 562.5 151.5Q584.0 209 584.0 284Q584.0 348 571.0 408.0Q558.0 468 531.0 515.5Q504.0 563 463.5 591.0Q423.0 619 367.0 619Q304.0 619 261.5 587.0Q219.0 555 198.0 498.0Q177.0 441 177.0 366Q177.0 302 190.0 242.0Q203.0 182 229.5 134.0Q256.0 86 296.5 58.0Q337.0 30 393.0 30ZM803.0 -4Q794.0 -4 787.0 -0.5Q780.0 3 780.0 9Q780.0 24 805.0 29Q843.0 37 859.0 51.0Q875.0 65 875.0 98V538Q875.0 576 862.5 594.0Q850.0 612 814.0 620Q800.0 623 794.0 628.5Q788.0 634 788.0 640Q788.0 647 794.5 650.5Q801.0 654 812.0 654Q836.0 654 856.5 653.5Q877.0 653 896.0 652.0Q915.0 651 935.0 651Q957.0 651 976.5 653.0Q996.0 655 1016.5 657.0Q1037.0 659 1064.0 659Q1183.0 659 1254.0 609.0Q1325.0 559 1325.0 471Q1325.0 409 1299.5 356.5Q1274.0 304 1221.5 272.0Q1169.0 240 1089.0 240Q1064.0 240 1051.0 247.5Q1038.0 255 1038.0 264Q1038.0 270 1044.5 274.5Q1051.0 279 1056.0 279Q1065.0 279 1073.5 277.5Q1082.0 276 1099.0 276Q1146.0 276 1170.5 324.0Q1195.0 372 1195.0 452Q1195.0 540 1159.5 580.5Q1124.0 621 1064.0 621Q1036.0 621 1020.5 609.5Q1005.0 598 1005.0 573L1004.0 104Q1004.0 71 1020.5 54.5Q1037.0 38 1077.0 29Q1090.0 27 1096.0 22.5Q1102.0 18 1102.0 10Q1102.0 3 1096.5 0.0Q1091.0 -3 1080.0 -3Q1057.0 -3 1033.0 -1.5Q1009.0 0 986.5 1.0Q964.0 2 944.0 2Q922.0 2 898.5 1.0Q875.0 0 851.0 -2.0Q827.0 -4 803.0 -4ZM1559.0 -4Q1549.0 -4 1541.5 -0.5Q1534.0 3 1534.0 9Q1534.0 17 1541.0 22.0Q1548.0 27 1561.0 29Q1599.0 37 1617.0 51.5Q1635.0 66 1635.0 99V504Q1635.0 545 1633.0 566.0Q1631.0 587 1627.5 594.5Q1624.0 602 1617.0 603Q1607.0 607 1592.0 608.0Q1577.0 609 1563.0 609H1532.0Q1503.0 609 1476.0 595.5Q1449.0 582 1434.0 559Q1430.0 553 1421.5 542.0Q1413.0 531 1403.5 522.0Q1394.0 513 1384.0 513Q1377.0 513 1374.5 518.0Q1372.0 523 1372.0 529Q1372.0 541 1378.0 553Q1395.0 587 1403.5 612.5Q1412.0 638 1415.0 673Q1417.0 688 1423.5 692.5Q1430.0 697 1437.0 697Q1443.0 697 1451.5 684.5Q1460.0 672 1467.0 664Q1476.0 655 1499.0 650.5Q1522.0 646 1538.0 646L1907.0 647Q1935.0 647 1954.0 651.5Q1973.0 656 1984.0 661Q1999.0 670 2008.0 679.5Q2017.0 689 2029.0 689Q2034.0 689 2036.5 683.5Q2039.0 678 2039.0 670Q2039.0 665 2038.0 658.5Q2037.0 652 2036.0 647Q2032.0 628 2028.0 613.5Q2024.0 599 2021.5 586.5Q2019.0 574 2019.0 558V541Q2019.0 527 2015.0 517.0Q2011.0 507 2002.0 507Q1994.0 507 1988.5 516.5Q1983.0 526 1977.0 546Q1968.0 578 1947.0 593.5Q1926.0 609 1881.0 609H1813.0Q1794.0 609 1783.5 602.0Q1773.0 595 1768.5 571.5Q1764.0 548 1764.0 499V100Q1764.0 68 1782.0 53.5Q1800.0 39 1839.0 29Q1851.0 26 1858.0 22.0Q1865.0 18 1865.0 10Q1865.0 3 1858.5 0.0Q1852.0 -3 1842.0 -3Q1818.0 -3 1794.0 -2.0Q1770.0 -1 1746.5 0.0Q1723.0 1 1701.0 1Q1679.0 1 1655.5 0.0Q1632.0 -1 1607.5 -2.5Q1583.0 -4 1559.0 -4ZM2077.0 -4Q2068.0 -4 2061.0 -0.5Q2054.0 3 2054.0 9Q2054.0 24 2079.0 29Q2117.0 37 2134.0 51.0Q2151.0 65 2151.0 97V551Q2151.0 584 2137.0 598.0Q2123.0 612 2084.0 620Q2059.0 625 2059.0 641Q2059.0 647 2066.0 650.5Q2073.0 654 2082.0 654Q2106.0 654 2129.0 653.0Q2152.0 652 2173.5 651.0Q2195.0 650 2217.0 650Q2238.0 650 2259.5 651.0Q2281.0 652 2304.0 653.0Q2327.0 654 2351.0 654Q2361.0 654 2367.0 650.5Q2373.0 647 2373.0 640Q2373.0 632 2366.5 627.5Q2360.0 623 2348.0 620Q2308.0 610 2294.0 596.0Q2280.0 582 2280.0 550V98Q2280.0 67 2296.5 53.0Q2313.0 39 2351.0 29Q2364.0 26 2370.5 22.0Q2377.0 18 2377.0 10Q2377.0 3 2371.0 0.0Q2365.0 -3 2355.0 -3Q2331.0 -3 2307.0 -2.0Q2283.0 -1 2260.5 0.0Q2238.0 1 2217.0 1Q2195.0 1 2172.0 0.0Q2149.0 -1 2125.0 -2.5Q2101.0 -4 2077.0 -4ZM2438.0 -4Q2426.0 -4 2419.5 -0.5Q2413.0 3 2413.0 9Q2413.0 17 2421.5 20.5Q2430.0 24 2442.0 27Q2466.0 34 2483.0 54.0Q2500.0 74 2504.0 106Q2512.0 167 2519.5 239.0Q2527.0 311 2533.5 384.0Q2540.0 457 2544.0 521Q2544.0 528 2544.0 537.0Q2544.0 546 2544.0 555Q2543.0 570 2538.5 579.5Q2534.0 589 2523.0 597Q2509.0 607 2494.0 612.5Q2479.0 618 2460.0 622Q2449.0 624 2442.5 629.5Q2436.0 635 2436.0 643Q2436.0 651 2444.0 654.0Q2452.0 657 2465.0 657Q2478.0 657 2500.0 656.0Q2522.0 655 2547.5 653.5Q2573.0 652 2598.0 651.0Q2623.0 650 2642.0 650Q2650.0 650 2656.0 645.0Q2662.0 640 2664.0 633Q2670.0 614 2676.0 596.0Q2682.0 578 2689.0 558L2839.0 191Q2842.0 186 2847.0 185.5Q2852.0 185 2854.0 190L3015.0 548Q3022.0 577 3026.5 599.0Q3031.0 621 3035.0 634Q3038.0 647 3048.0 647H3089.0Q3127.0 649 3169.0 653.0Q3211.0 657 3234.0 657Q3242.0 657 3249.5 654.5Q3257.0 652 3257.0 644Q3257.0 636 3251.0 632.0Q3245.0 628 3233.0 623Q3225.0 621 3214.0 616.5Q3203.0 612 3195.0 608Q3174.0 599 3163.5 585.0Q3153.0 571 3154.0 545Q3155.0 474 3158.0 417.5Q3161.0 361 3163.5 311.5Q3166.0 262 3170.0 210.5Q3174.0 159 3177.0 97Q3179.0 69 3198.5 53.0Q3218.0 37 3251.0 29Q3263.0 26 3270.5 22.0Q3278.0 18 3278.0 10Q3278.0 3 3271.5 0.0Q3265.0 -3 3254.0 -3Q3231.0 -3 3206.0 -2.0Q3181.0 -1 3157.5 0.0Q3134.0 1 3113.0 1Q3093.0 1 3072.0 0.0Q3051.0 -1 3029.0 -2.5Q3007.0 -4 2983.0 -4Q2973.0 -4 2965.5 -0.5Q2958.0 3 2958.0 9Q2958.0 17 2965.5 22.0Q2973.0 27 2985.0 29Q3019.0 36 3032.5 50.0Q3046.0 64 3044.0 97Q3043.0 162 3041.0 222.0Q3039.0 282 3037.0 341.0Q3035.0 400 3032.0 460Q3031.0 468 3027.5 467.5Q3024.0 467 3020.0 459L2816.0 -1Q2812.0 -12 2803.0 -10.5Q2794.0 -9 2791.0 -1Q2745.0 115 2694.5 228.5Q2644.0 342 2595.0 459Q2592.0 467 2586.5 465.0Q2581.0 463 2580.0 454Q2575.0 398 2571.0 338.5Q2567.0 279 2566.0 220.0Q2565.0 161 2565.0 103Q2565.0 76 2582.5 57.0Q2600.0 38 2636.0 29Q2648.0 27 2656.5 22.5Q2665.0 18 2665.0 10Q2665.0 3 2657.0 0.0Q2649.0 -3 2639.0 -3Q2612.0 -3 2598.0 -2.0Q2584.0 -1 2572.0 0.0Q2560.0 1 2540.0 1Q2519.0 1 2500.5 0.0Q2482.0 -1 2466.0 -2.5Q2450.0 -4 2438.0 -4ZM3345.0 -4Q3336.0 -4 3329.0 -0.5Q3322.0 3 3322.0 9Q3322.0 24 3347.0 29Q3385.0 37 3402.0 51.0Q3419.0 65 3419.0 97V551Q3419.0 584 3405.0 598.0Q3391.0 612 3352.0 620Q3327.0 625 3327.0 641Q3327.0 647 3334.0 650.5Q3341.0 654 3350.0 654Q3374.0 654 3397.0 653.0Q3420.0 652 3441.5 651.0Q3463.0 650 3485.0 650Q3506.0 650 3527.5 651.0Q3549.0 652 3572.0 653.0Q3595.0 654 3619.0 654Q3629.0 654 3635.0 650.5Q3641.0 647 3641.0 640Q3641.0 632 3634.5 627.5Q3628.0 623 3616.0 620Q3576.0 610 3562.0 596.0Q3548.0 582 3548.0 550V98Q3548.0 67 3564.5 53.0Q3581.0 39 3619.0 29Q3632.0 26 3638.5 22.0Q3645.0 18 3645.0 10Q3645.0 3 3639.0 0.0Q3633.0 -3 3623.0 -3Q3599.0 -3 3575.0 -2.0Q3551.0 -1 3528.5 0.0Q3506.0 1 3485.0 1Q3463.0 1 3440.0 0.0Q3417.0 -1 3393.0 -2.5Q3369.0 -4 3345.0 -4ZM3875.0 -15Q3832.0 -15 3793.5 -4.0Q3755.0 7 3723.0 29Q3717.0 34 3712.0 39.5Q3707.0 45 3704.0 52Q3696.0 77 3693.0 113.5Q3690.0 150 3691.0 184Q3691.0 191 3696.5 194.0Q3702.0 197 3710.0 197Q3718.0 197 3722.5 194.5Q3727.0 192 3729.0 185Q3751.0 110 3793.0 68.0Q3835.0 26 3888.0 26Q3921.0 26 3944.0 41.0Q3967.0 56 3979.0 80.0Q3991.0 104 3991.0 132Q3991.0 167 3978.5 190.0Q3966.0 213 3941.0 231.5Q3916.0 250 3878.0 271Q3837.0 295 3798.0 321.5Q3759.0 348 3734.0 384.5Q3709.0 421 3709.0 475Q3709.0 531 3737.5 573.5Q3766.0 616 3817.0 640.0Q3868.0 664 3935.0 664Q3972.0 664 4004.0 656.0Q4036.0 648 4055.0 640Q4066.0 636 4071.5 630.0Q4077.0 624 4080.0 611Q4086.0 590 4090.5 561.0Q4095.0 532 4095.0 500Q4095.0 488 4077.0 488Q4069.0 488 4061.0 492.0Q4053.0 496 4051.0 503Q4033.0 561 4001.5 591.0Q3970.0 621 3924.0 621Q3893.0 621 3871.0 610.5Q3849.0 600 3836.0 578.5Q3823.0 557 3823.0 523Q3823.0 497 3840.5 475.0Q3858.0 453 3889.5 432.0Q3921.0 411 3960.0 386Q4008.0 358 4040.5 329.5Q4073.0 301 4090.0 266.5Q4107.0 232 4107.0 185Q4107.0 119 4078.0 74.5Q4049.0 30 3997.0 7.5Q3945.0 -15 3875.0 -15ZM4190.0 -4Q4178.0 -4 4171.5 -0.5Q4165.0 3 4165.0 9Q4165.0 17 4173.5 20.5Q4182.0 24 4194.0 27Q4218.0 34 4235.0 54.0Q4252.0 74 4256.0 106Q4264.0 167 4271.5 239.0Q4279.0 311 4285.5 384.0Q4292.0 457 4296.0 521Q4296.0 528 4296.0 537.0Q4296.0 546 4296.0 555Q4295.0 570 4290.5 579.5Q4286.0 589 4275.0 597Q4261.0 607 4246.0 612.5Q4231.0 618 4212.0 622Q4201.0 624 4194.5 629.5Q4188.0 635 4188.0 643Q4188.0 651 4196.0 654.0Q4204.0 657 4217.0 657Q4230.0 657 4252.0 656.0Q4274.0 655 4299.5 653.5Q4325.0 652 4350.0 651.0Q4375.0 650 4394.0 650Q4402.0 650 4408.0 645.0Q4414.0 640 4416.0 633Q4422.0 614 4428.0 596.0Q4434.0 578 4441.0 558L4591.0 191Q4594.0 186 4599.0 185.5Q4604.0 185 4606.0 190L4767.0 548Q4774.0 577 4778.5 599.0Q4783.0 621 4787.0 634Q4790.0 647 4800.0 647H4841.0Q4879.0 649 4921.0 653.0Q4963.0 657 4986.0 657Q4994.0 657 5001.5 654.5Q5009.0 652 5009.0 644Q5009.0 636 5003.0 632.0Q4997.0 628 4985.0 623Q4977.0 621 4966.0 616.5Q4955.0 612 4947.0 608Q4926.0 599 4915.5 585.0Q4905.0 571 4906.0 545Q4907.0 474 4910.0 417.5Q4913.0 361 4915.5 311.5Q4918.0 262 4922.0 210.5Q4926.0 159 4929.0 97Q4931.0 69 4950.5 53.0Q4970.0 37 5003.0 29Q5015.0 26 5022.5 22.0Q5030.0 18 5030.0 10Q5030.0 3 5023.5 0.0Q5017.0 -3 5006.0 -3Q4983.0 -3 4958.0 -2.0Q4933.0 -1 4909.5 0.0Q4886.0 1 4865.0 1Q4845.0 1 4824.0 0.0Q4803.0 -1 4781.0 -2.5Q4759.0 -4 4735.0 -4Q4725.0 -4 4717.5 -0.5Q4710.0 3 4710.0 9Q4710.0 17 4717.5 22.0Q4725.0 27 4737.0 29Q4771.0 36 4784.5 50.0Q4798.0 64 4796.0 97Q4795.0 162 4793.0 222.0Q4791.0 282 4789.0 341.0Q4787.0 400 4784.0 460Q4783.0 468 4779.5 467.5Q4776.0 467 4772.0 459L4568.0 -1Q4564.0 -12 4555.0 -10.5Q4546.0 -9 4543.0 -1Q4497.0 115 4446.5 228.5Q4396.0 342 4347.0 459Q4344.0 467 4338.5 465.0Q4333.0 463 4332.0 454Q4327.0 398 4323.0 338.5Q4319.0 279 4318.0 220.0Q4317.0 161 4317.0 103Q4317.0 76 4334.5 57.0Q4352.0 38 4388.0 29Q4400.0 27 4408.5 22.5Q4417.0 18 4417.0 10Q4417.0 3 4409.0 0.0Q4401.0 -3 4391.0 -3Q4364.0 -3 4350.0 -2.0Q4336.0 -1 4324.0 0.0Q4312.0 1 4292.0 1Q4271.0 1 4252.5 0.0Q4234.0 -1 4218.0 -2.5Q4202.0 -4 4190.0 -4Z" transform="matrix(0.022120 0 0 -0.022120 93.99 391.41)" fill="#15130f"/></svg>