<svg xmlns="http://www.w3.org/2000/svg" viewBox="0 0 300 446"><rect width="300" height="446" fill="#f4ecd8"/><rect x="20.0" y="25.5" width="260" height="395" rx="20.3" fill="#f4ecd8" stroke="#15130f" stroke-width="1.5"/><rect x="36.9" y="42.4" width="226.2" height="354.7" fill="none" stroke="#15130f" stroke-width="0.7"/><g fill="none" stroke="#15130f" stroke-width="0.65" stroke-opacity="0.72" stroke-linecap="round" stroke-linejoin="round"><line x1="36.9" y1="281.5" x2="263.1" y2="281.5"/></g><path d="M36.9,370.6 H263.1 V397.1 H36.9 Z" fill="#d7e8c4"/><g fill="none" stroke="#15130f" stroke-width="0.8"><line x1="36.9" y1="370.6" x2="263.1" y2="370.6"/><line x1="61.6" y1="370.6" x2="61.6" y2="397.1"/><line x1="238.4" y1="370.6" x2="238.4" y2="397.1"/></g><rect x="141.4" y="34.4" width="17.2" height="19.0" fill="#d7e8c4" stroke="#15130f" stroke-width="0.8"/><path d="M853.0 1316Q873.0 1316 875.0 1308L880.0 1293L883.0 1279Q881.0 1265 840.0 1259Q750.0 1244 640.0 1176.5Q530.0 1109 463.0 1027Q420.0 973 377.5 882.5Q335.0 792 335.0 753Q335.0 727 354.0 728Q367.0 729 385.0 742Q435.0 777 512.0 803.0Q589.0 829 645.0 829Q781.0 829 874.5 722.0Q968.0 615 968.0 459Q968.0 243 841.0 108.0Q714.0 -27 511.0 -27Q313.0 -27 187.5 122.5Q62.0 272 62.0 508Q62.0 756 224.0 971.5Q386.0 1187 633.0 1268Q779.0 1316 853.0 1316ZM501.0 715Q402.0 715 337.5 638.5Q273.0 562 273.0 445Q273.0 284 361.5 159.5Q450.0 35 565.0 35Q658.0 35 715.0 113.0Q772.0 191 772.0 318Q772.0 497 697.5 606.0Q623.0 715 501.0 715Z" transform="matrix(0.006858 0 0 -0.006858 146.47 49.10)" fill="#15130f"/><path d="M101.0 47Q181.0 63 244.0 113Q309.0 164 358.0 252Q477.0 463 477.0 701Q477.0 941 358.0 1151Q310.0 1237 245.0 1288Q180.0 1338 100.0 1353Q188.0 1394 291.0 1405Q333.0 1410 377.0 1410Q670.0 1410 848.5 1205.0Q1027.0 1000 1027.0 699Q1027.0 399 847.0 194.5Q667.0 -10 377.0 -10Q332.0 -10 290.0 -5Q188.0 7 101.0 47ZM498.0 1241Q677.0 1021 677.0 699Q677.0 378 497.0 159Q468.0 124 436.0 94Q607.0 118 708.0 286Q827.0 481 827.0 701Q827.0 923 708.0 1117Q607.0 1281 438.0 1306Q470.0 1276 498.0 1241Z" transform="matrix(0.009268 0 0 -0.009268 44.03 390.35)" fill="#15130f"/><path d="M1450.0 635V-198Q1651.0 -179 1769.0 -4Q1900.0 191 1900.0 410Q1900.0 633 1769.0 827Q1742.0 865 1711.0 896ZM1259.0 -187Q1250.0 -126 1250.0 -52V1067Q1250.0 1212 1241.5 1255.5Q1233.0 1299 1212.5 1317.5Q1192.0 1336 1168.0 1336L938.0 1106Q950.0 1037 950.0 952V0H750.0V1067Q750.0 1212 741.5 1255.5Q733.0 1299 712.5 1317.5Q692.0 1336 668.0 1336L438.0 1106Q450.0 1037 450.0 952V0H50.0V40H100.0Q170.0 40 210.0 95.0Q250.0 150 250.0 200V1067Q250.0 1212 241.5 1255.5Q233.0 1299 212.5 1317.5Q192.0 1336 168.0 1336V1410Q284.0 1392 358.0 1301Q387.0 1264 408.0 1216L602.0 1410H668.0Q784.0 1392 858.0 1301Q887.0 1264 908.0 1216L1102.0 1410H1168.0Q1284.0 1392 1358.0 1301Q1450.0 1187 1450.0 952V775L1726.0 1051Q1824.0 1007 1908.0 915Q2100.0 710 2100.0 410Q2100.0 109 1906.0 -95Q1729.0 -282 1453.0 -298Q1455.0 -337 1459.0 -355Q1467.0 -399 1487.5 -417.5Q1508.0 -436 1532.0 -436V-510Q1416.0 -491 1343.0 -401Q1305.0 -354 1282.0 -286Q1118.0 -247 974.0 -95Q963.0 -83 952.0 -71L977.0 -36Q1088.0 -154 1259.0 -187Z" transform="matrix(0.008916 0 0 -0.008916 241.17 387.88)" fill="#15130f"/><path d="M376.0 -14Q308.0 -14 246.0 9.5Q184.0 33 136.5 76.5Q89.0 120 61.5 180.5Q34.0 241 34.0 315Q34.0 383 56.5 445.5Q79.0 508 123.5 557.0Q168.0 606 233.5 635.0Q299.0 664 385.0 664Q453.0 664 514.5 640.5Q576.0 617 624.0 573.5Q672.0 530 699.5 469.5Q727.0 409 727.0 335Q727.0 268 704.5 205.0Q682.0 142 637.5 93.0Q593.0 44 527.5 15.0Q462.0 -14 376.0 -14ZM393.0 30Q456.0 30 498.5 62.0Q541.0 94 562.5 151.5Q584.0 209 584.0 284Q584.0 348 571.0 408.0Q558.0 468 531.0 515.5Q504.0 563 463.5 591.0Q423.0 619 367.0 619Q304.0 619 261.5 587.0Q219.0 555 198.0 498.0Q177.0 441 177.0 366Q177.0 302 190.0 242.0Q203.0 182 229.5 134.0Q256.0 86 296.5 58.0Q337.0 30 393.0 30ZM1403.0 -21Q1360.0 -21 1328.0 -11.5Q1296.0 -2 1273.0 16.0Q1250.0 34 1231.0 58Q1209.0 88 1188.0 116.5Q1167.0 145 1145.5 179.5Q1124.0 214 1098.0 262Q1085.0 285 1065.0 296Q1052.0 303 1038.5 306.0Q1025.0 309 1016.0 309Q1010.0 310 1007.0 304.0Q1004.0 298 1004.0 289V103Q1004.0 72 1020.5 55.0Q1037.0 38 1077.0 29Q1090.0 27 1096.0 22.5Q1102.0 18 1102.0 10Q1102.0 3 1096.5 0.0Q1091.0 -3 1080.0 -3Q1057.0 -3 1033.0 -1.5Q1009.0 0 986.5 1.0Q964.0 2 944.0 2Q922.0 2 898.5 1.0Q875.0 0 851.0 -2.0Q827.0 -4 803.0 -4Q794.0 -4 787.0 -0.5Q780.0 3 780.0 9Q780.0 24 805.0 29Q843.0 37 859.0 51.0Q875.0 65 875.0 98V540Q875.0 569 870.5 584.5Q866.0 600 853.0 608.0Q840.0 616 814.0 620Q800.0 622 794.0 628.0Q788.0 634 788.0 640Q788.0 647 794.5 650.5Q801.0 654 812.0 654Q842.0 654 860.0 653.0Q878.0 652 894.5 650.5Q911.0 649 934.0 649Q956.0 649 973.0 651.0Q990.0 653 1011.0 655.0Q1032.0 657 1065.0 657Q1180.0 657 1241.0 617.0Q1302.0 577 1302.0 495Q1302.0 450 1283.0 418.5Q1264.0 387 1235.5 367.0Q1207.0 347 1177.0 336Q1173.0 335 1173.5 331.0Q1174.0 327 1177.0 324Q1207.0 278 1235.5 236.5Q1264.0 195 1295.5 158.0Q1327.0 121 1364.0 87Q1395.0 58 1427.5 52.5Q1460.0 47 1495.0 47Q1510.0 47 1510.0 32Q1510.0 12 1495.0 0.5Q1480.0 -11 1455.5 -16.0Q1431.0 -21 1403.0 -21ZM1047.0 338Q1088.0 338 1115.5 356.5Q1143.0 375 1157.5 406.0Q1172.0 437 1172.0 475Q1172.0 520 1161.0 551.5Q1150.0 583 1123.5 600.5Q1097.0 618 1051.0 618Q1025.0 618 1015.5 599.5Q1006.0 581 1005.0 525Q1004.0 502 1004.0 464.5Q1004.0 427 1004.0 375Q1004.0 353 1015.5 345.5Q1027.0 338 1047.0 338ZM1884.0 -7Q1857.0 -7 1819.0 -5.0Q1781.0 -3 1742.5 -1.5Q1704.0 0 1679.0 0Q1659.0 0 1638.5 -0.5Q1618.0 -1 1596.0 -2.5Q1574.0 -4 1549.0 -4Q1540.0 -4 1533.0 -0.5Q1526.0 3 1526.0 10Q1526.0 19 1532.5 23.0Q1539.0 27 1552.0 29Q1590.0 37 1604.0 51.0Q1618.0 65 1618.0 98V550Q1618.0 584 1604.5 598.0Q1591.0 612 1552.0 620Q1539.0 622 1532.5 626.5Q1526.0 631 1526.0 640Q1526.0 647 1533.0 650.5Q1540.0 654 1549.0 654Q1573.0 654 1595.0 653.5Q1617.0 653 1638.5 651.5Q1660.0 650 1682.0 650Q1697.0 650 1722.5 651.5Q1748.0 653 1777.5 654.5Q1807.0 656 1833.0 657.5Q1859.0 659 1875.0 659Q1959.0 659 2026.0 635.0Q2093.0 611 2140.5 568.0Q2188.0 525 2213.0 466.0Q2238.0 407 2238.0 338Q2238.0 269 2213.0 207.0Q2188.0 145 2141.5 97.0Q2095.0 49 2029.5 21.0Q1964.0 -7 1884.0 -7ZM1869.0 39Q1941.0 39 1991.5 73.5Q2042.0 108 2068.0 170.5Q2094.0 233 2094.0 315Q2094.0 383 2076.5 438.5Q2059.0 494 2027.5 532.5Q1996.0 571 1952.5 592.0Q1909.0 613 1858.0 613Q1822.0 613 1797.5 611.0Q1773.0 609 1760.5 599.5Q1748.0 590 1748.0 568V128Q1748.0 93 1763.5 73.5Q1779.0 54 1806.5 46.5Q1834.0 39 1869.0 39ZM2316.0 -5Q2305.0 -5 2298.5 -1.0Q2292.0 3 2292.0 9Q2292.0 22 2318.0 28Q2354.0 37 2369.5 50.5Q2385.0 64 2385.0 97V550Q2385.0 584 2371.5 598.0Q2358.0 612 2321.0 620Q2307.0 623 2301.0 628.5Q2295.0 634 2295.0 640Q2295.0 647 2301.5 650.5Q2308.0 654 2319.0 654Q2348.0 654 2374.5 653.0Q2401.0 652 2426.0 651.0Q2451.0 650 2478.0 650Q2524.0 650 2575.5 651.0Q2627.0 652 2668.0 652Q2701.0 653 2722.5 655.0Q2744.0 657 2748.0 657Q2755.0 657 2762.5 654.0Q2770.0 651 2771.0 642Q2775.0 609 2781.0 577.0Q2787.0 545 2787.0 521Q2787.0 512 2782.5 507.5Q2778.0 503 2773.0 503Q2768.0 503 2764.0 506.5Q2760.0 510 2757.0 517Q2749.0 540 2742.0 557.0Q2735.0 574 2726.0 583Q2713.0 597 2696.0 605.0Q2679.0 613 2655.0 613H2562.0Q2544.0 613 2529.0 602.5Q2514.0 592 2514.0 573V377Q2514.0 366 2520.5 360.0Q2527.0 354 2536.0 354H2628.0Q2655.0 354 2666.5 369.0Q2678.0 384 2686.0 410Q2693.0 430 2705.0 430Q2710.0 430 2714.0 424.5Q2718.0 419 2718.0 410Q2717.0 400 2716.0 386.0Q2715.0 372 2714.5 358.0Q2714.0 344 2714.0 333Q2714.0 321 2714.5 306.0Q2715.0 291 2715.5 276.5Q2716.0 262 2717.0 252Q2718.0 241 2715.5 235.0Q2713.0 229 2707.0 229Q2691.0 229 2684.0 257Q2676.0 285 2665.0 299.0Q2654.0 313 2635.0 313H2541.0Q2528.0 313 2521.0 308.0Q2514.0 303 2514.0 289V99Q2514.0 66 2528.0 53.0Q2542.0 40 2571.0 40H2653.0Q2678.0 40 2698.5 45.0Q2719.0 50 2734.0 61Q2751.0 73 2764.5 93.5Q2778.0 114 2791.0 139Q2795.0 147 2799.0 149.5Q2803.0 152 2809.0 152Q2814.0 151 2816.5 146.0Q2819.0 141 2819.0 135Q2819.0 121 2814.0 99.0Q2809.0 77 2801.5 53.5Q2794.0 30 2788.0 10Q2785.0 3 2780.0 -0.5Q2775.0 -4 2768.0 -4Q2744.0 -4 2706.5 -3.5Q2669.0 -3 2625.0 -2.0Q2581.0 -1 2535.0 -0.5Q2489.0 0 2447.0 0Q2426.0 0 2404.5 -1.0Q2383.0 -2 2361.0 -3.5Q2339.0 -5 2316.0 -5ZM3480.0 -21Q3437.0 -21 3405.0 -11.5Q3373.0 -2 3350.0 16.0Q3327.0 34 3308.0 58Q3286.0 88 3265.0 116.5Q3244.0 145 3222.5 179.5Q3201.0 214 3175.0 262Q3162.0 285 3142.0 296Q3129.0 303 3115.5 306.0Q3102.0 309 3093.0 309Q3087.0 310 3084.0 304.0Q3081.0 298 3081.0 289V103Q3081.0 72 3097.5 55.0Q3114.0 38 3154.0 29Q3167.0 27 3173.0 22.5Q3179.0 18 3179.0 10Q3179.0 3 3173.5 0.0Q3168.0 -3 3157.0 -3Q3134.0 -3 3110.0 -1.5Q3086.0 0 3063.5 1.0Q3041.0 2 3021.0 2Q2999.0 2 2975.5 1.0Q2952.0 0 2928.0 -2.0Q2904.0 -4 2880.0 -4Q2871.0 -4 2864.0 -0.5Q2857.0 3 2857.0 9Q2857.0 24 2882.0 29Q2920.0 37 2936.0 51.0Q2952.0 65 2952.0 98V540Q2952.0 569 2947.5 584.5Q2943.0 600 2930.0 608.0Q2917.0 616 2891.0 620Q2877.0 622 2871.0 628.0Q2865.0 634 2865.0 640Q2865.0 647 2871.5 650.5Q2878.0 654 2889.0 654Q2919.0 654 2937.0 653.0Q2955.0 652 2971.5 650.5Q2988.0 649 3011.0 649Q3033.0 649 3050.0 651.0Q3067.0 653 3088.0 655.0Q3109.0 657 3142.0 657Q3257.0 657 3318.0 617.0Q3379.0 577 3379.0 495Q3379.0 450 3360.0 418.5Q3341.0 387 3312.5 367.0Q3284.0 347 3254.0 336Q3250.0 335 3250.5 331.0Q3251.0 327 3254.0 324Q3284.0 278 3312.5 236.5Q3341.0 195 3372.5 158.0Q3404.0 121 3441.0 87Q3472.0 58 3504.5 52.5Q3537.0 47 3572.0 47Q3587.0 47 3587.0 32Q3587.0 12 3572.0 0.5Q3557.0 -11 3532.5 -16.0Q3508.0 -21 3480.0 -21ZM3124.0 338Q3165.0 338 3192.5 356.5Q3220.0 375 3234.5 406.0Q3249.0 437 3249.0 475Q3249.0 520 3238.0 551.5Q3227.0 583 3200.5 600.5Q3174.0 618 3128.0 618Q3102.0 618 3092.5 599.5Q3083.0 581 3082.0 525Q3081.0 502 3081.0 464.5Q3081.0 427 3081.0 375Q3081.0 353 3092.5 345.5Q3104.0 338 3124.0 338Z" transform="matrix(0.022120 0 0 -0.022120 109.95 390.98)" fill="#15130f"/></svg>