<svg xmlns="http://www.w3.org/2000/svg" viewBox="0 0 300 446"><rect width="300" height="446" fill="#f4ecd8"/><rect x="20.0" y="25.5" width="260" height="395" rx="20.3" fill="#f4ecd8" stroke="#15130f" stroke-width="1.5"/><rect x="36.9" y="42.4" width="226.2" height="354.7" fill="none" stroke="#15130f" stroke-width="0.7"/><g fill="none" stroke="#15130f" stroke-width="0.65" stroke-opacity="0.72" stroke-linecap="round" stroke-linejoin="round"><line x1="36.9" y1="281.5" x2="263.1" y2="281.5"/></g><path d="M36.9,370.6 H263.1 V397.1 H36.9 Z" fill="#d7e8c4"/><g fill="none" stroke="#15130f" stroke-width="0.8"><line x1="36.9" y1="370.6" x2="263.1" y2="370.6"/><line x1="61.6" y1="370.6" x2="61.6" y2="397.1"/><line x1="238.4" y1="370.6" x2="238.4" y2="397.1"/></g><rect x="141.4" y="34.4" width="17.2" height="19.0" fill="#d7e8c4" stroke="#15130f" stroke-width="0.8"/><path d="M766.0 262V-54Q764.0 -88 718.0 -88L649.0 -99Q619.0 -104 598.0 -110Q582.0 -115 572.0 -116Q548.0 -118 548.0 -92Q548.0 -82 552.0 -63Q563.0 -18 563.0 41V262L564.0 290L552.0 316Q541.0 325 493.0 325H98.0Q53.0 325 39.5 332.5Q26.0 340 26.0 366Q26.0 415 264.0 747Q442.0 995 584.5 1169.0Q727.0 1343 752.0 1343Q768.0 1343 768.0 1317L767.0 1232L766.0 1143V549L771.0 522Q778.0 506 822.0 506Q899.0 506 922.0 572Q928.0 590 941.0 590Q967.0 590 967.0 567Q967.0 557 965.0 547Q961.0 528 956.0 462Q950.0 372 930.0 347.5Q910.0 323 845.0 323H812.0Q781.0 323 773.5 313.0Q766.0 303 766.0 262ZM563.0 570V743L561.0 856L563.0 958L562.0 984Q562.0 1001 553.0 1001Q544.0 1001 523.0 973L489.0 928L381.0 788Q316.0 705 230.0 573Q216.0 551 207.0 540Q196.0 525 196.0 515Q197.0 499 236.0 499L268.0 498H528.0Q564.0 498 564.0 546Z" transform="matrix(0.006858 0 0 -0.006858 146.59 48.88)" fill="#15130f"/><path d="M101.0 47Q181.0 63 244.0 113Q309.0 164 358.0 252Q477.0 463 477.0 701Q477.0 941 358.0 1151Q310.0 1237 245.0 1288Q180.0 1338 100.0 1353Q188.0 1394 291.0 1405Q333.0 1410 377.0 1410Q670.0 1410 848.5 1205.0Q1027.0 1000 1027.0 699Q1027.0 399 847.0 194.5Q667.0 -10 377.0 -10Q332.0 -10 290.0 -5Q188.0 7 101.0 47ZM498.0 1241Q677.0 1021 677.0 699Q677.0 378 497.0 159Q468.0 124 436.0 94Q607.0 118 708.0 286Q827.0 481 827.0 701Q827.0 923 708.0 1117Q607.0 1281 438.0 1306Q470.0 1276 498.0 1241Z" transform="matrix(0.009268 0 0 -0.009268 44.03 390.35)" fill="#15130f"/><path d="M250.0 800Q250.0 735 271.5 674.5Q293.0 614 333.5 582.0Q374.0 550 417.0 550Q461.0 550 501.5 582.0Q542.0 614 563.5 674.5Q585.0 735 585.0 800Q585.0 865 563.5 925.5Q542.0 986 501.5 1018.0Q461.0 1050 417.0 1050Q374.0 1050 333.5 1018.0Q293.0 986 271.5 925.5Q250.0 865 250.0 800ZM1744.0 1050Q1700.0 1100 1637.0 1148Q1423.0 1310 1050.0 1310Q671.0 1310 460.0 1148Q533.0 1140 602.0 1105Q690.0 1060 737.5 975.5Q785.0 891 785.0 800Q785.0 709 737.5 624.5Q690.0 540 601.5 495.0Q513.0 450 417.0 450Q322.0 450 233.5 495.0Q145.0 540 97.5 624.5Q50.0 709 50.0 800Q50.0 1058 324.5 1234.0Q599.0 1410 1050.0 1410Q1501.0 1410 1776.0 1234Q1905.0 1151 1973.0 1050ZM1850.0 600Q1850.0 665 1828.5 725.5Q1807.0 786 1766.5 818.0Q1726.0 850 1683.0 850Q1639.0 850 1598.5 818.0Q1558.0 786 1536.5 725.5Q1515.0 665 1515.0 600Q1515.0 535 1536.5 474.5Q1558.0 414 1598.5 382.0Q1639.0 350 1683.0 350Q1726.0 350 1766.5 382.0Q1807.0 414 1828.5 474.5Q1850.0 535 1850.0 600ZM356.0 350Q400.0 300 464.0 252Q677.0 90 1050.0 90Q1429.0 90 1640.0 252Q1567.0 260 1499.0 295Q1410.0 340 1362.5 424.5Q1315.0 509 1315.0 600Q1315.0 691 1362.5 775.5Q1410.0 860 1498.5 905.0Q1587.0 950 1683.0 950Q1778.0 950 1866.5 905.0Q1955.0 860 2002.5 775.5Q2050.0 691 2050.0 600Q2050.0 342 1775.5 166.0Q1501.0 -10 1050.0 -10Q599.0 -10 325.0 166Q195.0 249 127.0 350Z" transform="matrix(0.009139 0 0 -0.009139 241.15 390.26)" fill="#15130f"/><path d="M45.0 -4Q36.0 -4 29.0 -0.5Q22.0 3 22.0 9Q22.0 24 47.0 29Q85.0 37 99.5 51.0Q114.0 65 114.0 98V538Q114.0 576 101.5 594.0Q89.0 612 53.0 620Q39.0 623 33.0 628.5Q27.0 634 27.0 640Q27.0 647 33.5 650.5Q40.0 654 51.0 654Q79.0 654 105.0 653.0Q131.0 652 156.0 651.0Q181.0 650 207.0 650Q243.0 650 285.5 650.0Q328.0 650 366.0 650Q404.0 650 434.5 655.5Q465.0 661 486.0 661Q492.0 661 499.5 657.5Q507.0 654 508.0 645Q510.0 626 511.0 602.0Q512.0 578 512.5 556.0Q513.0 534 513.0 521Q513.0 501 502.0 501Q497.0 501 491.5 505.0Q486.0 509 484.0 516Q478.0 538 470.5 555.5Q463.0 573 452.0 583Q439.0 598 421.5 604.0Q404.0 610 381.0 610H290.0Q266.0 610 254.5 596.5Q243.0 583 243.0 562Q243.0 544 243.0 519.0Q243.0 494 243.0 472Q243.0 449 243.0 423.0Q243.0 397 243.0 376Q243.0 366 247.5 359.5Q252.0 353 262.0 353Q289.0 353 316.5 354.0Q344.0 355 365.0 355Q389.0 355 402.5 369.0Q416.0 383 424.0 403Q428.0 410 433.5 415.0Q439.0 420 444.0 420Q449.0 420 453.5 415.0Q458.0 410 457.0 400Q455.0 381 453.5 364.5Q452.0 348 452.0 334Q452.0 316 453.0 302.0Q454.0 288 456.0 265Q457.0 254 454.5 248.0Q452.0 242 446.0 242Q438.0 242 431.5 250.0Q425.0 258 423.0 266Q415.0 293 402.5 303.0Q390.0 313 374.0 313Q362.0 313 349.5 313.5Q337.0 314 326.0 314Q311.0 314 295.5 314.0Q280.0 314 265.0 313Q254.0 312 248.0 306.5Q242.0 301 242.0 289Q242.0 243 242.5 195.0Q243.0 147 244.0 99Q245.0 68 261.0 53.0Q277.0 38 317.0 29Q330.0 27 336.0 22.5Q342.0 18 342.0 10Q342.0 3 336.5 0.0Q331.0 -3 320.0 -3Q297.0 -3 272.5 -1.5Q248.0 0 225.5 1.0Q203.0 2 184.0 2Q162.0 2 139.0 1.0Q116.0 0 92.5 -2.0Q69.0 -4 45.0 -4ZM1177.0 -21Q1134.0 -21 1102.0 -11.5Q1070.0 -2 1047.0 16.0Q1024.0 34 1005.0 58Q983.0 88 962.0 116.5Q941.0 145 919.5 179.5Q898.0 214 872.0 262Q859.0 285 839.0 296Q826.0 303 812.5 306.0Q799.0 309 790.0 309Q784.0 310 781.0 304.0Q778.0 298 778.0 289V103Q778.0 72 794.5 55.0Q811.0 38 851.0 29Q864.0 27 870.0 22.5Q876.0 18 876.0 10Q876.0 3 870.5 0.0Q865.0 -3 854.0 -3Q831.0 -3 807.0 -1.5Q783.0 0 760.5 1.0Q738.0 2 718.0 2Q696.0 2 672.5 1.0Q649.0 0 625.0 -2.0Q601.0 -4 577.0 -4Q568.0 -4 561.0 -0.5Q554.0 3 554.0 9Q554.0 24 579.0 29Q617.0 37 633.0 51.0Q649.0 65 649.0 98V540Q649.0 569 644.5 584.5Q640.0 600 627.0 608.0Q614.0 616 588.0 620Q574.0 622 568.0 628.0Q562.0 634 562.0 640Q562.0 647 568.5 650.5Q575.0 654 586.0 654Q616.0 654 634.0 653.0Q652.0 652 668.5 650.5Q685.0 649 708.0 649Q730.0 649 747.0 651.0Q764.0 653 785.0 655.0Q806.0 657 839.0 657Q954.0 657 1015.0 617.0Q1076.0 577 1076.0 495Q1076.0 450 1057.0 418.5Q1038.0 387 1009.5 367.0Q981.0 347 951.0 336Q947.0 335 947.5 331.0Q948.0 327 951.0 324Q981.0 278 1009.5 236.5Q1038.0 195 1069.5 158.0Q1101.0 121 1138.0 87Q1169.0 58 1201.5 52.5Q1234.0 47 1269.0 47Q1284.0 47 1284.0 32Q1284.0 12 1269.0 0.5Q1254.0 -11 1229.5 -16.0Q1205.0 -21 1177.0 -21ZM821.0 338Q862.0 338 889.5 356.5Q917.0 375 931.5 406.0Q946.0 437 946.0 475Q946.0 520 935.0 551.5Q924.0 583 897.5 600.5Q871.0 618 825.0 618Q799.0 618 789.5 599.5Q780.0 581 779.0 525Q778.0 502 778.0 464.5Q778.0 427 778.0 375Q778.0 353 789.5 345.5Q801.0 338 821.0 338ZM1319.0 -4Q1310.0 -4 1303.0 -0.5Q1296.0 3 1296.0 9Q1296.0 24 1321.0 29Q1359.0 37 1376.0 51.0Q1393.0 65 1393.0 97V551Q1393.0 584 1379.0 598.0Q1365.0 612 1326.0 620Q1301.0 625 1301.0 641Q1301.0 647 1308.0 650.5Q1315.0 654 1324.0 654Q1348.0 654 1371.0 653.0Q1394.0 652 1415.5 651.0Q1437.0 650 1459.0 650Q1480.0 650 1501.5 651.0Q1523.0 652 1546.0 653.0Q1569.0 654 1593.0 654Q1603.0 654 1609.0 650.5Q1615.0 647 1615.0 640Q1615.0 632 1608.5 627.5Q1602.0 623 1590.0 620Q1550.0 610 1536.0 596.0Q1522.0 582 1522.0 550V98Q1522.0 67 1538.5 53.0Q1555.0 39 1593.0 29Q1606.0 26 1612.5 22.0Q1619.0 18 1619.0 10Q1619.0 3 1613.0 0.0Q1607.0 -3 1597.0 -3Q1573.0 -3 1549.0 -2.0Q1525.0 -1 1502.5 0.0Q1480.0 1 1459.0 1Q1437.0 1 1414.0 0.0Q1391.0 -1 1367.0 -2.5Q1343.0 -4 1319.0 -4ZM1684.0 -5Q1673.0 -5 1666.5 -1.0Q1660.0 3 1660.0 9Q1660.0 22 1686.0 28Q1722.0 37 1737.5 50.5Q1753.0 64 1753.0 97V550Q1753.0 584 1739.5 598.0Q1726.0 612 1689.0 620Q1675.0 623 1669.0 628.5Q1663.0 634 1663.0 640Q1663.0 647 1669.5 650.5Q1676.0 654 1687.0 654Q1716.0 654 1742.5 653.0Q1769.0 652 1794.0 651.0Q1819.0 650 1846.0 650Q1892.0 650 1943.5 651.0Q1995.0 652 2036.0 652Q2069.0 653 2090.5 655.0Q2112.0 657 2116.0 657Q2123.0 657 2130.5 654.0Q2138.0 651 2139.0 642Q2143.0 609 2149.0 577.0Q2155.0 545 2155.0 521Q2155.0 512 2150.5 507.5Q2146.0 503 2141.0 503Q2136.0 503 2132.0 506.5Q2128.0 510 2125.0 517Q2117.0 540 2110.0 557.0Q2103.0 574 2094.0 583Q2081.0 597 2064.0 605.0Q2047.0 613 2023.0 613H1930.0Q1912.0 613 1897.0 602.5Q1882.0 592 1882.0 573V377Q1882.0 366 1888.5 360.0Q1895.0 354 1904.0 354H1996.0Q2023.0 354 2034.5 369.0Q2046.0 384 2054.0 410Q2061.0 430 2073.0 430Q2078.0 430 2082.0 424.5Q2086.0 419 2086.0 410Q2085.0 400 2084.0 386.0Q2083.0 372 2082.5 358.0Q2082.0 344 2082.0 333Q2082.0 321 2082.5 306.0Q2083.0 291 2083.5 276.5Q2084.0 262 2085.0 252Q2086.0 241 2083.5 235.0Q2081.0 229 2075.0 229Q2059.0 229 2052.0 257Q2044.0 285 2033.0 299.0Q2022.0 313 2003.0 313H1909.0Q1896.0 313 1889.0 308.0Q1882.0 303 1882.0 289V99Q1882.0 66 1896.0 53.0Q1910.0 40 1939.0 40H2021.0Q2046.0 40 2066.5 45.0Q2087.0 50 2102.0 61Q2119.0 73 2132.5 93.5Q2146.0 114 2159.0 139Q2163.0 147 2167.0 149.5Q2171.0 152 2177.0 152Q2182.0 151 2184.5 146.0Q2187.0 141 2187.0 135Q2187.0 121 2182.0 99.0Q2177.0 77 2169.5 53.5Q2162.0 30 2156.0 10Q2153.0 3 2148.0 -0.5Q2143.0 -4 2136.0 -4Q2112.0 -4 2074.5 -3.5Q2037.0 -3 1993.0 -2.0Q1949.0 -1 1903.0 -0.5Q1857.0 0 1815.0 0Q1794.0 0 1772.5 -1.0Q1751.0 -2 1729.0 -3.5Q1707.0 -5 1684.0 -5ZM2882.0 -18Q2870.0 -18 2842.0 -3.0Q2814.0 12 2785.0 49Q2768.0 68 2743.5 95.5Q2719.0 123 2689.5 156.0Q2660.0 189 2628.0 225.0Q2596.0 261 2564.5 297.0Q2533.0 333 2503.0 366.0Q2473.0 399 2448.0 426.5Q2423.0 454 2406.0 474Q2402.0 479 2397.5 482.5Q2393.0 486 2390.0 486Q2386.0 486 2384.0 479.0Q2382.0 472 2382.0 466Q2382.0 420 2382.5 357.0Q2383.0 294 2383.0 229.0Q2383.0 164 2383.0 109Q2383.0 78 2401.0 58.0Q2419.0 38 2458.0 29Q2470.0 27 2478.5 22.5Q2487.0 18 2487.0 10Q2487.0 3 2479.0 0.0Q2471.0 -3 2461.0 -3Q2434.0 -3 2418.0 -2.0Q2402.0 -1 2389.0 0.0Q2376.0 1 2356.0 1Q2335.0 1 2318.5 0.0Q2302.0 -1 2289.0 -2.5Q2276.0 -4 2264.0 -4Q2254.0 -4 2246.0 -0.5Q2238.0 3 2238.0 9Q2238.0 17 2245.5 21.5Q2253.0 26 2266.0 30Q2292.0 38 2304.5 59.5Q2317.0 81 2320.0 111Q2324.0 149 2328.0 210.5Q2332.0 272 2335.5 349.0Q2339.0 426 2339.0 508Q2339.0 560 2312.5 583.0Q2286.0 606 2246.0 620Q2239.0 622 2228.0 628.0Q2217.0 634 2217.0 643Q2217.0 652 2225.0 655.0Q2233.0 658 2242.0 658Q2263.0 658 2284.0 657.0Q2305.0 656 2326.5 655.5Q2348.0 655 2371.5 654.0Q2395.0 653 2422.0 653Q2431.0 653 2435.5 649.5Q2440.0 646 2444.0 640Q2460.0 621 2485.0 592.5Q2510.0 564 2539.5 529.5Q2569.0 495 2601.5 457.0Q2634.0 419 2666.5 381.0Q2699.0 343 2729.0 308.5Q2759.0 274 2783.5 245.5Q2808.0 217 2824.0 199Q2828.0 195 2833.5 189.0Q2839.0 183 2843.0 183Q2851.0 183 2852.0 200Q2852.0 226 2852.0 266.5Q2852.0 307 2852.5 356.5Q2853.0 406 2852.5 458.0Q2852.0 510 2851.0 558Q2850.0 583 2830.5 597.5Q2811.0 612 2782.0 618Q2770.0 621 2759.5 625.5Q2749.0 630 2749.0 639Q2749.0 646 2759.5 649.0Q2770.0 652 2779.0 652Q2799.0 652 2812.5 652.0Q2826.0 652 2838.0 651.5Q2850.0 651 2863.0 651Q2885.0 651 2899.0 651.5Q2913.0 652 2929.5 653.0Q2946.0 654 2973.0 654Q2985.0 654 2992.5 650.5Q3000.0 647 3000.0 641Q3000.0 626 2971.0 620Q2936.0 613 2921.5 601.0Q2907.0 589 2906.0 561Q2906.0 536 2905.5 497.0Q2905.0 458 2904.0 412.0Q2903.0 366 2901.5 318.0Q2900.0 270 2899.5 224.0Q2899.0 178 2899.0 141Q2899.0 117 2901.0 92.0Q2903.0 67 2905.5 47.5Q2908.0 28 2908.0 20Q2908.0 -2 2901.0 -10.0Q2894.0 -18 2882.0 -18ZM3389.0 -7Q3362.0 -7 3324.0 -5.0Q3286.0 -3 3247.5 -1.5Q3209.0 0 3184.0 0Q3164.0 0 3143.5 -0.5Q3123.0 -1 3101.0 -2.5Q3079.0 -4 3054.0 -4Q3045.0 -4 3038.0 -0.5Q3031.0 3 3031.0 10Q3031.0 19 3037.5 23.0Q3044.0 27 3057.0 29Q3095.0 37 3109.0 51.0Q3123.0 65 3123.0 98V550Q3123.0 584 3109.5 598.0Q3096.0 612 3057.0 620Q3044.0 622 3037.5 626.5Q3031.0 631 3031.0 640Q3031.0 647 3038.0 650.5Q3045.0 654 3054.0 654Q3078.0 654 3100.0 653.5Q3122.0 653 3143.5 651.5Q3165.0 650 3187.0 650Q3202.0 650 3227.5 651.5Q3253.0 653 3282.5 654.5Q3312.0 656 3338.0 657.5Q3364.0 659 3380.0 659Q3464.0 659 3531.0 635.0Q3598.0 611 3645.5 568.0Q3693.0 525 3718.0 466.0Q3743.0 407 3743.0 338Q3743.0 269 3718.0 207.0Q3693.0 145 3646.5 97.0Q3600.0 49 3534.5 21.0Q3469.0 -7 3389.0 -7ZM3374.0 39Q3446.0 39 3496.5 73.5Q3547.0 108 3573.0 170.5Q3599.0 233 3599.0 315Q3599.0 383 3581.5 438.5Q3564.0 494 3532.5 532.5Q3501.0 571 3457.5 592.0Q3414.0 613 3363.0 613Q3327.0 613 3302.5 611.0Q3278.0 609 3265.5 599.5Q3253.0 590 3253.0 568V128Q3253.0 93 3268.5 73.5Q3284.0 54 3311.5 46.5Q3339.0 39 3374.0 39ZM3986.0 -15Q3943.0 -15 3904.5 -4.0Q3866.0 7 3834.0 29Q3828.0 34 3823.0 39.5Q3818.0 45 3815.0 52Q3807.0 77 3804.0 113.5Q3801.0 150 3802.0 184Q3802.0 191 3807.5 194.0Q3813.0 197 3821.0 197Q3829.0 197 3833.5 194.5Q3838.0 192 3840.0 185Q3862.0 110 3904.0 68.0Q3946.0 26 3999.0 26Q4032.0 26 4055.0 41.0Q4078.0 56 4090.0 80.0Q4102.0 104 4102.0 132Q4102.0 167 4089.5 190.0Q4077.0 213 4052.0 231.5Q4027.0 250 3989.0 271Q3948.0 295 3909.0 321.5Q3870.0 348 3845.0 384.5Q3820.0 421 3820.0 475Q3820.0 531 3848.5 573.5Q3877.0 616 3928.0 640.0Q3979.0 664 4046.0 664Q4083.0 664 4115.0 656.0Q4147.0 648 4166.0 640Q4177.0 636 4182.5 630.0Q4188.0 624 4191.0 611Q4197.0 590 4201.5 561.0Q4206.0 532 4206.0 500Q4206.0 488 4188.0 488Q4180.0 488 4172.0 492.0Q4164.0 496 4162.0 503Q4144.0 561 4112.5 591.0Q4081.0 621 4035.0 621Q4004.0 621 3982.0 610.5Q3960.0 600 3947.0 578.5Q3934.0 557 3934.0 523Q3934.0 497 3951.5 475.0Q3969.0 453 4000.5 432.0Q4032.0 411 4071.0 386Q4119.0 358 4151.5 329.5Q4184.0 301 4201.0 266.5Q4218.0 232 4218.0 185Q4218.0 119 4189.0 74.5Q4160.0 30 4108.0 7.5Q4056.0 -15 3986.0 -15ZM4304.0 -4Q4295.0 -4 4288.0 0.0Q4281.0 4 4281.0 10Q4281.0 24 4306.0 29Q4342.0 37 4354.0 51.0Q4366.0 65 4366.0 98V551Q4366.0 584 4356.0 598.0Q4346.0 612 4309.0 620Q4284.0 625 4284.0 640Q4284.0 647 4290.5 650.5Q4297.0 654 4307.0 654Q4331.0 654 4352.0 653.0Q4373.0 652 4393.0 651.0Q4413.0 650 4433.0 650Q4453.0 650 4474.5 651.0Q4496.0 652 4519.0 653.0Q4542.0 654 4565.0 654Q4587.0 654 4587.0 639Q4587.0 631 4581.0 627.0Q4575.0 623 4562.0 620Q4523.0 610 4509.5 595.0Q4496.0 580 4496.0 550V364Q4496.0 357 4500.5 354.5Q4505.0 352 4511.0 352H4810.0Q4821.0 352 4821.0 366V551Q4821.0 580 4808.0 595.0Q4795.0 610 4756.0 620Q4743.0 623 4736.5 627.0Q4730.0 631 4730.0 639Q4730.0 654 4752.0 654Q4776.0 654 4800.0 653.0Q4824.0 652 4846.5 651.0Q4869.0 650 4890.0 650Q4909.0 650 4927.0 651.0Q4945.0 652 4965.5 653.0Q4986.0 654 5010.0 654Q5019.0 654 5026.0 650.5Q5033.0 647 5033.0 640Q5033.0 625 5007.0 620Q4972.0 612 4961.5 597.0Q4951.0 582 4951.0 551V98Q4951.0 65 4962.0 51.0Q4973.0 37 5009.0 29Q5034.0 24 5034.0 10Q5034.0 4 5027.0 0.0Q5020.0 -4 5011.0 -4Q4988.0 -4 4967.0 -2.5Q4946.0 -1 4925.5 0.0Q4905.0 1 4885.0 1Q4865.0 1 4843.0 0.0Q4821.0 -1 4798.0 -2.0Q4775.0 -3 4751.0 -3Q4742.0 -3 4736.0 0.5Q4730.0 4 4730.0 11Q4730.0 19 4736.0 22.5Q4742.0 26 4754.0 29Q4790.0 38 4805.5 53.0Q4821.0 68 4821.0 98V288Q4821.0 294 4819.5 299.0Q4818.0 304 4811.0 304H4507.0Q4496.0 304 4496.0 289V102Q4496.0 72 4513.5 55.0Q4531.0 38 4567.0 29Q4580.0 26 4586.0 22.5Q4592.0 19 4592.0 11Q4592.0 4 4586.5 0.5Q4581.0 -3 4570.0 -3Q4547.0 -3 4523.0 -2.0Q4499.0 -1 4476.5 0.0Q4454.0 1 4433.0 1Q4412.0 1 4391.0 0.0Q4370.0 -1 4348.0 -2.5Q4326.0 -4 4304.0 -4ZM5100.0 -4Q5091.0 -4 5084.0 -0.5Q5077.0 3 5077.0 9Q5077.0 24 5102.0 29Q5140.0 37 5157.0 51.0Q5174.0 65 5174.0 97V551Q5174.0 584 5160.0 598.0Q5146.0 612 5107.0 620Q5082.0 625 5082.0 641Q5082.0 647 5089.0 650.5Q5096.0 654 5105.0 654Q5129.0 654 5152.0 653.0Q5175.0 652 5196.5 651.0Q5218.0 650 5240.0 650Q5261.0 650 5282.5 651.0Q5304.0 652 5327.0 653.0Q5350.0 654 5374.0 654Q5384.0 654 5390.0 650.5Q5396.0 647 5396.0 640Q5396.0 632 5389.5 627.5Q5383.0 623 5371.0 620Q5331.0 610 5317.0 596.0Q5303.0 582 5303.0 550V98Q5303.0 67 5319.5 53.0Q5336.0 39 5374.0 29Q5387.0 26 5393.5 22.0Q5400.0 18 5400.0 10Q5400.0 3 5394.0 0.0Q5388.0 -3 5378.0 -3Q5354.0 -3 5330.0 -2.0Q5306.0 -1 5283.5 0.0Q5261.0 1 5240.0 1Q5218.0 1 5195.0 0.0Q5172.0 -1 5148.0 -2.5Q5124.0 -4 5100.0 -4ZM5458.0 -4Q5449.0 -4 5442.0 -0.5Q5435.0 3 5435.0 9Q5435.0 24 5460.0 29Q5498.0 37 5514.0 51.0Q5530.0 65 5530.0 98V538Q5530.0 576 5517.5 594.0Q5505.0 612 5469.0 620Q5455.0 623 5449.0 628.5Q5443.0 634 5443.0 640Q5443.0 647 5449.5 650.5Q5456.0 654 5467.0 654Q5491.0 654 5511.5 653.5Q5532.0 653 5551.0 652.0Q5570.0 651 5590.0 651Q5612.0 651 5631.5 653.0Q5651.0 655 5671.5 657.0Q5692.0 659 5719.0 659Q5838.0 659 5909.0 609.0Q5980.0 559 5980.0 471Q5980.0 409 5954.5 356.5Q5929.0 304 5876.5 272.0Q5824.0 240 5744.0 240Q5719.0 240 5706.0 247.5Q5693.0 255 5693.0 264Q5693.0 270 5699.5 274.5Q5706.0 279 5711.0 279Q5720.0 279 5728.5 277.5Q5737.0 276 5754.0 276Q5801.0 276 5825.5 324.0Q5850.0 372 5850.0 452Q5850.0 540 5814.5 580.5Q5779.0 621 5719.0 621Q5691.0 621 5675.5 609.5Q5660.0 598 5660.0 573L5659.0 104Q5659.0 71 5675.5 54.5Q5692.0 38 5732.0 29Q5745.0 27 5751.0 22.5Q5757.0 18 5757.0 10Q5757.0 3 5751.5 0.0Q5746.0 -3 5735.0 -3Q5712.0 -3 5688.0 -1.5Q5664.0 0 5641.5 1.0Q5619.0 2 5599.0 2Q5577.0 2 5553.5 1.0Q5530.0 0 5506.0 -2.0Q5482.0 -4 5458.0 -4Z" transform="matrix(0.022120 0 0 -0.022120 83.62 390.98)" fill="#15130f"/></svg>