<svg xmlns="http://www.w3.org/2000/svg" viewBox="0 0 300 446"><rect width="300" height="446" fill="#f4ecd8"/><rect x="20.0" y="25.5" width="260" height="395" rx="20.3" fill="#f4ecd8" stroke="#15130f" stroke-width="1.5"/><rect x="36.9" y="42.4" width="226.2" height="354.7" fill="none" stroke="#15130f" stroke-width="0.7"/><g fill="none" stroke="#15130f" stroke-width="0.65" stroke-opacity="0.72" stroke-linecap="round" stroke-linejoin="round"><line x1="36.9" y1="281.5" x2="263.1" y2="281.5"/></g><path d="M36.9,370.6 H263.1 V397.1 H36.9 Z" fill="#d7e8c4"/><g fill="none" stroke="#15130f" stroke-width="0.8"><line x1="36.9" y1="370.6" x2="263.1" y2="370.6"/><line x1="61.6" y1="370.6" x2="61.6" y2="397.1"/><line x1="238.4" y1="370.6" x2="238.4" y2="397.1"/></g><rect x="141.4" y="34.4" width="17.2" height="19.0" fill="#d7e8c4" stroke="#15130f" stroke-width="0.8"/><path d="M649.0 1092V235L647.0 193L657.0 137Q686.0 59 825.0 52Q867.0 50 867.0 28Q867.0 -7 780.0 -7Q761.0 -7 652.0 2Q595.0 7 494.0 7Q394.0 7 322.0 -2Q293.0 -5 280.0 -5Q255.0 -5 255.0 20Q255.0 41 281.0 45Q384.0 61 415.0 92.0Q446.0 123 446.0 210L445.0 248V1010Q445.0 1115 363.0 1115Q331.0 1115 306.0 1104L281.0 1093Q270.0 1089 261.0 1089Q235.0 1089 235.0 1113Q235.0 1137 260.0 1150.0Q285.0 1163 362.0 1180Q506.0 1211 567.0 1267L614.0 1310Q625.0 1320 641.0 1320Q661.0 1320 661.0 1282Q661.0 1271 659.0 1243L651.0 1153Q649.0 1126 649.0 1092Z" transform="matrix(0.006858 0 0 -0.006858 146.22 49.18)" fill="#15130f"/><path d="M101.0 47Q181.0 63 244.0 113Q309.0 164 358.0 252Q477.0 463 477.0 701Q477.0 941 358.0 1151Q310.0 1237 245.0 1288Q180.0 1338 100.0 1353Q188.0 1394 291.0 1405Q333.0 1410 377.0 1410Q670.0 1410 848.5 1205.0Q1027.0 1000 1027.0 699Q1027.0 399 847.0 194.5Q667.0 -10 377.0 -10Q332.0 -10 290.0 -5Q188.0 7 101.0 47ZM498.0 1241Q677.0 1021 677.0 699Q677.0 378 497.0 159Q468.0 124 436.0 94Q607.0 118 708.0 286Q827.0 481 827.0 701Q827.0 923 708.0 1117Q607.0 1281 438.0 1306Q470.0 1276 498.0 1241Z" transform="matrix(0.009268 0 0 -0.009268 44.03 390.35)" fill="#15130f"/><path d="M917.0 -500Q917.0 362 797.0 836.0Q677.0 1310 467.0 1310Q411.0 1310 358.5 1265.0Q306.0 1220 278.0 1135.5Q250.0 1051 250.0 960Q250.0 869 278.0 784.5Q306.0 700 358.5 655.0Q411.0 610 467.0 610Q524.0 610 577.0 655Q605.0 680 641.0 680Q670.0 680 703.0 663Q734.0 647 734.0 628Q734.0 601 677.0 568Q576.0 510 467.0 510Q359.0 510 258.5 568.0Q158.0 626 104.0 734.5Q50.0 843 50.0 960Q50.0 1077 104.0 1185.5Q158.0 1294 258.5 1352.0Q359.0 1410 467.0 1410Q760.0 1410 939.0 959Q983.0 845 1017.0 696Q1051.0 845 1096.0 959Q1274.0 1410 1567.0 1410Q1675.0 1410 1775.5 1352.0Q1876.0 1294 1930.0 1185.5Q1984.0 1077 1984.0 960Q1984.0 843 1930.0 734.5Q1876.0 626 1775.5 568.0Q1675.0 510 1567.0 510Q1458.0 510 1357.0 568Q1300.0 601 1300.0 628Q1300.0 647 1331.0 663Q1364.0 680 1393.0 680Q1429.0 680 1457.0 655Q1510.0 610 1567.0 610Q1623.0 610 1675.5 655.0Q1728.0 700 1756.0 784.5Q1784.0 869 1784.0 960Q1784.0 1051 1756.0 1135.5Q1728.0 1220 1675.5 1265.0Q1623.0 1310 1567.0 1310Q1357.0 1310 1237.0 836.0Q1117.0 362 1117.0 -500Z" transform="matrix(0.009268 0 0 -0.009268 241.32 388.08)" fill="#15130f"/><path d="M42.0 -4Q33.0 -4 26.0 -0.5Q19.0 3 19.0 9Q19.0 24 44.0 29Q82.0 37 98.0 51.0Q114.0 65 114.0 98V538Q114.0 576 101.5 594.0Q89.0 612 53.0 620Q39.0 623 33.0 628.5Q27.0 634 27.0 640Q27.0 647 33.5 650.5Q40.0 654 51.0 654Q75.0 654 95.5 653.5Q116.0 653 135.0 652.0Q154.0 651 174.0 651Q196.0 651 215.5 653.0Q235.0 655 255.5 657.0Q276.0 659 303.0 659Q422.0 659 493.0 609.0Q564.0 559 564.0 471Q564.0 409 538.5 356.5Q513.0 304 460.5 272.0Q408.0 240 328.0 240Q303.0 240 290.0 247.5Q277.0 255 277.0 264Q277.0 270 283.5 274.5Q290.0 279 295.0 279Q304.0 279 312.5 277.5Q321.0 276 338.0 276Q385.0 276 409.5 324.0Q434.0 372 434.0 452Q434.0 540 398.5 580.5Q363.0 621 303.0 621Q275.0 621 259.5 609.5Q244.0 598 244.0 573L243.0 104Q243.0 71 259.5 54.5Q276.0 38 316.0 29Q329.0 27 335.0 22.5Q341.0 18 341.0 10Q341.0 3 335.5 0.0Q330.0 -3 319.0 -3Q296.0 -3 272.0 -1.5Q248.0 0 225.5 1.0Q203.0 2 183.0 2Q161.0 2 137.5 1.0Q114.0 0 90.0 -2.0Q66.0 -4 42.0 -4ZM1231.0 -21Q1188.0 -21 1156.0 -11.5Q1124.0 -2 1101.0 16.0Q1078.0 34 1059.0 58Q1037.0 88 1016.0 116.5Q995.0 145 973.5 179.5Q952.0 214 926.0 262Q913.0 285 893.0 296Q880.0 303 866.5 306.0Q853.0 309 844.0 309Q838.0 310 835.0 304.0Q832.0 298 832.0 289V103Q832.0 72 848.5 55.0Q865.0 38 905.0 29Q918.0 27 924.0 22.5Q930.0 18 930.0 10Q930.0 3 924.5 0.0Q919.0 -3 908.0 -3Q885.0 -3 861.0 -1.5Q837.0 0 814.5 1.0Q792.0 2 772.0 2Q750.0 2 726.5 1.0Q703.0 0 679.0 -2.0Q655.0 -4 631.0 -4Q622.0 -4 615.0 -0.5Q608.0 3 608.0 9Q608.0 24 633.0 29Q671.0 37 687.0 51.0Q703.0 65 703.0 98V540Q703.0 569 698.5 584.5Q694.0 600 681.0 608.0Q668.0 616 642.0 620Q628.0 622 622.0 628.0Q616.0 634 616.0 640Q616.0 647 622.5 650.5Q629.0 654 640.0 654Q670.0 654 688.0 653.0Q706.0 652 722.5 650.5Q739.0 649 762.0 649Q784.0 649 801.0 651.0Q818.0 653 839.0 655.0Q860.0 657 893.0 657Q1008.0 657 1069.0 617.0Q1130.0 577 1130.0 495Q1130.0 450 1111.0 418.5Q1092.0 387 1063.5 367.0Q1035.0 347 1005.0 336Q1001.0 335 1001.5 331.0Q1002.0 327 1005.0 324Q1035.0 278 1063.5 236.5Q1092.0 195 1123.5 158.0Q1155.0 121 1192.0 87Q1223.0 58 1255.5 52.5Q1288.0 47 1323.0 47Q1338.0 47 1338.0 32Q1338.0 12 1323.0 0.5Q1308.0 -11 1283.5 -16.0Q1259.0 -21 1231.0 -21ZM875.0 338Q916.0 338 943.5 356.5Q971.0 375 985.5 406.0Q1000.0 437 1000.0 475Q1000.0 520 989.0 551.5Q978.0 583 951.5 600.5Q925.0 618 879.0 618Q853.0 618 843.5 599.5Q834.0 581 833.0 525Q832.0 502 832.0 464.5Q832.0 427 832.0 375Q832.0 353 843.5 345.5Q855.0 338 875.0 338ZM1709.0 -14Q1641.0 -14 1579.0 9.5Q1517.0 33 1469.5 76.5Q1422.0 120 1394.5 180.5Q1367.0 241 1367.0 315Q1367.0 383 1389.5 445.5Q1412.0 508 1456.5 557.0Q1501.0 606 1566.5 635.0Q1632.0 664 1718.0 664Q1786.0 664 1847.5 640.5Q1909.0 617 1957.0 573.5Q2005.0 530 2032.5 469.5Q2060.0 409 2060.0 335Q2060.0 268 2037.5 205.0Q2015.0 142 1970.5 93.0Q1926.0 44 1860.5 15.0Q1795.0 -14 1709.0 -14ZM1726.0 30Q1789.0 30 1831.5 62.0Q1874.0 94 1895.5 151.5Q1917.0 209 1917.0 284Q1917.0 348 1904.0 408.0Q1891.0 468 1864.0 515.5Q1837.0 563 1796.5 591.0Q1756.0 619 1700.0 619Q1637.0 619 1594.5 587.0Q1552.0 555 1531.0 498.0Q1510.0 441 1510.0 366Q1510.0 302 1523.0 242.0Q1536.0 182 1562.5 134.0Q1589.0 86 1629.5 58.0Q1670.0 30 1726.0 30ZM2303.0 -4Q2293.0 -4 2285.5 -0.5Q2278.0 3 2278.0 9Q2278.0 17 2285.0 22.0Q2292.0 27 2305.0 29Q2343.0 37 2361.0 51.5Q2379.0 66 2379.0 99V504Q2379.0 545 2377.0 566.0Q2375.0 587 2371.5 594.5Q2368.0 602 2361.0 603Q2351.0 607 2336.0 608.0Q2321.0 609 2307.0 609H2276.0Q2247.0 609 2220.0 595.5Q2193.0 582 2178.0 559Q2174.0 553 2165.5 542.0Q2157.0 531 2147.5 522.0Q2138.0 513 2128.0 513Q2121.0 513 2118.5 518.0Q2116.0 523 2116.0 529Q2116.0 541 2122.0 553Q2139.0 587 2147.5 612.5Q2156.0 638 2159.0 673Q2161.0 688 2167.5 692.5Q2174.0 697 2181.0 697Q2187.0 697 2195.5 684.5Q2204.0 672 2211.0 664Q2220.0 655 2243.0 650.5Q2266.0 646 2282.0 646L2651.0 647Q2679.0 647 2698.0 651.5Q2717.0 656 2728.0 661Q2743.0 670 2752.0 679.5Q2761.0 689 2773.0 689Q2778.0 689 2780.5 683.5Q2783.0 678 2783.0 670Q2783.0 665 2782.0 658.5Q2781.0 652 2780.0 647Q2776.0 628 2772.0 613.5Q2768.0 599 2765.5 586.5Q2763.0 574 2763.0 558V541Q2763.0 527 2759.0 517.0Q2755.0 507 2746.0 507Q2738.0 507 2732.5 516.5Q2727.0 526 2721.0 546Q2712.0 578 2691.0 593.5Q2670.0 609 2625.0 609H2557.0Q2538.0 609 2527.5 602.0Q2517.0 595 2512.5 571.5Q2508.0 548 2508.0 499V100Q2508.0 68 2526.0 53.5Q2544.0 39 2583.0 29Q2595.0 26 2602.0 22.0Q2609.0 18 2609.0 10Q2609.0 3 2602.5 0.0Q2596.0 -3 2586.0 -3Q2562.0 -3 2538.0 -2.0Q2514.0 -1 2490.5 0.0Q2467.0 1 2445.0 1Q2423.0 1 2399.5 0.0Q2376.0 -1 2351.5 -2.5Q2327.0 -4 2303.0 -4ZM2830.0 -5Q2819.0 -5 2812.5 -1.0Q2806.0 3 2806.0 9Q2806.0 22 2832.0 28Q2868.0 37 2883.5 50.5Q2899.0 64 2899.0 97V550Q2899.0 584 2885.5 598.0Q2872.0 612 2835.0 620Q2821.0 623 2815.0 628.5Q2809.0 634 2809.0 640Q2809.0 647 2815.5 650.5Q2822.0 654 2833.0 654Q2862.0 654 2888.5 653.0Q2915.0 652 2940.0 651.0Q2965.0 650 2992.0 650Q3038.0 650 3089.5 651.0Q3141.0 652 3182.0 652Q3215.0 653 3236.5 655.0Q3258.0 657 3262.0 657Q3269.0 657 3276.5 654.0Q3284.0 651 3285.0 642Q3289.0 609 3295.0 577.0Q3301.0 545 3301.0 521Q3301.0 512 3296.5 507.5Q3292.0 503 3287.0 503Q3282.0 503 3278.0 506.5Q3274.0 510 3271.0 517Q3263.0 540 3256.0 557.0Q3249.0 574 3240.0 583Q3227.0 597 3210.0 605.0Q3193.0 613 3169.0 613H3076.0Q3058.0 613 3043.0 602.5Q3028.0 592 3028.0 573V377Q3028.0 366 3034.5 360.0Q3041.0 354 3050.0 354H3142.0Q3169.0 354 3180.5 369.0Q3192.0 384 3200.0 410Q3207.0 430 3219.0 430Q3224.0 430 3228.0 424.5Q3232.0 419 3232.0 410Q3231.0 400 3230.0 386.0Q3229.0 372 3228.5 358.0Q3228.0 344 3228.0 333Q3228.0 321 3228.5 306.0Q3229.0 291 3229.5 276.5Q3230.0 262 3231.0 252Q3232.0 241 3229.5 235.0Q3227.0 229 3221.0 229Q3205.0 229 3198.0 257Q3190.0 285 3179.0 299.0Q3168.0 313 3149.0 313H3055.0Q3042.0 313 3035.0 308.0Q3028.0 303 3028.0 289V99Q3028.0 66 3042.0 53.0Q3056.0 40 3085.0 40H3167.0Q3192.0 40 3212.5 45.0Q3233.0 50 3248.0 61Q3265.0 73 3278.5 93.5Q3292.0 114 3305.0 139Q3309.0 147 3313.0 149.5Q3317.0 152 3323.0 152Q3328.0 151 3330.5 146.0Q3333.0 141 3333.0 135Q3333.0 121 3328.0 99.0Q3323.0 77 3315.5 53.5Q3308.0 30 3302.0 10Q3299.0 3 3294.0 -0.5Q3289.0 -4 3282.0 -4Q3258.0 -4 3220.5 -3.5Q3183.0 -3 3139.0 -2.0Q3095.0 -1 3049.0 -0.5Q3003.0 0 2961.0 0Q2940.0 0 2918.5 -1.0Q2897.0 -2 2875.0 -3.5Q2853.0 -5 2830.0 -5ZM3757.0 -14Q3682.0 -14 3615.0 9.5Q3548.0 33 3496.5 77.0Q3445.0 121 3415.5 182.5Q3386.0 244 3386.0 319Q3386.0 389 3415.0 451.0Q3444.0 513 3497.0 561.0Q3550.0 609 3623.5 636.5Q3697.0 664 3785.0 664Q3819.0 664 3849.5 659.5Q3880.0 655 3909.0 648.5Q3938.0 642 3966.0 632Q3977.0 628 3983.5 621.0Q3990.0 614 3991.0 602Q3995.0 572 3997.0 542.5Q3999.0 513 3999.0 484Q4000.0 474 3992.0 469.5Q3984.0 465 3975.0 468.5Q3966.0 472 3962.0 483Q3954.0 511 3943.5 535.5Q3933.0 560 3912.0 577Q3889.0 596 3854.0 607.5Q3819.0 619 3772.0 619Q3718.0 619 3674.0 597.0Q3630.0 575 3598.5 536.0Q3567.0 497 3550.0 448.0Q3533.0 399 3533.0 345Q3533.0 281 3548.5 224.0Q3564.0 167 3595.5 123.5Q3627.0 80 3672.0 55.5Q3717.0 31 3775.0 31Q3849.0 31 3895.0 63.0Q3941.0 95 3973.0 158Q3981.0 174 3995.0 173.5Q4009.0 173 4009.0 157Q4009.0 145 4006.0 127.0Q4003.0 109 3997.5 88.5Q3992.0 68 3985.0 48Q3981.0 36 3975.0 30.0Q3969.0 24 3957.0 19Q3919.0 3 3867.5 -5.5Q3816.0 -14 3757.0 -14ZM4270.0 -4Q4260.0 -4 4252.5 -0.5Q4245.0 3 4245.0 9Q4245.0 17 4252.0 22.0Q4259.0 27 4272.0 29Q4310.0 37 4328.0 51.5Q4346.0 66 4346.0 99V504Q4346.0 545 4344.0 566.0Q4342.0 587 4338.5 594.5Q4335.0 602 4328.0 603Q4318.0 607 4303.0 608.0Q4288.0 609 4274.0 609H4243.0Q4214.0 609 4187.0 595.5Q4160.0 582 4145.0 559Q4141.0 553 4132.5 542.0Q4124.0 531 4114.5 522.0Q4105.0 513 4095.0 513Q4088.0 513 4085.5 518.0Q4083.0 523 4083.0 529Q4083.0 541 4089.0 553Q4106.0 587 4114.5 612.5Q4123.0 638 4126.0 673Q4128.0 688 4134.5 692.5Q4141.0 697 4148.0 697Q4154.0 697 4162.5 684.5Q4171.0 672 4178.0 664Q4187.0 655 4210.0 650.5Q4233.0 646 4249.0 646L4618.0 647Q4646.0 647 4665.0 651.5Q4684.0 656 4695.0 661Q4710.0 670 4719.0 679.5Q4728.0 689 4740.0 689Q4745.0 689 4747.5 683.5Q4750.0 678 4750.0 670Q4750.0 665 4749.0 658.5Q4748.0 652 4747.0 647Q4743.0 628 4739.0 613.5Q4735.0 599 4732.5 586.5Q4730.0 574 4730.0 558V541Q4730.0 527 4726.0 517.0Q4722.0 507 4713.0 507Q4705.0 507 4699.5 516.5Q4694.0 526 4688.0 546Q4679.0 578 4658.0 593.5Q4637.0 609 4592.0 609H4524.0Q4505.0 609 4494.5 602.0Q4484.0 595 4479.5 571.5Q4475.0 548 4475.0 499V100Q4475.0 68 4493.0 53.5Q4511.0 39 4550.0 29Q4562.0 26 4569.0 22.0Q4576.0 18 4576.0 10Q4576.0 3 4569.5 0.0Q4563.0 -3 4553.0 -3Q4529.0 -3 4505.0 -2.0Q4481.0 -1 4457.5 0.0Q4434.0 1 4412.0 1Q4390.0 1 4366.5 0.0Q4343.0 -1 4318.5 -2.5Q4294.0 -4 4270.0 -4ZM4788.0 -4Q4779.0 -4 4772.0 -0.5Q4765.0 3 4765.0 9Q4765.0 24 4790.0 29Q4828.0 37 4845.0 51.0Q4862.0 65 4862.0 97V551Q4862.0 584 4848.0 598.0Q4834.0 612 4795.0 620Q4770.0 625 4770.0 641Q4770.0 647 4777.0 650.5Q4784.0 654 4793.0 654Q4817.0 654 4840.0 653.0Q4863.0 652 4884.5 651.0Q4906.0 650 4928.0 650Q4949.0 650 4970.5 651.0Q4992.0 652 5015.0 653.0Q5038.0 654 5062.0 654Q5072.0 654 5078.0 650.5Q5084.0 647 5084.0 640Q5084.0 632 5077.5 627.5Q5071.0 623 5059.0 620Q5019.0 610 5005.0 596.0Q4991.0 582 4991.0 550V98Q4991.0 67 5007.5 53.0Q5024.0 39 5062.0 29Q5075.0 26 5081.5 22.0Q5088.0 18 5088.0 10Q5088.0 3 5082.0 0.0Q5076.0 -3 5066.0 -3Q5042.0 -3 5018.0 -2.0Q4994.0 -1 4971.5 0.0Q4949.0 1 4928.0 1Q4906.0 1 4883.0 0.0Q4860.0 -1 4836.0 -2.5Q4812.0 -4 4788.0 -4ZM5480.0 -14Q5412.0 -14 5350.0 9.5Q5288.0 33 5240.5 76.5Q5193.0 120 5165.5 180.5Q5138.0 241 5138.0 315Q5138.0 383 5160.5 445.5Q5183.0 508 5227.5 557.0Q5272.0 606 5337.5 635.0Q5403.0 664 5489.0 664Q5557.0 664 5618.5 640.5Q5680.0 617 5728.0 573.5Q5776.0 530 5803.5 469.5Q5831.0 409 5831.0 335Q5831.0 268 5808.5 205.0Q5786.0 142 5741.5 93.0Q5697.0 44 5631.5 15.0Q5566.0 -14 5480.0 -14ZM5497.0 30Q5560.0 30 5602.5 62.0Q5645.0 94 5666.5 151.5Q5688.0 209 5688.0 284Q5688.0 348 5675.0 408.0Q5662.0 468 5635.0 515.5Q5608.0 563 5567.5 591.0Q5527.0 619 5471.0 619Q5408.0 619 5365.5 587.0Q5323.0 555 5302.0 498.0Q5281.0 441 5281.0 366Q5281.0 302 5294.0 242.0Q5307.0 182 5333.5 134.0Q5360.0 86 5400.5 58.0Q5441.0 30 5497.0 30ZM6541.0 -18Q6529.0 -18 6501.0 -3.0Q6473.0 12 6444.0 49Q6427.0 68 6402.5 95.5Q6378.0 123 6348.5 156.0Q6319.0 189 6287.0 225.0Q6255.0 261 6223.5 297.0Q6192.0 333 6162.0 366.0Q6132.0 399 6107.0 426.5Q6082.0 454 6065.0 474Q6061.0 479 6056.5 482.5Q6052.0 486 6049.0 486Q6045.0 486 6043.0 479.0Q6041.0 472 6041.0 466Q6041.0 420 6041.5 357.0Q6042.0 294 6042.0 229.0Q6042.0 164 6042.0 109Q6042.0 78 6060.0 58.0Q6078.0 38 6117.0 29Q6129.0 27 6137.5 22.5Q6146.0 18 6146.0 10Q6146.0 3 6138.0 0.0Q6130.0 -3 6120.0 -3Q6093.0 -3 6077.0 -2.0Q6061.0 -1 6048.0 0.0Q6035.0 1 6015.0 1Q5994.0 1 5977.5 0.0Q5961.0 -1 5948.0 -2.5Q5935.0 -4 5923.0 -4Q5913.0 -4 5905.0 -0.5Q5897.0 3 5897.0 9Q5897.0 17 5904.5 21.5Q5912.0 26 5925.0 30Q5951.0 38 5963.5 59.5Q5976.0 81 5979.0 111Q5983.0 149 5987.0 210.5Q5991.0 272 5994.5 349.0Q5998.0 426 5998.0 508Q5998.0 560 5971.5 583.0Q5945.0 606 5905.0 620Q5898.0 622 5887.0 628.0Q5876.0 634 5876.0 643Q5876.0 652 5884.0 655.0Q5892.0 658 5901.0 658Q5922.0 658 5943.0 657.0Q5964.0 656 5985.5 655.5Q6007.0 655 6030.5 654.0Q6054.0 653 6081.0 653Q6090.0 653 6094.5 649.5Q6099.0 646 6103.0 640Q6119.0 621 6144.0 592.5Q6169.0 564 6198.5 529.5Q6228.0 495 6260.5 457.0Q6293.0 419 6325.5 381.0Q6358.0 343 6388.0 308.5Q6418.0 274 6442.5 245.5Q6467.0 217 6483.0 199Q6487.0 195 6492.5 189.0Q6498.0 183 6502.0 183Q6510.0 183 6511.0 200Q6511.0 226 6511.0 266.5Q6511.0 307 6511.5 356.5Q6512.0 406 6511.5 458.0Q6511.0 510 6510.0 558Q6509.0 583 6489.5 597.5Q6470.0 612 6441.0 618Q6429.0 621 6418.5 625.5Q6408.0 630 6408.0 639Q6408.0 646 6418.5 649.0Q6429.0 652 6438.0 652Q6458.0 652 6471.5 652.0Q6485.0 652 6497.0 651.5Q6509.0 651 6522.0 651Q6544.0 651 6558.0 651.5Q6572.0 652 6588.5 653.0Q6605.0 654 6632.0 654Q6644.0 654 6651.5 650.5Q6659.0 647 6659.0 641Q6659.0 626 6630.0 620Q6595.0 613 6580.5 601.0Q6566.0 589 6565.0 561Q6565.0 536 6564.5 497.0Q6564.0 458 6563.0 412.0Q6562.0 366 6560.5 318.0Q6559.0 270 6558.5 224.0Q6558.0 178 6558.0 141Q6558.0 117 6560.0 92.0Q6562.0 67 6564.5 47.5Q6567.0 28 6567.0 20Q6567.0 -2 6560.0 -10.0Q6553.0 -18 6541.0 -18Z" transform="matrix(0.022120 0 0 -0.022120 76.14 391.34)" fill="#15130f"/></svg>