<svg xmlns="http://www.w3.org/2000/svg" viewBox="0 0 300 446"><rect width="300" height="446" fill="#f4ecd8"/><rect x="20.0" y="25.5" width="260" height="395" rx="20.3" fill="#f4ecd8" stroke="#15130f" stroke-width="1.5"/><rect x="36.9" y="42.4" width="226.2" height="354.7" fill="none" stroke="#15130f" stroke-width="0.7"/><g fill="none" stroke="#15130f" stroke-width="0.65" stroke-opacity="0.72" stroke-linecap="round" stroke-linejoin="round"><line x1="36.9" y1="210.4" x2="263.1" y2="210.4"/></g><path d="M36.9,370.6 H263.1 V397.1 H36.9 Z" fill="#d9cf9a"/><g fill="none" stroke="#15130f" stroke-width="0.8"><line x1="36.9" y1="370.6" x2="263.1" y2="370.6"/><line x1="61.6" y1="370.6" x2="61.6" y2="397.1"/><line x1="238.4" y1="370.6" x2="238.4" y2="397.1"/></g><rect x="141.4" y="34.4" width="17.2" height="19.0" fill="#d9cf9a" stroke="#15130f" stroke-width="0.8"/><path d="M853.0 1316Q873.0 1316 875.0 1308L880.0 1293L883.0 1279Q881.0 1265 840.0 1259Q750.0 1244 640.0 1176.5Q530.0 1109 463.0 1027Q420.0 973 377.5 882.5Q335.0 792 335.0 753Q335.0 727 354.0 728Q367.0 729 385.0 742Q435.0 777 512.0 803.0Q589.0 829 645.0 829Q781.0 829 874.5 722.0Q968.0 615 968.0 459Q968.0 243 841.0 108.0Q714.0 -27 511.0 -27Q313.0 -27 187.5 122.5Q62.0 272 62.0 508Q62.0 756 224.0 971.5Q386.0 1187 633.0 1268Q779.0 1316 853.0 1316ZM501.0 715Q402.0 715 337.5 638.5Q273.0 562 273.0 445Q273.0 284 361.5 159.5Q450.0 35 565.0 35Q658.0 35 715.0 113.0Q772.0 191 772.0 318Q772.0 497 697.5 606.0Q623.0 715 501.0 715Z" transform="matrix(0.006858 0 0 -0.006858 146.47 49.10)" fill="#15130f"/><path d="M450.0 1050V690Q569.0 900 750.0 900Q934.0 900 1042.0 757.0Q1150.0 614 1150.0 429Q1150.0 290 1050.0 130.5Q950.0 -29 950.0 -150Q950.0 -420 1132.0 -450Q1179.0 -450 1240.0 -420L1260.0 -450Q1183.0 -500 1102.0 -500Q954.0 -500 852.0 -391.0Q750.0 -282 750.0 -150Q750.0 -44 850.0 129.5Q950.0 303 950.0 429Q950.0 573 887.5 686.5Q825.0 800 706.0 800Q551.0 800 450.0 576V200Q450.0 150 490.0 95.0Q530.0 40 600.0 40H650.0V0H50.0V40H100.0Q170.0 40 210.0 95.0Q250.0 150 250.0 200V1050H50.0V1150H250.0V1200Q250.0 1250 210.0 1305.0Q170.0 1360 100.0 1360H50.0V1400H650.0V1360H600.0Q530.0 1360 490.0 1305.0Q450.0 1250 450.0 1200V1150H650.0V1050Z" transform="matrix(0.009268 0 0 -0.009268 43.18 388.04)" fill="#15130f"/><path d="M1450.0 635V-198Q1651.0 -179 1769.0 -4Q1900.0 191 1900.0 410Q1900.0 633 1769.0 827Q1742.0 865 1711.0 896ZM1259.0 -187Q1250.0 -126 1250.0 -52V1067Q1250.0 1212 1241.5 1255.5Q1233.0 1299 1212.5 1317.5Q1192.0 1336 1168.0 1336L938.0 1106Q950.0 1037 950.0 952V0H750.0V1067Q750.0 1212 741.5 1255.5Q733.0 1299 712.5 1317.5Q692.0 1336 668.0 1336L438.0 1106Q450.0 1037 450.0 952V0H50.0V40H100.0Q170.0 40 210.0 95.0Q250.0 150 250.0 200V1067Q250.0 1212 241.5 1255.5Q233.0 1299 212.5 1317.5Q192.0 1336 168.0 1336V1410Q284.0 1392 358.0 1301Q387.0 1264 408.0 1216L602.0 1410H668.0Q784.0 1392 858.0 1301Q887.0 1264 908.0 1216L1102.0 1410H1168.0Q1284.0 1392 1358.0 1301Q1450.0 1187 1450.0 952V775L1726.0 1051Q1824.0 1007 1908.0 915Q2100.0 710 2100.0 410Q2100.0 109 1906.0 -95Q1729.0 -282 1453.0 -298Q1455.0 -337 1459.0 -355Q1467.0 -399 1487.5 -417.5Q1508.0 -436 1532.0 -436V-510Q1416.0 -491 1343.0 -401Q1305.0 -354 1282.0 -286Q1118.0 -247 974.0 -95Q963.0 -83 952.0 -71L977.0 -36Q1088.0 -154 1259.0 -187Z" transform="matrix(0.008916 0 0 -0.008916 241.17 387.88)" fill="#15130f"/><path d="M40.0 -4Q31.0 -4 24.0 -0.5Q17.0 3 17.0 9Q17.0 24 42.0 29Q80.0 37 97.0 51.0Q114.0 65 114.0 97V551Q114.0 584 100.0 598.0Q86.0 612 47.0 620Q22.0 625 22.0 641Q22.0 647 29.0 650.5Q36.0 654 45.0 654Q69.0 654 92.0 653.0Q115.0 652 136.5 651.0Q158.0 650 180.0 650Q201.0 650 222.5 651.0Q244.0 652 267.0 653.0Q290.0 654 314.0 654Q324.0 654 330.0 650.5Q336.0 647 336.0 640Q336.0 632 329.5 627.5Q323.0 623 311.0 620Q271.0 610 257.0 596.0Q243.0 582 243.0 550V98Q243.0 67 259.5 53.0Q276.0 39 314.0 29Q327.0 26 333.5 22.0Q340.0 18 340.0 10Q340.0 3 334.0 0.0Q328.0 -3 318.0 -3Q294.0 -3 270.0 -2.0Q246.0 -1 223.5 0.0Q201.0 1 180.0 1Q158.0 1 135.0 0.0Q112.0 -1 88.0 -2.5Q64.0 -4 40.0 -4ZM570.0 -15Q527.0 -15 488.5 -4.0Q450.0 7 418.0 29Q412.0 34 407.0 39.5Q402.0 45 399.0 52Q391.0 77 388.0 113.5Q385.0 150 386.0 184Q386.0 191 391.5 194.0Q397.0 197 405.0 197Q413.0 197 417.5 194.5Q422.0 192 424.0 185Q446.0 110 488.0 68.0Q530.0 26 583.0 26Q616.0 26 639.0 41.0Q662.0 56 674.0 80.0Q686.0 104 686.0 132Q686.0 167 673.5 190.0Q661.0 213 636.0 231.5Q611.0 250 573.0 271Q532.0 295 493.0 321.5Q454.0 348 429.0 384.5Q404.0 421 404.0 475Q404.0 531 432.5 573.5Q461.0 616 512.0 640.0Q563.0 664 630.0 664Q667.0 664 699.0 656.0Q731.0 648 750.0 640Q761.0 636 766.5 630.0Q772.0 624 775.0 611Q781.0 590 785.5 561.0Q790.0 532 790.0 500Q790.0 488 772.0 488Q764.0 488 756.0 492.0Q748.0 496 746.0 503Q728.0 561 696.5 591.0Q665.0 621 619.0 621Q588.0 621 566.0 610.5Q544.0 600 531.0 578.5Q518.0 557 518.0 523Q518.0 497 535.5 475.0Q553.0 453 584.5 432.0Q616.0 411 655.0 386Q703.0 358 735.5 329.5Q768.0 301 785.0 266.5Q802.0 232 802.0 185Q802.0 119 773.0 74.5Q744.0 30 692.0 7.5Q640.0 -15 570.0 -15ZM1216.0 -14Q1148.0 -14 1086.0 9.5Q1024.0 33 976.5 76.5Q929.0 120 901.5 180.5Q874.0 241 874.0 315Q874.0 383 896.5 445.5Q919.0 508 963.5 557.0Q1008.0 606 1073.5 635.0Q1139.0 664 1225.0 664Q1293.0 664 1354.5 640.5Q1416.0 617 1464.0 573.5Q1512.0 530 1539.5 469.5Q1567.0 409 1567.0 335Q1567.0 268 1544.5 205.0Q1522.0 142 1477.5 93.0Q1433.0 44 1367.5 15.0Q1302.0 -14 1216.0 -14ZM1233.0 30Q1296.0 30 1338.5 62.0Q1381.0 94 1402.5 151.5Q1424.0 209 1424.0 284Q1424.0 348 1411.0 408.0Q1398.0 468 1371.0 515.5Q1344.0 563 1303.5 591.0Q1263.0 619 1207.0 619Q1144.0 619 1101.5 587.0Q1059.0 555 1038.0 498.0Q1017.0 441 1017.0 366Q1017.0 302 1030.0 242.0Q1043.0 182 1069.5 134.0Q1096.0 86 1136.5 58.0Q1177.0 30 1233.0 30ZM1647.0 -5Q1636.0 -5 1630.0 -0.5Q1624.0 4 1624.0 9Q1624.0 17 1631.0 21.5Q1638.0 26 1645.0 28Q1681.0 37 1698.0 50.5Q1715.0 64 1715.0 95V555Q1715.0 578 1709.5 590.0Q1704.0 602 1690.5 608.5Q1677.0 615 1651.0 620Q1625.0 625 1625.0 641Q1625.0 647 1632.0 650.5Q1639.0 654 1648.0 654Q1673.0 654 1695.5 653.0Q1718.0 652 1739.0 651.0Q1760.0 650 1781.0 650Q1804.0 650 1827.5 651.0Q1851.0 652 1875.5 653.0Q1900.0 654 1923.0 654Q1933.0 654 1939.0 650.5Q1945.0 647 1945.0 640Q1945.0 632 1938.5 627.5Q1932.0 623 1920.0 620Q1881.0 610 1862.5 598.5Q1844.0 587 1844.0 558V101Q1844.0 72 1857.0 58.5Q1870.0 45 1906.0 45H2015.0Q2038.0 45 2057.0 53.0Q2076.0 61 2088.0 73Q2106.0 89 2118.0 107.0Q2130.0 125 2141.0 149Q2148.0 164 2154.0 172.0Q2160.0 180 2166.0 180Q2173.0 180 2176.0 173.5Q2179.0 167 2179.0 160Q2179.0 159 2178.0 154.0Q2177.0 149 2177.0 146Q2169.0 117 2163.5 96.0Q2158.0 75 2154.5 55.5Q2151.0 36 2148.0 13Q2147.0 6 2144.0 0.5Q2141.0 -5 2132.0 -5Q2102.0 -5 2060.0 -4.0Q2018.0 -3 1971.0 -2.5Q1924.0 -2 1876.5 -1.0Q1829.0 0 1787.0 0Q1765.0 0 1736.5 -1.0Q1708.0 -2 1683.0 -3.5Q1658.0 -5 1647.0 -5ZM2210.0 -5Q2198.0 -5 2190.0 -1.5Q2182.0 2 2182.0 10Q2182.0 19 2189.5 24.0Q2197.0 29 2209.0 33Q2238.0 41 2259.5 57.5Q2281.0 74 2294.0 103Q2319.0 162 2342.0 216.5Q2365.0 271 2386.0 325.0Q2407.0 379 2428.5 435.0Q2450.0 491 2472.0 553Q2483.0 584 2487.0 601.0Q2491.0 618 2494.0 626Q2509.0 630 2522.0 634.0Q2535.0 638 2551.0 644Q2565.0 651 2575.0 662.0Q2585.0 673 2590.0 679Q2593.0 681 2596.0 681.5Q2599.0 682 2602.0 677Q2605.0 671 2607.0 665.0Q2609.0 659 2611.0 652Q2633.0 581 2656.5 508.5Q2680.0 436 2703.0 365.5Q2726.0 295 2747.5 230.5Q2769.0 166 2787.0 112Q2796.0 85 2809.5 69.0Q2823.0 53 2839.5 44.5Q2856.0 36 2876.0 31Q2889.0 28 2896.0 23.0Q2903.0 18 2903.0 9Q2903.0 3 2896.5 0.0Q2890.0 -3 2880.0 -3Q2862.0 -3 2834.5 -2.0Q2807.0 -1 2778.0 0.5Q2749.0 2 2726.0 2Q2706.0 2 2681.5 1.0Q2657.0 0 2632.5 -1.0Q2608.0 -2 2591.0 -2Q2581.0 -2 2573.5 1.5Q2566.0 5 2566.0 12Q2566.0 20 2574.0 25.5Q2582.0 31 2593.0 33Q2629.0 39 2645.0 51.5Q2661.0 64 2657.0 88Q2654.0 105 2648.0 128.5Q2642.0 152 2635.5 177.5Q2629.0 203 2622.0 224Q2620.0 232 2616.0 235.5Q2612.0 239 2601.0 239H2421.0Q2414.0 239 2410.0 234.5Q2406.0 230 2404.0 221Q2400.0 208 2394.5 191.5Q2389.0 175 2383.5 157.5Q2378.0 140 2373.5 125.0Q2369.0 110 2367.0 99Q2362.0 72 2376.5 56.5Q2391.0 41 2427.0 32Q2454.0 25 2454.0 11Q2454.0 5 2447.5 1.5Q2441.0 -2 2429.0 -2Q2406.0 -2 2381.0 -0.5Q2356.0 1 2326.0 1Q2296.0 1 2267.5 -2.0Q2239.0 -5 2210.0 -5ZM2448.0 285H2587.0Q2601.0 285 2601.0 291Q2601.0 294 2600.5 296.0Q2600.0 298 2599.0 302L2529.0 533Q2525.0 547 2522.0 547Q2520.0 547 2515.0 534L2431.0 302Q2429.0 297 2429.0 294Q2429.0 289 2434.5 287.0Q2440.0 285 2448.0 285ZM3106.0 -4Q3096.0 -4 3088.5 -0.5Q3081.0 3 3081.0 9Q3081.0 17 3088.0 22.0Q3095.0 27 3108.0 29Q3146.0 37 3164.0 51.5Q3182.0 66 3182.0 99V504Q3182.0 545 3180.0 566.0Q3178.0 587 3174.5 594.5Q3171.0 602 3164.0 603Q3154.0 607 3139.0 608.0Q3124.0 609 3110.0 609H3079.0Q3050.0 609 3023.0 595.5Q2996.0 582 2981.0 559Q2977.0 553 2968.5 542.0Q2960.0 531 2950.5 522.0Q2941.0 513 2931.0 513Q2924.0 513 2921.5 518.0Q2919.0 523 2919.0 529Q2919.0 541 2925.0 553Q2942.0 587 2950.5 612.5Q2959.0 638 2962.0 673Q2964.0 688 2970.5 692.5Q2977.0 697 2984.0 697Q2990.0 697 2998.5 684.5Q3007.0 672 3014.0 664Q3023.0 655 3046.0 650.5Q3069.0 646 3085.0 646L3454.0 647Q3482.0 647 3501.0 651.5Q3520.0 656 3531.0 661Q3546.0 670 3555.0 679.5Q3564.0 689 3576.0 689Q3581.0 689 3583.5 683.5Q3586.0 678 3586.0 670Q3586.0 665 3585.0 658.5Q3584.0 652 3583.0 647Q3579.0 628 3575.0 613.5Q3571.0 599 3568.5 586.5Q3566.0 574 3566.0 558V541Q3566.0 527 3562.0 517.0Q3558.0 507 3549.0 507Q3541.0 507 3535.5 516.5Q3530.0 526 3524.0 546Q3515.0 578 3494.0 593.5Q3473.0 609 3428.0 609H3360.0Q3341.0 609 3330.5 602.0Q3320.0 595 3315.5 571.5Q3311.0 548 3311.0 499V100Q3311.0 68 3329.0 53.5Q3347.0 39 3386.0 29Q3398.0 26 3405.0 22.0Q3412.0 18 3412.0 10Q3412.0 3 3405.5 0.0Q3399.0 -3 3389.0 -3Q3365.0 -3 3341.0 -2.0Q3317.0 -1 3293.5 0.0Q3270.0 1 3248.0 1Q3226.0 1 3202.5 0.0Q3179.0 -1 3154.5 -2.5Q3130.0 -4 3106.0 -4ZM3624.0 -4Q3615.0 -4 3608.0 -0.5Q3601.0 3 3601.0 9Q3601.0 24 3626.0 29Q3664.0 37 3681.0 51.0Q3698.0 65 3698.0 97V551Q3698.0 584 3684.0 598.0Q3670.0 612 3631.0 620Q3606.0 625 3606.0 641Q3606.0 647 3613.0 650.5Q3620.0 654 3629.0 654Q3653.0 654 3676.0 653.0Q3699.0 652 3720.5 651.0Q3742.0 650 3764.0 650Q3785.0 650 3806.5 651.0Q3828.0 652 3851.0 653.0Q3874.0 654 3898.0 654Q3908.0 654 3914.0 650.5Q3920.0 647 3920.0 640Q3920.0 632 3913.5 627.5Q3907.0 623 3895.0 620Q3855.0 610 3841.0 596.0Q3827.0 582 3827.0 550V98Q3827.0 67 3843.5 53.0Q3860.0 39 3898.0 29Q3911.0 26 3917.5 22.0Q3924.0 18 3924.0 10Q3924.0 3 3918.0 0.0Q3912.0 -3 3902.0 -3Q3878.0 -3 3854.0 -2.0Q3830.0 -1 3807.5 0.0Q3785.0 1 3764.0 1Q3742.0 1 3719.0 0.0Q3696.0 -1 3672.0 -2.5Q3648.0 -4 3624.0 -4ZM4316.0 -14Q4248.0 -14 4186.0 9.5Q4124.0 33 4076.5 76.5Q4029.0 120 4001.5 180.5Q3974.0 241 3974.0 315Q3974.0 383 3996.5 445.5Q4019.0 508 4063.5 557.0Q4108.0 606 4173.5 635.0Q4239.0 664 4325.0 664Q4393.0 664 4454.5 640.5Q4516.0 617 4564.0 573.5Q4612.0 530 4639.5 469.5Q4667.0 409 4667.0 335Q4667.0 268 4644.5 205.0Q4622.0 142 4577.5 93.0Q4533.0 44 4467.5 15.0Q4402.0 -14 4316.0 -14ZM4333.0 30Q4396.0 30 4438.5 62.0Q4481.0 94 4502.5 151.5Q4524.0 209 4524.0 284Q4524.0 348 4511.0 408.0Q4498.0 468 4471.0 515.5Q4444.0 563 4403.5 591.0Q4363.0 619 4307.0 619Q4244.0 619 4201.5 587.0Q4159.0 555 4138.0 498.0Q4117.0 441 4117.0 366Q4117.0 302 4130.0 242.0Q4143.0 182 4169.5 134.0Q4196.0 86 4236.5 58.0Q4277.0 30 4333.0 30ZM5377.0 -18Q5365.0 -18 5337.0 -3.0Q5309.0 12 5280.0 49Q5263.0 68 5238.5 95.5Q5214.0 123 5184.5 156.0Q5155.0 189 5123.0 225.0Q5091.0 261 5059.5 297.0Q5028.0 333 4998.0 366.0Q4968.0 399 4943.0 426.5Q4918.0 454 4901.0 474Q4897.0 479 4892.5 482.5Q4888.0 486 4885.0 486Q4881.0 486 4879.0 479.0Q4877.0 472 4877.0 466Q4877.0 420 4877.5 357.0Q4878.0 294 4878.0 229.0Q4878.0 164 4878.0 109Q4878.0 78 4896.0 58.0Q4914.0 38 4953.0 29Q4965.0 27 4973.5 22.5Q4982.0 18 4982.0 10Q4982.0 3 4974.0 0.0Q4966.0 -3 4956.0 -3Q4929.0 -3 4913.0 -2.0Q4897.0 -1 4884.0 0.0Q4871.0 1 4851.0 1Q4830.0 1 4813.5 0.0Q4797.0 -1 4784.0 -2.5Q4771.0 -4 4759.0 -4Q4749.0 -4 4741.0 -0.5Q4733.0 3 4733.0 9Q4733.0 17 4740.5 21.5Q4748.0 26 4761.0 30Q4787.0 38 4799.5 59.5Q4812.0 81 4815.0 111Q4819.0 149 4823.0 210.5Q4827.0 272 4830.5 349.0Q4834.0 426 4834.0 508Q4834.0 560 4807.5 583.0Q4781.0 606 4741.0 620Q4734.0 622 4723.0 628.0Q4712.0 634 4712.0 643Q4712.0 652 4720.0 655.0Q4728.0 658 4737.0 658Q4758.0 658 4779.0 657.0Q4800.0 656 4821.5 655.5Q4843.0 655 4866.5 654.0Q4890.0 653 4917.0 653Q4926.0 653 4930.5 649.5Q4935.0 646 4939.0 640Q4955.0 621 4980.0 592.5Q5005.0 564 5034.5 529.5Q5064.0 495 5096.5 457.0Q5129.0 419 5161.5 381.0Q5194.0 343 5224.0 308.5Q5254.0 274 5278.5 245.5Q5303.0 217 5319.0 199Q5323.0 195 5328.5 189.0Q5334.0 183 5338.0 183Q5346.0 183 5347.0 200Q5347.0 226 5347.0 266.5Q5347.0 307 5347.5 356.5Q5348.0 406 5347.5 458.0Q5347.0 510 5346.0 558Q5345.0 583 5325.5 597.5Q5306.0 612 5277.0 618Q5265.0 621 5254.5 625.5Q5244.0 630 5244.0 639Q5244.0 646 5254.5 649.0Q5265.0 652 5274.0 652Q5294.0 652 5307.5 652.0Q5321.0 652 5333.0 651.5Q5345.0 651 5358.0 651Q5380.0 651 5394.0 651.5Q5408.0 652 5424.5 653.0Q5441.0 654 5468.0 654Q5480.0 654 5487.5 650.5Q5495.0 647 5495.0 641Q5495.0 626 5466.0 620Q5431.0 613 5416.5 601.0Q5402.0 589 5401.0 561Q5401.0 536 5400.5 497.0Q5400.0 458 5399.0 412.0Q5398.0 366 5396.5 318.0Q5395.0 270 5394.5 224.0Q5394.0 178 5394.0 141Q5394.0 117 5396.0 92.0Q5398.0 67 5400.5 47.5Q5403.0 28 5403.0 20Q5403.0 -2 5396.0 -10.0Q5389.0 -18 5377.0 -18Z" transform="matrix(0.022120 0 0 -0.022120 89.04 391.38)" fill="#15130f"/></svg>