<svg xmlns="http://www.w3.org/2000/svg" viewBox="0 0 300 446"><rect width="300" height="446" fill="#f4ecd8"/><rect x="20.0" y="25.5" width="260" height="395" rx="20.3" fill="#f4ecd8" stroke="#15130f" stroke-width="1.5"/><rect x="36.9" y="42.4" width="226.2" height="354.7" fill="none" stroke="#15130f" stroke-width="0.7"/><g fill="none" stroke="#15130f" stroke-width="0.65" stroke-opacity="0.72" stroke-linecap="round" stroke-linejoin="round"><line x1="36.9" y1="210.4" x2="263.1" y2="210.4"/></g><path d="M36.9,370.6 H263.1 V397.1 H36.9 Z" fill="#d9cf9a"/><g fill="none" stroke="#15130f" stroke-width="0.8"><line x1="36.9" y1="370.6" x2="263.1" y2="370.6"/><line x1="61.6" y1="370.6" x2="61.6" y2="397.1"/><line x1="238.4" y1="370.6" x2="238.4" y2="397.1"/></g><rect x="141.4" y="34.4" width="17.2" height="19.0" fill="#d9cf9a" stroke="#15130f" stroke-width="0.8"/><path d="M754.0 1055H388.0Q323.0 1055 311.0 963Q305.0 912 298.0 870Q294.0 844 294.0 822Q294.0 792 325.0 792Q335.0 792 350.0 795Q414.0 806 475.0 806Q664.0 806 775.5 709.5Q887.0 613 887.0 449Q887.0 250 738.0 111.5Q589.0 -27 375.0 -27Q285.0 -27 176.5 10.0Q68.0 47 68.0 78Q68.0 105 94.0 105Q101.0 105 112.0 101Q255.0 47 343.0 47Q489.0 47 590.5 139.0Q692.0 231 692.0 365Q692.0 477 611.5 550.0Q531.0 623 407.0 623Q373.0 623 299.0 612Q255.0 606 240.0 606Q196.0 606 196.0 658Q196.0 671 205.0 708Q212.0 739 227.0 858Q234.0 917 245.0 993L264.0 1132Q277.0 1226 285.5 1240.0Q294.0 1254 337.0 1254H727.0Q767.0 1254 797.0 1284L837.0 1323Q845.0 1331 858.0 1331Q875.0 1331 875.0 1315Q875.0 1301 869.0 1285L847.0 1208L830.0 1148Q809.0 1075 801.0 1065.0Q793.0 1055 754.0 1055Z" transform="matrix(0.006858 0 0 -0.006858 146.73 49.15)" fill="#15130f"/><path d="M450.0 1050V690Q569.0 900 750.0 900Q934.0 900 1042.0 757.0Q1150.0 614 1150.0 429Q1150.0 290 1050.0 130.5Q950.0 -29 950.0 -150Q950.0 -420 1132.0 -450Q1179.0 -450 1240.0 -420L1260.0 -450Q1183.0 -500 1102.0 -500Q954.0 -500 852.0 -391.0Q750.0 -282 750.0 -150Q750.0 -44 850.0 129.5Q950.0 303 950.0 429Q950.0 573 887.5 686.5Q825.0 800 706.0 800Q551.0 800 450.0 576V200Q450.0 150 490.0 95.0Q530.0 40 600.0 40H650.0V0H50.0V40H100.0Q170.0 40 210.0 95.0Q250.0 150 250.0 200V1050H50.0V1150H250.0V1200Q250.0 1250 210.0 1305.0Q170.0 1360 100.0 1360H50.0V1400H650.0V1360H600.0Q530.0 1360 490.0 1305.0Q450.0 1250 450.0 1200V1150H650.0V1050Z" transform="matrix(0.009268 0 0 -0.009268 43.18 388.04)" fill="#15130f"/><path d="M250.0 439Q250.0 348 278.0 263.5Q306.0 179 358.5 134.0Q411.0 89 467.0 89Q524.0 89 576.5 134.0Q629.0 179 657.0 263.5Q685.0 348 685.0 439Q685.0 530 657.0 614.5Q629.0 699 576.5 744.0Q524.0 789 467.0 789Q411.0 789 358.5 744.0Q306.0 699 278.0 614.5Q250.0 530 250.0 439ZM831.0 665Q885.0 556 885.0 439Q885.0 322 831.0 213.5Q777.0 105 676.5 47.0Q576.0 -11 467.0 -11Q359.0 -11 258.5 47.0Q158.0 105 104.0 213.5Q50.0 322 50.0 439Q50.0 556 104.0 664.5Q158.0 773 258.5 831.0Q359.0 889 467.0 889Q503.0 889 537.0 883V900Q537.0 1115 681.0 1262.5Q825.0 1410 1118.0 1410Q1411.0 1410 1555.5 1262.5Q1700.0 1115 1700.0 900Q1700.0 684 1389.0 330.0Q1078.0 -24 1078.0 -204Q1078.0 -303 1125.5 -356.5Q1173.0 -410 1248.0 -410Q1356.0 -410 1446.5 -374.0Q1537.0 -338 1581.0 -266.5Q1625.0 -195 1651.0 -51H1688.0V-510H1651.0Q1644.0 -464 1629.5 -449.0Q1615.0 -434 1590.0 -434Q1554.0 -434 1450.0 -472.0Q1346.0 -510 1227.0 -510Q1089.0 -510 994.5 -400.0Q900.0 -290 900.0 -128Q900.0 102 1200.0 452.5Q1500.0 803 1500.0 950Q1500.0 1100 1414.0 1205.0Q1328.0 1310 1118.0 1310Q905.0 1310 821.0 1205.0Q737.0 1100 737.0 900Q737.0 836 768.0 782.5Q799.0 729 831.0 665Z" transform="matrix(0.009268 0 0 -0.009268 242.64 388.04)" fill="#15130f"/><path d="M383.0 -14Q312.0 -14 249.0 10.0Q186.0 34 137.5 77.5Q89.0 121 61.5 181.0Q34.0 241 34.0 313Q34.0 384 61.5 447.0Q89.0 510 139.0 558.5Q189.0 607 257.5 635.5Q326.0 664 409.0 664Q428.0 664 456.0 660.5Q484.0 657 514.0 652.0Q544.0 647 569.5 641.0Q595.0 635 609.0 629Q616.0 626 620.0 621.5Q624.0 617 625.0 609Q630.0 576 633.0 546.0Q636.0 516 636.0 494Q636.0 486 631.5 480.0Q627.0 474 620.0 474Q609.0 474 604.0 481.5Q599.0 489 595.0 498Q587.0 516 577.0 533.5Q567.0 551 552.0 567Q542.0 577 524.5 588.5Q507.0 600 480.0 608.0Q453.0 616 414.0 616Q359.0 616 315.0 593.5Q271.0 571 241.0 531.0Q211.0 491 195.0 440.5Q179.0 390 179.0 335Q179.0 266 195.0 210.5Q211.0 155 240.0 115.5Q269.0 76 309.0 55.0Q349.0 34 399.0 34Q435.0 34 455.5 44.5Q476.0 55 485.0 63Q496.0 72 503.0 90.0Q510.0 108 511.0 132Q511.0 141 511.5 155.0Q512.0 169 512.5 183.0Q513.0 197 513.0 206Q513.0 217 509.5 225.5Q506.0 234 496.0 239Q487.0 246 473.0 251.5Q459.0 257 444.5 259.5Q430.0 262 421.0 263Q414.0 264 406.0 269.5Q398.0 275 398.0 283Q398.0 291 405.5 295.0Q413.0 299 419.0 299Q442.0 299 466.5 298.0Q491.0 297 515.5 296.0Q540.0 295 563.0 295Q591.0 295 618.5 297.0Q646.0 299 675.0 299Q681.0 299 687.5 295.5Q694.0 292 694.0 283Q694.0 275 687.0 270.0Q680.0 265 674.0 264Q647.0 257 637.5 246.0Q628.0 235 625.0 215Q621.0 193 619.5 176.0Q618.0 159 618.0 140V109Q618.0 104 621.5 100.0Q625.0 96 629.0 91Q633.0 86 636.5 81.0Q640.0 76 640.0 71Q640.0 65 636.5 58.5Q633.0 52 622.0 50Q615.0 49 595.0 39.0Q575.0 29 544.5 16.5Q514.0 4 473.5 -5.0Q433.0 -14 383.0 -14ZM771.0 -5Q760.0 -5 753.5 -1.0Q747.0 3 747.0 9Q747.0 22 773.0 28Q809.0 37 824.5 50.5Q840.0 64 840.0 97V550Q840.0 584 826.5 598.0Q813.0 612 776.0 620Q762.0 623 756.0 628.5Q750.0 634 750.0 640Q750.0 647 756.5 650.5Q763.0 654 774.0 654Q803.0 654 829.5 653.0Q856.0 652 881.0 651.0Q906.0 650 933.0 650Q979.0 650 1030.5 651.0Q1082.0 652 1123.0 652Q1156.0 653 1177.5 655.0Q1199.0 657 1203.0 657Q1210.0 657 1217.5 654.0Q1225.0 651 1226.0 642Q1230.0 609 1236.0 577.0Q1242.0 545 1242.0 521Q1242.0 512 1237.5 507.5Q1233.0 503 1228.0 503Q1223.0 503 1219.0 506.5Q1215.0 510 1212.0 517Q1204.0 540 1197.0 557.0Q1190.0 574 1181.0 583Q1168.0 597 1151.0 605.0Q1134.0 613 1110.0 613H1017.0Q999.0 613 984.0 602.5Q969.0 592 969.0 573V377Q969.0 366 975.5 360.0Q982.0 354 991.0 354H1083.0Q1110.0 354 1121.5 369.0Q1133.0 384 1141.0 410Q1148.0 430 1160.0 430Q1165.0 430 1169.0 424.5Q1173.0 419 1173.0 410Q1172.0 400 1171.0 386.0Q1170.0 372 1169.5 358.0Q1169.0 344 1169.0 333Q1169.0 321 1169.5 306.0Q1170.0 291 1170.5 276.5Q1171.0 262 1172.0 252Q1173.0 241 1170.5 235.0Q1168.0 229 1162.0 229Q1146.0 229 1139.0 257Q1131.0 285 1120.0 299.0Q1109.0 313 1090.0 313H996.0Q983.0 313 976.0 308.0Q969.0 303 969.0 289V99Q969.0 66 983.0 53.0Q997.0 40 1026.0 40H1108.0Q1133.0 40 1153.5 45.0Q1174.0 50 1189.0 61Q1206.0 73 1219.5 93.5Q1233.0 114 1246.0 139Q1250.0 147 1254.0 149.5Q1258.0 152 1264.0 152Q1269.0 151 1271.5 146.0Q1274.0 141 1274.0 135Q1274.0 121 1269.0 99.0Q1264.0 77 1256.5 53.5Q1249.0 30 1243.0 10Q1240.0 3 1235.0 -0.5Q1230.0 -4 1223.0 -4Q1199.0 -4 1161.5 -3.5Q1124.0 -3 1080.0 -2.0Q1036.0 -1 990.0 -0.5Q944.0 0 902.0 0Q881.0 0 859.5 -1.0Q838.0 -2 816.0 -3.5Q794.0 -5 771.0 -5ZM1969.0 -18Q1957.0 -18 1929.0 -3.0Q1901.0 12 1872.0 49Q1855.0 68 1830.5 95.5Q1806.0 123 1776.5 156.0Q1747.0 189 1715.0 225.0Q1683.0 261 1651.5 297.0Q1620.0 333 1590.0 366.0Q1560.0 399 1535.0 426.5Q1510.0 454 1493.0 474Q1489.0 479 1484.5 482.5Q1480.0 486 1477.0 486Q1473.0 486 1471.0 479.0Q1469.0 472 1469.0 466Q1469.0 420 1469.5 357.0Q1470.0 294 1470.0 229.0Q1470.0 164 1470.0 109Q1470.0 78 1488.0 58.0Q1506.0 38 1545.0 29Q1557.0 27 1565.5 22.5Q1574.0 18 1574.0 10Q1574.0 3 1566.0 0.0Q1558.0 -3 1548.0 -3Q1521.0 -3 1505.0 -2.0Q1489.0 -1 1476.0 0.0Q1463.0 1 1443.0 1Q1422.0 1 1405.5 0.0Q1389.0 -1 1376.0 -2.5Q1363.0 -4 1351.0 -4Q1341.0 -4 1333.0 -0.5Q1325.0 3 1325.0 9Q1325.0 17 1332.5 21.5Q1340.0 26 1353.0 30Q1379.0 38 1391.5 59.5Q1404.0 81 1407.0 111Q1411.0 149 1415.0 210.5Q1419.0 272 1422.5 349.0Q1426.0 426 1426.0 508Q1426.0 560 1399.5 583.0Q1373.0 606 1333.0 620Q1326.0 622 1315.0 628.0Q1304.0 634 1304.0 643Q1304.0 652 1312.0 655.0Q1320.0 658 1329.0 658Q1350.0 658 1371.0 657.0Q1392.0 656 1413.5 655.5Q1435.0 655 1458.5 654.0Q1482.0 653 1509.0 653Q1518.0 653 1522.5 649.5Q1527.0 646 1531.0 640Q1547.0 621 1572.0 592.5Q1597.0 564 1626.5 529.5Q1656.0 495 1688.5 457.0Q1721.0 419 1753.5 381.0Q1786.0 343 1816.0 308.5Q1846.0 274 1870.5 245.5Q1895.0 217 1911.0 199Q1915.0 195 1920.5 189.0Q1926.0 183 1930.0 183Q1938.0 183 1939.0 200Q1939.0 226 1939.0 266.5Q1939.0 307 1939.5 356.5Q1940.0 406 1939.5 458.0Q1939.0 510 1938.0 558Q1937.0 583 1917.5 597.5Q1898.0 612 1869.0 618Q1857.0 621 1846.5 625.5Q1836.0 630 1836.0 639Q1836.0 646 1846.5 649.0Q1857.0 652 1866.0 652Q1886.0 652 1899.5 652.0Q1913.0 652 1925.0 651.5Q1937.0 651 1950.0 651Q1972.0 651 1986.0 651.5Q2000.0 652 2016.5 653.0Q2033.0 654 2060.0 654Q2072.0 654 2079.5 650.5Q2087.0 647 2087.0 641Q2087.0 626 2058.0 620Q2023.0 613 2008.5 601.0Q1994.0 589 1993.0 561Q1993.0 536 1992.5 497.0Q1992.0 458 1991.0 412.0Q1990.0 366 1988.5 318.0Q1987.0 270 1986.5 224.0Q1986.0 178 1986.0 141Q1986.0 117 1988.0 92.0Q1990.0 67 1992.5 47.5Q1995.0 28 1995.0 20Q1995.0 -2 1988.0 -10.0Q1981.0 -18 1969.0 -18ZM2146.0 -5Q2135.0 -5 2128.5 -1.0Q2122.0 3 2122.0 9Q2122.0 22 2148.0 28Q2184.0 37 2199.5 50.5Q2215.0 64 2215.0 97V550Q2215.0 584 2201.5 598.0Q2188.0 612 2151.0 620Q2137.0 623 2131.0 628.5Q2125.0 634 2125.0 640Q2125.0 647 2131.5 650.5Q2138.0 654 2149.0 654Q2178.0 654 2204.5 653.0Q2231.0 652 2256.0 651.0Q2281.0 650 2308.0 650Q2354.0 650 2405.5 651.0Q2457.0 652 2498.0 652Q2531.0 653 2552.5 655.0Q2574.0 657 2578.0 657Q2585.0 657 2592.5 654.0Q2600.0 651 2601.0 642Q2605.0 609 2611.0 577.0Q2617.0 545 2617.0 521Q2617.0 512 2612.5 507.5Q2608.0 503 2603.0 503Q2598.0 503 2594.0 506.5Q2590.0 510 2587.0 517Q2579.0 540 2572.0 557.0Q2565.0 574 2556.0 583Q2543.0 597 2526.0 605.0Q2509.0 613 2485.0 613H2392.0Q2374.0 613 2359.0 602.5Q2344.0 592 2344.0 573V377Q2344.0 366 2350.5 360.0Q2357.0 354 2366.0 354H2458.0Q2485.0 354 2496.5 369.0Q2508.0 384 2516.0 410Q2523.0 430 2535.0 430Q2540.0 430 2544.0 424.5Q2548.0 419 2548.0 410Q2547.0 400 2546.0 386.0Q2545.0 372 2544.5 358.0Q2544.0 344 2544.0 333Q2544.0 321 2544.5 306.0Q2545.0 291 2545.5 276.5Q2546.0 262 2547.0 252Q2548.0 241 2545.5 235.0Q2543.0 229 2537.0 229Q2521.0 229 2514.0 257Q2506.0 285 2495.0 299.0Q2484.0 313 2465.0 313H2371.0Q2358.0 313 2351.0 308.0Q2344.0 303 2344.0 289V99Q2344.0 66 2358.0 53.0Q2372.0 40 2401.0 40H2483.0Q2508.0 40 2528.5 45.0Q2549.0 50 2564.0 61Q2581.0 73 2594.5 93.5Q2608.0 114 2621.0 139Q2625.0 147 2629.0 149.5Q2633.0 152 2639.0 152Q2644.0 151 2646.5 146.0Q2649.0 141 2649.0 135Q2649.0 121 2644.0 99.0Q2639.0 77 2631.5 53.5Q2624.0 30 2618.0 10Q2615.0 3 2610.0 -0.5Q2605.0 -4 2598.0 -4Q2574.0 -4 2536.5 -3.5Q2499.0 -3 2455.0 -2.0Q2411.0 -1 2365.0 -0.5Q2319.0 0 2277.0 0Q2256.0 0 2234.5 -1.0Q2213.0 -2 2191.0 -3.5Q2169.0 -5 2146.0 -5ZM3310.0 -21Q3267.0 -21 3235.0 -11.5Q3203.0 -2 3180.0 16.0Q3157.0 34 3138.0 58Q3116.0 88 3095.0 116.5Q3074.0 145 3052.5 179.5Q3031.0 214 3005.0 262Q2992.0 285 2972.0 296Q2959.0 303 2945.5 306.0Q2932.0 309 2923.0 309Q2917.0 310 2914.0 304.0Q2911.0 298 2911.0 289V103Q2911.0 72 2927.5 55.0Q2944.0 38 2984.0 29Q2997.0 27 3003.0 22.5Q3009.0 18 3009.0 10Q3009.0 3 3003.5 0.0Q2998.0 -3 2987.0 -3Q2964.0 -3 2940.0 -1.5Q2916.0 0 2893.5 1.0Q2871.0 2 2851.0 2Q2829.0 2 2805.5 1.0Q2782.0 0 2758.0 -2.0Q2734.0 -4 2710.0 -4Q2701.0 -4 2694.0 -0.5Q2687.0 3 2687.0 9Q2687.0 24 2712.0 29Q2750.0 37 2766.0 51.0Q2782.0 65 2782.0 98V540Q2782.0 569 2777.5 584.5Q2773.0 600 2760.0 608.0Q2747.0 616 2721.0 620Q2707.0 622 2701.0 628.0Q2695.0 634 2695.0 640Q2695.0 647 2701.5 650.5Q2708.0 654 2719.0 654Q2749.0 654 2767.0 653.0Q2785.0 652 2801.5 650.5Q2818.0 649 2841.0 649Q2863.0 649 2880.0 651.0Q2897.0 653 2918.0 655.0Q2939.0 657 2972.0 657Q3087.0 657 3148.0 617.0Q3209.0 577 3209.0 495Q3209.0 450 3190.0 418.5Q3171.0 387 3142.5 367.0Q3114.0 347 3084.0 336Q3080.0 335 3080.5 331.0Q3081.0 327 3084.0 324Q3114.0 278 3142.5 236.5Q3171.0 195 3202.5 158.0Q3234.0 121 3271.0 87Q3302.0 58 3334.5 52.5Q3367.0 47 3402.0 47Q3417.0 47 3417.0 32Q3417.0 12 3402.0 0.5Q3387.0 -11 3362.5 -16.0Q3338.0 -21 3310.0 -21ZM2954.0 338Q2995.0 338 3022.5 356.5Q3050.0 375 3064.5 406.0Q3079.0 437 3079.0 475Q3079.0 520 3068.0 551.5Q3057.0 583 3030.5 600.5Q3004.0 618 2958.0 618Q2932.0 618 2922.5 599.5Q2913.0 581 2912.0 525Q2911.0 502 2911.0 464.5Q2911.0 427 2911.0 375Q2911.0 353 2922.5 345.5Q2934.0 338 2954.0 338ZM3788.0 -14Q3720.0 -14 3658.0 9.5Q3596.0 33 3548.5 76.5Q3501.0 120 3473.5 180.5Q3446.0 241 3446.0 315Q3446.0 383 3468.5 445.5Q3491.0 508 3535.5 557.0Q3580.0 606 3645.5 635.0Q3711.0 664 3797.0 664Q3865.0 664 3926.5 640.5Q3988.0 617 4036.0 573.5Q4084.0 530 4111.5 469.5Q4139.0 409 4139.0 335Q4139.0 268 4116.5 205.0Q4094.0 142 4049.5 93.0Q4005.0 44 3939.5 15.0Q3874.0 -14 3788.0 -14ZM3805.0 30Q3868.0 30 3910.5 62.0Q3953.0 94 3974.5 151.5Q3996.0 209 3996.0 284Q3996.0 348 3983.0 408.0Q3970.0 468 3943.0 515.5Q3916.0 563 3875.5 591.0Q3835.0 619 3779.0 619Q3716.0 619 3673.5 587.0Q3631.0 555 3610.0 498.0Q3589.0 441 3589.0 366Q3589.0 302 3602.0 242.0Q3615.0 182 3641.5 134.0Q3668.0 86 3708.5 58.0Q3749.0 30 3805.0 30ZM4387.0 -15Q4344.0 -15 4305.5 -4.0Q4267.0 7 4235.0 29Q4229.0 34 4224.0 39.5Q4219.0 45 4216.0 52Q4208.0 77 4205.0 113.5Q4202.0 150 4203.0 184Q4203.0 191 4208.5 194.0Q4214.0 197 4222.0 197Q4230.0 197 4234.5 194.5Q4239.0 192 4241.0 185Q4263.0 110 4305.0 68.0Q4347.0 26 4400.0 26Q4433.0 26 4456.0 41.0Q4479.0 56 4491.0 80.0Q4503.0 104 4503.0 132Q4503.0 167 4490.5 190.0Q4478.0 213 4453.0 231.5Q4428.0 250 4390.0 271Q4349.0 295 4310.0 321.5Q4271.0 348 4246.0 384.5Q4221.0 421 4221.0 475Q4221.0 531 4249.5 573.5Q4278.0 616 4329.0 640.0Q4380.0 664 4447.0 664Q4484.0 664 4516.0 656.0Q4548.0 648 4567.0 640Q4578.0 636 4583.5 630.0Q4589.0 624 4592.0 611Q4598.0 590 4602.5 561.0Q4607.0 532 4607.0 500Q4607.0 488 4589.0 488Q4581.0 488 4573.0 492.0Q4565.0 496 4563.0 503Q4545.0 561 4513.5 591.0Q4482.0 621 4436.0 621Q4405.0 621 4383.0 610.5Q4361.0 600 4348.0 578.5Q4335.0 557 4335.0 523Q4335.0 497 4352.5 475.0Q4370.0 453 4401.5 432.0Q4433.0 411 4472.0 386Q4520.0 358 4552.5 329.5Q4585.0 301 4602.0 266.5Q4619.0 232 4619.0 185Q4619.0 119 4590.0 74.5Q4561.0 30 4509.0 7.5Q4457.0 -15 4387.0 -15ZM4697.0 -4Q4688.0 -4 4681.0 -0.5Q4674.0 3 4674.0 9Q4674.0 24 4699.0 29Q4737.0 37 4754.0 51.0Q4771.0 65 4771.0 97V551Q4771.0 584 4757.0 598.0Q4743.0 612 4704.0 620Q4679.0 625 4679.0 641Q4679.0 647 4686.0 650.5Q4693.0 654 4702.0 654Q4726.0 654 4749.0 653.0Q4772.0 652 4793.5 651.0Q4815.0 650 4837.0 650Q4858.0 650 4879.5 651.0Q4901.0 652 4924.0 653.0Q4947.0 654 4971.0 654Q4981.0 654 4987.0 650.5Q4993.0 647 4993.0 640Q4993.0 632 4986.5 627.5Q4980.0 623 4968.0 620Q4928.0 610 4914.0 596.0Q4900.0 582 4900.0 550V98Q4900.0 67 4916.5 53.0Q4933.0 39 4971.0 29Q4984.0 26 4990.5 22.0Q4997.0 18 4997.0 10Q4997.0 3 4991.0 0.0Q4985.0 -3 4975.0 -3Q4951.0 -3 4927.0 -2.0Q4903.0 -1 4880.5 0.0Q4858.0 1 4837.0 1Q4815.0 1 4792.0 0.0Q4769.0 -1 4745.0 -2.5Q4721.0 -4 4697.0 -4ZM5222.0 -4Q5212.0 -4 5204.5 -0.5Q5197.0 3 5197.0 9Q5197.0 17 5204.0 22.0Q5211.0 27 5224.0 29Q5262.0 37 5280.0 51.5Q5298.0 66 5298.0 99V504Q5298.0 545 5296.0 566.0Q5294.0 587 5290.5 594.5Q5287.0 602 5280.0 603Q5270.0 607 5255.0 608.0Q5240.0 609 5226.0 609H5195.0Q5166.0 609 5139.0 595.5Q5112.0 582 5097.0 559Q5093.0 553 5084.5 542.0Q5076.0 531 5066.5 522.0Q5057.0 513 5047.0 513Q5040.0 513 5037.5 518.0Q5035.0 523 5035.0 529Q5035.0 541 5041.0 553Q5058.0 587 5066.5 612.5Q5075.0 638 5078.0 673Q5080.0 688 5086.5 692.5Q5093.0 697 5100.0 697Q5106.0 697 5114.5 684.5Q5123.0 672 5130.0 664Q5139.0 655 5162.0 650.5Q5185.0 646 5201.0 646L5570.0 647Q5598.0 647 5617.0 651.5Q5636.0 656 5647.0 661Q5662.0 670 5671.0 679.5Q5680.0 689 5692.0 689Q5697.0 689 5699.5 683.5Q5702.0 678 5702.0 670Q5702.0 665 5701.0 658.5Q5700.0 652 5699.0 647Q5695.0 628 5691.0 613.5Q5687.0 599 5684.5 586.5Q5682.0 574 5682.0 558V541Q5682.0 527 5678.0 517.0Q5674.0 507 5665.0 507Q5657.0 507 5651.5 516.5Q5646.0 526 5640.0 546Q5631.0 578 5610.0 593.5Q5589.0 609 5544.0 609H5476.0Q5457.0 609 5446.5 602.0Q5436.0 595 5431.5 571.5Q5427.0 548 5427.0 499V100Q5427.0 68 5445.0 53.5Q5463.0 39 5502.0 29Q5514.0 26 5521.0 22.0Q5528.0 18 5528.0 10Q5528.0 3 5521.5 0.0Q5515.0 -3 5505.0 -3Q5481.0 -3 5457.0 -2.0Q5433.0 -1 5409.5 0.0Q5386.0 1 5364.0 1Q5342.0 1 5318.5 0.0Q5295.0 -1 5270.5 -2.5Q5246.0 -4 5222.0 -4ZM5889.0 -6Q5876.0 -6 5868.5 -2.0Q5861.0 2 5861.0 9Q5861.0 17 5869.5 21.5Q5878.0 26 5891.0 29Q5929.0 36 5946.0 56.0Q5963.0 76 5963.0 109V251Q5963.0 280 5953.0 303.5Q5943.0 327 5934.0 343L5809.0 540Q5801.0 553 5788.5 569.5Q5776.0 586 5761.0 600.0Q5746.0 614 5727.0 619Q5715.0 623 5707.5 627.5Q5700.0 632 5700.0 640Q5700.0 647 5707.0 650.5Q5714.0 654 5724.0 654Q5760.0 654 5795.5 651.5Q5831.0 649 5871.0 649Q5900.0 649 5926.5 651.5Q5953.0 654 5981.0 654Q5991.0 654 6000.0 650.5Q6009.0 647 6009.0 640Q6009.0 632 6000.0 627.0Q5991.0 622 5979.0 619Q5956.0 614 5944.5 607.0Q5933.0 600 5933.0 586Q5933.0 571 5945.0 551L6044.0 376Q6057.0 351 6066.0 351Q6071.0 351 6076.0 357.0Q6081.0 363 6089.0 376Q6113.0 415 6133.0 453.0Q6153.0 491 6176.0 536Q6182.0 548 6185.5 559.5Q6189.0 571 6189.0 580Q6189.0 600 6173.0 608.5Q6157.0 617 6140.0 619Q6130.0 620 6119.0 626.0Q6108.0 632 6108.0 640Q6108.0 647 6117.0 650.0Q6126.0 653 6137.0 653Q6164.0 653 6184.5 651.0Q6205.0 649 6230.0 649Q6258.0 649 6283.5 652.0Q6309.0 655 6333.0 655Q6345.0 655 6353.5 652.0Q6362.0 649 6362.0 641Q6362.0 632 6350.0 627.5Q6338.0 623 6324.0 619Q6296.0 611 6276.0 592.0Q6256.0 573 6237.0 543Q6220.0 515 6205.0 491.5Q6190.0 468 6176.5 446.5Q6163.0 425 6149.0 402.5Q6135.0 380 6119.0 353Q6109.0 336 6103.5 322.0Q6098.0 308 6095.0 293.0Q6092.0 278 6092.0 258V110Q6092.0 73 6109.0 55.5Q6126.0 38 6164.0 29Q6178.0 26 6186.5 22.0Q6195.0 18 6195.0 9Q6195.0 3 6187.5 -1.0Q6180.0 -5 6168.0 -5Q6144.0 -5 6120.0 -3.0Q6096.0 -1 6073.5 0.5Q6051.0 2 6029.0 2Q6007.0 2 5984.0 0.5Q5961.0 -1 5937.0 -3.5Q5913.0 -6 5889.0 -6Z" transform="matrix(0.022120 0 0 -0.022120 79.26 391.34)" fill="#15130f"/></svg>