<svg xmlns="http://www.w3.org/2000/svg" viewBox="0 0 300 446"><rect width="300" height="446" fill="#f4ecd8"/><rect x="20.0" y="25.5" width="260" height="395" rx="20.3" fill="#f4ecd8" stroke="#15130f" stroke-width="1.5"/><rect x="36.9" y="42.4" width="226.2" height="354.7" fill="none" stroke="#15130f" stroke-width="0.7"/><g fill="none" stroke="#15130f" stroke-width="0.65" stroke-opacity="0.72" stroke-linecap="round" stroke-linejoin="round"><line x1="36.9" y1="210.4" x2="263.1" y2="210.4"/></g><path d="M36.9,370.6 H263.1 V397.1 H36.9 Z" fill="#d9cf9a"/><g fill="none" stroke="#15130f" stroke-width="0.8"><line x1="36.9" y1="370.6" x2="263.1" y2="370.6"/><line x1="61.6" y1="370.6" x2="61.6" y2="397.1"/><line x1="238.4" y1="370.6" x2="238.4" y2="397.1"/></g><rect x="141.4" y="34.4" width="17.2" height="19.0" fill="#d9cf9a" stroke="#15130f" stroke-width="0.8"/><path d="M766.0 262V-54Q764.0 -88 718.0 -88L649.0 -99Q619.0 -104 598.0 -110Q582.0 -115 572.0 -116Q548.0 -118 548.0 -92Q548.0 -82 552.0 -63Q563.0 -18 563.0 41V262L564.0 290L552.0 316Q541.0 325 493.0 325H98.0Q53.0 325 39.5 332.5Q26.0 340 26.0 366Q26.0 415 264.0 747Q442.0 995 584.5 1169.0Q727.0 1343 752.0 1343Q768.0 1343 768.0 1317L767.0 1232L766.0 1143V549L771.0 522Q778.0 506 822.0 506Q899.0 506 922.0 572Q928.0 590 941.0 590Q967.0 590 967.0 567Q967.0 557 965.0 547Q961.0 528 956.0 462Q950.0 372 930.0 347.5Q910.0 323 845.0 323H812.0Q781.0 323 773.5 313.0Q766.0 303 766.0 262ZM563.0 570V743L561.0 856L563.0 958L562.0 984Q562.0 1001 553.0 1001Q544.0 1001 523.0 973L489.0 928L381.0 788Q316.0 705 230.0 573Q216.0 551 207.0 540Q196.0 525 196.0 515Q197.0 499 236.0 499L268.0 498H528.0Q564.0 498 564.0 546Z" transform="matrix(0.006858 0 0 -0.006858 146.59 48.88)" fill="#15130f"/><path d="M450.0 1050V690Q569.0 900 750.0 900Q934.0 900 1042.0 757.0Q1150.0 614 1150.0 429Q1150.0 290 1050.0 130.5Q950.0 -29 950.0 -150Q950.0 -420 1132.0 -450Q1179.0 -450 1240.0 -420L1260.0 -450Q1183.0 -500 1102.0 -500Q954.0 -500 852.0 -391.0Q750.0 -282 750.0 -150Q750.0 -44 850.0 129.5Q950.0 303 950.0 429Q950.0 573 887.5 686.5Q825.0 800 706.0 800Q551.0 800 450.0 576V200Q450.0 150 490.0 95.0Q530.0 40 600.0 40H650.0V0H50.0V40H100.0Q170.0 40 210.0 95.0Q250.0 150 250.0 200V1050H50.0V1150H250.0V1200Q250.0 1250 210.0 1305.0Q170.0 1360 100.0 1360H50.0V1400H650.0V1360H600.0Q530.0 1360 490.0 1305.0Q450.0 1250 450.0 1200V1150H650.0V1050Z" transform="matrix(0.009268 0 0 -0.009268 43.18 388.04)" fill="#15130f"/><path d="M250.0 800Q250.0 735 271.5 674.5Q293.0 614 333.5 582.0Q374.0 550 417.0 550Q461.0 550 501.5 582.0Q542.0 614 563.5 674.5Q585.0 735 585.0 800Q585.0 865 563.5 925.5Q542.0 986 501.5 1018.0Q461.0 1050 417.0 1050Q374.0 1050 333.5 1018.0Q293.0 986 271.5 925.5Q250.0 865 250.0 800ZM1744.0 1050Q1700.0 1100 1637.0 1148Q1423.0 1310 1050.0 1310Q671.0 1310 460.0 1148Q533.0 1140 602.0 1105Q690.0 1060 737.5 975.5Q785.0 891 785.0 800Q785.0 709 737.5 624.5Q690.0 540 601.5 495.0Q513.0 450 417.0 450Q322.0 450 233.5 495.0Q145.0 540 97.5 624.5Q50.0 709 50.0 800Q50.0 1058 324.5 1234.0Q599.0 1410 1050.0 1410Q1501.0 1410 1776.0 1234Q1905.0 1151 1973.0 1050ZM1850.0 600Q1850.0 665 1828.5 725.5Q1807.0 786 1766.5 818.0Q1726.0 850 1683.0 850Q1639.0 850 1598.5 818.0Q1558.0 786 1536.5 725.5Q1515.0 665 1515.0 600Q1515.0 535 1536.5 474.5Q1558.0 414 1598.5 382.0Q1639.0 350 1683.0 350Q1726.0 350 1766.5 382.0Q1807.0 414 1828.5 474.5Q1850.0 535 1850.0 600ZM356.0 350Q400.0 300 464.0 252Q677.0 90 1050.0 90Q1429.0 90 1640.0 252Q1567.0 260 1499.0 295Q1410.0 340 1362.5 424.5Q1315.0 509 1315.0 600Q1315.0 691 1362.5 775.5Q1410.0 860 1498.5 905.0Q1587.0 950 1683.0 950Q1778.0 950 1866.5 905.0Q1955.0 860 2002.5 775.5Q2050.0 691 2050.0 600Q2050.0 342 1775.5 166.0Q1501.0 -10 1050.0 -10Q599.0 -10 325.0 166Q195.0 249 127.0 350Z" transform="matrix(0.009139 0 0 -0.009139 241.15 390.26)" fill="#15130f"/><path d="M405.0 -14Q330.0 -14 263.0 9.5Q196.0 33 144.5 77.0Q93.0 121 63.5 182.5Q34.0 244 34.0 319Q34.0 389 63.0 451.0Q92.0 513 145.0 561.0Q198.0 609 271.5 636.5Q345.0 664 433.0 664Q467.0 664 497.5 659.5Q528.0 655 557.0 648.5Q586.0 642 614.0 632Q625.0 628 631.5 621.0Q638.0 614 639.0 602Q643.0 572 645.0 542.5Q647.0 513 647.0 484Q648.0 474 640.0 469.5Q632.0 465 623.0 468.5Q614.0 472 610.0 483Q602.0 511 591.5 535.5Q581.0 560 560.0 577Q537.0 596 502.0 607.5Q467.0 619 420.0 619Q366.0 619 322.0 597.0Q278.0 575 246.5 536.0Q215.0 497 198.0 448.0Q181.0 399 181.0 345Q181.0 281 196.5 224.0Q212.0 167 243.5 123.5Q275.0 80 320.0 55.5Q365.0 31 423.0 31Q497.0 31 543.0 63.0Q589.0 95 621.0 158Q629.0 174 643.0 173.5Q657.0 173 657.0 157Q657.0 145 654.0 127.0Q651.0 109 645.5 88.5Q640.0 68 633.0 48Q629.0 36 623.0 30.0Q617.0 24 605.0 19Q567.0 3 515.5 -5.5Q464.0 -14 405.0 -14ZM757.0 -4Q748.0 -4 741.0 0.0Q734.0 4 734.0 10Q734.0 24 759.0 29Q795.0 37 807.0 51.0Q819.0 65 819.0 98V551Q819.0 584 809.0 598.0Q799.0 612 762.0 620Q737.0 625 737.0 640Q737.0 647 743.5 650.5Q750.0 654 760.0 654Q784.0 654 805.0 653.0Q826.0 652 846.0 651.0Q866.0 650 886.0 650Q906.0 650 927.5 651.0Q949.0 652 972.0 653.0Q995.0 654 1018.0 654Q1040.0 654 1040.0 639Q1040.0 631 1034.0 627.0Q1028.0 623 1015.0 620Q976.0 610 962.5 595.0Q949.0 580 949.0 550V364Q949.0 357 953.5 354.5Q958.0 352 964.0 352H1263.0Q1274.0 352 1274.0 366V551Q1274.0 580 1261.0 595.0Q1248.0 610 1209.0 620Q1196.0 623 1189.5 627.0Q1183.0 631 1183.0 639Q1183.0 654 1205.0 654Q1229.0 654 1253.0 653.0Q1277.0 652 1299.5 651.0Q1322.0 650 1343.0 650Q1362.0 650 1380.0 651.0Q1398.0 652 1418.5 653.0Q1439.0 654 1463.0 654Q1472.0 654 1479.0 650.5Q1486.0 647 1486.0 640Q1486.0 625 1460.0 620Q1425.0 612 1414.5 597.0Q1404.0 582 1404.0 551V98Q1404.0 65 1415.0 51.0Q1426.0 37 1462.0 29Q1487.0 24 1487.0 10Q1487.0 4 1480.0 0.0Q1473.0 -4 1464.0 -4Q1441.0 -4 1420.0 -2.5Q1399.0 -1 1378.5 0.0Q1358.0 1 1338.0 1Q1318.0 1 1296.0 0.0Q1274.0 -1 1251.0 -2.0Q1228.0 -3 1204.0 -3Q1195.0 -3 1189.0 0.5Q1183.0 4 1183.0 11Q1183.0 19 1189.0 22.5Q1195.0 26 1207.0 29Q1243.0 38 1258.5 53.0Q1274.0 68 1274.0 98V288Q1274.0 294 1272.5 299.0Q1271.0 304 1264.0 304H960.0Q949.0 304 949.0 289V102Q949.0 72 966.5 55.0Q984.0 38 1020.0 29Q1033.0 26 1039.0 22.5Q1045.0 19 1045.0 11Q1045.0 4 1039.5 0.5Q1034.0 -3 1023.0 -3Q1000.0 -3 976.0 -2.0Q952.0 -1 929.5 0.0Q907.0 1 886.0 1Q865.0 1 844.0 0.0Q823.0 -1 801.0 -2.5Q779.0 -4 757.0 -4ZM1537.0 -5Q1525.0 -5 1517.0 -1.5Q1509.0 2 1509.0 10Q1509.0 19 1516.5 24.0Q1524.0 29 1536.0 33Q1565.0 41 1586.5 57.5Q1608.0 74 1621.0 103Q1646.0 162 1669.0 216.5Q1692.0 271 1713.0 325.0Q1734.0 379 1755.5 435.0Q1777.0 491 1799.0 553Q1810.0 584 1814.0 601.0Q1818.0 618 1821.0 626Q1836.0 630 1849.0 634.0Q1862.0 638 1878.0 644Q1892.0 651 1902.0 662.0Q1912.0 673 1917.0 679Q1920.0 681 1923.0 681.5Q1926.0 682 1929.0 677Q1932.0 671 1934.0 665.0Q1936.0 659 1938.0 652Q1960.0 581 1983.5 508.5Q2007.0 436 2030.0 365.5Q2053.0 295 2074.5 230.5Q2096.0 166 2114.0 112Q2123.0 85 2136.5 69.0Q2150.0 53 2166.5 44.5Q2183.0 36 2203.0 31Q2216.0 28 2223.0 23.0Q2230.0 18 2230.0 9Q2230.0 3 2223.5 0.0Q2217.0 -3 2207.0 -3Q2189.0 -3 2161.5 -2.0Q2134.0 -1 2105.0 0.5Q2076.0 2 2053.0 2Q2033.0 2 2008.5 1.0Q1984.0 0 1959.5 -1.0Q1935.0 -2 1918.0 -2Q1908.0 -2 1900.5 1.5Q1893.0 5 1893.0 12Q1893.0 20 1901.0 25.5Q1909.0 31 1920.0 33Q1956.0 39 1972.0 51.5Q1988.0 64 1984.0 88Q1981.0 105 1975.0 128.5Q1969.0 152 1962.5 177.5Q1956.0 203 1949.0 224Q1947.0 232 1943.0 235.5Q1939.0 239 1928.0 239H1748.0Q1741.0 239 1737.0 234.5Q1733.0 230 1731.0 221Q1727.0 208 1721.5 191.5Q1716.0 175 1710.5 157.5Q1705.0 140 1700.5 125.0Q1696.0 110 1694.0 99Q1689.0 72 1703.5 56.5Q1718.0 41 1754.0 32Q1781.0 25 1781.0 11Q1781.0 5 1774.5 1.5Q1768.0 -2 1756.0 -2Q1733.0 -2 1708.0 -0.5Q1683.0 1 1653.0 1Q1623.0 1 1594.5 -2.0Q1566.0 -5 1537.0 -5ZM1775.0 285H1914.0Q1928.0 285 1928.0 291Q1928.0 294 1927.5 296.0Q1927.0 298 1926.0 302L1856.0 533Q1852.0 547 1849.0 547Q1847.0 547 1842.0 534L1758.0 302Q1756.0 297 1756.0 294Q1756.0 289 1761.5 287.0Q1767.0 285 1775.0 285ZM2866.0 -21Q2823.0 -21 2791.0 -11.5Q2759.0 -2 2736.0 16.0Q2713.0 34 2694.0 58Q2672.0 88 2651.0 116.5Q2630.0 145 2608.5 179.5Q2587.0 214 2561.0 262Q2548.0 285 2528.0 296Q2515.0 303 2501.5 306.0Q2488.0 309 2479.0 309Q2473.0 310 2470.0 304.0Q2467.0 298 2467.0 289V103Q2467.0 72 2483.5 55.0Q2500.0 38 2540.0 29Q2553.0 27 2559.0 22.5Q2565.0 18 2565.0 10Q2565.0 3 2559.5 0.0Q2554.0 -3 2543.0 -3Q2520.0 -3 2496.0 -1.5Q2472.0 0 2449.5 1.0Q2427.0 2 2407.0 2Q2385.0 2 2361.5 1.0Q2338.0 0 2314.0 -2.0Q2290.0 -4 2266.0 -4Q2257.0 -4 2250.0 -0.5Q2243.0 3 2243.0 9Q2243.0 24 2268.0 29Q2306.0 37 2322.0 51.0Q2338.0 65 2338.0 98V540Q2338.0 569 2333.5 584.5Q2329.0 600 2316.0 608.0Q2303.0 616 2277.0 620Q2263.0 622 2257.0 628.0Q2251.0 634 2251.0 640Q2251.0 647 2257.5 650.5Q2264.0 654 2275.0 654Q2305.0 654 2323.0 653.0Q2341.0 652 2357.5 650.5Q2374.0 649 2397.0 649Q2419.0 649 2436.0 651.0Q2453.0 653 2474.0 655.0Q2495.0 657 2528.0 657Q2643.0 657 2704.0 617.0Q2765.0 577 2765.0 495Q2765.0 450 2746.0 418.5Q2727.0 387 2698.5 367.0Q2670.0 347 2640.0 336Q2636.0 335 2636.5 331.0Q2637.0 327 2640.0 324Q2670.0 278 2698.5 236.5Q2727.0 195 2758.5 158.0Q2790.0 121 2827.0 87Q2858.0 58 2890.5 52.5Q2923.0 47 2958.0 47Q2973.0 47 2973.0 32Q2973.0 12 2958.0 0.5Q2943.0 -11 2918.5 -16.0Q2894.0 -21 2866.0 -21ZM2510.0 338Q2551.0 338 2578.5 356.5Q2606.0 375 2620.5 406.0Q2635.0 437 2635.0 475Q2635.0 520 2624.0 551.5Q2613.0 583 2586.5 600.5Q2560.0 618 2514.0 618Q2488.0 618 2478.5 599.5Q2469.0 581 2468.0 525Q2467.0 502 2467.0 464.5Q2467.0 427 2467.0 375Q2467.0 353 2478.5 345.5Q2490.0 338 2510.0 338ZM3008.0 -4Q2999.0 -4 2992.0 -0.5Q2985.0 3 2985.0 9Q2985.0 24 3010.0 29Q3048.0 37 3065.0 51.0Q3082.0 65 3082.0 97V551Q3082.0 584 3068.0 598.0Q3054.0 612 3015.0 620Q2990.0 625 2990.0 641Q2990.0 647 2997.0 650.5Q3004.0 654 3013.0 654Q3037.0 654 3060.0 653.0Q3083.0 652 3104.5 651.0Q3126.0 650 3148.0 650Q3169.0 650 3190.5 651.0Q3212.0 652 3235.0 653.0Q3258.0 654 3282.0 654Q3292.0 654 3298.0 650.5Q3304.0 647 3304.0 640Q3304.0 632 3297.5 627.5Q3291.0 623 3279.0 620Q3239.0 610 3225.0 596.0Q3211.0 582 3211.0 550V98Q3211.0 67 3227.5 53.0Q3244.0 39 3282.0 29Q3295.0 26 3301.5 22.0Q3308.0 18 3308.0 10Q3308.0 3 3302.0 0.0Q3296.0 -3 3286.0 -3Q3262.0 -3 3238.0 -2.0Q3214.0 -1 3191.5 0.0Q3169.0 1 3148.0 1Q3126.0 1 3103.0 0.0Q3080.0 -1 3056.0 -2.5Q3032.0 -4 3008.0 -4ZM3533.0 -4Q3523.0 -4 3515.5 -0.5Q3508.0 3 3508.0 9Q3508.0 17 3515.0 22.0Q3522.0 27 3535.0 29Q3573.0 37 3591.0 51.5Q3609.0 66 3609.0 99V504Q3609.0 545 3607.0 566.0Q3605.0 587 3601.5 594.5Q3598.0 602 3591.0 603Q3581.0 607 3566.0 608.0Q3551.0 609 3537.0 609H3506.0Q3477.0 609 3450.0 595.5Q3423.0 582 3408.0 559Q3404.0 553 3395.5 542.0Q3387.0 531 3377.5 522.0Q3368.0 513 3358.0 513Q3351.0 513 3348.5 518.0Q3346.0 523 3346.0 529Q3346.0 541 3352.0 553Q3369.0 587 3377.5 612.5Q3386.0 638 3389.0 673Q3391.0 688 3397.5 692.5Q3404.0 697 3411.0 697Q3417.0 697 3425.5 684.5Q3434.0 672 3441.0 664Q3450.0 655 3473.0 650.5Q3496.0 646 3512.0 646L3881.0 647Q3909.0 647 3928.0 651.5Q3947.0 656 3958.0 661Q3973.0 670 3982.0 679.5Q3991.0 689 4003.0 689Q4008.0 689 4010.5 683.5Q4013.0 678 4013.0 670Q4013.0 665 4012.0 658.5Q4011.0 652 4010.0 647Q4006.0 628 4002.0 613.5Q3998.0 599 3995.5 586.5Q3993.0 574 3993.0 558V541Q3993.0 527 3989.0 517.0Q3985.0 507 3976.0 507Q3968.0 507 3962.5 516.5Q3957.0 526 3951.0 546Q3942.0 578 3921.0 593.5Q3900.0 609 3855.0 609H3787.0Q3768.0 609 3757.5 602.0Q3747.0 595 3742.5 571.5Q3738.0 548 3738.0 499V100Q3738.0 68 3756.0 53.5Q3774.0 39 3813.0 29Q3825.0 26 3832.0 22.0Q3839.0 18 3839.0 10Q3839.0 3 3832.5 0.0Q3826.0 -3 3816.0 -3Q3792.0 -3 3768.0 -2.0Q3744.0 -1 3720.5 0.0Q3697.0 1 3675.0 1Q3653.0 1 3629.5 0.0Q3606.0 -1 3581.5 -2.5Q3557.0 -4 3533.0 -4ZM4200.0 -6Q4187.0 -6 4179.5 -2.0Q4172.0 2 4172.0 9Q4172.0 17 4180.5 21.5Q4189.0 26 4202.0 29Q4240.0 36 4257.0 56.0Q4274.0 76 4274.0 109V251Q4274.0 280 4264.0 303.5Q4254.0 327 4245.0 343L4120.0 540Q4112.0 553 4099.5 569.5Q4087.0 586 4072.0 600.0Q4057.0 614 4038.0 619Q4026.0 623 4018.5 627.5Q4011.0 632 4011.0 640Q4011.0 647 4018.0 650.5Q4025.0 654 4035.0 654Q4071.0 654 4106.5 651.5Q4142.0 649 4182.0 649Q4211.0 649 4237.5 651.5Q4264.0 654 4292.0 654Q4302.0 654 4311.0 650.5Q4320.0 647 4320.0 640Q4320.0 632 4311.0 627.0Q4302.0 622 4290.0 619Q4267.0 614 4255.5 607.0Q4244.0 600 4244.0 586Q4244.0 571 4256.0 551L4355.0 376Q4368.0 351 4377.0 351Q4382.0 351 4387.0 357.0Q4392.0 363 4400.0 376Q4424.0 415 4444.0 453.0Q4464.0 491 4487.0 536Q4493.0 548 4496.5 559.5Q4500.0 571 4500.0 580Q4500.0 600 4484.0 608.5Q4468.0 617 4451.0 619Q4441.0 620 4430.0 626.0Q4419.0 632 4419.0 640Q4419.0 647 4428.0 650.0Q4437.0 653 4448.0 653Q4475.0 653 4495.5 651.0Q4516.0 649 4541.0 649Q4569.0 649 4594.5 652.0Q4620.0 655 4644.0 655Q4656.0 655 4664.5 652.0Q4673.0 649 4673.0 641Q4673.0 632 4661.0 627.5Q4649.0 623 4635.0 619Q4607.0 611 4587.0 592.0Q4567.0 573 4548.0 543Q4531.0 515 4516.0 491.5Q4501.0 468 4487.5 446.5Q4474.0 425 4460.0 402.5Q4446.0 380 4430.0 353Q4420.0 336 4414.5 322.0Q4409.0 308 4406.0 293.0Q4403.0 278 4403.0 258V110Q4403.0 73 4420.0 55.5Q4437.0 38 4475.0 29Q4489.0 26 4497.5 22.0Q4506.0 18 4506.0 9Q4506.0 3 4498.5 -1.0Q4491.0 -5 4479.0 -5Q4455.0 -5 4431.0 -3.0Q4407.0 -1 4384.5 0.5Q4362.0 2 4340.0 2Q4318.0 2 4295.0 0.5Q4272.0 -1 4248.0 -3.5Q4224.0 -6 4200.0 -6Z" transform="matrix(0.022120 0 0 -0.022120 97.94 391.34)" fill="#15130f"/></svg>