<svg xmlns="http://www.w3.org/2000/svg" viewBox="0 0 300 446"><rect width="300" height="446" fill="#f4ecd8"/><rect x="20.0" y="25.5" width="260" height="395" rx="20.3" fill="#f4ecd8" stroke="#15130f" stroke-width="1.5"/><rect x="36.9" y="42.4" width="226.2" height="354.7" fill="none" stroke="#15130f" stroke-width="0.7"/><g fill="none" stroke="#15130f" stroke-width="0.65" stroke-opacity="0.72" stroke-linecap="round" stroke-linejoin="round"><line x1="36.9" y1="210.4" x2="263.1" y2="210.4"/></g><path d="M36.9,370.6 H263.1 V397.1 H36.9 Z" fill="#d9cf9a"/><g fill="none" stroke="#15130f" stroke-width="0.8"><line x1="36.9" y1="370.6" x2="263.1" y2="370.6"/><line x1="61.6" y1="370.6" x2="61.6" y2="397.1"/><line x1="238.4" y1="370.6" x2="238.4" y2="397.1"/></g><rect x="141.4" y="34.4" width="17.2" height="19.0" fill="#d9cf9a" stroke="#15130f" stroke-width="0.8"/><path d="M923.0 348Q946.0 348 948.0 331L946.0 321L931.0 277Q917.0 236 896.0 192L845.0 85Q815.0 23 792.5 9.5Q770.0 -4 697.0 -4Q653.0 -4 591.0 -1L506.0 4Q458.0 6 371.0 6Q208.0 6 167.0 -1Q139.0 -6 126.0 -6Q95.0 -6 95.0 21Q95.0 40 154.0 106Q246.0 211 365.0 383.0Q484.0 555 541.0 665Q617.0 813 617.0 932Q617.0 1035 559.0 1096.0Q501.0 1157 404.0 1157Q266.0 1157 156.0 1033Q146.0 1021 138.0 1021Q131.0 1021 122.5 1029.5Q114.0 1038 114.0 1046Q114.0 1059 145.0 1101.5Q176.0 1144 210.0 1176Q343.0 1307 517.0 1307Q655.0 1307 740.0 1230.5Q825.0 1154 825.0 1029Q825.0 803 432.0 355L384.0 300Q342.0 253 342.0 233Q342.0 198 426.0 198L590.0 200L686.0 201Q750.0 204 811.0 241.0Q872.0 278 902.0 333Q911.0 348 923.0 348Z" transform="matrix(0.006858 0 0 -0.006858 146.42 49.14)" fill="#15130f"/><path d="M450.0 1050V690Q569.0 900 750.0 900Q934.0 900 1042.0 757.0Q1150.0 614 1150.0 429Q1150.0 290 1050.0 130.5Q950.0 -29 950.0 -150Q950.0 -420 1132.0 -450Q1179.0 -450 1240.0 -420L1260.0 -450Q1183.0 -500 1102.0 -500Q954.0 -500 852.0 -391.0Q750.0 -282 750.0 -150Q750.0 -44 850.0 129.5Q950.0 303 950.0 429Q950.0 573 887.5 686.5Q825.0 800 706.0 800Q551.0 800 450.0 576V200Q450.0 150 490.0 95.0Q530.0 40 600.0 40H650.0V0H50.0V40H100.0Q170.0 40 210.0 95.0Q250.0 150 250.0 200V1050H50.0V1150H250.0V1200Q250.0 1250 210.0 1305.0Q170.0 1360 100.0 1360H50.0V1400H650.0V1360H600.0Q530.0 1360 490.0 1305.0Q450.0 1250 450.0 1200V1150H650.0V1050Z" transform="matrix(0.009268 0 0 -0.009268 43.18 388.04)" fill="#15130f"/><path d="M467.0 450Q467.0 349 495.0 264.5Q523.0 180 575.5 135.0Q628.0 90 684.0 90Q741.0 90 793.5 135.0Q846.0 180 874.0 264.5Q902.0 349 902.0 450Q902.0 541 874.0 625.5Q846.0 710 793.5 755.0Q741.0 800 684.0 800Q628.0 800 575.5 755.0Q523.0 710 495.0 625.5Q467.0 541 467.0 450ZM897.0 840Q995.0 782 1048.0 676Q1102.0 567 1102.0 450Q1102.0 323 1048.0 214.5Q994.0 106 893.5 48.0Q793.0 -10 684.0 -10Q576.0 -10 475.5 48.0Q375.0 106 321.0 214.5Q267.0 323 267.0 450Q267.0 567 321.0 676Q374.0 782 472.0 840Q374.0 878 321.0 950Q267.0 1022 267.0 1100Q267.0 1162 239.0 1210.5Q211.0 1259 158.5 1284.5Q106.0 1310 50.0 1310V1410Q158.0 1410 258.5 1371.5Q359.0 1333 413.0 1260.5Q467.0 1188 467.0 1100Q467.0 1048 495.0 999.5Q523.0 951 575.5 925.5Q628.0 900 684.0 900Q741.0 900 793.5 925.5Q846.0 951 874.0 999.5Q902.0 1048 902.0 1100Q902.0 1188 956.0 1260.5Q1010.0 1333 1110.5 1371.5Q1211.0 1410 1320.0 1410V1310Q1263.0 1310 1210.5 1284.5Q1158.0 1259 1130.0 1210.5Q1102.0 1162 1102.0 1100Q1102.0 1022 1048.0 950Q995.0 878 897.0 840Z" transform="matrix(0.009268 0 0 -0.009268 244.40 390.35)" fill="#15130f"/><path d="M376.0 -14Q308.0 -14 246.0 9.5Q184.0 33 136.5 76.5Q89.0 120 61.5 180.5Q34.0 241 34.0 315Q34.0 383 56.5 445.5Q79.0 508 123.5 557.0Q168.0 606 233.5 635.0Q299.0 664 385.0 664Q453.0 664 514.5 640.5Q576.0 617 624.0 573.5Q672.0 530 699.5 469.5Q727.0 409 727.0 335Q727.0 268 704.5 205.0Q682.0 142 637.5 93.0Q593.0 44 527.5 15.0Q462.0 -14 376.0 -14ZM393.0 30Q456.0 30 498.5 62.0Q541.0 94 562.5 151.5Q584.0 209 584.0 284Q584.0 348 571.0 408.0Q558.0 468 531.0 515.5Q504.0 563 463.5 591.0Q423.0 619 367.0 619Q304.0 619 261.5 587.0Q219.0 555 198.0 498.0Q177.0 441 177.0 366Q177.0 302 190.0 242.0Q203.0 182 229.5 134.0Q256.0 86 296.5 58.0Q337.0 30 393.0 30ZM975.0 -15Q932.0 -15 893.5 -4.0Q855.0 7 823.0 29Q817.0 34 812.0 39.5Q807.0 45 804.0 52Q796.0 77 793.0 113.5Q790.0 150 791.0 184Q791.0 191 796.5 194.0Q802.0 197 810.0 197Q818.0 197 822.5 194.5Q827.0 192 829.0 185Q851.0 110 893.0 68.0Q935.0 26 988.0 26Q1021.0 26 1044.0 41.0Q1067.0 56 1079.0 80.0Q1091.0 104 1091.0 132Q1091.0 167 1078.5 190.0Q1066.0 213 1041.0 231.5Q1016.0 250 978.0 271Q937.0 295 898.0 321.5Q859.0 348 834.0 384.5Q809.0 421 809.0 475Q809.0 531 837.5 573.5Q866.0 616 917.0 640.0Q968.0 664 1035.0 664Q1072.0 664 1104.0 656.0Q1136.0 648 1155.0 640Q1166.0 636 1171.5 630.0Q1177.0 624 1180.0 611Q1186.0 590 1190.5 561.0Q1195.0 532 1195.0 500Q1195.0 488 1177.0 488Q1169.0 488 1161.0 492.0Q1153.0 496 1151.0 503Q1133.0 561 1101.5 591.0Q1070.0 621 1024.0 621Q993.0 621 971.0 610.5Q949.0 600 936.0 578.5Q923.0 557 923.0 523Q923.0 497 940.5 475.0Q958.0 453 989.5 432.0Q1021.0 411 1060.0 386Q1108.0 358 1140.5 329.5Q1173.0 301 1190.0 266.5Q1207.0 232 1207.0 185Q1207.0 119 1178.0 74.5Q1149.0 30 1097.0 7.5Q1045.0 -15 975.0 -15ZM1454.0 -4Q1444.0 -4 1436.5 -0.5Q1429.0 3 1429.0 9Q1429.0 17 1436.0 22.0Q1443.0 27 1456.0 29Q1494.0 37 1512.0 51.5Q1530.0 66 1530.0 99V504Q1530.0 545 1528.0 566.0Q1526.0 587 1522.5 594.5Q1519.0 602 1512.0 603Q1502.0 607 1487.0 608.0Q1472.0 609 1458.0 609H1427.0Q1398.0 609 1371.0 595.5Q1344.0 582 1329.0 559Q1325.0 553 1316.5 542.0Q1308.0 531 1298.5 522.0Q1289.0 513 1279.0 513Q1272.0 513 1269.5 518.0Q1267.0 523 1267.0 529Q1267.0 541 1273.0 553Q1290.0 587 1298.5 612.5Q1307.0 638 1310.0 673Q1312.0 688 1318.5 692.5Q1325.0 697 1332.0 697Q1338.0 697 1346.5 684.5Q1355.0 672 1362.0 664Q1371.0 655 1394.0 650.5Q1417.0 646 1433.0 646L1802.0 647Q1830.0 647 1849.0 651.5Q1868.0 656 1879.0 661Q1894.0 670 1903.0 679.5Q1912.0 689 1924.0 689Q1929.0 689 1931.5 683.5Q1934.0 678 1934.0 670Q1934.0 665 1933.0 658.5Q1932.0 652 1931.0 647Q1927.0 628 1923.0 613.5Q1919.0 599 1916.5 586.5Q1914.0 574 1914.0 558V541Q1914.0 527 1910.0 517.0Q1906.0 507 1897.0 507Q1889.0 507 1883.5 516.5Q1878.0 526 1872.0 546Q1863.0 578 1842.0 593.5Q1821.0 609 1776.0 609H1708.0Q1689.0 609 1678.5 602.0Q1668.0 595 1663.5 571.5Q1659.0 548 1659.0 499V100Q1659.0 68 1677.0 53.5Q1695.0 39 1734.0 29Q1746.0 26 1753.0 22.0Q1760.0 18 1760.0 10Q1760.0 3 1753.5 0.0Q1747.0 -3 1737.0 -3Q1713.0 -3 1689.0 -2.0Q1665.0 -1 1641.5 0.0Q1618.0 1 1596.0 1Q1574.0 1 1550.5 0.0Q1527.0 -1 1502.5 -2.5Q1478.0 -4 1454.0 -4ZM1981.0 -5Q1970.0 -5 1963.5 -1.0Q1957.0 3 1957.0 9Q1957.0 22 1983.0 28Q2019.0 37 2034.5 50.5Q2050.0 64 2050.0 97V550Q2050.0 584 2036.5 598.0Q2023.0 612 1986.0 620Q1972.0 623 1966.0 628.5Q1960.0 634 1960.0 640Q1960.0 647 1966.5 650.5Q1973.0 654 1984.0 654Q2013.0 654 2039.5 653.0Q2066.0 652 2091.0 651.0Q2116.0 650 2143.0 650Q2189.0 650 2240.5 651.0Q2292.0 652 2333.0 652Q2366.0 653 2387.5 655.0Q2409.0 657 2413.0 657Q2420.0 657 2427.5 654.0Q2435.0 651 2436.0 642Q2440.0 609 2446.0 577.0Q2452.0 545 2452.0 521Q2452.0 512 2447.5 507.5Q2443.0 503 2438.0 503Q2433.0 503 2429.0 506.5Q2425.0 510 2422.0 517Q2414.0 540 2407.0 557.0Q2400.0 574 2391.0 583Q2378.0 597 2361.0 605.0Q2344.0 613 2320.0 613H2227.0Q2209.0 613 2194.0 602.5Q2179.0 592 2179.0 573V377Q2179.0 366 2185.5 360.0Q2192.0 354 2201.0 354H2293.0Q2320.0 354 2331.5 369.0Q2343.0 384 2351.0 410Q2358.0 430 2370.0 430Q2375.0 430 2379.0 424.5Q2383.0 419 2383.0 410Q2382.0 400 2381.0 386.0Q2380.0 372 2379.5 358.0Q2379.0 344 2379.0 333Q2379.0 321 2379.5 306.0Q2380.0 291 2380.5 276.5Q2381.0 262 2382.0 252Q2383.0 241 2380.5 235.0Q2378.0 229 2372.0 229Q2356.0 229 2349.0 257Q2341.0 285 2330.0 299.0Q2319.0 313 2300.0 313H2206.0Q2193.0 313 2186.0 308.0Q2179.0 303 2179.0 289V99Q2179.0 66 2193.0 53.0Q2207.0 40 2236.0 40H2318.0Q2343.0 40 2363.5 45.0Q2384.0 50 2399.0 61Q2416.0 73 2429.5 93.5Q2443.0 114 2456.0 139Q2460.0 147 2464.0 149.5Q2468.0 152 2474.0 152Q2479.0 151 2481.5 146.0Q2484.0 141 2484.0 135Q2484.0 121 2479.0 99.0Q2474.0 77 2466.5 53.5Q2459.0 30 2453.0 10Q2450.0 3 2445.0 -0.5Q2440.0 -4 2433.0 -4Q2409.0 -4 2371.5 -3.5Q2334.0 -3 2290.0 -2.0Q2246.0 -1 2200.0 -0.5Q2154.0 0 2112.0 0Q2091.0 0 2069.5 -1.0Q2048.0 -2 2026.0 -3.5Q2004.0 -5 1981.0 -5ZM3179.0 -18Q3167.0 -18 3139.0 -3.0Q3111.0 12 3082.0 49Q3065.0 68 3040.5 95.5Q3016.0 123 2986.5 156.0Q2957.0 189 2925.0 225.0Q2893.0 261 2861.5 297.0Q2830.0 333 2800.0 366.0Q2770.0 399 2745.0 426.5Q2720.0 454 2703.0 474Q2699.0 479 2694.5 482.5Q2690.0 486 2687.0 486Q2683.0 486 2681.0 479.0Q2679.0 472 2679.0 466Q2679.0 420 2679.5 357.0Q2680.0 294 2680.0 229.0Q2680.0 164 2680.0 109Q2680.0 78 2698.0 58.0Q2716.0 38 2755.0 29Q2767.0 27 2775.5 22.5Q2784.0 18 2784.0 10Q2784.0 3 2776.0 0.0Q2768.0 -3 2758.0 -3Q2731.0 -3 2715.0 -2.0Q2699.0 -1 2686.0 0.0Q2673.0 1 2653.0 1Q2632.0 1 2615.5 0.0Q2599.0 -1 2586.0 -2.5Q2573.0 -4 2561.0 -4Q2551.0 -4 2543.0 -0.5Q2535.0 3 2535.0 9Q2535.0 17 2542.5 21.5Q2550.0 26 2563.0 30Q2589.0 38 2601.5 59.5Q2614.0 81 2617.0 111Q2621.0 149 2625.0 210.5Q2629.0 272 2632.5 349.0Q2636.0 426 2636.0 508Q2636.0 560 2609.5 583.0Q2583.0 606 2543.0 620Q2536.0 622 2525.0 628.0Q2514.0 634 2514.0 643Q2514.0 652 2522.0 655.0Q2530.0 658 2539.0 658Q2560.0 658 2581.0 657.0Q2602.0 656 2623.5 655.5Q2645.0 655 2668.5 654.0Q2692.0 653 2719.0 653Q2728.0 653 2732.5 649.5Q2737.0 646 2741.0 640Q2757.0 621 2782.0 592.5Q2807.0 564 2836.5 529.5Q2866.0 495 2898.5 457.0Q2931.0 419 2963.5 381.0Q2996.0 343 3026.0 308.5Q3056.0 274 3080.5 245.5Q3105.0 217 3121.0 199Q3125.0 195 3130.5 189.0Q3136.0 183 3140.0 183Q3148.0 183 3149.0 200Q3149.0 226 3149.0 266.5Q3149.0 307 3149.5 356.5Q3150.0 406 3149.5 458.0Q3149.0 510 3148.0 558Q3147.0 583 3127.5 597.5Q3108.0 612 3079.0 618Q3067.0 621 3056.5 625.5Q3046.0 630 3046.0 639Q3046.0 646 3056.5 649.0Q3067.0 652 3076.0 652Q3096.0 652 3109.5 652.0Q3123.0 652 3135.0 651.5Q3147.0 651 3160.0 651Q3182.0 651 3196.0 651.5Q3210.0 652 3226.5 653.0Q3243.0 654 3270.0 654Q3282.0 654 3289.5 650.5Q3297.0 647 3297.0 641Q3297.0 626 3268.0 620Q3233.0 613 3218.5 601.0Q3204.0 589 3203.0 561Q3203.0 536 3202.5 497.0Q3202.0 458 3201.0 412.0Q3200.0 366 3198.5 318.0Q3197.0 270 3196.5 224.0Q3196.0 178 3196.0 141Q3196.0 117 3198.0 92.0Q3200.0 67 3202.5 47.5Q3205.0 28 3205.0 20Q3205.0 -2 3198.0 -10.0Q3191.0 -18 3179.0 -18ZM3516.0 -4Q3506.0 -4 3498.5 -0.5Q3491.0 3 3491.0 9Q3491.0 17 3498.0 22.0Q3505.0 27 3518.0 29Q3556.0 37 3574.0 51.5Q3592.0 66 3592.0 99V504Q3592.0 545 3590.0 566.0Q3588.0 587 3584.5 594.5Q3581.0 602 3574.0 603Q3564.0 607 3549.0 608.0Q3534.0 609 3520.0 609H3489.0Q3460.0 609 3433.0 595.5Q3406.0 582 3391.0 559Q3387.0 553 3378.5 542.0Q3370.0 531 3360.5 522.0Q3351.0 513 3341.0 513Q3334.0 513 3331.5 518.0Q3329.0 523 3329.0 529Q3329.0 541 3335.0 553Q3352.0 587 3360.5 612.5Q3369.0 638 3372.0 673Q3374.0 688 3380.5 692.5Q3387.0 697 3394.0 697Q3400.0 697 3408.5 684.5Q3417.0 672 3424.0 664Q3433.0 655 3456.0 650.5Q3479.0 646 3495.0 646L3864.0 647Q3892.0 647 3911.0 651.5Q3930.0 656 3941.0 661Q3956.0 670 3965.0 679.5Q3974.0 689 3986.0 689Q3991.0 689 3993.5 683.5Q3996.0 678 3996.0 670Q3996.0 665 3995.0 658.5Q3994.0 652 3993.0 647Q3989.0 628 3985.0 613.5Q3981.0 599 3978.5 586.5Q3976.0 574 3976.0 558V541Q3976.0 527 3972.0 517.0Q3968.0 507 3959.0 507Q3951.0 507 3945.5 516.5Q3940.0 526 3934.0 546Q3925.0 578 3904.0 593.5Q3883.0 609 3838.0 609H3770.0Q3751.0 609 3740.5 602.0Q3730.0 595 3725.5 571.5Q3721.0 548 3721.0 499V100Q3721.0 68 3739.0 53.5Q3757.0 39 3796.0 29Q3808.0 26 3815.0 22.0Q3822.0 18 3822.0 10Q3822.0 3 3815.5 0.0Q3809.0 -3 3799.0 -3Q3775.0 -3 3751.0 -2.0Q3727.0 -1 3703.5 0.0Q3680.0 1 3658.0 1Q3636.0 1 3612.5 0.0Q3589.0 -1 3564.5 -2.5Q3540.0 -4 3516.0 -4ZM4018.0 -5Q4006.0 -5 3998.0 -1.5Q3990.0 2 3990.0 10Q3990.0 19 3997.5 24.0Q4005.0 29 4017.0 33Q4046.0 41 4067.5 57.5Q4089.0 74 4102.0 103Q4127.0 162 4150.0 216.5Q4173.0 271 4194.0 325.0Q4215.0 379 4236.5 435.0Q4258.0 491 4280.0 553Q4291.0 584 4295.0 601.0Q4299.0 618 4302.0 626Q4317.0 630 4330.0 634.0Q4343.0 638 4359.0 644Q4373.0 651 4383.0 662.0Q4393.0 673 4398.0 679Q4401.0 681 4404.0 681.5Q4407.0 682 4410.0 677Q4413.0 671 4415.0 665.0Q4417.0 659 4419.0 652Q4441.0 581 4464.5 508.5Q4488.0 436 4511.0 365.5Q4534.0 295 4555.5 230.5Q4577.0 166 4595.0 112Q4604.0 85 4617.5 69.0Q4631.0 53 4647.5 44.5Q4664.0 36 4684.0 31Q4697.0 28 4704.0 23.0Q4711.0 18 4711.0 9Q4711.0 3 4704.5 0.0Q4698.0 -3 4688.0 -3Q4670.0 -3 4642.5 -2.0Q4615.0 -1 4586.0 0.5Q4557.0 2 4534.0 2Q4514.0 2 4489.5 1.0Q4465.0 0 4440.5 -1.0Q4416.0 -2 4399.0 -2Q4389.0 -2 4381.5 1.5Q4374.0 5 4374.0 12Q4374.0 20 4382.0 25.5Q4390.0 31 4401.0 33Q4437.0 39 4453.0 51.5Q4469.0 64 4465.0 88Q4462.0 105 4456.0 128.5Q4450.0 152 4443.5 177.5Q4437.0 203 4430.0 224Q4428.0 232 4424.0 235.5Q4420.0 239 4409.0 239H4229.0Q4222.0 239 4218.0 234.5Q4214.0 230 4212.0 221Q4208.0 208 4202.5 191.5Q4197.0 175 4191.5 157.5Q4186.0 140 4181.5 125.0Q4177.0 110 4175.0 99Q4170.0 72 4184.5 56.5Q4199.0 41 4235.0 32Q4262.0 25 4262.0 11Q4262.0 5 4255.5 1.5Q4249.0 -2 4237.0 -2Q4214.0 -2 4189.0 -0.5Q4164.0 1 4134.0 1Q4104.0 1 4075.5 -2.0Q4047.0 -5 4018.0 -5ZM4256.0 285H4395.0Q4409.0 285 4409.0 291Q4409.0 294 4408.5 296.0Q4408.0 298 4407.0 302L4337.0 533Q4333.0 547 4330.0 547Q4328.0 547 4323.0 534L4239.0 302Q4237.0 297 4237.0 294Q4237.0 289 4242.5 287.0Q4248.0 285 4256.0 285ZM4914.0 -4Q4904.0 -4 4896.5 -0.5Q4889.0 3 4889.0 9Q4889.0 17 4896.0 22.0Q4903.0 27 4916.0 29Q4954.0 37 4972.0 51.5Q4990.0 66 4990.0 99V504Q4990.0 545 4988.0 566.0Q4986.0 587 4982.5 594.5Q4979.0 602 4972.0 603Q4962.0 607 4947.0 608.0Q4932.0 609 4918.0 609H4887.0Q4858.0 609 4831.0 595.5Q4804.0 582 4789.0 559Q4785.0 553 4776.5 542.0Q4768.0 531 4758.5 522.0Q4749.0 513 4739.0 513Q4732.0 513 4729.5 518.0Q4727.0 523 4727.0 529Q4727.0 541 4733.0 553Q4750.0 587 4758.5 612.5Q4767.0 638 4770.0 673Q4772.0 688 4778.5 692.5Q4785.0 697 4792.0 697Q4798.0 697 4806.5 684.5Q4815.0 672 4822.0 664Q4831.0 655 4854.0 650.5Q4877.0 646 4893.0 646L5262.0 647Q5290.0 647 5309.0 651.5Q5328.0 656 5339.0 661Q5354.0 670 5363.0 679.5Q5372.0 689 5384.0 689Q5389.0 689 5391.5 683.5Q5394.0 678 5394.0 670Q5394.0 665 5393.0 658.5Q5392.0 652 5391.0 647Q5387.0 628 5383.0 613.5Q5379.0 599 5376.5 586.5Q5374.0 574 5374.0 558V541Q5374.0 527 5370.0 517.0Q5366.0 507 5357.0 507Q5349.0 507 5343.5 516.5Q5338.0 526 5332.0 546Q5323.0 578 5302.0 593.5Q5281.0 609 5236.0 609H5168.0Q5149.0 609 5138.5 602.0Q5128.0 595 5123.5 571.5Q5119.0 548 5119.0 499V100Q5119.0 68 5137.0 53.5Q5155.0 39 5194.0 29Q5206.0 26 5213.0 22.0Q5220.0 18 5220.0 10Q5220.0 3 5213.5 0.0Q5207.0 -3 5197.0 -3Q5173.0 -3 5149.0 -2.0Q5125.0 -1 5101.5 0.0Q5078.0 1 5056.0 1Q5034.0 1 5010.5 0.0Q4987.0 -1 4962.5 -2.5Q4938.0 -4 4914.0 -4ZM5432.0 -4Q5423.0 -4 5416.0 -0.5Q5409.0 3 5409.0 9Q5409.0 24 5434.0 29Q5472.0 37 5489.0 51.0Q5506.0 65 5506.0 97V551Q5506.0 584 5492.0 598.0Q5478.0 612 5439.0 620Q5414.0 625 5414.0 641Q5414.0 647 5421.0 650.5Q5428.0 654 5437.0 654Q5461.0 654 5484.0 653.0Q5507.0 652 5528.5 651.0Q5550.0 650 5572.0 650Q5593.0 650 5614.5 651.0Q5636.0 652 5659.0 653.0Q5682.0 654 5706.0 654Q5716.0 654 5722.0 650.5Q5728.0 647 5728.0 640Q5728.0 632 5721.5 627.5Q5715.0 623 5703.0 620Q5663.0 610 5649.0 596.0Q5635.0 582 5635.0 550V98Q5635.0 67 5651.5 53.0Q5668.0 39 5706.0 29Q5719.0 26 5725.5 22.0Q5732.0 18 5732.0 10Q5732.0 3 5726.0 0.0Q5720.0 -3 5710.0 -3Q5686.0 -3 5662.0 -2.0Q5638.0 -1 5615.5 0.0Q5593.0 1 5572.0 1Q5550.0 1 5527.0 0.0Q5504.0 -1 5480.0 -2.5Q5456.0 -4 5432.0 -4ZM6124.0 -14Q6056.0 -14 5994.0 9.5Q5932.0 33 5884.5 76.5Q5837.0 120 5809.5 180.5Q5782.0 241 5782.0 315Q5782.0 383 5804.5 445.5Q5827.0 508 5871.5 557.0Q5916.0 606 5981.5 635.0Q6047.0 664 6133.0 664Q6201.0 664 6262.5 640.5Q6324.0 617 6372.0 573.5Q6420.0 530 6447.5 469.5Q6475.0 409 6475.0 335Q6475.0 268 6452.5 205.0Q6430.0 142 6385.5 93.0Q6341.0 44 6275.5 15.0Q6210.0 -14 6124.0 -14ZM6141.0 30Q6204.0 30 6246.5 62.0Q6289.0 94 6310.5 151.5Q6332.0 209 6332.0 284Q6332.0 348 6319.0 408.0Q6306.0 468 6279.0 515.5Q6252.0 563 6211.5 591.0Q6171.0 619 6115.0 619Q6052.0 619 6009.5 587.0Q5967.0 555 5946.0 498.0Q5925.0 441 5925.0 366Q5925.0 302 5938.0 242.0Q5951.0 182 5977.5 134.0Q6004.0 86 6044.5 58.0Q6085.0 30 6141.0 30ZM7185.0 -18Q7173.0 -18 7145.0 -3.0Q7117.0 12 7088.0 49Q7071.0 68 7046.5 95.5Q7022.0 123 6992.5 156.0Q6963.0 189 6931.0 225.0Q6899.0 261 6867.5 297.0Q6836.0 333 6806.0 366.0Q6776.0 399 6751.0 426.5Q6726.0 454 6709.0 474Q6705.0 479 6700.5 482.5Q6696.0 486 6693.0 486Q6689.0 486 6687.0 479.0Q6685.0 472 6685.0 466Q6685.0 420 6685.5 357.0Q6686.0 294 6686.0 229.0Q6686.0 164 6686.0 109Q6686.0 78 6704.0 58.0Q6722.0 38 6761.0 29Q6773.0 27 6781.5 22.5Q6790.0 18 6790.0 10Q6790.0 3 6782.0 0.0Q6774.0 -3 6764.0 -3Q6737.0 -3 6721.0 -2.0Q6705.0 -1 6692.0 0.0Q6679.0 1 6659.0 1Q6638.0 1 6621.5 0.0Q6605.0 -1 6592.0 -2.5Q6579.0 -4 6567.0 -4Q6557.0 -4 6549.0 -0.5Q6541.0 3 6541.0 9Q6541.0 17 6548.5 21.5Q6556.0 26 6569.0 30Q6595.0 38 6607.5 59.5Q6620.0 81 6623.0 111Q6627.0 149 6631.0 210.5Q6635.0 272 6638.5 349.0Q6642.0 426 6642.0 508Q6642.0 560 6615.5 583.0Q6589.0 606 6549.0 620Q6542.0 622 6531.0 628.0Q6520.0 634 6520.0 643Q6520.0 652 6528.0 655.0Q6536.0 658 6545.0 658Q6566.0 658 6587.0 657.0Q6608.0 656 6629.5 655.5Q6651.0 655 6674.5 654.0Q6698.0 653 6725.0 653Q6734.0 653 6738.5 649.5Q6743.0 646 6747.0 640Q6763.0 621 6788.0 592.5Q6813.0 564 6842.5 529.5Q6872.0 495 6904.5 457.0Q6937.0 419 6969.5 381.0Q7002.0 343 7032.0 308.5Q7062.0 274 7086.5 245.5Q7111.0 217 7127.0 199Q7131.0 195 7136.5 189.0Q7142.0 183 7146.0 183Q7154.0 183 7155.0 200Q7155.0 226 7155.0 266.5Q7155.0 307 7155.5 356.5Q7156.0 406 7155.5 458.0Q7155.0 510 7154.0 558Q7153.0 583 7133.5 597.5Q7114.0 612 7085.0 618Q7073.0 621 7062.5 625.5Q7052.0 630 7052.0 639Q7052.0 646 7062.5 649.0Q7073.0 652 7082.0 652Q7102.0 652 7115.5 652.0Q7129.0 652 7141.0 651.5Q7153.0 651 7166.0 651Q7188.0 651 7202.0 651.5Q7216.0 652 7232.5 653.0Q7249.0 654 7276.0 654Q7288.0 654 7295.5 650.5Q7303.0 647 7303.0 641Q7303.0 626 7274.0 620Q7239.0 613 7224.5 601.0Q7210.0 589 7209.0 561Q7209.0 536 7208.5 497.0Q7208.0 458 7207.0 412.0Q7206.0 366 7204.5 318.0Q7203.0 270 7202.5 224.0Q7202.0 178 7202.0 141Q7202.0 117 7204.0 92.0Q7206.0 67 7208.5 47.5Q7211.0 28 7211.0 20Q7211.0 -2 7204.0 -10.0Q7197.0 -18 7185.0 -18Z" transform="matrix(0.020720 0 0 -0.020720 73.99 390.90)" fill="#15130f"/></svg>