<svg xmlns="http://www.w3.org/2000/svg" viewBox="0 0 300 446"><rect width="300" height="446" fill="#f4ecd8"/><rect x="20.0" y="25.5" width="260" height="395" rx="20.3" fill="#f4ecd8" stroke="#15130f" stroke-width="1.5"/><rect x="36.9" y="42.4" width="226.2" height="354.7" fill="none" stroke="#15130f" stroke-width="0.7"/><g fill="none" stroke="#15130f" stroke-width="0.65" stroke-opacity="0.72" stroke-linecap="round" stroke-linejoin="round"><line x1="36.9" y1="210.4" x2="263.1" y2="210.4"/></g><path d="M36.9,370.6 H263.1 V397.1 H36.9 Z" fill="#d9cf9a"/><g fill="none" stroke="#15130f" stroke-width="0.8"><line x1="36.9" y1="370.6" x2="263.1" y2="370.6"/><line x1="61.6" y1="370.6" x2="61.6" y2="397.1"/><line x1="238.4" y1="370.6" x2="238.4" y2="397.1"/></g><rect x="141.4" y="34.4" width="17.2" height="19.0" fill="#d9cf9a" stroke="#15130f" stroke-width="0.8"/><path d="M511.0 1307Q708.0 1307 834.5 1159.0Q961.0 1011 961.0 779Q961.0 491 764.5 263.5Q568.0 36 272.0 -19L193.0 -34Q180.0 -36 170.0 -36Q144.0 -36 145.0 -7Q146.0 8 153.5 12.0Q161.0 16 206.0 26Q348.0 58 482.0 175.0Q616.0 292 661.0 422L680.0 478Q690.0 507 690.0 524Q690.0 554 668.0 553Q658.0 552 642.0 541Q589.0 503 512.5 475.5Q436.0 448 384.0 448Q245.0 448 150.5 558.5Q56.0 669 56.0 830Q56.0 1039 184.0 1173.0Q312.0 1307 511.0 1307ZM455.0 1245Q364.0 1245 307.5 1166.5Q251.0 1088 251.0 963Q251.0 787 326.5 675.5Q402.0 564 522.0 564Q619.0 564 684.5 640.5Q750.0 717 750.0 830Q750.0 997 661.5 1121.0Q573.0 1245 455.0 1245Z" transform="matrix(0.006858 0 0 -0.006858 146.51 49.04)" fill="#15130f"/><path d="M450.0 1050V690Q569.0 900 750.0 900Q934.0 900 1042.0 757.0Q1150.0 614 1150.0 429Q1150.0 290 1050.0 130.5Q950.0 -29 950.0 -150Q950.0 -420 1132.0 -450Q1179.0 -450 1240.0 -420L1260.0 -450Q1183.0 -500 1102.0 -500Q954.0 -500 852.0 -391.0Q750.0 -282 750.0 -150Q750.0 -44 850.0 129.5Q950.0 303 950.0 429Q950.0 573 887.5 686.5Q825.0 800 706.0 800Q551.0 800 450.0 576V200Q450.0 150 490.0 95.0Q530.0 40 600.0 40H650.0V0H50.0V40H100.0Q170.0 40 210.0 95.0Q250.0 150 250.0 200V1050H50.0V1150H250.0V1200Q250.0 1250 210.0 1305.0Q170.0 1360 100.0 1360H50.0V1400H650.0V1360H600.0Q530.0 1360 490.0 1305.0Q450.0 1250 450.0 1200V1150H650.0V1050Z" transform="matrix(0.009268 0 0 -0.009268 43.18 388.04)" fill="#15130f"/><path d="M525.0 394 121.0 -10 50.0 61 454.0 465 136.0 783 277.0 924 595.0 606 1152.0 1163Q975.0 1163 728.0 1234L763.0 1269Q1188.0 1269 1470.0 1410Q1329.0 1128 1329.0 703L1294.0 668Q1223.0 915 1223.0 1092L666.0 535L984.0 217L843.0 76Z" transform="matrix(0.007599 0 0 -0.007599 244.97 389.19)" fill="#15130f"/><path d="M45.0 -4Q36.0 -4 29.0 -0.5Q22.0 3 22.0 9Q22.0 24 47.0 29Q85.0 37 99.5 51.0Q114.0 65 114.0 98V538Q114.0 576 101.5 594.0Q89.0 612 53.0 620Q39.0 623 33.0 628.5Q27.0 634 27.0 640Q27.0 647 33.5 650.5Q40.0 654 51.0 654Q79.0 654 105.0 653.0Q131.0 652 156.0 651.0Q181.0 650 207.0 650Q243.0 650 285.5 650.0Q328.0 650 366.0 650Q404.0 650 434.5 655.5Q465.0 661 486.0 661Q492.0 661 499.5 657.5Q507.0 654 508.0 645Q510.0 626 511.0 602.0Q512.0 578 512.5 556.0Q513.0 534 513.0 521Q513.0 501 502.0 501Q497.0 501 491.5 505.0Q486.0 509 484.0 516Q478.0 538 470.5 555.5Q463.0 573 452.0 583Q439.0 598 421.5 604.0Q404.0 610 381.0 610H290.0Q266.0 610 254.5 596.5Q243.0 583 243.0 562Q243.0 544 243.0 519.0Q243.0 494 243.0 472Q243.0 449 243.0 423.0Q243.0 397 243.0 376Q243.0 366 247.5 359.5Q252.0 353 262.0 353Q289.0 353 316.5 354.0Q344.0 355 365.0 355Q389.0 355 402.5 369.0Q416.0 383 424.0 403Q428.0 410 433.5 415.0Q439.0 420 444.0 420Q449.0 420 453.5 415.0Q458.0 410 457.0 400Q455.0 381 453.5 364.5Q452.0 348 452.0 334Q452.0 316 453.0 302.0Q454.0 288 456.0 265Q457.0 254 454.5 248.0Q452.0 242 446.0 242Q438.0 242 431.5 250.0Q425.0 258 423.0 266Q415.0 293 402.5 303.0Q390.0 313 374.0 313Q362.0 313 349.5 313.5Q337.0 314 326.0 314Q311.0 314 295.5 314.0Q280.0 314 265.0 313Q254.0 312 248.0 306.5Q242.0 301 242.0 289Q242.0 243 242.5 195.0Q243.0 147 244.0 99Q245.0 68 261.0 53.0Q277.0 38 317.0 29Q330.0 27 336.0 22.5Q342.0 18 342.0 10Q342.0 3 336.5 0.0Q331.0 -3 320.0 -3Q297.0 -3 272.5 -1.5Q248.0 0 225.5 1.0Q203.0 2 184.0 2Q162.0 2 139.0 1.0Q116.0 0 92.5 -2.0Q69.0 -4 45.0 -4ZM908.0 -14Q815.0 -14 753.0 19.0Q691.0 52 660.0 111.0Q629.0 170 629.0 249V541Q629.0 571 615.5 592.0Q602.0 613 580.0 619Q550.0 627 550.0 641Q550.0 647 558.0 650.5Q566.0 654 578.0 654Q606.0 654 636.5 652.0Q667.0 650 696.0 650Q722.0 650 755.5 651.5Q789.0 653 813.0 653Q825.0 653 832.5 650.0Q840.0 647 840.0 640Q840.0 630 827.5 625.5Q815.0 621 798.0 614Q784.0 608 771.5 589.5Q759.0 571 759.0 539V270Q759.0 198 783.0 151.5Q807.0 105 847.0 83.0Q887.0 61 937.0 61Q1032.0 61 1078.0 121.0Q1124.0 181 1124.0 293Q1124.0 318 1124.0 352.0Q1124.0 386 1123.5 422.5Q1123.0 459 1122.0 492Q1122.0 531 1116.5 555.5Q1111.0 580 1101.0 594.5Q1091.0 609 1073.0 617Q1063.0 621 1049.5 626.0Q1036.0 631 1036.0 639Q1036.0 647 1044.0 650.0Q1052.0 653 1065.0 653Q1097.0 653 1114.5 652.0Q1132.0 651 1155.0 651Q1172.0 651 1185.5 651.5Q1199.0 652 1212.0 653.0Q1225.0 654 1242.0 654Q1254.0 654 1261.0 651.5Q1268.0 649 1268.0 641Q1268.0 627 1239.0 620Q1208.0 612 1196.0 591.0Q1184.0 570 1182.0 536Q1178.0 457 1176.5 391.0Q1175.0 325 1174.0 258Q1173.0 178 1137.5 116.5Q1102.0 55 1042.0 20.5Q982.0 -14 908.0 -14ZM1323.0 -5Q1312.0 -5 1306.0 -0.5Q1300.0 4 1300.0 9Q1300.0 17 1307.0 21.5Q1314.0 26 1321.0 28Q1357.0 37 1374.0 50.5Q1391.0 64 1391.0 95V555Q1391.0 578 1385.5 590.0Q1380.0 602 1366.5 608.5Q1353.0 615 1327.0 620Q1301.0 625 1301.0 641Q1301.0 647 1308.0 650.5Q1315.0 654 1324.0 654Q1349.0 654 1371.5 653.0Q1394.0 652 1415.0 651.0Q1436.0 650 1457.0 650Q1480.0 650 1503.5 651.0Q1527.0 652 1551.5 653.0Q1576.0 654 1599.0 654Q1609.0 654 1615.0 650.5Q1621.0 647 1621.0 640Q1621.0 632 1614.5 627.5Q1608.0 623 1596.0 620Q1557.0 610 1538.5 598.5Q1520.0 587 1520.0 558V101Q1520.0 72 1533.0 58.5Q1546.0 45 1582.0 45H1691.0Q1714.0 45 1733.0 53.0Q1752.0 61 1764.0 73Q1782.0 89 1794.0 107.0Q1806.0 125 1817.0 149Q1824.0 164 1830.0 172.0Q1836.0 180 1842.0 180Q1849.0 180 1852.0 173.5Q1855.0 167 1855.0 160Q1855.0 159 1854.0 154.0Q1853.0 149 1853.0 146Q1845.0 117 1839.5 96.0Q1834.0 75 1830.5 55.5Q1827.0 36 1824.0 13Q1823.0 6 1820.0 0.5Q1817.0 -5 1808.0 -5Q1778.0 -5 1736.0 -4.0Q1694.0 -3 1647.0 -2.5Q1600.0 -2 1552.5 -1.0Q1505.0 0 1463.0 0Q1441.0 0 1412.5 -1.0Q1384.0 -2 1359.0 -3.5Q1334.0 -5 1323.0 -5ZM1907.0 -4Q1898.0 -4 1891.0 -0.5Q1884.0 3 1884.0 9Q1884.0 24 1909.0 29Q1947.0 37 1961.5 51.0Q1976.0 65 1976.0 98V538Q1976.0 576 1963.5 594.0Q1951.0 612 1915.0 620Q1901.0 623 1895.0 628.5Q1889.0 634 1889.0 640Q1889.0 647 1895.5 650.5Q1902.0 654 1913.0 654Q1941.0 654 1967.0 653.0Q1993.0 652 2018.0 651.0Q2043.0 650 2069.0 650Q2105.0 650 2147.5 650.0Q2190.0 650 2228.0 650Q2266.0 650 2296.5 655.5Q2327.0 661 2348.0 661Q2354.0 661 2361.5 657.5Q2369.0 654 2370.0 645Q2372.0 626 2373.0 602.0Q2374.0 578 2374.5 556.0Q2375.0 534 2375.0 521Q2375.0 501 2364.0 501Q2359.0 501 2353.5 505.0Q2348.0 509 2346.0 516Q2340.0 538 2332.5 555.5Q2325.0 573 2314.0 583Q2301.0 598 2283.5 604.0Q2266.0 610 2243.0 610H2152.0Q2128.0 610 2116.5 596.5Q2105.0 583 2105.0 562Q2105.0 544 2105.0 519.0Q2105.0 494 2105.0 472Q2105.0 449 2105.0 423.0Q2105.0 397 2105.0 376Q2105.0 366 2109.5 359.5Q2114.0 353 2124.0 353Q2151.0 353 2178.5 354.0Q2206.0 355 2227.0 355Q2251.0 355 2264.5 369.0Q2278.0 383 2286.0 403Q2290.0 410 2295.5 415.0Q2301.0 420 2306.0 420Q2311.0 420 2315.5 415.0Q2320.0 410 2319.0 400Q2317.0 381 2315.5 364.5Q2314.0 348 2314.0 334Q2314.0 316 2315.0 302.0Q2316.0 288 2318.0 265Q2319.0 254 2316.5 248.0Q2314.0 242 2308.0 242Q2300.0 242 2293.5 250.0Q2287.0 258 2285.0 266Q2277.0 293 2264.5 303.0Q2252.0 313 2236.0 313Q2224.0 313 2211.5 313.5Q2199.0 314 2188.0 314Q2173.0 314 2157.5 314.0Q2142.0 314 2127.0 313Q2116.0 312 2110.0 306.5Q2104.0 301 2104.0 289Q2104.0 243 2104.5 195.0Q2105.0 147 2106.0 99Q2107.0 68 2123.0 53.0Q2139.0 38 2179.0 29Q2192.0 27 2198.0 22.5Q2204.0 18 2204.0 10Q2204.0 3 2198.5 0.0Q2193.0 -3 2182.0 -3Q2159.0 -3 2134.5 -1.5Q2110.0 0 2087.5 1.0Q2065.0 2 2046.0 2Q2024.0 2 2001.0 1.0Q1978.0 0 1954.5 -2.0Q1931.0 -4 1907.0 -4ZM2437.0 -4Q2428.0 -4 2421.0 -0.5Q2414.0 3 2414.0 9Q2414.0 24 2439.0 29Q2477.0 37 2494.0 51.0Q2511.0 65 2511.0 97V551Q2511.0 584 2497.0 598.0Q2483.0 612 2444.0 620Q2419.0 625 2419.0 641Q2419.0 647 2426.0 650.5Q2433.0 654 2442.0 654Q2466.0 654 2489.0 653.0Q2512.0 652 2533.5 651.0Q2555.0 650 2577.0 650Q2598.0 650 2619.5 651.0Q2641.0 652 2664.0 653.0Q2687.0 654 2711.0 654Q2721.0 654 2727.0 650.5Q2733.0 647 2733.0 640Q2733.0 632 2726.5 627.5Q2720.0 623 2708.0 620Q2668.0 610 2654.0 596.0Q2640.0 582 2640.0 550V98Q2640.0 67 2656.5 53.0Q2673.0 39 2711.0 29Q2724.0 26 2730.5 22.0Q2737.0 18 2737.0 10Q2737.0 3 2731.0 0.0Q2725.0 -3 2715.0 -3Q2691.0 -3 2667.0 -2.0Q2643.0 -1 2620.5 0.0Q2598.0 1 2577.0 1Q2555.0 1 2532.0 0.0Q2509.0 -1 2485.0 -2.5Q2461.0 -4 2437.0 -4ZM2799.0 -5Q2788.0 -5 2782.0 -0.5Q2776.0 4 2776.0 9Q2776.0 17 2783.0 21.5Q2790.0 26 2797.0 28Q2833.0 37 2850.0 50.5Q2867.0 64 2867.0 95V555Q2867.0 578 2861.5 590.0Q2856.0 602 2842.5 608.5Q2829.0 615 2803.0 620Q2777.0 625 2777.0 641Q2777.0 647 2784.0 650.5Q2791.0 654 2800.0 654Q2825.0 654 2847.5 653.0Q2870.0 652 2891.0 651.0Q2912.0 650 2933.0 650Q2956.0 650 2979.5 651.0Q3003.0 652 3027.5 653.0Q3052.0 654 3075.0 654Q3085.0 654 3091.0 650.5Q3097.0 647 3097.0 640Q3097.0 632 3090.5 627.5Q3084.0 623 3072.0 620Q3033.0 610 3014.5 598.5Q2996.0 587 2996.0 558V101Q2996.0 72 3009.0 58.5Q3022.0 45 3058.0 45H3167.0Q3190.0 45 3209.0 53.0Q3228.0 61 3240.0 73Q3258.0 89 3270.0 107.0Q3282.0 125 3293.0 149Q3300.0 164 3306.0 172.0Q3312.0 180 3318.0 180Q3325.0 180 3328.0 173.5Q3331.0 167 3331.0 160Q3331.0 159 3330.0 154.0Q3329.0 149 3329.0 146Q3321.0 117 3315.5 96.0Q3310.0 75 3306.5 55.5Q3303.0 36 3300.0 13Q3299.0 6 3296.0 0.5Q3293.0 -5 3284.0 -5Q3254.0 -5 3212.0 -4.0Q3170.0 -3 3123.0 -2.5Q3076.0 -2 3028.5 -1.0Q2981.0 0 2939.0 0Q2917.0 0 2888.5 -1.0Q2860.0 -2 2835.0 -3.5Q2810.0 -5 2799.0 -5ZM3384.0 -5Q3373.0 -5 3367.0 -0.5Q3361.0 4 3361.0 9Q3361.0 17 3368.0 21.5Q3375.0 26 3382.0 28Q3418.0 37 3435.0 50.5Q3452.0 64 3452.0 95V555Q3452.0 578 3446.5 590.0Q3441.0 602 3427.5 608.5Q3414.0 615 3388.0 620Q3362.0 625 3362.0 641Q3362.0 647 3369.0 650.5Q3376.0 654 3385.0 654Q3410.0 654 3432.5 653.0Q3455.0 652 3476.0 651.0Q3497.0 650 3518.0 650Q3541.0 650 3564.5 651.0Q3588.0 652 3612.5 653.0Q3637.0 654 3660.0 654Q3670.0 654 3676.0 650.5Q3682.0 647 3682.0 640Q3682.0 632 3675.5 627.5Q3669.0 623 3657.0 620Q3618.0 610 3599.5 598.5Q3581.0 587 3581.0 558V101Q3581.0 72 3594.0 58.5Q3607.0 45 3643.0 45H3752.0Q3775.0 45 3794.0 53.0Q3813.0 61 3825.0 73Q3843.0 89 3855.0 107.0Q3867.0 125 3878.0 149Q3885.0 164 3891.0 172.0Q3897.0 180 3903.0 180Q3910.0 180 3913.0 173.5Q3916.0 167 3916.0 160Q3916.0 159 3915.0 154.0Q3914.0 149 3914.0 146Q3906.0 117 3900.5 96.0Q3895.0 75 3891.5 55.5Q3888.0 36 3885.0 13Q3884.0 6 3881.0 0.5Q3878.0 -5 3869.0 -5Q3839.0 -5 3797.0 -4.0Q3755.0 -3 3708.0 -2.5Q3661.0 -2 3613.5 -1.0Q3566.0 0 3524.0 0Q3502.0 0 3473.5 -1.0Q3445.0 -2 3420.0 -3.5Q3395.0 -5 3384.0 -5ZM3968.0 -4Q3956.0 -4 3949.5 -0.5Q3943.0 3 3943.0 9Q3943.0 17 3951.5 20.5Q3960.0 24 3972.0 27Q3996.0 34 4013.0 54.0Q4030.0 74 4034.0 106Q4042.0 167 4049.5 239.0Q4057.0 311 4063.5 384.0Q4070.0 457 4074.0 521Q4074.0 528 4074.0 537.0Q4074.0 546 4074.0 555Q4073.0 570 4068.5 579.5Q4064.0 589 4053.0 597Q4039.0 607 4024.0 612.5Q4009.0 618 3990.0 622Q3979.0 624 3972.5 629.5Q3966.0 635 3966.0 643Q3966.0 651 3974.0 654.0Q3982.0 657 3995.0 657Q4008.0 657 4030.0 656.0Q4052.0 655 4077.5 653.5Q4103.0 652 4128.0 651.0Q4153.0 650 4172.0 650Q4180.0 650 4186.0 645.0Q4192.0 640 4194.0 633Q4200.0 614 4206.0 596.0Q4212.0 578 4219.0 558L4369.0 191Q4372.0 186 4377.0 185.5Q4382.0 185 4384.0 190L4545.0 548Q4552.0 577 4556.5 599.0Q4561.0 621 4565.0 634Q4568.0 647 4578.0 647H4619.0Q4657.0 649 4699.0 653.0Q4741.0 657 4764.0 657Q4772.0 657 4779.5 654.5Q4787.0 652 4787.0 644Q4787.0 636 4781.0 632.0Q4775.0 628 4763.0 623Q4755.0 621 4744.0 616.5Q4733.0 612 4725.0 608Q4704.0 599 4693.5 585.0Q4683.0 571 4684.0 545Q4685.0 474 4688.0 417.5Q4691.0 361 4693.5 311.5Q4696.0 262 4700.0 210.5Q4704.0 159 4707.0 97Q4709.0 69 4728.5 53.0Q4748.0 37 4781.0 29Q4793.0 26 4800.5 22.0Q4808.0 18 4808.0 10Q4808.0 3 4801.5 0.0Q4795.0 -3 4784.0 -3Q4761.0 -3 4736.0 -2.0Q4711.0 -1 4687.5 0.0Q4664.0 1 4643.0 1Q4623.0 1 4602.0 0.0Q4581.0 -1 4559.0 -2.5Q4537.0 -4 4513.0 -4Q4503.0 -4 4495.5 -0.5Q4488.0 3 4488.0 9Q4488.0 17 4495.5 22.0Q4503.0 27 4515.0 29Q4549.0 36 4562.5 50.0Q4576.0 64 4574.0 97Q4573.0 162 4571.0 222.0Q4569.0 282 4567.0 341.0Q4565.0 400 4562.0 460Q4561.0 468 4557.5 467.5Q4554.0 467 4550.0 459L4346.0 -1Q4342.0 -12 4333.0 -10.5Q4324.0 -9 4321.0 -1Q4275.0 115 4224.5 228.5Q4174.0 342 4125.0 459Q4122.0 467 4116.5 465.0Q4111.0 463 4110.0 454Q4105.0 398 4101.0 338.5Q4097.0 279 4096.0 220.0Q4095.0 161 4095.0 103Q4095.0 76 4112.5 57.0Q4130.0 38 4166.0 29Q4178.0 27 4186.5 22.5Q4195.0 18 4195.0 10Q4195.0 3 4187.0 0.0Q4179.0 -3 4169.0 -3Q4142.0 -3 4128.0 -2.0Q4114.0 -1 4102.0 0.0Q4090.0 1 4070.0 1Q4049.0 1 4030.5 0.0Q4012.0 -1 3996.0 -2.5Q3980.0 -4 3968.0 -4ZM4884.0 -5Q4873.0 -5 4866.5 -1.0Q4860.0 3 4860.0 9Q4860.0 22 4886.0 28Q4922.0 37 4937.5 50.5Q4953.0 64 4953.0 97V550Q4953.0 584 4939.5 598.0Q4926.0 612 4889.0 620Q4875.0 623 4869.0 628.5Q4863.0 634 4863.0 640Q4863.0 647 4869.5 650.5Q4876.0 654 4887.0 654Q4916.0 654 4942.5 653.0Q4969.0 652 4994.0 651.0Q5019.0 650 5046.0 650Q5092.0 650 5143.5 651.0Q5195.0 652 5236.0 652Q5269.0 653 5290.5 655.0Q5312.0 657 5316.0 657Q5323.0 657 5330.5 654.0Q5338.0 651 5339.0 642Q5343.0 609 5349.0 577.0Q5355.0 545 5355.0 521Q5355.0 512 5350.5 507.5Q5346.0 503 5341.0 503Q5336.0 503 5332.0 506.5Q5328.0 510 5325.0 517Q5317.0 540 5310.0 557.0Q5303.0 574 5294.0 583Q5281.0 597 5264.0 605.0Q5247.0 613 5223.0 613H5130.0Q5112.0 613 5097.0 602.5Q5082.0 592 5082.0 573V377Q5082.0 366 5088.5 360.0Q5095.0 354 5104.0 354H5196.0Q5223.0 354 5234.5 369.0Q5246.0 384 5254.0 410Q5261.0 430 5273.0 430Q5278.0 430 5282.0 424.5Q5286.0 419 5286.0 410Q5285.0 400 5284.0 386.0Q5283.0 372 5282.5 358.0Q5282.0 344 5282.0 333Q5282.0 321 5282.5 306.0Q5283.0 291 5283.5 276.5Q5284.0 262 5285.0 252Q5286.0 241 5283.5 235.0Q5281.0 229 5275.0 229Q5259.0 229 5252.0 257Q5244.0 285 5233.0 299.0Q5222.0 313 5203.0 313H5109.0Q5096.0 313 5089.0 308.0Q5082.0 303 5082.0 289V99Q5082.0 66 5096.0 53.0Q5110.0 40 5139.0 40H5221.0Q5246.0 40 5266.5 45.0Q5287.0 50 5302.0 61Q5319.0 73 5332.5 93.5Q5346.0 114 5359.0 139Q5363.0 147 5367.0 149.5Q5371.0 152 5377.0 152Q5382.0 151 5384.5 146.0Q5387.0 141 5387.0 135Q5387.0 121 5382.0 99.0Q5377.0 77 5369.5 53.5Q5362.0 30 5356.0 10Q5353.0 3 5348.0 -0.5Q5343.0 -4 5336.0 -4Q5312.0 -4 5274.5 -3.5Q5237.0 -3 5193.0 -2.0Q5149.0 -1 5103.0 -0.5Q5057.0 0 5015.0 0Q4994.0 0 4972.5 -1.0Q4951.0 -2 4929.0 -3.5Q4907.0 -5 4884.0 -5ZM6082.0 -18Q6070.0 -18 6042.0 -3.0Q6014.0 12 5985.0 49Q5968.0 68 5943.5 95.5Q5919.0 123 5889.5 156.0Q5860.0 189 5828.0 225.0Q5796.0 261 5764.5 297.0Q5733.0 333 5703.0 366.0Q5673.0 399 5648.0 426.5Q5623.0 454 5606.0 474Q5602.0 479 5597.5 482.5Q5593.0 486 5590.0 486Q5586.0 486 5584.0 479.0Q5582.0 472 5582.0 466Q5582.0 420 5582.5 357.0Q5583.0 294 5583.0 229.0Q5583.0 164 5583.0 109Q5583.0 78 5601.0 58.0Q5619.0 38 5658.0 29Q5670.0 27 5678.5 22.5Q5687.0 18 5687.0 10Q5687.0 3 5679.0 0.0Q5671.0 -3 5661.0 -3Q5634.0 -3 5618.0 -2.0Q5602.0 -1 5589.0 0.0Q5576.0 1 5556.0 1Q5535.0 1 5518.5 0.0Q5502.0 -1 5489.0 -2.5Q5476.0 -4 5464.0 -4Q5454.0 -4 5446.0 -0.5Q5438.0 3 5438.0 9Q5438.0 17 5445.5 21.5Q5453.0 26 5466.0 30Q5492.0 38 5504.5 59.5Q5517.0 81 5520.0 111Q5524.0 149 5528.0 210.5Q5532.0 272 5535.5 349.0Q5539.0 426 5539.0 508Q5539.0 560 5512.5 583.0Q5486.0 606 5446.0 620Q5439.0 622 5428.0 628.0Q5417.0 634 5417.0 643Q5417.0 652 5425.0 655.0Q5433.0 658 5442.0 658Q5463.0 658 5484.0 657.0Q5505.0 656 5526.5 655.5Q5548.0 655 5571.5 654.0Q5595.0 653 5622.0 653Q5631.0 653 5635.5 649.5Q5640.0 646 5644.0 640Q5660.0 621 5685.0 592.5Q5710.0 564 5739.5 529.5Q5769.0 495 5801.5 457.0Q5834.0 419 5866.5 381.0Q5899.0 343 5929.0 308.5Q5959.0 274 5983.5 245.5Q6008.0 217 6024.0 199Q6028.0 195 6033.5 189.0Q6039.0 183 6043.0 183Q6051.0 183 6052.0 200Q6052.0 226 6052.0 266.5Q6052.0 307 6052.5 356.5Q6053.0 406 6052.5 458.0Q6052.0 510 6051.0 558Q6050.0 583 6030.5 597.5Q6011.0 612 5982.0 618Q5970.0 621 5959.5 625.5Q5949.0 630 5949.0 639Q5949.0 646 5959.5 649.0Q5970.0 652 5979.0 652Q5999.0 652 6012.5 652.0Q6026.0 652 6038.0 651.5Q6050.0 651 6063.0 651Q6085.0 651 6099.0 651.5Q6113.0 652 6129.5 653.0Q6146.0 654 6173.0 654Q6185.0 654 6192.5 650.5Q6200.0 647 6200.0 641Q6200.0 626 6171.0 620Q6136.0 613 6121.5 601.0Q6107.0 589 6106.0 561Q6106.0 536 6105.5 497.0Q6105.0 458 6104.0 412.0Q6103.0 366 6101.5 318.0Q6100.0 270 6099.5 224.0Q6099.0 178 6099.0 141Q6099.0 117 6101.0 92.0Q6103.0 67 6105.5 47.5Q6108.0 28 6108.0 20Q6108.0 -2 6101.0 -10.0Q6094.0 -18 6082.0 -18ZM6419.0 -4Q6409.0 -4 6401.5 -0.5Q6394.0 3 6394.0 9Q6394.0 17 6401.0 22.0Q6408.0 27 6421.0 29Q6459.0 37 6477.0 51.5Q6495.0 66 6495.0 99V504Q6495.0 545 6493.0 566.0Q6491.0 587 6487.5 594.5Q6484.0 602 6477.0 603Q6467.0 607 6452.0 608.0Q6437.0 609 6423.0 609H6392.0Q6363.0 609 6336.0 595.5Q6309.0 582 6294.0 559Q6290.0 553 6281.5 542.0Q6273.0 531 6263.5 522.0Q6254.0 513 6244.0 513Q6237.0 513 6234.5 518.0Q6232.0 523 6232.0 529Q6232.0 541 6238.0 553Q6255.0 587 6263.5 612.5Q6272.0 638 6275.0 673Q6277.0 688 6283.5 692.5Q6290.0 697 6297.0 697Q6303.0 697 6311.5 684.5Q6320.0 672 6327.0 664Q6336.0 655 6359.0 650.5Q6382.0 646 6398.0 646L6767.0 647Q6795.0 647 6814.0 651.5Q6833.0 656 6844.0 661Q6859.0 670 6868.0 679.5Q6877.0 689 6889.0 689Q6894.0 689 6896.5 683.5Q6899.0 678 6899.0 670Q6899.0 665 6898.0 658.5Q6897.0 652 6896.0 647Q6892.0 628 6888.0 613.5Q6884.0 599 6881.5 586.5Q6879.0 574 6879.0 558V541Q6879.0 527 6875.0 517.0Q6871.0 507 6862.0 507Q6854.0 507 6848.5 516.5Q6843.0 526 6837.0 546Q6828.0 578 6807.0 593.5Q6786.0 609 6741.0 609H6673.0Q6654.0 609 6643.5 602.0Q6633.0 595 6628.5 571.5Q6624.0 548 6624.0 499V100Q6624.0 68 6642.0 53.5Q6660.0 39 6699.0 29Q6711.0 26 6718.0 22.0Q6725.0 18 6725.0 10Q6725.0 3 6718.5 0.0Q6712.0 -3 6702.0 -3Q6678.0 -3 6654.0 -2.0Q6630.0 -1 6606.5 0.0Q6583.0 1 6561.0 1Q6539.0 1 6515.5 0.0Q6492.0 -1 6467.5 -2.5Q6443.0 -4 6419.0 -4Z" transform="matrix(0.021920 0 0 -0.021920 74.15 391.31)" fill="#15130f"/></svg>