<svg xmlns="http://www.w3.org/2000/svg" viewBox="0 0 300 446"><rect width="300" height="446" fill="#f4ecd8"/><rect x="20.0" y="25.5" width="260" height="395" rx="20.3" fill="#f4ecd8" stroke="#15130f" stroke-width="1.5"/><rect x="36.9" y="42.4" width="226.2" height="354.7" fill="none" stroke="#15130f" stroke-width="0.7"/><g fill="none" stroke="#15130f" stroke-width="0.65" stroke-opacity="0.72" stroke-linecap="round" stroke-linejoin="round"><line x1="36.9" y1="210.4" x2="263.1" y2="210.4"/></g><path d="M36.9,370.6 H263.1 V397.1 H36.9 Z" fill="#d9cf9a"/><g fill="none" stroke="#15130f" stroke-width="0.8"><line x1="36.9" y1="370.6" x2="263.1" y2="370.6"/><line x1="61.6" y1="370.6" x2="61.6" y2="397.1"/><line x1="238.4" y1="370.6" x2="238.4" y2="397.1"/></g><rect x="141.4" y="34.4" width="17.2" height="19.0" fill="#d9cf9a" stroke="#15130f" stroke-width="0.8"/><path d="M649.0 1092V235L647.0 193L657.0 137Q686.0 59 825.0 52Q867.0 50 867.0 28Q867.0 -7 780.0 -7Q761.0 -7 652.0 2Q595.0 7 494.0 7Q394.0 7 322.0 -2Q293.0 -5 280.0 -5Q255.0 -5 255.0 20Q255.0 41 281.0 45Q384.0 61 415.0 92.0Q446.0 123 446.0 210L445.0 248V1010Q445.0 1115 363.0 1115Q331.0 1115 306.0 1104L281.0 1093Q270.0 1089 261.0 1089Q235.0 1089 235.0 1113Q235.0 1137 260.0 1150.0Q285.0 1163 362.0 1180Q506.0 1211 567.0 1267L614.0 1310Q625.0 1320 641.0 1320Q661.0 1320 661.0 1282Q661.0 1271 659.0 1243L651.0 1153Q649.0 1126 649.0 1092Z" transform="matrix(0.006858 0 0 -0.006858 146.22 49.18)" fill="#15130f"/><path d="M450.0 1050V690Q569.0 900 750.0 900Q934.0 900 1042.0 757.0Q1150.0 614 1150.0 429Q1150.0 290 1050.0 130.5Q950.0 -29 950.0 -150Q950.0 -420 1132.0 -450Q1179.0 -450 1240.0 -420L1260.0 -450Q1183.0 -500 1102.0 -500Q954.0 -500 852.0 -391.0Q750.0 -282 750.0 -150Q750.0 -44 850.0 129.5Q950.0 303 950.0 429Q950.0 573 887.5 686.5Q825.0 800 706.0 800Q551.0 800 450.0 576V200Q450.0 150 490.0 95.0Q530.0 40 600.0 40H650.0V0H50.0V40H100.0Q170.0 40 210.0 95.0Q250.0 150 250.0 200V1050H50.0V1150H250.0V1200Q250.0 1250 210.0 1305.0Q170.0 1360 100.0 1360H50.0V1400H650.0V1360H600.0Q530.0 1360 490.0 1305.0Q450.0 1250 450.0 1200V1150H650.0V1050Z" transform="matrix(0.009268 0 0 -0.009268 43.18 388.04)" fill="#15130f"/><path d="M917.0 -500Q917.0 362 797.0 836.0Q677.0 1310 467.0 1310Q411.0 1310 358.5 1265.0Q306.0 1220 278.0 1135.5Q250.0 1051 250.0 960Q250.0 869 278.0 784.5Q306.0 700 358.5 655.0Q411.0 610 467.0 610Q524.0 610 577.0 655Q605.0 680 641.0 680Q670.0 680 703.0 663Q734.0 647 734.0 628Q734.0 601 677.0 568Q576.0 510 467.0 510Q359.0 510 258.5 568.0Q158.0 626 104.0 734.5Q50.0 843 50.0 960Q50.0 1077 104.0 1185.5Q158.0 1294 258.5 1352.0Q359.0 1410 467.0 1410Q760.0 1410 939.0 959Q983.0 845 1017.0 696Q1051.0 845 1096.0 959Q1274.0 1410 1567.0 1410Q1675.0 1410 1775.5 1352.0Q1876.0 1294 1930.0 1185.5Q1984.0 1077 1984.0 960Q1984.0 843 1930.0 734.5Q1876.0 626 1775.5 568.0Q1675.0 510 1567.0 510Q1458.0 510 1357.0 568Q1300.0 601 1300.0 628Q1300.0 647 1331.0 663Q1364.0 680 1393.0 680Q1429.0 680 1457.0 655Q1510.0 610 1567.0 610Q1623.0 610 1675.5 655.0Q1728.0 700 1756.0 784.5Q1784.0 869 1784.0 960Q1784.0 1051 1756.0 1135.5Q1728.0 1220 1675.5 1265.0Q1623.0 1310 1567.0 1310Q1357.0 1310 1237.0 836.0Q1117.0 362 1117.0 -500Z" transform="matrix(0.009268 0 0 -0.009268 241.32 388.08)" fill="#15130f"/><path d="M642.0 -21Q599.0 -21 567.0 -11.5Q535.0 -2 512.0 16.0Q489.0 34 470.0 58Q448.0 88 427.0 116.5Q406.0 145 384.5 179.5Q363.0 214 337.0 262Q324.0 285 304.0 296Q291.0 303 277.5 306.0Q264.0 309 255.0 309Q249.0 310 246.0 304.0Q243.0 298 243.0 289V103Q243.0 72 259.5 55.0Q276.0 38 316.0 29Q329.0 27 335.0 22.5Q341.0 18 341.0 10Q341.0 3 335.5 0.0Q330.0 -3 319.0 -3Q296.0 -3 272.0 -1.5Q248.0 0 225.5 1.0Q203.0 2 183.0 2Q161.0 2 137.5 1.0Q114.0 0 90.0 -2.0Q66.0 -4 42.0 -4Q33.0 -4 26.0 -0.5Q19.0 3 19.0 9Q19.0 24 44.0 29Q82.0 37 98.0 51.0Q114.0 65 114.0 98V540Q114.0 569 109.5 584.5Q105.0 600 92.0 608.0Q79.0 616 53.0 620Q39.0 622 33.0 628.0Q27.0 634 27.0 640Q27.0 647 33.5 650.5Q40.0 654 51.0 654Q81.0 654 99.0 653.0Q117.0 652 133.5 650.5Q150.0 649 173.0 649Q195.0 649 212.0 651.0Q229.0 653 250.0 655.0Q271.0 657 304.0 657Q419.0 657 480.0 617.0Q541.0 577 541.0 495Q541.0 450 522.0 418.5Q503.0 387 474.5 367.0Q446.0 347 416.0 336Q412.0 335 412.5 331.0Q413.0 327 416.0 324Q446.0 278 474.5 236.5Q503.0 195 534.5 158.0Q566.0 121 603.0 87Q634.0 58 666.5 52.5Q699.0 47 734.0 47Q749.0 47 749.0 32Q749.0 12 734.0 0.5Q719.0 -11 694.5 -16.0Q670.0 -21 642.0 -21ZM286.0 338Q327.0 338 354.5 356.5Q382.0 375 396.5 406.0Q411.0 437 411.0 475Q411.0 520 400.0 551.5Q389.0 583 362.5 600.5Q336.0 618 290.0 618Q264.0 618 254.5 599.5Q245.0 581 244.0 525Q243.0 502 243.0 464.5Q243.0 427 243.0 375Q243.0 353 254.5 345.5Q266.0 338 286.0 338ZM784.0 -4Q775.0 -4 768.0 -0.5Q761.0 3 761.0 9Q761.0 24 786.0 29Q824.0 37 841.0 51.0Q858.0 65 858.0 97V551Q858.0 584 844.0 598.0Q830.0 612 791.0 620Q766.0 625 766.0 641Q766.0 647 773.0 650.5Q780.0 654 789.0 654Q813.0 654 836.0 653.0Q859.0 652 880.5 651.0Q902.0 650 924.0 650Q945.0 650 966.5 651.0Q988.0 652 1011.0 653.0Q1034.0 654 1058.0 654Q1068.0 654 1074.0 650.5Q1080.0 647 1080.0 640Q1080.0 632 1073.5 627.5Q1067.0 623 1055.0 620Q1015.0 610 1001.0 596.0Q987.0 582 987.0 550V98Q987.0 67 1003.5 53.0Q1020.0 39 1058.0 29Q1071.0 26 1077.5 22.0Q1084.0 18 1084.0 10Q1084.0 3 1078.0 0.0Q1072.0 -3 1062.0 -3Q1038.0 -3 1014.0 -2.0Q990.0 -1 967.5 0.0Q945.0 1 924.0 1Q902.0 1 879.0 0.0Q856.0 -1 832.0 -2.5Q808.0 -4 784.0 -4ZM1314.0 -15Q1271.0 -15 1232.5 -4.0Q1194.0 7 1162.0 29Q1156.0 34 1151.0 39.5Q1146.0 45 1143.0 52Q1135.0 77 1132.0 113.5Q1129.0 150 1130.0 184Q1130.0 191 1135.5 194.0Q1141.0 197 1149.0 197Q1157.0 197 1161.5 194.5Q1166.0 192 1168.0 185Q1190.0 110 1232.0 68.0Q1274.0 26 1327.0 26Q1360.0 26 1383.0 41.0Q1406.0 56 1418.0 80.0Q1430.0 104 1430.0 132Q1430.0 167 1417.5 190.0Q1405.0 213 1380.0 231.5Q1355.0 250 1317.0 271Q1276.0 295 1237.0 321.5Q1198.0 348 1173.0 384.5Q1148.0 421 1148.0 475Q1148.0 531 1176.5 573.5Q1205.0 616 1256.0 640.0Q1307.0 664 1374.0 664Q1411.0 664 1443.0 656.0Q1475.0 648 1494.0 640Q1505.0 636 1510.5 630.0Q1516.0 624 1519.0 611Q1525.0 590 1529.5 561.0Q1534.0 532 1534.0 500Q1534.0 488 1516.0 488Q1508.0 488 1500.0 492.0Q1492.0 496 1490.0 503Q1472.0 561 1440.5 591.0Q1409.0 621 1363.0 621Q1332.0 621 1310.0 610.5Q1288.0 600 1275.0 578.5Q1262.0 557 1262.0 523Q1262.0 497 1279.5 475.0Q1297.0 453 1328.5 432.0Q1360.0 411 1399.0 386Q1447.0 358 1479.5 329.5Q1512.0 301 1529.0 266.5Q1546.0 232 1546.0 185Q1546.0 119 1517.0 74.5Q1488.0 30 1436.0 7.5Q1384.0 -15 1314.0 -15ZM1635.0 -6Q1624.0 -6 1615.0 -1.5Q1606.0 3 1606.0 9Q1606.0 24 1635.0 29Q1673.0 37 1685.5 51.0Q1698.0 65 1698.0 99V551Q1698.0 584 1684.5 598.0Q1671.0 612 1632.0 620Q1606.0 625 1606.0 641Q1606.0 647 1613.0 650.5Q1620.0 654 1629.0 654Q1653.0 654 1676.0 653.5Q1699.0 653 1720.0 651.5Q1741.0 650 1762.0 650Q1782.0 650 1802.5 651.0Q1823.0 652 1845.0 653.0Q1867.0 654 1891.0 654Q1901.0 654 1907.0 650.5Q1913.0 647 1913.0 640Q1913.0 632 1906.5 627.5Q1900.0 623 1887.0 620Q1848.0 610 1837.5 595.0Q1827.0 580 1827.0 550V352Q1827.0 346 1829.5 341.0Q1832.0 336 1836.0 336Q1841.0 336 1847.5 340.5Q1854.0 345 1861.0 352L2056.0 558Q2064.0 567 2068.5 574.5Q2073.0 582 2073.0 589Q2073.0 609 2039.0 617Q2027.0 620 2021.0 625.0Q2015.0 630 2015.0 638Q2015.0 644 2022.0 647.5Q2029.0 651 2038.0 651H2102.0Q2134.0 651 2167.0 651.5Q2200.0 652 2231.5 653.0Q2263.0 654 2288.0 654Q2298.0 654 2305.5 651.0Q2313.0 648 2313.0 641Q2313.0 633 2303.5 628.0Q2294.0 623 2282.0 621Q2236.0 614 2198.0 598.0Q2160.0 582 2128.0 557Q2096.0 532 2067.5 505.0Q2039.0 478 2010.0 448.5Q1981.0 419 1949.0 387Q1938.0 377 1951.0 361L2192.0 97Q2208.0 79 2221.5 66.5Q2235.0 54 2252.5 45.5Q2270.0 37 2297.0 29Q2309.0 26 2319.0 22.0Q2329.0 18 2329.0 10Q2329.0 3 2319.5 -1.0Q2310.0 -5 2293.0 -5Q2263.0 -5 2236.5 -3.0Q2210.0 -1 2184.0 0.0Q2158.0 1 2128.0 1Q2099.0 1 2075.5 -0.5Q2052.0 -2 2017.0 -2Q2008.0 -2 2001.0 1.5Q1994.0 5 1994.0 11Q1994.0 25 2017.0 31Q2052.0 38 2053.0 56Q2053.0 63 2048.5 70.0Q2044.0 77 2037.0 86L1858.0 290Q1852.0 297 1845.5 302.0Q1839.0 307 1835.0 307Q1831.0 307 1829.0 301.0Q1827.0 295 1827.0 288Q1827.0 242 1828.0 198.5Q1829.0 155 1831.0 103Q1832.0 84 1836.5 69.5Q1841.0 55 1853.0 45.5Q1865.0 36 1891.0 29Q1904.0 26 1912.0 22.0Q1920.0 18 1920.0 10Q1920.0 3 1911.0 -0.5Q1902.0 -4 1891.0 -4Q1861.0 -4 1841.0 -2.0Q1821.0 0 1804.5 1.5Q1788.0 3 1768.0 3Q1747.0 3 1728.0 1.0Q1709.0 -1 1687.5 -3.5Q1666.0 -6 1635.0 -6Z" transform="matrix(0.022120 0 0 -0.022120 124.03 390.98)" fill="#15130f"/></svg>