<svg xmlns="http://www.w3.org/2000/svg" viewBox="0 0 300 446"><rect width="300" height="446" fill="#f4ecd8"/><rect x="20.0" y="25.5" width="260" height="395" rx="20.3" fill="#f4ecd8" stroke="#15130f" stroke-width="1.5"/><rect x="36.9" y="42.4" width="226.2" height="354.7" fill="none" stroke="#15130f" stroke-width="0.7"/><g fill="none" stroke="#15130f" stroke-width="0.65" stroke-opacity="0.72" stroke-linecap="round" stroke-linejoin="round"><line x1="36.9" y1="155.5" x2="263.1" y2="155.5"/><path d="M36.9,155.5 A113.1,113.1 0 0 1 263.1,155.5"/></g><path d="M36.9,370.6 H263.1 V397.1 H36.9 Z" fill="#f0cf48"/><g fill="none" stroke="#15130f" stroke-width="0.8"><line x1="36.9" y1="370.6" x2="263.1" y2="370.6"/><line x1="61.6" y1="370.6" x2="61.6" y2="397.1"/><line x1="238.4" y1="370.6" x2="238.4" y2="397.1"/></g><rect x="141.4" y="34.4" width="17.2" height="19.0" fill="#f0cf48" stroke="#15130f" stroke-width="0.8"/><path d="M649.0 1092V235L647.0 193L657.0 137Q686.0 59 825.0 52Q867.0 50 867.0 28Q867.0 -7 780.0 -7Q761.0 -7 652.0 2Q595.0 7 494.0 7Q394.0 7 322.0 -2Q293.0 -5 280.0 -5Q255.0 -5 255.0 20Q255.0 41 281.0 45Q384.0 61 415.0 92.0Q446.0 123 446.0 210L445.0 248V1010Q445.0 1115 363.0 1115Q331.0 1115 306.0 1104L281.0 1093Q270.0 1089 261.0 1089Q235.0 1089 235.0 1113Q235.0 1137 260.0 1150.0Q285.0 1163 362.0 1180Q506.0 1211 567.0 1267L614.0 1310Q625.0 1320 641.0 1320Q661.0 1320 661.0 1282Q661.0 1271 659.0 1243L651.0 1153Q649.0 1126 649.0 1092ZM1673.0 1092V235L1671.0 193L1681.0 137Q1710.0 59 1849.0 52Q1891.0 50 1891.0 28Q1891.0 -7 1804.0 -7Q1785.0 -7 1676.0 2Q1619.0 7 1518.0 7Q1418.0 7 1346.0 -2Q1317.0 -5 1304.0 -5Q1279.0 -5 1279.0 20Q1279.0 41 1305.0 45Q1408.0 61 1439.0 92.0Q1470.0 123 1470.0 210L1469.0 248V1010Q1469.0 1115 1387.0 1115Q1355.0 1115 1330.0 1104L1305.0 1093Q1294.0 1089 1285.0 1089Q1259.0 1089 1259.0 1113Q1259.0 1137 1284.0 1150.0Q1309.0 1163 1386.0 1180Q1530.0 1211 1591.0 1267L1638.0 1310Q1649.0 1320 1665.0 1320Q1685.0 1320 1685.0 1282Q1685.0 1271 1683.0 1243L1675.0 1153Q1673.0 1126 1673.0 1092Z" transform="matrix(0.006024 0 0 -0.006024 143.60 48.63)" fill="#15130f"/><path d="M700 1410Q993 1410 1171.5 1205.0Q1350 1000 1350 700Q1350 399 1170.0 194.5Q990 -10 700 -10Q410 -10 230.0 194.5Q50 399 50 700Q50 1000 228.5 1205.0Q407 1410 700 1410ZM700 1310Q487 1310 368.5 1116.5Q250 923 250 700Q250 481 368.5 285.5Q487 90 700 90Q910 90 1030.0 285.5Q1150 481 1150 700Q1150 923 1030.0 1116.5Q910 1310 700 1310ZM700.0 950Q766.0 950 826.0 918.0Q886.0 886 918.0 826.0Q950.0 766 950.0 700Q950.0 634 918.0 574.0Q886.0 514 826.0 482.0Q766.0 450 700.0 450Q634.0 450 574.0 482.0Q514.0 514 482.0 574.0Q450.0 634 450.0 700Q450.0 766 482.0 826.0Q514.0 886 574.0 918.0Q634.0 950 700.0 950Z" transform="matrix(0.009268 0 0 -0.009268 42.76 390.35)" fill="#15130f"/><path d="M56.0 700 567.0 1430 833.0 968 1150.0 1420 1416.0 959 1733.0 1410 2033.0 891 1910.0 704 1662.0 1134 1345.0 682 1078.0 1143 762.0 692 495.0 1153 179.0 700ZM50.0 0 567.0 738 833.0 276 1150.0 728 1416.0 267 1733.0 718 2033.0 199 1910.0 12 1662.0 442 1345.0 -10 1078.0 451 762.0 0 495.0 461 173.0 0Z" transform="matrix(0.009217 0 0 -0.009217 241.15 390.41)" fill="#15130f"/><path d="M40.0 -4Q31.0 -4 24.0 -0.5Q17.0 3 17.0 9Q17.0 24 42.0 29Q80.0 37 97.0 51.0Q114.0 65 114.0 97V551Q114.0 584 100.0 598.0Q86.0 612 47.0 620Q22.0 625 22.0 641Q22.0 647 29.0 650.5Q36.0 654 45.0 654Q69.0 654 92.0 653.0Q115.0 652 136.5 651.0Q158.0 650 180.0 650Q201.0 650 222.5 651.0Q244.0 652 267.0 653.0Q290.0 654 314.0 654Q324.0 654 330.0 650.5Q336.0 647 336.0 640Q336.0 632 329.5 627.5Q323.0 623 311.0 620Q271.0 610 257.0 596.0Q243.0 582 243.0 550V98Q243.0 67 259.5 53.0Q276.0 39 314.0 29Q327.0 26 333.5 22.0Q340.0 18 340.0 10Q340.0 3 334.0 0.0Q328.0 -3 318.0 -3Q294.0 -3 270.0 -2.0Q246.0 -1 223.5 0.0Q201.0 1 180.0 1Q158.0 1 135.0 0.0Q112.0 -1 88.0 -2.5Q64.0 -4 40.0 -4ZM735.0 -7Q708.0 -7 670.0 -5.0Q632.0 -3 593.5 -1.5Q555.0 0 530.0 0Q510.0 0 489.5 -0.5Q469.0 -1 447.0 -2.5Q425.0 -4 400.0 -4Q391.0 -4 384.0 -0.5Q377.0 3 377.0 10Q377.0 19 383.5 23.0Q390.0 27 403.0 29Q441.0 37 455.0 51.0Q469.0 65 469.0 98V550Q469.0 584 455.5 598.0Q442.0 612 403.0 620Q390.0 622 383.5 626.5Q377.0 631 377.0 640Q377.0 647 384.0 650.5Q391.0 654 400.0 654Q424.0 654 446.0 653.5Q468.0 653 489.5 651.5Q511.0 650 533.0 650Q548.0 650 573.5 651.5Q599.0 653 628.5 654.5Q658.0 656 684.0 657.5Q710.0 659 726.0 659Q810.0 659 877.0 635.0Q944.0 611 991.5 568.0Q1039.0 525 1064.0 466.0Q1089.0 407 1089.0 338Q1089.0 269 1064.0 207.0Q1039.0 145 992.5 97.0Q946.0 49 880.5 21.0Q815.0 -7 735.0 -7ZM720.0 39Q792.0 39 842.5 73.5Q893.0 108 919.0 170.5Q945.0 233 945.0 315Q945.0 383 927.5 438.5Q910.0 494 878.5 532.5Q847.0 571 803.5 592.0Q760.0 613 709.0 613Q673.0 613 648.5 611.0Q624.0 609 611.5 599.5Q599.0 590 599.0 568V128Q599.0 93 614.5 73.5Q630.0 54 657.5 46.5Q685.0 39 720.0 39ZM1167.0 -5Q1156.0 -5 1149.5 -1.0Q1143.0 3 1143.0 9Q1143.0 22 1169.0 28Q1205.0 37 1220.5 50.5Q1236.0 64 1236.0 97V550Q1236.0 584 1222.5 598.0Q1209.0 612 1172.0 620Q1158.0 623 1152.0 628.5Q1146.0 634 1146.0 640Q1146.0 647 1152.5 650.5Q1159.0 654 1170.0 654Q1199.0 654 1225.5 653.0Q1252.0 652 1277.0 651.0Q1302.0 650 1329.0 650Q1375.0 650 1426.5 651.0Q1478.0 652 1519.0 652Q1552.0 653 1573.5 655.0Q1595.0 657 1599.0 657Q1606.0 657 1613.5 654.0Q1621.0 651 1622.0 642Q1626.0 609 1632.0 577.0Q1638.0 545 1638.0 521Q1638.0 512 1633.5 507.5Q1629.0 503 1624.0 503Q1619.0 503 1615.0 506.5Q1611.0 510 1608.0 517Q1600.0 540 1593.0 557.0Q1586.0 574 1577.0 583Q1564.0 597 1547.0 605.0Q1530.0 613 1506.0 613H1413.0Q1395.0 613 1380.0 602.5Q1365.0 592 1365.0 573V377Q1365.0 366 1371.5 360.0Q1378.0 354 1387.0 354H1479.0Q1506.0 354 1517.5 369.0Q1529.0 384 1537.0 410Q1544.0 430 1556.0 430Q1561.0 430 1565.0 424.5Q1569.0 419 1569.0 410Q1568.0 400 1567.0 386.0Q1566.0 372 1565.5 358.0Q1565.0 344 1565.0 333Q1565.0 321 1565.5 306.0Q1566.0 291 1566.5 276.5Q1567.0 262 1568.0 252Q1569.0 241 1566.5 235.0Q1564.0 229 1558.0 229Q1542.0 229 1535.0 257Q1527.0 285 1516.0 299.0Q1505.0 313 1486.0 313H1392.0Q1379.0 313 1372.0 308.0Q1365.0 303 1365.0 289V99Q1365.0 66 1379.0 53.0Q1393.0 40 1422.0 40H1504.0Q1529.0 40 1549.5 45.0Q1570.0 50 1585.0 61Q1602.0 73 1615.5 93.5Q1629.0 114 1642.0 139Q1646.0 147 1650.0 149.5Q1654.0 152 1660.0 152Q1665.0 151 1667.5 146.0Q1670.0 141 1670.0 135Q1670.0 121 1665.0 99.0Q1660.0 77 1652.5 53.5Q1645.0 30 1639.0 10Q1636.0 3 1631.0 -0.5Q1626.0 -4 1619.0 -4Q1595.0 -4 1557.5 -3.5Q1520.0 -3 1476.0 -2.0Q1432.0 -1 1386.0 -0.5Q1340.0 0 1298.0 0Q1277.0 0 1255.5 -1.0Q1234.0 -2 1212.0 -3.5Q1190.0 -5 1167.0 -5ZM1713.0 -5Q1701.0 -5 1693.0 -1.5Q1685.0 2 1685.0 10Q1685.0 19 1692.5 24.0Q1700.0 29 1712.0 33Q1741.0 41 1762.5 57.5Q1784.0 74 1797.0 103Q1822.0 162 1845.0 216.5Q1868.0 271 1889.0 325.0Q1910.0 379 1931.5 435.0Q1953.0 491 1975.0 553Q1986.0 584 1990.0 601.0Q1994.0 618 1997.0 626Q2012.0 630 2025.0 634.0Q2038.0 638 2054.0 644Q2068.0 651 2078.0 662.0Q2088.0 673 2093.0 679Q2096.0 681 2099.0 681.5Q2102.0 682 2105.0 677Q2108.0 671 2110.0 665.0Q2112.0 659 2114.0 652Q2136.0 581 2159.5 508.5Q2183.0 436 2206.0 365.5Q2229.0 295 2250.5 230.5Q2272.0 166 2290.0 112Q2299.0 85 2312.5 69.0Q2326.0 53 2342.5 44.5Q2359.0 36 2379.0 31Q2392.0 28 2399.0 23.0Q2406.0 18 2406.0 9Q2406.0 3 2399.5 0.0Q2393.0 -3 2383.0 -3Q2365.0 -3 2337.5 -2.0Q2310.0 -1 2281.0 0.5Q2252.0 2 2229.0 2Q2209.0 2 2184.5 1.0Q2160.0 0 2135.5 -1.0Q2111.0 -2 2094.0 -2Q2084.0 -2 2076.5 1.5Q2069.0 5 2069.0 12Q2069.0 20 2077.0 25.5Q2085.0 31 2096.0 33Q2132.0 39 2148.0 51.5Q2164.0 64 2160.0 88Q2157.0 105 2151.0 128.5Q2145.0 152 2138.5 177.5Q2132.0 203 2125.0 224Q2123.0 232 2119.0 235.5Q2115.0 239 2104.0 239H1924.0Q1917.0 239 1913.0 234.5Q1909.0 230 1907.0 221Q1903.0 208 1897.5 191.5Q1892.0 175 1886.5 157.5Q1881.0 140 1876.5 125.0Q1872.0 110 1870.0 99Q1865.0 72 1879.5 56.5Q1894.0 41 1930.0 32Q1957.0 25 1957.0 11Q1957.0 5 1950.5 1.5Q1944.0 -2 1932.0 -2Q1909.0 -2 1884.0 -0.5Q1859.0 1 1829.0 1Q1799.0 1 1770.5 -2.0Q1742.0 -5 1713.0 -5ZM1951.0 285H2090.0Q2104.0 285 2104.0 291Q2104.0 294 2103.5 296.0Q2103.0 298 2102.0 302L2032.0 533Q2028.0 547 2025.0 547Q2023.0 547 2018.0 534L1934.0 302Q1932.0 297 1932.0 294Q1932.0 289 1937.5 287.0Q1943.0 285 1951.0 285ZM2446.0 -5Q2435.0 -5 2429.0 -0.5Q2423.0 4 2423.0 9Q2423.0 17 2430.0 21.5Q2437.0 26 2444.0 28Q2480.0 37 2497.0 50.5Q2514.0 64 2514.0 95V555Q2514.0 578 2508.5 590.0Q2503.0 602 2489.5 608.5Q2476.0 615 2450.0 620Q2424.0 625 2424.0 641Q2424.0 647 2431.0 650.5Q2438.0 654 2447.0 654Q2472.0 654 2494.5 653.0Q2517.0 652 2538.0 651.0Q2559.0 650 2580.0 650Q2603.0 650 2626.5 651.0Q2650.0 652 2674.5 653.0Q2699.0 654 2722.0 654Q2732.0 654 2738.0 650.5Q2744.0 647 2744.0 640Q2744.0 632 2737.5 627.5Q2731.0 623 2719.0 620Q2680.0 610 2661.5 598.5Q2643.0 587 2643.0 558V101Q2643.0 72 2656.0 58.5Q2669.0 45 2705.0 45H2814.0Q2837.0 45 2856.0 53.0Q2875.0 61 2887.0 73Q2905.0 89 2917.0 107.0Q2929.0 125 2940.0 149Q2947.0 164 2953.0 172.0Q2959.0 180 2965.0 180Q2972.0 180 2975.0 173.5Q2978.0 167 2978.0 160Q2978.0 159 2977.0 154.0Q2976.0 149 2976.0 146Q2968.0 117 2962.5 96.0Q2957.0 75 2953.5 55.5Q2950.0 36 2947.0 13Q2946.0 6 2943.0 0.5Q2940.0 -5 2931.0 -5Q2901.0 -5 2859.0 -4.0Q2817.0 -3 2770.0 -2.5Q2723.0 -2 2675.5 -1.0Q2628.0 0 2586.0 0Q2564.0 0 2535.5 -1.0Q2507.0 -2 2482.0 -3.5Q2457.0 -5 2446.0 -5ZM3025.0 -4Q3016.0 -4 3009.0 -0.5Q3002.0 3 3002.0 9Q3002.0 24 3027.0 29Q3065.0 37 3082.0 51.0Q3099.0 65 3099.0 97V551Q3099.0 584 3085.0 598.0Q3071.0 612 3032.0 620Q3007.0 625 3007.0 641Q3007.0 647 3014.0 650.5Q3021.0 654 3030.0 654Q3054.0 654 3077.0 653.0Q3100.0 652 3121.5 651.0Q3143.0 650 3165.0 650Q3186.0 650 3207.5 651.0Q3229.0 652 3252.0 653.0Q3275.0 654 3299.0 654Q3309.0 654 3315.0 650.5Q3321.0 647 3321.0 640Q3321.0 632 3314.5 627.5Q3308.0 623 3296.0 620Q3256.0 610 3242.0 596.0Q3228.0 582 3228.0 550V98Q3228.0 67 3244.5 53.0Q3261.0 39 3299.0 29Q3312.0 26 3318.5 22.0Q3325.0 18 3325.0 10Q3325.0 3 3319.0 0.0Q3313.0 -3 3303.0 -3Q3279.0 -3 3255.0 -2.0Q3231.0 -1 3208.5 0.0Q3186.0 1 3165.0 1Q3143.0 1 3120.0 0.0Q3097.0 -1 3073.0 -2.5Q3049.0 -4 3025.0 -4ZM3555.0 -15Q3512.0 -15 3473.5 -4.0Q3435.0 7 3403.0 29Q3397.0 34 3392.0 39.5Q3387.0 45 3384.0 52Q3376.0 77 3373.0 113.5Q3370.0 150 3371.0 184Q3371.0 191 3376.5 194.0Q3382.0 197 3390.0 197Q3398.0 197 3402.5 194.5Q3407.0 192 3409.0 185Q3431.0 110 3473.0 68.0Q3515.0 26 3568.0 26Q3601.0 26 3624.0 41.0Q3647.0 56 3659.0 80.0Q3671.0 104 3671.0 132Q3671.0 167 3658.5 190.0Q3646.0 213 3621.0 231.5Q3596.0 250 3558.0 271Q3517.0 295 3478.0 321.5Q3439.0 348 3414.0 384.5Q3389.0 421 3389.0 475Q3389.0 531 3417.5 573.5Q3446.0 616 3497.0 640.0Q3548.0 664 3615.0 664Q3652.0 664 3684.0 656.0Q3716.0 648 3735.0 640Q3746.0 636 3751.5 630.0Q3757.0 624 3760.0 611Q3766.0 590 3770.5 561.0Q3775.0 532 3775.0 500Q3775.0 488 3757.0 488Q3749.0 488 3741.0 492.0Q3733.0 496 3731.0 503Q3713.0 561 3681.5 591.0Q3650.0 621 3604.0 621Q3573.0 621 3551.0 610.5Q3529.0 600 3516.0 578.5Q3503.0 557 3503.0 523Q3503.0 497 3520.5 475.0Q3538.0 453 3569.5 432.0Q3601.0 411 3640.0 386Q3688.0 358 3720.5 329.5Q3753.0 301 3770.0 266.5Q3787.0 232 3787.0 185Q3787.0 119 3758.0 74.5Q3729.0 30 3677.0 7.5Q3625.0 -15 3555.0 -15ZM3870.0 -4Q3858.0 -4 3851.5 -0.5Q3845.0 3 3845.0 9Q3845.0 17 3853.5 20.5Q3862.0 24 3874.0 27Q3898.0 34 3915.0 54.0Q3932.0 74 3936.0 106Q3944.0 167 3951.5 239.0Q3959.0 311 3965.5 384.0Q3972.0 457 3976.0 521Q3976.0 528 3976.0 537.0Q3976.0 546 3976.0 555Q3975.0 570 3970.5 579.5Q3966.0 589 3955.0 597Q3941.0 607 3926.0 612.5Q3911.0 618 3892.0 622Q3881.0 624 3874.5 629.5Q3868.0 635 3868.0 643Q3868.0 651 3876.0 654.0Q3884.0 657 3897.0 657Q3910.0 657 3932.0 656.0Q3954.0 655 3979.5 653.5Q4005.0 652 4030.0 651.0Q4055.0 650 4074.0 650Q4082.0 650 4088.0 645.0Q4094.0 640 4096.0 633Q4102.0 614 4108.0 596.0Q4114.0 578 4121.0 558L4271.0 191Q4274.0 186 4279.0 185.5Q4284.0 185 4286.0 190L4447.0 548Q4454.0 577 4458.5 599.0Q4463.0 621 4467.0 634Q4470.0 647 4480.0 647H4521.0Q4559.0 649 4601.0 653.0Q4643.0 657 4666.0 657Q4674.0 657 4681.5 654.5Q4689.0 652 4689.0 644Q4689.0 636 4683.0 632.0Q4677.0 628 4665.0 623Q4657.0 621 4646.0 616.5Q4635.0 612 4627.0 608Q4606.0 599 4595.5 585.0Q4585.0 571 4586.0 545Q4587.0 474 4590.0 417.5Q4593.0 361 4595.5 311.5Q4598.0 262 4602.0 210.5Q4606.0 159 4609.0 97Q4611.0 69 4630.5 53.0Q4650.0 37 4683.0 29Q4695.0 26 4702.5 22.0Q4710.0 18 4710.0 10Q4710.0 3 4703.5 0.0Q4697.0 -3 4686.0 -3Q4663.0 -3 4638.0 -2.0Q4613.0 -1 4589.5 0.0Q4566.0 1 4545.0 1Q4525.0 1 4504.0 0.0Q4483.0 -1 4461.0 -2.5Q4439.0 -4 4415.0 -4Q4405.0 -4 4397.5 -0.5Q4390.0 3 4390.0 9Q4390.0 17 4397.5 22.0Q4405.0 27 4417.0 29Q4451.0 36 4464.5 50.0Q4478.0 64 4476.0 97Q4475.0 162 4473.0 222.0Q4471.0 282 4469.0 341.0Q4467.0 400 4464.0 460Q4463.0 468 4459.5 467.5Q4456.0 467 4452.0 459L4248.0 -1Q4244.0 -12 4235.0 -10.5Q4226.0 -9 4223.0 -1Q4177.0 115 4126.5 228.5Q4076.0 342 4027.0 459Q4024.0 467 4018.5 465.0Q4013.0 463 4012.0 454Q4007.0 398 4003.0 338.5Q3999.0 279 3998.0 220.0Q3997.0 161 3997.0 103Q3997.0 76 4014.5 57.0Q4032.0 38 4068.0 29Q4080.0 27 4088.5 22.5Q4097.0 18 4097.0 10Q4097.0 3 4089.0 0.0Q4081.0 -3 4071.0 -3Q4044.0 -3 4030.0 -2.0Q4016.0 -1 4004.0 0.0Q3992.0 1 3972.0 1Q3951.0 1 3932.5 0.0Q3914.0 -1 3898.0 -2.5Q3882.0 -4 3870.0 -4Z" transform="matrix(0.022120 0 0 -0.022120 97.72 391.24)" fill="#15130f"/></svg>