<svg xmlns="http://www.w3.org/2000/svg" viewBox="0 0 300 446"><rect width="300" height="446" fill="#f4ecd8"/><rect x="20.0" y="25.5" width="260" height="395" rx="20.3" fill="#f4ecd8" stroke="#15130f" stroke-width="1.5"/><rect x="36.9" y="42.4" width="226.2" height="354.7" fill="none" stroke="#15130f" stroke-width="0.7"/><g fill="none" stroke="#15130f" stroke-width="0.65" stroke-opacity="0.72" stroke-linecap="round" stroke-linejoin="round"><line x1="36.9" y1="155.5" x2="263.1" y2="155.5"/><path d="M36.9,155.5 A113.1,113.1 0 0 1 263.1,155.5"/></g><path d="M36.9,370.6 H263.1 V397.1 H36.9 Z" fill="#f0cf48"/><g fill="none" stroke="#15130f" stroke-width="0.8"><line x1="36.9" y1="370.6" x2="263.1" y2="370.6"/><line x1="61.6" y1="370.6" x2="61.6" y2="397.1"/><line x1="238.4" y1="370.6" x2="238.4" y2="397.1"/></g><rect x="141.4" y="34.4" width="17.2" height="19.0" fill="#f0cf48" stroke="#15130f" stroke-width="0.8"/><path d="M754.0 1055H388.0Q323.0 1055 311.0 963Q305.0 912 298.0 870Q294.0 844 294.0 822Q294.0 792 325.0 792Q335.0 792 350.0 795Q414.0 806 475.0 806Q664.0 806 775.5 709.5Q887.0 613 887.0 449Q887.0 250 738.0 111.5Q589.0 -27 375.0 -27Q285.0 -27 176.5 10.0Q68.0 47 68.0 78Q68.0 105 94.0 105Q101.0 105 112.0 101Q255.0 47 343.0 47Q489.0 47 590.5 139.0Q692.0 231 692.0 365Q692.0 477 611.5 550.0Q531.0 623 407.0 623Q373.0 623 299.0 612Q255.0 606 240.0 606Q196.0 606 196.0 658Q196.0 671 205.0 708Q212.0 739 227.0 858Q234.0 917 245.0 993L264.0 1132Q277.0 1226 285.5 1240.0Q294.0 1254 337.0 1254H727.0Q767.0 1254 797.0 1284L837.0 1323Q845.0 1331 858.0 1331Q875.0 1331 875.0 1315Q875.0 1301 869.0 1285L847.0 1208L830.0 1148Q809.0 1075 801.0 1065.0Q793.0 1055 754.0 1055Z" transform="matrix(0.006858 0 0 -0.006858 146.73 49.15)" fill="#15130f"/><path d="M700 1410Q993 1410 1171.5 1205.0Q1350 1000 1350 700Q1350 399 1170.0 194.5Q990 -10 700 -10Q410 -10 230.0 194.5Q50 399 50 700Q50 1000 228.5 1205.0Q407 1410 700 1410ZM700 1310Q487 1310 368.5 1116.5Q250 923 250 700Q250 481 368.5 285.5Q487 90 700 90Q910 90 1030.0 285.5Q1150 481 1150 700Q1150 923 1030.0 1116.5Q910 1310 700 1310ZM700.0 950Q766.0 950 826.0 918.0Q886.0 886 918.0 826.0Q950.0 766 950.0 700Q950.0 634 918.0 574.0Q886.0 514 826.0 482.0Q766.0 450 700.0 450Q634.0 450 574.0 482.0Q514.0 514 482.0 574.0Q450.0 634 450.0 700Q450.0 766 482.0 826.0Q514.0 886 574.0 918.0Q634.0 950 700.0 950Z" transform="matrix(0.009268 0 0 -0.009268 42.76 390.35)" fill="#15130f"/><path d="M250.0 439Q250.0 348 278.0 263.5Q306.0 179 358.5 134.0Q411.0 89 467.0 89Q524.0 89 576.5 134.0Q629.0 179 657.0 263.5Q685.0 348 685.0 439Q685.0 530 657.0 614.5Q629.0 699 576.5 744.0Q524.0 789 467.0 789Q411.0 789 358.5 744.0Q306.0 699 278.0 614.5Q250.0 530 250.0 439ZM831.0 665Q885.0 556 885.0 439Q885.0 322 831.0 213.5Q777.0 105 676.5 47.0Q576.0 -11 467.0 -11Q359.0 -11 258.5 47.0Q158.0 105 104.0 213.5Q50.0 322 50.0 439Q50.0 556 104.0 664.5Q158.0 773 258.5 831.0Q359.0 889 467.0 889Q503.0 889 537.0 883V900Q537.0 1115 681.0 1262.5Q825.0 1410 1118.0 1410Q1411.0 1410 1555.5 1262.5Q1700.0 1115 1700.0 900Q1700.0 684 1389.0 330.0Q1078.0 -24 1078.0 -204Q1078.0 -303 1125.5 -356.5Q1173.0 -410 1248.0 -410Q1356.0 -410 1446.5 -374.0Q1537.0 -338 1581.0 -266.5Q1625.0 -195 1651.0 -51H1688.0V-510H1651.0Q1644.0 -464 1629.5 -449.0Q1615.0 -434 1590.0 -434Q1554.0 -434 1450.0 -472.0Q1346.0 -510 1227.0 -510Q1089.0 -510 994.5 -400.0Q900.0 -290 900.0 -128Q900.0 102 1200.0 452.5Q1500.0 803 1500.0 950Q1500.0 1100 1414.0 1205.0Q1328.0 1310 1118.0 1310Q905.0 1310 821.0 1205.0Q737.0 1100 737.0 900Q737.0 836 768.0 782.5Q799.0 729 831.0 665Z" transform="matrix(0.009268 0 0 -0.009268 242.64 388.04)" fill="#15130f"/><path d="M45.0 -4Q36.0 -4 29.0 -0.5Q22.0 3 22.0 9Q22.0 24 47.0 29Q85.0 37 99.5 51.0Q114.0 65 114.0 98V538Q114.0 576 101.5 594.0Q89.0 612 53.0 620Q39.0 623 33.0 628.5Q27.0 634 27.0 640Q27.0 647 33.5 650.5Q40.0 654 51.0 654Q79.0 654 105.0 653.0Q131.0 652 156.0 651.0Q181.0 650 207.0 650Q243.0 650 285.5 650.0Q328.0 650 366.0 650Q404.0 650 434.5 655.5Q465.0 661 486.0 661Q492.0 661 499.5 657.5Q507.0 654 508.0 645Q510.0 626 511.0 602.0Q512.0 578 512.5 556.0Q513.0 534 513.0 521Q513.0 501 502.0 501Q497.0 501 491.5 505.0Q486.0 509 484.0 516Q478.0 538 470.5 555.5Q463.0 573 452.0 583Q439.0 598 421.5 604.0Q404.0 610 381.0 610H290.0Q266.0 610 254.5 596.5Q243.0 583 243.0 562Q243.0 544 243.0 519.0Q243.0 494 243.0 472Q243.0 449 243.0 423.0Q243.0 397 243.0 376Q243.0 366 247.5 359.5Q252.0 353 262.0 353Q289.0 353 316.5 354.0Q344.0 355 365.0 355Q389.0 355 402.5 369.0Q416.0 383 424.0 403Q428.0 410 433.5 415.0Q439.0 420 444.0 420Q449.0 420 453.5 415.0Q458.0 410 457.0 400Q455.0 381 453.5 364.5Q452.0 348 452.0 334Q452.0 316 453.0 302.0Q454.0 288 456.0 265Q457.0 254 454.5 248.0Q452.0 242 446.0 242Q438.0 242 431.5 250.0Q425.0 258 423.0 266Q415.0 293 402.5 303.0Q390.0 313 374.0 313Q362.0 313 349.5 313.5Q337.0 314 326.0 314Q311.0 314 295.5 314.0Q280.0 314 265.0 313Q254.0 312 248.0 306.5Q242.0 301 242.0 289Q242.0 243 242.5 195.0Q243.0 147 244.0 99Q245.0 68 261.0 53.0Q277.0 38 317.0 29Q330.0 27 336.0 22.5Q342.0 18 342.0 10Q342.0 3 336.5 0.0Q331.0 -3 320.0 -3Q297.0 -3 272.5 -1.5Q248.0 0 225.5 1.0Q203.0 2 184.0 2Q162.0 2 139.0 1.0Q116.0 0 92.5 -2.0Q69.0 -4 45.0 -4ZM911.0 -14Q843.0 -14 781.0 9.5Q719.0 33 671.5 76.5Q624.0 120 596.5 180.5Q569.0 241 569.0 315Q569.0 383 591.5 445.5Q614.0 508 658.5 557.0Q703.0 606 768.5 635.0Q834.0 664 920.0 664Q988.0 664 1049.5 640.5Q1111.0 617 1159.0 573.5Q1207.0 530 1234.5 469.5Q1262.0 409 1262.0 335Q1262.0 268 1239.5 205.0Q1217.0 142 1172.5 93.0Q1128.0 44 1062.5 15.0Q997.0 -14 911.0 -14ZM928.0 30Q991.0 30 1033.5 62.0Q1076.0 94 1097.5 151.5Q1119.0 209 1119.0 284Q1119.0 348 1106.0 408.0Q1093.0 468 1066.0 515.5Q1039.0 563 998.5 591.0Q958.0 619 902.0 619Q839.0 619 796.5 587.0Q754.0 555 733.0 498.0Q712.0 441 712.0 366Q712.0 302 725.0 242.0Q738.0 182 764.5 134.0Q791.0 86 831.5 58.0Q872.0 30 928.0 30ZM1938.0 -21Q1895.0 -21 1863.0 -11.5Q1831.0 -2 1808.0 16.0Q1785.0 34 1766.0 58Q1744.0 88 1723.0 116.5Q1702.0 145 1680.5 179.5Q1659.0 214 1633.0 262Q1620.0 285 1600.0 296Q1587.0 303 1573.5 306.0Q1560.0 309 1551.0 309Q1545.0 310 1542.0 304.0Q1539.0 298 1539.0 289V103Q1539.0 72 1555.5 55.0Q1572.0 38 1612.0 29Q1625.0 27 1631.0 22.5Q1637.0 18 1637.0 10Q1637.0 3 1631.5 0.0Q1626.0 -3 1615.0 -3Q1592.0 -3 1568.0 -1.5Q1544.0 0 1521.5 1.0Q1499.0 2 1479.0 2Q1457.0 2 1433.5 1.0Q1410.0 0 1386.0 -2.0Q1362.0 -4 1338.0 -4Q1329.0 -4 1322.0 -0.5Q1315.0 3 1315.0 9Q1315.0 24 1340.0 29Q1378.0 37 1394.0 51.0Q1410.0 65 1410.0 98V540Q1410.0 569 1405.5 584.5Q1401.0 600 1388.0 608.0Q1375.0 616 1349.0 620Q1335.0 622 1329.0 628.0Q1323.0 634 1323.0 640Q1323.0 647 1329.5 650.5Q1336.0 654 1347.0 654Q1377.0 654 1395.0 653.0Q1413.0 652 1429.5 650.5Q1446.0 649 1469.0 649Q1491.0 649 1508.0 651.0Q1525.0 653 1546.0 655.0Q1567.0 657 1600.0 657Q1715.0 657 1776.0 617.0Q1837.0 577 1837.0 495Q1837.0 450 1818.0 418.5Q1799.0 387 1770.5 367.0Q1742.0 347 1712.0 336Q1708.0 335 1708.5 331.0Q1709.0 327 1712.0 324Q1742.0 278 1770.5 236.5Q1799.0 195 1830.5 158.0Q1862.0 121 1899.0 87Q1930.0 58 1962.5 52.5Q1995.0 47 2030.0 47Q2045.0 47 2045.0 32Q2045.0 12 2030.0 0.5Q2015.0 -11 1990.5 -16.0Q1966.0 -21 1938.0 -21ZM1582.0 338Q1623.0 338 1650.5 356.5Q1678.0 375 1692.5 406.0Q1707.0 437 1707.0 475Q1707.0 520 1696.0 551.5Q1685.0 583 1658.5 600.5Q1632.0 618 1586.0 618Q1560.0 618 1550.5 599.5Q1541.0 581 1540.0 525Q1539.0 502 1539.0 464.5Q1539.0 427 1539.0 375Q1539.0 353 1550.5 345.5Q1562.0 338 1582.0 338ZM2249.0 -4Q2239.0 -4 2231.5 -0.5Q2224.0 3 2224.0 9Q2224.0 17 2231.0 22.0Q2238.0 27 2251.0 29Q2289.0 37 2307.0 51.5Q2325.0 66 2325.0 99V504Q2325.0 545 2323.0 566.0Q2321.0 587 2317.5 594.5Q2314.0 602 2307.0 603Q2297.0 607 2282.0 608.0Q2267.0 609 2253.0 609H2222.0Q2193.0 609 2166.0 595.5Q2139.0 582 2124.0 559Q2120.0 553 2111.5 542.0Q2103.0 531 2093.5 522.0Q2084.0 513 2074.0 513Q2067.0 513 2064.5 518.0Q2062.0 523 2062.0 529Q2062.0 541 2068.0 553Q2085.0 587 2093.5 612.5Q2102.0 638 2105.0 673Q2107.0 688 2113.5 692.5Q2120.0 697 2127.0 697Q2133.0 697 2141.5 684.5Q2150.0 672 2157.0 664Q2166.0 655 2189.0 650.5Q2212.0 646 2228.0 646L2597.0 647Q2625.0 647 2644.0 651.5Q2663.0 656 2674.0 661Q2689.0 670 2698.0 679.5Q2707.0 689 2719.0 689Q2724.0 689 2726.5 683.5Q2729.0 678 2729.0 670Q2729.0 665 2728.0 658.5Q2727.0 652 2726.0 647Q2722.0 628 2718.0 613.5Q2714.0 599 2711.5 586.5Q2709.0 574 2709.0 558V541Q2709.0 527 2705.0 517.0Q2701.0 507 2692.0 507Q2684.0 507 2678.5 516.5Q2673.0 526 2667.0 546Q2658.0 578 2637.0 593.5Q2616.0 609 2571.0 609H2503.0Q2484.0 609 2473.5 602.0Q2463.0 595 2458.5 571.5Q2454.0 548 2454.0 499V100Q2454.0 68 2472.0 53.5Q2490.0 39 2529.0 29Q2541.0 26 2548.0 22.0Q2555.0 18 2555.0 10Q2555.0 3 2548.5 0.0Q2542.0 -3 2532.0 -3Q2508.0 -3 2484.0 -2.0Q2460.0 -1 2436.5 0.0Q2413.0 1 2391.0 1Q2369.0 1 2345.5 0.0Q2322.0 -1 2297.5 -2.5Q2273.0 -4 2249.0 -4ZM3100.0 -14Q3007.0 -14 2945.0 19.0Q2883.0 52 2852.0 111.0Q2821.0 170 2821.0 249V541Q2821.0 571 2807.5 592.0Q2794.0 613 2772.0 619Q2742.0 627 2742.0 641Q2742.0 647 2750.0 650.5Q2758.0 654 2770.0 654Q2798.0 654 2828.5 652.0Q2859.0 650 2888.0 650Q2914.0 650 2947.5 651.5Q2981.0 653 3005.0 653Q3017.0 653 3024.5 650.0Q3032.0 647 3032.0 640Q3032.0 630 3019.5 625.5Q3007.0 621 2990.0 614Q2976.0 608 2963.5 589.5Q2951.0 571 2951.0 539V270Q2951.0 198 2975.0 151.5Q2999.0 105 3039.0 83.0Q3079.0 61 3129.0 61Q3224.0 61 3270.0 121.0Q3316.0 181 3316.0 293Q3316.0 318 3316.0 352.0Q3316.0 386 3315.5 422.5Q3315.0 459 3314.0 492Q3314.0 531 3308.5 555.5Q3303.0 580 3293.0 594.5Q3283.0 609 3265.0 617Q3255.0 621 3241.5 626.0Q3228.0 631 3228.0 639Q3228.0 647 3236.0 650.0Q3244.0 653 3257.0 653Q3289.0 653 3306.5 652.0Q3324.0 651 3347.0 651Q3364.0 651 3377.5 651.5Q3391.0 652 3404.0 653.0Q3417.0 654 3434.0 654Q3446.0 654 3453.0 651.5Q3460.0 649 3460.0 641Q3460.0 627 3431.0 620Q3400.0 612 3388.0 591.0Q3376.0 570 3374.0 536Q3370.0 457 3368.5 391.0Q3367.0 325 3366.0 258Q3365.0 178 3329.5 116.5Q3294.0 55 3234.0 20.5Q3174.0 -14 3100.0 -14ZM4145.0 -18Q4133.0 -18 4105.0 -3.0Q4077.0 12 4048.0 49Q4031.0 68 4006.5 95.5Q3982.0 123 3952.5 156.0Q3923.0 189 3891.0 225.0Q3859.0 261 3827.5 297.0Q3796.0 333 3766.0 366.0Q3736.0 399 3711.0 426.5Q3686.0 454 3669.0 474Q3665.0 479 3660.5 482.5Q3656.0 486 3653.0 486Q3649.0 486 3647.0 479.0Q3645.0 472 3645.0 466Q3645.0 420 3645.5 357.0Q3646.0 294 3646.0 229.0Q3646.0 164 3646.0 109Q3646.0 78 3664.0 58.0Q3682.0 38 3721.0 29Q3733.0 27 3741.5 22.5Q3750.0 18 3750.0 10Q3750.0 3 3742.0 0.0Q3734.0 -3 3724.0 -3Q3697.0 -3 3681.0 -2.0Q3665.0 -1 3652.0 0.0Q3639.0 1 3619.0 1Q3598.0 1 3581.5 0.0Q3565.0 -1 3552.0 -2.5Q3539.0 -4 3527.0 -4Q3517.0 -4 3509.0 -0.5Q3501.0 3 3501.0 9Q3501.0 17 3508.5 21.5Q3516.0 26 3529.0 30Q3555.0 38 3567.5 59.5Q3580.0 81 3583.0 111Q3587.0 149 3591.0 210.5Q3595.0 272 3598.5 349.0Q3602.0 426 3602.0 508Q3602.0 560 3575.5 583.0Q3549.0 606 3509.0 620Q3502.0 622 3491.0 628.0Q3480.0 634 3480.0 643Q3480.0 652 3488.0 655.0Q3496.0 658 3505.0 658Q3526.0 658 3547.0 657.0Q3568.0 656 3589.5 655.5Q3611.0 655 3634.5 654.0Q3658.0 653 3685.0 653Q3694.0 653 3698.5 649.5Q3703.0 646 3707.0 640Q3723.0 621 3748.0 592.5Q3773.0 564 3802.5 529.5Q3832.0 495 3864.5 457.0Q3897.0 419 3929.5 381.0Q3962.0 343 3992.0 308.5Q4022.0 274 4046.5 245.5Q4071.0 217 4087.0 199Q4091.0 195 4096.5 189.0Q4102.0 183 4106.0 183Q4114.0 183 4115.0 200Q4115.0 226 4115.0 266.5Q4115.0 307 4115.5 356.5Q4116.0 406 4115.5 458.0Q4115.0 510 4114.0 558Q4113.0 583 4093.5 597.5Q4074.0 612 4045.0 618Q4033.0 621 4022.5 625.5Q4012.0 630 4012.0 639Q4012.0 646 4022.5 649.0Q4033.0 652 4042.0 652Q4062.0 652 4075.5 652.0Q4089.0 652 4101.0 651.5Q4113.0 651 4126.0 651Q4148.0 651 4162.0 651.5Q4176.0 652 4192.5 653.0Q4209.0 654 4236.0 654Q4248.0 654 4255.5 650.5Q4263.0 647 4263.0 641Q4263.0 626 4234.0 620Q4199.0 613 4184.5 601.0Q4170.0 589 4169.0 561Q4169.0 536 4168.5 497.0Q4168.0 458 4167.0 412.0Q4166.0 366 4164.5 318.0Q4163.0 270 4162.5 224.0Q4162.0 178 4162.0 141Q4162.0 117 4164.0 92.0Q4166.0 67 4168.5 47.5Q4171.0 28 4171.0 20Q4171.0 -2 4164.0 -10.0Q4157.0 -18 4145.0 -18ZM4322.0 -5Q4311.0 -5 4304.5 -1.0Q4298.0 3 4298.0 9Q4298.0 22 4324.0 28Q4360.0 37 4375.5 50.5Q4391.0 64 4391.0 97V550Q4391.0 584 4377.5 598.0Q4364.0 612 4327.0 620Q4313.0 623 4307.0 628.5Q4301.0 634 4301.0 640Q4301.0 647 4307.5 650.5Q4314.0 654 4325.0 654Q4354.0 654 4380.5 653.0Q4407.0 652 4432.0 651.0Q4457.0 650 4484.0 650Q4530.0 650 4581.5 651.0Q4633.0 652 4674.0 652Q4707.0 653 4728.5 655.0Q4750.0 657 4754.0 657Q4761.0 657 4768.5 654.0Q4776.0 651 4777.0 642Q4781.0 609 4787.0 577.0Q4793.0 545 4793.0 521Q4793.0 512 4788.5 507.5Q4784.0 503 4779.0 503Q4774.0 503 4770.0 506.5Q4766.0 510 4763.0 517Q4755.0 540 4748.0 557.0Q4741.0 574 4732.0 583Q4719.0 597 4702.0 605.0Q4685.0 613 4661.0 613H4568.0Q4550.0 613 4535.0 602.5Q4520.0 592 4520.0 573V377Q4520.0 366 4526.5 360.0Q4533.0 354 4542.0 354H4634.0Q4661.0 354 4672.5 369.0Q4684.0 384 4692.0 410Q4699.0 430 4711.0 430Q4716.0 430 4720.0 424.5Q4724.0 419 4724.0 410Q4723.0 400 4722.0 386.0Q4721.0 372 4720.5 358.0Q4720.0 344 4720.0 333Q4720.0 321 4720.5 306.0Q4721.0 291 4721.5 276.5Q4722.0 262 4723.0 252Q4724.0 241 4721.5 235.0Q4719.0 229 4713.0 229Q4697.0 229 4690.0 257Q4682.0 285 4671.0 299.0Q4660.0 313 4641.0 313H4547.0Q4534.0 313 4527.0 308.0Q4520.0 303 4520.0 289V99Q4520.0 66 4534.0 53.0Q4548.0 40 4577.0 40H4659.0Q4684.0 40 4704.5 45.0Q4725.0 50 4740.0 61Q4757.0 73 4770.5 93.5Q4784.0 114 4797.0 139Q4801.0 147 4805.0 149.5Q4809.0 152 4815.0 152Q4820.0 151 4822.5 146.0Q4825.0 141 4825.0 135Q4825.0 121 4820.0 99.0Q4815.0 77 4807.5 53.5Q4800.0 30 4794.0 10Q4791.0 3 4786.0 -0.5Q4781.0 -4 4774.0 -4Q4750.0 -4 4712.5 -3.5Q4675.0 -3 4631.0 -2.0Q4587.0 -1 4541.0 -0.5Q4495.0 0 4453.0 0Q4432.0 0 4410.5 -1.0Q4389.0 -2 4367.0 -3.5Q4345.0 -5 4322.0 -5Z" transform="matrix(0.022120 0 0 -0.022120 96.39 391.34)" fill="#15130f"/></svg>