<svg xmlns="http://www.w3.org/2000/svg" viewBox="0 0 300 446"><rect width="300" height="446" fill="#f4ecd8"/><rect x="20.0" y="25.5" width="260" height="395" rx="20.3" fill="#f4ecd8" stroke="#15130f" stroke-width="1.5"/><rect x="36.9" y="42.4" width="226.2" height="354.7" fill="none" stroke="#15130f" stroke-width="0.7"/><g fill="none" stroke="#15130f" stroke-width="0.65" stroke-opacity="0.72" stroke-linecap="round" stroke-linejoin="round"><line x1="36.9" y1="155.5" x2="263.1" y2="155.5"/><path d="M36.9,155.5 A113.1,113.1 0 0 1 263.1,155.5"/></g><path d="M36.9,370.6 H263.1 V397.1 H36.9 Z" fill="#f0cf48"/><g fill="none" stroke="#15130f" stroke-width="0.8"><line x1="36.9" y1="370.6" x2="263.1" y2="370.6"/><line x1="61.6" y1="370.6" x2="61.6" y2="397.1"/><line x1="238.4" y1="370.6" x2="238.4" y2="397.1"/></g><rect x="141.4" y="34.4" width="17.2" height="19.0" fill="#f0cf48" stroke="#15130f" stroke-width="0.8"/><path d="M731.0 1093H467.0L377.0 1095L276.0 1077Q209.0 1046 197.0 961Q190.0 917 170.0 915Q139.0 913 139.0 965Q139.0 1051 170.0 1146L196.0 1225L203.0 1262Q208.0 1287 239.0 1287Q249.0 1287 279.0 1285Q310.0 1282 401.0 1282H808.0Q871.0 1282 886.5 1270.5Q902.0 1259 902.0 1214Q902.0 1092 809.0 873L717.0 658Q578.0 330 578.0 161Q578.0 67 592.0 11L604.0 -35Q606.0 -41 606.0 -47Q606.0 -64 575.0 -70Q570.0 -71 557.0 -75Q476.0 -101 435.0 -101Q377.0 -101 357.5 -74.5Q338.0 -48 338.0 28Q338.0 262 500.0 501L605.0 657Q677.0 762 737.5 889.5Q798.0 1017 798.0 1061Q798.0 1093 731.0 1093Z" transform="matrix(0.006858 0 0 -0.006858 146.43 48.74)" fill="#15130f"/><path d="M700 1410Q993 1410 1171.5 1205.0Q1350 1000 1350 700Q1350 399 1170.0 194.5Q990 -10 700 -10Q410 -10 230.0 194.5Q50 399 50 700Q50 1000 228.5 1205.0Q407 1410 700 1410ZM700 1310Q487 1310 368.5 1116.5Q250 923 250 700Q250 481 368.5 285.5Q487 90 700 90Q910 90 1030.0 285.5Q1150 481 1150 700Q1150 923 1030.0 1116.5Q910 1310 700 1310ZM700.0 950Q766.0 950 826.0 918.0Q886.0 886 918.0 826.0Q950.0 766 950.0 700Q950.0 634 918.0 574.0Q886.0 514 826.0 482.0Q766.0 450 700.0 450Q634.0 450 574.0 482.0Q514.0 514 482.0 574.0Q450.0 634 450.0 700Q450.0 766 482.0 826.0Q514.0 886 574.0 918.0Q634.0 950 700.0 950Z" transform="matrix(0.009268 0 0 -0.009268 42.76 390.35)" fill="#15130f"/><path d="M50.0 100H1650.0V0H50.0ZM50.0 300V400H339.0Q300.0 491 300.0 600Q300.0 815 451.0 962.5Q602.0 1110 850.0 1110Q1098.0 1110 1249.0 962.5Q1400.0 815 1400.0 600Q1400.0 491 1361.0 400H1650.0V300H1090.0Q1099.0 310 1149.5 403.0Q1200.0 496 1200.0 600Q1200.0 750 1106.5 880.0Q1013.0 1010 850.0 1010Q684.0 1010 592.0 880.0Q500.0 750 500.0 600Q500.0 496 550.0 403.0Q600.0 310 608.0 300Z" transform="matrix(0.009268 0 0 -0.009268 242.87 389.01)" fill="#15130f"/><path d="M48.0 -4Q39.0 -4 32.0 0.0Q25.0 4 25.0 10Q25.0 24 50.0 29Q86.0 37 98.0 51.0Q110.0 65 110.0 98V551Q110.0 584 100.0 598.0Q90.0 612 53.0 620Q28.0 625 28.0 640Q28.0 647 34.5 650.5Q41.0 654 51.0 654Q75.0 654 96.0 653.0Q117.0 652 137.0 651.0Q157.0 650 177.0 650Q197.0 650 218.5 651.0Q240.0 652 263.0 653.0Q286.0 654 309.0 654Q331.0 654 331.0 639Q331.0 631 325.0 627.0Q319.0 623 306.0 620Q267.0 610 253.5 595.0Q240.0 580 240.0 550V364Q240.0 357 244.5 354.5Q249.0 352 255.0 352H554.0Q565.0 352 565.0 366V551Q565.0 580 552.0 595.0Q539.0 610 500.0 620Q487.0 623 480.5 627.0Q474.0 631 474.0 639Q474.0 654 496.0 654Q520.0 654 544.0 653.0Q568.0 652 590.5 651.0Q613.0 650 634.0 650Q653.0 650 671.0 651.0Q689.0 652 709.5 653.0Q730.0 654 754.0 654Q763.0 654 770.0 650.5Q777.0 647 777.0 640Q777.0 625 751.0 620Q716.0 612 705.5 597.0Q695.0 582 695.0 551V98Q695.0 65 706.0 51.0Q717.0 37 753.0 29Q778.0 24 778.0 10Q778.0 4 771.0 0.0Q764.0 -4 755.0 -4Q732.0 -4 711.0 -2.5Q690.0 -1 669.5 0.0Q649.0 1 629.0 1Q609.0 1 587.0 0.0Q565.0 -1 542.0 -2.0Q519.0 -3 495.0 -3Q486.0 -3 480.0 0.5Q474.0 4 474.0 11Q474.0 19 480.0 22.5Q486.0 26 498.0 29Q534.0 38 549.5 53.0Q565.0 68 565.0 98V288Q565.0 294 563.5 299.0Q562.0 304 555.0 304H251.0Q240.0 304 240.0 289V102Q240.0 72 257.5 55.0Q275.0 38 311.0 29Q324.0 26 330.0 22.5Q336.0 19 336.0 11Q336.0 4 330.5 0.5Q325.0 -3 314.0 -3Q291.0 -3 267.0 -2.0Q243.0 -1 220.5 0.0Q198.0 1 177.0 1Q156.0 1 135.0 0.0Q114.0 -1 92.0 -2.5Q70.0 -4 48.0 -4ZM828.0 -5Q816.0 -5 808.0 -1.5Q800.0 2 800.0 10Q800.0 19 807.5 24.0Q815.0 29 827.0 33Q856.0 41 877.5 57.5Q899.0 74 912.0 103Q937.0 162 960.0 216.5Q983.0 271 1004.0 325.0Q1025.0 379 1046.5 435.0Q1068.0 491 1090.0 553Q1101.0 584 1105.0 601.0Q1109.0 618 1112.0 626Q1127.0 630 1140.0 634.0Q1153.0 638 1169.0 644Q1183.0 651 1193.0 662.0Q1203.0 673 1208.0 679Q1211.0 681 1214.0 681.5Q1217.0 682 1220.0 677Q1223.0 671 1225.0 665.0Q1227.0 659 1229.0 652Q1251.0 581 1274.5 508.5Q1298.0 436 1321.0 365.5Q1344.0 295 1365.5 230.5Q1387.0 166 1405.0 112Q1414.0 85 1427.5 69.0Q1441.0 53 1457.5 44.5Q1474.0 36 1494.0 31Q1507.0 28 1514.0 23.0Q1521.0 18 1521.0 9Q1521.0 3 1514.5 0.0Q1508.0 -3 1498.0 -3Q1480.0 -3 1452.5 -2.0Q1425.0 -1 1396.0 0.5Q1367.0 2 1344.0 2Q1324.0 2 1299.5 1.0Q1275.0 0 1250.5 -1.0Q1226.0 -2 1209.0 -2Q1199.0 -2 1191.5 1.5Q1184.0 5 1184.0 12Q1184.0 20 1192.0 25.5Q1200.0 31 1211.0 33Q1247.0 39 1263.0 51.5Q1279.0 64 1275.0 88Q1272.0 105 1266.0 128.5Q1260.0 152 1253.5 177.5Q1247.0 203 1240.0 224Q1238.0 232 1234.0 235.5Q1230.0 239 1219.0 239H1039.0Q1032.0 239 1028.0 234.5Q1024.0 230 1022.0 221Q1018.0 208 1012.5 191.5Q1007.0 175 1001.5 157.5Q996.0 140 991.5 125.0Q987.0 110 985.0 99Q980.0 72 994.5 56.5Q1009.0 41 1045.0 32Q1072.0 25 1072.0 11Q1072.0 5 1065.5 1.5Q1059.0 -2 1047.0 -2Q1024.0 -2 999.0 -0.5Q974.0 1 944.0 1Q914.0 1 885.5 -2.0Q857.0 -5 828.0 -5ZM1066.0 285H1205.0Q1219.0 285 1219.0 291Q1219.0 294 1218.5 296.0Q1218.0 298 1217.0 302L1147.0 533Q1143.0 547 1140.0 547Q1138.0 547 1133.0 534L1049.0 302Q1047.0 297 1047.0 294Q1047.0 289 1052.5 287.0Q1058.0 285 1066.0 285ZM2157.0 -21Q2114.0 -21 2082.0 -11.5Q2050.0 -2 2027.0 16.0Q2004.0 34 1985.0 58Q1963.0 88 1942.0 116.5Q1921.0 145 1899.5 179.5Q1878.0 214 1852.0 262Q1839.0 285 1819.0 296Q1806.0 303 1792.5 306.0Q1779.0 309 1770.0 309Q1764.0 310 1761.0 304.0Q1758.0 298 1758.0 289V103Q1758.0 72 1774.5 55.0Q1791.0 38 1831.0 29Q1844.0 27 1850.0 22.5Q1856.0 18 1856.0 10Q1856.0 3 1850.5 0.0Q1845.0 -3 1834.0 -3Q1811.0 -3 1787.0 -1.5Q1763.0 0 1740.5 1.0Q1718.0 2 1698.0 2Q1676.0 2 1652.5 1.0Q1629.0 0 1605.0 -2.0Q1581.0 -4 1557.0 -4Q1548.0 -4 1541.0 -0.5Q1534.0 3 1534.0 9Q1534.0 24 1559.0 29Q1597.0 37 1613.0 51.0Q1629.0 65 1629.0 98V540Q1629.0 569 1624.5 584.5Q1620.0 600 1607.0 608.0Q1594.0 616 1568.0 620Q1554.0 622 1548.0 628.0Q1542.0 634 1542.0 640Q1542.0 647 1548.5 650.5Q1555.0 654 1566.0 654Q1596.0 654 1614.0 653.0Q1632.0 652 1648.5 650.5Q1665.0 649 1688.0 649Q1710.0 649 1727.0 651.0Q1744.0 653 1765.0 655.0Q1786.0 657 1819.0 657Q1934.0 657 1995.0 617.0Q2056.0 577 2056.0 495Q2056.0 450 2037.0 418.5Q2018.0 387 1989.5 367.0Q1961.0 347 1931.0 336Q1927.0 335 1927.5 331.0Q1928.0 327 1931.0 324Q1961.0 278 1989.5 236.5Q2018.0 195 2049.5 158.0Q2081.0 121 2118.0 87Q2149.0 58 2181.5 52.5Q2214.0 47 2249.0 47Q2264.0 47 2264.0 32Q2264.0 12 2249.0 0.5Q2234.0 -11 2209.5 -16.0Q2185.0 -21 2157.0 -21ZM1801.0 338Q1842.0 338 1869.5 356.5Q1897.0 375 1911.5 406.0Q1926.0 437 1926.0 475Q1926.0 520 1915.0 551.5Q1904.0 583 1877.5 600.5Q1851.0 618 1805.0 618Q1779.0 618 1769.5 599.5Q1760.0 581 1759.0 525Q1758.0 502 1758.0 464.5Q1758.0 427 1758.0 375Q1758.0 353 1769.5 345.5Q1781.0 338 1801.0 338ZM2304.0 -4Q2292.0 -4 2285.5 -0.5Q2279.0 3 2279.0 9Q2279.0 17 2287.5 20.5Q2296.0 24 2308.0 27Q2332.0 34 2349.0 54.0Q2366.0 74 2370.0 106Q2378.0 167 2385.5 239.0Q2393.0 311 2399.5 384.0Q2406.0 457 2410.0 521Q2410.0 528 2410.0 537.0Q2410.0 546 2410.0 555Q2409.0 570 2404.5 579.5Q2400.0 589 2389.0 597Q2375.0 607 2360.0 612.5Q2345.0 618 2326.0 622Q2315.0 624 2308.5 629.5Q2302.0 635 2302.0 643Q2302.0 651 2310.0 654.0Q2318.0 657 2331.0 657Q2344.0 657 2366.0 656.0Q2388.0 655 2413.5 653.5Q2439.0 652 2464.0 651.0Q2489.0 650 2508.0 650Q2516.0 650 2522.0 645.0Q2528.0 640 2530.0 633Q2536.0 614 2542.0 596.0Q2548.0 578 2555.0 558L2705.0 191Q2708.0 186 2713.0 185.5Q2718.0 185 2720.0 190L2881.0 548Q2888.0 577 2892.5 599.0Q2897.0 621 2901.0 634Q2904.0 647 2914.0 647H2955.0Q2993.0 649 3035.0 653.0Q3077.0 657 3100.0 657Q3108.0 657 3115.5 654.5Q3123.0 652 3123.0 644Q3123.0 636 3117.0 632.0Q3111.0 628 3099.0 623Q3091.0 621 3080.0 616.5Q3069.0 612 3061.0 608Q3040.0 599 3029.5 585.0Q3019.0 571 3020.0 545Q3021.0 474 3024.0 417.5Q3027.0 361 3029.5 311.5Q3032.0 262 3036.0 210.5Q3040.0 159 3043.0 97Q3045.0 69 3064.5 53.0Q3084.0 37 3117.0 29Q3129.0 26 3136.5 22.0Q3144.0 18 3144.0 10Q3144.0 3 3137.5 0.0Q3131.0 -3 3120.0 -3Q3097.0 -3 3072.0 -2.0Q3047.0 -1 3023.5 0.0Q3000.0 1 2979.0 1Q2959.0 1 2938.0 0.0Q2917.0 -1 2895.0 -2.5Q2873.0 -4 2849.0 -4Q2839.0 -4 2831.5 -0.5Q2824.0 3 2824.0 9Q2824.0 17 2831.5 22.0Q2839.0 27 2851.0 29Q2885.0 36 2898.5 50.0Q2912.0 64 2910.0 97Q2909.0 162 2907.0 222.0Q2905.0 282 2903.0 341.0Q2901.0 400 2898.0 460Q2897.0 468 2893.5 467.5Q2890.0 467 2886.0 459L2682.0 -1Q2678.0 -12 2669.0 -10.5Q2660.0 -9 2657.0 -1Q2611.0 115 2560.5 228.5Q2510.0 342 2461.0 459Q2458.0 467 2452.5 465.0Q2447.0 463 2446.0 454Q2441.0 398 2437.0 338.5Q2433.0 279 2432.0 220.0Q2431.0 161 2431.0 103Q2431.0 76 2448.5 57.0Q2466.0 38 2502.0 29Q2514.0 27 2522.5 22.5Q2531.0 18 2531.0 10Q2531.0 3 2523.0 0.0Q2515.0 -3 2505.0 -3Q2478.0 -3 2464.0 -2.0Q2450.0 -1 2438.0 0.0Q2426.0 1 2406.0 1Q2385.0 1 2366.5 0.0Q2348.0 -1 2332.0 -2.5Q2316.0 -4 2304.0 -4ZM3547.0 -14Q3479.0 -14 3417.0 9.5Q3355.0 33 3307.5 76.5Q3260.0 120 3232.5 180.5Q3205.0 241 3205.0 315Q3205.0 383 3227.5 445.5Q3250.0 508 3294.5 557.0Q3339.0 606 3404.5 635.0Q3470.0 664 3556.0 664Q3624.0 664 3685.5 640.5Q3747.0 617 3795.0 573.5Q3843.0 530 3870.5 469.5Q3898.0 409 3898.0 335Q3898.0 268 3875.5 205.0Q3853.0 142 3808.5 93.0Q3764.0 44 3698.5 15.0Q3633.0 -14 3547.0 -14ZM3564.0 30Q3627.0 30 3669.5 62.0Q3712.0 94 3733.5 151.5Q3755.0 209 3755.0 284Q3755.0 348 3742.0 408.0Q3729.0 468 3702.0 515.5Q3675.0 563 3634.5 591.0Q3594.0 619 3538.0 619Q3475.0 619 3432.5 587.0Q3390.0 555 3369.0 498.0Q3348.0 441 3348.0 366Q3348.0 302 3361.0 242.0Q3374.0 182 3400.5 134.0Q3427.0 86 3467.5 58.0Q3508.0 30 3564.0 30ZM4608.0 -18Q4596.0 -18 4568.0 -3.0Q4540.0 12 4511.0 49Q4494.0 68 4469.5 95.5Q4445.0 123 4415.5 156.0Q4386.0 189 4354.0 225.0Q4322.0 261 4290.5 297.0Q4259.0 333 4229.0 366.0Q4199.0 399 4174.0 426.5Q4149.0 454 4132.0 474Q4128.0 479 4123.5 482.5Q4119.0 486 4116.0 486Q4112.0 486 4110.0 479.0Q4108.0 472 4108.0 466Q4108.0 420 4108.5 357.0Q4109.0 294 4109.0 229.0Q4109.0 164 4109.0 109Q4109.0 78 4127.0 58.0Q4145.0 38 4184.0 29Q4196.0 27 4204.5 22.5Q4213.0 18 4213.0 10Q4213.0 3 4205.0 0.0Q4197.0 -3 4187.0 -3Q4160.0 -3 4144.0 -2.0Q4128.0 -1 4115.0 0.0Q4102.0 1 4082.0 1Q4061.0 1 4044.5 0.0Q4028.0 -1 4015.0 -2.5Q4002.0 -4 3990.0 -4Q3980.0 -4 3972.0 -0.5Q3964.0 3 3964.0 9Q3964.0 17 3971.5 21.5Q3979.0 26 3992.0 30Q4018.0 38 4030.5 59.5Q4043.0 81 4046.0 111Q4050.0 149 4054.0 210.5Q4058.0 272 4061.5 349.0Q4065.0 426 4065.0 508Q4065.0 560 4038.5 583.0Q4012.0 606 3972.0 620Q3965.0 622 3954.0 628.0Q3943.0 634 3943.0 643Q3943.0 652 3951.0 655.0Q3959.0 658 3968.0 658Q3989.0 658 4010.0 657.0Q4031.0 656 4052.5 655.5Q4074.0 655 4097.5 654.0Q4121.0 653 4148.0 653Q4157.0 653 4161.5 649.5Q4166.0 646 4170.0 640Q4186.0 621 4211.0 592.5Q4236.0 564 4265.5 529.5Q4295.0 495 4327.5 457.0Q4360.0 419 4392.5 381.0Q4425.0 343 4455.0 308.5Q4485.0 274 4509.5 245.5Q4534.0 217 4550.0 199Q4554.0 195 4559.5 189.0Q4565.0 183 4569.0 183Q4577.0 183 4578.0 200Q4578.0 226 4578.0 266.5Q4578.0 307 4578.5 356.5Q4579.0 406 4578.5 458.0Q4578.0 510 4577.0 558Q4576.0 583 4556.5 597.5Q4537.0 612 4508.0 618Q4496.0 621 4485.5 625.5Q4475.0 630 4475.0 639Q4475.0 646 4485.5 649.0Q4496.0 652 4505.0 652Q4525.0 652 4538.5 652.0Q4552.0 652 4564.0 651.5Q4576.0 651 4589.0 651Q4611.0 651 4625.0 651.5Q4639.0 652 4655.5 653.0Q4672.0 654 4699.0 654Q4711.0 654 4718.5 650.5Q4726.0 647 4726.0 641Q4726.0 626 4697.0 620Q4662.0 613 4647.5 601.0Q4633.0 589 4632.0 561Q4632.0 536 4631.5 497.0Q4631.0 458 4630.0 412.0Q4629.0 366 4627.5 318.0Q4626.0 270 4625.5 224.0Q4625.0 178 4625.0 141Q4625.0 117 4627.0 92.0Q4629.0 67 4631.5 47.5Q4634.0 28 4634.0 20Q4634.0 -2 4627.0 -10.0Q4620.0 -18 4608.0 -18ZM4925.0 -6Q4912.0 -6 4904.5 -2.0Q4897.0 2 4897.0 9Q4897.0 17 4905.5 21.5Q4914.0 26 4927.0 29Q4965.0 36 4982.0 56.0Q4999.0 76 4999.0 109V251Q4999.0 280 4989.0 303.5Q4979.0 327 4970.0 343L4845.0 540Q4837.0 553 4824.5 569.5Q4812.0 586 4797.0 600.0Q4782.0 614 4763.0 619Q4751.0 623 4743.5 627.5Q4736.0 632 4736.0 640Q4736.0 647 4743.0 650.5Q4750.0 654 4760.0 654Q4796.0 654 4831.5 651.5Q4867.0 649 4907.0 649Q4936.0 649 4962.5 651.5Q4989.0 654 5017.0 654Q5027.0 654 5036.0 650.5Q5045.0 647 5045.0 640Q5045.0 632 5036.0 627.0Q5027.0 622 5015.0 619Q4992.0 614 4980.5 607.0Q4969.0 600 4969.0 586Q4969.0 571 4981.0 551L5080.0 376Q5093.0 351 5102.0 351Q5107.0 351 5112.0 357.0Q5117.0 363 5125.0 376Q5149.0 415 5169.0 453.0Q5189.0 491 5212.0 536Q5218.0 548 5221.5 559.5Q5225.0 571 5225.0 580Q5225.0 600 5209.0 608.5Q5193.0 617 5176.0 619Q5166.0 620 5155.0 626.0Q5144.0 632 5144.0 640Q5144.0 647 5153.0 650.0Q5162.0 653 5173.0 653Q5200.0 653 5220.5 651.0Q5241.0 649 5266.0 649Q5294.0 649 5319.5 652.0Q5345.0 655 5369.0 655Q5381.0 655 5389.5 652.0Q5398.0 649 5398.0 641Q5398.0 632 5386.0 627.5Q5374.0 623 5360.0 619Q5332.0 611 5312.0 592.0Q5292.0 573 5273.0 543Q5256.0 515 5241.0 491.5Q5226.0 468 5212.5 446.5Q5199.0 425 5185.0 402.5Q5171.0 380 5155.0 353Q5145.0 336 5139.5 322.0Q5134.0 308 5131.0 293.0Q5128.0 278 5128.0 258V110Q5128.0 73 5145.0 55.5Q5162.0 38 5200.0 29Q5214.0 26 5222.5 22.0Q5231.0 18 5231.0 9Q5231.0 3 5223.5 -1.0Q5216.0 -5 5204.0 -5Q5180.0 -5 5156.0 -3.0Q5132.0 -1 5109.5 0.5Q5087.0 2 5065.0 2Q5043.0 2 5020.0 0.5Q4997.0 -1 4973.0 -3.5Q4949.0 -6 4925.0 -6Z" transform="matrix(0.022120 0 0 -0.022120 90.02 391.17)" fill="#15130f"/></svg>