<svg xmlns="http://www.w3.org/2000/svg" viewBox="0 0 300 446"><rect width="300" height="446" fill="#f4ecd8"/><rect x="20.0" y="25.5" width="260" height="395" rx="20.3" fill="#f4ecd8" stroke="#15130f" stroke-width="1.5"/><rect x="36.9" y="42.4" width="226.2" height="354.7" fill="none" stroke="#15130f" stroke-width="0.7"/><g fill="none" stroke="#15130f" stroke-width="0.65" stroke-opacity="0.72" stroke-linecap="round" stroke-linejoin="round"><line x1="36.9" y1="155.5" x2="263.1" y2="155.5"/><path d="M36.9,155.5 A113.1,113.1 0 0 1 263.1,155.5"/></g><path d="M36.9,370.6 H263.1 V397.1 H36.9 Z" fill="#f0cf48"/><g fill="none" stroke="#15130f" stroke-width="0.8"><line x1="36.9" y1="370.6" x2="263.1" y2="370.6"/><line x1="61.6" y1="370.6" x2="61.6" y2="397.1"/><line x1="238.4" y1="370.6" x2="238.4" y2="397.1"/></g><rect x="141.4" y="34.4" width="17.2" height="19.0" fill="#f0cf48" stroke="#15130f" stroke-width="0.8"/><path d="M649.0 1092V235L647.0 193L657.0 137Q686.0 59 825.0 52Q867.0 50 867.0 28Q867.0 -7 780.0 -7Q761.0 -7 652.0 2Q595.0 7 494.0 7Q394.0 7 322.0 -2Q293.0 -5 280.0 -5Q255.0 -5 255.0 20Q255.0 41 281.0 45Q384.0 61 415.0 92.0Q446.0 123 446.0 210L445.0 248V1010Q445.0 1115 363.0 1115Q331.0 1115 306.0 1104L281.0 1093Q270.0 1089 261.0 1089Q235.0 1089 235.0 1113Q235.0 1137 260.0 1150.0Q285.0 1163 362.0 1180Q506.0 1211 567.0 1267L614.0 1310Q625.0 1320 641.0 1320Q661.0 1320 661.0 1282Q661.0 1271 659.0 1243L651.0 1153Q649.0 1126 649.0 1092ZM1569.0 1307Q1753.0 1307 1878.5 1138.5Q2004.0 970 2004.0 722Q2004.0 567 1951.0 407.5Q1898.0 248 1812.0 142Q1674.0 -27 1496.0 -27Q1308.0 -27 1187.5 146.0Q1067.0 319 1067.0 588Q1067.0 880 1216.0 1093.5Q1365.0 1307 1569.0 1307ZM1470.0 1205Q1366.0 1205 1305.5 1102.0Q1245.0 999 1245.0 824Q1245.0 522 1354.0 312.5Q1463.0 103 1620.0 103Q1723.0 103 1784.0 206.5Q1845.0 310 1845.0 485Q1845.0 644 1797.5 809.0Q1750.0 974 1675.0 1077Q1580.0 1205 1470.0 1205Z" transform="matrix(0.006024 0 0 -0.006024 143.26 48.57)" fill="#15130f"/><path d="M700 1410Q993 1410 1171.5 1205.0Q1350 1000 1350 700Q1350 399 1170.0 194.5Q990 -10 700 -10Q410 -10 230.0 194.5Q50 399 50 700Q50 1000 228.5 1205.0Q407 1410 700 1410ZM700 1310Q487 1310 368.5 1116.5Q250 923 250 700Q250 481 368.5 285.5Q487 90 700 90Q910 90 1030.0 285.5Q1150 481 1150 700Q1150 923 1030.0 1116.5Q910 1310 700 1310ZM700.0 950Q766.0 950 826.0 918.0Q886.0 886 918.0 826.0Q950.0 766 950.0 700Q950.0 634 918.0 574.0Q886.0 514 826.0 482.0Q766.0 450 700.0 450Q634.0 450 574.0 482.0Q514.0 514 482.0 574.0Q450.0 634 450.0 700Q450.0 766 482.0 826.0Q514.0 886 574.0 918.0Q634.0 950 700.0 950Z" transform="matrix(0.009268 0 0 -0.009268 42.76 390.35)" fill="#15130f"/><path d="M1415.0 450Q1415.0 359 1443.0 274.5Q1471.0 190 1523.5 145.0Q1576.0 100 1632.0 100Q1689.0 100 1741.5 145.0Q1794.0 190 1822.0 274.5Q1850.0 359 1850.0 450Q1850.0 541 1822.0 625.5Q1794.0 710 1741.5 755.0Q1689.0 800 1632.0 800Q1576.0 800 1523.5 755.0Q1471.0 710 1443.0 625.5Q1415.0 541 1415.0 450ZM1395.0 824Q1409.0 834 1424.0 842Q1524.0 900 1632.0 900Q1741.0 900 1841.5 842.0Q1942.0 784 1996.0 675.5Q2050.0 567 2050.0 450Q2050.0 333 1996.0 224.5Q1942.0 116 1841.5 58.0Q1741.0 0 1632.0 0Q1524.0 0 1424.0 58Q1379.0 84 1343.0 120Q1297.0 25 1221.0 -55Q1027.0 -260 715.0 -260Q483.0 -260 289.0 -55Q278.0 -43 267.0 -31L292.0 4Q446.0 -160 715.0 -160Q952.0 -160 1083.5 35.5Q1215.0 231 1215.0 450Q1215.0 906 1106.0 1305Q927.0 1266 820.0 895Q700.0 479 700.0 0H500.0Q500.0 479 380.0 894.5Q260.0 1310 50.0 1310V1410Q343.0 1410 522.0 1003Q566.0 901 600.0 786Q634.0 901 679.0 1003Q857.0 1410 1150.0 1410H1255.0Q1359.0 1153 1395.0 824Z" transform="matrix(0.009139 0 0 -0.009139 241.15 389.12)" fill="#15130f"/><path d="M24.0 -5Q12.0 -5 4.0 -1.5Q-4.0 2 -4.0 10Q-4.0 19 3.5 24.0Q11.0 29 23.0 33Q52.0 41 73.5 57.5Q95.0 74 108.0 103Q133.0 162 156.0 216.5Q179.0 271 200.0 325.0Q221.0 379 242.5 435.0Q264.0 491 286.0 553Q297.0 584 301.0 601.0Q305.0 618 308.0 626Q323.0 630 336.0 634.0Q349.0 638 365.0 644Q379.0 651 389.0 662.0Q399.0 673 404.0 679Q407.0 681 410.0 681.5Q413.0 682 416.0 677Q419.0 671 421.0 665.0Q423.0 659 425.0 652Q447.0 581 470.5 508.5Q494.0 436 517.0 365.5Q540.0 295 561.5 230.5Q583.0 166 601.0 112Q610.0 85 623.5 69.0Q637.0 53 653.5 44.5Q670.0 36 690.0 31Q703.0 28 710.0 23.0Q717.0 18 717.0 9Q717.0 3 710.5 0.0Q704.0 -3 694.0 -3Q676.0 -3 648.5 -2.0Q621.0 -1 592.0 0.5Q563.0 2 540.0 2Q520.0 2 495.5 1.0Q471.0 0 446.5 -1.0Q422.0 -2 405.0 -2Q395.0 -2 387.5 1.5Q380.0 5 380.0 12Q380.0 20 388.0 25.5Q396.0 31 407.0 33Q443.0 39 459.0 51.5Q475.0 64 471.0 88Q468.0 105 462.0 128.5Q456.0 152 449.5 177.5Q443.0 203 436.0 224Q434.0 232 430.0 235.5Q426.0 239 415.0 239H235.0Q228.0 239 224.0 234.5Q220.0 230 218.0 221Q214.0 208 208.5 191.5Q203.0 175 197.5 157.5Q192.0 140 187.5 125.0Q183.0 110 181.0 99Q176.0 72 190.5 56.5Q205.0 41 241.0 32Q268.0 25 268.0 11Q268.0 5 261.5 1.5Q255.0 -2 243.0 -2Q220.0 -2 195.0 -0.5Q170.0 1 140.0 1Q110.0 1 81.5 -2.0Q53.0 -5 24.0 -5ZM262.0 285H401.0Q415.0 285 415.0 291Q415.0 294 414.5 296.0Q414.0 298 413.0 302L343.0 533Q339.0 547 336.0 547Q334.0 547 329.0 534L245.0 302Q243.0 297 243.0 294Q243.0 289 248.5 287.0Q254.0 285 262.0 285ZM1116.0 -14Q1041.0 -14 974.0 9.5Q907.0 33 855.5 77.0Q804.0 121 774.5 182.5Q745.0 244 745.0 319Q745.0 389 774.0 451.0Q803.0 513 856.0 561.0Q909.0 609 982.5 636.5Q1056.0 664 1144.0 664Q1178.0 664 1208.5 659.5Q1239.0 655 1268.0 648.5Q1297.0 642 1325.0 632Q1336.0 628 1342.5 621.0Q1349.0 614 1350.0 602Q1354.0 572 1356.0 542.5Q1358.0 513 1358.0 484Q1359.0 474 1351.0 469.5Q1343.0 465 1334.0 468.5Q1325.0 472 1321.0 483Q1313.0 511 1302.5 535.5Q1292.0 560 1271.0 577Q1248.0 596 1213.0 607.5Q1178.0 619 1131.0 619Q1077.0 619 1033.0 597.0Q989.0 575 957.5 536.0Q926.0 497 909.0 448.0Q892.0 399 892.0 345Q892.0 281 907.5 224.0Q923.0 167 954.5 123.5Q986.0 80 1031.0 55.5Q1076.0 31 1134.0 31Q1208.0 31 1254.0 63.0Q1300.0 95 1332.0 158Q1340.0 174 1354.0 173.5Q1368.0 173 1368.0 157Q1368.0 145 1365.0 127.0Q1362.0 109 1356.5 88.5Q1351.0 68 1344.0 48Q1340.0 36 1334.0 30.0Q1328.0 24 1316.0 19Q1278.0 3 1226.5 -5.5Q1175.0 -14 1116.0 -14ZM1468.0 -4Q1459.0 -4 1452.0 0.0Q1445.0 4 1445.0 10Q1445.0 24 1470.0 29Q1506.0 37 1518.0 51.0Q1530.0 65 1530.0 98V551Q1530.0 584 1520.0 598.0Q1510.0 612 1473.0 620Q1448.0 625 1448.0 640Q1448.0 647 1454.5 650.5Q1461.0 654 1471.0 654Q1495.0 654 1516.0 653.0Q1537.0 652 1557.0 651.0Q1577.0 650 1597.0 650Q1617.0 650 1638.5 651.0Q1660.0 652 1683.0 653.0Q1706.0 654 1729.0 654Q1751.0 654 1751.0 639Q1751.0 631 1745.0 627.0Q1739.0 623 1726.0 620Q1687.0 610 1673.5 595.0Q1660.0 580 1660.0 550V364Q1660.0 357 1664.5 354.5Q1669.0 352 1675.0 352H1974.0Q1985.0 352 1985.0 366V551Q1985.0 580 1972.0 595.0Q1959.0 610 1920.0 620Q1907.0 623 1900.5 627.0Q1894.0 631 1894.0 639Q1894.0 654 1916.0 654Q1940.0 654 1964.0 653.0Q1988.0 652 2010.5 651.0Q2033.0 650 2054.0 650Q2073.0 650 2091.0 651.0Q2109.0 652 2129.5 653.0Q2150.0 654 2174.0 654Q2183.0 654 2190.0 650.5Q2197.0 647 2197.0 640Q2197.0 625 2171.0 620Q2136.0 612 2125.5 597.0Q2115.0 582 2115.0 551V98Q2115.0 65 2126.0 51.0Q2137.0 37 2173.0 29Q2198.0 24 2198.0 10Q2198.0 4 2191.0 0.0Q2184.0 -4 2175.0 -4Q2152.0 -4 2131.0 -2.5Q2110.0 -1 2089.5 0.0Q2069.0 1 2049.0 1Q2029.0 1 2007.0 0.0Q1985.0 -1 1962.0 -2.0Q1939.0 -3 1915.0 -3Q1906.0 -3 1900.0 0.5Q1894.0 4 1894.0 11Q1894.0 19 1900.0 22.5Q1906.0 26 1918.0 29Q1954.0 38 1969.5 53.0Q1985.0 68 1985.0 98V288Q1985.0 294 1983.5 299.0Q1982.0 304 1975.0 304H1671.0Q1660.0 304 1660.0 289V102Q1660.0 72 1677.5 55.0Q1695.0 38 1731.0 29Q1744.0 26 1750.0 22.5Q1756.0 19 1756.0 11Q1756.0 4 1750.5 0.5Q1745.0 -3 1734.0 -3Q1711.0 -3 1687.0 -2.0Q1663.0 -1 1640.5 0.0Q1618.0 1 1597.0 1Q1576.0 1 1555.0 0.0Q1534.0 -1 1512.0 -2.5Q1490.0 -4 1468.0 -4ZM2264.0 -4Q2255.0 -4 2248.0 -0.5Q2241.0 3 2241.0 9Q2241.0 24 2266.0 29Q2304.0 37 2321.0 51.0Q2338.0 65 2338.0 97V551Q2338.0 584 2324.0 598.0Q2310.0 612 2271.0 620Q2246.0 625 2246.0 641Q2246.0 647 2253.0 650.5Q2260.0 654 2269.0 654Q2293.0 654 2316.0 653.0Q2339.0 652 2360.5 651.0Q2382.0 650 2404.0 650Q2425.0 650 2446.5 651.0Q2468.0 652 2491.0 653.0Q2514.0 654 2538.0 654Q2548.0 654 2554.0 650.5Q2560.0 647 2560.0 640Q2560.0 632 2553.5 627.5Q2547.0 623 2535.0 620Q2495.0 610 2481.0 596.0Q2467.0 582 2467.0 550V98Q2467.0 67 2483.5 53.0Q2500.0 39 2538.0 29Q2551.0 26 2557.5 22.0Q2564.0 18 2564.0 10Q2564.0 3 2558.0 0.0Q2552.0 -3 2542.0 -3Q2518.0 -3 2494.0 -2.0Q2470.0 -1 2447.5 0.0Q2425.0 1 2404.0 1Q2382.0 1 2359.0 0.0Q2336.0 -1 2312.0 -2.5Q2288.0 -4 2264.0 -4ZM2629.0 -5Q2618.0 -5 2611.5 -1.0Q2605.0 3 2605.0 9Q2605.0 22 2631.0 28Q2667.0 37 2682.5 50.5Q2698.0 64 2698.0 97V550Q2698.0 584 2684.5 598.0Q2671.0 612 2634.0 620Q2620.0 623 2614.0 628.5Q2608.0 634 2608.0 640Q2608.0 647 2614.5 650.5Q2621.0 654 2632.0 654Q2661.0 654 2687.5 653.0Q2714.0 652 2739.0 651.0Q2764.0 650 2791.0 650Q2837.0 650 2888.5 651.0Q2940.0 652 2981.0 652Q3014.0 653 3035.5 655.0Q3057.0 657 3061.0 657Q3068.0 657 3075.5 654.0Q3083.0 651 3084.0 642Q3088.0 609 3094.0 577.0Q3100.0 545 3100.0 521Q3100.0 512 3095.5 507.5Q3091.0 503 3086.0 503Q3081.0 503 3077.0 506.5Q3073.0 510 3070.0 517Q3062.0 540 3055.0 557.0Q3048.0 574 3039.0 583Q3026.0 597 3009.0 605.0Q2992.0 613 2968.0 613H2875.0Q2857.0 613 2842.0 602.5Q2827.0 592 2827.0 573V377Q2827.0 366 2833.5 360.0Q2840.0 354 2849.0 354H2941.0Q2968.0 354 2979.5 369.0Q2991.0 384 2999.0 410Q3006.0 430 3018.0 430Q3023.0 430 3027.0 424.5Q3031.0 419 3031.0 410Q3030.0 400 3029.0 386.0Q3028.0 372 3027.5 358.0Q3027.0 344 3027.0 333Q3027.0 321 3027.5 306.0Q3028.0 291 3028.5 276.5Q3029.0 262 3030.0 252Q3031.0 241 3028.5 235.0Q3026.0 229 3020.0 229Q3004.0 229 2997.0 257Q2989.0 285 2978.0 299.0Q2967.0 313 2948.0 313H2854.0Q2841.0 313 2834.0 308.0Q2827.0 303 2827.0 289V99Q2827.0 66 2841.0 53.0Q2855.0 40 2884.0 40H2966.0Q2991.0 40 3011.5 45.0Q3032.0 50 3047.0 61Q3064.0 73 3077.5 93.5Q3091.0 114 3104.0 139Q3108.0 147 3112.0 149.5Q3116.0 152 3122.0 152Q3127.0 151 3129.5 146.0Q3132.0 141 3132.0 135Q3132.0 121 3127.0 99.0Q3122.0 77 3114.5 53.5Q3107.0 30 3101.0 10Q3098.0 3 3093.0 -0.5Q3088.0 -4 3081.0 -4Q3057.0 -4 3019.5 -3.5Q2982.0 -3 2938.0 -2.0Q2894.0 -1 2848.0 -0.5Q2802.0 0 2760.0 0Q2739.0 0 2717.5 -1.0Q2696.0 -2 2674.0 -3.5Q2652.0 -5 2629.0 -5ZM3489.0 -15Q3477.0 -15 3472.0 -2Q3466.0 11 3457.0 34.0Q3448.0 57 3441.0 76L3250.0 549Q3240.0 574 3223.0 592.5Q3206.0 611 3178.0 619Q3166.0 623 3158.5 627.5Q3151.0 632 3151.0 640Q3151.0 647 3158.0 650.5Q3165.0 654 3175.0 654Q3193.0 654 3217.5 653.0Q3242.0 652 3267.0 651.0Q3292.0 650 3313.0 650Q3333.0 650 3359.0 651.0Q3385.0 652 3409.5 653.0Q3434.0 654 3451.0 654Q3461.0 654 3470.0 650.5Q3479.0 647 3479.0 640Q3479.0 632 3470.0 626.5Q3461.0 621 3448.0 619Q3419.0 614 3403.5 605.5Q3388.0 597 3388.0 580Q3388.0 570 3391.0 561.0Q3394.0 552 3395.0 545L3530.0 177Q3532.0 172 3534.5 171.0Q3537.0 170 3540.0 178L3663.0 502Q3683.0 554 3669.5 583.5Q3656.0 613 3616.0 619Q3603.0 621 3593.5 626.5Q3584.0 632 3584.0 640Q3584.0 647 3593.0 650.0Q3602.0 653 3613.0 653Q3631.0 653 3646.0 652.5Q3661.0 652 3676.0 651.5Q3691.0 651 3710.0 651Q3739.0 651 3767.5 653.0Q3796.0 655 3821.0 655Q3833.0 655 3842.0 652.0Q3851.0 649 3851.0 641Q3851.0 632 3842.5 628.0Q3834.0 624 3822.0 621Q3789.0 613 3767.5 589.0Q3746.0 565 3730.0 527L3566.0 133Q3555.0 106 3544.5 82.0Q3534.0 58 3525.5 37.0Q3517.0 16 3508.0 -2Q3505.0 -9 3501.0 -12.0Q3497.0 -15 3489.0 -15ZM3895.0 -5Q3884.0 -5 3877.5 -1.0Q3871.0 3 3871.0 9Q3871.0 22 3897.0 28Q3933.0 37 3948.5 50.5Q3964.0 64 3964.0 97V550Q3964.0 584 3950.5 598.0Q3937.0 612 3900.0 620Q3886.0 623 3880.0 628.5Q3874.0 634 3874.0 640Q3874.0 647 3880.5 650.5Q3887.0 654 3898.0 654Q3927.0 654 3953.5 653.0Q3980.0 652 4005.0 651.0Q4030.0 650 4057.0 650Q4103.0 650 4154.5 651.0Q4206.0 652 4247.0 652Q4280.0 653 4301.5 655.0Q4323.0 657 4327.0 657Q4334.0 657 4341.5 654.0Q4349.0 651 4350.0 642Q4354.0 609 4360.0 577.0Q4366.0 545 4366.0 521Q4366.0 512 4361.5 507.5Q4357.0 503 4352.0 503Q4347.0 503 4343.0 506.5Q4339.0 510 4336.0 517Q4328.0 540 4321.0 557.0Q4314.0 574 4305.0 583Q4292.0 597 4275.0 605.0Q4258.0 613 4234.0 613H4141.0Q4123.0 613 4108.0 602.5Q4093.0 592 4093.0 573V377Q4093.0 366 4099.5 360.0Q4106.0 354 4115.0 354H4207.0Q4234.0 354 4245.5 369.0Q4257.0 384 4265.0 410Q4272.0 430 4284.0 430Q4289.0 430 4293.0 424.5Q4297.0 419 4297.0 410Q4296.0 400 4295.0 386.0Q4294.0 372 4293.5 358.0Q4293.0 344 4293.0 333Q4293.0 321 4293.5 306.0Q4294.0 291 4294.5 276.5Q4295.0 262 4296.0 252Q4297.0 241 4294.5 235.0Q4292.0 229 4286.0 229Q4270.0 229 4263.0 257Q4255.0 285 4244.0 299.0Q4233.0 313 4214.0 313H4120.0Q4107.0 313 4100.0 308.0Q4093.0 303 4093.0 289V99Q4093.0 66 4107.0 53.0Q4121.0 40 4150.0 40H4232.0Q4257.0 40 4277.5 45.0Q4298.0 50 4313.0 61Q4330.0 73 4343.5 93.5Q4357.0 114 4370.0 139Q4374.0 147 4378.0 149.5Q4382.0 152 4388.0 152Q4393.0 151 4395.5 146.0Q4398.0 141 4398.0 135Q4398.0 121 4393.0 99.0Q4388.0 77 4380.5 53.5Q4373.0 30 4367.0 10Q4364.0 3 4359.0 -0.5Q4354.0 -4 4347.0 -4Q4323.0 -4 4285.5 -3.5Q4248.0 -3 4204.0 -2.0Q4160.0 -1 4114.0 -0.5Q4068.0 0 4026.0 0Q4005.0 0 3983.5 -1.0Q3962.0 -2 3940.0 -3.5Q3918.0 -5 3895.0 -5ZM4462.0 -4Q4450.0 -4 4443.5 -0.5Q4437.0 3 4437.0 9Q4437.0 17 4445.5 20.5Q4454.0 24 4466.0 27Q4490.0 34 4507.0 54.0Q4524.0 74 4528.0 106Q4536.0 167 4543.5 239.0Q4551.0 311 4557.5 384.0Q4564.0 457 4568.0 521Q4568.0 528 4568.0 537.0Q4568.0 546 4568.0 555Q4567.0 570 4562.5 579.5Q4558.0 589 4547.0 597Q4533.0 607 4518.0 612.5Q4503.0 618 4484.0 622Q4473.0 624 4466.5 629.5Q4460.0 635 4460.0 643Q4460.0 651 4468.0 654.0Q4476.0 657 4489.0 657Q4502.0 657 4524.0 656.0Q4546.0 655 4571.5 653.5Q4597.0 652 4622.0 651.0Q4647.0 650 4666.0 650Q4674.0 650 4680.0 645.0Q4686.0 640 4688.0 633Q4694.0 614 4700.0 596.0Q4706.0 578 4713.0 558L4863.0 191Q4866.0 186 4871.0 185.5Q4876.0 185 4878.0 190L5039.0 548Q5046.0 577 5050.5 599.0Q5055.0 621 5059.0 634Q5062.0 647 5072.0 647H5113.0Q5151.0 649 5193.0 653.0Q5235.0 657 5258.0 657Q5266.0 657 5273.5 654.5Q5281.0 652 5281.0 644Q5281.0 636 5275.0 632.0Q5269.0 628 5257.0 623Q5249.0 621 5238.0 616.5Q5227.0 612 5219.0 608Q5198.0 599 5187.5 585.0Q5177.0 571 5178.0 545Q5179.0 474 5182.0 417.5Q5185.0 361 5187.5 311.5Q5190.0 262 5194.0 210.5Q5198.0 159 5201.0 97Q5203.0 69 5222.5 53.0Q5242.0 37 5275.0 29Q5287.0 26 5294.5 22.0Q5302.0 18 5302.0 10Q5302.0 3 5295.5 0.0Q5289.0 -3 5278.0 -3Q5255.0 -3 5230.0 -2.0Q5205.0 -1 5181.5 0.0Q5158.0 1 5137.0 1Q5117.0 1 5096.0 0.0Q5075.0 -1 5053.0 -2.5Q5031.0 -4 5007.0 -4Q4997.0 -4 4989.5 -0.5Q4982.0 3 4982.0 9Q4982.0 17 4989.5 22.0Q4997.0 27 5009.0 29Q5043.0 36 5056.5 50.0Q5070.0 64 5068.0 97Q5067.0 162 5065.0 222.0Q5063.0 282 5061.0 341.0Q5059.0 400 5056.0 460Q5055.0 468 5051.5 467.5Q5048.0 467 5044.0 459L4840.0 -1Q4836.0 -12 4827.0 -10.5Q4818.0 -9 4815.0 -1Q4769.0 115 4718.5 228.5Q4668.0 342 4619.0 459Q4616.0 467 4610.5 465.0Q4605.0 463 4604.0 454Q4599.0 398 4595.0 338.5Q4591.0 279 4590.0 220.0Q4589.0 161 4589.0 103Q4589.0 76 4606.5 57.0Q4624.0 38 4660.0 29Q4672.0 27 4680.5 22.5Q4689.0 18 4689.0 10Q4689.0 3 4681.0 0.0Q4673.0 -3 4663.0 -3Q4636.0 -3 4622.0 -2.0Q4608.0 -1 4596.0 0.0Q4584.0 1 4564.0 1Q4543.0 1 4524.5 0.0Q4506.0 -1 4490.0 -2.5Q4474.0 -4 4462.0 -4ZM5378.0 -5Q5367.0 -5 5360.5 -1.0Q5354.0 3 5354.0 9Q5354.0 22 5380.0 28Q5416.0 37 5431.5 50.5Q5447.0 64 5447.0 97V550Q5447.0 584 5433.5 598.0Q5420.0 612 5383.0 620Q5369.0 623 5363.0 628.5Q5357.0 634 5357.0 640Q5357.0 647 5363.5 650.5Q5370.0 654 5381.0 654Q5410.0 654 5436.5 653.0Q5463.0 652 5488.0 651.0Q5513.0 650 5540.0 650Q5586.0 650 5637.5 651.0Q5689.0 652 5730.0 652Q5763.0 653 5784.5 655.0Q5806.0 657 5810.0 657Q5817.0 657 5824.5 654.0Q5832.0 651 5833.0 642Q5837.0 609 5843.0 577.0Q5849.0 545 5849.0 521Q5849.0 512 5844.5 507.5Q5840.0 503 5835.0 503Q5830.0 503 5826.0 506.5Q5822.0 510 5819.0 517Q5811.0 540 5804.0 557.0Q5797.0 574 5788.0 583Q5775.0 597 5758.0 605.0Q5741.0 613 5717.0 613H5624.0Q5606.0 613 5591.0 602.5Q5576.0 592 5576.0 573V377Q5576.0 366 5582.5 360.0Q5589.0 354 5598.0 354H5690.0Q5717.0 354 5728.5 369.0Q5740.0 384 5748.0 410Q5755.0 430 5767.0 430Q5772.0 430 5776.0 424.5Q5780.0 419 5780.0 410Q5779.0 400 5778.0 386.0Q5777.0 372 5776.5 358.0Q5776.0 344 5776.0 333Q5776.0 321 5776.5 306.0Q5777.0 291 5777.5 276.5Q5778.0 262 5779.0 252Q5780.0 241 5777.5 235.0Q5775.0 229 5769.0 229Q5753.0 229 5746.0 257Q5738.0 285 5727.0 299.0Q5716.0 313 5697.0 313H5603.0Q5590.0 313 5583.0 308.0Q5576.0 303 5576.0 289V99Q5576.0 66 5590.0 53.0Q5604.0 40 5633.0 40H5715.0Q5740.0 40 5760.5 45.0Q5781.0 50 5796.0 61Q5813.0 73 5826.5 93.5Q5840.0 114 5853.0 139Q5857.0 147 5861.0 149.5Q5865.0 152 5871.0 152Q5876.0 151 5878.5 146.0Q5881.0 141 5881.0 135Q5881.0 121 5876.0 99.0Q5871.0 77 5863.5 53.5Q5856.0 30 5850.0 10Q5847.0 3 5842.0 -0.5Q5837.0 -4 5830.0 -4Q5806.0 -4 5768.5 -3.5Q5731.0 -3 5687.0 -2.0Q5643.0 -1 5597.0 -0.5Q5551.0 0 5509.0 0Q5488.0 0 5466.5 -1.0Q5445.0 -2 5423.0 -3.5Q5401.0 -5 5378.0 -5ZM6576.0 -18Q6564.0 -18 6536.0 -3.0Q6508.0 12 6479.0 49Q6462.0 68 6437.5 95.5Q6413.0 123 6383.5 156.0Q6354.0 189 6322.0 225.0Q6290.0 261 6258.5 297.0Q6227.0 333 6197.0 366.0Q6167.0 399 6142.0 426.5Q6117.0 454 6100.0 474Q6096.0 479 6091.5 482.5Q6087.0 486 6084.0 486Q6080.0 486 6078.0 479.0Q6076.0 472 6076.0 466Q6076.0 420 6076.5 357.0Q6077.0 294 6077.0 229.0Q6077.0 164 6077.0 109Q6077.0 78 6095.0 58.0Q6113.0 38 6152.0 29Q6164.0 27 6172.5 22.5Q6181.0 18 6181.0 10Q6181.0 3 6173.0 0.0Q6165.0 -3 6155.0 -3Q6128.0 -3 6112.0 -2.0Q6096.0 -1 6083.0 0.0Q6070.0 1 6050.0 1Q6029.0 1 6012.5 0.0Q5996.0 -1 5983.0 -2.5Q5970.0 -4 5958.0 -4Q5948.0 -4 5940.0 -0.5Q5932.0 3 5932.0 9Q5932.0 17 5939.5 21.5Q5947.0 26 5960.0 30Q5986.0 38 5998.5 59.5Q6011.0 81 6014.0 111Q6018.0 149 6022.0 210.5Q6026.0 272 6029.5 349.0Q6033.0 426 6033.0 508Q6033.0 560 6006.5 583.0Q5980.0 606 5940.0 620Q5933.0 622 5922.0 628.0Q5911.0 634 5911.0 643Q5911.0 652 5919.0 655.0Q5927.0 658 5936.0 658Q5957.0 658 5978.0 657.0Q5999.0 656 6020.5 655.5Q6042.0 655 6065.5 654.0Q6089.0 653 6116.0 653Q6125.0 653 6129.5 649.5Q6134.0 646 6138.0 640Q6154.0 621 6179.0 592.5Q6204.0 564 6233.5 529.5Q6263.0 495 6295.5 457.0Q6328.0 419 6360.5 381.0Q6393.0 343 6423.0 308.5Q6453.0 274 6477.5 245.5Q6502.0 217 6518.0 199Q6522.0 195 6527.5 189.0Q6533.0 183 6537.0 183Q6545.0 183 6546.0 200Q6546.0 226 6546.0 266.5Q6546.0 307 6546.5 356.5Q6547.0 406 6546.5 458.0Q6546.0 510 6545.0 558Q6544.0 583 6524.5 597.5Q6505.0 612 6476.0 618Q6464.0 621 6453.5 625.5Q6443.0 630 6443.0 639Q6443.0 646 6453.5 649.0Q6464.0 652 6473.0 652Q6493.0 652 6506.5 652.0Q6520.0 652 6532.0 651.5Q6544.0 651 6557.0 651Q6579.0 651 6593.0 651.5Q6607.0 652 6623.5 653.0Q6640.0 654 6667.0 654Q6679.0 654 6686.5 650.5Q6694.0 647 6694.0 641Q6694.0 626 6665.0 620Q6630.0 613 6615.5 601.0Q6601.0 589 6600.0 561Q6600.0 536 6599.5 497.0Q6599.0 458 6598.0 412.0Q6597.0 366 6595.5 318.0Q6594.0 270 6593.5 224.0Q6593.0 178 6593.0 141Q6593.0 117 6595.0 92.0Q6597.0 67 6599.5 47.5Q6602.0 28 6602.0 20Q6602.0 -2 6595.0 -10.0Q6588.0 -18 6576.0 -18ZM6913.0 -4Q6903.0 -4 6895.5 -0.5Q6888.0 3 6888.0 9Q6888.0 17 6895.0 22.0Q6902.0 27 6915.0 29Q6953.0 37 6971.0 51.5Q6989.0 66 6989.0 99V504Q6989.0 545 6987.0 566.0Q6985.0 587 6981.5 594.5Q6978.0 602 6971.0 603Q6961.0 607 6946.0 608.0Q6931.0 609 6917.0 609H6886.0Q6857.0 609 6830.0 595.5Q6803.0 582 6788.0 559Q6784.0 553 6775.5 542.0Q6767.0 531 6757.5 522.0Q6748.0 513 6738.0 513Q6731.0 513 6728.5 518.0Q6726.0 523 6726.0 529Q6726.0 541 6732.0 553Q6749.0 587 6757.5 612.5Q6766.0 638 6769.0 673Q6771.0 688 6777.5 692.5Q6784.0 697 6791.0 697Q6797.0 697 6805.5 684.5Q6814.0 672 6821.0 664Q6830.0 655 6853.0 650.5Q6876.0 646 6892.0 646L7261.0 647Q7289.0 647 7308.0 651.5Q7327.0 656 7338.0 661Q7353.0 670 7362.0 679.5Q7371.0 689 7383.0 689Q7388.0 689 7390.5 683.5Q7393.0 678 7393.0 670Q7393.0 665 7392.0 658.5Q7391.0 652 7390.0 647Q7386.0 628 7382.0 613.5Q7378.0 599 7375.5 586.5Q7373.0 574 7373.0 558V541Q7373.0 527 7369.0 517.0Q7365.0 507 7356.0 507Q7348.0 507 7342.5 516.5Q7337.0 526 7331.0 546Q7322.0 578 7301.0 593.5Q7280.0 609 7235.0 609H7167.0Q7148.0 609 7137.5 602.0Q7127.0 595 7122.5 571.5Q7118.0 548 7118.0 499V100Q7118.0 68 7136.0 53.5Q7154.0 39 7193.0 29Q7205.0 26 7212.0 22.0Q7219.0 18 7219.0 10Q7219.0 3 7212.5 0.0Q7206.0 -3 7196.0 -3Q7172.0 -3 7148.0 -2.0Q7124.0 -1 7100.5 0.0Q7077.0 1 7055.0 1Q7033.0 1 7009.5 0.0Q6986.0 -1 6961.5 -2.5Q6937.0 -4 6913.0 -4Z" transform="matrix(0.020520 0 0 -0.020520 74.19 390.83)" fill="#15130f"/></svg>