<svg xmlns="http://www.w3.org/2000/svg" viewBox="0 0 300 446"><rect width="300" height="446" fill="#f4ecd8"/><rect x="20.0" y="25.5" width="260" height="395" rx="20.3" fill="#f4ecd8" stroke="#15130f" stroke-width="1.5"/><rect x="36.9" y="42.4" width="226.2" height="354.7" fill="none" stroke="#15130f" stroke-width="0.7"/><path d="M36.9,370.6 H263.1 V397.1 H36.9 Z" fill="#e7bfd0"/><g fill="none" stroke="#15130f" stroke-width="0.8"><line x1="36.9" y1="370.6" x2="263.1" y2="370.6"/><line x1="61.6" y1="370.6" x2="61.6" y2="397.1"/><line x1="238.4" y1="370.6" x2="238.4" y2="397.1"/></g><rect x="141.4" y="34.4" width="17.2" height="19.0" fill="#e7bfd0" stroke="#15130f" stroke-width="0.8"/><path d="M511.0 1307Q708.0 1307 834.5 1159.0Q961.0 1011 961.0 779Q961.0 491 764.5 263.5Q568.0 36 272.0 -19L193.0 -34Q180.0 -36 170.0 -36Q144.0 -36 145.0 -7Q146.0 8 153.5 12.0Q161.0 16 206.0 26Q348.0 58 482.0 175.0Q616.0 292 661.0 422L680.0 478Q690.0 507 690.0 524Q690.0 554 668.0 553Q658.0 552 642.0 541Q589.0 503 512.5 475.5Q436.0 448 384.0 448Q245.0 448 150.5 558.5Q56.0 669 56.0 830Q56.0 1039 184.0 1173.0Q312.0 1307 511.0 1307ZM455.0 1245Q364.0 1245 307.5 1166.5Q251.0 1088 251.0 963Q251.0 787 326.5 675.5Q402.0 564 522.0 564Q619.0 564 684.5 640.5Q750.0 717 750.0 830Q750.0 997 661.5 1121.0Q573.0 1245 455.0 1245Z" transform="matrix(0.006858 0 0 -0.006858 146.51 49.04)" fill="#15130f"/><path d="M250.0 950Q250.0 859 278.0 774.5Q306.0 690 358.5 645.0Q411.0 600 467.0 600Q524.0 600 576.5 645.0Q629.0 690 657.0 774.5Q685.0 859 685.0 950Q685.0 1051 657.0 1135.5Q629.0 1220 576.5 1265.0Q524.0 1310 467.0 1310Q411.0 1310 358.5 1265.0Q306.0 1220 278.0 1135.5Q250.0 1051 250.0 950ZM368.0 513Q312.0 527 259.0 558Q158.0 616 104.0 724.5Q50.0 833 50.0 950Q50.0 1077 104.0 1185.5Q158.0 1294 258.5 1352.0Q359.0 1410 467.0 1410Q576.0 1410 676.5 1352.0Q777.0 1294 831.0 1185.5Q885.0 1077 885.0 950Q885.0 833 831.0 724.5Q777.0 616 677.0 558Q623.0 527 568.0 513V350H785.0V250H568.0V170Q568.0 120 593.0 80.0Q618.0 40 688.0 40H738.0V0H198.0V40H248.0Q318.0 40 343.0 80.0Q368.0 120 368.0 170V250H150.0V350H368.0Z" transform="matrix(0.009268 0 0 -0.009268 44.92 390.40)" fill="#15130f"/><path d="M525.0 394 121.0 -10 50.0 61 454.0 465 136.0 783 277.0 924 595.0 606 1152.0 1163Q975.0 1163 728.0 1234L763.0 1269Q1188.0 1269 1470.0 1410Q1329.0 1128 1329.0 703L1294.0 668Q1223.0 915 1223.0 1092L666.0 535L984.0 217L843.0 76Z" transform="matrix(0.007599 0 0 -0.007599 244.97 389.19)" fill="#15130f"/><path d="M45.0 -4Q36.0 -4 29.0 -0.5Q22.0 3 22.0 9Q22.0 24 47.0 29Q85.0 37 99.5 51.0Q114.0 65 114.0 98V538Q114.0 576 101.5 594.0Q89.0 612 53.0 620Q39.0 623 33.0 628.5Q27.0 634 27.0 640Q27.0 647 33.5 650.5Q40.0 654 51.0 654Q79.0 654 105.0 653.0Q131.0 652 156.0 651.0Q181.0 650 207.0 650Q243.0 650 285.5 650.0Q328.0 650 366.0 650Q404.0 650 434.5 655.5Q465.0 661 486.0 661Q492.0 661 499.5 657.5Q507.0 654 508.0 645Q510.0 626 511.0 602.0Q512.0 578 512.5 556.0Q513.0 534 513.0 521Q513.0 501 502.0 501Q497.0 501 491.5 505.0Q486.0 509 484.0 516Q478.0 538 470.5 555.5Q463.0 573 452.0 583Q439.0 598 421.5 604.0Q404.0 610 381.0 610H290.0Q266.0 610 254.5 596.5Q243.0 583 243.0 562Q243.0 544 243.0 519.0Q243.0 494 243.0 472Q243.0 449 243.0 423.0Q243.0 397 243.0 376Q243.0 366 247.5 359.5Q252.0 353 262.0 353Q289.0 353 316.5 354.0Q344.0 355 365.0 355Q389.0 355 402.5 369.0Q416.0 383 424.0 403Q428.0 410 433.5 415.0Q439.0 420 444.0 420Q449.0 420 453.5 415.0Q458.0 410 457.0 400Q455.0 381 453.5 364.5Q452.0 348 452.0 334Q452.0 316 453.0 302.0Q454.0 288 456.0 265Q457.0 254 454.5 248.0Q452.0 242 446.0 242Q438.0 242 431.5 250.0Q425.0 258 423.0 266Q415.0 293 402.5 303.0Q390.0 313 374.0 313Q362.0 313 349.5 313.5Q337.0 314 326.0 314Q311.0 314 295.5 314.0Q280.0 314 265.0 313Q254.0 312 248.0 306.5Q242.0 301 242.0 289Q242.0 243 242.5 195.0Q243.0 147 244.0 99Q245.0 68 261.0 53.0Q277.0 38 317.0 29Q330.0 27 336.0 22.5Q342.0 18 342.0 10Q342.0 3 336.5 0.0Q331.0 -3 320.0 -3Q297.0 -3 272.5 -1.5Q248.0 0 225.5 1.0Q203.0 2 184.0 2Q162.0 2 139.0 1.0Q116.0 0 92.5 -2.0Q69.0 -4 45.0 -4ZM581.0 -5Q570.0 -5 564.0 -0.5Q558.0 4 558.0 9Q558.0 17 565.0 21.5Q572.0 26 579.0 28Q615.0 37 632.0 50.5Q649.0 64 649.0 95V555Q649.0 578 643.5 590.0Q638.0 602 624.5 608.5Q611.0 615 585.0 620Q559.0 625 559.0 641Q559.0 647 566.0 650.5Q573.0 654 582.0 654Q607.0 654 629.5 653.0Q652.0 652 673.0 651.0Q694.0 650 715.0 650Q738.0 650 761.5 651.0Q785.0 652 809.5 653.0Q834.0 654 857.0 654Q867.0 654 873.0 650.5Q879.0 647 879.0 640Q879.0 632 872.5 627.5Q866.0 623 854.0 620Q815.0 610 796.5 598.5Q778.0 587 778.0 558V101Q778.0 72 791.0 58.5Q804.0 45 840.0 45H949.0Q972.0 45 991.0 53.0Q1010.0 61 1022.0 73Q1040.0 89 1052.0 107.0Q1064.0 125 1075.0 149Q1082.0 164 1088.0 172.0Q1094.0 180 1100.0 180Q1107.0 180 1110.0 173.5Q1113.0 167 1113.0 160Q1113.0 159 1112.0 154.0Q1111.0 149 1111.0 146Q1103.0 117 1097.5 96.0Q1092.0 75 1088.5 55.5Q1085.0 36 1082.0 13Q1081.0 6 1078.0 0.5Q1075.0 -5 1066.0 -5Q1036.0 -5 994.0 -4.0Q952.0 -3 905.0 -2.5Q858.0 -2 810.5 -1.0Q763.0 0 721.0 0Q699.0 0 670.5 -1.0Q642.0 -2 617.0 -3.5Q592.0 -5 581.0 -5ZM1160.0 -4Q1151.0 -4 1144.0 -0.5Q1137.0 3 1137.0 9Q1137.0 24 1162.0 29Q1200.0 37 1217.0 51.0Q1234.0 65 1234.0 97V551Q1234.0 584 1220.0 598.0Q1206.0 612 1167.0 620Q1142.0 625 1142.0 641Q1142.0 647 1149.0 650.5Q1156.0 654 1165.0 654Q1189.0 654 1212.0 653.0Q1235.0 652 1256.5 651.0Q1278.0 650 1300.0 650Q1321.0 650 1342.5 651.0Q1364.0 652 1387.0 653.0Q1410.0 654 1434.0 654Q1444.0 654 1450.0 650.5Q1456.0 647 1456.0 640Q1456.0 632 1449.5 627.5Q1443.0 623 1431.0 620Q1391.0 610 1377.0 596.0Q1363.0 582 1363.0 550V98Q1363.0 67 1379.5 53.0Q1396.0 39 1434.0 29Q1447.0 26 1453.5 22.0Q1460.0 18 1460.0 10Q1460.0 3 1454.0 0.0Q1448.0 -3 1438.0 -3Q1414.0 -3 1390.0 -2.0Q1366.0 -1 1343.5 0.0Q1321.0 1 1300.0 1Q1278.0 1 1255.0 0.0Q1232.0 -1 1208.0 -2.5Q1184.0 -4 1160.0 -4ZM2118.0 -21Q2075.0 -21 2043.0 -11.5Q2011.0 -2 1988.0 16.0Q1965.0 34 1946.0 58Q1924.0 88 1903.0 116.5Q1882.0 145 1860.5 179.5Q1839.0 214 1813.0 262Q1800.0 285 1780.0 296Q1767.0 303 1753.5 306.0Q1740.0 309 1731.0 309Q1725.0 310 1722.0 304.0Q1719.0 298 1719.0 289V103Q1719.0 72 1735.5 55.0Q1752.0 38 1792.0 29Q1805.0 27 1811.0 22.5Q1817.0 18 1817.0 10Q1817.0 3 1811.5 0.0Q1806.0 -3 1795.0 -3Q1772.0 -3 1748.0 -1.5Q1724.0 0 1701.5 1.0Q1679.0 2 1659.0 2Q1637.0 2 1613.5 1.0Q1590.0 0 1566.0 -2.0Q1542.0 -4 1518.0 -4Q1509.0 -4 1502.0 -0.5Q1495.0 3 1495.0 9Q1495.0 24 1520.0 29Q1558.0 37 1574.0 51.0Q1590.0 65 1590.0 98V540Q1590.0 569 1585.5 584.5Q1581.0 600 1568.0 608.0Q1555.0 616 1529.0 620Q1515.0 622 1509.0 628.0Q1503.0 634 1503.0 640Q1503.0 647 1509.5 650.5Q1516.0 654 1527.0 654Q1557.0 654 1575.0 653.0Q1593.0 652 1609.5 650.5Q1626.0 649 1649.0 649Q1671.0 649 1688.0 651.0Q1705.0 653 1726.0 655.0Q1747.0 657 1780.0 657Q1895.0 657 1956.0 617.0Q2017.0 577 2017.0 495Q2017.0 450 1998.0 418.5Q1979.0 387 1950.5 367.0Q1922.0 347 1892.0 336Q1888.0 335 1888.5 331.0Q1889.0 327 1892.0 324Q1922.0 278 1950.5 236.5Q1979.0 195 2010.5 158.0Q2042.0 121 2079.0 87Q2110.0 58 2142.5 52.5Q2175.0 47 2210.0 47Q2225.0 47 2225.0 32Q2225.0 12 2210.0 0.5Q2195.0 -11 2170.5 -16.0Q2146.0 -21 2118.0 -21ZM1762.0 338Q1803.0 338 1830.5 356.5Q1858.0 375 1872.5 406.0Q1887.0 437 1887.0 475Q1887.0 520 1876.0 551.5Q1865.0 583 1838.5 600.5Q1812.0 618 1766.0 618Q1740.0 618 1730.5 599.5Q1721.0 581 1720.0 525Q1719.0 502 1719.0 464.5Q1719.0 427 1719.0 375Q1719.0 353 1730.5 345.5Q1742.0 338 1762.0 338ZM2429.0 -4Q2419.0 -4 2411.5 -0.5Q2404.0 3 2404.0 9Q2404.0 17 2411.0 22.0Q2418.0 27 2431.0 29Q2469.0 37 2487.0 51.5Q2505.0 66 2505.0 99V504Q2505.0 545 2503.0 566.0Q2501.0 587 2497.5 594.5Q2494.0 602 2487.0 603Q2477.0 607 2462.0 608.0Q2447.0 609 2433.0 609H2402.0Q2373.0 609 2346.0 595.5Q2319.0 582 2304.0 559Q2300.0 553 2291.5 542.0Q2283.0 531 2273.5 522.0Q2264.0 513 2254.0 513Q2247.0 513 2244.5 518.0Q2242.0 523 2242.0 529Q2242.0 541 2248.0 553Q2265.0 587 2273.5 612.5Q2282.0 638 2285.0 673Q2287.0 688 2293.5 692.5Q2300.0 697 2307.0 697Q2313.0 697 2321.5 684.5Q2330.0 672 2337.0 664Q2346.0 655 2369.0 650.5Q2392.0 646 2408.0 646L2777.0 647Q2805.0 647 2824.0 651.5Q2843.0 656 2854.0 661Q2869.0 670 2878.0 679.5Q2887.0 689 2899.0 689Q2904.0 689 2906.5 683.5Q2909.0 678 2909.0 670Q2909.0 665 2908.0 658.5Q2907.0 652 2906.0 647Q2902.0 628 2898.0 613.5Q2894.0 599 2891.5 586.5Q2889.0 574 2889.0 558V541Q2889.0 527 2885.0 517.0Q2881.0 507 2872.0 507Q2864.0 507 2858.5 516.5Q2853.0 526 2847.0 546Q2838.0 578 2817.0 593.5Q2796.0 609 2751.0 609H2683.0Q2664.0 609 2653.5 602.0Q2643.0 595 2638.5 571.5Q2634.0 548 2634.0 499V100Q2634.0 68 2652.0 53.5Q2670.0 39 2709.0 29Q2721.0 26 2728.0 22.0Q2735.0 18 2735.0 10Q2735.0 3 2728.5 0.0Q2722.0 -3 2712.0 -3Q2688.0 -3 2664.0 -2.0Q2640.0 -1 2616.5 0.0Q2593.0 1 2571.0 1Q2549.0 1 2525.5 0.0Q2502.0 -1 2477.5 -2.5Q2453.0 -4 2429.0 -4ZM2931.0 -5Q2919.0 -5 2911.0 -1.5Q2903.0 2 2903.0 10Q2903.0 19 2910.5 24.0Q2918.0 29 2930.0 33Q2959.0 41 2980.5 57.5Q3002.0 74 3015.0 103Q3040.0 162 3063.0 216.5Q3086.0 271 3107.0 325.0Q3128.0 379 3149.5 435.0Q3171.0 491 3193.0 553Q3204.0 584 3208.0 601.0Q3212.0 618 3215.0 626Q3230.0 630 3243.0 634.0Q3256.0 638 3272.0 644Q3286.0 651 3296.0 662.0Q3306.0 673 3311.0 679Q3314.0 681 3317.0 681.5Q3320.0 682 3323.0 677Q3326.0 671 3328.0 665.0Q3330.0 659 3332.0 652Q3354.0 581 3377.5 508.5Q3401.0 436 3424.0 365.5Q3447.0 295 3468.5 230.5Q3490.0 166 3508.0 112Q3517.0 85 3530.5 69.0Q3544.0 53 3560.5 44.5Q3577.0 36 3597.0 31Q3610.0 28 3617.0 23.0Q3624.0 18 3624.0 9Q3624.0 3 3617.5 0.0Q3611.0 -3 3601.0 -3Q3583.0 -3 3555.5 -2.0Q3528.0 -1 3499.0 0.5Q3470.0 2 3447.0 2Q3427.0 2 3402.5 1.0Q3378.0 0 3353.5 -1.0Q3329.0 -2 3312.0 -2Q3302.0 -2 3294.5 1.5Q3287.0 5 3287.0 12Q3287.0 20 3295.0 25.5Q3303.0 31 3314.0 33Q3350.0 39 3366.0 51.5Q3382.0 64 3378.0 88Q3375.0 105 3369.0 128.5Q3363.0 152 3356.5 177.5Q3350.0 203 3343.0 224Q3341.0 232 3337.0 235.5Q3333.0 239 3322.0 239H3142.0Q3135.0 239 3131.0 234.5Q3127.0 230 3125.0 221Q3121.0 208 3115.5 191.5Q3110.0 175 3104.5 157.5Q3099.0 140 3094.5 125.0Q3090.0 110 3088.0 99Q3083.0 72 3097.5 56.5Q3112.0 41 3148.0 32Q3175.0 25 3175.0 11Q3175.0 5 3168.5 1.5Q3162.0 -2 3150.0 -2Q3127.0 -2 3102.0 -0.5Q3077.0 1 3047.0 1Q3017.0 1 2988.5 -2.0Q2960.0 -5 2931.0 -5ZM3169.0 285H3308.0Q3322.0 285 3322.0 291Q3322.0 294 3321.5 296.0Q3321.0 298 3320.0 302L3250.0 533Q3246.0 547 3243.0 547Q3241.0 547 3236.0 534L3152.0 302Q3150.0 297 3150.0 294Q3150.0 289 3155.5 287.0Q3161.0 285 3169.0 285ZM3827.0 -4Q3817.0 -4 3809.5 -0.5Q3802.0 3 3802.0 9Q3802.0 17 3809.0 22.0Q3816.0 27 3829.0 29Q3867.0 37 3885.0 51.5Q3903.0 66 3903.0 99V504Q3903.0 545 3901.0 566.0Q3899.0 587 3895.5 594.5Q3892.0 602 3885.0 603Q3875.0 607 3860.0 608.0Q3845.0 609 3831.0 609H3800.0Q3771.0 609 3744.0 595.5Q3717.0 582 3702.0 559Q3698.0 553 3689.5 542.0Q3681.0 531 3671.5 522.0Q3662.0 513 3652.0 513Q3645.0 513 3642.5 518.0Q3640.0 523 3640.0 529Q3640.0 541 3646.0 553Q3663.0 587 3671.5 612.5Q3680.0 638 3683.0 673Q3685.0 688 3691.5 692.5Q3698.0 697 3705.0 697Q3711.0 697 3719.5 684.5Q3728.0 672 3735.0 664Q3744.0 655 3767.0 650.5Q3790.0 646 3806.0 646L4175.0 647Q4203.0 647 4222.0 651.5Q4241.0 656 4252.0 661Q4267.0 670 4276.0 679.5Q4285.0 689 4297.0 689Q4302.0 689 4304.5 683.5Q4307.0 678 4307.0 670Q4307.0 665 4306.0 658.5Q4305.0 652 4304.0 647Q4300.0 628 4296.0 613.5Q4292.0 599 4289.5 586.5Q4287.0 574 4287.0 558V541Q4287.0 527 4283.0 517.0Q4279.0 507 4270.0 507Q4262.0 507 4256.5 516.5Q4251.0 526 4245.0 546Q4236.0 578 4215.0 593.5Q4194.0 609 4149.0 609H4081.0Q4062.0 609 4051.5 602.0Q4041.0 595 4036.5 571.5Q4032.0 548 4032.0 499V100Q4032.0 68 4050.0 53.5Q4068.0 39 4107.0 29Q4119.0 26 4126.0 22.0Q4133.0 18 4133.0 10Q4133.0 3 4126.5 0.0Q4120.0 -3 4110.0 -3Q4086.0 -3 4062.0 -2.0Q4038.0 -1 4014.5 0.0Q3991.0 1 3969.0 1Q3947.0 1 3923.5 0.0Q3900.0 -1 3875.5 -2.5Q3851.0 -4 3827.0 -4ZM4345.0 -4Q4336.0 -4 4329.0 -0.5Q4322.0 3 4322.0 9Q4322.0 24 4347.0 29Q4385.0 37 4402.0 51.0Q4419.0 65 4419.0 97V551Q4419.0 584 4405.0 598.0Q4391.0 612 4352.0 620Q4327.0 625 4327.0 641Q4327.0 647 4334.0 650.5Q4341.0 654 4350.0 654Q4374.0 654 4397.0 653.0Q4420.0 652 4441.5 651.0Q4463.0 650 4485.0 650Q4506.0 650 4527.5 651.0Q4549.0 652 4572.0 653.0Q4595.0 654 4619.0 654Q4629.0 654 4635.0 650.5Q4641.0 647 4641.0 640Q4641.0 632 4634.5 627.5Q4628.0 623 4616.0 620Q4576.0 610 4562.0 596.0Q4548.0 582 4548.0 550V98Q4548.0 67 4564.5 53.0Q4581.0 39 4619.0 29Q4632.0 26 4638.5 22.0Q4645.0 18 4645.0 10Q4645.0 3 4639.0 0.0Q4633.0 -3 4623.0 -3Q4599.0 -3 4575.0 -2.0Q4551.0 -1 4528.5 0.0Q4506.0 1 4485.0 1Q4463.0 1 4440.0 0.0Q4417.0 -1 4393.0 -2.5Q4369.0 -4 4345.0 -4ZM5037.0 -14Q4969.0 -14 4907.0 9.5Q4845.0 33 4797.5 76.5Q4750.0 120 4722.5 180.5Q4695.0 241 4695.0 315Q4695.0 383 4717.5 445.5Q4740.0 508 4784.5 557.0Q4829.0 606 4894.5 635.0Q4960.0 664 5046.0 664Q5114.0 664 5175.5 640.5Q5237.0 617 5285.0 573.5Q5333.0 530 5360.5 469.5Q5388.0 409 5388.0 335Q5388.0 268 5365.5 205.0Q5343.0 142 5298.5 93.0Q5254.0 44 5188.5 15.0Q5123.0 -14 5037.0 -14ZM5054.0 30Q5117.0 30 5159.5 62.0Q5202.0 94 5223.5 151.5Q5245.0 209 5245.0 284Q5245.0 348 5232.0 408.0Q5219.0 468 5192.0 515.5Q5165.0 563 5124.5 591.0Q5084.0 619 5028.0 619Q4965.0 619 4922.5 587.0Q4880.0 555 4859.0 498.0Q4838.0 441 4838.0 366Q4838.0 302 4851.0 242.0Q4864.0 182 4890.5 134.0Q4917.0 86 4957.5 58.0Q4998.0 30 5054.0 30ZM6098.0 -18Q6086.0 -18 6058.0 -3.0Q6030.0 12 6001.0 49Q5984.0 68 5959.5 95.5Q5935.0 123 5905.5 156.0Q5876.0 189 5844.0 225.0Q5812.0 261 5780.5 297.0Q5749.0 333 5719.0 366.0Q5689.0 399 5664.0 426.5Q5639.0 454 5622.0 474Q5618.0 479 5613.5 482.5Q5609.0 486 5606.0 486Q5602.0 486 5600.0 479.0Q5598.0 472 5598.0 466Q5598.0 420 5598.5 357.0Q5599.0 294 5599.0 229.0Q5599.0 164 5599.0 109Q5599.0 78 5617.0 58.0Q5635.0 38 5674.0 29Q5686.0 27 5694.5 22.5Q5703.0 18 5703.0 10Q5703.0 3 5695.0 0.0Q5687.0 -3 5677.0 -3Q5650.0 -3 5634.0 -2.0Q5618.0 -1 5605.0 0.0Q5592.0 1 5572.0 1Q5551.0 1 5534.5 0.0Q5518.0 -1 5505.0 -2.5Q5492.0 -4 5480.0 -4Q5470.0 -4 5462.0 -0.5Q5454.0 3 5454.0 9Q5454.0 17 5461.5 21.5Q5469.0 26 5482.0 30Q5508.0 38 5520.5 59.5Q5533.0 81 5536.0 111Q5540.0 149 5544.0 210.5Q5548.0 272 5551.5 349.0Q5555.0 426 5555.0 508Q5555.0 560 5528.5 583.0Q5502.0 606 5462.0 620Q5455.0 622 5444.0 628.0Q5433.0 634 5433.0 643Q5433.0 652 5441.0 655.0Q5449.0 658 5458.0 658Q5479.0 658 5500.0 657.0Q5521.0 656 5542.5 655.5Q5564.0 655 5587.5 654.0Q5611.0 653 5638.0 653Q5647.0 653 5651.5 649.5Q5656.0 646 5660.0 640Q5676.0 621 5701.0 592.5Q5726.0 564 5755.5 529.5Q5785.0 495 5817.5 457.0Q5850.0 419 5882.5 381.0Q5915.0 343 5945.0 308.5Q5975.0 274 5999.5 245.5Q6024.0 217 6040.0 199Q6044.0 195 6049.5 189.0Q6055.0 183 6059.0 183Q6067.0 183 6068.0 200Q6068.0 226 6068.0 266.5Q6068.0 307 6068.5 356.5Q6069.0 406 6068.5 458.0Q6068.0 510 6067.0 558Q6066.0 583 6046.5 597.5Q6027.0 612 5998.0 618Q5986.0 621 5975.5 625.5Q5965.0 630 5965.0 639Q5965.0 646 5975.5 649.0Q5986.0 652 5995.0 652Q6015.0 652 6028.5 652.0Q6042.0 652 6054.0 651.5Q6066.0 651 6079.0 651Q6101.0 651 6115.0 651.5Q6129.0 652 6145.5 653.0Q6162.0 654 6189.0 654Q6201.0 654 6208.5 650.5Q6216.0 647 6216.0 641Q6216.0 626 6187.0 620Q6152.0 613 6137.5 601.0Q6123.0 589 6122.0 561Q6122.0 536 6121.5 497.0Q6121.0 458 6120.0 412.0Q6119.0 366 6117.5 318.0Q6116.0 270 6115.5 224.0Q6115.0 178 6115.0 141Q6115.0 117 6117.0 92.0Q6119.0 67 6121.5 47.5Q6124.0 28 6124.0 20Q6124.0 -2 6117.0 -10.0Q6110.0 -18 6098.0 -18Z" transform="matrix(0.022120 0 0 -0.022120 81.01 391.34)" fill="#15130f"/></svg>