<svg xmlns="http://www.w3.org/2000/svg" viewBox="0 0 300 446"><rect width="300" height="446" fill="#f4ecd8"/><rect x="20.0" y="25.5" width="260" height="395" rx="20.3" fill="#f4ecd8" stroke="#15130f" stroke-width="1.5"/><rect x="36.9" y="42.4" width="226.2" height="354.7" fill="none" stroke="#15130f" stroke-width="0.7"/><path d="M36.9,370.6 H263.1 V397.1 H36.9 Z" fill="#e7bfd0"/><g fill="none" stroke="#15130f" stroke-width="0.8"><line x1="36.9" y1="370.6" x2="263.1" y2="370.6"/><line x1="61.6" y1="370.6" x2="61.6" y2="397.1"/><line x1="238.4" y1="370.6" x2="238.4" y2="397.1"/></g><rect x="141.4" y="34.4" width="17.2" height="19.0" fill="#e7bfd0" stroke="#15130f" stroke-width="0.8"/><path d="M649.0 1092V235L647.0 193L657.0 137Q686.0 59 825.0 52Q867.0 50 867.0 28Q867.0 -7 780.0 -7Q761.0 -7 652.0 2Q595.0 7 494.0 7Q394.0 7 322.0 -2Q293.0 -5 280.0 -5Q255.0 -5 255.0 20Q255.0 41 281.0 45Q384.0 61 415.0 92.0Q446.0 123 446.0 210L445.0 248V1010Q445.0 1115 363.0 1115Q331.0 1115 306.0 1104L281.0 1093Q270.0 1089 261.0 1089Q235.0 1089 235.0 1113Q235.0 1137 260.0 1150.0Q285.0 1163 362.0 1180Q506.0 1211 567.0 1267L614.0 1310Q625.0 1320 641.0 1320Q661.0 1320 661.0 1282Q661.0 1271 659.0 1243L651.0 1153Q649.0 1126 649.0 1092ZM1673.0 1092V235L1671.0 193L1681.0 137Q1710.0 59 1849.0 52Q1891.0 50 1891.0 28Q1891.0 -7 1804.0 -7Q1785.0 -7 1676.0 2Q1619.0 7 1518.0 7Q1418.0 7 1346.0 -2Q1317.0 -5 1304.0 -5Q1279.0 -5 1279.0 20Q1279.0 41 1305.0 45Q1408.0 61 1439.0 92.0Q1470.0 123 1470.0 210L1469.0 248V1010Q1469.0 1115 1387.0 1115Q1355.0 1115 1330.0 1104L1305.0 1093Q1294.0 1089 1285.0 1089Q1259.0 1089 1259.0 1113Q1259.0 1137 1284.0 1150.0Q1309.0 1163 1386.0 1180Q1530.0 1211 1591.0 1267L1638.0 1310Q1649.0 1320 1665.0 1320Q1685.0 1320 1685.0 1282Q1685.0 1271 1683.0 1243L1675.0 1153Q1673.0 1126 1673.0 1092Z" transform="matrix(0.006024 0 0 -0.006024 143.60 48.63)" fill="#15130f"/><path d="M250.0 950Q250.0 859 278.0 774.5Q306.0 690 358.5 645.0Q411.0 600 467.0 600Q524.0 600 576.5 645.0Q629.0 690 657.0 774.5Q685.0 859 685.0 950Q685.0 1051 657.0 1135.5Q629.0 1220 576.5 1265.0Q524.0 1310 467.0 1310Q411.0 1310 358.5 1265.0Q306.0 1220 278.0 1135.5Q250.0 1051 250.0 950ZM368.0 513Q312.0 527 259.0 558Q158.0 616 104.0 724.5Q50.0 833 50.0 950Q50.0 1077 104.0 1185.5Q158.0 1294 258.5 1352.0Q359.0 1410 467.0 1410Q576.0 1410 676.5 1352.0Q777.0 1294 831.0 1185.5Q885.0 1077 885.0 950Q885.0 833 831.0 724.5Q777.0 616 677.0 558Q623.0 527 568.0 513V350H785.0V250H568.0V170Q568.0 120 593.0 80.0Q618.0 40 688.0 40H738.0V0H198.0V40H248.0Q318.0 40 343.0 80.0Q368.0 120 368.0 170V250H150.0V350H368.0Z" transform="matrix(0.009268 0 0 -0.009268 44.92 390.40)" fill="#15130f"/><path d="M56.0 700 567.0 1430 833.0 968 1150.0 1420 1416.0 959 1733.0 1410 2033.0 891 1910.0 704 1662.0 1134 1345.0 682 1078.0 1143 762.0 692 495.0 1153 179.0 700ZM50.0 0 567.0 738 833.0 276 1150.0 728 1416.0 267 1733.0 718 2033.0 199 1910.0 12 1662.0 442 1345.0 -10 1078.0 451 762.0 0 495.0 461 173.0 0Z" transform="matrix(0.009217 0 0 -0.009217 241.15 390.41)" fill="#15130f"/><path d="M379.0 -7Q352.0 -7 314.0 -5.0Q276.0 -3 237.5 -1.5Q199.0 0 174.0 0Q154.0 0 133.5 -0.5Q113.0 -1 91.0 -2.5Q69.0 -4 44.0 -4Q35.0 -4 28.0 -0.5Q21.0 3 21.0 10Q21.0 19 27.5 23.0Q34.0 27 47.0 29Q85.0 37 99.0 51.0Q113.0 65 113.0 98V550Q113.0 584 99.5 598.0Q86.0 612 47.0 620Q34.0 622 27.5 626.5Q21.0 631 21.0 640Q21.0 647 28.0 650.5Q35.0 654 44.0 654Q68.0 654 90.0 653.5Q112.0 653 133.5 651.5Q155.0 650 177.0 650Q192.0 650 217.5 651.5Q243.0 653 272.5 654.5Q302.0 656 328.0 657.5Q354.0 659 370.0 659Q454.0 659 521.0 635.0Q588.0 611 635.5 568.0Q683.0 525 708.0 466.0Q733.0 407 733.0 338Q733.0 269 708.0 207.0Q683.0 145 636.5 97.0Q590.0 49 524.5 21.0Q459.0 -7 379.0 -7ZM364.0 39Q436.0 39 486.5 73.5Q537.0 108 563.0 170.5Q589.0 233 589.0 315Q589.0 383 571.5 438.5Q554.0 494 522.5 532.5Q491.0 571 447.5 592.0Q404.0 613 353.0 613Q317.0 613 292.5 611.0Q268.0 609 255.5 599.5Q243.0 590 243.0 568V128Q243.0 93 258.5 73.5Q274.0 54 301.5 46.5Q329.0 39 364.0 39ZM811.0 -5Q800.0 -5 793.5 -1.0Q787.0 3 787.0 9Q787.0 22 813.0 28Q849.0 37 864.5 50.5Q880.0 64 880.0 97V550Q880.0 584 866.5 598.0Q853.0 612 816.0 620Q802.0 623 796.0 628.5Q790.0 634 790.0 640Q790.0 647 796.5 650.5Q803.0 654 814.0 654Q843.0 654 869.5 653.0Q896.0 652 921.0 651.0Q946.0 650 973.0 650Q1019.0 650 1070.5 651.0Q1122.0 652 1163.0 652Q1196.0 653 1217.5 655.0Q1239.0 657 1243.0 657Q1250.0 657 1257.5 654.0Q1265.0 651 1266.0 642Q1270.0 609 1276.0 577.0Q1282.0 545 1282.0 521Q1282.0 512 1277.5 507.5Q1273.0 503 1268.0 503Q1263.0 503 1259.0 506.5Q1255.0 510 1252.0 517Q1244.0 540 1237.0 557.0Q1230.0 574 1221.0 583Q1208.0 597 1191.0 605.0Q1174.0 613 1150.0 613H1057.0Q1039.0 613 1024.0 602.5Q1009.0 592 1009.0 573V377Q1009.0 366 1015.5 360.0Q1022.0 354 1031.0 354H1123.0Q1150.0 354 1161.5 369.0Q1173.0 384 1181.0 410Q1188.0 430 1200.0 430Q1205.0 430 1209.0 424.5Q1213.0 419 1213.0 410Q1212.0 400 1211.0 386.0Q1210.0 372 1209.5 358.0Q1209.0 344 1209.0 333Q1209.0 321 1209.5 306.0Q1210.0 291 1210.5 276.5Q1211.0 262 1212.0 252Q1213.0 241 1210.5 235.0Q1208.0 229 1202.0 229Q1186.0 229 1179.0 257Q1171.0 285 1160.0 299.0Q1149.0 313 1130.0 313H1036.0Q1023.0 313 1016.0 308.0Q1009.0 303 1009.0 289V99Q1009.0 66 1023.0 53.0Q1037.0 40 1066.0 40H1148.0Q1173.0 40 1193.5 45.0Q1214.0 50 1229.0 61Q1246.0 73 1259.5 93.5Q1273.0 114 1286.0 139Q1290.0 147 1294.0 149.5Q1298.0 152 1304.0 152Q1309.0 151 1311.5 146.0Q1314.0 141 1314.0 135Q1314.0 121 1309.0 99.0Q1304.0 77 1296.5 53.5Q1289.0 30 1283.0 10Q1280.0 3 1275.0 -0.5Q1270.0 -4 1263.0 -4Q1239.0 -4 1201.5 -3.5Q1164.0 -3 1120.0 -2.0Q1076.0 -1 1030.0 -0.5Q984.0 0 942.0 0Q921.0 0 899.5 -1.0Q878.0 -2 856.0 -3.5Q834.0 -5 811.0 -5ZM1542.0 -4Q1532.0 -4 1524.5 -0.5Q1517.0 3 1517.0 9Q1517.0 17 1524.0 22.0Q1531.0 27 1544.0 29Q1582.0 37 1600.0 51.5Q1618.0 66 1618.0 99V504Q1618.0 545 1616.0 566.0Q1614.0 587 1610.5 594.5Q1607.0 602 1600.0 603Q1590.0 607 1575.0 608.0Q1560.0 609 1546.0 609H1515.0Q1486.0 609 1459.0 595.5Q1432.0 582 1417.0 559Q1413.0 553 1404.5 542.0Q1396.0 531 1386.5 522.0Q1377.0 513 1367.0 513Q1360.0 513 1357.5 518.0Q1355.0 523 1355.0 529Q1355.0 541 1361.0 553Q1378.0 587 1386.5 612.5Q1395.0 638 1398.0 673Q1400.0 688 1406.5 692.5Q1413.0 697 1420.0 697Q1426.0 697 1434.5 684.5Q1443.0 672 1450.0 664Q1459.0 655 1482.0 650.5Q1505.0 646 1521.0 646L1890.0 647Q1918.0 647 1937.0 651.5Q1956.0 656 1967.0 661Q1982.0 670 1991.0 679.5Q2000.0 689 2012.0 689Q2017.0 689 2019.5 683.5Q2022.0 678 2022.0 670Q2022.0 665 2021.0 658.5Q2020.0 652 2019.0 647Q2015.0 628 2011.0 613.5Q2007.0 599 2004.5 586.5Q2002.0 574 2002.0 558V541Q2002.0 527 1998.0 517.0Q1994.0 507 1985.0 507Q1977.0 507 1971.5 516.5Q1966.0 526 1960.0 546Q1951.0 578 1930.0 593.5Q1909.0 609 1864.0 609H1796.0Q1777.0 609 1766.5 602.0Q1756.0 595 1751.5 571.5Q1747.0 548 1747.0 499V100Q1747.0 68 1765.0 53.5Q1783.0 39 1822.0 29Q1834.0 26 1841.0 22.0Q1848.0 18 1848.0 10Q1848.0 3 1841.5 0.0Q1835.0 -3 1825.0 -3Q1801.0 -3 1777.0 -2.0Q1753.0 -1 1729.5 0.0Q1706.0 1 1684.0 1Q1662.0 1 1638.5 0.0Q1615.0 -1 1590.5 -2.5Q1566.0 -4 1542.0 -4ZM2044.0 -5Q2032.0 -5 2024.0 -1.5Q2016.0 2 2016.0 10Q2016.0 19 2023.5 24.0Q2031.0 29 2043.0 33Q2072.0 41 2093.5 57.5Q2115.0 74 2128.0 103Q2153.0 162 2176.0 216.5Q2199.0 271 2220.0 325.0Q2241.0 379 2262.5 435.0Q2284.0 491 2306.0 553Q2317.0 584 2321.0 601.0Q2325.0 618 2328.0 626Q2343.0 630 2356.0 634.0Q2369.0 638 2385.0 644Q2399.0 651 2409.0 662.0Q2419.0 673 2424.0 679Q2427.0 681 2430.0 681.5Q2433.0 682 2436.0 677Q2439.0 671 2441.0 665.0Q2443.0 659 2445.0 652Q2467.0 581 2490.5 508.5Q2514.0 436 2537.0 365.5Q2560.0 295 2581.5 230.5Q2603.0 166 2621.0 112Q2630.0 85 2643.5 69.0Q2657.0 53 2673.5 44.5Q2690.0 36 2710.0 31Q2723.0 28 2730.0 23.0Q2737.0 18 2737.0 9Q2737.0 3 2730.5 0.0Q2724.0 -3 2714.0 -3Q2696.0 -3 2668.5 -2.0Q2641.0 -1 2612.0 0.5Q2583.0 2 2560.0 2Q2540.0 2 2515.5 1.0Q2491.0 0 2466.5 -1.0Q2442.0 -2 2425.0 -2Q2415.0 -2 2407.5 1.5Q2400.0 5 2400.0 12Q2400.0 20 2408.0 25.5Q2416.0 31 2427.0 33Q2463.0 39 2479.0 51.5Q2495.0 64 2491.0 88Q2488.0 105 2482.0 128.5Q2476.0 152 2469.5 177.5Q2463.0 203 2456.0 224Q2454.0 232 2450.0 235.5Q2446.0 239 2435.0 239H2255.0Q2248.0 239 2244.0 234.5Q2240.0 230 2238.0 221Q2234.0 208 2228.5 191.5Q2223.0 175 2217.5 157.5Q2212.0 140 2207.5 125.0Q2203.0 110 2201.0 99Q2196.0 72 2210.5 56.5Q2225.0 41 2261.0 32Q2288.0 25 2288.0 11Q2288.0 5 2281.5 1.5Q2275.0 -2 2263.0 -2Q2240.0 -2 2215.0 -0.5Q2190.0 1 2160.0 1Q2130.0 1 2101.5 -2.0Q2073.0 -5 2044.0 -5ZM2282.0 285H2421.0Q2435.0 285 2435.0 291Q2435.0 294 2434.5 296.0Q2434.0 298 2433.0 302L2363.0 533Q2359.0 547 2356.0 547Q2354.0 547 2349.0 534L2265.0 302Q2263.0 297 2263.0 294Q2263.0 289 2268.5 287.0Q2274.0 285 2282.0 285ZM3136.0 -14Q3061.0 -14 2994.0 9.5Q2927.0 33 2875.5 77.0Q2824.0 121 2794.5 182.5Q2765.0 244 2765.0 319Q2765.0 389 2794.0 451.0Q2823.0 513 2876.0 561.0Q2929.0 609 3002.5 636.5Q3076.0 664 3164.0 664Q3198.0 664 3228.5 659.5Q3259.0 655 3288.0 648.5Q3317.0 642 3345.0 632Q3356.0 628 3362.5 621.0Q3369.0 614 3370.0 602Q3374.0 572 3376.0 542.5Q3378.0 513 3378.0 484Q3379.0 474 3371.0 469.5Q3363.0 465 3354.0 468.5Q3345.0 472 3341.0 483Q3333.0 511 3322.5 535.5Q3312.0 560 3291.0 577Q3268.0 596 3233.0 607.5Q3198.0 619 3151.0 619Q3097.0 619 3053.0 597.0Q3009.0 575 2977.5 536.0Q2946.0 497 2929.0 448.0Q2912.0 399 2912.0 345Q2912.0 281 2927.5 224.0Q2943.0 167 2974.5 123.5Q3006.0 80 3051.0 55.5Q3096.0 31 3154.0 31Q3228.0 31 3274.0 63.0Q3320.0 95 3352.0 158Q3360.0 174 3374.0 173.5Q3388.0 173 3388.0 157Q3388.0 145 3385.0 127.0Q3382.0 109 3376.5 88.5Q3371.0 68 3364.0 48Q3360.0 36 3354.0 30.0Q3348.0 24 3336.0 19Q3298.0 3 3246.5 -5.5Q3195.0 -14 3136.0 -14ZM3488.0 -4Q3479.0 -4 3472.0 0.0Q3465.0 4 3465.0 10Q3465.0 24 3490.0 29Q3526.0 37 3538.0 51.0Q3550.0 65 3550.0 98V551Q3550.0 584 3540.0 598.0Q3530.0 612 3493.0 620Q3468.0 625 3468.0 640Q3468.0 647 3474.5 650.5Q3481.0 654 3491.0 654Q3515.0 654 3536.0 653.0Q3557.0 652 3577.0 651.0Q3597.0 650 3617.0 650Q3637.0 650 3658.5 651.0Q3680.0 652 3703.0 653.0Q3726.0 654 3749.0 654Q3771.0 654 3771.0 639Q3771.0 631 3765.0 627.0Q3759.0 623 3746.0 620Q3707.0 610 3693.5 595.0Q3680.0 580 3680.0 550V364Q3680.0 357 3684.5 354.5Q3689.0 352 3695.0 352H3994.0Q4005.0 352 4005.0 366V551Q4005.0 580 3992.0 595.0Q3979.0 610 3940.0 620Q3927.0 623 3920.5 627.0Q3914.0 631 3914.0 639Q3914.0 654 3936.0 654Q3960.0 654 3984.0 653.0Q4008.0 652 4030.5 651.0Q4053.0 650 4074.0 650Q4093.0 650 4111.0 651.0Q4129.0 652 4149.5 653.0Q4170.0 654 4194.0 654Q4203.0 654 4210.0 650.5Q4217.0 647 4217.0 640Q4217.0 625 4191.0 620Q4156.0 612 4145.5 597.0Q4135.0 582 4135.0 551V98Q4135.0 65 4146.0 51.0Q4157.0 37 4193.0 29Q4218.0 24 4218.0 10Q4218.0 4 4211.0 0.0Q4204.0 -4 4195.0 -4Q4172.0 -4 4151.0 -2.5Q4130.0 -1 4109.5 0.0Q4089.0 1 4069.0 1Q4049.0 1 4027.0 0.0Q4005.0 -1 3982.0 -2.0Q3959.0 -3 3935.0 -3Q3926.0 -3 3920.0 0.5Q3914.0 4 3914.0 11Q3914.0 19 3920.0 22.5Q3926.0 26 3938.0 29Q3974.0 38 3989.5 53.0Q4005.0 68 4005.0 98V288Q4005.0 294 4003.5 299.0Q4002.0 304 3995.0 304H3691.0Q3680.0 304 3680.0 289V102Q3680.0 72 3697.5 55.0Q3715.0 38 3751.0 29Q3764.0 26 3770.0 22.5Q3776.0 19 3776.0 11Q3776.0 4 3770.5 0.5Q3765.0 -3 3754.0 -3Q3731.0 -3 3707.0 -2.0Q3683.0 -1 3660.5 0.0Q3638.0 1 3617.0 1Q3596.0 1 3575.0 0.0Q3554.0 -1 3532.0 -2.5Q3510.0 -4 3488.0 -4ZM4289.0 -4Q4277.0 -4 4270.5 -0.5Q4264.0 3 4264.0 9Q4264.0 17 4272.5 20.5Q4281.0 24 4293.0 27Q4317.0 34 4334.0 54.0Q4351.0 74 4355.0 106Q4363.0 167 4370.5 239.0Q4378.0 311 4384.5 384.0Q4391.0 457 4395.0 521Q4395.0 528 4395.0 537.0Q4395.0 546 4395.0 555Q4394.0 570 4389.5 579.5Q4385.0 589 4374.0 597Q4360.0 607 4345.0 612.5Q4330.0 618 4311.0 622Q4300.0 624 4293.5 629.5Q4287.0 635 4287.0 643Q4287.0 651 4295.0 654.0Q4303.0 657 4316.0 657Q4329.0 657 4351.0 656.0Q4373.0 655 4398.5 653.5Q4424.0 652 4449.0 651.0Q4474.0 650 4493.0 650Q4501.0 650 4507.0 645.0Q4513.0 640 4515.0 633Q4521.0 614 4527.0 596.0Q4533.0 578 4540.0 558L4690.0 191Q4693.0 186 4698.0 185.5Q4703.0 185 4705.0 190L4866.0 548Q4873.0 577 4877.5 599.0Q4882.0 621 4886.0 634Q4889.0 647 4899.0 647H4940.0Q4978.0 649 5020.0 653.0Q5062.0 657 5085.0 657Q5093.0 657 5100.5 654.5Q5108.0 652 5108.0 644Q5108.0 636 5102.0 632.0Q5096.0 628 5084.0 623Q5076.0 621 5065.0 616.5Q5054.0 612 5046.0 608Q5025.0 599 5014.5 585.0Q5004.0 571 5005.0 545Q5006.0 474 5009.0 417.5Q5012.0 361 5014.5 311.5Q5017.0 262 5021.0 210.5Q5025.0 159 5028.0 97Q5030.0 69 5049.5 53.0Q5069.0 37 5102.0 29Q5114.0 26 5121.5 22.0Q5129.0 18 5129.0 10Q5129.0 3 5122.5 0.0Q5116.0 -3 5105.0 -3Q5082.0 -3 5057.0 -2.0Q5032.0 -1 5008.5 0.0Q4985.0 1 4964.0 1Q4944.0 1 4923.0 0.0Q4902.0 -1 4880.0 -2.5Q4858.0 -4 4834.0 -4Q4824.0 -4 4816.5 -0.5Q4809.0 3 4809.0 9Q4809.0 17 4816.5 22.0Q4824.0 27 4836.0 29Q4870.0 36 4883.5 50.0Q4897.0 64 4895.0 97Q4894.0 162 4892.0 222.0Q4890.0 282 4888.0 341.0Q4886.0 400 4883.0 460Q4882.0 468 4878.5 467.5Q4875.0 467 4871.0 459L4667.0 -1Q4663.0 -12 4654.0 -10.5Q4645.0 -9 4642.0 -1Q4596.0 115 4545.5 228.5Q4495.0 342 4446.0 459Q4443.0 467 4437.5 465.0Q4432.0 463 4431.0 454Q4426.0 398 4422.0 338.5Q4418.0 279 4417.0 220.0Q4416.0 161 4416.0 103Q4416.0 76 4433.5 57.0Q4451.0 38 4487.0 29Q4499.0 27 4507.5 22.5Q4516.0 18 4516.0 10Q4516.0 3 4508.0 0.0Q4500.0 -3 4490.0 -3Q4463.0 -3 4449.0 -2.0Q4435.0 -1 4423.0 0.0Q4411.0 1 4391.0 1Q4370.0 1 4351.5 0.0Q4333.0 -1 4317.0 -2.5Q4301.0 -4 4289.0 -4ZM5205.0 -5Q5194.0 -5 5187.5 -1.0Q5181.0 3 5181.0 9Q5181.0 22 5207.0 28Q5243.0 37 5258.5 50.5Q5274.0 64 5274.0 97V550Q5274.0 584 5260.5 598.0Q5247.0 612 5210.0 620Q5196.0 623 5190.0 628.5Q5184.0 634 5184.0 640Q5184.0 647 5190.5 650.5Q5197.0 654 5208.0 654Q5237.0 654 5263.5 653.0Q5290.0 652 5315.0 651.0Q5340.0 650 5367.0 650Q5413.0 650 5464.5 651.0Q5516.0 652 5557.0 652Q5590.0 653 5611.5 655.0Q5633.0 657 5637.0 657Q5644.0 657 5651.5 654.0Q5659.0 651 5660.0 642Q5664.0 609 5670.0 577.0Q5676.0 545 5676.0 521Q5676.0 512 5671.5 507.5Q5667.0 503 5662.0 503Q5657.0 503 5653.0 506.5Q5649.0 510 5646.0 517Q5638.0 540 5631.0 557.0Q5624.0 574 5615.0 583Q5602.0 597 5585.0 605.0Q5568.0 613 5544.0 613H5451.0Q5433.0 613 5418.0 602.5Q5403.0 592 5403.0 573V377Q5403.0 366 5409.5 360.0Q5416.0 354 5425.0 354H5517.0Q5544.0 354 5555.5 369.0Q5567.0 384 5575.0 410Q5582.0 430 5594.0 430Q5599.0 430 5603.0 424.5Q5607.0 419 5607.0 410Q5606.0 400 5605.0 386.0Q5604.0 372 5603.5 358.0Q5603.0 344 5603.0 333Q5603.0 321 5603.5 306.0Q5604.0 291 5604.5 276.5Q5605.0 262 5606.0 252Q5607.0 241 5604.5 235.0Q5602.0 229 5596.0 229Q5580.0 229 5573.0 257Q5565.0 285 5554.0 299.0Q5543.0 313 5524.0 313H5430.0Q5417.0 313 5410.0 308.0Q5403.0 303 5403.0 289V99Q5403.0 66 5417.0 53.0Q5431.0 40 5460.0 40H5542.0Q5567.0 40 5587.5 45.0Q5608.0 50 5623.0 61Q5640.0 73 5653.5 93.5Q5667.0 114 5680.0 139Q5684.0 147 5688.0 149.5Q5692.0 152 5698.0 152Q5703.0 151 5705.5 146.0Q5708.0 141 5708.0 135Q5708.0 121 5703.0 99.0Q5698.0 77 5690.5 53.5Q5683.0 30 5677.0 10Q5674.0 3 5669.0 -0.5Q5664.0 -4 5657.0 -4Q5633.0 -4 5595.5 -3.5Q5558.0 -3 5514.0 -2.0Q5470.0 -1 5424.0 -0.5Q5378.0 0 5336.0 0Q5315.0 0 5293.5 -1.0Q5272.0 -2 5250.0 -3.5Q5228.0 -5 5205.0 -5ZM6403.0 -18Q6391.0 -18 6363.0 -3.0Q6335.0 12 6306.0 49Q6289.0 68 6264.5 95.5Q6240.0 123 6210.5 156.0Q6181.0 189 6149.0 225.0Q6117.0 261 6085.5 297.0Q6054.0 333 6024.0 366.0Q5994.0 399 5969.0 426.5Q5944.0 454 5927.0 474Q5923.0 479 5918.5 482.5Q5914.0 486 5911.0 486Q5907.0 486 5905.0 479.0Q5903.0 472 5903.0 466Q5903.0 420 5903.5 357.0Q5904.0 294 5904.0 229.0Q5904.0 164 5904.0 109Q5904.0 78 5922.0 58.0Q5940.0 38 5979.0 29Q5991.0 27 5999.5 22.5Q6008.0 18 6008.0 10Q6008.0 3 6000.0 0.0Q5992.0 -3 5982.0 -3Q5955.0 -3 5939.0 -2.0Q5923.0 -1 5910.0 0.0Q5897.0 1 5877.0 1Q5856.0 1 5839.5 0.0Q5823.0 -1 5810.0 -2.5Q5797.0 -4 5785.0 -4Q5775.0 -4 5767.0 -0.5Q5759.0 3 5759.0 9Q5759.0 17 5766.5 21.5Q5774.0 26 5787.0 30Q5813.0 38 5825.5 59.5Q5838.0 81 5841.0 111Q5845.0 149 5849.0 210.5Q5853.0 272 5856.5 349.0Q5860.0 426 5860.0 508Q5860.0 560 5833.5 583.0Q5807.0 606 5767.0 620Q5760.0 622 5749.0 628.0Q5738.0 634 5738.0 643Q5738.0 652 5746.0 655.0Q5754.0 658 5763.0 658Q5784.0 658 5805.0 657.0Q5826.0 656 5847.5 655.5Q5869.0 655 5892.5 654.0Q5916.0 653 5943.0 653Q5952.0 653 5956.5 649.5Q5961.0 646 5965.0 640Q5981.0 621 6006.0 592.5Q6031.0 564 6060.5 529.5Q6090.0 495 6122.5 457.0Q6155.0 419 6187.5 381.0Q6220.0 343 6250.0 308.5Q6280.0 274 6304.5 245.5Q6329.0 217 6345.0 199Q6349.0 195 6354.5 189.0Q6360.0 183 6364.0 183Q6372.0 183 6373.0 200Q6373.0 226 6373.0 266.5Q6373.0 307 6373.5 356.5Q6374.0 406 6373.5 458.0Q6373.0 510 6372.0 558Q6371.0 583 6351.5 597.5Q6332.0 612 6303.0 618Q6291.0 621 6280.5 625.5Q6270.0 630 6270.0 639Q6270.0 646 6280.5 649.0Q6291.0 652 6300.0 652Q6320.0 652 6333.5 652.0Q6347.0 652 6359.0 651.5Q6371.0 651 6384.0 651Q6406.0 651 6420.0 651.5Q6434.0 652 6450.5 653.0Q6467.0 654 6494.0 654Q6506.0 654 6513.5 650.5Q6521.0 647 6521.0 641Q6521.0 626 6492.0 620Q6457.0 613 6442.5 601.0Q6428.0 589 6427.0 561Q6427.0 536 6426.5 497.0Q6426.0 458 6425.0 412.0Q6424.0 366 6422.5 318.0Q6421.0 270 6420.5 224.0Q6420.0 178 6420.0 141Q6420.0 117 6422.0 92.0Q6424.0 67 6426.5 47.5Q6429.0 28 6429.0 20Q6429.0 -2 6422.0 -10.0Q6415.0 -18 6403.0 -18ZM6740.0 -4Q6730.0 -4 6722.5 -0.5Q6715.0 3 6715.0 9Q6715.0 17 6722.0 22.0Q6729.0 27 6742.0 29Q6780.0 37 6798.0 51.5Q6816.0 66 6816.0 99V504Q6816.0 545 6814.0 566.0Q6812.0 587 6808.5 594.5Q6805.0 602 6798.0 603Q6788.0 607 6773.0 608.0Q6758.0 609 6744.0 609H6713.0Q6684.0 609 6657.0 595.5Q6630.0 582 6615.0 559Q6611.0 553 6602.5 542.0Q6594.0 531 6584.5 522.0Q6575.0 513 6565.0 513Q6558.0 513 6555.5 518.0Q6553.0 523 6553.0 529Q6553.0 541 6559.0 553Q6576.0 587 6584.5 612.5Q6593.0 638 6596.0 673Q6598.0 688 6604.5 692.5Q6611.0 697 6618.0 697Q6624.0 697 6632.5 684.5Q6641.0 672 6648.0 664Q6657.0 655 6680.0 650.5Q6703.0 646 6719.0 646L7088.0 647Q7116.0 647 7135.0 651.5Q7154.0 656 7165.0 661Q7180.0 670 7189.0 679.5Q7198.0 689 7210.0 689Q7215.0 689 7217.5 683.5Q7220.0 678 7220.0 670Q7220.0 665 7219.0 658.5Q7218.0 652 7217.0 647Q7213.0 628 7209.0 613.5Q7205.0 599 7202.5 586.5Q7200.0 574 7200.0 558V541Q7200.0 527 7196.0 517.0Q7192.0 507 7183.0 507Q7175.0 507 7169.5 516.5Q7164.0 526 7158.0 546Q7149.0 578 7128.0 593.5Q7107.0 609 7062.0 609H6994.0Q6975.0 609 6964.5 602.0Q6954.0 595 6949.5 571.5Q6945.0 548 6945.0 499V100Q6945.0 68 6963.0 53.5Q6981.0 39 7020.0 29Q7032.0 26 7039.0 22.0Q7046.0 18 7046.0 10Q7046.0 3 7039.5 0.0Q7033.0 -3 7023.0 -3Q6999.0 -3 6975.0 -2.0Q6951.0 -1 6927.5 0.0Q6904.0 1 6882.0 1Q6860.0 1 6836.5 0.0Q6813.0 -1 6788.5 -2.5Q6764.0 -4 6740.0 -4Z" transform="matrix(0.021120 0 0 -0.021120 73.54 391.04)" fill="#15130f"/></svg>