<svg xmlns="http://www.w3.org/2000/svg" viewBox="0 0 300 446"><rect width="300" height="446" fill="#f4ecd8"/><rect x="20.0" y="25.5" width="260" height="395" rx="20.3" fill="#f4ecd8" stroke="#15130f" stroke-width="1.5"/><rect x="36.9" y="42.4" width="226.2" height="354.7" fill="none" stroke="#15130f" stroke-width="0.7"/><g fill="none" stroke="#15130f" stroke-width="0.65" stroke-opacity="0.72" stroke-linecap="round" stroke-linejoin="round"><line x1="36.9" y1="210.4" x2="263.1" y2="210.4"/></g><path d="M36.9,370.6 H263.1 V397.1 H36.9 Z" fill="#d9cf9a"/><g fill="none" stroke="#15130f" stroke-width="0.8"><line x1="36.9" y1="370.6" x2="263.1" y2="370.6"/><line x1="61.6" y1="370.6" x2="61.6" y2="397.1"/><line x1="238.4" y1="370.6" x2="238.4" y2="397.1"/></g><rect x="141.4" y="34.4" width="17.2" height="19.0" fill="#d9cf9a" stroke="#15130f" stroke-width="0.8"/><path d="M450.0 1050V690Q569.0 900 750.0 900Q934.0 900 1042.0 757.0Q1150.0 614 1150.0 429Q1150.0 290 1050.0 130.5Q950.0 -29 950.0 -150Q950.0 -420 1132.0 -450Q1179.0 -450 1240.0 -420L1260.0 -450Q1183.0 -500 1102.0 -500Q954.0 -500 852.0 -391.0Q750.0 -282 750.0 -150Q750.0 -44 850.0 129.5Q950.0 303 950.0 429Q950.0 573 887.5 686.5Q825.0 800 706.0 800Q551.0 800 450.0 576V200Q450.0 150 490.0 95.0Q530.0 40 600.0 40H650.0V0H50.0V40H100.0Q170.0 40 210.0 95.0Q250.0 150 250.0 200V1050H50.0V1150H250.0V1200Q250.0 1250 210.0 1305.0Q170.0 1360 100.0 1360H50.0V1400H650.0V1360H600.0Q530.0 1360 490.0 1305.0Q450.0 1250 450.0 1200V1150H650.0V1050Z" transform="matrix(0.009268 0 0 -0.009268 43.18 388.04)" fill="#15130f"/></svg>