<svg xmlns="http://www.w3.org/2000/svg" viewBox="0 0 300 446"><rect width="300" height="446" fill="#f4ecd8"/><rect x="20.0" y="25.5" width="260" height="395" rx="20.3" fill="#f4ecd8" stroke="#15130f" stroke-width="1.5"/><rect x="36.9" y="42.4" width="226.2" height="354.7" fill="none" stroke="#15130f" stroke-width="0.7"/><g fill="none" stroke="#15130f" stroke-width="0.65" stroke-opacity="0.72" stroke-linecap="round" stroke-linejoin="round"><path d="M150.0,42.4 L263.1,206.5 L150.0,370.6 L36.9,206.5 Z"/></g><path d="M36.9,370.6 H263.1 V397.1 H36.9 Z" fill="#c7dcf0"/><g fill="none" stroke="#15130f" stroke-width="0.8"><line x1="36.9" y1="370.6" x2="263.1" y2="370.6"/><line x1="61.6" y1="370.6" x2="61.6" y2="397.1"/><line x1="238.4" y1="370.6" x2="238.4" y2="397.1"/></g><rect x="141.4" y="34.4" width="17.2" height="19.0" fill="#c7dcf0" stroke="#15130f" stroke-width="0.8"/><path d="M731.0 1093H467.0L377.0 1095L276.0 1077Q209.0 1046 197.0 961Q190.0 917 170.0 915Q139.0 913 139.0 965Q139.0 1051 170.0 1146L196.0 1225L203.0 1262Q208.0 1287 239.0 1287Q249.0 1287 279.0 1285Q310.0 1282 401.0 1282H808.0Q871.0 1282 886.5 1270.5Q902.0 1259 902.0 1214Q902.0 1092 809.0 873L717.0 658Q578.0 330 578.0 161Q578.0 67 592.0 11L604.0 -35Q606.0 -41 606.0 -47Q606.0 -64 575.0 -70Q570.0 -71 557.0 -75Q476.0 -101 435.0 -101Q377.0 -101 357.5 -74.5Q338.0 -48 338.0 28Q338.0 262 500.0 501L605.0 657Q677.0 762 737.5 889.5Q798.0 1017 798.0 1061Q798.0 1093 731.0 1093Z" transform="matrix(0.006858 0 0 -0.006858 146.43 48.74)" fill="#15130f"/><path d="M542.0 980Q542.0 1081 524.0 1150.5Q506.0 1220 468.5 1265.0Q431.0 1310 374.0 1310Q309.0 1310 251.5 1260.0Q194.0 1210 140.5 1125.0Q87.0 1040 87.0 960H50.0V1410H87.0Q87.0 1385 110.5 1358.5Q134.0 1332 164.0 1332Q194.0 1332 249.0 1371.0Q304.0 1410 374.0 1410Q483.0 1410 568.5 1352.0Q654.0 1294 698.0 1210.5Q742.0 1127 742.0 1000Q742.0 883 691.0 779Q660.0 716 617.0 675H1060.0V1200Q1060.0 1250 1020.0 1305.0Q980.0 1360 910.0 1360H860.0V1400H1460.0V1360H1410.0Q1340.0 1360 1300.0 1305.0Q1260.0 1250 1260.0 1200V200Q1260.0 150 1300.0 95.0Q1340.0 40 1410.0 40H1460.0V0H860.0V40H910.0Q980.0 40 1020.0 95.0Q1060.0 150 1060.0 200V575H225.0Q430.0 680 486.0 784.5Q542.0 889 542.0 980Z" transform="matrix(0.009268 0 0 -0.009268 42.25 390.40)" fill="#15130f"/><path d="M50.0 100H1650.0V0H50.0ZM50.0 300V400H339.0Q300.0 491 300.0 600Q300.0 815 451.0 962.5Q602.0 1110 850.0 1110Q1098.0 1110 1249.0 962.5Q1400.0 815 1400.0 600Q1400.0 491 1361.0 400H1650.0V300H1090.0Q1099.0 310 1149.5 403.0Q1200.0 496 1200.0 600Q1200.0 750 1106.5 880.0Q1013.0 1010 850.0 1010Q684.0 1010 592.0 880.0Q500.0 750 500.0 600Q500.0 496 550.0 403.0Q600.0 310 608.0 300Z" transform="matrix(0.009268 0 0 -0.009268 242.87 389.01)" fill="#15130f"/><path d="M676.0 -18Q664.0 -18 636.0 -3.0Q608.0 12 579.0 49Q562.0 68 537.5 95.5Q513.0 123 483.5 156.0Q454.0 189 422.0 225.0Q390.0 261 358.5 297.0Q327.0 333 297.0 366.0Q267.0 399 242.0 426.5Q217.0 454 200.0 474Q196.0 479 191.5 482.5Q187.0 486 184.0 486Q180.0 486 178.0 479.0Q176.0 472 176.0 466Q176.0 420 176.5 357.0Q177.0 294 177.0 229.0Q177.0 164 177.0 109Q177.0 78 195.0 58.0Q213.0 38 252.0 29Q264.0 27 272.5 22.5Q281.0 18 281.0 10Q281.0 3 273.0 0.0Q265.0 -3 255.0 -3Q228.0 -3 212.0 -2.0Q196.0 -1 183.0 0.0Q170.0 1 150.0 1Q129.0 1 112.5 0.0Q96.0 -1 83.0 -2.5Q70.0 -4 58.0 -4Q48.0 -4 40.0 -0.5Q32.0 3 32.0 9Q32.0 17 39.5 21.5Q47.0 26 60.0 30Q86.0 38 98.5 59.5Q111.0 81 114.0 111Q118.0 149 122.0 210.5Q126.0 272 129.5 349.0Q133.0 426 133.0 508Q133.0 560 106.5 583.0Q80.0 606 40.0 620Q33.0 622 22.0 628.0Q11.0 634 11.0 643Q11.0 652 19.0 655.0Q27.0 658 36.0 658Q57.0 658 78.0 657.0Q99.0 656 120.5 655.5Q142.0 655 165.5 654.0Q189.0 653 216.0 653Q225.0 653 229.5 649.5Q234.0 646 238.0 640Q254.0 621 279.0 592.5Q304.0 564 333.5 529.5Q363.0 495 395.5 457.0Q428.0 419 460.5 381.0Q493.0 343 523.0 308.5Q553.0 274 577.5 245.5Q602.0 217 618.0 199Q622.0 195 627.5 189.0Q633.0 183 637.0 183Q645.0 183 646.0 200Q646.0 226 646.0 266.5Q646.0 307 646.5 356.5Q647.0 406 646.5 458.0Q646.0 510 645.0 558Q644.0 583 624.5 597.5Q605.0 612 576.0 618Q564.0 621 553.5 625.5Q543.0 630 543.0 639Q543.0 646 553.5 649.0Q564.0 652 573.0 652Q593.0 652 606.5 652.0Q620.0 652 632.0 651.5Q644.0 651 657.0 651Q679.0 651 693.0 651.5Q707.0 652 723.5 653.0Q740.0 654 767.0 654Q779.0 654 786.5 650.5Q794.0 647 794.0 641Q794.0 626 765.0 620Q730.0 613 715.5 601.0Q701.0 589 700.0 561Q700.0 536 699.5 497.0Q699.0 458 698.0 412.0Q697.0 366 695.5 318.0Q694.0 270 693.5 224.0Q693.0 178 693.0 141Q693.0 117 695.0 92.0Q697.0 67 699.5 47.5Q702.0 28 702.0 20Q702.0 -2 695.0 -10.0Q688.0 -18 676.0 -18ZM853.0 -5Q842.0 -5 835.5 -1.0Q829.0 3 829.0 9Q829.0 22 855.0 28Q891.0 37 906.5 50.5Q922.0 64 922.0 97V550Q922.0 584 908.5 598.0Q895.0 612 858.0 620Q844.0 623 838.0 628.5Q832.0 634 832.0 640Q832.0 647 838.5 650.5Q845.0 654 856.0 654Q885.0 654 911.5 653.0Q938.0 652 963.0 651.0Q988.0 650 1015.0 650Q1061.0 650 1112.5 651.0Q1164.0 652 1205.0 652Q1238.0 653 1259.5 655.0Q1281.0 657 1285.0 657Q1292.0 657 1299.5 654.0Q1307.0 651 1308.0 642Q1312.0 609 1318.0 577.0Q1324.0 545 1324.0 521Q1324.0 512 1319.5 507.5Q1315.0 503 1310.0 503Q1305.0 503 1301.0 506.5Q1297.0 510 1294.0 517Q1286.0 540 1279.0 557.0Q1272.0 574 1263.0 583Q1250.0 597 1233.0 605.0Q1216.0 613 1192.0 613H1099.0Q1081.0 613 1066.0 602.5Q1051.0 592 1051.0 573V377Q1051.0 366 1057.5 360.0Q1064.0 354 1073.0 354H1165.0Q1192.0 354 1203.5 369.0Q1215.0 384 1223.0 410Q1230.0 430 1242.0 430Q1247.0 430 1251.0 424.5Q1255.0 419 1255.0 410Q1254.0 400 1253.0 386.0Q1252.0 372 1251.5 358.0Q1251.0 344 1251.0 333Q1251.0 321 1251.5 306.0Q1252.0 291 1252.5 276.5Q1253.0 262 1254.0 252Q1255.0 241 1252.5 235.0Q1250.0 229 1244.0 229Q1228.0 229 1221.0 257Q1213.0 285 1202.0 299.0Q1191.0 313 1172.0 313H1078.0Q1065.0 313 1058.0 308.0Q1051.0 303 1051.0 289V99Q1051.0 66 1065.0 53.0Q1079.0 40 1108.0 40H1190.0Q1215.0 40 1235.5 45.0Q1256.0 50 1271.0 61Q1288.0 73 1301.5 93.5Q1315.0 114 1328.0 139Q1332.0 147 1336.0 149.5Q1340.0 152 1346.0 152Q1351.0 151 1353.5 146.0Q1356.0 141 1356.0 135Q1356.0 121 1351.0 99.0Q1346.0 77 1338.5 53.5Q1331.0 30 1325.0 10Q1322.0 3 1317.0 -0.5Q1312.0 -4 1305.0 -4Q1281.0 -4 1243.5 -3.5Q1206.0 -3 1162.0 -2.0Q1118.0 -1 1072.0 -0.5Q1026.0 0 984.0 0Q963.0 0 941.5 -1.0Q920.0 -2 898.0 -3.5Q876.0 -5 853.0 -5ZM1758.0 -14Q1687.0 -14 1624.0 10.0Q1561.0 34 1512.5 77.5Q1464.0 121 1436.5 181.0Q1409.0 241 1409.0 313Q1409.0 384 1436.5 447.0Q1464.0 510 1514.0 558.5Q1564.0 607 1632.5 635.5Q1701.0 664 1784.0 664Q1803.0 664 1831.0 660.5Q1859.0 657 1889.0 652.0Q1919.0 647 1944.5 641.0Q1970.0 635 1984.0 629Q1991.0 626 1995.0 621.5Q1999.0 617 2000.0 609Q2005.0 576 2008.0 546.0Q2011.0 516 2011.0 494Q2011.0 486 2006.5 480.0Q2002.0 474 1995.0 474Q1984.0 474 1979.0 481.5Q1974.0 489 1970.0 498Q1962.0 516 1952.0 533.5Q1942.0 551 1927.0 567Q1917.0 577 1899.5 588.5Q1882.0 600 1855.0 608.0Q1828.0 616 1789.0 616Q1734.0 616 1690.0 593.5Q1646.0 571 1616.0 531.0Q1586.0 491 1570.0 440.5Q1554.0 390 1554.0 335Q1554.0 266 1570.0 210.5Q1586.0 155 1615.0 115.5Q1644.0 76 1684.0 55.0Q1724.0 34 1774.0 34Q1810.0 34 1830.5 44.5Q1851.0 55 1860.0 63Q1871.0 72 1878.0 90.0Q1885.0 108 1886.0 132Q1886.0 141 1886.5 155.0Q1887.0 169 1887.5 183.0Q1888.0 197 1888.0 206Q1888.0 217 1884.5 225.5Q1881.0 234 1871.0 239Q1862.0 246 1848.0 251.5Q1834.0 257 1819.5 259.5Q1805.0 262 1796.0 263Q1789.0 264 1781.0 269.5Q1773.0 275 1773.0 283Q1773.0 291 1780.5 295.0Q1788.0 299 1794.0 299Q1817.0 299 1841.5 298.0Q1866.0 297 1890.5 296.0Q1915.0 295 1938.0 295Q1966.0 295 1993.5 297.0Q2021.0 299 2050.0 299Q2056.0 299 2062.5 295.5Q2069.0 292 2069.0 283Q2069.0 275 2062.0 270.0Q2055.0 265 2049.0 264Q2022.0 257 2012.5 246.0Q2003.0 235 2000.0 215Q1996.0 193 1994.5 176.0Q1993.0 159 1993.0 140V109Q1993.0 104 1996.5 100.0Q2000.0 96 2004.0 91Q2008.0 86 2011.5 81.0Q2015.0 76 2015.0 71Q2015.0 65 2011.5 58.5Q2008.0 52 1997.0 50Q1990.0 49 1970.0 39.0Q1950.0 29 1919.5 16.5Q1889.0 4 1848.5 -5.0Q1808.0 -14 1758.0 -14ZM2473.0 -14Q2405.0 -14 2343.0 9.5Q2281.0 33 2233.5 76.5Q2186.0 120 2158.5 180.5Q2131.0 241 2131.0 315Q2131.0 383 2153.5 445.5Q2176.0 508 2220.5 557.0Q2265.0 606 2330.5 635.0Q2396.0 664 2482.0 664Q2550.0 664 2611.5 640.5Q2673.0 617 2721.0 573.5Q2769.0 530 2796.5 469.5Q2824.0 409 2824.0 335Q2824.0 268 2801.5 205.0Q2779.0 142 2734.5 93.0Q2690.0 44 2624.5 15.0Q2559.0 -14 2473.0 -14ZM2490.0 30Q2553.0 30 2595.5 62.0Q2638.0 94 2659.5 151.5Q2681.0 209 2681.0 284Q2681.0 348 2668.0 408.0Q2655.0 468 2628.0 515.5Q2601.0 563 2560.5 591.0Q2520.0 619 2464.0 619Q2401.0 619 2358.5 587.0Q2316.0 555 2295.0 498.0Q2274.0 441 2274.0 366Q2274.0 302 2287.0 242.0Q2300.0 182 2326.5 134.0Q2353.0 86 2393.5 58.0Q2434.0 30 2490.0 30ZM3067.0 -4Q3057.0 -4 3049.5 -0.5Q3042.0 3 3042.0 9Q3042.0 17 3049.0 22.0Q3056.0 27 3069.0 29Q3107.0 37 3125.0 51.5Q3143.0 66 3143.0 99V504Q3143.0 545 3141.0 566.0Q3139.0 587 3135.5 594.5Q3132.0 602 3125.0 603Q3115.0 607 3100.0 608.0Q3085.0 609 3071.0 609H3040.0Q3011.0 609 2984.0 595.5Q2957.0 582 2942.0 559Q2938.0 553 2929.5 542.0Q2921.0 531 2911.5 522.0Q2902.0 513 2892.0 513Q2885.0 513 2882.5 518.0Q2880.0 523 2880.0 529Q2880.0 541 2886.0 553Q2903.0 587 2911.5 612.5Q2920.0 638 2923.0 673Q2925.0 688 2931.5 692.5Q2938.0 697 2945.0 697Q2951.0 697 2959.5 684.5Q2968.0 672 2975.0 664Q2984.0 655 3007.0 650.5Q3030.0 646 3046.0 646L3415.0 647Q3443.0 647 3462.0 651.5Q3481.0 656 3492.0 661Q3507.0 670 3516.0 679.5Q3525.0 689 3537.0 689Q3542.0 689 3544.5 683.5Q3547.0 678 3547.0 670Q3547.0 665 3546.0 658.5Q3545.0 652 3544.0 647Q3540.0 628 3536.0 613.5Q3532.0 599 3529.5 586.5Q3527.0 574 3527.0 558V541Q3527.0 527 3523.0 517.0Q3519.0 507 3510.0 507Q3502.0 507 3496.5 516.5Q3491.0 526 3485.0 546Q3476.0 578 3455.0 593.5Q3434.0 609 3389.0 609H3321.0Q3302.0 609 3291.5 602.0Q3281.0 595 3276.5 571.5Q3272.0 548 3272.0 499V100Q3272.0 68 3290.0 53.5Q3308.0 39 3347.0 29Q3359.0 26 3366.0 22.0Q3373.0 18 3373.0 10Q3373.0 3 3366.5 0.0Q3360.0 -3 3350.0 -3Q3326.0 -3 3302.0 -2.0Q3278.0 -1 3254.5 0.0Q3231.0 1 3209.0 1Q3187.0 1 3163.5 0.0Q3140.0 -1 3115.5 -2.5Q3091.0 -4 3067.0 -4ZM3585.0 -4Q3576.0 -4 3569.0 -0.5Q3562.0 3 3562.0 9Q3562.0 24 3587.0 29Q3625.0 37 3642.0 51.0Q3659.0 65 3659.0 97V551Q3659.0 584 3645.0 598.0Q3631.0 612 3592.0 620Q3567.0 625 3567.0 641Q3567.0 647 3574.0 650.5Q3581.0 654 3590.0 654Q3614.0 654 3637.0 653.0Q3660.0 652 3681.5 651.0Q3703.0 650 3725.0 650Q3746.0 650 3767.5 651.0Q3789.0 652 3812.0 653.0Q3835.0 654 3859.0 654Q3869.0 654 3875.0 650.5Q3881.0 647 3881.0 640Q3881.0 632 3874.5 627.5Q3868.0 623 3856.0 620Q3816.0 610 3802.0 596.0Q3788.0 582 3788.0 550V98Q3788.0 67 3804.5 53.0Q3821.0 39 3859.0 29Q3872.0 26 3878.5 22.0Q3885.0 18 3885.0 10Q3885.0 3 3879.0 0.0Q3873.0 -3 3863.0 -3Q3839.0 -3 3815.0 -2.0Q3791.0 -1 3768.5 0.0Q3746.0 1 3725.0 1Q3703.0 1 3680.0 0.0Q3657.0 -1 3633.0 -2.5Q3609.0 -4 3585.0 -4ZM3925.0 -5Q3913.0 -5 3905.0 -1.5Q3897.0 2 3897.0 10Q3897.0 19 3904.5 24.0Q3912.0 29 3924.0 33Q3953.0 41 3974.5 57.5Q3996.0 74 4009.0 103Q4034.0 162 4057.0 216.5Q4080.0 271 4101.0 325.0Q4122.0 379 4143.5 435.0Q4165.0 491 4187.0 553Q4198.0 584 4202.0 601.0Q4206.0 618 4209.0 626Q4224.0 630 4237.0 634.0Q4250.0 638 4266.0 644Q4280.0 651 4290.0 662.0Q4300.0 673 4305.0 679Q4308.0 681 4311.0 681.5Q4314.0 682 4317.0 677Q4320.0 671 4322.0 665.0Q4324.0 659 4326.0 652Q4348.0 581 4371.5 508.5Q4395.0 436 4418.0 365.5Q4441.0 295 4462.5 230.5Q4484.0 166 4502.0 112Q4511.0 85 4524.5 69.0Q4538.0 53 4554.5 44.5Q4571.0 36 4591.0 31Q4604.0 28 4611.0 23.0Q4618.0 18 4618.0 9Q4618.0 3 4611.5 0.0Q4605.0 -3 4595.0 -3Q4577.0 -3 4549.5 -2.0Q4522.0 -1 4493.0 0.5Q4464.0 2 4441.0 2Q4421.0 2 4396.5 1.0Q4372.0 0 4347.5 -1.0Q4323.0 -2 4306.0 -2Q4296.0 -2 4288.5 1.5Q4281.0 5 4281.0 12Q4281.0 20 4289.0 25.5Q4297.0 31 4308.0 33Q4344.0 39 4360.0 51.5Q4376.0 64 4372.0 88Q4369.0 105 4363.0 128.5Q4357.0 152 4350.5 177.5Q4344.0 203 4337.0 224Q4335.0 232 4331.0 235.5Q4327.0 239 4316.0 239H4136.0Q4129.0 239 4125.0 234.5Q4121.0 230 4119.0 221Q4115.0 208 4109.5 191.5Q4104.0 175 4098.5 157.5Q4093.0 140 4088.5 125.0Q4084.0 110 4082.0 99Q4077.0 72 4091.5 56.5Q4106.0 41 4142.0 32Q4169.0 25 4169.0 11Q4169.0 5 4162.5 1.5Q4156.0 -2 4144.0 -2Q4121.0 -2 4096.0 -0.5Q4071.0 1 4041.0 1Q4011.0 1 3982.5 -2.0Q3954.0 -5 3925.0 -5ZM4163.0 285H4302.0Q4316.0 285 4316.0 291Q4316.0 294 4315.5 296.0Q4315.0 298 4314.0 302L4244.0 533Q4240.0 547 4237.0 547Q4235.0 547 4230.0 534L4146.0 302Q4144.0 297 4144.0 294Q4144.0 289 4149.5 287.0Q4155.0 285 4163.0 285ZM4821.0 -4Q4811.0 -4 4803.5 -0.5Q4796.0 3 4796.0 9Q4796.0 17 4803.0 22.0Q4810.0 27 4823.0 29Q4861.0 37 4879.0 51.5Q4897.0 66 4897.0 99V504Q4897.0 545 4895.0 566.0Q4893.0 587 4889.5 594.5Q4886.0 602 4879.0 603Q4869.0 607 4854.0 608.0Q4839.0 609 4825.0 609H4794.0Q4765.0 609 4738.0 595.5Q4711.0 582 4696.0 559Q4692.0 553 4683.5 542.0Q4675.0 531 4665.5 522.0Q4656.0 513 4646.0 513Q4639.0 513 4636.5 518.0Q4634.0 523 4634.0 529Q4634.0 541 4640.0 553Q4657.0 587 4665.5 612.5Q4674.0 638 4677.0 673Q4679.0 688 4685.5 692.5Q4692.0 697 4699.0 697Q4705.0 697 4713.5 684.5Q4722.0 672 4729.0 664Q4738.0 655 4761.0 650.5Q4784.0 646 4800.0 646L5169.0 647Q5197.0 647 5216.0 651.5Q5235.0 656 5246.0 661Q5261.0 670 5270.0 679.5Q5279.0 689 5291.0 689Q5296.0 689 5298.5 683.5Q5301.0 678 5301.0 670Q5301.0 665 5300.0 658.5Q5299.0 652 5298.0 647Q5294.0 628 5290.0 613.5Q5286.0 599 5283.5 586.5Q5281.0 574 5281.0 558V541Q5281.0 527 5277.0 517.0Q5273.0 507 5264.0 507Q5256.0 507 5250.5 516.5Q5245.0 526 5239.0 546Q5230.0 578 5209.0 593.5Q5188.0 609 5143.0 609H5075.0Q5056.0 609 5045.5 602.0Q5035.0 595 5030.5 571.5Q5026.0 548 5026.0 499V100Q5026.0 68 5044.0 53.5Q5062.0 39 5101.0 29Q5113.0 26 5120.0 22.0Q5127.0 18 5127.0 10Q5127.0 3 5120.5 0.0Q5114.0 -3 5104.0 -3Q5080.0 -3 5056.0 -2.0Q5032.0 -1 5008.5 0.0Q4985.0 1 4963.0 1Q4941.0 1 4917.5 0.0Q4894.0 -1 4869.5 -2.5Q4845.0 -4 4821.0 -4ZM5339.0 -4Q5330.0 -4 5323.0 -0.5Q5316.0 3 5316.0 9Q5316.0 24 5341.0 29Q5379.0 37 5396.0 51.0Q5413.0 65 5413.0 97V551Q5413.0 584 5399.0 598.0Q5385.0 612 5346.0 620Q5321.0 625 5321.0 641Q5321.0 647 5328.0 650.5Q5335.0 654 5344.0 654Q5368.0 654 5391.0 653.0Q5414.0 652 5435.5 651.0Q5457.0 650 5479.0 650Q5500.0 650 5521.5 651.0Q5543.0 652 5566.0 653.0Q5589.0 654 5613.0 654Q5623.0 654 5629.0 650.5Q5635.0 647 5635.0 640Q5635.0 632 5628.5 627.5Q5622.0 623 5610.0 620Q5570.0 610 5556.0 596.0Q5542.0 582 5542.0 550V98Q5542.0 67 5558.5 53.0Q5575.0 39 5613.0 29Q5626.0 26 5632.5 22.0Q5639.0 18 5639.0 10Q5639.0 3 5633.0 0.0Q5627.0 -3 5617.0 -3Q5593.0 -3 5569.0 -2.0Q5545.0 -1 5522.5 0.0Q5500.0 1 5479.0 1Q5457.0 1 5434.0 0.0Q5411.0 -1 5387.0 -2.5Q5363.0 -4 5339.0 -4ZM6031.0 -14Q5963.0 -14 5901.0 9.5Q5839.0 33 5791.5 76.5Q5744.0 120 5716.5 180.5Q5689.0 241 5689.0 315Q5689.0 383 5711.5 445.5Q5734.0 508 5778.5 557.0Q5823.0 606 5888.5 635.0Q5954.0 664 6040.0 664Q6108.0 664 6169.5 640.5Q6231.0 617 6279.0 573.5Q6327.0 530 6354.5 469.5Q6382.0 409 6382.0 335Q6382.0 268 6359.5 205.0Q6337.0 142 6292.5 93.0Q6248.0 44 6182.5 15.0Q6117.0 -14 6031.0 -14ZM6048.0 30Q6111.0 30 6153.5 62.0Q6196.0 94 6217.5 151.5Q6239.0 209 6239.0 284Q6239.0 348 6226.0 408.0Q6213.0 468 6186.0 515.5Q6159.0 563 6118.5 591.0Q6078.0 619 6022.0 619Q5959.0 619 5916.5 587.0Q5874.0 555 5853.0 498.0Q5832.0 441 5832.0 366Q5832.0 302 5845.0 242.0Q5858.0 182 5884.5 134.0Q5911.0 86 5951.5 58.0Q5992.0 30 6048.0 30ZM7092.0 -18Q7080.0 -18 7052.0 -3.0Q7024.0 12 6995.0 49Q6978.0 68 6953.5 95.5Q6929.0 123 6899.5 156.0Q6870.0 189 6838.0 225.0Q6806.0 261 6774.5 297.0Q6743.0 333 6713.0 366.0Q6683.0 399 6658.0 426.5Q6633.0 454 6616.0 474Q6612.0 479 6607.5 482.5Q6603.0 486 6600.0 486Q6596.0 486 6594.0 479.0Q6592.0 472 6592.0 466Q6592.0 420 6592.5 357.0Q6593.0 294 6593.0 229.0Q6593.0 164 6593.0 109Q6593.0 78 6611.0 58.0Q6629.0 38 6668.0 29Q6680.0 27 6688.5 22.5Q6697.0 18 6697.0 10Q6697.0 3 6689.0 0.0Q6681.0 -3 6671.0 -3Q6644.0 -3 6628.0 -2.0Q6612.0 -1 6599.0 0.0Q6586.0 1 6566.0 1Q6545.0 1 6528.5 0.0Q6512.0 -1 6499.0 -2.5Q6486.0 -4 6474.0 -4Q6464.0 -4 6456.0 -0.5Q6448.0 3 6448.0 9Q6448.0 17 6455.5 21.5Q6463.0 26 6476.0 30Q6502.0 38 6514.5 59.5Q6527.0 81 6530.0 111Q6534.0 149 6538.0 210.5Q6542.0 272 6545.5 349.0Q6549.0 426 6549.0 508Q6549.0 560 6522.5 583.0Q6496.0 606 6456.0 620Q6449.0 622 6438.0 628.0Q6427.0 634 6427.0 643Q6427.0 652 6435.0 655.0Q6443.0 658 6452.0 658Q6473.0 658 6494.0 657.0Q6515.0 656 6536.5 655.5Q6558.0 655 6581.5 654.0Q6605.0 653 6632.0 653Q6641.0 653 6645.5 649.5Q6650.0 646 6654.0 640Q6670.0 621 6695.0 592.5Q6720.0 564 6749.5 529.5Q6779.0 495 6811.5 457.0Q6844.0 419 6876.5 381.0Q6909.0 343 6939.0 308.5Q6969.0 274 6993.5 245.5Q7018.0 217 7034.0 199Q7038.0 195 7043.5 189.0Q7049.0 183 7053.0 183Q7061.0 183 7062.0 200Q7062.0 226 7062.0 266.5Q7062.0 307 7062.5 356.5Q7063.0 406 7062.5 458.0Q7062.0 510 7061.0 558Q7060.0 583 7040.5 597.5Q7021.0 612 6992.0 618Q6980.0 621 6969.5 625.5Q6959.0 630 6959.0 639Q6959.0 646 6969.5 649.0Q6980.0 652 6989.0 652Q7009.0 652 7022.5 652.0Q7036.0 652 7048.0 651.5Q7060.0 651 7073.0 651Q7095.0 651 7109.0 651.5Q7123.0 652 7139.5 653.0Q7156.0 654 7183.0 654Q7195.0 654 7202.5 650.5Q7210.0 647 7210.0 641Q7210.0 626 7181.0 620Q7146.0 613 7131.5 601.0Q7117.0 589 7116.0 561Q7116.0 536 7115.5 497.0Q7115.0 458 7114.0 412.0Q7113.0 366 7111.5 318.0Q7110.0 270 7109.5 224.0Q7109.0 178 7109.0 141Q7109.0 117 7111.0 92.0Q7113.0 67 7115.5 47.5Q7118.0 28 7118.0 20Q7118.0 -2 7111.0 -10.0Q7104.0 -18 7092.0 -18Z" transform="matrix(0.021120 0 0 -0.021120 73.75 391.04)" fill="#15130f"/></svg>