<svg xmlns="http://www.w3.org/2000/svg" viewBox="0 0 300 446"><rect width="300" height="446" fill="#f4ecd8"/><rect x="20.0" y="25.5" width="260" height="395" rx="20.3" fill="#f4ecd8" stroke="#15130f" stroke-width="1.5"/><rect x="36.9" y="42.4" width="226.2" height="354.7" fill="none" stroke="#15130f" stroke-width="0.7"/><g fill="none" stroke="#15130f" stroke-width="0.65" stroke-opacity="0.72" stroke-linecap="round" stroke-linejoin="round"><path d="M150.0,42.4 L263.1,206.5 L150.0,370.6 L36.9,206.5 Z"/></g><path d="M36.9,370.6 H263.1 V397.1 H36.9 Z" fill="#c7dcf0"/><g fill="none" stroke="#15130f" stroke-width="0.8"><line x1="36.9" y1="370.6" x2="263.1" y2="370.6"/><line x1="61.6" y1="370.6" x2="61.6" y2="397.1"/><line x1="238.4" y1="370.6" x2="238.4" y2="397.1"/></g><rect x="141.4" y="34.4" width="17.2" height="19.0" fill="#c7dcf0" stroke="#15130f" stroke-width="0.8"/><path d="M649.0 1092V235L647.0 193L657.0 137Q686.0 59 825.0 52Q867.0 50 867.0 28Q867.0 -7 780.0 -7Q761.0 -7 652.0 2Q595.0 7 494.0 7Q394.0 7 322.0 -2Q293.0 -5 280.0 -5Q255.0 -5 255.0 20Q255.0 41 281.0 45Q384.0 61 415.0 92.0Q446.0 123 446.0 210L445.0 248V1010Q445.0 1115 363.0 1115Q331.0 1115 306.0 1104L281.0 1093Q270.0 1089 261.0 1089Q235.0 1089 235.0 1113Q235.0 1137 260.0 1150.0Q285.0 1163 362.0 1180Q506.0 1211 567.0 1267L614.0 1310Q625.0 1320 641.0 1320Q661.0 1320 661.0 1282Q661.0 1271 659.0 1243L651.0 1153Q649.0 1126 649.0 1092ZM1947.0 348Q1970.0 348 1972.0 331L1970.0 321L1955.0 277Q1941.0 236 1920.0 192L1869.0 85Q1839.0 23 1816.5 9.5Q1794.0 -4 1721.0 -4Q1677.0 -4 1615.0 -1L1530.0 4Q1482.0 6 1395.0 6Q1232.0 6 1191.0 -1Q1163.0 -6 1150.0 -6Q1119.0 -6 1119.0 21Q1119.0 40 1178.0 106Q1270.0 211 1389.0 383.0Q1508.0 555 1565.0 665Q1641.0 813 1641.0 932Q1641.0 1035 1583.0 1096.0Q1525.0 1157 1428.0 1157Q1290.0 1157 1180.0 1033Q1170.0 1021 1162.0 1021Q1155.0 1021 1146.5 1029.5Q1138.0 1038 1138.0 1046Q1138.0 1059 1169.0 1101.5Q1200.0 1144 1234.0 1176Q1367.0 1307 1541.0 1307Q1679.0 1307 1764.0 1230.5Q1849.0 1154 1849.0 1029Q1849.0 803 1456.0 355L1408.0 300Q1366.0 253 1366.0 233Q1366.0 198 1450.0 198L1614.0 200L1710.0 201Q1774.0 204 1835.0 241.0Q1896.0 278 1926.0 333Q1935.0 348 1947.0 348Z" transform="matrix(0.006024 0 0 -0.006024 143.35 48.63)" fill="#15130f"/><path d="M542.0 980Q542.0 1081 524.0 1150.5Q506.0 1220 468.5 1265.0Q431.0 1310 374.0 1310Q309.0 1310 251.5 1260.0Q194.0 1210 140.5 1125.0Q87.0 1040 87.0 960H50.0V1410H87.0Q87.0 1385 110.5 1358.5Q134.0 1332 164.0 1332Q194.0 1332 249.0 1371.0Q304.0 1410 374.0 1410Q483.0 1410 568.5 1352.0Q654.0 1294 698.0 1210.5Q742.0 1127 742.0 1000Q742.0 883 691.0 779Q660.0 716 617.0 675H1060.0V1200Q1060.0 1250 1020.0 1305.0Q980.0 1360 910.0 1360H860.0V1400H1460.0V1360H1410.0Q1340.0 1360 1300.0 1305.0Q1260.0 1250 1260.0 1200V200Q1260.0 150 1300.0 95.0Q1340.0 40 1410.0 40H1460.0V0H860.0V40H910.0Q980.0 40 1020.0 95.0Q1060.0 150 1060.0 200V575H225.0Q430.0 680 486.0 784.5Q542.0 889 542.0 980Z" transform="matrix(0.009268 0 0 -0.009268 42.25 390.40)" fill="#15130f"/><path d="M548.0 750Q533.0 984 370.0 1200Q330.0 1250 250.0 1305.0Q170.0 1360 100.0 1360H50.0V1400H402.0Q440.0 1370 476.0 1337Q731.0 1091 749.0 750H951.0Q969.0 1091 1224.0 1337Q1260.0 1370 1298.0 1400H1650.0V1360H1600.0Q1530.0 1360 1450.0 1305.0Q1370.0 1250 1330.0 1200Q1167.0 984 1152.0 750H1600.0V650H1152.0Q1168.0 413 1340.0 190Q1378.0 145 1450.0 95Q1530.0 40 1600.0 40H1650.0V0H1301.0Q1262.0 29 1227.0 63Q969.0 308 951.0 650H749.0Q731.0 308 473.0 63Q438.0 29 399.0 0H50.0V40H100.0Q170.0 40 250.0 95Q322.0 145 360.0 190Q532.0 413 548.0 650H100.0V750Z" transform="matrix(0.009268 0 0 -0.009268 242.87 390.35)" fill="#15130f"/><path d="M214.0 -15Q171.0 -15 132.5 -4.0Q94.0 7 62.0 29Q56.0 34 51.0 39.5Q46.0 45 43.0 52Q35.0 77 32.0 113.5Q29.0 150 30.0 184Q30.0 191 35.5 194.0Q41.0 197 49.0 197Q57.0 197 61.5 194.5Q66.0 192 68.0 185Q90.0 110 132.0 68.0Q174.0 26 227.0 26Q260.0 26 283.0 41.0Q306.0 56 318.0 80.0Q330.0 104 330.0 132Q330.0 167 317.5 190.0Q305.0 213 280.0 231.5Q255.0 250 217.0 271Q176.0 295 137.0 321.5Q98.0 348 73.0 384.5Q48.0 421 48.0 475Q48.0 531 76.5 573.5Q105.0 616 156.0 640.0Q207.0 664 274.0 664Q311.0 664 343.0 656.0Q375.0 648 394.0 640Q405.0 636 410.5 630.0Q416.0 624 419.0 611Q425.0 590 429.5 561.0Q434.0 532 434.0 500Q434.0 488 416.0 488Q408.0 488 400.0 492.0Q392.0 496 390.0 503Q372.0 561 340.5 591.0Q309.0 621 263.0 621Q232.0 621 210.0 610.5Q188.0 600 175.0 578.5Q162.0 557 162.0 523Q162.0 497 179.5 475.0Q197.0 453 228.5 432.0Q260.0 411 299.0 386Q347.0 358 379.5 329.5Q412.0 301 429.0 266.5Q446.0 232 446.0 185Q446.0 119 417.0 74.5Q388.0 30 336.0 7.5Q284.0 -15 214.0 -15ZM533.0 -5Q522.0 -5 515.5 -1.0Q509.0 3 509.0 9Q509.0 22 535.0 28Q571.0 37 586.5 50.5Q602.0 64 602.0 97V550Q602.0 584 588.5 598.0Q575.0 612 538.0 620Q524.0 623 518.0 628.5Q512.0 634 512.0 640Q512.0 647 518.5 650.5Q525.0 654 536.0 654Q565.0 654 591.5 653.0Q618.0 652 643.0 651.0Q668.0 650 695.0 650Q741.0 650 792.5 651.0Q844.0 652 885.0 652Q918.0 653 939.5 655.0Q961.0 657 965.0 657Q972.0 657 979.5 654.0Q987.0 651 988.0 642Q992.0 609 998.0 577.0Q1004.0 545 1004.0 521Q1004.0 512 999.5 507.5Q995.0 503 990.0 503Q985.0 503 981.0 506.5Q977.0 510 974.0 517Q966.0 540 959.0 557.0Q952.0 574 943.0 583Q930.0 597 913.0 605.0Q896.0 613 872.0 613H779.0Q761.0 613 746.0 602.5Q731.0 592 731.0 573V377Q731.0 366 737.5 360.0Q744.0 354 753.0 354H845.0Q872.0 354 883.5 369.0Q895.0 384 903.0 410Q910.0 430 922.0 430Q927.0 430 931.0 424.5Q935.0 419 935.0 410Q934.0 400 933.0 386.0Q932.0 372 931.5 358.0Q931.0 344 931.0 333Q931.0 321 931.5 306.0Q932.0 291 932.5 276.5Q933.0 262 934.0 252Q935.0 241 932.5 235.0Q930.0 229 924.0 229Q908.0 229 901.0 257Q893.0 285 882.0 299.0Q871.0 313 852.0 313H758.0Q745.0 313 738.0 308.0Q731.0 303 731.0 289V99Q731.0 66 745.0 53.0Q759.0 40 788.0 40H870.0Q895.0 40 915.5 45.0Q936.0 50 951.0 61Q968.0 73 981.5 93.5Q995.0 114 1008.0 139Q1012.0 147 1016.0 149.5Q1020.0 152 1026.0 152Q1031.0 151 1033.5 146.0Q1036.0 141 1036.0 135Q1036.0 121 1031.0 99.0Q1026.0 77 1018.5 53.5Q1011.0 30 1005.0 10Q1002.0 3 997.0 -0.5Q992.0 -4 985.0 -4Q961.0 -4 923.5 -3.5Q886.0 -3 842.0 -2.0Q798.0 -1 752.0 -0.5Q706.0 0 664.0 0Q643.0 0 621.5 -1.0Q600.0 -2 578.0 -3.5Q556.0 -5 533.0 -5ZM1434.0 -7Q1407.0 -7 1369.0 -5.0Q1331.0 -3 1292.5 -1.5Q1254.0 0 1229.0 0Q1209.0 0 1188.5 -0.5Q1168.0 -1 1146.0 -2.5Q1124.0 -4 1099.0 -4Q1090.0 -4 1083.0 -0.5Q1076.0 3 1076.0 10Q1076.0 19 1082.5 23.0Q1089.0 27 1102.0 29Q1140.0 37 1154.0 51.0Q1168.0 65 1168.0 98V550Q1168.0 584 1154.5 598.0Q1141.0 612 1102.0 620Q1089.0 622 1082.5 626.5Q1076.0 631 1076.0 640Q1076.0 647 1083.0 650.5Q1090.0 654 1099.0 654Q1123.0 654 1145.0 653.5Q1167.0 653 1188.5 651.5Q1210.0 650 1232.0 650Q1247.0 650 1272.5 651.5Q1298.0 653 1327.5 654.5Q1357.0 656 1383.0 657.5Q1409.0 659 1425.0 659Q1509.0 659 1576.0 635.0Q1643.0 611 1690.5 568.0Q1738.0 525 1763.0 466.0Q1788.0 407 1788.0 338Q1788.0 269 1763.0 207.0Q1738.0 145 1691.5 97.0Q1645.0 49 1579.5 21.0Q1514.0 -7 1434.0 -7ZM1419.0 39Q1491.0 39 1541.5 73.5Q1592.0 108 1618.0 170.5Q1644.0 233 1644.0 315Q1644.0 383 1626.5 438.5Q1609.0 494 1577.5 532.5Q1546.0 571 1502.5 592.0Q1459.0 613 1408.0 613Q1372.0 613 1347.5 611.0Q1323.0 609 1310.5 599.5Q1298.0 590 1298.0 568V128Q1298.0 93 1313.5 73.5Q1329.0 54 1356.5 46.5Q1384.0 39 1419.0 39ZM2190.0 -14Q2097.0 -14 2035.0 19.0Q1973.0 52 1942.0 111.0Q1911.0 170 1911.0 249V541Q1911.0 571 1897.5 592.0Q1884.0 613 1862.0 619Q1832.0 627 1832.0 641Q1832.0 647 1840.0 650.5Q1848.0 654 1860.0 654Q1888.0 654 1918.5 652.0Q1949.0 650 1978.0 650Q2004.0 650 2037.5 651.5Q2071.0 653 2095.0 653Q2107.0 653 2114.5 650.0Q2122.0 647 2122.0 640Q2122.0 630 2109.5 625.5Q2097.0 621 2080.0 614Q2066.0 608 2053.5 589.5Q2041.0 571 2041.0 539V270Q2041.0 198 2065.0 151.5Q2089.0 105 2129.0 83.0Q2169.0 61 2219.0 61Q2314.0 61 2360.0 121.0Q2406.0 181 2406.0 293Q2406.0 318 2406.0 352.0Q2406.0 386 2405.5 422.5Q2405.0 459 2404.0 492Q2404.0 531 2398.5 555.5Q2393.0 580 2383.0 594.5Q2373.0 609 2355.0 617Q2345.0 621 2331.5 626.0Q2318.0 631 2318.0 639Q2318.0 647 2326.0 650.0Q2334.0 653 2347.0 653Q2379.0 653 2396.5 652.0Q2414.0 651 2437.0 651Q2454.0 651 2467.5 651.5Q2481.0 652 2494.0 653.0Q2507.0 654 2524.0 654Q2536.0 654 2543.0 651.5Q2550.0 649 2550.0 641Q2550.0 627 2521.0 620Q2490.0 612 2478.0 591.0Q2466.0 570 2464.0 536Q2460.0 457 2458.5 391.0Q2457.0 325 2456.0 258Q2455.0 178 2419.5 116.5Q2384.0 55 2324.0 20.5Q2264.0 -14 2190.0 -14ZM2964.0 -14Q2889.0 -14 2822.0 9.5Q2755.0 33 2703.5 77.0Q2652.0 121 2622.5 182.5Q2593.0 244 2593.0 319Q2593.0 389 2622.0 451.0Q2651.0 513 2704.0 561.0Q2757.0 609 2830.5 636.5Q2904.0 664 2992.0 664Q3026.0 664 3056.5 659.5Q3087.0 655 3116.0 648.5Q3145.0 642 3173.0 632Q3184.0 628 3190.5 621.0Q3197.0 614 3198.0 602Q3202.0 572 3204.0 542.5Q3206.0 513 3206.0 484Q3207.0 474 3199.0 469.5Q3191.0 465 3182.0 468.5Q3173.0 472 3169.0 483Q3161.0 511 3150.5 535.5Q3140.0 560 3119.0 577Q3096.0 596 3061.0 607.5Q3026.0 619 2979.0 619Q2925.0 619 2881.0 597.0Q2837.0 575 2805.5 536.0Q2774.0 497 2757.0 448.0Q2740.0 399 2740.0 345Q2740.0 281 2755.5 224.0Q2771.0 167 2802.5 123.5Q2834.0 80 2879.0 55.5Q2924.0 31 2982.0 31Q3056.0 31 3102.0 63.0Q3148.0 95 3180.0 158Q3188.0 174 3202.0 173.5Q3216.0 173 3216.0 157Q3216.0 145 3213.0 127.0Q3210.0 109 3204.5 88.5Q3199.0 68 3192.0 48Q3188.0 36 3182.0 30.0Q3176.0 24 3164.0 19Q3126.0 3 3074.5 -5.5Q3023.0 -14 2964.0 -14ZM3477.0 -4Q3467.0 -4 3459.5 -0.5Q3452.0 3 3452.0 9Q3452.0 17 3459.0 22.0Q3466.0 27 3479.0 29Q3517.0 37 3535.0 51.5Q3553.0 66 3553.0 99V504Q3553.0 545 3551.0 566.0Q3549.0 587 3545.5 594.5Q3542.0 602 3535.0 603Q3525.0 607 3510.0 608.0Q3495.0 609 3481.0 609H3450.0Q3421.0 609 3394.0 595.5Q3367.0 582 3352.0 559Q3348.0 553 3339.5 542.0Q3331.0 531 3321.5 522.0Q3312.0 513 3302.0 513Q3295.0 513 3292.5 518.0Q3290.0 523 3290.0 529Q3290.0 541 3296.0 553Q3313.0 587 3321.5 612.5Q3330.0 638 3333.0 673Q3335.0 688 3341.5 692.5Q3348.0 697 3355.0 697Q3361.0 697 3369.5 684.5Q3378.0 672 3385.0 664Q3394.0 655 3417.0 650.5Q3440.0 646 3456.0 646L3825.0 647Q3853.0 647 3872.0 651.5Q3891.0 656 3902.0 661Q3917.0 670 3926.0 679.5Q3935.0 689 3947.0 689Q3952.0 689 3954.5 683.5Q3957.0 678 3957.0 670Q3957.0 665 3956.0 658.5Q3955.0 652 3954.0 647Q3950.0 628 3946.0 613.5Q3942.0 599 3939.5 586.5Q3937.0 574 3937.0 558V541Q3937.0 527 3933.0 517.0Q3929.0 507 3920.0 507Q3912.0 507 3906.5 516.5Q3901.0 526 3895.0 546Q3886.0 578 3865.0 593.5Q3844.0 609 3799.0 609H3731.0Q3712.0 609 3701.5 602.0Q3691.0 595 3686.5 571.5Q3682.0 548 3682.0 499V100Q3682.0 68 3700.0 53.5Q3718.0 39 3757.0 29Q3769.0 26 3776.0 22.0Q3783.0 18 3783.0 10Q3783.0 3 3776.5 0.0Q3770.0 -3 3760.0 -3Q3736.0 -3 3712.0 -2.0Q3688.0 -1 3664.5 0.0Q3641.0 1 3619.0 1Q3597.0 1 3573.5 0.0Q3550.0 -1 3525.5 -2.5Q3501.0 -4 3477.0 -4ZM3995.0 -4Q3986.0 -4 3979.0 -0.5Q3972.0 3 3972.0 9Q3972.0 24 3997.0 29Q4035.0 37 4052.0 51.0Q4069.0 65 4069.0 97V551Q4069.0 584 4055.0 598.0Q4041.0 612 4002.0 620Q3977.0 625 3977.0 641Q3977.0 647 3984.0 650.5Q3991.0 654 4000.0 654Q4024.0 654 4047.0 653.0Q4070.0 652 4091.5 651.0Q4113.0 650 4135.0 650Q4156.0 650 4177.5 651.0Q4199.0 652 4222.0 653.0Q4245.0 654 4269.0 654Q4279.0 654 4285.0 650.5Q4291.0 647 4291.0 640Q4291.0 632 4284.5 627.5Q4278.0 623 4266.0 620Q4226.0 610 4212.0 596.0Q4198.0 582 4198.0 550V98Q4198.0 67 4214.5 53.0Q4231.0 39 4269.0 29Q4282.0 26 4288.5 22.0Q4295.0 18 4295.0 10Q4295.0 3 4289.0 0.0Q4283.0 -3 4273.0 -3Q4249.0 -3 4225.0 -2.0Q4201.0 -1 4178.5 0.0Q4156.0 1 4135.0 1Q4113.0 1 4090.0 0.0Q4067.0 -1 4043.0 -2.5Q4019.0 -4 3995.0 -4ZM4687.0 -14Q4619.0 -14 4557.0 9.5Q4495.0 33 4447.5 76.5Q4400.0 120 4372.5 180.5Q4345.0 241 4345.0 315Q4345.0 383 4367.5 445.5Q4390.0 508 4434.5 557.0Q4479.0 606 4544.5 635.0Q4610.0 664 4696.0 664Q4764.0 664 4825.5 640.5Q4887.0 617 4935.0 573.5Q4983.0 530 5010.5 469.5Q5038.0 409 5038.0 335Q5038.0 268 5015.5 205.0Q4993.0 142 4948.5 93.0Q4904.0 44 4838.5 15.0Q4773.0 -14 4687.0 -14ZM4704.0 30Q4767.0 30 4809.5 62.0Q4852.0 94 4873.5 151.5Q4895.0 209 4895.0 284Q4895.0 348 4882.0 408.0Q4869.0 468 4842.0 515.5Q4815.0 563 4774.5 591.0Q4734.0 619 4678.0 619Q4615.0 619 4572.5 587.0Q4530.0 555 4509.0 498.0Q4488.0 441 4488.0 366Q4488.0 302 4501.0 242.0Q4514.0 182 4540.5 134.0Q4567.0 86 4607.5 58.0Q4648.0 30 4704.0 30ZM5748.0 -18Q5736.0 -18 5708.0 -3.0Q5680.0 12 5651.0 49Q5634.0 68 5609.5 95.5Q5585.0 123 5555.5 156.0Q5526.0 189 5494.0 225.0Q5462.0 261 5430.5 297.0Q5399.0 333 5369.0 366.0Q5339.0 399 5314.0 426.5Q5289.0 454 5272.0 474Q5268.0 479 5263.5 482.5Q5259.0 486 5256.0 486Q5252.0 486 5250.0 479.0Q5248.0 472 5248.0 466Q5248.0 420 5248.5 357.0Q5249.0 294 5249.0 229.0Q5249.0 164 5249.0 109Q5249.0 78 5267.0 58.0Q5285.0 38 5324.0 29Q5336.0 27 5344.5 22.5Q5353.0 18 5353.0 10Q5353.0 3 5345.0 0.0Q5337.0 -3 5327.0 -3Q5300.0 -3 5284.0 -2.0Q5268.0 -1 5255.0 0.0Q5242.0 1 5222.0 1Q5201.0 1 5184.5 0.0Q5168.0 -1 5155.0 -2.5Q5142.0 -4 5130.0 -4Q5120.0 -4 5112.0 -0.5Q5104.0 3 5104.0 9Q5104.0 17 5111.5 21.5Q5119.0 26 5132.0 30Q5158.0 38 5170.5 59.5Q5183.0 81 5186.0 111Q5190.0 149 5194.0 210.5Q5198.0 272 5201.5 349.0Q5205.0 426 5205.0 508Q5205.0 560 5178.5 583.0Q5152.0 606 5112.0 620Q5105.0 622 5094.0 628.0Q5083.0 634 5083.0 643Q5083.0 652 5091.0 655.0Q5099.0 658 5108.0 658Q5129.0 658 5150.0 657.0Q5171.0 656 5192.5 655.5Q5214.0 655 5237.5 654.0Q5261.0 653 5288.0 653Q5297.0 653 5301.5 649.5Q5306.0 646 5310.0 640Q5326.0 621 5351.0 592.5Q5376.0 564 5405.5 529.5Q5435.0 495 5467.5 457.0Q5500.0 419 5532.5 381.0Q5565.0 343 5595.0 308.5Q5625.0 274 5649.5 245.5Q5674.0 217 5690.0 199Q5694.0 195 5699.5 189.0Q5705.0 183 5709.0 183Q5717.0 183 5718.0 200Q5718.0 226 5718.0 266.5Q5718.0 307 5718.5 356.5Q5719.0 406 5718.5 458.0Q5718.0 510 5717.0 558Q5716.0 583 5696.5 597.5Q5677.0 612 5648.0 618Q5636.0 621 5625.5 625.5Q5615.0 630 5615.0 639Q5615.0 646 5625.5 649.0Q5636.0 652 5645.0 652Q5665.0 652 5678.5 652.0Q5692.0 652 5704.0 651.5Q5716.0 651 5729.0 651Q5751.0 651 5765.0 651.5Q5779.0 652 5795.5 653.0Q5812.0 654 5839.0 654Q5851.0 654 5858.5 650.5Q5866.0 647 5866.0 641Q5866.0 626 5837.0 620Q5802.0 613 5787.5 601.0Q5773.0 589 5772.0 561Q5772.0 536 5771.5 497.0Q5771.0 458 5770.0 412.0Q5769.0 366 5767.5 318.0Q5766.0 270 5765.5 224.0Q5765.0 178 5765.0 141Q5765.0 117 5767.0 92.0Q5769.0 67 5771.5 47.5Q5774.0 28 5774.0 20Q5774.0 -2 5767.0 -10.0Q5760.0 -18 5748.0 -18Z" transform="matrix(0.022120 0 0 -0.022120 84.79 391.38)" fill="#15130f"/></svg>