<svg xmlns="http://www.w3.org/2000/svg" viewBox="0 0 300 446"><rect width="300" height="446" fill="#f4ecd8"/><rect x="20.0" y="25.5" width="260" height="395" rx="20.3" fill="#f4ecd8" stroke="#15130f" stroke-width="1.5"/><rect x="36.9" y="42.4" width="226.2" height="354.7" fill="none" stroke="#15130f" stroke-width="0.7"/><g fill="none" stroke="#15130f" stroke-width="0.65" stroke-opacity="0.72" stroke-linecap="round" stroke-linejoin="round"><path d="M150.0,42.4 L263.1,206.5 L150.0,370.6 L36.9,206.5 Z"/></g><path d="M36.9,370.6 H263.1 V397.1 H36.9 Z" fill="#c7dcf0"/><g fill="none" stroke="#15130f" stroke-width="0.8"><line x1="36.9" y1="370.6" x2="263.1" y2="370.6"/><line x1="61.6" y1="370.6" x2="61.6" y2="397.1"/><line x1="238.4" y1="370.6" x2="238.4" y2="397.1"/></g><rect x="141.4" y="34.4" width="17.2" height="19.0" fill="#c7dcf0" stroke="#15130f" stroke-width="0.8"/><path d="M649.0 1092V235L647.0 193L657.0 137Q686.0 59 825.0 52Q867.0 50 867.0 28Q867.0 -7 780.0 -7Q761.0 -7 652.0 2Q595.0 7 494.0 7Q394.0 7 322.0 -2Q293.0 -5 280.0 -5Q255.0 -5 255.0 20Q255.0 41 281.0 45Q384.0 61 415.0 92.0Q446.0 123 446.0 210L445.0 248V1010Q445.0 1115 363.0 1115Q331.0 1115 306.0 1104L281.0 1093Q270.0 1089 261.0 1089Q235.0 1089 235.0 1113Q235.0 1137 260.0 1150.0Q285.0 1163 362.0 1180Q506.0 1211 567.0 1267L614.0 1310Q625.0 1320 641.0 1320Q661.0 1320 661.0 1282Q661.0 1271 659.0 1243L651.0 1153Q649.0 1126 649.0 1092Z" transform="matrix(0.006858 0 0 -0.006858 146.22 49.18)" fill="#15130f"/><path d="M542.0 980Q542.0 1081 524.0 1150.5Q506.0 1220 468.5 1265.0Q431.0 1310 374.0 1310Q309.0 1310 251.5 1260.0Q194.0 1210 140.5 1125.0Q87.0 1040 87.0 960H50.0V1410H87.0Q87.0 1385 110.5 1358.5Q134.0 1332 164.0 1332Q194.0 1332 249.0 1371.0Q304.0 1410 374.0 1410Q483.0 1410 568.5 1352.0Q654.0 1294 698.0 1210.5Q742.0 1127 742.0 1000Q742.0 883 691.0 779Q660.0 716 617.0 675H1060.0V1200Q1060.0 1250 1020.0 1305.0Q980.0 1360 910.0 1360H860.0V1400H1460.0V1360H1410.0Q1340.0 1360 1300.0 1305.0Q1260.0 1250 1260.0 1200V200Q1260.0 150 1300.0 95.0Q1340.0 40 1410.0 40H1460.0V0H860.0V40H910.0Q980.0 40 1020.0 95.0Q1060.0 150 1060.0 200V575H225.0Q430.0 680 486.0 784.5Q542.0 889 542.0 980Z" transform="matrix(0.009268 0 0 -0.009268 42.25 390.40)" fill="#15130f"/><path d="M917.0 -500Q917.0 362 797.0 836.0Q677.0 1310 467.0 1310Q411.0 1310 358.5 1265.0Q306.0 1220 278.0 1135.5Q250.0 1051 250.0 960Q250.0 869 278.0 784.5Q306.0 700 358.5 655.0Q411.0 610 467.0 610Q524.0 610 577.0 655Q605.0 680 641.0 680Q670.0 680 703.0 663Q734.0 647 734.0 628Q734.0 601 677.0 568Q576.0 510 467.0 510Q359.0 510 258.5 568.0Q158.0 626 104.0 734.5Q50.0 843 50.0 960Q50.0 1077 104.0 1185.5Q158.0 1294 258.5 1352.0Q359.0 1410 467.0 1410Q760.0 1410 939.0 959Q983.0 845 1017.0 696Q1051.0 845 1096.0 959Q1274.0 1410 1567.0 1410Q1675.0 1410 1775.5 1352.0Q1876.0 1294 1930.0 1185.5Q1984.0 1077 1984.0 960Q1984.0 843 1930.0 734.5Q1876.0 626 1775.5 568.0Q1675.0 510 1567.0 510Q1458.0 510 1357.0 568Q1300.0 601 1300.0 628Q1300.0 647 1331.0 663Q1364.0 680 1393.0 680Q1429.0 680 1457.0 655Q1510.0 610 1567.0 610Q1623.0 610 1675.5 655.0Q1728.0 700 1756.0 784.5Q1784.0 869 1784.0 960Q1784.0 1051 1756.0 1135.5Q1728.0 1220 1675.5 1265.0Q1623.0 1310 1567.0 1310Q1357.0 1310 1237.0 836.0Q1117.0 362 1117.0 -500Z" transform="matrix(0.009268 0 0 -0.009268 241.32 388.08)" fill="#15130f"/><path d="M49.0 -5Q38.0 -5 31.5 -1.0Q25.0 3 25.0 9Q25.0 22 51.0 28Q87.0 37 102.5 50.5Q118.0 64 118.0 97V550Q118.0 584 104.5 598.0Q91.0 612 54.0 620Q40.0 623 34.0 628.5Q28.0 634 28.0 640Q28.0 647 34.5 650.5Q41.0 654 52.0 654Q81.0 654 107.5 653.0Q134.0 652 159.0 651.0Q184.0 650 211.0 650Q257.0 650 308.5 651.0Q360.0 652 401.0 652Q434.0 653 455.5 655.0Q477.0 657 481.0 657Q488.0 657 495.5 654.0Q503.0 651 504.0 642Q508.0 609 514.0 577.0Q520.0 545 520.0 521Q520.0 512 515.5 507.5Q511.0 503 506.0 503Q501.0 503 497.0 506.5Q493.0 510 490.0 517Q482.0 540 475.0 557.0Q468.0 574 459.0 583Q446.0 597 429.0 605.0Q412.0 613 388.0 613H295.0Q277.0 613 262.0 602.5Q247.0 592 247.0 573V377Q247.0 366 253.5 360.0Q260.0 354 269.0 354H361.0Q388.0 354 399.5 369.0Q411.0 384 419.0 410Q426.0 430 438.0 430Q443.0 430 447.0 424.5Q451.0 419 451.0 410Q450.0 400 449.0 386.0Q448.0 372 447.5 358.0Q447.0 344 447.0 333Q447.0 321 447.5 306.0Q448.0 291 448.5 276.5Q449.0 262 450.0 252Q451.0 241 448.5 235.0Q446.0 229 440.0 229Q424.0 229 417.0 257Q409.0 285 398.0 299.0Q387.0 313 368.0 313H274.0Q261.0 313 254.0 308.0Q247.0 303 247.0 289V99Q247.0 66 261.0 53.0Q275.0 40 304.0 40H386.0Q411.0 40 431.5 45.0Q452.0 50 467.0 61Q484.0 73 497.5 93.5Q511.0 114 524.0 139Q528.0 147 532.0 149.5Q536.0 152 542.0 152Q547.0 151 549.5 146.0Q552.0 141 552.0 135Q552.0 121 547.0 99.0Q542.0 77 534.5 53.5Q527.0 30 521.0 10Q518.0 3 513.0 -0.5Q508.0 -4 501.0 -4Q477.0 -4 439.5 -3.5Q402.0 -3 358.0 -2.0Q314.0 -1 268.0 -0.5Q222.0 0 180.0 0Q159.0 0 137.5 -1.0Q116.0 -2 94.0 -3.5Q72.0 -5 49.0 -5ZM1247.0 -18Q1235.0 -18 1207.0 -3.0Q1179.0 12 1150.0 49Q1133.0 68 1108.5 95.5Q1084.0 123 1054.5 156.0Q1025.0 189 993.0 225.0Q961.0 261 929.5 297.0Q898.0 333 868.0 366.0Q838.0 399 813.0 426.5Q788.0 454 771.0 474Q767.0 479 762.5 482.5Q758.0 486 755.0 486Q751.0 486 749.0 479.0Q747.0 472 747.0 466Q747.0 420 747.5 357.0Q748.0 294 748.0 229.0Q748.0 164 748.0 109Q748.0 78 766.0 58.0Q784.0 38 823.0 29Q835.0 27 843.5 22.5Q852.0 18 852.0 10Q852.0 3 844.0 0.0Q836.0 -3 826.0 -3Q799.0 -3 783.0 -2.0Q767.0 -1 754.0 0.0Q741.0 1 721.0 1Q700.0 1 683.5 0.0Q667.0 -1 654.0 -2.5Q641.0 -4 629.0 -4Q619.0 -4 611.0 -0.5Q603.0 3 603.0 9Q603.0 17 610.5 21.5Q618.0 26 631.0 30Q657.0 38 669.5 59.5Q682.0 81 685.0 111Q689.0 149 693.0 210.5Q697.0 272 700.5 349.0Q704.0 426 704.0 508Q704.0 560 677.5 583.0Q651.0 606 611.0 620Q604.0 622 593.0 628.0Q582.0 634 582.0 643Q582.0 652 590.0 655.0Q598.0 658 607.0 658Q628.0 658 649.0 657.0Q670.0 656 691.5 655.5Q713.0 655 736.5 654.0Q760.0 653 787.0 653Q796.0 653 800.5 649.5Q805.0 646 809.0 640Q825.0 621 850.0 592.5Q875.0 564 904.5 529.5Q934.0 495 966.5 457.0Q999.0 419 1031.5 381.0Q1064.0 343 1094.0 308.5Q1124.0 274 1148.5 245.5Q1173.0 217 1189.0 199Q1193.0 195 1198.5 189.0Q1204.0 183 1208.0 183Q1216.0 183 1217.0 200Q1217.0 226 1217.0 266.5Q1217.0 307 1217.5 356.5Q1218.0 406 1217.5 458.0Q1217.0 510 1216.0 558Q1215.0 583 1195.5 597.5Q1176.0 612 1147.0 618Q1135.0 621 1124.5 625.5Q1114.0 630 1114.0 639Q1114.0 646 1124.5 649.0Q1135.0 652 1144.0 652Q1164.0 652 1177.5 652.0Q1191.0 652 1203.0 651.5Q1215.0 651 1228.0 651Q1250.0 651 1264.0 651.5Q1278.0 652 1294.5 653.0Q1311.0 654 1338.0 654Q1350.0 654 1357.5 650.5Q1365.0 647 1365.0 641Q1365.0 626 1336.0 620Q1301.0 613 1286.5 601.0Q1272.0 589 1271.0 561Q1271.0 536 1270.5 497.0Q1270.0 458 1269.0 412.0Q1268.0 366 1266.5 318.0Q1265.0 270 1264.5 224.0Q1264.0 178 1264.0 141Q1264.0 117 1266.0 92.0Q1268.0 67 1270.5 47.5Q1273.0 28 1273.0 20Q1273.0 -2 1266.0 -10.0Q1259.0 -18 1247.0 -18ZM1584.0 -4Q1574.0 -4 1566.5 -0.5Q1559.0 3 1559.0 9Q1559.0 17 1566.0 22.0Q1573.0 27 1586.0 29Q1624.0 37 1642.0 51.5Q1660.0 66 1660.0 99V504Q1660.0 545 1658.0 566.0Q1656.0 587 1652.5 594.5Q1649.0 602 1642.0 603Q1632.0 607 1617.0 608.0Q1602.0 609 1588.0 609H1557.0Q1528.0 609 1501.0 595.5Q1474.0 582 1459.0 559Q1455.0 553 1446.5 542.0Q1438.0 531 1428.5 522.0Q1419.0 513 1409.0 513Q1402.0 513 1399.5 518.0Q1397.0 523 1397.0 529Q1397.0 541 1403.0 553Q1420.0 587 1428.5 612.5Q1437.0 638 1440.0 673Q1442.0 688 1448.5 692.5Q1455.0 697 1462.0 697Q1468.0 697 1476.5 684.5Q1485.0 672 1492.0 664Q1501.0 655 1524.0 650.5Q1547.0 646 1563.0 646L1932.0 647Q1960.0 647 1979.0 651.5Q1998.0 656 2009.0 661Q2024.0 670 2033.0 679.5Q2042.0 689 2054.0 689Q2059.0 689 2061.5 683.5Q2064.0 678 2064.0 670Q2064.0 665 2063.0 658.5Q2062.0 652 2061.0 647Q2057.0 628 2053.0 613.5Q2049.0 599 2046.5 586.5Q2044.0 574 2044.0 558V541Q2044.0 527 2040.0 517.0Q2036.0 507 2027.0 507Q2019.0 507 2013.5 516.5Q2008.0 526 2002.0 546Q1993.0 578 1972.0 593.5Q1951.0 609 1906.0 609H1838.0Q1819.0 609 1808.5 602.0Q1798.0 595 1793.5 571.5Q1789.0 548 1789.0 499V100Q1789.0 68 1807.0 53.5Q1825.0 39 1864.0 29Q1876.0 26 1883.0 22.0Q1890.0 18 1890.0 10Q1890.0 3 1883.5 0.0Q1877.0 -3 1867.0 -3Q1843.0 -3 1819.0 -2.0Q1795.0 -1 1771.5 0.0Q1748.0 1 1726.0 1Q1704.0 1 1680.5 0.0Q1657.0 -1 1632.5 -2.5Q1608.0 -4 1584.0 -4ZM2111.0 -5Q2100.0 -5 2093.5 -1.0Q2087.0 3 2087.0 9Q2087.0 22 2113.0 28Q2149.0 37 2164.5 50.5Q2180.0 64 2180.0 97V550Q2180.0 584 2166.5 598.0Q2153.0 612 2116.0 620Q2102.0 623 2096.0 628.5Q2090.0 634 2090.0 640Q2090.0 647 2096.5 650.5Q2103.0 654 2114.0 654Q2143.0 654 2169.5 653.0Q2196.0 652 2221.0 651.0Q2246.0 650 2273.0 650Q2319.0 650 2370.5 651.0Q2422.0 652 2463.0 652Q2496.0 653 2517.5 655.0Q2539.0 657 2543.0 657Q2550.0 657 2557.5 654.0Q2565.0 651 2566.0 642Q2570.0 609 2576.0 577.0Q2582.0 545 2582.0 521Q2582.0 512 2577.5 507.5Q2573.0 503 2568.0 503Q2563.0 503 2559.0 506.5Q2555.0 510 2552.0 517Q2544.0 540 2537.0 557.0Q2530.0 574 2521.0 583Q2508.0 597 2491.0 605.0Q2474.0 613 2450.0 613H2357.0Q2339.0 613 2324.0 602.5Q2309.0 592 2309.0 573V377Q2309.0 366 2315.5 360.0Q2322.0 354 2331.0 354H2423.0Q2450.0 354 2461.5 369.0Q2473.0 384 2481.0 410Q2488.0 430 2500.0 430Q2505.0 430 2509.0 424.5Q2513.0 419 2513.0 410Q2512.0 400 2511.0 386.0Q2510.0 372 2509.5 358.0Q2509.0 344 2509.0 333Q2509.0 321 2509.5 306.0Q2510.0 291 2510.5 276.5Q2511.0 262 2512.0 252Q2513.0 241 2510.5 235.0Q2508.0 229 2502.0 229Q2486.0 229 2479.0 257Q2471.0 285 2460.0 299.0Q2449.0 313 2430.0 313H2336.0Q2323.0 313 2316.0 308.0Q2309.0 303 2309.0 289V99Q2309.0 66 2323.0 53.0Q2337.0 40 2366.0 40H2448.0Q2473.0 40 2493.5 45.0Q2514.0 50 2529.0 61Q2546.0 73 2559.5 93.5Q2573.0 114 2586.0 139Q2590.0 147 2594.0 149.5Q2598.0 152 2604.0 152Q2609.0 151 2611.5 146.0Q2614.0 141 2614.0 135Q2614.0 121 2609.0 99.0Q2604.0 77 2596.5 53.5Q2589.0 30 2583.0 10Q2580.0 3 2575.0 -0.5Q2570.0 -4 2563.0 -4Q2539.0 -4 2501.5 -3.5Q2464.0 -3 2420.0 -2.0Q2376.0 -1 2330.0 -0.5Q2284.0 0 2242.0 0Q2221.0 0 2199.5 -1.0Q2178.0 -2 2156.0 -3.5Q2134.0 -5 2111.0 -5ZM3275.0 -21Q3232.0 -21 3200.0 -11.5Q3168.0 -2 3145.0 16.0Q3122.0 34 3103.0 58Q3081.0 88 3060.0 116.5Q3039.0 145 3017.5 179.5Q2996.0 214 2970.0 262Q2957.0 285 2937.0 296Q2924.0 303 2910.5 306.0Q2897.0 309 2888.0 309Q2882.0 310 2879.0 304.0Q2876.0 298 2876.0 289V103Q2876.0 72 2892.5 55.0Q2909.0 38 2949.0 29Q2962.0 27 2968.0 22.5Q2974.0 18 2974.0 10Q2974.0 3 2968.5 0.0Q2963.0 -3 2952.0 -3Q2929.0 -3 2905.0 -1.5Q2881.0 0 2858.5 1.0Q2836.0 2 2816.0 2Q2794.0 2 2770.5 1.0Q2747.0 0 2723.0 -2.0Q2699.0 -4 2675.0 -4Q2666.0 -4 2659.0 -0.5Q2652.0 3 2652.0 9Q2652.0 24 2677.0 29Q2715.0 37 2731.0 51.0Q2747.0 65 2747.0 98V540Q2747.0 569 2742.5 584.5Q2738.0 600 2725.0 608.0Q2712.0 616 2686.0 620Q2672.0 622 2666.0 628.0Q2660.0 634 2660.0 640Q2660.0 647 2666.5 650.5Q2673.0 654 2684.0 654Q2714.0 654 2732.0 653.0Q2750.0 652 2766.5 650.5Q2783.0 649 2806.0 649Q2828.0 649 2845.0 651.0Q2862.0 653 2883.0 655.0Q2904.0 657 2937.0 657Q3052.0 657 3113.0 617.0Q3174.0 577 3174.0 495Q3174.0 450 3155.0 418.5Q3136.0 387 3107.5 367.0Q3079.0 347 3049.0 336Q3045.0 335 3045.5 331.0Q3046.0 327 3049.0 324Q3079.0 278 3107.5 236.5Q3136.0 195 3167.5 158.0Q3199.0 121 3236.0 87Q3267.0 58 3299.5 52.5Q3332.0 47 3367.0 47Q3382.0 47 3382.0 32Q3382.0 12 3367.0 0.5Q3352.0 -11 3327.5 -16.0Q3303.0 -21 3275.0 -21ZM2919.0 338Q2960.0 338 2987.5 356.5Q3015.0 375 3029.5 406.0Q3044.0 437 3044.0 475Q3044.0 520 3033.0 551.5Q3022.0 583 2995.5 600.5Q2969.0 618 2923.0 618Q2897.0 618 2887.5 599.5Q2878.0 581 2877.0 525Q2876.0 502 2876.0 464.5Q2876.0 427 2876.0 375Q2876.0 353 2887.5 345.5Q2899.0 338 2919.0 338ZM3419.0 -4Q3410.0 -4 3403.0 -0.5Q3396.0 3 3396.0 9Q3396.0 24 3421.0 29Q3459.0 37 3475.0 51.0Q3491.0 65 3491.0 98V538Q3491.0 576 3478.5 594.0Q3466.0 612 3430.0 620Q3416.0 623 3410.0 628.5Q3404.0 634 3404.0 640Q3404.0 647 3410.5 650.5Q3417.0 654 3428.0 654Q3452.0 654 3472.5 653.5Q3493.0 653 3512.0 652.0Q3531.0 651 3551.0 651Q3573.0 651 3592.5 653.0Q3612.0 655 3632.5 657.0Q3653.0 659 3680.0 659Q3799.0 659 3870.0 609.0Q3941.0 559 3941.0 471Q3941.0 409 3915.5 356.5Q3890.0 304 3837.5 272.0Q3785.0 240 3705.0 240Q3680.0 240 3667.0 247.5Q3654.0 255 3654.0 264Q3654.0 270 3660.5 274.5Q3667.0 279 3672.0 279Q3681.0 279 3689.5 277.5Q3698.0 276 3715.0 276Q3762.0 276 3786.5 324.0Q3811.0 372 3811.0 452Q3811.0 540 3775.5 580.5Q3740.0 621 3680.0 621Q3652.0 621 3636.5 609.5Q3621.0 598 3621.0 573L3620.0 104Q3620.0 71 3636.5 54.5Q3653.0 38 3693.0 29Q3706.0 27 3712.0 22.5Q3718.0 18 3718.0 10Q3718.0 3 3712.5 0.0Q3707.0 -3 3696.0 -3Q3673.0 -3 3649.0 -1.5Q3625.0 0 3602.5 1.0Q3580.0 2 3560.0 2Q3538.0 2 3514.5 1.0Q3491.0 0 3467.0 -2.0Q3443.0 -4 3419.0 -4ZM4608.0 -21Q4565.0 -21 4533.0 -11.5Q4501.0 -2 4478.0 16.0Q4455.0 34 4436.0 58Q4414.0 88 4393.0 116.5Q4372.0 145 4350.5 179.5Q4329.0 214 4303.0 262Q4290.0 285 4270.0 296Q4257.0 303 4243.5 306.0Q4230.0 309 4221.0 309Q4215.0 310 4212.0 304.0Q4209.0 298 4209.0 289V103Q4209.0 72 4225.5 55.0Q4242.0 38 4282.0 29Q4295.0 27 4301.0 22.5Q4307.0 18 4307.0 10Q4307.0 3 4301.5 0.0Q4296.0 -3 4285.0 -3Q4262.0 -3 4238.0 -1.5Q4214.0 0 4191.5 1.0Q4169.0 2 4149.0 2Q4127.0 2 4103.5 1.0Q4080.0 0 4056.0 -2.0Q4032.0 -4 4008.0 -4Q3999.0 -4 3992.0 -0.5Q3985.0 3 3985.0 9Q3985.0 24 4010.0 29Q4048.0 37 4064.0 51.0Q4080.0 65 4080.0 98V540Q4080.0 569 4075.5 584.5Q4071.0 600 4058.0 608.0Q4045.0 616 4019.0 620Q4005.0 622 3999.0 628.0Q3993.0 634 3993.0 640Q3993.0 647 3999.5 650.5Q4006.0 654 4017.0 654Q4047.0 654 4065.0 653.0Q4083.0 652 4099.5 650.5Q4116.0 649 4139.0 649Q4161.0 649 4178.0 651.0Q4195.0 653 4216.0 655.0Q4237.0 657 4270.0 657Q4385.0 657 4446.0 617.0Q4507.0 577 4507.0 495Q4507.0 450 4488.0 418.5Q4469.0 387 4440.5 367.0Q4412.0 347 4382.0 336Q4378.0 335 4378.5 331.0Q4379.0 327 4382.0 324Q4412.0 278 4440.5 236.5Q4469.0 195 4500.5 158.0Q4532.0 121 4569.0 87Q4600.0 58 4632.5 52.5Q4665.0 47 4700.0 47Q4715.0 47 4715.0 32Q4715.0 12 4700.0 0.5Q4685.0 -11 4660.5 -16.0Q4636.0 -21 4608.0 -21ZM4252.0 338Q4293.0 338 4320.5 356.5Q4348.0 375 4362.5 406.0Q4377.0 437 4377.0 475Q4377.0 520 4366.0 551.5Q4355.0 583 4328.5 600.5Q4302.0 618 4256.0 618Q4230.0 618 4220.5 599.5Q4211.0 581 4210.0 525Q4209.0 502 4209.0 464.5Q4209.0 427 4209.0 375Q4209.0 353 4220.5 345.5Q4232.0 338 4252.0 338ZM4750.0 -4Q4741.0 -4 4734.0 -0.5Q4727.0 3 4727.0 9Q4727.0 24 4752.0 29Q4790.0 37 4807.0 51.0Q4824.0 65 4824.0 97V551Q4824.0 584 4810.0 598.0Q4796.0 612 4757.0 620Q4732.0 625 4732.0 641Q4732.0 647 4739.0 650.5Q4746.0 654 4755.0 654Q4779.0 654 4802.0 653.0Q4825.0 652 4846.5 651.0Q4868.0 650 4890.0 650Q4911.0 650 4932.5 651.0Q4954.0 652 4977.0 653.0Q5000.0 654 5024.0 654Q5034.0 654 5040.0 650.5Q5046.0 647 5046.0 640Q5046.0 632 5039.5 627.5Q5033.0 623 5021.0 620Q4981.0 610 4967.0 596.0Q4953.0 582 4953.0 550V98Q4953.0 67 4969.5 53.0Q4986.0 39 5024.0 29Q5037.0 26 5043.5 22.0Q5050.0 18 5050.0 10Q5050.0 3 5044.0 0.0Q5038.0 -3 5028.0 -3Q5004.0 -3 4980.0 -2.0Q4956.0 -1 4933.5 0.0Q4911.0 1 4890.0 1Q4868.0 1 4845.0 0.0Q4822.0 -1 4798.0 -2.5Q4774.0 -4 4750.0 -4ZM5280.0 -15Q5237.0 -15 5198.5 -4.0Q5160.0 7 5128.0 29Q5122.0 34 5117.0 39.5Q5112.0 45 5109.0 52Q5101.0 77 5098.0 113.5Q5095.0 150 5096.0 184Q5096.0 191 5101.5 194.0Q5107.0 197 5115.0 197Q5123.0 197 5127.5 194.5Q5132.0 192 5134.0 185Q5156.0 110 5198.0 68.0Q5240.0 26 5293.0 26Q5326.0 26 5349.0 41.0Q5372.0 56 5384.0 80.0Q5396.0 104 5396.0 132Q5396.0 167 5383.5 190.0Q5371.0 213 5346.0 231.5Q5321.0 250 5283.0 271Q5242.0 295 5203.0 321.5Q5164.0 348 5139.0 384.5Q5114.0 421 5114.0 475Q5114.0 531 5142.5 573.5Q5171.0 616 5222.0 640.0Q5273.0 664 5340.0 664Q5377.0 664 5409.0 656.0Q5441.0 648 5460.0 640Q5471.0 636 5476.5 630.0Q5482.0 624 5485.0 611Q5491.0 590 5495.5 561.0Q5500.0 532 5500.0 500Q5500.0 488 5482.0 488Q5474.0 488 5466.0 492.0Q5458.0 496 5456.0 503Q5438.0 561 5406.5 591.0Q5375.0 621 5329.0 621Q5298.0 621 5276.0 610.5Q5254.0 600 5241.0 578.5Q5228.0 557 5228.0 523Q5228.0 497 5245.5 475.0Q5263.0 453 5294.5 432.0Q5326.0 411 5365.0 386Q5413.0 358 5445.5 329.5Q5478.0 301 5495.0 266.5Q5512.0 232 5512.0 185Q5512.0 119 5483.0 74.5Q5454.0 30 5402.0 7.5Q5350.0 -15 5280.0 -15ZM5599.0 -5Q5588.0 -5 5581.5 -1.0Q5575.0 3 5575.0 9Q5575.0 22 5601.0 28Q5637.0 37 5652.5 50.5Q5668.0 64 5668.0 97V550Q5668.0 584 5654.5 598.0Q5641.0 612 5604.0 620Q5590.0 623 5584.0 628.5Q5578.0 634 5578.0 640Q5578.0 647 5584.5 650.5Q5591.0 654 5602.0 654Q5631.0 654 5657.5 653.0Q5684.0 652 5709.0 651.0Q5734.0 650 5761.0 650Q5807.0 650 5858.5 651.0Q5910.0 652 5951.0 652Q5984.0 653 6005.5 655.0Q6027.0 657 6031.0 657Q6038.0 657 6045.5 654.0Q6053.0 651 6054.0 642Q6058.0 609 6064.0 577.0Q6070.0 545 6070.0 521Q6070.0 512 6065.5 507.5Q6061.0 503 6056.0 503Q6051.0 503 6047.0 506.5Q6043.0 510 6040.0 517Q6032.0 540 6025.0 557.0Q6018.0 574 6009.0 583Q5996.0 597 5979.0 605.0Q5962.0 613 5938.0 613H5845.0Q5827.0 613 5812.0 602.5Q5797.0 592 5797.0 573V377Q5797.0 366 5803.5 360.0Q5810.0 354 5819.0 354H5911.0Q5938.0 354 5949.5 369.0Q5961.0 384 5969.0 410Q5976.0 430 5988.0 430Q5993.0 430 5997.0 424.5Q6001.0 419 6001.0 410Q6000.0 400 5999.0 386.0Q5998.0 372 5997.5 358.0Q5997.0 344 5997.0 333Q5997.0 321 5997.5 306.0Q5998.0 291 5998.5 276.5Q5999.0 262 6000.0 252Q6001.0 241 5998.5 235.0Q5996.0 229 5990.0 229Q5974.0 229 5967.0 257Q5959.0 285 5948.0 299.0Q5937.0 313 5918.0 313H5824.0Q5811.0 313 5804.0 308.0Q5797.0 303 5797.0 289V99Q5797.0 66 5811.0 53.0Q5825.0 40 5854.0 40H5936.0Q5961.0 40 5981.5 45.0Q6002.0 50 6017.0 61Q6034.0 73 6047.5 93.5Q6061.0 114 6074.0 139Q6078.0 147 6082.0 149.5Q6086.0 152 6092.0 152Q6097.0 151 6099.5 146.0Q6102.0 141 6102.0 135Q6102.0 121 6097.0 99.0Q6092.0 77 6084.5 53.5Q6077.0 30 6071.0 10Q6068.0 3 6063.0 -0.5Q6058.0 -4 6051.0 -4Q6027.0 -4 5989.5 -3.5Q5952.0 -3 5908.0 -2.0Q5864.0 -1 5818.0 -0.5Q5772.0 0 5730.0 0Q5709.0 0 5687.5 -1.0Q5666.0 -2 5644.0 -3.5Q5622.0 -5 5599.0 -5Z" transform="matrix(0.022120 0 0 -0.022120 82.24 391.34)" fill="#15130f"/></svg>