<svg xmlns="http://www.w3.org/2000/svg" viewBox="0 0 300 446"><rect width="300" height="446" fill="#f4ecd8"/><rect x="20.0" y="25.5" width="260" height="395" rx="20.3" fill="#f4ecd8" stroke="#15130f" stroke-width="1.5"/><rect x="36.9" y="42.4" width="226.2" height="354.7" fill="none" stroke="#15130f" stroke-width="0.7"/><g fill="none" stroke="#15130f" stroke-width="0.65" stroke-opacity="0.72" stroke-linecap="round" stroke-linejoin="round"><path d="M150.0,42.4 L263.1,206.5 L150.0,370.6 L36.9,206.5 Z"/></g><path d="M36.9,370.6 H263.1 V397.1 H36.9 Z" fill="#c7dcf0"/><g fill="none" stroke="#15130f" stroke-width="0.8"><line x1="36.9" y1="370.6" x2="263.1" y2="370.6"/><line x1="61.6" y1="370.6" x2="61.6" y2="397.1"/><line x1="238.4" y1="370.6" x2="238.4" y2="397.1"/></g><rect x="141.4" y="34.4" width="17.2" height="19.0" fill="#c7dcf0" stroke="#15130f" stroke-width="0.8"/><path d="M649.0 1092V235L647.0 193L657.0 137Q686.0 59 825.0 52Q867.0 50 867.0 28Q867.0 -7 780.0 -7Q761.0 -7 652.0 2Q595.0 7 494.0 7Q394.0 7 322.0 -2Q293.0 -5 280.0 -5Q255.0 -5 255.0 20Q255.0 41 281.0 45Q384.0 61 415.0 92.0Q446.0 123 446.0 210L445.0 248V1010Q445.0 1115 363.0 1115Q331.0 1115 306.0 1104L281.0 1093Q270.0 1089 261.0 1089Q235.0 1089 235.0 1113Q235.0 1137 260.0 1150.0Q285.0 1163 362.0 1180Q506.0 1211 567.0 1267L614.0 1310Q625.0 1320 641.0 1320Q661.0 1320 661.0 1282Q661.0 1271 659.0 1243L651.0 1153Q649.0 1126 649.0 1092ZM1673.0 1092V235L1671.0 193L1681.0 137Q1710.0 59 1849.0 52Q1891.0 50 1891.0 28Q1891.0 -7 1804.0 -7Q1785.0 -7 1676.0 2Q1619.0 7 1518.0 7Q1418.0 7 1346.0 -2Q1317.0 -5 1304.0 -5Q1279.0 -5 1279.0 20Q1279.0 41 1305.0 45Q1408.0 61 1439.0 92.0Q1470.0 123 1470.0 210L1469.0 248V1010Q1469.0 1115 1387.0 1115Q1355.0 1115 1330.0 1104L1305.0 1093Q1294.0 1089 1285.0 1089Q1259.0 1089 1259.0 1113Q1259.0 1137 1284.0 1150.0Q1309.0 1163 1386.0 1180Q1530.0 1211 1591.0 1267L1638.0 1310Q1649.0 1320 1665.0 1320Q1685.0 1320 1685.0 1282Q1685.0 1271 1683.0 1243L1675.0 1153Q1673.0 1126 1673.0 1092Z" transform="matrix(0.006024 0 0 -0.006024 143.60 48.63)" fill="#15130f"/><path d="M542.0 980Q542.0 1081 524.0 1150.5Q506.0 1220 468.5 1265.0Q431.0 1310 374.0 1310Q309.0 1310 251.5 1260.0Q194.0 1210 140.5 1125.0Q87.0 1040 87.0 960H50.0V1410H87.0Q87.0 1385 110.5 1358.5Q134.0 1332 164.0 1332Q194.0 1332 249.0 1371.0Q304.0 1410 374.0 1410Q483.0 1410 568.5 1352.0Q654.0 1294 698.0 1210.5Q742.0 1127 742.0 1000Q742.0 883 691.0 779Q660.0 716 617.0 675H1060.0V1200Q1060.0 1250 1020.0 1305.0Q980.0 1360 910.0 1360H860.0V1400H1460.0V1360H1410.0Q1340.0 1360 1300.0 1305.0Q1260.0 1250 1260.0 1200V200Q1260.0 150 1300.0 95.0Q1340.0 40 1410.0 40H1460.0V0H860.0V40H910.0Q980.0 40 1020.0 95.0Q1060.0 150 1060.0 200V575H225.0Q430.0 680 486.0 784.5Q542.0 889 542.0 980Z" transform="matrix(0.009268 0 0 -0.009268 42.25 390.40)" fill="#15130f"/><path d="M56.0 700 567.0 1430 833.0 968 1150.0 1420 1416.0 959 1733.0 1410 2033.0 891 1910.0 704 1662.0 1134 1345.0 682 1078.0 1143 762.0 692 495.0 1153 179.0 700ZM50.0 0 567.0 738 833.0 276 1150.0 728 1416.0 267 1733.0 718 2033.0 199 1910.0 12 1662.0 442 1345.0 -10 1078.0 451 762.0 0 495.0 461 173.0 0Z" transform="matrix(0.009217 0 0 -0.009217 241.15 390.41)" fill="#15130f"/><path d="M40.0 -4Q31.0 -4 24.0 -0.5Q17.0 3 17.0 9Q17.0 24 42.0 29Q80.0 37 97.0 51.0Q114.0 65 114.0 97V551Q114.0 584 100.0 598.0Q86.0 612 47.0 620Q22.0 625 22.0 641Q22.0 647 29.0 650.5Q36.0 654 45.0 654Q69.0 654 92.0 653.0Q115.0 652 136.5 651.0Q158.0 650 180.0 650Q201.0 650 222.5 651.0Q244.0 652 267.0 653.0Q290.0 654 314.0 654Q324.0 654 330.0 650.5Q336.0 647 336.0 640Q336.0 632 329.5 627.5Q323.0 623 311.0 620Q271.0 610 257.0 596.0Q243.0 582 243.0 550V98Q243.0 67 259.5 53.0Q276.0 39 314.0 29Q327.0 26 333.5 22.0Q340.0 18 340.0 10Q340.0 3 334.0 0.0Q328.0 -3 318.0 -3Q294.0 -3 270.0 -2.0Q246.0 -1 223.5 0.0Q201.0 1 180.0 1Q158.0 1 135.0 0.0Q112.0 -1 88.0 -2.5Q64.0 -4 40.0 -4ZM1032.0 -18Q1020.0 -18 992.0 -3.0Q964.0 12 935.0 49Q918.0 68 893.5 95.5Q869.0 123 839.5 156.0Q810.0 189 778.0 225.0Q746.0 261 714.5 297.0Q683.0 333 653.0 366.0Q623.0 399 598.0 426.5Q573.0 454 556.0 474Q552.0 479 547.5 482.5Q543.0 486 540.0 486Q536.0 486 534.0 479.0Q532.0 472 532.0 466Q532.0 420 532.5 357.0Q533.0 294 533.0 229.0Q533.0 164 533.0 109Q533.0 78 551.0 58.0Q569.0 38 608.0 29Q620.0 27 628.5 22.5Q637.0 18 637.0 10Q637.0 3 629.0 0.0Q621.0 -3 611.0 -3Q584.0 -3 568.0 -2.0Q552.0 -1 539.0 0.0Q526.0 1 506.0 1Q485.0 1 468.5 0.0Q452.0 -1 439.0 -2.5Q426.0 -4 414.0 -4Q404.0 -4 396.0 -0.5Q388.0 3 388.0 9Q388.0 17 395.5 21.5Q403.0 26 416.0 30Q442.0 38 454.5 59.5Q467.0 81 470.0 111Q474.0 149 478.0 210.5Q482.0 272 485.5 349.0Q489.0 426 489.0 508Q489.0 560 462.5 583.0Q436.0 606 396.0 620Q389.0 622 378.0 628.0Q367.0 634 367.0 643Q367.0 652 375.0 655.0Q383.0 658 392.0 658Q413.0 658 434.0 657.0Q455.0 656 476.5 655.5Q498.0 655 521.5 654.0Q545.0 653 572.0 653Q581.0 653 585.5 649.5Q590.0 646 594.0 640Q610.0 621 635.0 592.5Q660.0 564 689.5 529.5Q719.0 495 751.5 457.0Q784.0 419 816.5 381.0Q849.0 343 879.0 308.5Q909.0 274 933.5 245.5Q958.0 217 974.0 199Q978.0 195 983.5 189.0Q989.0 183 993.0 183Q1001.0 183 1002.0 200Q1002.0 226 1002.0 266.5Q1002.0 307 1002.5 356.5Q1003.0 406 1002.5 458.0Q1002.0 510 1001.0 558Q1000.0 583 980.5 597.5Q961.0 612 932.0 618Q920.0 621 909.5 625.5Q899.0 630 899.0 639Q899.0 646 909.5 649.0Q920.0 652 929.0 652Q949.0 652 962.5 652.0Q976.0 652 988.0 651.5Q1000.0 651 1013.0 651Q1035.0 651 1049.0 651.5Q1063.0 652 1079.5 653.0Q1096.0 654 1123.0 654Q1135.0 654 1142.5 650.5Q1150.0 647 1150.0 641Q1150.0 626 1121.0 620Q1086.0 613 1071.5 601.0Q1057.0 589 1056.0 561Q1056.0 536 1055.5 497.0Q1055.0 458 1054.0 412.0Q1053.0 366 1051.5 318.0Q1050.0 270 1049.5 224.0Q1049.0 178 1049.0 141Q1049.0 117 1051.0 92.0Q1053.0 67 1055.5 47.5Q1058.0 28 1058.0 20Q1058.0 -2 1051.0 -10.0Q1044.0 -18 1032.0 -18ZM1836.0 -18Q1824.0 -18 1796.0 -3.0Q1768.0 12 1739.0 49Q1722.0 68 1697.5 95.5Q1673.0 123 1643.5 156.0Q1614.0 189 1582.0 225.0Q1550.0 261 1518.5 297.0Q1487.0 333 1457.0 366.0Q1427.0 399 1402.0 426.5Q1377.0 454 1360.0 474Q1356.0 479 1351.5 482.5Q1347.0 486 1344.0 486Q1340.0 486 1338.0 479.0Q1336.0 472 1336.0 466Q1336.0 420 1336.5 357.0Q1337.0 294 1337.0 229.0Q1337.0 164 1337.0 109Q1337.0 78 1355.0 58.0Q1373.0 38 1412.0 29Q1424.0 27 1432.5 22.5Q1441.0 18 1441.0 10Q1441.0 3 1433.0 0.0Q1425.0 -3 1415.0 -3Q1388.0 -3 1372.0 -2.0Q1356.0 -1 1343.0 0.0Q1330.0 1 1310.0 1Q1289.0 1 1272.5 0.0Q1256.0 -1 1243.0 -2.5Q1230.0 -4 1218.0 -4Q1208.0 -4 1200.0 -0.5Q1192.0 3 1192.0 9Q1192.0 17 1199.5 21.5Q1207.0 26 1220.0 30Q1246.0 38 1258.5 59.5Q1271.0 81 1274.0 111Q1278.0 149 1282.0 210.5Q1286.0 272 1289.5 349.0Q1293.0 426 1293.0 508Q1293.0 560 1266.5 583.0Q1240.0 606 1200.0 620Q1193.0 622 1182.0 628.0Q1171.0 634 1171.0 643Q1171.0 652 1179.0 655.0Q1187.0 658 1196.0 658Q1217.0 658 1238.0 657.0Q1259.0 656 1280.5 655.5Q1302.0 655 1325.5 654.0Q1349.0 653 1376.0 653Q1385.0 653 1389.5 649.5Q1394.0 646 1398.0 640Q1414.0 621 1439.0 592.5Q1464.0 564 1493.5 529.5Q1523.0 495 1555.5 457.0Q1588.0 419 1620.5 381.0Q1653.0 343 1683.0 308.5Q1713.0 274 1737.5 245.5Q1762.0 217 1778.0 199Q1782.0 195 1787.5 189.0Q1793.0 183 1797.0 183Q1805.0 183 1806.0 200Q1806.0 226 1806.0 266.5Q1806.0 307 1806.5 356.5Q1807.0 406 1806.5 458.0Q1806.0 510 1805.0 558Q1804.0 583 1784.5 597.5Q1765.0 612 1736.0 618Q1724.0 621 1713.5 625.5Q1703.0 630 1703.0 639Q1703.0 646 1713.5 649.0Q1724.0 652 1733.0 652Q1753.0 652 1766.5 652.0Q1780.0 652 1792.0 651.5Q1804.0 651 1817.0 651Q1839.0 651 1853.0 651.5Q1867.0 652 1883.5 653.0Q1900.0 654 1927.0 654Q1939.0 654 1946.5 650.5Q1954.0 647 1954.0 641Q1954.0 626 1925.0 620Q1890.0 613 1875.5 601.0Q1861.0 589 1860.0 561Q1860.0 536 1859.5 497.0Q1859.0 458 1858.0 412.0Q1857.0 366 1855.5 318.0Q1854.0 270 1853.5 224.0Q1853.0 178 1853.0 141Q1853.0 117 1855.0 92.0Q1857.0 67 1859.5 47.5Q1862.0 28 1862.0 20Q1862.0 -2 1855.0 -10.0Q1848.0 -18 1836.0 -18ZM2340.0 -14Q2272.0 -14 2210.0 9.5Q2148.0 33 2100.5 76.5Q2053.0 120 2025.5 180.5Q1998.0 241 1998.0 315Q1998.0 383 2020.5 445.5Q2043.0 508 2087.5 557.0Q2132.0 606 2197.5 635.0Q2263.0 664 2349.0 664Q2417.0 664 2478.5 640.5Q2540.0 617 2588.0 573.5Q2636.0 530 2663.5 469.5Q2691.0 409 2691.0 335Q2691.0 268 2668.5 205.0Q2646.0 142 2601.5 93.0Q2557.0 44 2491.5 15.0Q2426.0 -14 2340.0 -14ZM2357.0 30Q2420.0 30 2462.5 62.0Q2505.0 94 2526.5 151.5Q2548.0 209 2548.0 284Q2548.0 348 2535.0 408.0Q2522.0 468 2495.0 515.5Q2468.0 563 2427.5 591.0Q2387.0 619 2331.0 619Q2268.0 619 2225.5 587.0Q2183.0 555 2162.0 498.0Q2141.0 441 2141.0 366Q2141.0 302 2154.0 242.0Q2167.0 182 2193.5 134.0Q2220.0 86 2260.5 58.0Q2301.0 30 2357.0 30ZM3063.0 -15Q3051.0 -15 3046.0 -2Q3040.0 11 3031.0 34.0Q3022.0 57 3015.0 76L2824.0 549Q2814.0 574 2797.0 592.5Q2780.0 611 2752.0 619Q2740.0 623 2732.5 627.5Q2725.0 632 2725.0 640Q2725.0 647 2732.0 650.5Q2739.0 654 2749.0 654Q2767.0 654 2791.5 653.0Q2816.0 652 2841.0 651.0Q2866.0 650 2887.0 650Q2907.0 650 2933.0 651.0Q2959.0 652 2983.5 653.0Q3008.0 654 3025.0 654Q3035.0 654 3044.0 650.5Q3053.0 647 3053.0 640Q3053.0 632 3044.0 626.5Q3035.0 621 3022.0 619Q2993.0 614 2977.5 605.5Q2962.0 597 2962.0 580Q2962.0 570 2965.0 561.0Q2968.0 552 2969.0 545L3104.0 177Q3106.0 172 3108.5 171.0Q3111.0 170 3114.0 178L3237.0 502Q3257.0 554 3243.5 583.5Q3230.0 613 3190.0 619Q3177.0 621 3167.5 626.5Q3158.0 632 3158.0 640Q3158.0 647 3167.0 650.0Q3176.0 653 3187.0 653Q3205.0 653 3220.0 652.5Q3235.0 652 3250.0 651.5Q3265.0 651 3284.0 651Q3313.0 651 3341.5 653.0Q3370.0 655 3395.0 655Q3407.0 655 3416.0 652.0Q3425.0 649 3425.0 641Q3425.0 632 3416.5 628.0Q3408.0 624 3396.0 621Q3363.0 613 3341.5 589.0Q3320.0 565 3304.0 527L3140.0 133Q3129.0 106 3118.5 82.0Q3108.0 58 3099.5 37.0Q3091.0 16 3082.0 -2Q3079.0 -9 3075.0 -12.0Q3071.0 -15 3063.0 -15ZM3444.0 -5Q3432.0 -5 3424.0 -1.5Q3416.0 2 3416.0 10Q3416.0 19 3423.5 24.0Q3431.0 29 3443.0 33Q3472.0 41 3493.5 57.5Q3515.0 74 3528.0 103Q3553.0 162 3576.0 216.5Q3599.0 271 3620.0 325.0Q3641.0 379 3662.5 435.0Q3684.0 491 3706.0 553Q3717.0 584 3721.0 601.0Q3725.0 618 3728.0 626Q3743.0 630 3756.0 634.0Q3769.0 638 3785.0 644Q3799.0 651 3809.0 662.0Q3819.0 673 3824.0 679Q3827.0 681 3830.0 681.5Q3833.0 682 3836.0 677Q3839.0 671 3841.0 665.0Q3843.0 659 3845.0 652Q3867.0 581 3890.5 508.5Q3914.0 436 3937.0 365.5Q3960.0 295 3981.5 230.5Q4003.0 166 4021.0 112Q4030.0 85 4043.5 69.0Q4057.0 53 4073.5 44.5Q4090.0 36 4110.0 31Q4123.0 28 4130.0 23.0Q4137.0 18 4137.0 9Q4137.0 3 4130.5 0.0Q4124.0 -3 4114.0 -3Q4096.0 -3 4068.5 -2.0Q4041.0 -1 4012.0 0.5Q3983.0 2 3960.0 2Q3940.0 2 3915.5 1.0Q3891.0 0 3866.5 -1.0Q3842.0 -2 3825.0 -2Q3815.0 -2 3807.5 1.5Q3800.0 5 3800.0 12Q3800.0 20 3808.0 25.5Q3816.0 31 3827.0 33Q3863.0 39 3879.0 51.5Q3895.0 64 3891.0 88Q3888.0 105 3882.0 128.5Q3876.0 152 3869.5 177.5Q3863.0 203 3856.0 224Q3854.0 232 3850.0 235.5Q3846.0 239 3835.0 239H3655.0Q3648.0 239 3644.0 234.5Q3640.0 230 3638.0 221Q3634.0 208 3628.5 191.5Q3623.0 175 3617.5 157.5Q3612.0 140 3607.5 125.0Q3603.0 110 3601.0 99Q3596.0 72 3610.5 56.5Q3625.0 41 3661.0 32Q3688.0 25 3688.0 11Q3688.0 5 3681.5 1.5Q3675.0 -2 3663.0 -2Q3640.0 -2 3615.0 -0.5Q3590.0 1 3560.0 1Q3530.0 1 3501.5 -2.0Q3473.0 -5 3444.0 -5ZM3682.0 285H3821.0Q3835.0 285 3835.0 291Q3835.0 294 3834.5 296.0Q3834.0 298 3833.0 302L3763.0 533Q3759.0 547 3756.0 547Q3754.0 547 3749.0 534L3665.0 302Q3663.0 297 3663.0 294Q3663.0 289 3668.5 287.0Q3674.0 285 3682.0 285ZM4340.0 -4Q4330.0 -4 4322.5 -0.5Q4315.0 3 4315.0 9Q4315.0 17 4322.0 22.0Q4329.0 27 4342.0 29Q4380.0 37 4398.0 51.5Q4416.0 66 4416.0 99V504Q4416.0 545 4414.0 566.0Q4412.0 587 4408.5 594.5Q4405.0 602 4398.0 603Q4388.0 607 4373.0 608.0Q4358.0 609 4344.0 609H4313.0Q4284.0 609 4257.0 595.5Q4230.0 582 4215.0 559Q4211.0 553 4202.5 542.0Q4194.0 531 4184.5 522.0Q4175.0 513 4165.0 513Q4158.0 513 4155.5 518.0Q4153.0 523 4153.0 529Q4153.0 541 4159.0 553Q4176.0 587 4184.5 612.5Q4193.0 638 4196.0 673Q4198.0 688 4204.5 692.5Q4211.0 697 4218.0 697Q4224.0 697 4232.5 684.5Q4241.0 672 4248.0 664Q4257.0 655 4280.0 650.5Q4303.0 646 4319.0 646L4688.0 647Q4716.0 647 4735.0 651.5Q4754.0 656 4765.0 661Q4780.0 670 4789.0 679.5Q4798.0 689 4810.0 689Q4815.0 689 4817.5 683.5Q4820.0 678 4820.0 670Q4820.0 665 4819.0 658.5Q4818.0 652 4817.0 647Q4813.0 628 4809.0 613.5Q4805.0 599 4802.5 586.5Q4800.0 574 4800.0 558V541Q4800.0 527 4796.0 517.0Q4792.0 507 4783.0 507Q4775.0 507 4769.5 516.5Q4764.0 526 4758.0 546Q4749.0 578 4728.0 593.5Q4707.0 609 4662.0 609H4594.0Q4575.0 609 4564.5 602.0Q4554.0 595 4549.5 571.5Q4545.0 548 4545.0 499V100Q4545.0 68 4563.0 53.5Q4581.0 39 4620.0 29Q4632.0 26 4639.0 22.0Q4646.0 18 4646.0 10Q4646.0 3 4639.5 0.0Q4633.0 -3 4623.0 -3Q4599.0 -3 4575.0 -2.0Q4551.0 -1 4527.5 0.0Q4504.0 1 4482.0 1Q4460.0 1 4436.5 0.0Q4413.0 -1 4388.5 -2.5Q4364.0 -4 4340.0 -4ZM4858.0 -4Q4849.0 -4 4842.0 -0.5Q4835.0 3 4835.0 9Q4835.0 24 4860.0 29Q4898.0 37 4915.0 51.0Q4932.0 65 4932.0 97V551Q4932.0 584 4918.0 598.0Q4904.0 612 4865.0 620Q4840.0 625 4840.0 641Q4840.0 647 4847.0 650.5Q4854.0 654 4863.0 654Q4887.0 654 4910.0 653.0Q4933.0 652 4954.5 651.0Q4976.0 650 4998.0 650Q5019.0 650 5040.5 651.0Q5062.0 652 5085.0 653.0Q5108.0 654 5132.0 654Q5142.0 654 5148.0 650.5Q5154.0 647 5154.0 640Q5154.0 632 5147.5 627.5Q5141.0 623 5129.0 620Q5089.0 610 5075.0 596.0Q5061.0 582 5061.0 550V98Q5061.0 67 5077.5 53.0Q5094.0 39 5132.0 29Q5145.0 26 5151.5 22.0Q5158.0 18 5158.0 10Q5158.0 3 5152.0 0.0Q5146.0 -3 5136.0 -3Q5112.0 -3 5088.0 -2.0Q5064.0 -1 5041.5 0.0Q5019.0 1 4998.0 1Q4976.0 1 4953.0 0.0Q4930.0 -1 4906.0 -2.5Q4882.0 -4 4858.0 -4ZM5550.0 -14Q5482.0 -14 5420.0 9.5Q5358.0 33 5310.5 76.5Q5263.0 120 5235.5 180.5Q5208.0 241 5208.0 315Q5208.0 383 5230.5 445.5Q5253.0 508 5297.5 557.0Q5342.0 606 5407.5 635.0Q5473.0 664 5559.0 664Q5627.0 664 5688.5 640.5Q5750.0 617 5798.0 573.5Q5846.0 530 5873.5 469.5Q5901.0 409 5901.0 335Q5901.0 268 5878.5 205.0Q5856.0 142 5811.5 93.0Q5767.0 44 5701.5 15.0Q5636.0 -14 5550.0 -14ZM5567.0 30Q5630.0 30 5672.5 62.0Q5715.0 94 5736.5 151.5Q5758.0 209 5758.0 284Q5758.0 348 5745.0 408.0Q5732.0 468 5705.0 515.5Q5678.0 563 5637.5 591.0Q5597.0 619 5541.0 619Q5478.0 619 5435.5 587.0Q5393.0 555 5372.0 498.0Q5351.0 441 5351.0 366Q5351.0 302 5364.0 242.0Q5377.0 182 5403.5 134.0Q5430.0 86 5470.5 58.0Q5511.0 30 5567.0 30ZM6611.0 -18Q6599.0 -18 6571.0 -3.0Q6543.0 12 6514.0 49Q6497.0 68 6472.5 95.5Q6448.0 123 6418.5 156.0Q6389.0 189 6357.0 225.0Q6325.0 261 6293.5 297.0Q6262.0 333 6232.0 366.0Q6202.0 399 6177.0 426.5Q6152.0 454 6135.0 474Q6131.0 479 6126.5 482.5Q6122.0 486 6119.0 486Q6115.0 486 6113.0 479.0Q6111.0 472 6111.0 466Q6111.0 420 6111.5 357.0Q6112.0 294 6112.0 229.0Q6112.0 164 6112.0 109Q6112.0 78 6130.0 58.0Q6148.0 38 6187.0 29Q6199.0 27 6207.5 22.5Q6216.0 18 6216.0 10Q6216.0 3 6208.0 0.0Q6200.0 -3 6190.0 -3Q6163.0 -3 6147.0 -2.0Q6131.0 -1 6118.0 0.0Q6105.0 1 6085.0 1Q6064.0 1 6047.5 0.0Q6031.0 -1 6018.0 -2.5Q6005.0 -4 5993.0 -4Q5983.0 -4 5975.0 -0.5Q5967.0 3 5967.0 9Q5967.0 17 5974.5 21.5Q5982.0 26 5995.0 30Q6021.0 38 6033.5 59.5Q6046.0 81 6049.0 111Q6053.0 149 6057.0 210.5Q6061.0 272 6064.5 349.0Q6068.0 426 6068.0 508Q6068.0 560 6041.5 583.0Q6015.0 606 5975.0 620Q5968.0 622 5957.0 628.0Q5946.0 634 5946.0 643Q5946.0 652 5954.0 655.0Q5962.0 658 5971.0 658Q5992.0 658 6013.0 657.0Q6034.0 656 6055.5 655.5Q6077.0 655 6100.5 654.0Q6124.0 653 6151.0 653Q6160.0 653 6164.5 649.5Q6169.0 646 6173.0 640Q6189.0 621 6214.0 592.5Q6239.0 564 6268.5 529.5Q6298.0 495 6330.5 457.0Q6363.0 419 6395.5 381.0Q6428.0 343 6458.0 308.5Q6488.0 274 6512.5 245.5Q6537.0 217 6553.0 199Q6557.0 195 6562.5 189.0Q6568.0 183 6572.0 183Q6580.0 183 6581.0 200Q6581.0 226 6581.0 266.5Q6581.0 307 6581.5 356.5Q6582.0 406 6581.5 458.0Q6581.0 510 6580.0 558Q6579.0 583 6559.5 597.5Q6540.0 612 6511.0 618Q6499.0 621 6488.5 625.5Q6478.0 630 6478.0 639Q6478.0 646 6488.5 649.0Q6499.0 652 6508.0 652Q6528.0 652 6541.5 652.0Q6555.0 652 6567.0 651.5Q6579.0 651 6592.0 651Q6614.0 651 6628.0 651.5Q6642.0 652 6658.5 653.0Q6675.0 654 6702.0 654Q6714.0 654 6721.5 650.5Q6729.0 647 6729.0 641Q6729.0 626 6700.0 620Q6665.0 613 6650.5 601.0Q6636.0 589 6635.0 561Q6635.0 536 6634.5 497.0Q6634.0 458 6633.0 412.0Q6632.0 366 6630.5 318.0Q6629.0 270 6628.5 224.0Q6628.0 178 6628.0 141Q6628.0 117 6630.0 92.0Q6632.0 67 6634.5 47.5Q6637.0 28 6637.0 20Q6637.0 -2 6630.0 -10.0Q6623.0 -18 6611.0 -18Z" transform="matrix(0.022120 0 0 -0.022120 75.39 391.38)" fill="#15130f"/></svg>