<svg xmlns="http://www.w3.org/2000/svg" viewBox="0 0 300 446"><rect width="300" height="446" fill="#f4ecd8"/><rect x="20.0" y="25.5" width="260" height="395" rx="20.3" fill="#f4ecd8" stroke="#15130f" stroke-width="1.5"/><rect x="36.9" y="42.4" width="226.2" height="354.7" fill="none" stroke="#15130f" stroke-width="0.7"/><g fill="none" stroke="#15130f" stroke-width="0.65" stroke-opacity="0.72" stroke-linecap="round" stroke-linejoin="round"><path d="M150.0,42.4 L263.1,206.5 L150.0,370.6 L36.9,206.5 Z"/></g><path d="M36.9,370.6 H263.1 V397.1 H36.9 Z" fill="#c7dcf0"/><g fill="none" stroke="#15130f" stroke-width="0.8"><line x1="36.9" y1="370.6" x2="263.1" y2="370.6"/><line x1="61.6" y1="370.6" x2="61.6" y2="397.1"/><line x1="238.4" y1="370.6" x2="238.4" y2="397.1"/></g><rect x="141.4" y="34.4" width="17.2" height="19.0" fill="#c7dcf0" stroke="#15130f" stroke-width="0.8"/><path d="M649.0 1092V235L647.0 193L657.0 137Q686.0 59 825.0 52Q867.0 50 867.0 28Q867.0 -7 780.0 -7Q761.0 -7 652.0 2Q595.0 7 494.0 7Q394.0 7 322.0 -2Q293.0 -5 280.0 -5Q255.0 -5 255.0 20Q255.0 41 281.0 45Q384.0 61 415.0 92.0Q446.0 123 446.0 210L445.0 248V1010Q445.0 1115 363.0 1115Q331.0 1115 306.0 1104L281.0 1093Q270.0 1089 261.0 1089Q235.0 1089 235.0 1113Q235.0 1137 260.0 1150.0Q285.0 1163 362.0 1180Q506.0 1211 567.0 1267L614.0 1310Q625.0 1320 641.0 1320Q661.0 1320 661.0 1282Q661.0 1271 659.0 1243L651.0 1153Q649.0 1126 649.0 1092ZM1569.0 1307Q1753.0 1307 1878.5 1138.5Q2004.0 970 2004.0 722Q2004.0 567 1951.0 407.5Q1898.0 248 1812.0 142Q1674.0 -27 1496.0 -27Q1308.0 -27 1187.5 146.0Q1067.0 319 1067.0 588Q1067.0 880 1216.0 1093.5Q1365.0 1307 1569.0 1307ZM1470.0 1205Q1366.0 1205 1305.5 1102.0Q1245.0 999 1245.0 824Q1245.0 522 1354.0 312.5Q1463.0 103 1620.0 103Q1723.0 103 1784.0 206.5Q1845.0 310 1845.0 485Q1845.0 644 1797.5 809.0Q1750.0 974 1675.0 1077Q1580.0 1205 1470.0 1205Z" transform="matrix(0.006024 0 0 -0.006024 143.26 48.57)" fill="#15130f"/><path d="M542.0 980Q542.0 1081 524.0 1150.5Q506.0 1220 468.5 1265.0Q431.0 1310 374.0 1310Q309.0 1310 251.5 1260.0Q194.0 1210 140.5 1125.0Q87.0 1040 87.0 960H50.0V1410H87.0Q87.0 1385 110.5 1358.5Q134.0 1332 164.0 1332Q194.0 1332 249.0 1371.0Q304.0 1410 374.0 1410Q483.0 1410 568.5 1352.0Q654.0 1294 698.0 1210.5Q742.0 1127 742.0 1000Q742.0 883 691.0 779Q660.0 716 617.0 675H1060.0V1200Q1060.0 1250 1020.0 1305.0Q980.0 1360 910.0 1360H860.0V1400H1460.0V1360H1410.0Q1340.0 1360 1300.0 1305.0Q1260.0 1250 1260.0 1200V200Q1260.0 150 1300.0 95.0Q1340.0 40 1410.0 40H1460.0V0H860.0V40H910.0Q980.0 40 1020.0 95.0Q1060.0 150 1060.0 200V575H225.0Q430.0 680 486.0 784.5Q542.0 889 542.0 980Z" transform="matrix(0.009268 0 0 -0.009268 42.25 390.40)" fill="#15130f"/><path d="M1415.0 450Q1415.0 359 1443.0 274.5Q1471.0 190 1523.5 145.0Q1576.0 100 1632.0 100Q1689.0 100 1741.5 145.0Q1794.0 190 1822.0 274.5Q1850.0 359 1850.0 450Q1850.0 541 1822.0 625.5Q1794.0 710 1741.5 755.0Q1689.0 800 1632.0 800Q1576.0 800 1523.5 755.0Q1471.0 710 1443.0 625.5Q1415.0 541 1415.0 450ZM1395.0 824Q1409.0 834 1424.0 842Q1524.0 900 1632.0 900Q1741.0 900 1841.5 842.0Q1942.0 784 1996.0 675.5Q2050.0 567 2050.0 450Q2050.0 333 1996.0 224.5Q1942.0 116 1841.5 58.0Q1741.0 0 1632.0 0Q1524.0 0 1424.0 58Q1379.0 84 1343.0 120Q1297.0 25 1221.0 -55Q1027.0 -260 715.0 -260Q483.0 -260 289.0 -55Q278.0 -43 267.0 -31L292.0 4Q446.0 -160 715.0 -160Q952.0 -160 1083.5 35.5Q1215.0 231 1215.0 450Q1215.0 906 1106.0 1305Q927.0 1266 820.0 895Q700.0 479 700.0 0H500.0Q500.0 479 380.0 894.5Q260.0 1310 50.0 1310V1410Q343.0 1410 522.0 1003Q566.0 901 600.0 786Q634.0 901 679.0 1003Q857.0 1410 1150.0 1410H1255.0Q1359.0 1153 1395.0 824Z" transform="matrix(0.009139 0 0 -0.009139 241.15 389.12)" fill="#15130f"/><path d="M405.0 -14Q330.0 -14 263.0 9.5Q196.0 33 144.5 77.0Q93.0 121 63.5 182.5Q34.0 244 34.0 319Q34.0 389 63.0 451.0Q92.0 513 145.0 561.0Q198.0 609 271.5 636.5Q345.0 664 433.0 664Q467.0 664 497.5 659.5Q528.0 655 557.0 648.5Q586.0 642 614.0 632Q625.0 628 631.5 621.0Q638.0 614 639.0 602Q643.0 572 645.0 542.5Q647.0 513 647.0 484Q648.0 474 640.0 469.5Q632.0 465 623.0 468.5Q614.0 472 610.0 483Q602.0 511 591.5 535.5Q581.0 560 560.0 577Q537.0 596 502.0 607.5Q467.0 619 420.0 619Q366.0 619 322.0 597.0Q278.0 575 246.5 536.0Q215.0 497 198.0 448.0Q181.0 399 181.0 345Q181.0 281 196.5 224.0Q212.0 167 243.5 123.5Q275.0 80 320.0 55.5Q365.0 31 423.0 31Q497.0 31 543.0 63.0Q589.0 95 621.0 158Q629.0 174 643.0 173.5Q657.0 173 657.0 157Q657.0 145 654.0 127.0Q651.0 109 645.5 88.5Q640.0 68 633.0 48Q629.0 36 623.0 30.0Q617.0 24 605.0 19Q567.0 3 515.5 -5.5Q464.0 -14 405.0 -14ZM1085.0 -14Q1017.0 -14 955.0 9.5Q893.0 33 845.5 76.5Q798.0 120 770.5 180.5Q743.0 241 743.0 315Q743.0 383 765.5 445.5Q788.0 508 832.5 557.0Q877.0 606 942.5 635.0Q1008.0 664 1094.0 664Q1162.0 664 1223.5 640.5Q1285.0 617 1333.0 573.5Q1381.0 530 1408.5 469.5Q1436.0 409 1436.0 335Q1436.0 268 1413.5 205.0Q1391.0 142 1346.5 93.0Q1302.0 44 1236.5 15.0Q1171.0 -14 1085.0 -14ZM1102.0 30Q1165.0 30 1207.5 62.0Q1250.0 94 1271.5 151.5Q1293.0 209 1293.0 284Q1293.0 348 1280.0 408.0Q1267.0 468 1240.0 515.5Q1213.0 563 1172.5 591.0Q1132.0 619 1076.0 619Q1013.0 619 970.5 587.0Q928.0 555 907.0 498.0Q886.0 441 886.0 366Q886.0 302 899.0 242.0Q912.0 182 938.5 134.0Q965.0 86 1005.5 58.0Q1046.0 30 1102.0 30ZM2146.0 -18Q2134.0 -18 2106.0 -3.0Q2078.0 12 2049.0 49Q2032.0 68 2007.5 95.5Q1983.0 123 1953.5 156.0Q1924.0 189 1892.0 225.0Q1860.0 261 1828.5 297.0Q1797.0 333 1767.0 366.0Q1737.0 399 1712.0 426.5Q1687.0 454 1670.0 474Q1666.0 479 1661.5 482.5Q1657.0 486 1654.0 486Q1650.0 486 1648.0 479.0Q1646.0 472 1646.0 466Q1646.0 420 1646.5 357.0Q1647.0 294 1647.0 229.0Q1647.0 164 1647.0 109Q1647.0 78 1665.0 58.0Q1683.0 38 1722.0 29Q1734.0 27 1742.5 22.5Q1751.0 18 1751.0 10Q1751.0 3 1743.0 0.0Q1735.0 -3 1725.0 -3Q1698.0 -3 1682.0 -2.0Q1666.0 -1 1653.0 0.0Q1640.0 1 1620.0 1Q1599.0 1 1582.5 0.0Q1566.0 -1 1553.0 -2.5Q1540.0 -4 1528.0 -4Q1518.0 -4 1510.0 -0.5Q1502.0 3 1502.0 9Q1502.0 17 1509.5 21.5Q1517.0 26 1530.0 30Q1556.0 38 1568.5 59.5Q1581.0 81 1584.0 111Q1588.0 149 1592.0 210.5Q1596.0 272 1599.5 349.0Q1603.0 426 1603.0 508Q1603.0 560 1576.5 583.0Q1550.0 606 1510.0 620Q1503.0 622 1492.0 628.0Q1481.0 634 1481.0 643Q1481.0 652 1489.0 655.0Q1497.0 658 1506.0 658Q1527.0 658 1548.0 657.0Q1569.0 656 1590.5 655.5Q1612.0 655 1635.5 654.0Q1659.0 653 1686.0 653Q1695.0 653 1699.5 649.5Q1704.0 646 1708.0 640Q1724.0 621 1749.0 592.5Q1774.0 564 1803.5 529.5Q1833.0 495 1865.5 457.0Q1898.0 419 1930.5 381.0Q1963.0 343 1993.0 308.5Q2023.0 274 2047.5 245.5Q2072.0 217 2088.0 199Q2092.0 195 2097.5 189.0Q2103.0 183 2107.0 183Q2115.0 183 2116.0 200Q2116.0 226 2116.0 266.5Q2116.0 307 2116.5 356.5Q2117.0 406 2116.5 458.0Q2116.0 510 2115.0 558Q2114.0 583 2094.5 597.5Q2075.0 612 2046.0 618Q2034.0 621 2023.5 625.5Q2013.0 630 2013.0 639Q2013.0 646 2023.5 649.0Q2034.0 652 2043.0 652Q2063.0 652 2076.5 652.0Q2090.0 652 2102.0 651.5Q2114.0 651 2127.0 651Q2149.0 651 2163.0 651.5Q2177.0 652 2193.5 653.0Q2210.0 654 2237.0 654Q2249.0 654 2256.5 650.5Q2264.0 647 2264.0 641Q2264.0 626 2235.0 620Q2200.0 613 2185.5 601.0Q2171.0 589 2170.0 561Q2170.0 536 2169.5 497.0Q2169.0 458 2168.0 412.0Q2167.0 366 2165.5 318.0Q2164.0 270 2163.5 224.0Q2163.0 178 2163.0 141Q2163.0 117 2165.0 92.0Q2167.0 67 2169.5 47.5Q2172.0 28 2172.0 20Q2172.0 -2 2165.0 -10.0Q2158.0 -18 2146.0 -18ZM2483.0 -4Q2473.0 -4 2465.5 -0.5Q2458.0 3 2458.0 9Q2458.0 17 2465.0 22.0Q2472.0 27 2485.0 29Q2523.0 37 2541.0 51.5Q2559.0 66 2559.0 99V504Q2559.0 545 2557.0 566.0Q2555.0 587 2551.5 594.5Q2548.0 602 2541.0 603Q2531.0 607 2516.0 608.0Q2501.0 609 2487.0 609H2456.0Q2427.0 609 2400.0 595.5Q2373.0 582 2358.0 559Q2354.0 553 2345.5 542.0Q2337.0 531 2327.5 522.0Q2318.0 513 2308.0 513Q2301.0 513 2298.5 518.0Q2296.0 523 2296.0 529Q2296.0 541 2302.0 553Q2319.0 587 2327.5 612.5Q2336.0 638 2339.0 673Q2341.0 688 2347.5 692.5Q2354.0 697 2361.0 697Q2367.0 697 2375.5 684.5Q2384.0 672 2391.0 664Q2400.0 655 2423.0 650.5Q2446.0 646 2462.0 646L2831.0 647Q2859.0 647 2878.0 651.5Q2897.0 656 2908.0 661Q2923.0 670 2932.0 679.5Q2941.0 689 2953.0 689Q2958.0 689 2960.5 683.5Q2963.0 678 2963.0 670Q2963.0 665 2962.0 658.5Q2961.0 652 2960.0 647Q2956.0 628 2952.0 613.5Q2948.0 599 2945.5 586.5Q2943.0 574 2943.0 558V541Q2943.0 527 2939.0 517.0Q2935.0 507 2926.0 507Q2918.0 507 2912.5 516.5Q2907.0 526 2901.0 546Q2892.0 578 2871.0 593.5Q2850.0 609 2805.0 609H2737.0Q2718.0 609 2707.5 602.0Q2697.0 595 2692.5 571.5Q2688.0 548 2688.0 499V100Q2688.0 68 2706.0 53.5Q2724.0 39 2763.0 29Q2775.0 26 2782.0 22.0Q2789.0 18 2789.0 10Q2789.0 3 2782.5 0.0Q2776.0 -3 2766.0 -3Q2742.0 -3 2718.0 -2.0Q2694.0 -1 2670.5 0.0Q2647.0 1 2625.0 1Q2603.0 1 2579.5 0.0Q2556.0 -1 2531.5 -2.5Q2507.0 -4 2483.0 -4ZM3603.0 -21Q3560.0 -21 3528.0 -11.5Q3496.0 -2 3473.0 16.0Q3450.0 34 3431.0 58Q3409.0 88 3388.0 116.5Q3367.0 145 3345.5 179.5Q3324.0 214 3298.0 262Q3285.0 285 3265.0 296Q3252.0 303 3238.5 306.0Q3225.0 309 3216.0 309Q3210.0 310 3207.0 304.0Q3204.0 298 3204.0 289V103Q3204.0 72 3220.5 55.0Q3237.0 38 3277.0 29Q3290.0 27 3296.0 22.5Q3302.0 18 3302.0 10Q3302.0 3 3296.5 0.0Q3291.0 -3 3280.0 -3Q3257.0 -3 3233.0 -1.5Q3209.0 0 3186.5 1.0Q3164.0 2 3144.0 2Q3122.0 2 3098.5 1.0Q3075.0 0 3051.0 -2.0Q3027.0 -4 3003.0 -4Q2994.0 -4 2987.0 -0.5Q2980.0 3 2980.0 9Q2980.0 24 3005.0 29Q3043.0 37 3059.0 51.0Q3075.0 65 3075.0 98V540Q3075.0 569 3070.5 584.5Q3066.0 600 3053.0 608.0Q3040.0 616 3014.0 620Q3000.0 622 2994.0 628.0Q2988.0 634 2988.0 640Q2988.0 647 2994.5 650.5Q3001.0 654 3012.0 654Q3042.0 654 3060.0 653.0Q3078.0 652 3094.5 650.5Q3111.0 649 3134.0 649Q3156.0 649 3173.0 651.0Q3190.0 653 3211.0 655.0Q3232.0 657 3265.0 657Q3380.0 657 3441.0 617.0Q3502.0 577 3502.0 495Q3502.0 450 3483.0 418.5Q3464.0 387 3435.5 367.0Q3407.0 347 3377.0 336Q3373.0 335 3373.5 331.0Q3374.0 327 3377.0 324Q3407.0 278 3435.5 236.5Q3464.0 195 3495.5 158.0Q3527.0 121 3564.0 87Q3595.0 58 3627.5 52.5Q3660.0 47 3695.0 47Q3710.0 47 3710.0 32Q3710.0 12 3695.0 0.5Q3680.0 -11 3655.5 -16.0Q3631.0 -21 3603.0 -21ZM3247.0 338Q3288.0 338 3315.5 356.5Q3343.0 375 3357.5 406.0Q3372.0 437 3372.0 475Q3372.0 520 3361.0 551.5Q3350.0 583 3323.5 600.5Q3297.0 618 3251.0 618Q3225.0 618 3215.5 599.5Q3206.0 581 3205.0 525Q3204.0 502 3204.0 464.5Q3204.0 427 3204.0 375Q3204.0 353 3215.5 345.5Q3227.0 338 3247.0 338ZM4081.0 -14Q4013.0 -14 3951.0 9.5Q3889.0 33 3841.5 76.5Q3794.0 120 3766.5 180.5Q3739.0 241 3739.0 315Q3739.0 383 3761.5 445.5Q3784.0 508 3828.5 557.0Q3873.0 606 3938.5 635.0Q4004.0 664 4090.0 664Q4158.0 664 4219.5 640.5Q4281.0 617 4329.0 573.5Q4377.0 530 4404.5 469.5Q4432.0 409 4432.0 335Q4432.0 268 4409.5 205.0Q4387.0 142 4342.5 93.0Q4298.0 44 4232.5 15.0Q4167.0 -14 4081.0 -14ZM4098.0 30Q4161.0 30 4203.5 62.0Q4246.0 94 4267.5 151.5Q4289.0 209 4289.0 284Q4289.0 348 4276.0 408.0Q4263.0 468 4236.0 515.5Q4209.0 563 4168.5 591.0Q4128.0 619 4072.0 619Q4009.0 619 3966.5 587.0Q3924.0 555 3903.0 498.0Q3882.0 441 3882.0 366Q3882.0 302 3895.0 242.0Q3908.0 182 3934.5 134.0Q3961.0 86 4001.5 58.0Q4042.0 30 4098.0 30ZM4512.0 -5Q4501.0 -5 4495.0 -0.5Q4489.0 4 4489.0 9Q4489.0 17 4496.0 21.5Q4503.0 26 4510.0 28Q4546.0 37 4563.0 50.5Q4580.0 64 4580.0 95V555Q4580.0 578 4574.5 590.0Q4569.0 602 4555.5 608.5Q4542.0 615 4516.0 620Q4490.0 625 4490.0 641Q4490.0 647 4497.0 650.5Q4504.0 654 4513.0 654Q4538.0 654 4560.5 653.0Q4583.0 652 4604.0 651.0Q4625.0 650 4646.0 650Q4669.0 650 4692.5 651.0Q4716.0 652 4740.5 653.0Q4765.0 654 4788.0 654Q4798.0 654 4804.0 650.5Q4810.0 647 4810.0 640Q4810.0 632 4803.5 627.5Q4797.0 623 4785.0 620Q4746.0 610 4727.5 598.5Q4709.0 587 4709.0 558V101Q4709.0 72 4722.0 58.5Q4735.0 45 4771.0 45H4880.0Q4903.0 45 4922.0 53.0Q4941.0 61 4953.0 73Q4971.0 89 4983.0 107.0Q4995.0 125 5006.0 149Q5013.0 164 5019.0 172.0Q5025.0 180 5031.0 180Q5038.0 180 5041.0 173.5Q5044.0 167 5044.0 160Q5044.0 159 5043.0 154.0Q5042.0 149 5042.0 146Q5034.0 117 5028.5 96.0Q5023.0 75 5019.5 55.5Q5016.0 36 5013.0 13Q5012.0 6 5009.0 0.5Q5006.0 -5 4997.0 -5Q4967.0 -5 4925.0 -4.0Q4883.0 -3 4836.0 -2.5Q4789.0 -2 4741.5 -1.0Q4694.0 0 4652.0 0Q4630.0 0 4601.5 -1.0Q4573.0 -2 4548.0 -3.5Q4523.0 -5 4512.0 -5Z" transform="matrix(0.022120 0 0 -0.022120 93.84 391.34)" fill="#15130f"/></svg>