<svg xmlns="http://www.w3.org/2000/svg" viewBox="0 0 300 446"><rect width="300" height="446" fill="#f4ecd8"/><rect x="20.0" y="25.5" width="260" height="395" rx="20.3" fill="#f4ecd8" stroke="#15130f" stroke-width="1.5"/><rect x="36.9" y="42.4" width="226.2" height="354.7" fill="none" stroke="#15130f" stroke-width="0.7"/><g fill="none" stroke="#15130f" stroke-width="0.65" stroke-opacity="0.72" stroke-linecap="round" stroke-linejoin="round"><path d="M150.0,42.4 L263.1,206.5 L150.0,370.6 L36.9,206.5 Z"/></g><path d="M36.9,370.6 H263.1 V397.1 H36.9 Z" fill="#c7dcf0"/><g fill="none" stroke="#15130f" stroke-width="0.8"><line x1="36.9" y1="370.6" x2="263.1" y2="370.6"/><line x1="61.6" y1="370.6" x2="61.6" y2="397.1"/><line x1="238.4" y1="370.6" x2="238.4" y2="397.1"/></g><rect x="141.4" y="34.4" width="17.2" height="19.0" fill="#c7dcf0" stroke="#15130f" stroke-width="0.8"/><path d="M853.0 1316Q873.0 1316 875.0 1308L880.0 1293L883.0 1279Q881.0 1265 840.0 1259Q750.0 1244 640.0 1176.5Q530.0 1109 463.0 1027Q420.0 973 377.5 882.5Q335.0 792 335.0 753Q335.0 727 354.0 728Q367.0 729 385.0 742Q435.0 777 512.0 803.0Q589.0 829 645.0 829Q781.0 829 874.5 722.0Q968.0 615 968.0 459Q968.0 243 841.0 108.0Q714.0 -27 511.0 -27Q313.0 -27 187.5 122.5Q62.0 272 62.0 508Q62.0 756 224.0 971.5Q386.0 1187 633.0 1268Q779.0 1316 853.0 1316ZM501.0 715Q402.0 715 337.5 638.5Q273.0 562 273.0 445Q273.0 284 361.5 159.5Q450.0 35 565.0 35Q658.0 35 715.0 113.0Q772.0 191 772.0 318Q772.0 497 697.5 606.0Q623.0 715 501.0 715Z" transform="matrix(0.006858 0 0 -0.006858 146.47 49.10)" fill="#15130f"/><path d="M542.0 980Q542.0 1081 524.0 1150.5Q506.0 1220 468.5 1265.0Q431.0 1310 374.0 1310Q309.0 1310 251.5 1260.0Q194.0 1210 140.5 1125.0Q87.0 1040 87.0 960H50.0V1410H87.0Q87.0 1385 110.5 1358.5Q134.0 1332 164.0 1332Q194.0 1332 249.0 1371.0Q304.0 1410 374.0 1410Q483.0 1410 568.5 1352.0Q654.0 1294 698.0 1210.5Q742.0 1127 742.0 1000Q742.0 883 691.0 779Q660.0 716 617.0 675H1060.0V1200Q1060.0 1250 1020.0 1305.0Q980.0 1360 910.0 1360H860.0V1400H1460.0V1360H1410.0Q1340.0 1360 1300.0 1305.0Q1260.0 1250 1260.0 1200V200Q1260.0 150 1300.0 95.0Q1340.0 40 1410.0 40H1460.0V0H860.0V40H910.0Q980.0 40 1020.0 95.0Q1060.0 150 1060.0 200V575H225.0Q430.0 680 486.0 784.5Q542.0 889 542.0 980Z" transform="matrix(0.009268 0 0 -0.009268 42.25 390.40)" fill="#15130f"/><path d="M1450.0 635V-198Q1651.0 -179 1769.0 -4Q1900.0 191 1900.0 410Q1900.0 633 1769.0 827Q1742.0 865 1711.0 896ZM1259.0 -187Q1250.0 -126 1250.0 -52V1067Q1250.0 1212 1241.5 1255.5Q1233.0 1299 1212.5 1317.5Q1192.0 1336 1168.0 1336L938.0 1106Q950.0 1037 950.0 952V0H750.0V1067Q750.0 1212 741.5 1255.5Q733.0 1299 712.5 1317.5Q692.0 1336 668.0 1336L438.0 1106Q450.0 1037 450.0 952V0H50.0V40H100.0Q170.0 40 210.0 95.0Q250.0 150 250.0 200V1067Q250.0 1212 241.5 1255.5Q233.0 1299 212.5 1317.5Q192.0 1336 168.0 1336V1410Q284.0 1392 358.0 1301Q387.0 1264 408.0 1216L602.0 1410H668.0Q784.0 1392 858.0 1301Q887.0 1264 908.0 1216L1102.0 1410H1168.0Q1284.0 1392 1358.0 1301Q1450.0 1187 1450.0 952V775L1726.0 1051Q1824.0 1007 1908.0 915Q2100.0 710 2100.0 410Q2100.0 109 1906.0 -95Q1729.0 -282 1453.0 -298Q1455.0 -337 1459.0 -355Q1467.0 -399 1487.5 -417.5Q1508.0 -436 1532.0 -436V-510Q1416.0 -491 1343.0 -401Q1305.0 -354 1282.0 -286Q1118.0 -247 974.0 -95Q963.0 -83 952.0 -71L977.0 -36Q1088.0 -154 1259.0 -187Z" transform="matrix(0.008916 0 0 -0.008916 241.17 387.88)" fill="#15130f"/><path d="M42.0 -4Q33.0 -4 26.0 -0.5Q19.0 3 19.0 9Q19.0 24 44.0 29Q82.0 37 98.0 51.0Q114.0 65 114.0 98V538Q114.0 576 101.5 594.0Q89.0 612 53.0 620Q39.0 623 33.0 628.5Q27.0 634 27.0 640Q27.0 647 33.5 650.5Q40.0 654 51.0 654Q75.0 654 95.5 653.5Q116.0 653 135.0 652.0Q154.0 651 174.0 651Q196.0 651 215.5 653.0Q235.0 655 255.5 657.0Q276.0 659 303.0 659Q422.0 659 493.0 609.0Q564.0 559 564.0 471Q564.0 409 538.5 356.5Q513.0 304 460.5 272.0Q408.0 240 328.0 240Q303.0 240 290.0 247.5Q277.0 255 277.0 264Q277.0 270 283.5 274.5Q290.0 279 295.0 279Q304.0 279 312.5 277.5Q321.0 276 338.0 276Q385.0 276 409.5 324.0Q434.0 372 434.0 452Q434.0 540 398.5 580.5Q363.0 621 303.0 621Q275.0 621 259.5 609.5Q244.0 598 244.0 573L243.0 104Q243.0 71 259.5 54.5Q276.0 38 316.0 29Q329.0 27 335.0 22.5Q341.0 18 341.0 10Q341.0 3 335.5 0.0Q330.0 -3 319.0 -3Q296.0 -3 272.0 -1.5Q248.0 0 225.5 1.0Q203.0 2 183.0 2Q161.0 2 137.5 1.0Q114.0 0 90.0 -2.0Q66.0 -4 42.0 -4ZM613.0 -5Q601.0 -5 593.0 -1.5Q585.0 2 585.0 10Q585.0 19 592.5 24.0Q600.0 29 612.0 33Q641.0 41 662.5 57.5Q684.0 74 697.0 103Q722.0 162 745.0 216.5Q768.0 271 789.0 325.0Q810.0 379 831.5 435.0Q853.0 491 875.0 553Q886.0 584 890.0 601.0Q894.0 618 897.0 626Q912.0 630 925.0 634.0Q938.0 638 954.0 644Q968.0 651 978.0 662.0Q988.0 673 993.0 679Q996.0 681 999.0 681.5Q1002.0 682 1005.0 677Q1008.0 671 1010.0 665.0Q1012.0 659 1014.0 652Q1036.0 581 1059.5 508.5Q1083.0 436 1106.0 365.5Q1129.0 295 1150.5 230.5Q1172.0 166 1190.0 112Q1199.0 85 1212.5 69.0Q1226.0 53 1242.5 44.5Q1259.0 36 1279.0 31Q1292.0 28 1299.0 23.0Q1306.0 18 1306.0 9Q1306.0 3 1299.5 0.0Q1293.0 -3 1283.0 -3Q1265.0 -3 1237.5 -2.0Q1210.0 -1 1181.0 0.5Q1152.0 2 1129.0 2Q1109.0 2 1084.5 1.0Q1060.0 0 1035.5 -1.0Q1011.0 -2 994.0 -2Q984.0 -2 976.5 1.5Q969.0 5 969.0 12Q969.0 20 977.0 25.5Q985.0 31 996.0 33Q1032.0 39 1048.0 51.5Q1064.0 64 1060.0 88Q1057.0 105 1051.0 128.5Q1045.0 152 1038.5 177.5Q1032.0 203 1025.0 224Q1023.0 232 1019.0 235.5Q1015.0 239 1004.0 239H824.0Q817.0 239 813.0 234.5Q809.0 230 807.0 221Q803.0 208 797.5 191.5Q792.0 175 786.5 157.5Q781.0 140 776.5 125.0Q772.0 110 770.0 99Q765.0 72 779.5 56.5Q794.0 41 830.0 32Q857.0 25 857.0 11Q857.0 5 850.5 1.5Q844.0 -2 832.0 -2Q809.0 -2 784.0 -0.5Q759.0 1 729.0 1Q699.0 1 670.5 -2.0Q642.0 -5 613.0 -5ZM851.0 285H990.0Q1004.0 285 1004.0 291Q1004.0 294 1003.5 296.0Q1003.0 298 1002.0 302L932.0 533Q928.0 547 925.0 547Q923.0 547 918.0 534L834.0 302Q832.0 297 832.0 294Q832.0 289 837.5 287.0Q843.0 285 851.0 285ZM1509.0 -4Q1499.0 -4 1491.5 -0.5Q1484.0 3 1484.0 9Q1484.0 17 1491.0 22.0Q1498.0 27 1511.0 29Q1549.0 37 1567.0 51.5Q1585.0 66 1585.0 99V504Q1585.0 545 1583.0 566.0Q1581.0 587 1577.5 594.5Q1574.0 602 1567.0 603Q1557.0 607 1542.0 608.0Q1527.0 609 1513.0 609H1482.0Q1453.0 609 1426.0 595.5Q1399.0 582 1384.0 559Q1380.0 553 1371.5 542.0Q1363.0 531 1353.5 522.0Q1344.0 513 1334.0 513Q1327.0 513 1324.5 518.0Q1322.0 523 1322.0 529Q1322.0 541 1328.0 553Q1345.0 587 1353.5 612.5Q1362.0 638 1365.0 673Q1367.0 688 1373.5 692.5Q1380.0 697 1387.0 697Q1393.0 697 1401.5 684.5Q1410.0 672 1417.0 664Q1426.0 655 1449.0 650.5Q1472.0 646 1488.0 646L1857.0 647Q1885.0 647 1904.0 651.5Q1923.0 656 1934.0 661Q1949.0 670 1958.0 679.5Q1967.0 689 1979.0 689Q1984.0 689 1986.5 683.5Q1989.0 678 1989.0 670Q1989.0 665 1988.0 658.5Q1987.0 652 1986.0 647Q1982.0 628 1978.0 613.5Q1974.0 599 1971.5 586.5Q1969.0 574 1969.0 558V541Q1969.0 527 1965.0 517.0Q1961.0 507 1952.0 507Q1944.0 507 1938.5 516.5Q1933.0 526 1927.0 546Q1918.0 578 1897.0 593.5Q1876.0 609 1831.0 609H1763.0Q1744.0 609 1733.5 602.0Q1723.0 595 1718.5 571.5Q1714.0 548 1714.0 499V100Q1714.0 68 1732.0 53.5Q1750.0 39 1789.0 29Q1801.0 26 1808.0 22.0Q1815.0 18 1815.0 10Q1815.0 3 1808.5 0.0Q1802.0 -3 1792.0 -3Q1768.0 -3 1744.0 -2.0Q1720.0 -1 1696.5 0.0Q1673.0 1 1651.0 1Q1629.0 1 1605.5 0.0Q1582.0 -1 1557.5 -2.5Q1533.0 -4 1509.0 -4ZM2027.0 -4Q2018.0 -4 2011.0 -0.5Q2004.0 3 2004.0 9Q2004.0 24 2029.0 29Q2067.0 37 2084.0 51.0Q2101.0 65 2101.0 97V551Q2101.0 584 2087.0 598.0Q2073.0 612 2034.0 620Q2009.0 625 2009.0 641Q2009.0 647 2016.0 650.5Q2023.0 654 2032.0 654Q2056.0 654 2079.0 653.0Q2102.0 652 2123.5 651.0Q2145.0 650 2167.0 650Q2188.0 650 2209.5 651.0Q2231.0 652 2254.0 653.0Q2277.0 654 2301.0 654Q2311.0 654 2317.0 650.5Q2323.0 647 2323.0 640Q2323.0 632 2316.5 627.5Q2310.0 623 2298.0 620Q2258.0 610 2244.0 596.0Q2230.0 582 2230.0 550V98Q2230.0 67 2246.5 53.0Q2263.0 39 2301.0 29Q2314.0 26 2320.5 22.0Q2327.0 18 2327.0 10Q2327.0 3 2321.0 0.0Q2315.0 -3 2305.0 -3Q2281.0 -3 2257.0 -2.0Q2233.0 -1 2210.5 0.0Q2188.0 1 2167.0 1Q2145.0 1 2122.0 0.0Q2099.0 -1 2075.0 -2.5Q2051.0 -4 2027.0 -4ZM2392.0 -5Q2381.0 -5 2374.5 -1.0Q2368.0 3 2368.0 9Q2368.0 22 2394.0 28Q2430.0 37 2445.5 50.5Q2461.0 64 2461.0 97V550Q2461.0 584 2447.5 598.0Q2434.0 612 2397.0 620Q2383.0 623 2377.0 628.5Q2371.0 634 2371.0 640Q2371.0 647 2377.5 650.5Q2384.0 654 2395.0 654Q2424.0 654 2450.5 653.0Q2477.0 652 2502.0 651.0Q2527.0 650 2554.0 650Q2600.0 650 2651.5 651.0Q2703.0 652 2744.0 652Q2777.0 653 2798.5 655.0Q2820.0 657 2824.0 657Q2831.0 657 2838.5 654.0Q2846.0 651 2847.0 642Q2851.0 609 2857.0 577.0Q2863.0 545 2863.0 521Q2863.0 512 2858.5 507.5Q2854.0 503 2849.0 503Q2844.0 503 2840.0 506.5Q2836.0 510 2833.0 517Q2825.0 540 2818.0 557.0Q2811.0 574 2802.0 583Q2789.0 597 2772.0 605.0Q2755.0 613 2731.0 613H2638.0Q2620.0 613 2605.0 602.5Q2590.0 592 2590.0 573V377Q2590.0 366 2596.5 360.0Q2603.0 354 2612.0 354H2704.0Q2731.0 354 2742.5 369.0Q2754.0 384 2762.0 410Q2769.0 430 2781.0 430Q2786.0 430 2790.0 424.5Q2794.0 419 2794.0 410Q2793.0 400 2792.0 386.0Q2791.0 372 2790.5 358.0Q2790.0 344 2790.0 333Q2790.0 321 2790.5 306.0Q2791.0 291 2791.5 276.5Q2792.0 262 2793.0 252Q2794.0 241 2791.5 235.0Q2789.0 229 2783.0 229Q2767.0 229 2760.0 257Q2752.0 285 2741.0 299.0Q2730.0 313 2711.0 313H2617.0Q2604.0 313 2597.0 308.0Q2590.0 303 2590.0 289V99Q2590.0 66 2604.0 53.0Q2618.0 40 2647.0 40H2729.0Q2754.0 40 2774.5 45.0Q2795.0 50 2810.0 61Q2827.0 73 2840.5 93.5Q2854.0 114 2867.0 139Q2871.0 147 2875.0 149.5Q2879.0 152 2885.0 152Q2890.0 151 2892.5 146.0Q2895.0 141 2895.0 135Q2895.0 121 2890.0 99.0Q2885.0 77 2877.5 53.5Q2870.0 30 2864.0 10Q2861.0 3 2856.0 -0.5Q2851.0 -4 2844.0 -4Q2820.0 -4 2782.5 -3.5Q2745.0 -3 2701.0 -2.0Q2657.0 -1 2611.0 -0.5Q2565.0 0 2523.0 0Q2502.0 0 2480.5 -1.0Q2459.0 -2 2437.0 -3.5Q2415.0 -5 2392.0 -5ZM3590.0 -18Q3578.0 -18 3550.0 -3.0Q3522.0 12 3493.0 49Q3476.0 68 3451.5 95.5Q3427.0 123 3397.5 156.0Q3368.0 189 3336.0 225.0Q3304.0 261 3272.5 297.0Q3241.0 333 3211.0 366.0Q3181.0 399 3156.0 426.5Q3131.0 454 3114.0 474Q3110.0 479 3105.5 482.5Q3101.0 486 3098.0 486Q3094.0 486 3092.0 479.0Q3090.0 472 3090.0 466Q3090.0 420 3090.5 357.0Q3091.0 294 3091.0 229.0Q3091.0 164 3091.0 109Q3091.0 78 3109.0 58.0Q3127.0 38 3166.0 29Q3178.0 27 3186.5 22.5Q3195.0 18 3195.0 10Q3195.0 3 3187.0 0.0Q3179.0 -3 3169.0 -3Q3142.0 -3 3126.0 -2.0Q3110.0 -1 3097.0 0.0Q3084.0 1 3064.0 1Q3043.0 1 3026.5 0.0Q3010.0 -1 2997.0 -2.5Q2984.0 -4 2972.0 -4Q2962.0 -4 2954.0 -0.5Q2946.0 3 2946.0 9Q2946.0 17 2953.5 21.5Q2961.0 26 2974.0 30Q3000.0 38 3012.5 59.5Q3025.0 81 3028.0 111Q3032.0 149 3036.0 210.5Q3040.0 272 3043.5 349.0Q3047.0 426 3047.0 508Q3047.0 560 3020.5 583.0Q2994.0 606 2954.0 620Q2947.0 622 2936.0 628.0Q2925.0 634 2925.0 643Q2925.0 652 2933.0 655.0Q2941.0 658 2950.0 658Q2971.0 658 2992.0 657.0Q3013.0 656 3034.5 655.5Q3056.0 655 3079.5 654.0Q3103.0 653 3130.0 653Q3139.0 653 3143.5 649.5Q3148.0 646 3152.0 640Q3168.0 621 3193.0 592.5Q3218.0 564 3247.5 529.5Q3277.0 495 3309.5 457.0Q3342.0 419 3374.5 381.0Q3407.0 343 3437.0 308.5Q3467.0 274 3491.5 245.5Q3516.0 217 3532.0 199Q3536.0 195 3541.5 189.0Q3547.0 183 3551.0 183Q3559.0 183 3560.0 200Q3560.0 226 3560.0 266.5Q3560.0 307 3560.5 356.5Q3561.0 406 3560.5 458.0Q3560.0 510 3559.0 558Q3558.0 583 3538.5 597.5Q3519.0 612 3490.0 618Q3478.0 621 3467.5 625.5Q3457.0 630 3457.0 639Q3457.0 646 3467.5 649.0Q3478.0 652 3487.0 652Q3507.0 652 3520.5 652.0Q3534.0 652 3546.0 651.5Q3558.0 651 3571.0 651Q3593.0 651 3607.0 651.5Q3621.0 652 3637.5 653.0Q3654.0 654 3681.0 654Q3693.0 654 3700.5 650.5Q3708.0 647 3708.0 641Q3708.0 626 3679.0 620Q3644.0 613 3629.5 601.0Q3615.0 589 3614.0 561Q3614.0 536 3613.5 497.0Q3613.0 458 3612.0 412.0Q3611.0 366 3609.5 318.0Q3608.0 270 3607.5 224.0Q3607.0 178 3607.0 141Q3607.0 117 3609.0 92.0Q3611.0 67 3613.5 47.5Q3616.0 28 3616.0 20Q3616.0 -2 3609.0 -10.0Q3602.0 -18 3590.0 -18ZM4123.0 -14Q4048.0 -14 3981.0 9.5Q3914.0 33 3862.5 77.0Q3811.0 121 3781.5 182.5Q3752.0 244 3752.0 319Q3752.0 389 3781.0 451.0Q3810.0 513 3863.0 561.0Q3916.0 609 3989.5 636.5Q4063.0 664 4151.0 664Q4185.0 664 4215.5 659.5Q4246.0 655 4275.0 648.5Q4304.0 642 4332.0 632Q4343.0 628 4349.5 621.0Q4356.0 614 4357.0 602Q4361.0 572 4363.0 542.5Q4365.0 513 4365.0 484Q4366.0 474 4358.0 469.5Q4350.0 465 4341.0 468.5Q4332.0 472 4328.0 483Q4320.0 511 4309.5 535.5Q4299.0 560 4278.0 577Q4255.0 596 4220.0 607.5Q4185.0 619 4138.0 619Q4084.0 619 4040.0 597.0Q3996.0 575 3964.5 536.0Q3933.0 497 3916.0 448.0Q3899.0 399 3899.0 345Q3899.0 281 3914.5 224.0Q3930.0 167 3961.5 123.5Q3993.0 80 4038.0 55.5Q4083.0 31 4141.0 31Q4215.0 31 4261.0 63.0Q4307.0 95 4339.0 158Q4347.0 174 4361.0 173.5Q4375.0 173 4375.0 157Q4375.0 145 4372.0 127.0Q4369.0 109 4363.5 88.5Q4358.0 68 4351.0 48Q4347.0 36 4341.0 30.0Q4335.0 24 4323.0 19Q4285.0 3 4233.5 -5.5Q4182.0 -14 4123.0 -14ZM4476.0 -5Q4465.0 -5 4458.5 -1.0Q4452.0 3 4452.0 9Q4452.0 22 4478.0 28Q4514.0 37 4529.5 50.5Q4545.0 64 4545.0 97V550Q4545.0 584 4531.5 598.0Q4518.0 612 4481.0 620Q4467.0 623 4461.0 628.5Q4455.0 634 4455.0 640Q4455.0 647 4461.5 650.5Q4468.0 654 4479.0 654Q4508.0 654 4534.5 653.0Q4561.0 652 4586.0 651.0Q4611.0 650 4638.0 650Q4684.0 650 4735.5 651.0Q4787.0 652 4828.0 652Q4861.0 653 4882.5 655.0Q4904.0 657 4908.0 657Q4915.0 657 4922.5 654.0Q4930.0 651 4931.0 642Q4935.0 609 4941.0 577.0Q4947.0 545 4947.0 521Q4947.0 512 4942.5 507.5Q4938.0 503 4933.0 503Q4928.0 503 4924.0 506.5Q4920.0 510 4917.0 517Q4909.0 540 4902.0 557.0Q4895.0 574 4886.0 583Q4873.0 597 4856.0 605.0Q4839.0 613 4815.0 613H4722.0Q4704.0 613 4689.0 602.5Q4674.0 592 4674.0 573V377Q4674.0 366 4680.5 360.0Q4687.0 354 4696.0 354H4788.0Q4815.0 354 4826.5 369.0Q4838.0 384 4846.0 410Q4853.0 430 4865.0 430Q4870.0 430 4874.0 424.5Q4878.0 419 4878.0 410Q4877.0 400 4876.0 386.0Q4875.0 372 4874.5 358.0Q4874.0 344 4874.0 333Q4874.0 321 4874.5 306.0Q4875.0 291 4875.5 276.5Q4876.0 262 4877.0 252Q4878.0 241 4875.5 235.0Q4873.0 229 4867.0 229Q4851.0 229 4844.0 257Q4836.0 285 4825.0 299.0Q4814.0 313 4795.0 313H4701.0Q4688.0 313 4681.0 308.0Q4674.0 303 4674.0 289V99Q4674.0 66 4688.0 53.0Q4702.0 40 4731.0 40H4813.0Q4838.0 40 4858.5 45.0Q4879.0 50 4894.0 61Q4911.0 73 4924.5 93.5Q4938.0 114 4951.0 139Q4955.0 147 4959.0 149.5Q4963.0 152 4969.0 152Q4974.0 151 4976.5 146.0Q4979.0 141 4979.0 135Q4979.0 121 4974.0 99.0Q4969.0 77 4961.5 53.5Q4954.0 30 4948.0 10Q4945.0 3 4940.0 -0.5Q4935.0 -4 4928.0 -4Q4904.0 -4 4866.5 -3.5Q4829.0 -3 4785.0 -2.0Q4741.0 -1 4695.0 -0.5Q4649.0 0 4607.0 0Q4586.0 0 4564.5 -1.0Q4543.0 -2 4521.0 -3.5Q4499.0 -5 4476.0 -5Z" transform="matrix(0.022120 0 0 -0.022120 94.72 391.38)" fill="#15130f"/></svg>