<svg xmlns="http://www.w3.org/2000/svg" viewBox="0 0 300 446"><rect width="300" height="446" fill="#f4ecd8"/><rect x="20.0" y="25.5" width="260" height="395" rx="20.3" fill="#f4ecd8" stroke="#15130f" stroke-width="1.5"/><rect x="36.9" y="42.4" width="226.2" height="354.7" fill="none" stroke="#15130f" stroke-width="0.7"/><g fill="none" stroke="#15130f" stroke-width="0.65" stroke-opacity="0.72" stroke-linecap="round" stroke-linejoin="round"><line x1="150.0" y1="42.4" x2="150.0" y2="210.0"/><line x1="36.9" y1="210.0" x2="263.1" y2="210.0"/></g><path d="M36.9,370.6 H263.1 V397.1 H36.9 Z" fill="#e59680"/><g fill="none" stroke="#15130f" stroke-width="0.8"><line x1="36.9" y1="370.6" x2="263.1" y2="370.6"/><line x1="61.6" y1="370.6" x2="61.6" y2="397.1"/><line x1="238.4" y1="370.6" x2="238.4" y2="397.1"/></g><rect x="141.4" y="34.4" width="17.2" height="19.0" fill="#e59680" stroke="#15130f" stroke-width="0.8"/><path d="M541.0 1306Q697.0 1306 797.5 1224.5Q898.0 1143 898.0 1016Q898.0 934 849.0 869.0Q800.0 804 718.0 776Q668.0 759 667.0 750Q666.0 740 723.0 716Q957.0 617 957.0 376Q957.0 194 834.0 83.5Q711.0 -27 509.0 -27Q311.0 -27 189.5 75.0Q68.0 177 68.0 343Q68.0 527 267.0 635Q285.0 645 286.0 651Q287.0 657 266.0 673Q124.0 777 124.0 943Q124.0 1101 241.5 1203.5Q359.0 1306 541.0 1306ZM510.0 1245Q405.0 1245 336.5 1188.0Q268.0 1131 268.0 1044Q268.0 947 375.0 873Q495.0 790 602.0 790Q672.0 790 719.5 848.0Q767.0 906 767.0 991Q767.0 1097 692.5 1171.0Q618.0 1245 510.0 1245ZM354.0 615Q340.0 616 312.5 598.0Q285.0 580 269.0 560Q216.0 496 216.0 388Q216.0 235 306.0 135.5Q396.0 36 535.0 36Q653.0 36 728.5 100.0Q804.0 164 804.0 265Q804.0 441 612.0 513L510.0 552Q474.0 565 396.0 600Q363.0 614 354.0 615Z" transform="matrix(0.006858 0 0 -0.006858 146.49 49.06)" fill="#15130f"/><path d="M250.0 450Q250.0 349 278.0 264.5Q306.0 180 358.5 135.0Q411.0 90 467.0 90Q524.0 90 576.5 135.0Q629.0 180 657.0 264.5Q685.0 349 685.0 450Q685.0 541 657.0 625.5Q629.0 710 576.5 755.0Q524.0 800 467.0 800Q411.0 800 358.5 755.0Q306.0 710 278.0 625.5Q250.0 541 250.0 450ZM800.0 729Q817.0 704 831.0 676Q885.0 567 885.0 450Q885.0 323 831.0 214.5Q777.0 106 676.5 48.0Q576.0 -10 467.0 -10Q359.0 -10 258.5 48.0Q158.0 106 104.0 214.5Q50.0 323 50.0 450Q50.0 567 104.0 675.5Q158.0 784 258.5 842.0Q359.0 900 467.0 900Q576.0 900 677.0 842Q706.0 825 732.0 803L1082.0 1153Q905.0 1153 658.0 1223L693.0 1259Q1117.0 1259 1400.0 1400Q1259.0 1117 1259.0 693L1223.0 658Q1153.0 905 1153.0 1082Z" transform="matrix(0.009268 0 0 -0.009268 42.53 390.31)" fill="#15130f"/><path d="M1250.0 0V1067Q1250.0 1212 1241.5 1255.5Q1233.0 1299 1212.5 1317.5Q1192.0 1336 1168.0 1336L938.0 1106Q950.0 1037 950.0 952V0H750.0V1067Q750.0 1212 741.5 1255.5Q733.0 1299 712.5 1317.5Q692.0 1336 668.0 1336L438.0 1106Q450.0 1037 450.0 952V0H50.0V40H100.0Q170.0 40 210.0 95.0Q250.0 150 250.0 200V1067Q250.0 1212 241.5 1255.5Q233.0 1299 212.5 1317.5Q192.0 1336 168.0 1336V1410Q284.0 1392 358.0 1301Q387.0 1264 408.0 1216L602.0 1410H668.0Q784.0 1392 858.0 1301Q887.0 1264 908.0 1216L1102.0 1410H1168.0Q1284.0 1392 1358.0 1301Q1450.0 1187 1450.0 952V0Q1450.0 -91 1478.0 -175.5Q1506.0 -260 1558.5 -305.0Q1611.0 -350 1667.0 -350H1867.0Q1742.0 -225 1617.0 0H1667.0Q1967.0 -300 2267.0 -400Q1967.0 -500 1667.0 -800H1617.0Q1742.0 -575 1867.0 -450H1667.0Q1559.0 -450 1458.5 -392.0Q1358.0 -334 1304.0 -225.5Q1250.0 -117 1250.0 0Z" transform="matrix(0.008244 0 0 -0.008244 241.20 386.38)" fill="#15130f"/><path d="M642.0 -21Q599.0 -21 567.0 -11.5Q535.0 -2 512.0 16.0Q489.0 34 470.0 58Q448.0 88 427.0 116.5Q406.0 145 384.5 179.5Q363.0 214 337.0 262Q324.0 285 304.0 296Q291.0 303 277.5 306.0Q264.0 309 255.0 309Q249.0 310 246.0 304.0Q243.0 298 243.0 289V103Q243.0 72 259.5 55.0Q276.0 38 316.0 29Q329.0 27 335.0 22.5Q341.0 18 341.0 10Q341.0 3 335.5 0.0Q330.0 -3 319.0 -3Q296.0 -3 272.0 -1.5Q248.0 0 225.5 1.0Q203.0 2 183.0 2Q161.0 2 137.5 1.0Q114.0 0 90.0 -2.0Q66.0 -4 42.0 -4Q33.0 -4 26.0 -0.5Q19.0 3 19.0 9Q19.0 24 44.0 29Q82.0 37 98.0 51.0Q114.0 65 114.0 98V540Q114.0 569 109.5 584.5Q105.0 600 92.0 608.0Q79.0 616 53.0 620Q39.0 622 33.0 628.0Q27.0 634 27.0 640Q27.0 647 33.5 650.5Q40.0 654 51.0 654Q81.0 654 99.0 653.0Q117.0 652 133.5 650.5Q150.0 649 173.0 649Q195.0 649 212.0 651.0Q229.0 653 250.0 655.0Q271.0 657 304.0 657Q419.0 657 480.0 617.0Q541.0 577 541.0 495Q541.0 450 522.0 418.5Q503.0 387 474.5 367.0Q446.0 347 416.0 336Q412.0 335 412.5 331.0Q413.0 327 416.0 324Q446.0 278 474.5 236.5Q503.0 195 534.5 158.0Q566.0 121 603.0 87Q634.0 58 666.5 52.5Q699.0 47 734.0 47Q749.0 47 749.0 32Q749.0 12 734.0 0.5Q719.0 -11 694.5 -16.0Q670.0 -21 642.0 -21ZM286.0 338Q327.0 338 354.5 356.5Q382.0 375 396.5 406.0Q411.0 437 411.0 475Q411.0 520 400.0 551.5Q389.0 583 362.5 600.5Q336.0 618 290.0 618Q264.0 618 254.5 599.5Q245.0 581 244.0 525Q243.0 502 243.0 464.5Q243.0 427 243.0 375Q243.0 353 254.5 345.5Q266.0 338 286.0 338ZM793.0 -5Q782.0 -5 775.5 -1.0Q769.0 3 769.0 9Q769.0 22 795.0 28Q831.0 37 846.5 50.5Q862.0 64 862.0 97V550Q862.0 584 848.5 598.0Q835.0 612 798.0 620Q784.0 623 778.0 628.5Q772.0 634 772.0 640Q772.0 647 778.5 650.5Q785.0 654 796.0 654Q825.0 654 851.5 653.0Q878.0 652 903.0 651.0Q928.0 650 955.0 650Q1001.0 650 1052.5 651.0Q1104.0 652 1145.0 652Q1178.0 653 1199.5 655.0Q1221.0 657 1225.0 657Q1232.0 657 1239.5 654.0Q1247.0 651 1248.0 642Q1252.0 609 1258.0 577.0Q1264.0 545 1264.0 521Q1264.0 512 1259.5 507.5Q1255.0 503 1250.0 503Q1245.0 503 1241.0 506.5Q1237.0 510 1234.0 517Q1226.0 540 1219.0 557.0Q1212.0 574 1203.0 583Q1190.0 597 1173.0 605.0Q1156.0 613 1132.0 613H1039.0Q1021.0 613 1006.0 602.5Q991.0 592 991.0 573V377Q991.0 366 997.5 360.0Q1004.0 354 1013.0 354H1105.0Q1132.0 354 1143.5 369.0Q1155.0 384 1163.0 410Q1170.0 430 1182.0 430Q1187.0 430 1191.0 424.5Q1195.0 419 1195.0 410Q1194.0 400 1193.0 386.0Q1192.0 372 1191.5 358.0Q1191.0 344 1191.0 333Q1191.0 321 1191.5 306.0Q1192.0 291 1192.5 276.5Q1193.0 262 1194.0 252Q1195.0 241 1192.5 235.0Q1190.0 229 1184.0 229Q1168.0 229 1161.0 257Q1153.0 285 1142.0 299.0Q1131.0 313 1112.0 313H1018.0Q1005.0 313 998.0 308.0Q991.0 303 991.0 289V99Q991.0 66 1005.0 53.0Q1019.0 40 1048.0 40H1130.0Q1155.0 40 1175.5 45.0Q1196.0 50 1211.0 61Q1228.0 73 1241.5 93.5Q1255.0 114 1268.0 139Q1272.0 147 1276.0 149.5Q1280.0 152 1286.0 152Q1291.0 151 1293.5 146.0Q1296.0 141 1296.0 135Q1296.0 121 1291.0 99.0Q1286.0 77 1278.5 53.5Q1271.0 30 1265.0 10Q1262.0 3 1257.0 -0.5Q1252.0 -4 1245.0 -4Q1221.0 -4 1183.5 -3.5Q1146.0 -3 1102.0 -2.0Q1058.0 -1 1012.0 -0.5Q966.0 0 924.0 0Q903.0 0 881.5 -1.0Q860.0 -2 838.0 -3.5Q816.0 -5 793.0 -5ZM1653.0 -15Q1641.0 -15 1636.0 -2Q1630.0 11 1621.0 34.0Q1612.0 57 1605.0 76L1414.0 549Q1404.0 574 1387.0 592.5Q1370.0 611 1342.0 619Q1330.0 623 1322.5 627.5Q1315.0 632 1315.0 640Q1315.0 647 1322.0 650.5Q1329.0 654 1339.0 654Q1357.0 654 1381.5 653.0Q1406.0 652 1431.0 651.0Q1456.0 650 1477.0 650Q1497.0 650 1523.0 651.0Q1549.0 652 1573.5 653.0Q1598.0 654 1615.0 654Q1625.0 654 1634.0 650.5Q1643.0 647 1643.0 640Q1643.0 632 1634.0 626.5Q1625.0 621 1612.0 619Q1583.0 614 1567.5 605.5Q1552.0 597 1552.0 580Q1552.0 570 1555.0 561.0Q1558.0 552 1559.0 545L1694.0 177Q1696.0 172 1698.5 171.0Q1701.0 170 1704.0 178L1827.0 502Q1847.0 554 1833.5 583.5Q1820.0 613 1780.0 619Q1767.0 621 1757.5 626.5Q1748.0 632 1748.0 640Q1748.0 647 1757.0 650.0Q1766.0 653 1777.0 653Q1795.0 653 1810.0 652.5Q1825.0 652 1840.0 651.5Q1855.0 651 1874.0 651Q1903.0 651 1931.5 653.0Q1960.0 655 1985.0 655Q1997.0 655 2006.0 652.0Q2015.0 649 2015.0 641Q2015.0 632 2006.5 628.0Q1998.0 624 1986.0 621Q1953.0 613 1931.5 589.0Q1910.0 565 1894.0 527L1730.0 133Q1719.0 106 1708.5 82.0Q1698.0 58 1689.5 37.0Q1681.0 16 1672.0 -2Q1669.0 -9 1665.0 -12.0Q1661.0 -15 1653.0 -15ZM2059.0 -5Q2048.0 -5 2041.5 -1.0Q2035.0 3 2035.0 9Q2035.0 22 2061.0 28Q2097.0 37 2112.5 50.5Q2128.0 64 2128.0 97V550Q2128.0 584 2114.5 598.0Q2101.0 612 2064.0 620Q2050.0 623 2044.0 628.5Q2038.0 634 2038.0 640Q2038.0 647 2044.5 650.5Q2051.0 654 2062.0 654Q2091.0 654 2117.5 653.0Q2144.0 652 2169.0 651.0Q2194.0 650 2221.0 650Q2267.0 650 2318.5 651.0Q2370.0 652 2411.0 652Q2444.0 653 2465.5 655.0Q2487.0 657 2491.0 657Q2498.0 657 2505.5 654.0Q2513.0 651 2514.0 642Q2518.0 609 2524.0 577.0Q2530.0 545 2530.0 521Q2530.0 512 2525.5 507.5Q2521.0 503 2516.0 503Q2511.0 503 2507.0 506.5Q2503.0 510 2500.0 517Q2492.0 540 2485.0 557.0Q2478.0 574 2469.0 583Q2456.0 597 2439.0 605.0Q2422.0 613 2398.0 613H2305.0Q2287.0 613 2272.0 602.5Q2257.0 592 2257.0 573V377Q2257.0 366 2263.5 360.0Q2270.0 354 2279.0 354H2371.0Q2398.0 354 2409.5 369.0Q2421.0 384 2429.0 410Q2436.0 430 2448.0 430Q2453.0 430 2457.0 424.5Q2461.0 419 2461.0 410Q2460.0 400 2459.0 386.0Q2458.0 372 2457.5 358.0Q2457.0 344 2457.0 333Q2457.0 321 2457.5 306.0Q2458.0 291 2458.5 276.5Q2459.0 262 2460.0 252Q2461.0 241 2458.5 235.0Q2456.0 229 2450.0 229Q2434.0 229 2427.0 257Q2419.0 285 2408.0 299.0Q2397.0 313 2378.0 313H2284.0Q2271.0 313 2264.0 308.0Q2257.0 303 2257.0 289V99Q2257.0 66 2271.0 53.0Q2285.0 40 2314.0 40H2396.0Q2421.0 40 2441.5 45.0Q2462.0 50 2477.0 61Q2494.0 73 2507.5 93.5Q2521.0 114 2534.0 139Q2538.0 147 2542.0 149.5Q2546.0 152 2552.0 152Q2557.0 151 2559.5 146.0Q2562.0 141 2562.0 135Q2562.0 121 2557.0 99.0Q2552.0 77 2544.5 53.5Q2537.0 30 2531.0 10Q2528.0 3 2523.0 -0.5Q2518.0 -4 2511.0 -4Q2487.0 -4 2449.5 -3.5Q2412.0 -3 2368.0 -2.0Q2324.0 -1 2278.0 -0.5Q2232.0 0 2190.0 0Q2169.0 0 2147.5 -1.0Q2126.0 -2 2104.0 -3.5Q2082.0 -5 2059.0 -5ZM3257.0 -18Q3245.0 -18 3217.0 -3.0Q3189.0 12 3160.0 49Q3143.0 68 3118.5 95.5Q3094.0 123 3064.5 156.0Q3035.0 189 3003.0 225.0Q2971.0 261 2939.5 297.0Q2908.0 333 2878.0 366.0Q2848.0 399 2823.0 426.5Q2798.0 454 2781.0 474Q2777.0 479 2772.5 482.5Q2768.0 486 2765.0 486Q2761.0 486 2759.0 479.0Q2757.0 472 2757.0 466Q2757.0 420 2757.5 357.0Q2758.0 294 2758.0 229.0Q2758.0 164 2758.0 109Q2758.0 78 2776.0 58.0Q2794.0 38 2833.0 29Q2845.0 27 2853.5 22.5Q2862.0 18 2862.0 10Q2862.0 3 2854.0 0.0Q2846.0 -3 2836.0 -3Q2809.0 -3 2793.0 -2.0Q2777.0 -1 2764.0 0.0Q2751.0 1 2731.0 1Q2710.0 1 2693.5 0.0Q2677.0 -1 2664.0 -2.5Q2651.0 -4 2639.0 -4Q2629.0 -4 2621.0 -0.5Q2613.0 3 2613.0 9Q2613.0 17 2620.5 21.5Q2628.0 26 2641.0 30Q2667.0 38 2679.5 59.5Q2692.0 81 2695.0 111Q2699.0 149 2703.0 210.5Q2707.0 272 2710.5 349.0Q2714.0 426 2714.0 508Q2714.0 560 2687.5 583.0Q2661.0 606 2621.0 620Q2614.0 622 2603.0 628.0Q2592.0 634 2592.0 643Q2592.0 652 2600.0 655.0Q2608.0 658 2617.0 658Q2638.0 658 2659.0 657.0Q2680.0 656 2701.5 655.5Q2723.0 655 2746.5 654.0Q2770.0 653 2797.0 653Q2806.0 653 2810.5 649.5Q2815.0 646 2819.0 640Q2835.0 621 2860.0 592.5Q2885.0 564 2914.5 529.5Q2944.0 495 2976.5 457.0Q3009.0 419 3041.5 381.0Q3074.0 343 3104.0 308.5Q3134.0 274 3158.5 245.5Q3183.0 217 3199.0 199Q3203.0 195 3208.5 189.0Q3214.0 183 3218.0 183Q3226.0 183 3227.0 200Q3227.0 226 3227.0 266.5Q3227.0 307 3227.5 356.5Q3228.0 406 3227.5 458.0Q3227.0 510 3226.0 558Q3225.0 583 3205.5 597.5Q3186.0 612 3157.0 618Q3145.0 621 3134.5 625.5Q3124.0 630 3124.0 639Q3124.0 646 3134.5 649.0Q3145.0 652 3154.0 652Q3174.0 652 3187.5 652.0Q3201.0 652 3213.0 651.5Q3225.0 651 3238.0 651Q3260.0 651 3274.0 651.5Q3288.0 652 3304.5 653.0Q3321.0 654 3348.0 654Q3360.0 654 3367.5 650.5Q3375.0 647 3375.0 641Q3375.0 626 3346.0 620Q3311.0 613 3296.5 601.0Q3282.0 589 3281.0 561Q3281.0 536 3280.5 497.0Q3280.0 458 3279.0 412.0Q3278.0 366 3276.5 318.0Q3275.0 270 3274.5 224.0Q3274.0 178 3274.0 141Q3274.0 117 3276.0 92.0Q3278.0 67 3280.5 47.5Q3283.0 28 3283.0 20Q3283.0 -2 3276.0 -10.0Q3269.0 -18 3257.0 -18ZM3768.0 -14Q3697.0 -14 3634.0 10.0Q3571.0 34 3522.5 77.5Q3474.0 121 3446.5 181.0Q3419.0 241 3419.0 313Q3419.0 384 3446.5 447.0Q3474.0 510 3524.0 558.5Q3574.0 607 3642.5 635.5Q3711.0 664 3794.0 664Q3813.0 664 3841.0 660.5Q3869.0 657 3899.0 652.0Q3929.0 647 3954.5 641.0Q3980.0 635 3994.0 629Q4001.0 626 4005.0 621.5Q4009.0 617 4010.0 609Q4015.0 576 4018.0 546.0Q4021.0 516 4021.0 494Q4021.0 486 4016.5 480.0Q4012.0 474 4005.0 474Q3994.0 474 3989.0 481.5Q3984.0 489 3980.0 498Q3972.0 516 3962.0 533.5Q3952.0 551 3937.0 567Q3927.0 577 3909.5 588.5Q3892.0 600 3865.0 608.0Q3838.0 616 3799.0 616Q3744.0 616 3700.0 593.5Q3656.0 571 3626.0 531.0Q3596.0 491 3580.0 440.5Q3564.0 390 3564.0 335Q3564.0 266 3580.0 210.5Q3596.0 155 3625.0 115.5Q3654.0 76 3694.0 55.0Q3734.0 34 3784.0 34Q3820.0 34 3840.5 44.5Q3861.0 55 3870.0 63Q3881.0 72 3888.0 90.0Q3895.0 108 3896.0 132Q3896.0 141 3896.5 155.0Q3897.0 169 3897.5 183.0Q3898.0 197 3898.0 206Q3898.0 217 3894.5 225.5Q3891.0 234 3881.0 239Q3872.0 246 3858.0 251.5Q3844.0 257 3829.5 259.5Q3815.0 262 3806.0 263Q3799.0 264 3791.0 269.5Q3783.0 275 3783.0 283Q3783.0 291 3790.5 295.0Q3798.0 299 3804.0 299Q3827.0 299 3851.5 298.0Q3876.0 297 3900.5 296.0Q3925.0 295 3948.0 295Q3976.0 295 4003.5 297.0Q4031.0 299 4060.0 299Q4066.0 299 4072.5 295.5Q4079.0 292 4079.0 283Q4079.0 275 4072.0 270.0Q4065.0 265 4059.0 264Q4032.0 257 4022.5 246.0Q4013.0 235 4010.0 215Q4006.0 193 4004.5 176.0Q4003.0 159 4003.0 140V109Q4003.0 104 4006.5 100.0Q4010.0 96 4014.0 91Q4018.0 86 4021.5 81.0Q4025.0 76 4025.0 71Q4025.0 65 4021.5 58.5Q4018.0 52 4007.0 50Q4000.0 49 3980.0 39.0Q3960.0 29 3929.5 16.5Q3899.0 4 3858.5 -5.0Q3818.0 -14 3768.0 -14ZM4156.0 -5Q4145.0 -5 4138.5 -1.0Q4132.0 3 4132.0 9Q4132.0 22 4158.0 28Q4194.0 37 4209.5 50.5Q4225.0 64 4225.0 97V550Q4225.0 584 4211.5 598.0Q4198.0 612 4161.0 620Q4147.0 623 4141.0 628.5Q4135.0 634 4135.0 640Q4135.0 647 4141.5 650.5Q4148.0 654 4159.0 654Q4188.0 654 4214.5 653.0Q4241.0 652 4266.0 651.0Q4291.0 650 4318.0 650Q4364.0 650 4415.5 651.0Q4467.0 652 4508.0 652Q4541.0 653 4562.5 655.0Q4584.0 657 4588.0 657Q4595.0 657 4602.5 654.0Q4610.0 651 4611.0 642Q4615.0 609 4621.0 577.0Q4627.0 545 4627.0 521Q4627.0 512 4622.5 507.5Q4618.0 503 4613.0 503Q4608.0 503 4604.0 506.5Q4600.0 510 4597.0 517Q4589.0 540 4582.0 557.0Q4575.0 574 4566.0 583Q4553.0 597 4536.0 605.0Q4519.0 613 4495.0 613H4402.0Q4384.0 613 4369.0 602.5Q4354.0 592 4354.0 573V377Q4354.0 366 4360.5 360.0Q4367.0 354 4376.0 354H4468.0Q4495.0 354 4506.5 369.0Q4518.0 384 4526.0 410Q4533.0 430 4545.0 430Q4550.0 430 4554.0 424.5Q4558.0 419 4558.0 410Q4557.0 400 4556.0 386.0Q4555.0 372 4554.5 358.0Q4554.0 344 4554.0 333Q4554.0 321 4554.5 306.0Q4555.0 291 4555.5 276.5Q4556.0 262 4557.0 252Q4558.0 241 4555.5 235.0Q4553.0 229 4547.0 229Q4531.0 229 4524.0 257Q4516.0 285 4505.0 299.0Q4494.0 313 4475.0 313H4381.0Q4368.0 313 4361.0 308.0Q4354.0 303 4354.0 289V99Q4354.0 66 4368.0 53.0Q4382.0 40 4411.0 40H4493.0Q4518.0 40 4538.5 45.0Q4559.0 50 4574.0 61Q4591.0 73 4604.5 93.5Q4618.0 114 4631.0 139Q4635.0 147 4639.0 149.5Q4643.0 152 4649.0 152Q4654.0 151 4656.5 146.0Q4659.0 141 4659.0 135Q4659.0 121 4654.0 99.0Q4649.0 77 4641.5 53.5Q4634.0 30 4628.0 10Q4625.0 3 4620.0 -0.5Q4615.0 -4 4608.0 -4Q4584.0 -4 4546.5 -3.5Q4509.0 -3 4465.0 -2.0Q4421.0 -1 4375.0 -0.5Q4329.0 0 4287.0 0Q4266.0 0 4244.5 -1.0Q4223.0 -2 4201.0 -3.5Q4179.0 -5 4156.0 -5Z" transform="matrix(0.022120 0 0 -0.022120 98.26 390.98)" fill="#15130f"/></svg>