<svg xmlns="http://www.w3.org/2000/svg" viewBox="0 0 300 446"><rect width="300" height="446" fill="#f4ecd8"/><rect x="20.0" y="25.5" width="260" height="395" rx="20.3" fill="#f4ecd8" stroke="#15130f" stroke-width="1.5"/><rect x="36.9" y="42.4" width="226.2" height="354.7" fill="none" stroke="#15130f" stroke-width="0.7"/><g fill="none" stroke="#15130f" stroke-width="0.65" stroke-opacity="0.72" stroke-linecap="round" stroke-linejoin="round"><line x1="150.0" y1="42.4" x2="150.0" y2="210.0"/><line x1="36.9" y1="210.0" x2="263.1" y2="210.0"/></g><path d="M36.9,370.6 H263.1 V397.1 H36.9 Z" fill="#e59680"/><g fill="none" stroke="#15130f" stroke-width="0.8"><line x1="36.9" y1="370.6" x2="263.1" y2="370.6"/><line x1="61.6" y1="370.6" x2="61.6" y2="397.1"/><line x1="238.4" y1="370.6" x2="238.4" y2="397.1"/></g><rect x="141.4" y="34.4" width="17.2" height="19.0" fill="#e59680" stroke="#15130f" stroke-width="0.8"/><path d="M649.0 1092V235L647.0 193L657.0 137Q686.0 59 825.0 52Q867.0 50 867.0 28Q867.0 -7 780.0 -7Q761.0 -7 652.0 2Q595.0 7 494.0 7Q394.0 7 322.0 -2Q293.0 -5 280.0 -5Q255.0 -5 255.0 20Q255.0 41 281.0 45Q384.0 61 415.0 92.0Q446.0 123 446.0 210L445.0 248V1010Q445.0 1115 363.0 1115Q331.0 1115 306.0 1104L281.0 1093Q270.0 1089 261.0 1089Q235.0 1089 235.0 1113Q235.0 1137 260.0 1150.0Q285.0 1163 362.0 1180Q506.0 1211 567.0 1267L614.0 1310Q625.0 1320 641.0 1320Q661.0 1320 661.0 1282Q661.0 1271 659.0 1243L651.0 1153Q649.0 1126 649.0 1092ZM1569.0 1307Q1753.0 1307 1878.5 1138.5Q2004.0 970 2004.0 722Q2004.0 567 1951.0 407.5Q1898.0 248 1812.0 142Q1674.0 -27 1496.0 -27Q1308.0 -27 1187.5 146.0Q1067.0 319 1067.0 588Q1067.0 880 1216.0 1093.5Q1365.0 1307 1569.0 1307ZM1470.0 1205Q1366.0 1205 1305.5 1102.0Q1245.0 999 1245.0 824Q1245.0 522 1354.0 312.5Q1463.0 103 1620.0 103Q1723.0 103 1784.0 206.5Q1845.0 310 1845.0 485Q1845.0 644 1797.5 809.0Q1750.0 974 1675.0 1077Q1580.0 1205 1470.0 1205Z" transform="matrix(0.006024 0 0 -0.006024 143.26 48.57)" fill="#15130f"/><path d="M250.0 450Q250.0 349 278.0 264.5Q306.0 180 358.5 135.0Q411.0 90 467.0 90Q524.0 90 576.5 135.0Q629.0 180 657.0 264.5Q685.0 349 685.0 450Q685.0 541 657.0 625.5Q629.0 710 576.5 755.0Q524.0 800 467.0 800Q411.0 800 358.5 755.0Q306.0 710 278.0 625.5Q250.0 541 250.0 450ZM800.0 729Q817.0 704 831.0 676Q885.0 567 885.0 450Q885.0 323 831.0 214.5Q777.0 106 676.5 48.0Q576.0 -10 467.0 -10Q359.0 -10 258.5 48.0Q158.0 106 104.0 214.5Q50.0 323 50.0 450Q50.0 567 104.0 675.5Q158.0 784 258.5 842.0Q359.0 900 467.0 900Q576.0 900 677.0 842Q706.0 825 732.0 803L1082.0 1153Q905.0 1153 658.0 1223L693.0 1259Q1117.0 1259 1400.0 1400Q1259.0 1117 1259.0 693L1223.0 658Q1153.0 905 1153.0 1082Z" transform="matrix(0.009268 0 0 -0.009268 42.53 390.31)" fill="#15130f"/><path d="M1415.0 450Q1415.0 359 1443.0 274.5Q1471.0 190 1523.5 145.0Q1576.0 100 1632.0 100Q1689.0 100 1741.5 145.0Q1794.0 190 1822.0 274.5Q1850.0 359 1850.0 450Q1850.0 541 1822.0 625.5Q1794.0 710 1741.5 755.0Q1689.0 800 1632.0 800Q1576.0 800 1523.5 755.0Q1471.0 710 1443.0 625.5Q1415.0 541 1415.0 450ZM1395.0 824Q1409.0 834 1424.0 842Q1524.0 900 1632.0 900Q1741.0 900 1841.5 842.0Q1942.0 784 1996.0 675.5Q2050.0 567 2050.0 450Q2050.0 333 1996.0 224.5Q1942.0 116 1841.5 58.0Q1741.0 0 1632.0 0Q1524.0 0 1424.0 58Q1379.0 84 1343.0 120Q1297.0 25 1221.0 -55Q1027.0 -260 715.0 -260Q483.0 -260 289.0 -55Q278.0 -43 267.0 -31L292.0 4Q446.0 -160 715.0 -160Q952.0 -160 1083.5 35.5Q1215.0 231 1215.0 450Q1215.0 906 1106.0 1305Q927.0 1266 820.0 895Q700.0 479 700.0 0H500.0Q500.0 479 380.0 894.5Q260.0 1310 50.0 1310V1410Q343.0 1410 522.0 1003Q566.0 901 600.0 786Q634.0 901 679.0 1003Q857.0 1410 1150.0 1410H1255.0Q1359.0 1153 1395.0 824Z" transform="matrix(0.009139 0 0 -0.009139 241.15 389.12)" fill="#15130f"/><path d="M24.0 -5Q12.0 -5 4.0 -1.5Q-4.0 2 -4.0 10Q-4.0 19 3.5 24.0Q11.0 29 23.0 33Q52.0 41 73.5 57.5Q95.0 74 108.0 103Q133.0 162 156.0 216.5Q179.0 271 200.0 325.0Q221.0 379 242.5 435.0Q264.0 491 286.0 553Q297.0 584 301.0 601.0Q305.0 618 308.0 626Q323.0 630 336.0 634.0Q349.0 638 365.0 644Q379.0 651 389.0 662.0Q399.0 673 404.0 679Q407.0 681 410.0 681.5Q413.0 682 416.0 677Q419.0 671 421.0 665.0Q423.0 659 425.0 652Q447.0 581 470.5 508.5Q494.0 436 517.0 365.5Q540.0 295 561.5 230.5Q583.0 166 601.0 112Q610.0 85 623.5 69.0Q637.0 53 653.5 44.5Q670.0 36 690.0 31Q703.0 28 710.0 23.0Q717.0 18 717.0 9Q717.0 3 710.5 0.0Q704.0 -3 694.0 -3Q676.0 -3 648.5 -2.0Q621.0 -1 592.0 0.5Q563.0 2 540.0 2Q520.0 2 495.5 1.0Q471.0 0 446.5 -1.0Q422.0 -2 405.0 -2Q395.0 -2 387.5 1.5Q380.0 5 380.0 12Q380.0 20 388.0 25.5Q396.0 31 407.0 33Q443.0 39 459.0 51.5Q475.0 64 471.0 88Q468.0 105 462.0 128.5Q456.0 152 449.5 177.5Q443.0 203 436.0 224Q434.0 232 430.0 235.5Q426.0 239 415.0 239H235.0Q228.0 239 224.0 234.5Q220.0 230 218.0 221Q214.0 208 208.5 191.5Q203.0 175 197.5 157.5Q192.0 140 187.5 125.0Q183.0 110 181.0 99Q176.0 72 190.5 56.5Q205.0 41 241.0 32Q268.0 25 268.0 11Q268.0 5 261.5 1.5Q255.0 -2 243.0 -2Q220.0 -2 195.0 -0.5Q170.0 1 140.0 1Q110.0 1 81.5 -2.0Q53.0 -5 24.0 -5ZM262.0 285H401.0Q415.0 285 415.0 291Q415.0 294 414.5 296.0Q414.0 298 413.0 302L343.0 533Q339.0 547 336.0 547Q334.0 547 329.0 534L245.0 302Q243.0 297 243.0 294Q243.0 289 248.5 287.0Q254.0 285 262.0 285ZM1084.0 -14Q991.0 -14 929.0 19.0Q867.0 52 836.0 111.0Q805.0 170 805.0 249V541Q805.0 571 791.5 592.0Q778.0 613 756.0 619Q726.0 627 726.0 641Q726.0 647 734.0 650.5Q742.0 654 754.0 654Q782.0 654 812.5 652.0Q843.0 650 872.0 650Q898.0 650 931.5 651.5Q965.0 653 989.0 653Q1001.0 653 1008.5 650.0Q1016.0 647 1016.0 640Q1016.0 630 1003.5 625.5Q991.0 621 974.0 614Q960.0 608 947.5 589.5Q935.0 571 935.0 539V270Q935.0 198 959.0 151.5Q983.0 105 1023.0 83.0Q1063.0 61 1113.0 61Q1208.0 61 1254.0 121.0Q1300.0 181 1300.0 293Q1300.0 318 1300.0 352.0Q1300.0 386 1299.5 422.5Q1299.0 459 1298.0 492Q1298.0 531 1292.5 555.5Q1287.0 580 1277.0 594.5Q1267.0 609 1249.0 617Q1239.0 621 1225.5 626.0Q1212.0 631 1212.0 639Q1212.0 647 1220.0 650.0Q1228.0 653 1241.0 653Q1273.0 653 1290.5 652.0Q1308.0 651 1331.0 651Q1348.0 651 1361.5 651.5Q1375.0 652 1388.0 653.0Q1401.0 654 1418.0 654Q1430.0 654 1437.0 651.5Q1444.0 649 1444.0 641Q1444.0 627 1415.0 620Q1384.0 612 1372.0 591.0Q1360.0 570 1358.0 536Q1354.0 457 1352.5 391.0Q1351.0 325 1350.0 258Q1349.0 178 1313.5 116.5Q1278.0 55 1218.0 20.5Q1158.0 -14 1084.0 -14ZM1662.0 -4Q1652.0 -4 1644.5 -0.5Q1637.0 3 1637.0 9Q1637.0 17 1644.0 22.0Q1651.0 27 1664.0 29Q1702.0 37 1720.0 51.5Q1738.0 66 1738.0 99V504Q1738.0 545 1736.0 566.0Q1734.0 587 1730.5 594.5Q1727.0 602 1720.0 603Q1710.0 607 1695.0 608.0Q1680.0 609 1666.0 609H1635.0Q1606.0 609 1579.0 595.5Q1552.0 582 1537.0 559Q1533.0 553 1524.5 542.0Q1516.0 531 1506.5 522.0Q1497.0 513 1487.0 513Q1480.0 513 1477.5 518.0Q1475.0 523 1475.0 529Q1475.0 541 1481.0 553Q1498.0 587 1506.5 612.5Q1515.0 638 1518.0 673Q1520.0 688 1526.5 692.5Q1533.0 697 1540.0 697Q1546.0 697 1554.5 684.5Q1563.0 672 1570.0 664Q1579.0 655 1602.0 650.5Q1625.0 646 1641.0 646L2010.0 647Q2038.0 647 2057.0 651.5Q2076.0 656 2087.0 661Q2102.0 670 2111.0 679.5Q2120.0 689 2132.0 689Q2137.0 689 2139.5 683.5Q2142.0 678 2142.0 670Q2142.0 665 2141.0 658.5Q2140.0 652 2139.0 647Q2135.0 628 2131.0 613.5Q2127.0 599 2124.5 586.5Q2122.0 574 2122.0 558V541Q2122.0 527 2118.0 517.0Q2114.0 507 2105.0 507Q2097.0 507 2091.5 516.5Q2086.0 526 2080.0 546Q2071.0 578 2050.0 593.5Q2029.0 609 1984.0 609H1916.0Q1897.0 609 1886.5 602.0Q1876.0 595 1871.5 571.5Q1867.0 548 1867.0 499V100Q1867.0 68 1885.0 53.5Q1903.0 39 1942.0 29Q1954.0 26 1961.0 22.0Q1968.0 18 1968.0 10Q1968.0 3 1961.5 0.0Q1955.0 -3 1945.0 -3Q1921.0 -3 1897.0 -2.0Q1873.0 -1 1849.5 0.0Q1826.0 1 1804.0 1Q1782.0 1 1758.5 0.0Q1735.0 -1 1710.5 -2.5Q1686.0 -4 1662.0 -4ZM2188.0 -4Q2179.0 -4 2172.0 0.0Q2165.0 4 2165.0 10Q2165.0 24 2190.0 29Q2226.0 37 2238.0 51.0Q2250.0 65 2250.0 98V551Q2250.0 584 2240.0 598.0Q2230.0 612 2193.0 620Q2168.0 625 2168.0 640Q2168.0 647 2174.5 650.5Q2181.0 654 2191.0 654Q2215.0 654 2236.0 653.0Q2257.0 652 2277.0 651.0Q2297.0 650 2317.0 650Q2337.0 650 2358.5 651.0Q2380.0 652 2403.0 653.0Q2426.0 654 2449.0 654Q2471.0 654 2471.0 639Q2471.0 631 2465.0 627.0Q2459.0 623 2446.0 620Q2407.0 610 2393.5 595.0Q2380.0 580 2380.0 550V364Q2380.0 357 2384.5 354.5Q2389.0 352 2395.0 352H2694.0Q2705.0 352 2705.0 366V551Q2705.0 580 2692.0 595.0Q2679.0 610 2640.0 620Q2627.0 623 2620.5 627.0Q2614.0 631 2614.0 639Q2614.0 654 2636.0 654Q2660.0 654 2684.0 653.0Q2708.0 652 2730.5 651.0Q2753.0 650 2774.0 650Q2793.0 650 2811.0 651.0Q2829.0 652 2849.5 653.0Q2870.0 654 2894.0 654Q2903.0 654 2910.0 650.5Q2917.0 647 2917.0 640Q2917.0 625 2891.0 620Q2856.0 612 2845.5 597.0Q2835.0 582 2835.0 551V98Q2835.0 65 2846.0 51.0Q2857.0 37 2893.0 29Q2918.0 24 2918.0 10Q2918.0 4 2911.0 0.0Q2904.0 -4 2895.0 -4Q2872.0 -4 2851.0 -2.5Q2830.0 -1 2809.5 0.0Q2789.0 1 2769.0 1Q2749.0 1 2727.0 0.0Q2705.0 -1 2682.0 -2.0Q2659.0 -3 2635.0 -3Q2626.0 -3 2620.0 0.5Q2614.0 4 2614.0 11Q2614.0 19 2620.0 22.5Q2626.0 26 2638.0 29Q2674.0 38 2689.5 53.0Q2705.0 68 2705.0 98V288Q2705.0 294 2703.5 299.0Q2702.0 304 2695.0 304H2391.0Q2380.0 304 2380.0 289V102Q2380.0 72 2397.5 55.0Q2415.0 38 2451.0 29Q2464.0 26 2470.0 22.5Q2476.0 19 2476.0 11Q2476.0 4 2470.5 0.5Q2465.0 -3 2454.0 -3Q2431.0 -3 2407.0 -2.0Q2383.0 -1 2360.5 0.0Q2338.0 1 2317.0 1Q2296.0 1 2275.0 0.0Q2254.0 -1 2232.0 -2.5Q2210.0 -4 2188.0 -4ZM3320.0 -14Q3252.0 -14 3190.0 9.5Q3128.0 33 3080.5 76.5Q3033.0 120 3005.5 180.5Q2978.0 241 2978.0 315Q2978.0 383 3000.5 445.5Q3023.0 508 3067.5 557.0Q3112.0 606 3177.5 635.0Q3243.0 664 3329.0 664Q3397.0 664 3458.5 640.5Q3520.0 617 3568.0 573.5Q3616.0 530 3643.5 469.5Q3671.0 409 3671.0 335Q3671.0 268 3648.5 205.0Q3626.0 142 3581.5 93.0Q3537.0 44 3471.5 15.0Q3406.0 -14 3320.0 -14ZM3337.0 30Q3400.0 30 3442.5 62.0Q3485.0 94 3506.5 151.5Q3528.0 209 3528.0 284Q3528.0 348 3515.0 408.0Q3502.0 468 3475.0 515.5Q3448.0 563 3407.5 591.0Q3367.0 619 3311.0 619Q3248.0 619 3205.5 587.0Q3163.0 555 3142.0 498.0Q3121.0 441 3121.0 366Q3121.0 302 3134.0 242.0Q3147.0 182 3173.5 134.0Q3200.0 86 3240.5 58.0Q3281.0 30 3337.0 30ZM4347.0 -21Q4304.0 -21 4272.0 -11.5Q4240.0 -2 4217.0 16.0Q4194.0 34 4175.0 58Q4153.0 88 4132.0 116.5Q4111.0 145 4089.5 179.5Q4068.0 214 4042.0 262Q4029.0 285 4009.0 296Q3996.0 303 3982.5 306.0Q3969.0 309 3960.0 309Q3954.0 310 3951.0 304.0Q3948.0 298 3948.0 289V103Q3948.0 72 3964.5 55.0Q3981.0 38 4021.0 29Q4034.0 27 4040.0 22.5Q4046.0 18 4046.0 10Q4046.0 3 4040.5 0.0Q4035.0 -3 4024.0 -3Q4001.0 -3 3977.0 -1.5Q3953.0 0 3930.5 1.0Q3908.0 2 3888.0 2Q3866.0 2 3842.5 1.0Q3819.0 0 3795.0 -2.0Q3771.0 -4 3747.0 -4Q3738.0 -4 3731.0 -0.5Q3724.0 3 3724.0 9Q3724.0 24 3749.0 29Q3787.0 37 3803.0 51.0Q3819.0 65 3819.0 98V540Q3819.0 569 3814.5 584.5Q3810.0 600 3797.0 608.0Q3784.0 616 3758.0 620Q3744.0 622 3738.0 628.0Q3732.0 634 3732.0 640Q3732.0 647 3738.5 650.5Q3745.0 654 3756.0 654Q3786.0 654 3804.0 653.0Q3822.0 652 3838.5 650.5Q3855.0 649 3878.0 649Q3900.0 649 3917.0 651.0Q3934.0 653 3955.0 655.0Q3976.0 657 4009.0 657Q4124.0 657 4185.0 617.0Q4246.0 577 4246.0 495Q4246.0 450 4227.0 418.5Q4208.0 387 4179.5 367.0Q4151.0 347 4121.0 336Q4117.0 335 4117.5 331.0Q4118.0 327 4121.0 324Q4151.0 278 4179.5 236.5Q4208.0 195 4239.5 158.0Q4271.0 121 4308.0 87Q4339.0 58 4371.5 52.5Q4404.0 47 4439.0 47Q4454.0 47 4454.0 32Q4454.0 12 4439.0 0.5Q4424.0 -11 4399.5 -16.0Q4375.0 -21 4347.0 -21ZM3991.0 338Q4032.0 338 4059.5 356.5Q4087.0 375 4101.5 406.0Q4116.0 437 4116.0 475Q4116.0 520 4105.0 551.5Q4094.0 583 4067.5 600.5Q4041.0 618 3995.0 618Q3969.0 618 3959.5 599.5Q3950.0 581 3949.0 525Q3948.0 502 3948.0 464.5Q3948.0 427 3948.0 375Q3948.0 353 3959.5 345.5Q3971.0 338 3991.0 338ZM4489.0 -4Q4480.0 -4 4473.0 -0.5Q4466.0 3 4466.0 9Q4466.0 24 4491.0 29Q4529.0 37 4546.0 51.0Q4563.0 65 4563.0 97V551Q4563.0 584 4549.0 598.0Q4535.0 612 4496.0 620Q4471.0 625 4471.0 641Q4471.0 647 4478.0 650.5Q4485.0 654 4494.0 654Q4518.0 654 4541.0 653.0Q4564.0 652 4585.5 651.0Q4607.0 650 4629.0 650Q4650.0 650 4671.5 651.0Q4693.0 652 4716.0 653.0Q4739.0 654 4763.0 654Q4773.0 654 4779.0 650.5Q4785.0 647 4785.0 640Q4785.0 632 4778.5 627.5Q4772.0 623 4760.0 620Q4720.0 610 4706.0 596.0Q4692.0 582 4692.0 550V98Q4692.0 67 4708.5 53.0Q4725.0 39 4763.0 29Q4776.0 26 4782.5 22.0Q4789.0 18 4789.0 10Q4789.0 3 4783.0 0.0Q4777.0 -3 4767.0 -3Q4743.0 -3 4719.0 -2.0Q4695.0 -1 4672.5 0.0Q4650.0 1 4629.0 1Q4607.0 1 4584.0 0.0Q4561.0 -1 4537.0 -2.5Q4513.0 -4 4489.0 -4ZM5014.0 -4Q5004.0 -4 4996.5 -0.5Q4989.0 3 4989.0 9Q4989.0 17 4996.0 22.0Q5003.0 27 5016.0 29Q5054.0 37 5072.0 51.5Q5090.0 66 5090.0 99V504Q5090.0 545 5088.0 566.0Q5086.0 587 5082.5 594.5Q5079.0 602 5072.0 603Q5062.0 607 5047.0 608.0Q5032.0 609 5018.0 609H4987.0Q4958.0 609 4931.0 595.5Q4904.0 582 4889.0 559Q4885.0 553 4876.5 542.0Q4868.0 531 4858.5 522.0Q4849.0 513 4839.0 513Q4832.0 513 4829.5 518.0Q4827.0 523 4827.0 529Q4827.0 541 4833.0 553Q4850.0 587 4858.5 612.5Q4867.0 638 4870.0 673Q4872.0 688 4878.5 692.5Q4885.0 697 4892.0 697Q4898.0 697 4906.5 684.5Q4915.0 672 4922.0 664Q4931.0 655 4954.0 650.5Q4977.0 646 4993.0 646L5362.0 647Q5390.0 647 5409.0 651.5Q5428.0 656 5439.0 661Q5454.0 670 5463.0 679.5Q5472.0 689 5484.0 689Q5489.0 689 5491.5 683.5Q5494.0 678 5494.0 670Q5494.0 665 5493.0 658.5Q5492.0 652 5491.0 647Q5487.0 628 5483.0 613.5Q5479.0 599 5476.5 586.5Q5474.0 574 5474.0 558V541Q5474.0 527 5470.0 517.0Q5466.0 507 5457.0 507Q5449.0 507 5443.5 516.5Q5438.0 526 5432.0 546Q5423.0 578 5402.0 593.5Q5381.0 609 5336.0 609H5268.0Q5249.0 609 5238.5 602.0Q5228.0 595 5223.5 571.5Q5219.0 548 5219.0 499V100Q5219.0 68 5237.0 53.5Q5255.0 39 5294.0 29Q5306.0 26 5313.0 22.0Q5320.0 18 5320.0 10Q5320.0 3 5313.5 0.0Q5307.0 -3 5297.0 -3Q5273.0 -3 5249.0 -2.0Q5225.0 -1 5201.5 0.0Q5178.0 1 5156.0 1Q5134.0 1 5110.5 0.0Q5087.0 -1 5062.5 -2.5Q5038.0 -4 5014.0 -4ZM5681.0 -6Q5668.0 -6 5660.5 -2.0Q5653.0 2 5653.0 9Q5653.0 17 5661.5 21.5Q5670.0 26 5683.0 29Q5721.0 36 5738.0 56.0Q5755.0 76 5755.0 109V251Q5755.0 280 5745.0 303.5Q5735.0 327 5726.0 343L5601.0 540Q5593.0 553 5580.5 569.5Q5568.0 586 5553.0 600.0Q5538.0 614 5519.0 619Q5507.0 623 5499.5 627.5Q5492.0 632 5492.0 640Q5492.0 647 5499.0 650.5Q5506.0 654 5516.0 654Q5552.0 654 5587.5 651.5Q5623.0 649 5663.0 649Q5692.0 649 5718.5 651.5Q5745.0 654 5773.0 654Q5783.0 654 5792.0 650.5Q5801.0 647 5801.0 640Q5801.0 632 5792.0 627.0Q5783.0 622 5771.0 619Q5748.0 614 5736.5 607.0Q5725.0 600 5725.0 586Q5725.0 571 5737.0 551L5836.0 376Q5849.0 351 5858.0 351Q5863.0 351 5868.0 357.0Q5873.0 363 5881.0 376Q5905.0 415 5925.0 453.0Q5945.0 491 5968.0 536Q5974.0 548 5977.5 559.5Q5981.0 571 5981.0 580Q5981.0 600 5965.0 608.5Q5949.0 617 5932.0 619Q5922.0 620 5911.0 626.0Q5900.0 632 5900.0 640Q5900.0 647 5909.0 650.0Q5918.0 653 5929.0 653Q5956.0 653 5976.5 651.0Q5997.0 649 6022.0 649Q6050.0 649 6075.5 652.0Q6101.0 655 6125.0 655Q6137.0 655 6145.5 652.0Q6154.0 649 6154.0 641Q6154.0 632 6142.0 627.5Q6130.0 623 6116.0 619Q6088.0 611 6068.0 592.0Q6048.0 573 6029.0 543Q6012.0 515 5997.0 491.5Q5982.0 468 5968.5 446.5Q5955.0 425 5941.0 402.5Q5927.0 380 5911.0 353Q5901.0 336 5895.5 322.0Q5890.0 308 5887.0 293.0Q5884.0 278 5884.0 258V110Q5884.0 73 5901.0 55.5Q5918.0 38 5956.0 29Q5970.0 26 5978.5 22.0Q5987.0 18 5987.0 9Q5987.0 3 5979.5 -1.0Q5972.0 -5 5960.0 -5Q5936.0 -5 5912.0 -3.0Q5888.0 -1 5865.5 0.5Q5843.0 2 5821.0 2Q5799.0 2 5776.0 0.5Q5753.0 -1 5729.0 -3.5Q5705.0 -6 5681.0 -6Z" transform="matrix(0.022120 0 0 -0.022120 81.98 391.34)" fill="#15130f"/></svg>