<svg xmlns="http://www.w3.org/2000/svg" viewBox="0 0 300 446"><rect width="300" height="446" fill="#f4ecd8"/><rect x="20.0" y="25.5" width="260" height="395" rx="20.3" fill="#f4ecd8" stroke="#15130f" stroke-width="1.5"/><rect x="36.9" y="42.4" width="226.2" height="354.7" fill="none" stroke="#15130f" stroke-width="0.7"/><g fill="none" stroke="#15130f" stroke-width="0.65" stroke-opacity="0.72" stroke-linecap="round" stroke-linejoin="round"><line x1="150.0" y1="42.4" x2="150.0" y2="210.0"/><line x1="36.9" y1="210.0" x2="263.1" y2="210.0"/></g><path d="M36.9,370.6 H263.1 V397.1 H36.9 Z" fill="#e59680"/><g fill="none" stroke="#15130f" stroke-width="0.8"><line x1="36.9" y1="370.6" x2="263.1" y2="370.6"/><line x1="61.6" y1="370.6" x2="61.6" y2="397.1"/><line x1="238.4" y1="370.6" x2="238.4" y2="397.1"/></g><rect x="141.4" y="34.4" width="17.2" height="19.0" fill="#e59680" stroke="#15130f" stroke-width="0.8"/><path d="M754.0 1055H388.0Q323.0 1055 311.0 963Q305.0 912 298.0 870Q294.0 844 294.0 822Q294.0 792 325.0 792Q335.0 792 350.0 795Q414.0 806 475.0 806Q664.0 806 775.5 709.5Q887.0 613 887.0 449Q887.0 250 738.0 111.5Q589.0 -27 375.0 -27Q285.0 -27 176.5 10.0Q68.0 47 68.0 78Q68.0 105 94.0 105Q101.0 105 112.0 101Q255.0 47 343.0 47Q489.0 47 590.5 139.0Q692.0 231 692.0 365Q692.0 477 611.5 550.0Q531.0 623 407.0 623Q373.0 623 299.0 612Q255.0 606 240.0 606Q196.0 606 196.0 658Q196.0 671 205.0 708Q212.0 739 227.0 858Q234.0 917 245.0 993L264.0 1132Q277.0 1226 285.5 1240.0Q294.0 1254 337.0 1254H727.0Q767.0 1254 797.0 1284L837.0 1323Q845.0 1331 858.0 1331Q875.0 1331 875.0 1315Q875.0 1301 869.0 1285L847.0 1208L830.0 1148Q809.0 1075 801.0 1065.0Q793.0 1055 754.0 1055Z" transform="matrix(0.006858 0 0 -0.006858 146.73 49.15)" fill="#15130f"/><path d="M250.0 450Q250.0 349 278.0 264.5Q306.0 180 358.5 135.0Q411.0 90 467.0 90Q524.0 90 576.5 135.0Q629.0 180 657.0 264.5Q685.0 349 685.0 450Q685.0 541 657.0 625.5Q629.0 710 576.5 755.0Q524.0 800 467.0 800Q411.0 800 358.5 755.0Q306.0 710 278.0 625.5Q250.0 541 250.0 450ZM800.0 729Q817.0 704 831.0 676Q885.0 567 885.0 450Q885.0 323 831.0 214.5Q777.0 106 676.5 48.0Q576.0 -10 467.0 -10Q359.0 -10 258.5 48.0Q158.0 106 104.0 214.5Q50.0 323 50.0 450Q50.0 567 104.0 675.5Q158.0 784 258.5 842.0Q359.0 900 467.0 900Q576.0 900 677.0 842Q706.0 825 732.0 803L1082.0 1153Q905.0 1153 658.0 1223L693.0 1259Q1117.0 1259 1400.0 1400Q1259.0 1117 1259.0 693L1223.0 658Q1153.0 905 1153.0 1082Z" transform="matrix(0.009268 0 0 -0.009268 42.53 390.31)" fill="#15130f"/><path d="M250.0 439Q250.0 348 278.0 263.5Q306.0 179 358.5 134.0Q411.0 89 467.0 89Q524.0 89 576.5 134.0Q629.0 179 657.0 263.5Q685.0 348 685.0 439Q685.0 530 657.0 614.5Q629.0 699 576.5 744.0Q524.0 789 467.0 789Q411.0 789 358.5 744.0Q306.0 699 278.0 614.5Q250.0 530 250.0 439ZM831.0 665Q885.0 556 885.0 439Q885.0 322 831.0 213.5Q777.0 105 676.5 47.0Q576.0 -11 467.0 -11Q359.0 -11 258.5 47.0Q158.0 105 104.0 213.5Q50.0 322 50.0 439Q50.0 556 104.0 664.5Q158.0 773 258.5 831.0Q359.0 889 467.0 889Q503.0 889 537.0 883V900Q537.0 1115 681.0 1262.5Q825.0 1410 1118.0 1410Q1411.0 1410 1555.5 1262.5Q1700.0 1115 1700.0 900Q1700.0 684 1389.0 330.0Q1078.0 -24 1078.0 -204Q1078.0 -303 1125.5 -356.5Q1173.0 -410 1248.0 -410Q1356.0 -410 1446.5 -374.0Q1537.0 -338 1581.0 -266.5Q1625.0 -195 1651.0 -51H1688.0V-510H1651.0Q1644.0 -464 1629.5 -449.0Q1615.0 -434 1590.0 -434Q1554.0 -434 1450.0 -472.0Q1346.0 -510 1227.0 -510Q1089.0 -510 994.5 -400.0Q900.0 -290 900.0 -128Q900.0 102 1200.0 452.5Q1500.0 803 1500.0 950Q1500.0 1100 1414.0 1205.0Q1328.0 1310 1118.0 1310Q905.0 1310 821.0 1205.0Q737.0 1100 737.0 900Q737.0 836 768.0 782.5Q799.0 729 831.0 665Z" transform="matrix(0.009268 0 0 -0.009268 242.64 388.04)" fill="#15130f"/><path d="M49.0 -5Q38.0 -5 31.5 -1.0Q25.0 3 25.0 9Q25.0 22 51.0 28Q87.0 37 102.5 50.5Q118.0 64 118.0 97V550Q118.0 584 104.5 598.0Q91.0 612 54.0 620Q40.0 623 34.0 628.5Q28.0 634 28.0 640Q28.0 647 34.5 650.5Q41.0 654 52.0 654Q81.0 654 107.5 653.0Q134.0 652 159.0 651.0Q184.0 650 211.0 650Q257.0 650 308.5 651.0Q360.0 652 401.0 652Q434.0 653 455.5 655.0Q477.0 657 481.0 657Q488.0 657 495.5 654.0Q503.0 651 504.0 642Q508.0 609 514.0 577.0Q520.0 545 520.0 521Q520.0 512 515.5 507.5Q511.0 503 506.0 503Q501.0 503 497.0 506.5Q493.0 510 490.0 517Q482.0 540 475.0 557.0Q468.0 574 459.0 583Q446.0 597 429.0 605.0Q412.0 613 388.0 613H295.0Q277.0 613 262.0 602.5Q247.0 592 247.0 573V377Q247.0 366 253.5 360.0Q260.0 354 269.0 354H361.0Q388.0 354 399.5 369.0Q411.0 384 419.0 410Q426.0 430 438.0 430Q443.0 430 447.0 424.5Q451.0 419 451.0 410Q450.0 400 449.0 386.0Q448.0 372 447.5 358.0Q447.0 344 447.0 333Q447.0 321 447.5 306.0Q448.0 291 448.5 276.5Q449.0 262 450.0 252Q451.0 241 448.5 235.0Q446.0 229 440.0 229Q424.0 229 417.0 257Q409.0 285 398.0 299.0Q387.0 313 368.0 313H274.0Q261.0 313 254.0 308.0Q247.0 303 247.0 289V99Q247.0 66 261.0 53.0Q275.0 40 304.0 40H386.0Q411.0 40 431.5 45.0Q452.0 50 467.0 61Q484.0 73 497.5 93.5Q511.0 114 524.0 139Q528.0 147 532.0 149.5Q536.0 152 542.0 152Q547.0 151 549.5 146.0Q552.0 141 552.0 135Q552.0 121 547.0 99.0Q542.0 77 534.5 53.5Q527.0 30 521.0 10Q518.0 3 513.0 -0.5Q508.0 -4 501.0 -4Q477.0 -4 439.5 -3.5Q402.0 -3 358.0 -2.0Q314.0 -1 268.0 -0.5Q222.0 0 180.0 0Q159.0 0 137.5 -1.0Q116.0 -2 94.0 -3.5Q72.0 -5 49.0 -5ZM954.0 -14Q883.0 -14 820.0 10.0Q757.0 34 708.5 77.5Q660.0 121 632.5 181.0Q605.0 241 605.0 313Q605.0 384 632.5 447.0Q660.0 510 710.0 558.5Q760.0 607 828.5 635.5Q897.0 664 980.0 664Q999.0 664 1027.0 660.5Q1055.0 657 1085.0 652.0Q1115.0 647 1140.5 641.0Q1166.0 635 1180.0 629Q1187.0 626 1191.0 621.5Q1195.0 617 1196.0 609Q1201.0 576 1204.0 546.0Q1207.0 516 1207.0 494Q1207.0 486 1202.5 480.0Q1198.0 474 1191.0 474Q1180.0 474 1175.0 481.5Q1170.0 489 1166.0 498Q1158.0 516 1148.0 533.5Q1138.0 551 1123.0 567Q1113.0 577 1095.5 588.5Q1078.0 600 1051.0 608.0Q1024.0 616 985.0 616Q930.0 616 886.0 593.5Q842.0 571 812.0 531.0Q782.0 491 766.0 440.5Q750.0 390 750.0 335Q750.0 266 766.0 210.5Q782.0 155 811.0 115.5Q840.0 76 880.0 55.0Q920.0 34 970.0 34Q1006.0 34 1026.5 44.5Q1047.0 55 1056.0 63Q1067.0 72 1074.0 90.0Q1081.0 108 1082.0 132Q1082.0 141 1082.5 155.0Q1083.0 169 1083.5 183.0Q1084.0 197 1084.0 206Q1084.0 217 1080.5 225.5Q1077.0 234 1067.0 239Q1058.0 246 1044.0 251.5Q1030.0 257 1015.5 259.5Q1001.0 262 992.0 263Q985.0 264 977.0 269.5Q969.0 275 969.0 283Q969.0 291 976.5 295.0Q984.0 299 990.0 299Q1013.0 299 1037.5 298.0Q1062.0 297 1086.5 296.0Q1111.0 295 1134.0 295Q1162.0 295 1189.5 297.0Q1217.0 299 1246.0 299Q1252.0 299 1258.5 295.5Q1265.0 292 1265.0 283Q1265.0 275 1258.0 270.0Q1251.0 265 1245.0 264Q1218.0 257 1208.5 246.0Q1199.0 235 1196.0 215Q1192.0 193 1190.5 176.0Q1189.0 159 1189.0 140V109Q1189.0 104 1192.5 100.0Q1196.0 96 1200.0 91Q1204.0 86 1207.5 81.0Q1211.0 76 1211.0 71Q1211.0 65 1207.5 58.5Q1204.0 52 1193.0 50Q1186.0 49 1166.0 39.0Q1146.0 29 1115.5 16.5Q1085.0 4 1044.5 -5.0Q1004.0 -14 954.0 -14ZM1669.0 -14Q1601.0 -14 1539.0 9.5Q1477.0 33 1429.5 76.5Q1382.0 120 1354.5 180.5Q1327.0 241 1327.0 315Q1327.0 383 1349.5 445.5Q1372.0 508 1416.5 557.0Q1461.0 606 1526.5 635.0Q1592.0 664 1678.0 664Q1746.0 664 1807.5 640.5Q1869.0 617 1917.0 573.5Q1965.0 530 1992.5 469.5Q2020.0 409 2020.0 335Q2020.0 268 1997.5 205.0Q1975.0 142 1930.5 93.0Q1886.0 44 1820.5 15.0Q1755.0 -14 1669.0 -14ZM1686.0 30Q1749.0 30 1791.5 62.0Q1834.0 94 1855.5 151.5Q1877.0 209 1877.0 284Q1877.0 348 1864.0 408.0Q1851.0 468 1824.0 515.5Q1797.0 563 1756.5 591.0Q1716.0 619 1660.0 619Q1597.0 619 1554.5 587.0Q1512.0 555 1491.0 498.0Q1470.0 441 1470.0 366Q1470.0 302 1483.0 242.0Q1496.0 182 1522.5 134.0Q1549.0 86 1589.5 58.0Q1630.0 30 1686.0 30ZM2263.0 -4Q2253.0 -4 2245.5 -0.5Q2238.0 3 2238.0 9Q2238.0 17 2245.0 22.0Q2252.0 27 2265.0 29Q2303.0 37 2321.0 51.5Q2339.0 66 2339.0 99V504Q2339.0 545 2337.0 566.0Q2335.0 587 2331.5 594.5Q2328.0 602 2321.0 603Q2311.0 607 2296.0 608.0Q2281.0 609 2267.0 609H2236.0Q2207.0 609 2180.0 595.5Q2153.0 582 2138.0 559Q2134.0 553 2125.5 542.0Q2117.0 531 2107.5 522.0Q2098.0 513 2088.0 513Q2081.0 513 2078.5 518.0Q2076.0 523 2076.0 529Q2076.0 541 2082.0 553Q2099.0 587 2107.5 612.5Q2116.0 638 2119.0 673Q2121.0 688 2127.5 692.5Q2134.0 697 2141.0 697Q2147.0 697 2155.5 684.5Q2164.0 672 2171.0 664Q2180.0 655 2203.0 650.5Q2226.0 646 2242.0 646L2611.0 647Q2639.0 647 2658.0 651.5Q2677.0 656 2688.0 661Q2703.0 670 2712.0 679.5Q2721.0 689 2733.0 689Q2738.0 689 2740.5 683.5Q2743.0 678 2743.0 670Q2743.0 665 2742.0 658.5Q2741.0 652 2740.0 647Q2736.0 628 2732.0 613.5Q2728.0 599 2725.5 586.5Q2723.0 574 2723.0 558V541Q2723.0 527 2719.0 517.0Q2715.0 507 2706.0 507Q2698.0 507 2692.5 516.5Q2687.0 526 2681.0 546Q2672.0 578 2651.0 593.5Q2630.0 609 2585.0 609H2517.0Q2498.0 609 2487.5 602.0Q2477.0 595 2472.5 571.5Q2468.0 548 2468.0 499V100Q2468.0 68 2486.0 53.5Q2504.0 39 2543.0 29Q2555.0 26 2562.0 22.0Q2569.0 18 2569.0 10Q2569.0 3 2562.5 0.0Q2556.0 -3 2546.0 -3Q2522.0 -3 2498.0 -2.0Q2474.0 -1 2450.5 0.0Q2427.0 1 2405.0 1Q2383.0 1 2359.5 0.0Q2336.0 -1 2311.5 -2.5Q2287.0 -4 2263.0 -4ZM2781.0 -4Q2772.0 -4 2765.0 -0.5Q2758.0 3 2758.0 9Q2758.0 24 2783.0 29Q2821.0 37 2838.0 51.0Q2855.0 65 2855.0 97V551Q2855.0 584 2841.0 598.0Q2827.0 612 2788.0 620Q2763.0 625 2763.0 641Q2763.0 647 2770.0 650.5Q2777.0 654 2786.0 654Q2810.0 654 2833.0 653.0Q2856.0 652 2877.5 651.0Q2899.0 650 2921.0 650Q2942.0 650 2963.5 651.0Q2985.0 652 3008.0 653.0Q3031.0 654 3055.0 654Q3065.0 654 3071.0 650.5Q3077.0 647 3077.0 640Q3077.0 632 3070.5 627.5Q3064.0 623 3052.0 620Q3012.0 610 2998.0 596.0Q2984.0 582 2984.0 550V98Q2984.0 67 3000.5 53.0Q3017.0 39 3055.0 29Q3068.0 26 3074.5 22.0Q3081.0 18 3081.0 10Q3081.0 3 3075.0 0.0Q3069.0 -3 3059.0 -3Q3035.0 -3 3011.0 -2.0Q2987.0 -1 2964.5 0.0Q2942.0 1 2921.0 1Q2899.0 1 2876.0 0.0Q2853.0 -1 2829.0 -2.5Q2805.0 -4 2781.0 -4ZM3311.0 -15Q3268.0 -15 3229.5 -4.0Q3191.0 7 3159.0 29Q3153.0 34 3148.0 39.5Q3143.0 45 3140.0 52Q3132.0 77 3129.0 113.5Q3126.0 150 3127.0 184Q3127.0 191 3132.5 194.0Q3138.0 197 3146.0 197Q3154.0 197 3158.5 194.5Q3163.0 192 3165.0 185Q3187.0 110 3229.0 68.0Q3271.0 26 3324.0 26Q3357.0 26 3380.0 41.0Q3403.0 56 3415.0 80.0Q3427.0 104 3427.0 132Q3427.0 167 3414.5 190.0Q3402.0 213 3377.0 231.5Q3352.0 250 3314.0 271Q3273.0 295 3234.0 321.5Q3195.0 348 3170.0 384.5Q3145.0 421 3145.0 475Q3145.0 531 3173.5 573.5Q3202.0 616 3253.0 640.0Q3304.0 664 3371.0 664Q3408.0 664 3440.0 656.0Q3472.0 648 3491.0 640Q3502.0 636 3507.5 630.0Q3513.0 624 3516.0 611Q3522.0 590 3526.5 561.0Q3531.0 532 3531.0 500Q3531.0 488 3513.0 488Q3505.0 488 3497.0 492.0Q3489.0 496 3487.0 503Q3469.0 561 3437.5 591.0Q3406.0 621 3360.0 621Q3329.0 621 3307.0 610.5Q3285.0 600 3272.0 578.5Q3259.0 557 3259.0 523Q3259.0 497 3276.5 475.0Q3294.0 453 3325.5 432.0Q3357.0 411 3396.0 386Q3444.0 358 3476.5 329.5Q3509.0 301 3526.0 266.5Q3543.0 232 3543.0 185Q3543.0 119 3514.0 74.5Q3485.0 30 3433.0 7.5Q3381.0 -15 3311.0 -15ZM3626.0 -4Q3614.0 -4 3607.5 -0.5Q3601.0 3 3601.0 9Q3601.0 17 3609.5 20.5Q3618.0 24 3630.0 27Q3654.0 34 3671.0 54.0Q3688.0 74 3692.0 106Q3700.0 167 3707.5 239.0Q3715.0 311 3721.5 384.0Q3728.0 457 3732.0 521Q3732.0 528 3732.0 537.0Q3732.0 546 3732.0 555Q3731.0 570 3726.5 579.5Q3722.0 589 3711.0 597Q3697.0 607 3682.0 612.5Q3667.0 618 3648.0 622Q3637.0 624 3630.5 629.5Q3624.0 635 3624.0 643Q3624.0 651 3632.0 654.0Q3640.0 657 3653.0 657Q3666.0 657 3688.0 656.0Q3710.0 655 3735.5 653.5Q3761.0 652 3786.0 651.0Q3811.0 650 3830.0 650Q3838.0 650 3844.0 645.0Q3850.0 640 3852.0 633Q3858.0 614 3864.0 596.0Q3870.0 578 3877.0 558L4027.0 191Q4030.0 186 4035.0 185.5Q4040.0 185 4042.0 190L4203.0 548Q4210.0 577 4214.5 599.0Q4219.0 621 4223.0 634Q4226.0 647 4236.0 647H4277.0Q4315.0 649 4357.0 653.0Q4399.0 657 4422.0 657Q4430.0 657 4437.5 654.5Q4445.0 652 4445.0 644Q4445.0 636 4439.0 632.0Q4433.0 628 4421.0 623Q4413.0 621 4402.0 616.5Q4391.0 612 4383.0 608Q4362.0 599 4351.5 585.0Q4341.0 571 4342.0 545Q4343.0 474 4346.0 417.5Q4349.0 361 4351.5 311.5Q4354.0 262 4358.0 210.5Q4362.0 159 4365.0 97Q4367.0 69 4386.5 53.0Q4406.0 37 4439.0 29Q4451.0 26 4458.5 22.0Q4466.0 18 4466.0 10Q4466.0 3 4459.5 0.0Q4453.0 -3 4442.0 -3Q4419.0 -3 4394.0 -2.0Q4369.0 -1 4345.5 0.0Q4322.0 1 4301.0 1Q4281.0 1 4260.0 0.0Q4239.0 -1 4217.0 -2.5Q4195.0 -4 4171.0 -4Q4161.0 -4 4153.5 -0.5Q4146.0 3 4146.0 9Q4146.0 17 4153.5 22.0Q4161.0 27 4173.0 29Q4207.0 36 4220.5 50.0Q4234.0 64 4232.0 97Q4231.0 162 4229.0 222.0Q4227.0 282 4225.0 341.0Q4223.0 400 4220.0 460Q4219.0 468 4215.5 467.5Q4212.0 467 4208.0 459L4004.0 -1Q4000.0 -12 3991.0 -10.5Q3982.0 -9 3979.0 -1Q3933.0 115 3882.5 228.5Q3832.0 342 3783.0 459Q3780.0 467 3774.5 465.0Q3769.0 463 3768.0 454Q3763.0 398 3759.0 338.5Q3755.0 279 3754.0 220.0Q3753.0 161 3753.0 103Q3753.0 76 3770.5 57.0Q3788.0 38 3824.0 29Q3836.0 27 3844.5 22.5Q3853.0 18 3853.0 10Q3853.0 3 3845.0 0.0Q3837.0 -3 3827.0 -3Q3800.0 -3 3786.0 -2.0Q3772.0 -1 3760.0 0.0Q3748.0 1 3728.0 1Q3707.0 1 3688.5 0.0Q3670.0 -1 3654.0 -2.5Q3638.0 -4 3626.0 -4Z" transform="matrix(0.022120 0 0 -0.022120 100.33 391.41)" fill="#15130f"/></svg>