<svg xmlns="http://www.w3.org/2000/svg" viewBox="0 0 300 446"><rect width="300" height="446" fill="#f4ecd8"/><rect x="20.0" y="25.5" width="260" height="395" rx="20.3" fill="#f4ecd8" stroke="#15130f" stroke-width="1.5"/><rect x="36.9" y="42.4" width="226.2" height="354.7" fill="none" stroke="#15130f" stroke-width="0.7"/><g fill="none" stroke="#15130f" stroke-width="0.65" stroke-opacity="0.72" stroke-linecap="round" stroke-linejoin="round"><line x1="36.9" y1="42.4" x2="263.1" y2="370.6"/></g><path d="M36.9,370.6 H263.1 V397.1 H36.9 Z" fill="#bfdedc"/><g fill="none" stroke="#15130f" stroke-width="0.8"><line x1="36.9" y1="370.6" x2="263.1" y2="370.6"/><line x1="61.6" y1="370.6" x2="61.6" y2="397.1"/><line x1="238.4" y1="370.6" x2="238.4" y2="397.1"/></g><rect x="141.4" y="34.4" width="17.2" height="19.0" fill="#bfdedc" stroke="#15130f" stroke-width="0.8"/><path d="M923.0 348Q946.0 348 948.0 331L946.0 321L931.0 277Q917.0 236 896.0 192L845.0 85Q815.0 23 792.5 9.5Q770.0 -4 697.0 -4Q653.0 -4 591.0 -1L506.0 4Q458.0 6 371.0 6Q208.0 6 167.0 -1Q139.0 -6 126.0 -6Q95.0 -6 95.0 21Q95.0 40 154.0 106Q246.0 211 365.0 383.0Q484.0 555 541.0 665Q617.0 813 617.0 932Q617.0 1035 559.0 1096.0Q501.0 1157 404.0 1157Q266.0 1157 156.0 1033Q146.0 1021 138.0 1021Q131.0 1021 122.5 1029.5Q114.0 1038 114.0 1046Q114.0 1059 145.0 1101.5Q176.0 1144 210.0 1176Q343.0 1307 517.0 1307Q655.0 1307 740.0 1230.5Q825.0 1154 825.0 1029Q825.0 803 432.0 355L384.0 300Q342.0 253 342.0 233Q342.0 198 426.0 198L590.0 200L686.0 201Q750.0 204 811.0 241.0Q872.0 278 902.0 333Q911.0 348 923.0 348Z" transform="matrix(0.006858 0 0 -0.006858 146.42 49.14)" fill="#15130f"/><path d="M250.0 950Q250.0 859 278.0 774.5Q306.0 690 358.5 645.0Q411.0 600 467.0 600Q524.0 600 576.5 645.0Q629.0 690 657.0 774.5Q685.0 859 685.0 950Q685.0 1051 657.0 1135.5Q629.0 1220 576.5 1265.0Q524.0 1310 467.0 1310Q411.0 1310 358.5 1265.0Q306.0 1220 278.0 1135.5Q250.0 1051 250.0 950ZM589.0 1391Q633.0 1377 677.0 1352Q777.0 1294 831.0 1185.5Q885.0 1077 885.0 950Q885.0 833 831.0 724.5Q777.0 616 677.0 558Q623.0 527 568.0 513V350H785.0V250H568.0V170Q568.0 120 593.0 80.0Q618.0 40 688.0 40H738.0V0H198.0V40H248.0Q318.0 40 343.0 80.0Q368.0 120 368.0 170V250H150.0V350H368.0V513Q312.0 527 259.0 558Q158.0 616 104.0 724.5Q50.0 833 50.0 950Q50.0 1077 104.0 1185.5Q158.0 1294 259.0 1352Q301.0 1377 346.0 1391Q253.0 1414 191.0 1476Q126.0 1541 119.0 1596Q117.0 1608 117.0 1620Q117.0 1656 138.5 1677.5Q160.0 1699 196.0 1700Q231.0 1700 251.5 1679.0Q272.0 1658 282.0 1630Q289.0 1613 292.5 1548.0Q296.0 1483 346.5 1467.5Q397.0 1452 467.0 1452Q537.0 1452 587.5 1467.5Q638.0 1483 641.5 1548.0Q645.0 1613 652.0 1630Q662.0 1658 682.5 1679.0Q703.0 1700 738.0 1700Q774.0 1699 795.5 1677.5Q817.0 1656 817.0 1620Q817.0 1608 815.0 1596Q808.0 1541 743.0 1476Q681.0 1414 589.0 1391Z" transform="matrix(0.009268 0 0 -0.009268 44.92 391.74)" fill="#15130f"/><path d="M467.0 450Q467.0 349 495.0 264.5Q523.0 180 575.5 135.0Q628.0 90 684.0 90Q741.0 90 793.5 135.0Q846.0 180 874.0 264.5Q902.0 349 902.0 450Q902.0 541 874.0 625.5Q846.0 710 793.5 755.0Q741.0 800 684.0 800Q628.0 800 575.5 755.0Q523.0 710 495.0 625.5Q467.0 541 467.0 450ZM897.0 840Q995.0 782 1048.0 676Q1102.0 567 1102.0 450Q1102.0 323 1048.0 214.5Q994.0 106 893.5 48.0Q793.0 -10 684.0 -10Q576.0 -10 475.5 48.0Q375.0 106 321.0 214.5Q267.0 323 267.0 450Q267.0 567 321.0 676Q374.0 782 472.0 840Q374.0 878 321.0 950Q267.0 1022 267.0 1100Q267.0 1162 239.0 1210.5Q211.0 1259 158.5 1284.5Q106.0 1310 50.0 1310V1410Q158.0 1410 258.5 1371.5Q359.0 1333 413.0 1260.5Q467.0 1188 467.0 1100Q467.0 1048 495.0 999.5Q523.0 951 575.5 925.5Q628.0 900 684.0 900Q741.0 900 793.5 925.5Q846.0 951 874.0 999.5Q902.0 1048 902.0 1100Q902.0 1188 956.0 1260.5Q1010.0 1333 1110.5 1371.5Q1211.0 1410 1320.0 1410V1310Q1263.0 1310 1210.5 1284.5Q1158.0 1259 1130.0 1210.5Q1102.0 1162 1102.0 1100Q1102.0 1022 1048.0 950Q995.0 878 897.0 840Z" transform="matrix(0.009268 0 0 -0.009268 244.40 390.35)" fill="#15130f"/><path d="M642.0 -21Q599.0 -21 567.0 -11.5Q535.0 -2 512.0 16.0Q489.0 34 470.0 58Q448.0 88 427.0 116.5Q406.0 145 384.5 179.5Q363.0 214 337.0 262Q324.0 285 304.0 296Q291.0 303 277.5 306.0Q264.0 309 255.0 309Q249.0 310 246.0 304.0Q243.0 298 243.0 289V103Q243.0 72 259.5 55.0Q276.0 38 316.0 29Q329.0 27 335.0 22.5Q341.0 18 341.0 10Q341.0 3 335.5 0.0Q330.0 -3 319.0 -3Q296.0 -3 272.0 -1.5Q248.0 0 225.5 1.0Q203.0 2 183.0 2Q161.0 2 137.5 1.0Q114.0 0 90.0 -2.0Q66.0 -4 42.0 -4Q33.0 -4 26.0 -0.5Q19.0 3 19.0 9Q19.0 24 44.0 29Q82.0 37 98.0 51.0Q114.0 65 114.0 98V540Q114.0 569 109.5 584.5Q105.0 600 92.0 608.0Q79.0 616 53.0 620Q39.0 622 33.0 628.0Q27.0 634 27.0 640Q27.0 647 33.5 650.5Q40.0 654 51.0 654Q81.0 654 99.0 653.0Q117.0 652 133.5 650.5Q150.0 649 173.0 649Q195.0 649 212.0 651.0Q229.0 653 250.0 655.0Q271.0 657 304.0 657Q419.0 657 480.0 617.0Q541.0 577 541.0 495Q541.0 450 522.0 418.5Q503.0 387 474.5 367.0Q446.0 347 416.0 336Q412.0 335 412.5 331.0Q413.0 327 416.0 324Q446.0 278 474.5 236.5Q503.0 195 534.5 158.0Q566.0 121 603.0 87Q634.0 58 666.5 52.5Q699.0 47 734.0 47Q749.0 47 749.0 32Q749.0 12 734.0 0.5Q719.0 -11 694.5 -16.0Q670.0 -21 642.0 -21ZM286.0 338Q327.0 338 354.5 356.5Q382.0 375 396.5 406.0Q411.0 437 411.0 475Q411.0 520 400.0 551.5Q389.0 583 362.5 600.5Q336.0 618 290.0 618Q264.0 618 254.5 599.5Q245.0 581 244.0 525Q243.0 502 243.0 464.5Q243.0 427 243.0 375Q243.0 353 254.5 345.5Q266.0 338 286.0 338ZM793.0 -5Q782.0 -5 775.5 -1.0Q769.0 3 769.0 9Q769.0 22 795.0 28Q831.0 37 846.5 50.5Q862.0 64 862.0 97V550Q862.0 584 848.5 598.0Q835.0 612 798.0 620Q784.0 623 778.0 628.5Q772.0 634 772.0 640Q772.0 647 778.5 650.5Q785.0 654 796.0 654Q825.0 654 851.5 653.0Q878.0 652 903.0 651.0Q928.0 650 955.0 650Q1001.0 650 1052.5 651.0Q1104.0 652 1145.0 652Q1178.0 653 1199.5 655.0Q1221.0 657 1225.0 657Q1232.0 657 1239.5 654.0Q1247.0 651 1248.0 642Q1252.0 609 1258.0 577.0Q1264.0 545 1264.0 521Q1264.0 512 1259.5 507.5Q1255.0 503 1250.0 503Q1245.0 503 1241.0 506.5Q1237.0 510 1234.0 517Q1226.0 540 1219.0 557.0Q1212.0 574 1203.0 583Q1190.0 597 1173.0 605.0Q1156.0 613 1132.0 613H1039.0Q1021.0 613 1006.0 602.5Q991.0 592 991.0 573V377Q991.0 366 997.5 360.0Q1004.0 354 1013.0 354H1105.0Q1132.0 354 1143.5 369.0Q1155.0 384 1163.0 410Q1170.0 430 1182.0 430Q1187.0 430 1191.0 424.5Q1195.0 419 1195.0 410Q1194.0 400 1193.0 386.0Q1192.0 372 1191.5 358.0Q1191.0 344 1191.0 333Q1191.0 321 1191.5 306.0Q1192.0 291 1192.5 276.5Q1193.0 262 1194.0 252Q1195.0 241 1192.5 235.0Q1190.0 229 1184.0 229Q1168.0 229 1161.0 257Q1153.0 285 1142.0 299.0Q1131.0 313 1112.0 313H1018.0Q1005.0 313 998.0 308.0Q991.0 303 991.0 289V99Q991.0 66 1005.0 53.0Q1019.0 40 1048.0 40H1130.0Q1155.0 40 1175.5 45.0Q1196.0 50 1211.0 61Q1228.0 73 1241.5 93.5Q1255.0 114 1268.0 139Q1272.0 147 1276.0 149.5Q1280.0 152 1286.0 152Q1291.0 151 1293.5 146.0Q1296.0 141 1296.0 135Q1296.0 121 1291.0 99.0Q1286.0 77 1278.5 53.5Q1271.0 30 1265.0 10Q1262.0 3 1257.0 -0.5Q1252.0 -4 1245.0 -4Q1221.0 -4 1183.5 -3.5Q1146.0 -3 1102.0 -2.0Q1058.0 -1 1012.0 -0.5Q966.0 0 924.0 0Q903.0 0 881.5 -1.0Q860.0 -2 838.0 -3.5Q816.0 -5 793.0 -5ZM1529.0 -15Q1486.0 -15 1447.5 -4.0Q1409.0 7 1377.0 29Q1371.0 34 1366.0 39.5Q1361.0 45 1358.0 52Q1350.0 77 1347.0 113.5Q1344.0 150 1345.0 184Q1345.0 191 1350.5 194.0Q1356.0 197 1364.0 197Q1372.0 197 1376.5 194.5Q1381.0 192 1383.0 185Q1405.0 110 1447.0 68.0Q1489.0 26 1542.0 26Q1575.0 26 1598.0 41.0Q1621.0 56 1633.0 80.0Q1645.0 104 1645.0 132Q1645.0 167 1632.5 190.0Q1620.0 213 1595.0 231.5Q1570.0 250 1532.0 271Q1491.0 295 1452.0 321.5Q1413.0 348 1388.0 384.5Q1363.0 421 1363.0 475Q1363.0 531 1391.5 573.5Q1420.0 616 1471.0 640.0Q1522.0 664 1589.0 664Q1626.0 664 1658.0 656.0Q1690.0 648 1709.0 640Q1720.0 636 1725.5 630.0Q1731.0 624 1734.0 611Q1740.0 590 1744.5 561.0Q1749.0 532 1749.0 500Q1749.0 488 1731.0 488Q1723.0 488 1715.0 492.0Q1707.0 496 1705.0 503Q1687.0 561 1655.5 591.0Q1624.0 621 1578.0 621Q1547.0 621 1525.0 610.5Q1503.0 600 1490.0 578.5Q1477.0 557 1477.0 523Q1477.0 497 1494.5 475.0Q1512.0 453 1543.5 432.0Q1575.0 411 1614.0 386Q1662.0 358 1694.5 329.5Q1727.0 301 1744.0 266.5Q1761.0 232 1761.0 185Q1761.0 119 1732.0 74.5Q1703.0 30 1651.0 7.5Q1599.0 -15 1529.0 -15ZM1839.0 -4Q1830.0 -4 1823.0 -0.5Q1816.0 3 1816.0 9Q1816.0 24 1841.0 29Q1879.0 37 1896.0 51.0Q1913.0 65 1913.0 97V551Q1913.0 584 1899.0 598.0Q1885.0 612 1846.0 620Q1821.0 625 1821.0 641Q1821.0 647 1828.0 650.5Q1835.0 654 1844.0 654Q1868.0 654 1891.0 653.0Q1914.0 652 1935.5 651.0Q1957.0 650 1979.0 650Q2000.0 650 2021.5 651.0Q2043.0 652 2066.0 653.0Q2089.0 654 2113.0 654Q2123.0 654 2129.0 650.5Q2135.0 647 2135.0 640Q2135.0 632 2128.5 627.5Q2122.0 623 2110.0 620Q2070.0 610 2056.0 596.0Q2042.0 582 2042.0 550V98Q2042.0 67 2058.5 53.0Q2075.0 39 2113.0 29Q2126.0 26 2132.5 22.0Q2139.0 18 2139.0 10Q2139.0 3 2133.0 0.0Q2127.0 -3 2117.0 -3Q2093.0 -3 2069.0 -2.0Q2045.0 -1 2022.5 0.0Q2000.0 1 1979.0 1Q1957.0 1 1934.0 0.0Q1911.0 -1 1887.0 -2.5Q1863.0 -4 1839.0 -4ZM2369.0 -15Q2326.0 -15 2287.5 -4.0Q2249.0 7 2217.0 29Q2211.0 34 2206.0 39.5Q2201.0 45 2198.0 52Q2190.0 77 2187.0 113.5Q2184.0 150 2185.0 184Q2185.0 191 2190.5 194.0Q2196.0 197 2204.0 197Q2212.0 197 2216.5 194.5Q2221.0 192 2223.0 185Q2245.0 110 2287.0 68.0Q2329.0 26 2382.0 26Q2415.0 26 2438.0 41.0Q2461.0 56 2473.0 80.0Q2485.0 104 2485.0 132Q2485.0 167 2472.5 190.0Q2460.0 213 2435.0 231.5Q2410.0 250 2372.0 271Q2331.0 295 2292.0 321.5Q2253.0 348 2228.0 384.5Q2203.0 421 2203.0 475Q2203.0 531 2231.5 573.5Q2260.0 616 2311.0 640.0Q2362.0 664 2429.0 664Q2466.0 664 2498.0 656.0Q2530.0 648 2549.0 640Q2560.0 636 2565.5 630.0Q2571.0 624 2574.0 611Q2580.0 590 2584.5 561.0Q2589.0 532 2589.0 500Q2589.0 488 2571.0 488Q2563.0 488 2555.0 492.0Q2547.0 496 2545.0 503Q2527.0 561 2495.5 591.0Q2464.0 621 2418.0 621Q2387.0 621 2365.0 610.5Q2343.0 600 2330.0 578.5Q2317.0 557 2317.0 523Q2317.0 497 2334.5 475.0Q2352.0 453 2383.5 432.0Q2415.0 411 2454.0 386Q2502.0 358 2534.5 329.5Q2567.0 301 2584.0 266.5Q2601.0 232 2601.0 185Q2601.0 119 2572.0 74.5Q2543.0 30 2491.0 7.5Q2439.0 -15 2369.0 -15ZM2848.0 -4Q2838.0 -4 2830.5 -0.5Q2823.0 3 2823.0 9Q2823.0 17 2830.0 22.0Q2837.0 27 2850.0 29Q2888.0 37 2906.0 51.5Q2924.0 66 2924.0 99V504Q2924.0 545 2922.0 566.0Q2920.0 587 2916.5 594.5Q2913.0 602 2906.0 603Q2896.0 607 2881.0 608.0Q2866.0 609 2852.0 609H2821.0Q2792.0 609 2765.0 595.5Q2738.0 582 2723.0 559Q2719.0 553 2710.5 542.0Q2702.0 531 2692.5 522.0Q2683.0 513 2673.0 513Q2666.0 513 2663.5 518.0Q2661.0 523 2661.0 529Q2661.0 541 2667.0 553Q2684.0 587 2692.5 612.5Q2701.0 638 2704.0 673Q2706.0 688 2712.5 692.5Q2719.0 697 2726.0 697Q2732.0 697 2740.5 684.5Q2749.0 672 2756.0 664Q2765.0 655 2788.0 650.5Q2811.0 646 2827.0 646L3196.0 647Q3224.0 647 3243.0 651.5Q3262.0 656 3273.0 661Q3288.0 670 3297.0 679.5Q3306.0 689 3318.0 689Q3323.0 689 3325.5 683.5Q3328.0 678 3328.0 670Q3328.0 665 3327.0 658.5Q3326.0 652 3325.0 647Q3321.0 628 3317.0 613.5Q3313.0 599 3310.5 586.5Q3308.0 574 3308.0 558V541Q3308.0 527 3304.0 517.0Q3300.0 507 3291.0 507Q3283.0 507 3277.5 516.5Q3272.0 526 3266.0 546Q3257.0 578 3236.0 593.5Q3215.0 609 3170.0 609H3102.0Q3083.0 609 3072.5 602.0Q3062.0 595 3057.5 571.5Q3053.0 548 3053.0 499V100Q3053.0 68 3071.0 53.5Q3089.0 39 3128.0 29Q3140.0 26 3147.0 22.0Q3154.0 18 3154.0 10Q3154.0 3 3147.5 0.0Q3141.0 -3 3131.0 -3Q3107.0 -3 3083.0 -2.0Q3059.0 -1 3035.5 0.0Q3012.0 1 2990.0 1Q2968.0 1 2944.5 0.0Q2921.0 -1 2896.5 -2.5Q2872.0 -4 2848.0 -4ZM3350.0 -5Q3338.0 -5 3330.0 -1.5Q3322.0 2 3322.0 10Q3322.0 19 3329.5 24.0Q3337.0 29 3349.0 33Q3378.0 41 3399.5 57.5Q3421.0 74 3434.0 103Q3459.0 162 3482.0 216.5Q3505.0 271 3526.0 325.0Q3547.0 379 3568.5 435.0Q3590.0 491 3612.0 553Q3623.0 584 3627.0 601.0Q3631.0 618 3634.0 626Q3649.0 630 3662.0 634.0Q3675.0 638 3691.0 644Q3705.0 651 3715.0 662.0Q3725.0 673 3730.0 679Q3733.0 681 3736.0 681.5Q3739.0 682 3742.0 677Q3745.0 671 3747.0 665.0Q3749.0 659 3751.0 652Q3773.0 581 3796.5 508.5Q3820.0 436 3843.0 365.5Q3866.0 295 3887.5 230.5Q3909.0 166 3927.0 112Q3936.0 85 3949.5 69.0Q3963.0 53 3979.5 44.5Q3996.0 36 4016.0 31Q4029.0 28 4036.0 23.0Q4043.0 18 4043.0 9Q4043.0 3 4036.5 0.0Q4030.0 -3 4020.0 -3Q4002.0 -3 3974.5 -2.0Q3947.0 -1 3918.0 0.5Q3889.0 2 3866.0 2Q3846.0 2 3821.5 1.0Q3797.0 0 3772.5 -1.0Q3748.0 -2 3731.0 -2Q3721.0 -2 3713.5 1.5Q3706.0 5 3706.0 12Q3706.0 20 3714.0 25.5Q3722.0 31 3733.0 33Q3769.0 39 3785.0 51.5Q3801.0 64 3797.0 88Q3794.0 105 3788.0 128.5Q3782.0 152 3775.5 177.5Q3769.0 203 3762.0 224Q3760.0 232 3756.0 235.5Q3752.0 239 3741.0 239H3561.0Q3554.0 239 3550.0 234.5Q3546.0 230 3544.0 221Q3540.0 208 3534.5 191.5Q3529.0 175 3523.5 157.5Q3518.0 140 3513.5 125.0Q3509.0 110 3507.0 99Q3502.0 72 3516.5 56.5Q3531.0 41 3567.0 32Q3594.0 25 3594.0 11Q3594.0 5 3587.5 1.5Q3581.0 -2 3569.0 -2Q3546.0 -2 3521.0 -0.5Q3496.0 1 3466.0 1Q3436.0 1 3407.5 -2.0Q3379.0 -5 3350.0 -5ZM3588.0 285H3727.0Q3741.0 285 3741.0 291Q3741.0 294 3740.5 296.0Q3740.0 298 3739.0 302L3669.0 533Q3665.0 547 3662.0 547Q3660.0 547 3655.0 534L3571.0 302Q3569.0 297 3569.0 294Q3569.0 289 3574.5 287.0Q3580.0 285 3588.0 285ZM4713.0 -18Q4701.0 -18 4673.0 -3.0Q4645.0 12 4616.0 49Q4599.0 68 4574.5 95.5Q4550.0 123 4520.5 156.0Q4491.0 189 4459.0 225.0Q4427.0 261 4395.5 297.0Q4364.0 333 4334.0 366.0Q4304.0 399 4279.0 426.5Q4254.0 454 4237.0 474Q4233.0 479 4228.5 482.5Q4224.0 486 4221.0 486Q4217.0 486 4215.0 479.0Q4213.0 472 4213.0 466Q4213.0 420 4213.5 357.0Q4214.0 294 4214.0 229.0Q4214.0 164 4214.0 109Q4214.0 78 4232.0 58.0Q4250.0 38 4289.0 29Q4301.0 27 4309.5 22.5Q4318.0 18 4318.0 10Q4318.0 3 4310.0 0.0Q4302.0 -3 4292.0 -3Q4265.0 -3 4249.0 -2.0Q4233.0 -1 4220.0 0.0Q4207.0 1 4187.0 1Q4166.0 1 4149.5 0.0Q4133.0 -1 4120.0 -2.5Q4107.0 -4 4095.0 -4Q4085.0 -4 4077.0 -0.5Q4069.0 3 4069.0 9Q4069.0 17 4076.5 21.5Q4084.0 26 4097.0 30Q4123.0 38 4135.5 59.5Q4148.0 81 4151.0 111Q4155.0 149 4159.0 210.5Q4163.0 272 4166.5 349.0Q4170.0 426 4170.0 508Q4170.0 560 4143.5 583.0Q4117.0 606 4077.0 620Q4070.0 622 4059.0 628.0Q4048.0 634 4048.0 643Q4048.0 652 4056.0 655.0Q4064.0 658 4073.0 658Q4094.0 658 4115.0 657.0Q4136.0 656 4157.5 655.5Q4179.0 655 4202.5 654.0Q4226.0 653 4253.0 653Q4262.0 653 4266.5 649.5Q4271.0 646 4275.0 640Q4291.0 621 4316.0 592.5Q4341.0 564 4370.5 529.5Q4400.0 495 4432.5 457.0Q4465.0 419 4497.5 381.0Q4530.0 343 4560.0 308.5Q4590.0 274 4614.5 245.5Q4639.0 217 4655.0 199Q4659.0 195 4664.5 189.0Q4670.0 183 4674.0 183Q4682.0 183 4683.0 200Q4683.0 226 4683.0 266.5Q4683.0 307 4683.5 356.5Q4684.0 406 4683.5 458.0Q4683.0 510 4682.0 558Q4681.0 583 4661.5 597.5Q4642.0 612 4613.0 618Q4601.0 621 4590.5 625.5Q4580.0 630 4580.0 639Q4580.0 646 4590.5 649.0Q4601.0 652 4610.0 652Q4630.0 652 4643.5 652.0Q4657.0 652 4669.0 651.5Q4681.0 651 4694.0 651Q4716.0 651 4730.0 651.5Q4744.0 652 4760.5 653.0Q4777.0 654 4804.0 654Q4816.0 654 4823.5 650.5Q4831.0 647 4831.0 641Q4831.0 626 4802.0 620Q4767.0 613 4752.5 601.0Q4738.0 589 4737.0 561Q4737.0 536 4736.5 497.0Q4736.0 458 4735.0 412.0Q4734.0 366 4732.5 318.0Q4731.0 270 4730.5 224.0Q4730.0 178 4730.0 141Q4730.0 117 4732.0 92.0Q4734.0 67 4736.5 47.5Q4739.0 28 4739.0 20Q4739.0 -2 4732.0 -10.0Q4725.0 -18 4713.0 -18ZM5246.0 -14Q5171.0 -14 5104.0 9.5Q5037.0 33 4985.5 77.0Q4934.0 121 4904.5 182.5Q4875.0 244 4875.0 319Q4875.0 389 4904.0 451.0Q4933.0 513 4986.0 561.0Q5039.0 609 5112.5 636.5Q5186.0 664 5274.0 664Q5308.0 664 5338.5 659.5Q5369.0 655 5398.0 648.5Q5427.0 642 5455.0 632Q5466.0 628 5472.5 621.0Q5479.0 614 5480.0 602Q5484.0 572 5486.0 542.5Q5488.0 513 5488.0 484Q5489.0 474 5481.0 469.5Q5473.0 465 5464.0 468.5Q5455.0 472 5451.0 483Q5443.0 511 5432.5 535.5Q5422.0 560 5401.0 577Q5378.0 596 5343.0 607.5Q5308.0 619 5261.0 619Q5207.0 619 5163.0 597.0Q5119.0 575 5087.5 536.0Q5056.0 497 5039.0 448.0Q5022.0 399 5022.0 345Q5022.0 281 5037.5 224.0Q5053.0 167 5084.5 123.5Q5116.0 80 5161.0 55.5Q5206.0 31 5264.0 31Q5338.0 31 5384.0 63.0Q5430.0 95 5462.0 158Q5470.0 174 5484.0 173.5Q5498.0 173 5498.0 157Q5498.0 145 5495.0 127.0Q5492.0 109 5486.5 88.5Q5481.0 68 5474.0 48Q5470.0 36 5464.0 30.0Q5458.0 24 5446.0 19Q5408.0 3 5356.5 -5.5Q5305.0 -14 5246.0 -14ZM5599.0 -5Q5588.0 -5 5581.5 -1.0Q5575.0 3 5575.0 9Q5575.0 22 5601.0 28Q5637.0 37 5652.5 50.5Q5668.0 64 5668.0 97V550Q5668.0 584 5654.5 598.0Q5641.0 612 5604.0 620Q5590.0 623 5584.0 628.5Q5578.0 634 5578.0 640Q5578.0 647 5584.5 650.5Q5591.0 654 5602.0 654Q5631.0 654 5657.5 653.0Q5684.0 652 5709.0 651.0Q5734.0 650 5761.0 650Q5807.0 650 5858.5 651.0Q5910.0 652 5951.0 652Q5984.0 653 6005.5 655.0Q6027.0 657 6031.0 657Q6038.0 657 6045.5 654.0Q6053.0 651 6054.0 642Q6058.0 609 6064.0 577.0Q6070.0 545 6070.0 521Q6070.0 512 6065.5 507.5Q6061.0 503 6056.0 503Q6051.0 503 6047.0 506.5Q6043.0 510 6040.0 517Q6032.0 540 6025.0 557.0Q6018.0 574 6009.0 583Q5996.0 597 5979.0 605.0Q5962.0 613 5938.0 613H5845.0Q5827.0 613 5812.0 602.5Q5797.0 592 5797.0 573V377Q5797.0 366 5803.5 360.0Q5810.0 354 5819.0 354H5911.0Q5938.0 354 5949.5 369.0Q5961.0 384 5969.0 410Q5976.0 430 5988.0 430Q5993.0 430 5997.0 424.5Q6001.0 419 6001.0 410Q6000.0 400 5999.0 386.0Q5998.0 372 5997.5 358.0Q5997.0 344 5997.0 333Q5997.0 321 5997.5 306.0Q5998.0 291 5998.5 276.5Q5999.0 262 6000.0 252Q6001.0 241 5998.5 235.0Q5996.0 229 5990.0 229Q5974.0 229 5967.0 257Q5959.0 285 5948.0 299.0Q5937.0 313 5918.0 313H5824.0Q5811.0 313 5804.0 308.0Q5797.0 303 5797.0 289V99Q5797.0 66 5811.0 53.0Q5825.0 40 5854.0 40H5936.0Q5961.0 40 5981.5 45.0Q6002.0 50 6017.0 61Q6034.0 73 6047.5 93.5Q6061.0 114 6074.0 139Q6078.0 147 6082.0 149.5Q6086.0 152 6092.0 152Q6097.0 151 6099.5 146.0Q6102.0 141 6102.0 135Q6102.0 121 6097.0 99.0Q6092.0 77 6084.5 53.5Q6077.0 30 6071.0 10Q6068.0 3 6063.0 -0.5Q6058.0 -4 6051.0 -4Q6027.0 -4 5989.5 -3.5Q5952.0 -3 5908.0 -2.0Q5864.0 -1 5818.0 -0.5Q5772.0 0 5730.0 0Q5709.0 0 5687.5 -1.0Q5666.0 -2 5644.0 -3.5Q5622.0 -5 5599.0 -5Z" transform="matrix(0.022120 0 0 -0.022120 82.30 391.34)" fill="#15130f"/></svg>