<svg xmlns="http://www.w3.org/2000/svg" viewBox="0 0 300 446"><rect width="300" height="446" fill="#f4ecd8"/><rect x="20.0" y="25.5" width="260" height="395" rx="20.3" fill="#f4ecd8" stroke="#15130f" stroke-width="1.5"/><rect x="36.9" y="42.4" width="226.2" height="354.7" fill="none" stroke="#15130f" stroke-width="0.7"/><g fill="none" stroke="#15130f" stroke-width="0.65" stroke-opacity="0.72" stroke-linecap="round" stroke-linejoin="round"><line x1="36.9" y1="42.4" x2="263.1" y2="370.6"/></g><path d="M36.9,370.6 H263.1 V397.1 H36.9 Z" fill="#bfdedc"/><g fill="none" stroke="#15130f" stroke-width="0.8"><line x1="36.9" y1="370.6" x2="263.1" y2="370.6"/><line x1="61.6" y1="370.6" x2="61.6" y2="397.1"/><line x1="238.4" y1="370.6" x2="238.4" y2="397.1"/></g><rect x="141.4" y="34.4" width="17.2" height="19.0" fill="#bfdedc" stroke="#15130f" stroke-width="0.8"/><path d="M649.0 1092V235L647.0 193L657.0 137Q686.0 59 825.0 52Q867.0 50 867.0 28Q867.0 -7 780.0 -7Q761.0 -7 652.0 2Q595.0 7 494.0 7Q394.0 7 322.0 -2Q293.0 -5 280.0 -5Q255.0 -5 255.0 20Q255.0 41 281.0 45Q384.0 61 415.0 92.0Q446.0 123 446.0 210L445.0 248V1010Q445.0 1115 363.0 1115Q331.0 1115 306.0 1104L281.0 1093Q270.0 1089 261.0 1089Q235.0 1089 235.0 1113Q235.0 1137 260.0 1150.0Q285.0 1163 362.0 1180Q506.0 1211 567.0 1267L614.0 1310Q625.0 1320 641.0 1320Q661.0 1320 661.0 1282Q661.0 1271 659.0 1243L651.0 1153Q649.0 1126 649.0 1092Z" transform="matrix(0.006858 0 0 -0.006858 146.22 49.18)" fill="#15130f"/><path d="M250.0 950Q250.0 859 278.0 774.5Q306.0 690 358.5 645.0Q411.0 600 467.0 600Q524.0 600 576.5 645.0Q629.0 690 657.0 774.5Q685.0 859 685.0 950Q685.0 1051 657.0 1135.5Q629.0 1220 576.5 1265.0Q524.0 1310 467.0 1310Q411.0 1310 358.5 1265.0Q306.0 1220 278.0 1135.5Q250.0 1051 250.0 950ZM589.0 1391Q633.0 1377 677.0 1352Q777.0 1294 831.0 1185.5Q885.0 1077 885.0 950Q885.0 833 831.0 724.5Q777.0 616 677.0 558Q623.0 527 568.0 513V350H785.0V250H568.0V170Q568.0 120 593.0 80.0Q618.0 40 688.0 40H738.0V0H198.0V40H248.0Q318.0 40 343.0 80.0Q368.0 120 368.0 170V250H150.0V350H368.0V513Q312.0 527 259.0 558Q158.0 616 104.0 724.5Q50.0 833 50.0 950Q50.0 1077 104.0 1185.5Q158.0 1294 259.0 1352Q301.0 1377 346.0 1391Q253.0 1414 191.0 1476Q126.0 1541 119.0 1596Q117.0 1608 117.0 1620Q117.0 1656 138.5 1677.5Q160.0 1699 196.0 1700Q231.0 1700 251.5 1679.0Q272.0 1658 282.0 1630Q289.0 1613 292.5 1548.0Q296.0 1483 346.5 1467.5Q397.0 1452 467.0 1452Q537.0 1452 587.5 1467.5Q638.0 1483 641.5 1548.0Q645.0 1613 652.0 1630Q662.0 1658 682.5 1679.0Q703.0 1700 738.0 1700Q774.0 1699 795.5 1677.5Q817.0 1656 817.0 1620Q817.0 1608 815.0 1596Q808.0 1541 743.0 1476Q681.0 1414 589.0 1391Z" transform="matrix(0.009268 0 0 -0.009268 44.92 391.74)" fill="#15130f"/><path d="M917.0 -500Q917.0 362 797.0 836.0Q677.0 1310 467.0 1310Q411.0 1310 358.5 1265.0Q306.0 1220 278.0 1135.5Q250.0 1051 250.0 960Q250.0 869 278.0 784.5Q306.0 700 358.5 655.0Q411.0 610 467.0 610Q524.0 610 577.0 655Q605.0 680 641.0 680Q670.0 680 703.0 663Q734.0 647 734.0 628Q734.0 601 677.0 568Q576.0 510 467.0 510Q359.0 510 258.5 568.0Q158.0 626 104.0 734.5Q50.0 843 50.0 960Q50.0 1077 104.0 1185.5Q158.0 1294 258.5 1352.0Q359.0 1410 467.0 1410Q760.0 1410 939.0 959Q983.0 845 1017.0 696Q1051.0 845 1096.0 959Q1274.0 1410 1567.0 1410Q1675.0 1410 1775.5 1352.0Q1876.0 1294 1930.0 1185.5Q1984.0 1077 1984.0 960Q1984.0 843 1930.0 734.5Q1876.0 626 1775.5 568.0Q1675.0 510 1567.0 510Q1458.0 510 1357.0 568Q1300.0 601 1300.0 628Q1300.0 647 1331.0 663Q1364.0 680 1393.0 680Q1429.0 680 1457.0 655Q1510.0 610 1567.0 610Q1623.0 610 1675.5 655.0Q1728.0 700 1756.0 784.5Q1784.0 869 1784.0 960Q1784.0 1051 1756.0 1135.5Q1728.0 1220 1675.5 1265.0Q1623.0 1310 1567.0 1310Q1357.0 1310 1237.0 836.0Q1117.0 362 1117.0 -500Z" transform="matrix(0.009268 0 0 -0.009268 241.32 388.08)" fill="#15130f"/><path d="M642.0 -21Q599.0 -21 567.0 -11.5Q535.0 -2 512.0 16.0Q489.0 34 470.0 58Q448.0 88 427.0 116.5Q406.0 145 384.5 179.5Q363.0 214 337.0 262Q324.0 285 304.0 296Q291.0 303 277.5 306.0Q264.0 309 255.0 309Q249.0 310 246.0 304.0Q243.0 298 243.0 289V103Q243.0 72 259.5 55.0Q276.0 38 316.0 29Q329.0 27 335.0 22.5Q341.0 18 341.0 10Q341.0 3 335.5 0.0Q330.0 -3 319.0 -3Q296.0 -3 272.0 -1.5Q248.0 0 225.5 1.0Q203.0 2 183.0 2Q161.0 2 137.5 1.0Q114.0 0 90.0 -2.0Q66.0 -4 42.0 -4Q33.0 -4 26.0 -0.5Q19.0 3 19.0 9Q19.0 24 44.0 29Q82.0 37 98.0 51.0Q114.0 65 114.0 98V540Q114.0 569 109.5 584.5Q105.0 600 92.0 608.0Q79.0 616 53.0 620Q39.0 622 33.0 628.0Q27.0 634 27.0 640Q27.0 647 33.5 650.5Q40.0 654 51.0 654Q81.0 654 99.0 653.0Q117.0 652 133.5 650.5Q150.0 649 173.0 649Q195.0 649 212.0 651.0Q229.0 653 250.0 655.0Q271.0 657 304.0 657Q419.0 657 480.0 617.0Q541.0 577 541.0 495Q541.0 450 522.0 418.5Q503.0 387 474.5 367.0Q446.0 347 416.0 336Q412.0 335 412.5 331.0Q413.0 327 416.0 324Q446.0 278 474.5 236.5Q503.0 195 534.5 158.0Q566.0 121 603.0 87Q634.0 58 666.5 52.5Q699.0 47 734.0 47Q749.0 47 749.0 32Q749.0 12 734.0 0.5Q719.0 -11 694.5 -16.0Q670.0 -21 642.0 -21ZM286.0 338Q327.0 338 354.5 356.5Q382.0 375 396.5 406.0Q411.0 437 411.0 475Q411.0 520 400.0 551.5Q389.0 583 362.5 600.5Q336.0 618 290.0 618Q264.0 618 254.5 599.5Q245.0 581 244.0 525Q243.0 502 243.0 464.5Q243.0 427 243.0 375Q243.0 353 254.5 345.5Q266.0 338 286.0 338ZM793.0 -5Q782.0 -5 775.5 -1.0Q769.0 3 769.0 9Q769.0 22 795.0 28Q831.0 37 846.5 50.5Q862.0 64 862.0 97V550Q862.0 584 848.5 598.0Q835.0 612 798.0 620Q784.0 623 778.0 628.5Q772.0 634 772.0 640Q772.0 647 778.5 650.5Q785.0 654 796.0 654Q825.0 654 851.5 653.0Q878.0 652 903.0 651.0Q928.0 650 955.0 650Q1001.0 650 1052.5 651.0Q1104.0 652 1145.0 652Q1178.0 653 1199.5 655.0Q1221.0 657 1225.0 657Q1232.0 657 1239.5 654.0Q1247.0 651 1248.0 642Q1252.0 609 1258.0 577.0Q1264.0 545 1264.0 521Q1264.0 512 1259.5 507.5Q1255.0 503 1250.0 503Q1245.0 503 1241.0 506.5Q1237.0 510 1234.0 517Q1226.0 540 1219.0 557.0Q1212.0 574 1203.0 583Q1190.0 597 1173.0 605.0Q1156.0 613 1132.0 613H1039.0Q1021.0 613 1006.0 602.5Q991.0 592 991.0 573V377Q991.0 366 997.5 360.0Q1004.0 354 1013.0 354H1105.0Q1132.0 354 1143.5 369.0Q1155.0 384 1163.0 410Q1170.0 430 1182.0 430Q1187.0 430 1191.0 424.5Q1195.0 419 1195.0 410Q1194.0 400 1193.0 386.0Q1192.0 372 1191.5 358.0Q1191.0 344 1191.0 333Q1191.0 321 1191.5 306.0Q1192.0 291 1192.5 276.5Q1193.0 262 1194.0 252Q1195.0 241 1192.5 235.0Q1190.0 229 1184.0 229Q1168.0 229 1161.0 257Q1153.0 285 1142.0 299.0Q1131.0 313 1112.0 313H1018.0Q1005.0 313 998.0 308.0Q991.0 303 991.0 289V99Q991.0 66 1005.0 53.0Q1019.0 40 1048.0 40H1130.0Q1155.0 40 1175.5 45.0Q1196.0 50 1211.0 61Q1228.0 73 1241.5 93.5Q1255.0 114 1268.0 139Q1272.0 147 1276.0 149.5Q1280.0 152 1286.0 152Q1291.0 151 1293.5 146.0Q1296.0 141 1296.0 135Q1296.0 121 1291.0 99.0Q1286.0 77 1278.5 53.5Q1271.0 30 1265.0 10Q1262.0 3 1257.0 -0.5Q1252.0 -4 1245.0 -4Q1221.0 -4 1183.5 -3.5Q1146.0 -3 1102.0 -2.0Q1058.0 -1 1012.0 -0.5Q966.0 0 924.0 0Q903.0 0 881.5 -1.0Q860.0 -2 838.0 -3.5Q816.0 -5 793.0 -5ZM1529.0 -15Q1486.0 -15 1447.5 -4.0Q1409.0 7 1377.0 29Q1371.0 34 1366.0 39.5Q1361.0 45 1358.0 52Q1350.0 77 1347.0 113.5Q1344.0 150 1345.0 184Q1345.0 191 1350.5 194.0Q1356.0 197 1364.0 197Q1372.0 197 1376.5 194.5Q1381.0 192 1383.0 185Q1405.0 110 1447.0 68.0Q1489.0 26 1542.0 26Q1575.0 26 1598.0 41.0Q1621.0 56 1633.0 80.0Q1645.0 104 1645.0 132Q1645.0 167 1632.5 190.0Q1620.0 213 1595.0 231.5Q1570.0 250 1532.0 271Q1491.0 295 1452.0 321.5Q1413.0 348 1388.0 384.5Q1363.0 421 1363.0 475Q1363.0 531 1391.5 573.5Q1420.0 616 1471.0 640.0Q1522.0 664 1589.0 664Q1626.0 664 1658.0 656.0Q1690.0 648 1709.0 640Q1720.0 636 1725.5 630.0Q1731.0 624 1734.0 611Q1740.0 590 1744.5 561.0Q1749.0 532 1749.0 500Q1749.0 488 1731.0 488Q1723.0 488 1715.0 492.0Q1707.0 496 1705.0 503Q1687.0 561 1655.5 591.0Q1624.0 621 1578.0 621Q1547.0 621 1525.0 610.5Q1503.0 600 1490.0 578.5Q1477.0 557 1477.0 523Q1477.0 497 1494.5 475.0Q1512.0 453 1543.5 432.0Q1575.0 411 1614.0 386Q1662.0 358 1694.5 329.5Q1727.0 301 1744.0 266.5Q1761.0 232 1761.0 185Q1761.0 119 1732.0 74.5Q1703.0 30 1651.0 7.5Q1599.0 -15 1529.0 -15ZM2008.0 -4Q1998.0 -4 1990.5 -0.5Q1983.0 3 1983.0 9Q1983.0 17 1990.0 22.0Q1997.0 27 2010.0 29Q2048.0 37 2066.0 51.5Q2084.0 66 2084.0 99V504Q2084.0 545 2082.0 566.0Q2080.0 587 2076.5 594.5Q2073.0 602 2066.0 603Q2056.0 607 2041.0 608.0Q2026.0 609 2012.0 609H1981.0Q1952.0 609 1925.0 595.5Q1898.0 582 1883.0 559Q1879.0 553 1870.5 542.0Q1862.0 531 1852.5 522.0Q1843.0 513 1833.0 513Q1826.0 513 1823.5 518.0Q1821.0 523 1821.0 529Q1821.0 541 1827.0 553Q1844.0 587 1852.5 612.5Q1861.0 638 1864.0 673Q1866.0 688 1872.5 692.5Q1879.0 697 1886.0 697Q1892.0 697 1900.5 684.5Q1909.0 672 1916.0 664Q1925.0 655 1948.0 650.5Q1971.0 646 1987.0 646L2356.0 647Q2384.0 647 2403.0 651.5Q2422.0 656 2433.0 661Q2448.0 670 2457.0 679.5Q2466.0 689 2478.0 689Q2483.0 689 2485.5 683.5Q2488.0 678 2488.0 670Q2488.0 665 2487.0 658.5Q2486.0 652 2485.0 647Q2481.0 628 2477.0 613.5Q2473.0 599 2470.5 586.5Q2468.0 574 2468.0 558V541Q2468.0 527 2464.0 517.0Q2460.0 507 2451.0 507Q2443.0 507 2437.5 516.5Q2432.0 526 2426.0 546Q2417.0 578 2396.0 593.5Q2375.0 609 2330.0 609H2262.0Q2243.0 609 2232.5 602.0Q2222.0 595 2217.5 571.5Q2213.0 548 2213.0 499V100Q2213.0 68 2231.0 53.5Q2249.0 39 2288.0 29Q2300.0 26 2307.0 22.0Q2314.0 18 2314.0 10Q2314.0 3 2307.5 0.0Q2301.0 -3 2291.0 -3Q2267.0 -3 2243.0 -2.0Q2219.0 -1 2195.5 0.0Q2172.0 1 2150.0 1Q2128.0 1 2104.5 0.0Q2081.0 -1 2056.5 -2.5Q2032.0 -4 2008.0 -4ZM2532.0 -5Q2521.0 -5 2515.0 -0.5Q2509.0 4 2509.0 9Q2509.0 17 2516.0 21.5Q2523.0 26 2530.0 28Q2566.0 37 2583.0 50.5Q2600.0 64 2600.0 95V555Q2600.0 578 2594.5 590.0Q2589.0 602 2575.5 608.5Q2562.0 615 2536.0 620Q2510.0 625 2510.0 641Q2510.0 647 2517.0 650.5Q2524.0 654 2533.0 654Q2558.0 654 2580.5 653.0Q2603.0 652 2624.0 651.0Q2645.0 650 2666.0 650Q2689.0 650 2712.5 651.0Q2736.0 652 2760.5 653.0Q2785.0 654 2808.0 654Q2818.0 654 2824.0 650.5Q2830.0 647 2830.0 640Q2830.0 632 2823.5 627.5Q2817.0 623 2805.0 620Q2766.0 610 2747.5 598.5Q2729.0 587 2729.0 558V101Q2729.0 72 2742.0 58.5Q2755.0 45 2791.0 45H2900.0Q2923.0 45 2942.0 53.0Q2961.0 61 2973.0 73Q2991.0 89 3003.0 107.0Q3015.0 125 3026.0 149Q3033.0 164 3039.0 172.0Q3045.0 180 3051.0 180Q3058.0 180 3061.0 173.5Q3064.0 167 3064.0 160Q3064.0 159 3063.0 154.0Q3062.0 149 3062.0 146Q3054.0 117 3048.5 96.0Q3043.0 75 3039.5 55.5Q3036.0 36 3033.0 13Q3032.0 6 3029.0 0.5Q3026.0 -5 3017.0 -5Q2987.0 -5 2945.0 -4.0Q2903.0 -3 2856.0 -2.5Q2809.0 -2 2761.5 -1.0Q2714.0 0 2672.0 0Q2650.0 0 2621.5 -1.0Q2593.0 -2 2568.0 -3.5Q2543.0 -5 2532.0 -5ZM3120.0 -5Q3109.0 -5 3102.5 -1.0Q3096.0 3 3096.0 9Q3096.0 22 3122.0 28Q3158.0 37 3173.5 50.5Q3189.0 64 3189.0 97V550Q3189.0 584 3175.5 598.0Q3162.0 612 3125.0 620Q3111.0 623 3105.0 628.5Q3099.0 634 3099.0 640Q3099.0 647 3105.5 650.5Q3112.0 654 3123.0 654Q3152.0 654 3178.5 653.0Q3205.0 652 3230.0 651.0Q3255.0 650 3282.0 650Q3328.0 650 3379.5 651.0Q3431.0 652 3472.0 652Q3505.0 653 3526.5 655.0Q3548.0 657 3552.0 657Q3559.0 657 3566.5 654.0Q3574.0 651 3575.0 642Q3579.0 609 3585.0 577.0Q3591.0 545 3591.0 521Q3591.0 512 3586.5 507.5Q3582.0 503 3577.0 503Q3572.0 503 3568.0 506.5Q3564.0 510 3561.0 517Q3553.0 540 3546.0 557.0Q3539.0 574 3530.0 583Q3517.0 597 3500.0 605.0Q3483.0 613 3459.0 613H3366.0Q3348.0 613 3333.0 602.5Q3318.0 592 3318.0 573V377Q3318.0 366 3324.5 360.0Q3331.0 354 3340.0 354H3432.0Q3459.0 354 3470.5 369.0Q3482.0 384 3490.0 410Q3497.0 430 3509.0 430Q3514.0 430 3518.0 424.5Q3522.0 419 3522.0 410Q3521.0 400 3520.0 386.0Q3519.0 372 3518.5 358.0Q3518.0 344 3518.0 333Q3518.0 321 3518.5 306.0Q3519.0 291 3519.5 276.5Q3520.0 262 3521.0 252Q3522.0 241 3519.5 235.0Q3517.0 229 3511.0 229Q3495.0 229 3488.0 257Q3480.0 285 3469.0 299.0Q3458.0 313 3439.0 313H3345.0Q3332.0 313 3325.0 308.0Q3318.0 303 3318.0 289V99Q3318.0 66 3332.0 53.0Q3346.0 40 3375.0 40H3457.0Q3482.0 40 3502.5 45.0Q3523.0 50 3538.0 61Q3555.0 73 3568.5 93.5Q3582.0 114 3595.0 139Q3599.0 147 3603.0 149.5Q3607.0 152 3613.0 152Q3618.0 151 3620.5 146.0Q3623.0 141 3623.0 135Q3623.0 121 3618.0 99.0Q3613.0 77 3605.5 53.5Q3598.0 30 3592.0 10Q3589.0 3 3584.0 -0.5Q3579.0 -4 3572.0 -4Q3548.0 -4 3510.5 -3.5Q3473.0 -3 3429.0 -2.0Q3385.0 -1 3339.0 -0.5Q3293.0 0 3251.0 0Q3230.0 0 3208.5 -1.0Q3187.0 -2 3165.0 -3.5Q3143.0 -5 3120.0 -5ZM3856.0 -15Q3813.0 -15 3774.5 -4.0Q3736.0 7 3704.0 29Q3698.0 34 3693.0 39.5Q3688.0 45 3685.0 52Q3677.0 77 3674.0 113.5Q3671.0 150 3672.0 184Q3672.0 191 3677.5 194.0Q3683.0 197 3691.0 197Q3699.0 197 3703.5 194.5Q3708.0 192 3710.0 185Q3732.0 110 3774.0 68.0Q3816.0 26 3869.0 26Q3902.0 26 3925.0 41.0Q3948.0 56 3960.0 80.0Q3972.0 104 3972.0 132Q3972.0 167 3959.5 190.0Q3947.0 213 3922.0 231.5Q3897.0 250 3859.0 271Q3818.0 295 3779.0 321.5Q3740.0 348 3715.0 384.5Q3690.0 421 3690.0 475Q3690.0 531 3718.5 573.5Q3747.0 616 3798.0 640.0Q3849.0 664 3916.0 664Q3953.0 664 3985.0 656.0Q4017.0 648 4036.0 640Q4047.0 636 4052.5 630.0Q4058.0 624 4061.0 611Q4067.0 590 4071.5 561.0Q4076.0 532 4076.0 500Q4076.0 488 4058.0 488Q4050.0 488 4042.0 492.0Q4034.0 496 4032.0 503Q4014.0 561 3982.5 591.0Q3951.0 621 3905.0 621Q3874.0 621 3852.0 610.5Q3830.0 600 3817.0 578.5Q3804.0 557 3804.0 523Q3804.0 497 3821.5 475.0Q3839.0 453 3870.5 432.0Q3902.0 411 3941.0 386Q3989.0 358 4021.5 329.5Q4054.0 301 4071.0 266.5Q4088.0 232 4088.0 185Q4088.0 119 4059.0 74.5Q4030.0 30 3978.0 7.5Q3926.0 -15 3856.0 -15ZM4340.0 -15Q4297.0 -15 4258.5 -4.0Q4220.0 7 4188.0 29Q4182.0 34 4177.0 39.5Q4172.0 45 4169.0 52Q4161.0 77 4158.0 113.5Q4155.0 150 4156.0 184Q4156.0 191 4161.5 194.0Q4167.0 197 4175.0 197Q4183.0 197 4187.5 194.5Q4192.0 192 4194.0 185Q4216.0 110 4258.0 68.0Q4300.0 26 4353.0 26Q4386.0 26 4409.0 41.0Q4432.0 56 4444.0 80.0Q4456.0 104 4456.0 132Q4456.0 167 4443.5 190.0Q4431.0 213 4406.0 231.5Q4381.0 250 4343.0 271Q4302.0 295 4263.0 321.5Q4224.0 348 4199.0 384.5Q4174.0 421 4174.0 475Q4174.0 531 4202.5 573.5Q4231.0 616 4282.0 640.0Q4333.0 664 4400.0 664Q4437.0 664 4469.0 656.0Q4501.0 648 4520.0 640Q4531.0 636 4536.5 630.0Q4542.0 624 4545.0 611Q4551.0 590 4555.5 561.0Q4560.0 532 4560.0 500Q4560.0 488 4542.0 488Q4534.0 488 4526.0 492.0Q4518.0 496 4516.0 503Q4498.0 561 4466.5 591.0Q4435.0 621 4389.0 621Q4358.0 621 4336.0 610.5Q4314.0 600 4301.0 578.5Q4288.0 557 4288.0 523Q4288.0 497 4305.5 475.0Q4323.0 453 4354.5 432.0Q4386.0 411 4425.0 386Q4473.0 358 4505.5 329.5Q4538.0 301 4555.0 266.5Q4572.0 232 4572.0 185Q4572.0 119 4543.0 74.5Q4514.0 30 4462.0 7.5Q4410.0 -15 4340.0 -15ZM5286.0 -18Q5274.0 -18 5246.0 -3.0Q5218.0 12 5189.0 49Q5172.0 68 5147.5 95.5Q5123.0 123 5093.5 156.0Q5064.0 189 5032.0 225.0Q5000.0 261 4968.5 297.0Q4937.0 333 4907.0 366.0Q4877.0 399 4852.0 426.5Q4827.0 454 4810.0 474Q4806.0 479 4801.5 482.5Q4797.0 486 4794.0 486Q4790.0 486 4788.0 479.0Q4786.0 472 4786.0 466Q4786.0 420 4786.5 357.0Q4787.0 294 4787.0 229.0Q4787.0 164 4787.0 109Q4787.0 78 4805.0 58.0Q4823.0 38 4862.0 29Q4874.0 27 4882.5 22.5Q4891.0 18 4891.0 10Q4891.0 3 4883.0 0.0Q4875.0 -3 4865.0 -3Q4838.0 -3 4822.0 -2.0Q4806.0 -1 4793.0 0.0Q4780.0 1 4760.0 1Q4739.0 1 4722.5 0.0Q4706.0 -1 4693.0 -2.5Q4680.0 -4 4668.0 -4Q4658.0 -4 4650.0 -0.5Q4642.0 3 4642.0 9Q4642.0 17 4649.5 21.5Q4657.0 26 4670.0 30Q4696.0 38 4708.5 59.5Q4721.0 81 4724.0 111Q4728.0 149 4732.0 210.5Q4736.0 272 4739.5 349.0Q4743.0 426 4743.0 508Q4743.0 560 4716.5 583.0Q4690.0 606 4650.0 620Q4643.0 622 4632.0 628.0Q4621.0 634 4621.0 643Q4621.0 652 4629.0 655.0Q4637.0 658 4646.0 658Q4667.0 658 4688.0 657.0Q4709.0 656 4730.5 655.5Q4752.0 655 4775.5 654.0Q4799.0 653 4826.0 653Q4835.0 653 4839.5 649.5Q4844.0 646 4848.0 640Q4864.0 621 4889.0 592.5Q4914.0 564 4943.5 529.5Q4973.0 495 5005.5 457.0Q5038.0 419 5070.5 381.0Q5103.0 343 5133.0 308.5Q5163.0 274 5187.5 245.5Q5212.0 217 5228.0 199Q5232.0 195 5237.5 189.0Q5243.0 183 5247.0 183Q5255.0 183 5256.0 200Q5256.0 226 5256.0 266.5Q5256.0 307 5256.5 356.5Q5257.0 406 5256.5 458.0Q5256.0 510 5255.0 558Q5254.0 583 5234.5 597.5Q5215.0 612 5186.0 618Q5174.0 621 5163.5 625.5Q5153.0 630 5153.0 639Q5153.0 646 5163.5 649.0Q5174.0 652 5183.0 652Q5203.0 652 5216.5 652.0Q5230.0 652 5242.0 651.5Q5254.0 651 5267.0 651Q5289.0 651 5303.0 651.5Q5317.0 652 5333.5 653.0Q5350.0 654 5377.0 654Q5389.0 654 5396.5 650.5Q5404.0 647 5404.0 641Q5404.0 626 5375.0 620Q5340.0 613 5325.5 601.0Q5311.0 589 5310.0 561Q5310.0 536 5309.5 497.0Q5309.0 458 5308.0 412.0Q5307.0 366 5305.5 318.0Q5304.0 270 5303.5 224.0Q5303.0 178 5303.0 141Q5303.0 117 5305.0 92.0Q5307.0 67 5309.5 47.5Q5312.0 28 5312.0 20Q5312.0 -2 5305.0 -10.0Q5298.0 -18 5286.0 -18ZM5463.0 -5Q5452.0 -5 5445.5 -1.0Q5439.0 3 5439.0 9Q5439.0 22 5465.0 28Q5501.0 37 5516.5 50.5Q5532.0 64 5532.0 97V550Q5532.0 584 5518.5 598.0Q5505.0 612 5468.0 620Q5454.0 623 5448.0 628.5Q5442.0 634 5442.0 640Q5442.0 647 5448.5 650.5Q5455.0 654 5466.0 654Q5495.0 654 5521.5 653.0Q5548.0 652 5573.0 651.0Q5598.0 650 5625.0 650Q5671.0 650 5722.5 651.0Q5774.0 652 5815.0 652Q5848.0 653 5869.5 655.0Q5891.0 657 5895.0 657Q5902.0 657 5909.5 654.0Q5917.0 651 5918.0 642Q5922.0 609 5928.0 577.0Q5934.0 545 5934.0 521Q5934.0 512 5929.5 507.5Q5925.0 503 5920.0 503Q5915.0 503 5911.0 506.5Q5907.0 510 5904.0 517Q5896.0 540 5889.0 557.0Q5882.0 574 5873.0 583Q5860.0 597 5843.0 605.0Q5826.0 613 5802.0 613H5709.0Q5691.0 613 5676.0 602.5Q5661.0 592 5661.0 573V377Q5661.0 366 5667.5 360.0Q5674.0 354 5683.0 354H5775.0Q5802.0 354 5813.5 369.0Q5825.0 384 5833.0 410Q5840.0 430 5852.0 430Q5857.0 430 5861.0 424.5Q5865.0 419 5865.0 410Q5864.0 400 5863.0 386.0Q5862.0 372 5861.5 358.0Q5861.0 344 5861.0 333Q5861.0 321 5861.5 306.0Q5862.0 291 5862.5 276.5Q5863.0 262 5864.0 252Q5865.0 241 5862.5 235.0Q5860.0 229 5854.0 229Q5838.0 229 5831.0 257Q5823.0 285 5812.0 299.0Q5801.0 313 5782.0 313H5688.0Q5675.0 313 5668.0 308.0Q5661.0 303 5661.0 289V99Q5661.0 66 5675.0 53.0Q5689.0 40 5718.0 40H5800.0Q5825.0 40 5845.5 45.0Q5866.0 50 5881.0 61Q5898.0 73 5911.5 93.5Q5925.0 114 5938.0 139Q5942.0 147 5946.0 149.5Q5950.0 152 5956.0 152Q5961.0 151 5963.5 146.0Q5966.0 141 5966.0 135Q5966.0 121 5961.0 99.0Q5956.0 77 5948.5 53.5Q5941.0 30 5935.0 10Q5932.0 3 5927.0 -0.5Q5922.0 -4 5915.0 -4Q5891.0 -4 5853.5 -3.5Q5816.0 -3 5772.0 -2.0Q5728.0 -1 5682.0 -0.5Q5636.0 0 5594.0 0Q5573.0 0 5551.5 -1.0Q5530.0 -2 5508.0 -3.5Q5486.0 -5 5463.0 -5ZM6199.0 -15Q6156.0 -15 6117.5 -4.0Q6079.0 7 6047.0 29Q6041.0 34 6036.0 39.5Q6031.0 45 6028.0 52Q6020.0 77 6017.0 113.5Q6014.0 150 6015.0 184Q6015.0 191 6020.5 194.0Q6026.0 197 6034.0 197Q6042.0 197 6046.5 194.5Q6051.0 192 6053.0 185Q6075.0 110 6117.0 68.0Q6159.0 26 6212.0 26Q6245.0 26 6268.0 41.0Q6291.0 56 6303.0 80.0Q6315.0 104 6315.0 132Q6315.0 167 6302.5 190.0Q6290.0 213 6265.0 231.5Q6240.0 250 6202.0 271Q6161.0 295 6122.0 321.5Q6083.0 348 6058.0 384.5Q6033.0 421 6033.0 475Q6033.0 531 6061.5 573.5Q6090.0 616 6141.0 640.0Q6192.0 664 6259.0 664Q6296.0 664 6328.0 656.0Q6360.0 648 6379.0 640Q6390.0 636 6395.5 630.0Q6401.0 624 6404.0 611Q6410.0 590 6414.5 561.0Q6419.0 532 6419.0 500Q6419.0 488 6401.0 488Q6393.0 488 6385.0 492.0Q6377.0 496 6375.0 503Q6357.0 561 6325.5 591.0Q6294.0 621 6248.0 621Q6217.0 621 6195.0 610.5Q6173.0 600 6160.0 578.5Q6147.0 557 6147.0 523Q6147.0 497 6164.5 475.0Q6182.0 453 6213.5 432.0Q6245.0 411 6284.0 386Q6332.0 358 6364.5 329.5Q6397.0 301 6414.0 266.5Q6431.0 232 6431.0 185Q6431.0 119 6402.0 74.5Q6373.0 30 6321.0 7.5Q6269.0 -15 6199.0 -15ZM6683.0 -15Q6640.0 -15 6601.5 -4.0Q6563.0 7 6531.0 29Q6525.0 34 6520.0 39.5Q6515.0 45 6512.0 52Q6504.0 77 6501.0 113.5Q6498.0 150 6499.0 184Q6499.0 191 6504.5 194.0Q6510.0 197 6518.0 197Q6526.0 197 6530.5 194.5Q6535.0 192 6537.0 185Q6559.0 110 6601.0 68.0Q6643.0 26 6696.0 26Q6729.0 26 6752.0 41.0Q6775.0 56 6787.0 80.0Q6799.0 104 6799.0 132Q6799.0 167 6786.5 190.0Q6774.0 213 6749.0 231.5Q6724.0 250 6686.0 271Q6645.0 295 6606.0 321.5Q6567.0 348 6542.0 384.5Q6517.0 421 6517.0 475Q6517.0 531 6545.5 573.5Q6574.0 616 6625.0 640.0Q6676.0 664 6743.0 664Q6780.0 664 6812.0 656.0Q6844.0 648 6863.0 640Q6874.0 636 6879.5 630.0Q6885.0 624 6888.0 611Q6894.0 590 6898.5 561.0Q6903.0 532 6903.0 500Q6903.0 488 6885.0 488Q6877.0 488 6869.0 492.0Q6861.0 496 6859.0 503Q6841.0 561 6809.5 591.0Q6778.0 621 6732.0 621Q6701.0 621 6679.0 610.5Q6657.0 600 6644.0 578.5Q6631.0 557 6631.0 523Q6631.0 497 6648.5 475.0Q6666.0 453 6697.5 432.0Q6729.0 411 6768.0 386Q6816.0 358 6848.5 329.5Q6881.0 301 6898.0 266.5Q6915.0 232 6915.0 185Q6915.0 119 6886.0 74.5Q6857.0 30 6805.0 7.5Q6753.0 -15 6683.0 -15Z" transform="matrix(0.021920 0 0 -0.021920 74.00 391.28)" fill="#15130f"/></svg>