<svg xmlns="http://www.w3.org/2000/svg" viewBox="0 0 300 446"><rect width="300" height="446" fill="#f4ecd8"/><rect x="20.0" y="25.5" width="260" height="395" rx="20.3" fill="#f4ecd8" stroke="#15130f" stroke-width="1.5"/><rect x="36.9" y="42.4" width="226.2" height="354.7" fill="none" stroke="#15130f" stroke-width="0.7"/><g fill="none" stroke="#15130f" stroke-width="0.65" stroke-opacity="0.72" stroke-linecap="round" stroke-linejoin="round"><line x1="36.9" y1="42.4" x2="263.1" y2="370.6"/></g><path d="M36.9,370.6 H263.1 V397.1 H36.9 Z" fill="#bfdedc"/><g fill="none" stroke="#15130f" stroke-width="0.8"><line x1="36.9" y1="370.6" x2="263.1" y2="370.6"/><line x1="61.6" y1="370.6" x2="61.6" y2="397.1"/><line x1="238.4" y1="370.6" x2="238.4" y2="397.1"/></g><rect x="141.4" y="34.4" width="17.2" height="19.0" fill="#bfdedc" stroke="#15130f" stroke-width="0.8"/><path d="M649.0 1092V235L647.0 193L657.0 137Q686.0 59 825.0 52Q867.0 50 867.0 28Q867.0 -7 780.0 -7Q761.0 -7 652.0 2Q595.0 7 494.0 7Q394.0 7 322.0 -2Q293.0 -5 280.0 -5Q255.0 -5 255.0 20Q255.0 41 281.0 45Q384.0 61 415.0 92.0Q446.0 123 446.0 210L445.0 248V1010Q445.0 1115 363.0 1115Q331.0 1115 306.0 1104L281.0 1093Q270.0 1089 261.0 1089Q235.0 1089 235.0 1113Q235.0 1137 260.0 1150.0Q285.0 1163 362.0 1180Q506.0 1211 567.0 1267L614.0 1310Q625.0 1320 641.0 1320Q661.0 1320 661.0 1282Q661.0 1271 659.0 1243L651.0 1153Q649.0 1126 649.0 1092ZM1673.0 1092V235L1671.0 193L1681.0 137Q1710.0 59 1849.0 52Q1891.0 50 1891.0 28Q1891.0 -7 1804.0 -7Q1785.0 -7 1676.0 2Q1619.0 7 1518.0 7Q1418.0 7 1346.0 -2Q1317.0 -5 1304.0 -5Q1279.0 -5 1279.0 20Q1279.0 41 1305.0 45Q1408.0 61 1439.0 92.0Q1470.0 123 1470.0 210L1469.0 248V1010Q1469.0 1115 1387.0 1115Q1355.0 1115 1330.0 1104L1305.0 1093Q1294.0 1089 1285.0 1089Q1259.0 1089 1259.0 1113Q1259.0 1137 1284.0 1150.0Q1309.0 1163 1386.0 1180Q1530.0 1211 1591.0 1267L1638.0 1310Q1649.0 1320 1665.0 1320Q1685.0 1320 1685.0 1282Q1685.0 1271 1683.0 1243L1675.0 1153Q1673.0 1126 1673.0 1092Z" transform="matrix(0.006024 0 0 -0.006024 143.60 48.63)" fill="#15130f"/><path d="M250.0 950Q250.0 859 278.0 774.5Q306.0 690 358.5 645.0Q411.0 600 467.0 600Q524.0 600 576.5 645.0Q629.0 690 657.0 774.5Q685.0 859 685.0 950Q685.0 1051 657.0 1135.5Q629.0 1220 576.5 1265.0Q524.0 1310 467.0 1310Q411.0 1310 358.5 1265.0Q306.0 1220 278.0 1135.5Q250.0 1051 250.0 950ZM589.0 1391Q633.0 1377 677.0 1352Q777.0 1294 831.0 1185.5Q885.0 1077 885.0 950Q885.0 833 831.0 724.5Q777.0 616 677.0 558Q623.0 527 568.0 513V350H785.0V250H568.0V170Q568.0 120 593.0 80.0Q618.0 40 688.0 40H738.0V0H198.0V40H248.0Q318.0 40 343.0 80.0Q368.0 120 368.0 170V250H150.0V350H368.0V513Q312.0 527 259.0 558Q158.0 616 104.0 724.5Q50.0 833 50.0 950Q50.0 1077 104.0 1185.5Q158.0 1294 259.0 1352Q301.0 1377 346.0 1391Q253.0 1414 191.0 1476Q126.0 1541 119.0 1596Q117.0 1608 117.0 1620Q117.0 1656 138.5 1677.5Q160.0 1699 196.0 1700Q231.0 1700 251.5 1679.0Q272.0 1658 282.0 1630Q289.0 1613 292.5 1548.0Q296.0 1483 346.5 1467.5Q397.0 1452 467.0 1452Q537.0 1452 587.5 1467.5Q638.0 1483 641.5 1548.0Q645.0 1613 652.0 1630Q662.0 1658 682.5 1679.0Q703.0 1700 738.0 1700Q774.0 1699 795.5 1677.5Q817.0 1656 817.0 1620Q817.0 1608 815.0 1596Q808.0 1541 743.0 1476Q681.0 1414 589.0 1391Z" transform="matrix(0.009268 0 0 -0.009268 44.92 391.74)" fill="#15130f"/><path d="M56.0 700 567.0 1430 833.0 968 1150.0 1420 1416.0 959 1733.0 1410 2033.0 891 1910.0 704 1662.0 1134 1345.0 682 1078.0 1143 762.0 692 495.0 1153 179.0 700ZM50.0 0 567.0 738 833.0 276 1150.0 728 1416.0 267 1733.0 718 2033.0 199 1910.0 12 1662.0 442 1345.0 -10 1078.0 451 762.0 0 495.0 461 173.0 0Z" transform="matrix(0.009217 0 0 -0.009217 241.15 390.41)" fill="#15130f"/><path d="M376.0 -14Q308.0 -14 246.0 9.5Q184.0 33 136.5 76.5Q89.0 120 61.5 180.5Q34.0 241 34.0 315Q34.0 383 56.5 445.5Q79.0 508 123.5 557.0Q168.0 606 233.5 635.0Q299.0 664 385.0 664Q453.0 664 514.5 640.5Q576.0 617 624.0 573.5Q672.0 530 699.5 469.5Q727.0 409 727.0 335Q727.0 268 704.5 205.0Q682.0 142 637.5 93.0Q593.0 44 527.5 15.0Q462.0 -14 376.0 -14ZM393.0 30Q456.0 30 498.5 62.0Q541.0 94 562.5 151.5Q584.0 209 584.0 284Q584.0 348 571.0 408.0Q558.0 468 531.0 515.5Q504.0 563 463.5 591.0Q423.0 619 367.0 619Q304.0 619 261.5 587.0Q219.0 555 198.0 498.0Q177.0 441 177.0 366Q177.0 302 190.0 242.0Q203.0 182 229.5 134.0Q256.0 86 296.5 58.0Q337.0 30 393.0 30ZM1403.0 -21Q1360.0 -21 1328.0 -11.5Q1296.0 -2 1273.0 16.0Q1250.0 34 1231.0 58Q1209.0 88 1188.0 116.5Q1167.0 145 1145.5 179.5Q1124.0 214 1098.0 262Q1085.0 285 1065.0 296Q1052.0 303 1038.5 306.0Q1025.0 309 1016.0 309Q1010.0 310 1007.0 304.0Q1004.0 298 1004.0 289V103Q1004.0 72 1020.5 55.0Q1037.0 38 1077.0 29Q1090.0 27 1096.0 22.5Q1102.0 18 1102.0 10Q1102.0 3 1096.5 0.0Q1091.0 -3 1080.0 -3Q1057.0 -3 1033.0 -1.5Q1009.0 0 986.5 1.0Q964.0 2 944.0 2Q922.0 2 898.5 1.0Q875.0 0 851.0 -2.0Q827.0 -4 803.0 -4Q794.0 -4 787.0 -0.5Q780.0 3 780.0 9Q780.0 24 805.0 29Q843.0 37 859.0 51.0Q875.0 65 875.0 98V540Q875.0 569 870.5 584.5Q866.0 600 853.0 608.0Q840.0 616 814.0 620Q800.0 622 794.0 628.0Q788.0 634 788.0 640Q788.0 647 794.5 650.5Q801.0 654 812.0 654Q842.0 654 860.0 653.0Q878.0 652 894.5 650.5Q911.0 649 934.0 649Q956.0 649 973.0 651.0Q990.0 653 1011.0 655.0Q1032.0 657 1065.0 657Q1180.0 657 1241.0 617.0Q1302.0 577 1302.0 495Q1302.0 450 1283.0 418.5Q1264.0 387 1235.5 367.0Q1207.0 347 1177.0 336Q1173.0 335 1173.5 331.0Q1174.0 327 1177.0 324Q1207.0 278 1235.5 236.5Q1264.0 195 1295.5 158.0Q1327.0 121 1364.0 87Q1395.0 58 1427.5 52.5Q1460.0 47 1495.0 47Q1510.0 47 1510.0 32Q1510.0 12 1495.0 0.5Q1480.0 -11 1455.5 -16.0Q1431.0 -21 1403.0 -21ZM1047.0 338Q1088.0 338 1115.5 356.5Q1143.0 375 1157.5 406.0Q1172.0 437 1172.0 475Q1172.0 520 1161.0 551.5Q1150.0 583 1123.5 600.5Q1097.0 618 1051.0 618Q1025.0 618 1015.5 599.5Q1006.0 581 1005.0 525Q1004.0 502 1004.0 464.5Q1004.0 427 1004.0 375Q1004.0 353 1015.5 345.5Q1027.0 338 1047.0 338ZM1545.0 -4Q1536.0 -4 1529.0 -0.5Q1522.0 3 1522.0 9Q1522.0 24 1547.0 29Q1585.0 37 1602.0 51.0Q1619.0 65 1619.0 97V551Q1619.0 584 1605.0 598.0Q1591.0 612 1552.0 620Q1527.0 625 1527.0 641Q1527.0 647 1534.0 650.5Q1541.0 654 1550.0 654Q1574.0 654 1597.0 653.0Q1620.0 652 1641.5 651.0Q1663.0 650 1685.0 650Q1706.0 650 1727.5 651.0Q1749.0 652 1772.0 653.0Q1795.0 654 1819.0 654Q1829.0 654 1835.0 650.5Q1841.0 647 1841.0 640Q1841.0 632 1834.5 627.5Q1828.0 623 1816.0 620Q1776.0 610 1762.0 596.0Q1748.0 582 1748.0 550V98Q1748.0 67 1764.5 53.0Q1781.0 39 1819.0 29Q1832.0 26 1838.5 22.0Q1845.0 18 1845.0 10Q1845.0 3 1839.0 0.0Q1833.0 -3 1823.0 -3Q1799.0 -3 1775.0 -2.0Q1751.0 -1 1728.5 0.0Q1706.0 1 1685.0 1Q1663.0 1 1640.0 0.0Q1617.0 -1 1593.0 -2.5Q1569.0 -4 1545.0 -4ZM2244.0 -14Q2173.0 -14 2110.0 10.0Q2047.0 34 1998.5 77.5Q1950.0 121 1922.5 181.0Q1895.0 241 1895.0 313Q1895.0 384 1922.5 447.0Q1950.0 510 2000.0 558.5Q2050.0 607 2118.5 635.5Q2187.0 664 2270.0 664Q2289.0 664 2317.0 660.5Q2345.0 657 2375.0 652.0Q2405.0 647 2430.5 641.0Q2456.0 635 2470.0 629Q2477.0 626 2481.0 621.5Q2485.0 617 2486.0 609Q2491.0 576 2494.0 546.0Q2497.0 516 2497.0 494Q2497.0 486 2492.5 480.0Q2488.0 474 2481.0 474Q2470.0 474 2465.0 481.5Q2460.0 489 2456.0 498Q2448.0 516 2438.0 533.5Q2428.0 551 2413.0 567Q2403.0 577 2385.5 588.5Q2368.0 600 2341.0 608.0Q2314.0 616 2275.0 616Q2220.0 616 2176.0 593.5Q2132.0 571 2102.0 531.0Q2072.0 491 2056.0 440.5Q2040.0 390 2040.0 335Q2040.0 266 2056.0 210.5Q2072.0 155 2101.0 115.5Q2130.0 76 2170.0 55.0Q2210.0 34 2260.0 34Q2296.0 34 2316.5 44.5Q2337.0 55 2346.0 63Q2357.0 72 2364.0 90.0Q2371.0 108 2372.0 132Q2372.0 141 2372.5 155.0Q2373.0 169 2373.5 183.0Q2374.0 197 2374.0 206Q2374.0 217 2370.5 225.5Q2367.0 234 2357.0 239Q2348.0 246 2334.0 251.5Q2320.0 257 2305.5 259.5Q2291.0 262 2282.0 263Q2275.0 264 2267.0 269.5Q2259.0 275 2259.0 283Q2259.0 291 2266.5 295.0Q2274.0 299 2280.0 299Q2303.0 299 2327.5 298.0Q2352.0 297 2376.5 296.0Q2401.0 295 2424.0 295Q2452.0 295 2479.5 297.0Q2507.0 299 2536.0 299Q2542.0 299 2548.5 295.5Q2555.0 292 2555.0 283Q2555.0 275 2548.0 270.0Q2541.0 265 2535.0 264Q2508.0 257 2498.5 246.0Q2489.0 235 2486.0 215Q2482.0 193 2480.5 176.0Q2479.0 159 2479.0 140V109Q2479.0 104 2482.5 100.0Q2486.0 96 2490.0 91Q2494.0 86 2497.5 81.0Q2501.0 76 2501.0 71Q2501.0 65 2497.5 58.5Q2494.0 52 2483.0 50Q2476.0 49 2456.0 39.0Q2436.0 29 2405.5 16.5Q2375.0 4 2334.5 -5.0Q2294.0 -14 2244.0 -14ZM2623.0 -4Q2614.0 -4 2607.0 -0.5Q2600.0 3 2600.0 9Q2600.0 24 2625.0 29Q2663.0 37 2680.0 51.0Q2697.0 65 2697.0 97V551Q2697.0 584 2683.0 598.0Q2669.0 612 2630.0 620Q2605.0 625 2605.0 641Q2605.0 647 2612.0 650.5Q2619.0 654 2628.0 654Q2652.0 654 2675.0 653.0Q2698.0 652 2719.5 651.0Q2741.0 650 2763.0 650Q2784.0 650 2805.5 651.0Q2827.0 652 2850.0 653.0Q2873.0 654 2897.0 654Q2907.0 654 2913.0 650.5Q2919.0 647 2919.0 640Q2919.0 632 2912.5 627.5Q2906.0 623 2894.0 620Q2854.0 610 2840.0 596.0Q2826.0 582 2826.0 550V98Q2826.0 67 2842.5 53.0Q2859.0 39 2897.0 29Q2910.0 26 2916.5 22.0Q2923.0 18 2923.0 10Q2923.0 3 2917.0 0.0Q2911.0 -3 2901.0 -3Q2877.0 -3 2853.0 -2.0Q2829.0 -1 2806.5 0.0Q2784.0 1 2763.0 1Q2741.0 1 2718.0 0.0Q2695.0 -1 2671.0 -2.5Q2647.0 -4 2623.0 -4ZM3615.0 -18Q3603.0 -18 3575.0 -3.0Q3547.0 12 3518.0 49Q3501.0 68 3476.5 95.5Q3452.0 123 3422.5 156.0Q3393.0 189 3361.0 225.0Q3329.0 261 3297.5 297.0Q3266.0 333 3236.0 366.0Q3206.0 399 3181.0 426.5Q3156.0 454 3139.0 474Q3135.0 479 3130.5 482.5Q3126.0 486 3123.0 486Q3119.0 486 3117.0 479.0Q3115.0 472 3115.0 466Q3115.0 420 3115.5 357.0Q3116.0 294 3116.0 229.0Q3116.0 164 3116.0 109Q3116.0 78 3134.0 58.0Q3152.0 38 3191.0 29Q3203.0 27 3211.5 22.5Q3220.0 18 3220.0 10Q3220.0 3 3212.0 0.0Q3204.0 -3 3194.0 -3Q3167.0 -3 3151.0 -2.0Q3135.0 -1 3122.0 0.0Q3109.0 1 3089.0 1Q3068.0 1 3051.5 0.0Q3035.0 -1 3022.0 -2.5Q3009.0 -4 2997.0 -4Q2987.0 -4 2979.0 -0.5Q2971.0 3 2971.0 9Q2971.0 17 2978.5 21.5Q2986.0 26 2999.0 30Q3025.0 38 3037.5 59.5Q3050.0 81 3053.0 111Q3057.0 149 3061.0 210.5Q3065.0 272 3068.5 349.0Q3072.0 426 3072.0 508Q3072.0 560 3045.5 583.0Q3019.0 606 2979.0 620Q2972.0 622 2961.0 628.0Q2950.0 634 2950.0 643Q2950.0 652 2958.0 655.0Q2966.0 658 2975.0 658Q2996.0 658 3017.0 657.0Q3038.0 656 3059.5 655.5Q3081.0 655 3104.5 654.0Q3128.0 653 3155.0 653Q3164.0 653 3168.5 649.5Q3173.0 646 3177.0 640Q3193.0 621 3218.0 592.5Q3243.0 564 3272.5 529.5Q3302.0 495 3334.5 457.0Q3367.0 419 3399.5 381.0Q3432.0 343 3462.0 308.5Q3492.0 274 3516.5 245.5Q3541.0 217 3557.0 199Q3561.0 195 3566.5 189.0Q3572.0 183 3576.0 183Q3584.0 183 3585.0 200Q3585.0 226 3585.0 266.5Q3585.0 307 3585.5 356.5Q3586.0 406 3585.5 458.0Q3585.0 510 3584.0 558Q3583.0 583 3563.5 597.5Q3544.0 612 3515.0 618Q3503.0 621 3492.5 625.5Q3482.0 630 3482.0 639Q3482.0 646 3492.5 649.0Q3503.0 652 3512.0 652Q3532.0 652 3545.5 652.0Q3559.0 652 3571.0 651.5Q3583.0 651 3596.0 651Q3618.0 651 3632.0 651.5Q3646.0 652 3662.5 653.0Q3679.0 654 3706.0 654Q3718.0 654 3725.5 650.5Q3733.0 647 3733.0 641Q3733.0 626 3704.0 620Q3669.0 613 3654.5 601.0Q3640.0 589 3639.0 561Q3639.0 536 3638.5 497.0Q3638.0 458 3637.0 412.0Q3636.0 366 3634.5 318.0Q3633.0 270 3632.5 224.0Q3632.0 178 3632.0 141Q3632.0 117 3634.0 92.0Q3636.0 67 3638.5 47.5Q3641.0 28 3641.0 20Q3641.0 -2 3634.0 -10.0Q3627.0 -18 3615.0 -18ZM3767.0 -5Q3755.0 -5 3747.0 -1.5Q3739.0 2 3739.0 10Q3739.0 19 3746.5 24.0Q3754.0 29 3766.0 33Q3795.0 41 3816.5 57.5Q3838.0 74 3851.0 103Q3876.0 162 3899.0 216.5Q3922.0 271 3943.0 325.0Q3964.0 379 3985.5 435.0Q4007.0 491 4029.0 553Q4040.0 584 4044.0 601.0Q4048.0 618 4051.0 626Q4066.0 630 4079.0 634.0Q4092.0 638 4108.0 644Q4122.0 651 4132.0 662.0Q4142.0 673 4147.0 679Q4150.0 681 4153.0 681.5Q4156.0 682 4159.0 677Q4162.0 671 4164.0 665.0Q4166.0 659 4168.0 652Q4190.0 581 4213.5 508.5Q4237.0 436 4260.0 365.5Q4283.0 295 4304.5 230.5Q4326.0 166 4344.0 112Q4353.0 85 4366.5 69.0Q4380.0 53 4396.5 44.5Q4413.0 36 4433.0 31Q4446.0 28 4453.0 23.0Q4460.0 18 4460.0 9Q4460.0 3 4453.5 0.0Q4447.0 -3 4437.0 -3Q4419.0 -3 4391.5 -2.0Q4364.0 -1 4335.0 0.5Q4306.0 2 4283.0 2Q4263.0 2 4238.5 1.0Q4214.0 0 4189.5 -1.0Q4165.0 -2 4148.0 -2Q4138.0 -2 4130.5 1.5Q4123.0 5 4123.0 12Q4123.0 20 4131.0 25.5Q4139.0 31 4150.0 33Q4186.0 39 4202.0 51.5Q4218.0 64 4214.0 88Q4211.0 105 4205.0 128.5Q4199.0 152 4192.5 177.5Q4186.0 203 4179.0 224Q4177.0 232 4173.0 235.5Q4169.0 239 4158.0 239H3978.0Q3971.0 239 3967.0 234.5Q3963.0 230 3961.0 221Q3957.0 208 3951.5 191.5Q3946.0 175 3940.5 157.5Q3935.0 140 3930.5 125.0Q3926.0 110 3924.0 99Q3919.0 72 3933.5 56.5Q3948.0 41 3984.0 32Q4011.0 25 4011.0 11Q4011.0 5 4004.5 1.5Q3998.0 -2 3986.0 -2Q3963.0 -2 3938.0 -0.5Q3913.0 1 3883.0 1Q3853.0 1 3824.5 -2.0Q3796.0 -5 3767.0 -5ZM4005.0 285H4144.0Q4158.0 285 4158.0 291Q4158.0 294 4157.5 296.0Q4157.0 298 4156.0 302L4086.0 533Q4082.0 547 4079.0 547Q4077.0 547 4072.0 534L3988.0 302Q3986.0 297 3986.0 294Q3986.0 289 3991.5 287.0Q3997.0 285 4005.0 285ZM4500.0 -5Q4489.0 -5 4483.0 -0.5Q4477.0 4 4477.0 9Q4477.0 17 4484.0 21.5Q4491.0 26 4498.0 28Q4534.0 37 4551.0 50.5Q4568.0 64 4568.0 95V555Q4568.0 578 4562.5 590.0Q4557.0 602 4543.5 608.5Q4530.0 615 4504.0 620Q4478.0 625 4478.0 641Q4478.0 647 4485.0 650.5Q4492.0 654 4501.0 654Q4526.0 654 4548.5 653.0Q4571.0 652 4592.0 651.0Q4613.0 650 4634.0 650Q4657.0 650 4680.5 651.0Q4704.0 652 4728.5 653.0Q4753.0 654 4776.0 654Q4786.0 654 4792.0 650.5Q4798.0 647 4798.0 640Q4798.0 632 4791.5 627.5Q4785.0 623 4773.0 620Q4734.0 610 4715.5 598.5Q4697.0 587 4697.0 558V101Q4697.0 72 4710.0 58.5Q4723.0 45 4759.0 45H4868.0Q4891.0 45 4910.0 53.0Q4929.0 61 4941.0 73Q4959.0 89 4971.0 107.0Q4983.0 125 4994.0 149Q5001.0 164 5007.0 172.0Q5013.0 180 5019.0 180Q5026.0 180 5029.0 173.5Q5032.0 167 5032.0 160Q5032.0 159 5031.0 154.0Q5030.0 149 5030.0 146Q5022.0 117 5016.5 96.0Q5011.0 75 5007.5 55.5Q5004.0 36 5001.0 13Q5000.0 6 4997.0 0.5Q4994.0 -5 4985.0 -5Q4955.0 -5 4913.0 -4.0Q4871.0 -3 4824.0 -2.5Q4777.0 -2 4729.5 -1.0Q4682.0 0 4640.0 0Q4618.0 0 4589.5 -1.0Q4561.0 -2 4536.0 -3.5Q4511.0 -5 4500.0 -5ZM5079.0 -4Q5070.0 -4 5063.0 -0.5Q5056.0 3 5056.0 9Q5056.0 24 5081.0 29Q5119.0 37 5136.0 51.0Q5153.0 65 5153.0 97V551Q5153.0 584 5139.0 598.0Q5125.0 612 5086.0 620Q5061.0 625 5061.0 641Q5061.0 647 5068.0 650.5Q5075.0 654 5084.0 654Q5108.0 654 5131.0 653.0Q5154.0 652 5175.5 651.0Q5197.0 650 5219.0 650Q5240.0 650 5261.5 651.0Q5283.0 652 5306.0 653.0Q5329.0 654 5353.0 654Q5363.0 654 5369.0 650.5Q5375.0 647 5375.0 640Q5375.0 632 5368.5 627.5Q5362.0 623 5350.0 620Q5310.0 610 5296.0 596.0Q5282.0 582 5282.0 550V98Q5282.0 67 5298.5 53.0Q5315.0 39 5353.0 29Q5366.0 26 5372.5 22.0Q5379.0 18 5379.0 10Q5379.0 3 5373.0 0.0Q5367.0 -3 5357.0 -3Q5333.0 -3 5309.0 -2.0Q5285.0 -1 5262.5 0.0Q5240.0 1 5219.0 1Q5197.0 1 5174.0 0.0Q5151.0 -1 5127.0 -2.5Q5103.0 -4 5079.0 -4ZM5604.0 -4Q5594.0 -4 5586.5 -0.5Q5579.0 3 5579.0 9Q5579.0 17 5586.0 22.0Q5593.0 27 5606.0 29Q5644.0 37 5662.0 51.5Q5680.0 66 5680.0 99V504Q5680.0 545 5678.0 566.0Q5676.0 587 5672.5 594.5Q5669.0 602 5662.0 603Q5652.0 607 5637.0 608.0Q5622.0 609 5608.0 609H5577.0Q5548.0 609 5521.0 595.5Q5494.0 582 5479.0 559Q5475.0 553 5466.5 542.0Q5458.0 531 5448.5 522.0Q5439.0 513 5429.0 513Q5422.0 513 5419.5 518.0Q5417.0 523 5417.0 529Q5417.0 541 5423.0 553Q5440.0 587 5448.5 612.5Q5457.0 638 5460.0 673Q5462.0 688 5468.5 692.5Q5475.0 697 5482.0 697Q5488.0 697 5496.5 684.5Q5505.0 672 5512.0 664Q5521.0 655 5544.0 650.5Q5567.0 646 5583.0 646L5952.0 647Q5980.0 647 5999.0 651.5Q6018.0 656 6029.0 661Q6044.0 670 6053.0 679.5Q6062.0 689 6074.0 689Q6079.0 689 6081.5 683.5Q6084.0 678 6084.0 670Q6084.0 665 6083.0 658.5Q6082.0 652 6081.0 647Q6077.0 628 6073.0 613.5Q6069.0 599 6066.5 586.5Q6064.0 574 6064.0 558V541Q6064.0 527 6060.0 517.0Q6056.0 507 6047.0 507Q6039.0 507 6033.5 516.5Q6028.0 526 6022.0 546Q6013.0 578 5992.0 593.5Q5971.0 609 5926.0 609H5858.0Q5839.0 609 5828.5 602.0Q5818.0 595 5813.5 571.5Q5809.0 548 5809.0 499V100Q5809.0 68 5827.0 53.5Q5845.0 39 5884.0 29Q5896.0 26 5903.0 22.0Q5910.0 18 5910.0 10Q5910.0 3 5903.5 0.0Q5897.0 -3 5887.0 -3Q5863.0 -3 5839.0 -2.0Q5815.0 -1 5791.5 0.0Q5768.0 1 5746.0 1Q5724.0 1 5700.5 0.0Q5677.0 -1 5652.5 -2.5Q5628.0 -4 5604.0 -4ZM6271.0 -6Q6258.0 -6 6250.5 -2.0Q6243.0 2 6243.0 9Q6243.0 17 6251.5 21.5Q6260.0 26 6273.0 29Q6311.0 36 6328.0 56.0Q6345.0 76 6345.0 109V251Q6345.0 280 6335.0 303.5Q6325.0 327 6316.0 343L6191.0 540Q6183.0 553 6170.5 569.5Q6158.0 586 6143.0 600.0Q6128.0 614 6109.0 619Q6097.0 623 6089.5 627.5Q6082.0 632 6082.0 640Q6082.0 647 6089.0 650.5Q6096.0 654 6106.0 654Q6142.0 654 6177.5 651.5Q6213.0 649 6253.0 649Q6282.0 649 6308.5 651.5Q6335.0 654 6363.0 654Q6373.0 654 6382.0 650.5Q6391.0 647 6391.0 640Q6391.0 632 6382.0 627.0Q6373.0 622 6361.0 619Q6338.0 614 6326.5 607.0Q6315.0 600 6315.0 586Q6315.0 571 6327.0 551L6426.0 376Q6439.0 351 6448.0 351Q6453.0 351 6458.0 357.0Q6463.0 363 6471.0 376Q6495.0 415 6515.0 453.0Q6535.0 491 6558.0 536Q6564.0 548 6567.5 559.5Q6571.0 571 6571.0 580Q6571.0 600 6555.0 608.5Q6539.0 617 6522.0 619Q6512.0 620 6501.0 626.0Q6490.0 632 6490.0 640Q6490.0 647 6499.0 650.0Q6508.0 653 6519.0 653Q6546.0 653 6566.5 651.0Q6587.0 649 6612.0 649Q6640.0 649 6665.5 652.0Q6691.0 655 6715.0 655Q6727.0 655 6735.5 652.0Q6744.0 649 6744.0 641Q6744.0 632 6732.0 627.5Q6720.0 623 6706.0 619Q6678.0 611 6658.0 592.0Q6638.0 573 6619.0 543Q6602.0 515 6587.0 491.5Q6572.0 468 6558.5 446.5Q6545.0 425 6531.0 402.5Q6517.0 380 6501.0 353Q6491.0 336 6485.5 322.0Q6480.0 308 6477.0 293.0Q6474.0 278 6474.0 258V110Q6474.0 73 6491.0 55.5Q6508.0 38 6546.0 29Q6560.0 26 6568.5 22.0Q6577.0 18 6577.0 9Q6577.0 3 6569.5 -1.0Q6562.0 -5 6550.0 -5Q6526.0 -5 6502.0 -3.0Q6478.0 -1 6455.5 0.5Q6433.0 2 6411.0 2Q6389.0 2 6366.0 0.5Q6343.0 -1 6319.0 -3.5Q6295.0 -6 6271.0 -6Z" transform="matrix(0.022120 0 0 -0.022120 75.04 391.34)" fill="#15130f"/></svg>