<svg xmlns="http://www.w3.org/2000/svg" viewBox="0 0 300 446"><rect width="300" height="446" fill="#f4ecd8"/><rect x="20.0" y="25.5" width="260" height="395" rx="20.3" fill="#f4ecd8" stroke="#15130f" stroke-width="1.5"/><rect x="36.9" y="42.4" width="226.2" height="354.7" fill="none" stroke="#15130f" stroke-width="0.7"/><g fill="none" stroke="#15130f" stroke-width="0.65" stroke-opacity="0.72" stroke-linecap="round" stroke-linejoin="round"><line x1="36.9" y1="42.4" x2="263.1" y2="370.6"/></g><path d="M36.9,370.6 H263.1 V397.1 H36.9 Z" fill="#bfdedc"/><g fill="none" stroke="#15130f" stroke-width="0.8"><line x1="36.9" y1="370.6" x2="263.1" y2="370.6"/><line x1="61.6" y1="370.6" x2="61.6" y2="397.1"/><line x1="238.4" y1="370.6" x2="238.4" y2="397.1"/></g><rect x="141.4" y="34.4" width="17.2" height="19.0" fill="#bfdedc" stroke="#15130f" stroke-width="0.8"/><path d="M541.0 1306Q697.0 1306 797.5 1224.5Q898.0 1143 898.0 1016Q898.0 934 849.0 869.0Q800.0 804 718.0 776Q668.0 759 667.0 750Q666.0 740 723.0 716Q957.0 617 957.0 376Q957.0 194 834.0 83.5Q711.0 -27 509.0 -27Q311.0 -27 189.5 75.0Q68.0 177 68.0 343Q68.0 527 267.0 635Q285.0 645 286.0 651Q287.0 657 266.0 673Q124.0 777 124.0 943Q124.0 1101 241.5 1203.5Q359.0 1306 541.0 1306ZM510.0 1245Q405.0 1245 336.5 1188.0Q268.0 1131 268.0 1044Q268.0 947 375.0 873Q495.0 790 602.0 790Q672.0 790 719.5 848.0Q767.0 906 767.0 991Q767.0 1097 692.5 1171.0Q618.0 1245 510.0 1245ZM354.0 615Q340.0 616 312.5 598.0Q285.0 580 269.0 560Q216.0 496 216.0 388Q216.0 235 306.0 135.5Q396.0 36 535.0 36Q653.0 36 728.5 100.0Q804.0 164 804.0 265Q804.0 441 612.0 513L510.0 552Q474.0 565 396.0 600Q363.0 614 354.0 615Z" transform="matrix(0.006858 0 0 -0.006858 146.49 49.06)" fill="#15130f"/><path d="M250.0 950Q250.0 859 278.0 774.5Q306.0 690 358.5 645.0Q411.0 600 467.0 600Q524.0 600 576.5 645.0Q629.0 690 657.0 774.5Q685.0 859 685.0 950Q685.0 1051 657.0 1135.5Q629.0 1220 576.5 1265.0Q524.0 1310 467.0 1310Q411.0 1310 358.5 1265.0Q306.0 1220 278.0 1135.5Q250.0 1051 250.0 950ZM589.0 1391Q633.0 1377 677.0 1352Q777.0 1294 831.0 1185.5Q885.0 1077 885.0 950Q885.0 833 831.0 724.5Q777.0 616 677.0 558Q623.0 527 568.0 513V350H785.0V250H568.0V170Q568.0 120 593.0 80.0Q618.0 40 688.0 40H738.0V0H198.0V40H248.0Q318.0 40 343.0 80.0Q368.0 120 368.0 170V250H150.0V350H368.0V513Q312.0 527 259.0 558Q158.0 616 104.0 724.5Q50.0 833 50.0 950Q50.0 1077 104.0 1185.5Q158.0 1294 259.0 1352Q301.0 1377 346.0 1391Q253.0 1414 191.0 1476Q126.0 1541 119.0 1596Q117.0 1608 117.0 1620Q117.0 1656 138.5 1677.5Q160.0 1699 196.0 1700Q231.0 1700 251.5 1679.0Q272.0 1658 282.0 1630Q289.0 1613 292.5 1548.0Q296.0 1483 346.5 1467.5Q397.0 1452 467.0 1452Q537.0 1452 587.5 1467.5Q638.0 1483 641.5 1548.0Q645.0 1613 652.0 1630Q662.0 1658 682.5 1679.0Q703.0 1700 738.0 1700Q774.0 1699 795.5 1677.5Q817.0 1656 817.0 1620Q817.0 1608 815.0 1596Q808.0 1541 743.0 1476Q681.0 1414 589.0 1391Z" transform="matrix(0.009268 0 0 -0.009268 44.92 391.74)" fill="#15130f"/><path d="M1250.0 0V1067Q1250.0 1212 1241.5 1255.5Q1233.0 1299 1212.5 1317.5Q1192.0 1336 1168.0 1336L938.0 1106Q950.0 1037 950.0 952V0H750.0V1067Q750.0 1212 741.5 1255.5Q733.0 1299 712.5 1317.5Q692.0 1336 668.0 1336L438.0 1106Q450.0 1037 450.0 952V0H50.0V40H100.0Q170.0 40 210.0 95.0Q250.0 150 250.0 200V1067Q250.0 1212 241.5 1255.5Q233.0 1299 212.5 1317.5Q192.0 1336 168.0 1336V1410Q284.0 1392 358.0 1301Q387.0 1264 408.0 1216L602.0 1410H668.0Q784.0 1392 858.0 1301Q887.0 1264 908.0 1216L1102.0 1410H1168.0Q1284.0 1392 1358.0 1301Q1450.0 1187 1450.0 952V0Q1450.0 -91 1478.0 -175.5Q1506.0 -260 1558.5 -305.0Q1611.0 -350 1667.0 -350H1867.0Q1742.0 -225 1617.0 0H1667.0Q1967.0 -300 2267.0 -400Q1967.0 -500 1667.0 -800H1617.0Q1742.0 -575 1867.0 -450H1667.0Q1559.0 -450 1458.5 -392.0Q1358.0 -334 1304.0 -225.5Q1250.0 -117 1250.0 0Z" transform="matrix(0.008244 0 0 -0.008244 241.20 386.38)" fill="#15130f"/><path d="M49.0 -5Q38.0 -5 31.5 -1.0Q25.0 3 25.0 9Q25.0 22 51.0 28Q87.0 37 102.5 50.5Q118.0 64 118.0 97V550Q118.0 584 104.5 598.0Q91.0 612 54.0 620Q40.0 623 34.0 628.5Q28.0 634 28.0 640Q28.0 647 34.5 650.5Q41.0 654 52.0 654Q81.0 654 107.5 653.0Q134.0 652 159.0 651.0Q184.0 650 211.0 650Q257.0 650 308.5 651.0Q360.0 652 401.0 652Q434.0 653 455.5 655.0Q477.0 657 481.0 657Q488.0 657 495.5 654.0Q503.0 651 504.0 642Q508.0 609 514.0 577.0Q520.0 545 520.0 521Q520.0 512 515.5 507.5Q511.0 503 506.0 503Q501.0 503 497.0 506.5Q493.0 510 490.0 517Q482.0 540 475.0 557.0Q468.0 574 459.0 583Q446.0 597 429.0 605.0Q412.0 613 388.0 613H295.0Q277.0 613 262.0 602.5Q247.0 592 247.0 573V377Q247.0 366 253.5 360.0Q260.0 354 269.0 354H361.0Q388.0 354 399.5 369.0Q411.0 384 419.0 410Q426.0 430 438.0 430Q443.0 430 447.0 424.5Q451.0 419 451.0 410Q450.0 400 449.0 386.0Q448.0 372 447.5 358.0Q447.0 344 447.0 333Q447.0 321 447.5 306.0Q448.0 291 448.5 276.5Q449.0 262 450.0 252Q451.0 241 448.5 235.0Q446.0 229 440.0 229Q424.0 229 417.0 257Q409.0 285 398.0 299.0Q387.0 313 368.0 313H274.0Q261.0 313 254.0 308.0Q247.0 303 247.0 289V99Q247.0 66 261.0 53.0Q275.0 40 304.0 40H386.0Q411.0 40 431.5 45.0Q452.0 50 467.0 61Q484.0 73 497.5 93.5Q511.0 114 524.0 139Q528.0 147 532.0 149.5Q536.0 152 542.0 152Q547.0 151 549.5 146.0Q552.0 141 552.0 135Q552.0 121 547.0 99.0Q542.0 77 534.5 53.5Q527.0 30 521.0 10Q518.0 3 513.0 -0.5Q508.0 -4 501.0 -4Q477.0 -4 439.5 -3.5Q402.0 -3 358.0 -2.0Q314.0 -1 268.0 -0.5Q222.0 0 180.0 0Q159.0 0 137.5 -1.0Q116.0 -2 94.0 -3.5Q72.0 -5 49.0 -5ZM596.0 -6Q584.0 -6 575.0 -3.0Q566.0 0 566.0 8Q566.0 17 574.5 21.0Q583.0 25 595.0 29Q614.0 35 635.5 46.0Q657.0 57 680.0 76.5Q703.0 96 725.0 124L848.0 281Q860.0 296 861.5 312.0Q863.0 328 849.0 347L710.0 543Q694.0 566 679.5 581.5Q665.0 597 650.0 606.0Q635.0 615 616.0 620Q604.0 624 596.5 628.5Q589.0 633 589.0 641Q589.0 648 596.0 651.0Q603.0 654 613.0 654Q651.0 654 697.0 651.0Q743.0 648 786.0 649Q818.0 649 848.0 651.5Q878.0 654 905.0 654Q915.0 654 923.5 650.5Q932.0 647 932.0 640Q932.0 632 923.5 627.5Q915.0 623 902.0 619Q874.0 612 860.0 605.0Q846.0 598 846.0 583Q846.0 569 868.0 539L961.0 409Q971.0 396 978.0 395.5Q985.0 395 994.0 407L1085.0 530Q1098.0 547 1104.0 560.5Q1110.0 574 1110.0 584Q1110.0 596 1099.5 604.5Q1089.0 613 1065.0 619Q1055.0 621 1044.5 626.5Q1034.0 632 1034.0 640Q1034.0 647 1042.5 650.0Q1051.0 653 1064.0 653Q1082.0 653 1095.0 652.5Q1108.0 652 1121.0 651.0Q1134.0 650 1152.0 650Q1181.0 650 1206.5 653.5Q1232.0 657 1258.0 657Q1270.0 657 1279.5 653.5Q1289.0 650 1289.0 642Q1289.0 634 1280.0 630.0Q1271.0 626 1258.0 622Q1234.0 615 1206.0 591.5Q1178.0 568 1155.0 540L1025.0 381Q1013.0 367 1011.5 357.5Q1010.0 348 1019.0 333L1182.0 101Q1200.0 75 1222.0 56.5Q1244.0 38 1266.0 31Q1279.0 29 1290.0 23.0Q1301.0 17 1301.0 8Q1301.0 2 1293.5 -1.5Q1286.0 -5 1274.0 -5Q1245.0 -5 1214.5 -3.5Q1184.0 -2 1154.5 0.0Q1125.0 2 1095.0 1Q1065.0 1 1036.5 0.0Q1008.0 -1 982.0 -1Q972.0 -1 963.0 2.5Q954.0 6 954.0 12Q954.0 20 964.5 25.5Q975.0 31 984.0 33Q1002.0 38 1019.5 47.5Q1037.0 57 1037.0 75Q1037.0 82 1035.0 88.0Q1033.0 94 1027.0 102L920.0 254Q910.0 270 902.0 272.0Q894.0 274 883.0 258L775.0 111Q765.0 96 762.5 85.0Q760.0 74 761.0 68Q762.0 55 774.0 45.0Q786.0 35 807.0 31Q820.0 29 829.0 23.5Q838.0 18 838.0 10Q838.0 3 829.5 0.0Q821.0 -3 809.0 -3Q785.0 -3 758.5 -1.5Q732.0 0 711.0 0Q680.0 0 652.0 -3.0Q624.0 -6 596.0 -6ZM1516.0 -4Q1506.0 -4 1498.5 -0.5Q1491.0 3 1491.0 9Q1491.0 17 1498.0 22.0Q1505.0 27 1518.0 29Q1556.0 37 1574.0 51.5Q1592.0 66 1592.0 99V504Q1592.0 545 1590.0 566.0Q1588.0 587 1584.5 594.5Q1581.0 602 1574.0 603Q1564.0 607 1549.0 608.0Q1534.0 609 1520.0 609H1489.0Q1460.0 609 1433.0 595.5Q1406.0 582 1391.0 559Q1387.0 553 1378.5 542.0Q1370.0 531 1360.5 522.0Q1351.0 513 1341.0 513Q1334.0 513 1331.5 518.0Q1329.0 523 1329.0 529Q1329.0 541 1335.0 553Q1352.0 587 1360.5 612.5Q1369.0 638 1372.0 673Q1374.0 688 1380.5 692.5Q1387.0 697 1394.0 697Q1400.0 697 1408.5 684.5Q1417.0 672 1424.0 664Q1433.0 655 1456.0 650.5Q1479.0 646 1495.0 646L1864.0 647Q1892.0 647 1911.0 651.5Q1930.0 656 1941.0 661Q1956.0 670 1965.0 679.5Q1974.0 689 1986.0 689Q1991.0 689 1993.5 683.5Q1996.0 678 1996.0 670Q1996.0 665 1995.0 658.5Q1994.0 652 1993.0 647Q1989.0 628 1985.0 613.5Q1981.0 599 1978.5 586.5Q1976.0 574 1976.0 558V541Q1976.0 527 1972.0 517.0Q1968.0 507 1959.0 507Q1951.0 507 1945.5 516.5Q1940.0 526 1934.0 546Q1925.0 578 1904.0 593.5Q1883.0 609 1838.0 609H1770.0Q1751.0 609 1740.5 602.0Q1730.0 595 1725.5 571.5Q1721.0 548 1721.0 499V100Q1721.0 68 1739.0 53.5Q1757.0 39 1796.0 29Q1808.0 26 1815.0 22.0Q1822.0 18 1822.0 10Q1822.0 3 1815.5 0.0Q1809.0 -3 1799.0 -3Q1775.0 -3 1751.0 -2.0Q1727.0 -1 1703.5 0.0Q1680.0 1 1658.0 1Q1636.0 1 1612.5 0.0Q1589.0 -1 1564.5 -2.5Q1540.0 -4 1516.0 -4ZM2636.0 -21Q2593.0 -21 2561.0 -11.5Q2529.0 -2 2506.0 16.0Q2483.0 34 2464.0 58Q2442.0 88 2421.0 116.5Q2400.0 145 2378.5 179.5Q2357.0 214 2331.0 262Q2318.0 285 2298.0 296Q2285.0 303 2271.5 306.0Q2258.0 309 2249.0 309Q2243.0 310 2240.0 304.0Q2237.0 298 2237.0 289V103Q2237.0 72 2253.5 55.0Q2270.0 38 2310.0 29Q2323.0 27 2329.0 22.5Q2335.0 18 2335.0 10Q2335.0 3 2329.5 0.0Q2324.0 -3 2313.0 -3Q2290.0 -3 2266.0 -1.5Q2242.0 0 2219.5 1.0Q2197.0 2 2177.0 2Q2155.0 2 2131.5 1.0Q2108.0 0 2084.0 -2.0Q2060.0 -4 2036.0 -4Q2027.0 -4 2020.0 -0.5Q2013.0 3 2013.0 9Q2013.0 24 2038.0 29Q2076.0 37 2092.0 51.0Q2108.0 65 2108.0 98V540Q2108.0 569 2103.5 584.5Q2099.0 600 2086.0 608.0Q2073.0 616 2047.0 620Q2033.0 622 2027.0 628.0Q2021.0 634 2021.0 640Q2021.0 647 2027.5 650.5Q2034.0 654 2045.0 654Q2075.0 654 2093.0 653.0Q2111.0 652 2127.5 650.5Q2144.0 649 2167.0 649Q2189.0 649 2206.0 651.0Q2223.0 653 2244.0 655.0Q2265.0 657 2298.0 657Q2413.0 657 2474.0 617.0Q2535.0 577 2535.0 495Q2535.0 450 2516.0 418.5Q2497.0 387 2468.5 367.0Q2440.0 347 2410.0 336Q2406.0 335 2406.5 331.0Q2407.0 327 2410.0 324Q2440.0 278 2468.5 236.5Q2497.0 195 2528.5 158.0Q2560.0 121 2597.0 87Q2628.0 58 2660.5 52.5Q2693.0 47 2728.0 47Q2743.0 47 2743.0 32Q2743.0 12 2728.0 0.5Q2713.0 -11 2688.5 -16.0Q2664.0 -21 2636.0 -21ZM2280.0 338Q2321.0 338 2348.5 356.5Q2376.0 375 2390.5 406.0Q2405.0 437 2405.0 475Q2405.0 520 2394.0 551.5Q2383.0 583 2356.5 600.5Q2330.0 618 2284.0 618Q2258.0 618 2248.5 599.5Q2239.0 581 2238.0 525Q2237.0 502 2237.0 464.5Q2237.0 427 2237.0 375Q2237.0 353 2248.5 345.5Q2260.0 338 2280.0 338ZM2787.0 -5Q2776.0 -5 2769.5 -1.0Q2763.0 3 2763.0 9Q2763.0 22 2789.0 28Q2825.0 37 2840.5 50.5Q2856.0 64 2856.0 97V550Q2856.0 584 2842.5 598.0Q2829.0 612 2792.0 620Q2778.0 623 2772.0 628.5Q2766.0 634 2766.0 640Q2766.0 647 2772.5 650.5Q2779.0 654 2790.0 654Q2819.0 654 2845.5 653.0Q2872.0 652 2897.0 651.0Q2922.0 650 2949.0 650Q2995.0 650 3046.5 651.0Q3098.0 652 3139.0 652Q3172.0 653 3193.5 655.0Q3215.0 657 3219.0 657Q3226.0 657 3233.5 654.0Q3241.0 651 3242.0 642Q3246.0 609 3252.0 577.0Q3258.0 545 3258.0 521Q3258.0 512 3253.5 507.5Q3249.0 503 3244.0 503Q3239.0 503 3235.0 506.5Q3231.0 510 3228.0 517Q3220.0 540 3213.0 557.0Q3206.0 574 3197.0 583Q3184.0 597 3167.0 605.0Q3150.0 613 3126.0 613H3033.0Q3015.0 613 3000.0 602.5Q2985.0 592 2985.0 573V377Q2985.0 366 2991.5 360.0Q2998.0 354 3007.0 354H3099.0Q3126.0 354 3137.5 369.0Q3149.0 384 3157.0 410Q3164.0 430 3176.0 430Q3181.0 430 3185.0 424.5Q3189.0 419 3189.0 410Q3188.0 400 3187.0 386.0Q3186.0 372 3185.5 358.0Q3185.0 344 3185.0 333Q3185.0 321 3185.5 306.0Q3186.0 291 3186.5 276.5Q3187.0 262 3188.0 252Q3189.0 241 3186.5 235.0Q3184.0 229 3178.0 229Q3162.0 229 3155.0 257Q3147.0 285 3136.0 299.0Q3125.0 313 3106.0 313H3012.0Q2999.0 313 2992.0 308.0Q2985.0 303 2985.0 289V99Q2985.0 66 2999.0 53.0Q3013.0 40 3042.0 40H3124.0Q3149.0 40 3169.5 45.0Q3190.0 50 3205.0 61Q3222.0 73 3235.5 93.5Q3249.0 114 3262.0 139Q3266.0 147 3270.0 149.5Q3274.0 152 3280.0 152Q3285.0 151 3287.5 146.0Q3290.0 141 3290.0 135Q3290.0 121 3285.0 99.0Q3280.0 77 3272.5 53.5Q3265.0 30 3259.0 10Q3256.0 3 3251.0 -0.5Q3246.0 -4 3239.0 -4Q3215.0 -4 3177.5 -3.5Q3140.0 -3 3096.0 -2.0Q3052.0 -1 3006.0 -0.5Q2960.0 0 2918.0 0Q2897.0 0 2875.5 -1.0Q2854.0 -2 2832.0 -3.5Q2810.0 -5 2787.0 -5ZM3354.0 -4Q3342.0 -4 3335.5 -0.5Q3329.0 3 3329.0 9Q3329.0 17 3337.5 20.5Q3346.0 24 3358.0 27Q3382.0 34 3399.0 54.0Q3416.0 74 3420.0 106Q3428.0 167 3435.5 239.0Q3443.0 311 3449.5 384.0Q3456.0 457 3460.0 521Q3460.0 528 3460.0 537.0Q3460.0 546 3460.0 555Q3459.0 570 3454.5 579.5Q3450.0 589 3439.0 597Q3425.0 607 3410.0 612.5Q3395.0 618 3376.0 622Q3365.0 624 3358.5 629.5Q3352.0 635 3352.0 643Q3352.0 651 3360.0 654.0Q3368.0 657 3381.0 657Q3394.0 657 3416.0 656.0Q3438.0 655 3463.5 653.5Q3489.0 652 3514.0 651.0Q3539.0 650 3558.0 650Q3566.0 650 3572.0 645.0Q3578.0 640 3580.0 633Q3586.0 614 3592.0 596.0Q3598.0 578 3605.0 558L3755.0 191Q3758.0 186 3763.0 185.5Q3768.0 185 3770.0 190L3931.0 548Q3938.0 577 3942.5 599.0Q3947.0 621 3951.0 634Q3954.0 647 3964.0 647H4005.0Q4043.0 649 4085.0 653.0Q4127.0 657 4150.0 657Q4158.0 657 4165.5 654.5Q4173.0 652 4173.0 644Q4173.0 636 4167.0 632.0Q4161.0 628 4149.0 623Q4141.0 621 4130.0 616.5Q4119.0 612 4111.0 608Q4090.0 599 4079.5 585.0Q4069.0 571 4070.0 545Q4071.0 474 4074.0 417.5Q4077.0 361 4079.5 311.5Q4082.0 262 4086.0 210.5Q4090.0 159 4093.0 97Q4095.0 69 4114.5 53.0Q4134.0 37 4167.0 29Q4179.0 26 4186.5 22.0Q4194.0 18 4194.0 10Q4194.0 3 4187.5 0.0Q4181.0 -3 4170.0 -3Q4147.0 -3 4122.0 -2.0Q4097.0 -1 4073.5 0.0Q4050.0 1 4029.0 1Q4009.0 1 3988.0 0.0Q3967.0 -1 3945.0 -2.5Q3923.0 -4 3899.0 -4Q3889.0 -4 3881.5 -0.5Q3874.0 3 3874.0 9Q3874.0 17 3881.5 22.0Q3889.0 27 3901.0 29Q3935.0 36 3948.5 50.0Q3962.0 64 3960.0 97Q3959.0 162 3957.0 222.0Q3955.0 282 3953.0 341.0Q3951.0 400 3948.0 460Q3947.0 468 3943.5 467.5Q3940.0 467 3936.0 459L3732.0 -1Q3728.0 -12 3719.0 -10.5Q3710.0 -9 3707.0 -1Q3661.0 115 3610.5 228.5Q3560.0 342 3511.0 459Q3508.0 467 3502.5 465.0Q3497.0 463 3496.0 454Q3491.0 398 3487.0 338.5Q3483.0 279 3482.0 220.0Q3481.0 161 3481.0 103Q3481.0 76 3498.5 57.0Q3516.0 38 3552.0 29Q3564.0 27 3572.5 22.5Q3581.0 18 3581.0 10Q3581.0 3 3573.0 0.0Q3565.0 -3 3555.0 -3Q3528.0 -3 3514.0 -2.0Q3500.0 -1 3488.0 0.0Q3476.0 1 3456.0 1Q3435.0 1 3416.5 0.0Q3398.0 -1 3382.0 -2.5Q3366.0 -4 3354.0 -4ZM4261.0 -4Q4252.0 -4 4245.0 -0.5Q4238.0 3 4238.0 9Q4238.0 24 4263.0 29Q4301.0 37 4318.0 51.0Q4335.0 65 4335.0 97V551Q4335.0 584 4321.0 598.0Q4307.0 612 4268.0 620Q4243.0 625 4243.0 641Q4243.0 647 4250.0 650.5Q4257.0 654 4266.0 654Q4290.0 654 4313.0 653.0Q4336.0 652 4357.5 651.0Q4379.0 650 4401.0 650Q4422.0 650 4443.5 651.0Q4465.0 652 4488.0 653.0Q4511.0 654 4535.0 654Q4545.0 654 4551.0 650.5Q4557.0 647 4557.0 640Q4557.0 632 4550.5 627.5Q4544.0 623 4532.0 620Q4492.0 610 4478.0 596.0Q4464.0 582 4464.0 550V98Q4464.0 67 4480.5 53.0Q4497.0 39 4535.0 29Q4548.0 26 4554.5 22.0Q4561.0 18 4561.0 10Q4561.0 3 4555.0 0.0Q4549.0 -3 4539.0 -3Q4515.0 -3 4491.0 -2.0Q4467.0 -1 4444.5 0.0Q4422.0 1 4401.0 1Q4379.0 1 4356.0 0.0Q4333.0 -1 4309.0 -2.5Q4285.0 -4 4261.0 -4ZM4791.0 -15Q4748.0 -15 4709.5 -4.0Q4671.0 7 4639.0 29Q4633.0 34 4628.0 39.5Q4623.0 45 4620.0 52Q4612.0 77 4609.0 113.5Q4606.0 150 4607.0 184Q4607.0 191 4612.5 194.0Q4618.0 197 4626.0 197Q4634.0 197 4638.5 194.5Q4643.0 192 4645.0 185Q4667.0 110 4709.0 68.0Q4751.0 26 4804.0 26Q4837.0 26 4860.0 41.0Q4883.0 56 4895.0 80.0Q4907.0 104 4907.0 132Q4907.0 167 4894.5 190.0Q4882.0 213 4857.0 231.5Q4832.0 250 4794.0 271Q4753.0 295 4714.0 321.5Q4675.0 348 4650.0 384.5Q4625.0 421 4625.0 475Q4625.0 531 4653.5 573.5Q4682.0 616 4733.0 640.0Q4784.0 664 4851.0 664Q4888.0 664 4920.0 656.0Q4952.0 648 4971.0 640Q4982.0 636 4987.5 630.0Q4993.0 624 4996.0 611Q5002.0 590 5006.5 561.0Q5011.0 532 5011.0 500Q5011.0 488 4993.0 488Q4985.0 488 4977.0 492.0Q4969.0 496 4967.0 503Q4949.0 561 4917.5 591.0Q4886.0 621 4840.0 621Q4809.0 621 4787.0 610.5Q4765.0 600 4752.0 578.5Q4739.0 557 4739.0 523Q4739.0 497 4756.5 475.0Q4774.0 453 4805.5 432.0Q4837.0 411 4876.0 386Q4924.0 358 4956.5 329.5Q4989.0 301 5006.0 266.5Q5023.0 232 5023.0 185Q5023.0 119 4994.0 74.5Q4965.0 30 4913.0 7.5Q4861.0 -15 4791.0 -15ZM5106.0 -4Q5094.0 -4 5087.5 -0.5Q5081.0 3 5081.0 9Q5081.0 17 5089.5 20.5Q5098.0 24 5110.0 27Q5134.0 34 5151.0 54.0Q5168.0 74 5172.0 106Q5180.0 167 5187.5 239.0Q5195.0 311 5201.5 384.0Q5208.0 457 5212.0 521Q5212.0 528 5212.0 537.0Q5212.0 546 5212.0 555Q5211.0 570 5206.5 579.5Q5202.0 589 5191.0 597Q5177.0 607 5162.0 612.5Q5147.0 618 5128.0 622Q5117.0 624 5110.5 629.5Q5104.0 635 5104.0 643Q5104.0 651 5112.0 654.0Q5120.0 657 5133.0 657Q5146.0 657 5168.0 656.0Q5190.0 655 5215.5 653.5Q5241.0 652 5266.0 651.0Q5291.0 650 5310.0 650Q5318.0 650 5324.0 645.0Q5330.0 640 5332.0 633Q5338.0 614 5344.0 596.0Q5350.0 578 5357.0 558L5507.0 191Q5510.0 186 5515.0 185.5Q5520.0 185 5522.0 190L5683.0 548Q5690.0 577 5694.5 599.0Q5699.0 621 5703.0 634Q5706.0 647 5716.0 647H5757.0Q5795.0 649 5837.0 653.0Q5879.0 657 5902.0 657Q5910.0 657 5917.5 654.5Q5925.0 652 5925.0 644Q5925.0 636 5919.0 632.0Q5913.0 628 5901.0 623Q5893.0 621 5882.0 616.5Q5871.0 612 5863.0 608Q5842.0 599 5831.5 585.0Q5821.0 571 5822.0 545Q5823.0 474 5826.0 417.5Q5829.0 361 5831.5 311.5Q5834.0 262 5838.0 210.5Q5842.0 159 5845.0 97Q5847.0 69 5866.5 53.0Q5886.0 37 5919.0 29Q5931.0 26 5938.5 22.0Q5946.0 18 5946.0 10Q5946.0 3 5939.5 0.0Q5933.0 -3 5922.0 -3Q5899.0 -3 5874.0 -2.0Q5849.0 -1 5825.5 0.0Q5802.0 1 5781.0 1Q5761.0 1 5740.0 0.0Q5719.0 -1 5697.0 -2.5Q5675.0 -4 5651.0 -4Q5641.0 -4 5633.5 -0.5Q5626.0 3 5626.0 9Q5626.0 17 5633.5 22.0Q5641.0 27 5653.0 29Q5687.0 36 5700.5 50.0Q5714.0 64 5712.0 97Q5711.0 162 5709.0 222.0Q5707.0 282 5705.0 341.0Q5703.0 400 5700.0 460Q5699.0 468 5695.5 467.5Q5692.0 467 5688.0 459L5484.0 -1Q5480.0 -12 5471.0 -10.5Q5462.0 -9 5459.0 -1Q5413.0 115 5362.5 228.5Q5312.0 342 5263.0 459Q5260.0 467 5254.5 465.0Q5249.0 463 5248.0 454Q5243.0 398 5239.0 338.5Q5235.0 279 5234.0 220.0Q5233.0 161 5233.0 103Q5233.0 76 5250.5 57.0Q5268.0 38 5304.0 29Q5316.0 27 5324.5 22.5Q5333.0 18 5333.0 10Q5333.0 3 5325.0 0.0Q5317.0 -3 5307.0 -3Q5280.0 -3 5266.0 -2.0Q5252.0 -1 5240.0 0.0Q5228.0 1 5208.0 1Q5187.0 1 5168.5 0.0Q5150.0 -1 5134.0 -2.5Q5118.0 -4 5106.0 -4Z" transform="matrix(0.022120 0 0 -0.022120 83.96 391.34)" fill="#15130f"/></svg>