<svg xmlns="http://www.w3.org/2000/svg" viewBox="0 0 300 446"><rect width="300" height="446" fill="#f4ecd8"/><rect x="20.0" y="25.5" width="260" height="395" rx="20.3" fill="#f4ecd8" stroke="#15130f" stroke-width="1.5"/><rect x="36.9" y="42.4" width="226.2" height="354.7" fill="none" stroke="#15130f" stroke-width="0.7"/><g fill="none" stroke="#15130f" stroke-width="0.65" stroke-opacity="0.72" stroke-linecap="round" stroke-linejoin="round"><line x1="36.9" y1="281.5" x2="263.1" y2="281.5"/></g><path d="M36.9,370.6 H263.1 V397.1 H36.9 Z" fill="#d7e8c4"/><g fill="none" stroke="#15130f" stroke-width="0.8"><line x1="36.9" y1="370.6" x2="263.1" y2="370.6"/><line x1="61.6" y1="370.6" x2="61.6" y2="397.1"/><line x1="238.4" y1="370.6" x2="238.4" y2="397.1"/></g><rect x="141.4" y="34.4" width="17.2" height="19.0" fill="#d7e8c4" stroke="#15130f" stroke-width="0.8"/><path d="M731.0 1093H467.0L377.0 1095L276.0 1077Q209.0 1046 197.0 961Q190.0 917 170.0 915Q139.0 913 139.0 965Q139.0 1051 170.0 1146L196.0 1225L203.0 1262Q208.0 1287 239.0 1287Q249.0 1287 279.0 1285Q310.0 1282 401.0 1282H808.0Q871.0 1282 886.5 1270.5Q902.0 1259 902.0 1214Q902.0 1092 809.0 873L717.0 658Q578.0 330 578.0 161Q578.0 67 592.0 11L604.0 -35Q606.0 -41 606.0 -47Q606.0 -64 575.0 -70Q570.0 -71 557.0 -75Q476.0 -101 435.0 -101Q377.0 -101 357.5 -74.5Q338.0 -48 338.0 28Q338.0 262 500.0 501L605.0 657Q677.0 762 737.5 889.5Q798.0 1017 798.0 1061Q798.0 1093 731.0 1093Z" transform="matrix(0.006858 0 0 -0.006858 146.43 48.74)" fill="#15130f"/><path d="M101.0 47Q181.0 63 244.0 113Q309.0 164 358.0 252Q477.0 463 477.0 701Q477.0 941 358.0 1151Q310.0 1237 245.0 1288Q180.0 1338 100.0 1353Q188.0 1394 291.0 1405Q333.0 1410 377.0 1410Q670.0 1410 848.5 1205.0Q1027.0 1000 1027.0 699Q1027.0 399 847.0 194.5Q667.0 -10 377.0 -10Q332.0 -10 290.0 -5Q188.0 7 101.0 47ZM498.0 1241Q677.0 1021 677.0 699Q677.0 378 497.0 159Q468.0 124 436.0 94Q607.0 118 708.0 286Q827.0 481 827.0 701Q827.0 923 708.0 1117Q607.0 1281 438.0 1306Q470.0 1276 498.0 1241Z" transform="matrix(0.009268 0 0 -0.009268 44.03 390.35)" fill="#15130f"/><path d="M50.0 100H1650.0V0H50.0ZM50.0 300V400H339.0Q300.0 491 300.0 600Q300.0 815 451.0 962.5Q602.0 1110 850.0 1110Q1098.0 1110 1249.0 962.5Q1400.0 815 1400.0 600Q1400.0 491 1361.0 400H1650.0V300H1090.0Q1099.0 310 1149.5 403.0Q1200.0 496 1200.0 600Q1200.0 750 1106.5 880.0Q1013.0 1010 850.0 1010Q684.0 1010 592.0 880.0Q500.0 750 500.0 600Q500.0 496 550.0 403.0Q600.0 310 608.0 300Z" transform="matrix(0.009268 0 0 -0.009268 242.87 389.01)" fill="#15130f"/><path d="M405.0 -14Q330.0 -14 263.0 9.5Q196.0 33 144.5 77.0Q93.0 121 63.5 182.5Q34.0 244 34.0 319Q34.0 389 63.0 451.0Q92.0 513 145.0 561.0Q198.0 609 271.5 636.5Q345.0 664 433.0 664Q467.0 664 497.5 659.5Q528.0 655 557.0 648.5Q586.0 642 614.0 632Q625.0 628 631.5 621.0Q638.0 614 639.0 602Q643.0 572 645.0 542.5Q647.0 513 647.0 484Q648.0 474 640.0 469.5Q632.0 465 623.0 468.5Q614.0 472 610.0 483Q602.0 511 591.5 535.5Q581.0 560 560.0 577Q537.0 596 502.0 607.5Q467.0 619 420.0 619Q366.0 619 322.0 597.0Q278.0 575 246.5 536.0Q215.0 497 198.0 448.0Q181.0 399 181.0 345Q181.0 281 196.5 224.0Q212.0 167 243.5 123.5Q275.0 80 320.0 55.5Q365.0 31 423.0 31Q497.0 31 543.0 63.0Q589.0 95 621.0 158Q629.0 174 643.0 173.5Q657.0 173 657.0 157Q657.0 145 654.0 127.0Q651.0 109 645.5 88.5Q640.0 68 633.0 48Q629.0 36 623.0 30.0Q617.0 24 605.0 19Q567.0 3 515.5 -5.5Q464.0 -14 405.0 -14ZM1085.0 -14Q1017.0 -14 955.0 9.5Q893.0 33 845.5 76.5Q798.0 120 770.5 180.5Q743.0 241 743.0 315Q743.0 383 765.5 445.5Q788.0 508 832.5 557.0Q877.0 606 942.5 635.0Q1008.0 664 1094.0 664Q1162.0 664 1223.5 640.5Q1285.0 617 1333.0 573.5Q1381.0 530 1408.5 469.5Q1436.0 409 1436.0 335Q1436.0 268 1413.5 205.0Q1391.0 142 1346.5 93.0Q1302.0 44 1236.5 15.0Q1171.0 -14 1085.0 -14ZM1102.0 30Q1165.0 30 1207.5 62.0Q1250.0 94 1271.5 151.5Q1293.0 209 1293.0 284Q1293.0 348 1280.0 408.0Q1267.0 468 1240.0 515.5Q1213.0 563 1172.5 591.0Q1132.0 619 1076.0 619Q1013.0 619 970.5 587.0Q928.0 555 907.0 498.0Q886.0 441 886.0 366Q886.0 302 899.0 242.0Q912.0 182 938.5 134.0Q965.0 86 1005.5 58.0Q1046.0 30 1102.0 30ZM1515.0 -4Q1503.0 -4 1496.5 -0.5Q1490.0 3 1490.0 9Q1490.0 17 1498.5 20.5Q1507.0 24 1519.0 27Q1543.0 34 1560.0 54.0Q1577.0 74 1581.0 106Q1589.0 167 1596.5 239.0Q1604.0 311 1610.5 384.0Q1617.0 457 1621.0 521Q1621.0 528 1621.0 537.0Q1621.0 546 1621.0 555Q1620.0 570 1615.5 579.5Q1611.0 589 1600.0 597Q1586.0 607 1571.0 612.5Q1556.0 618 1537.0 622Q1526.0 624 1519.5 629.5Q1513.0 635 1513.0 643Q1513.0 651 1521.0 654.0Q1529.0 657 1542.0 657Q1555.0 657 1577.0 656.0Q1599.0 655 1624.5 653.5Q1650.0 652 1675.0 651.0Q1700.0 650 1719.0 650Q1727.0 650 1733.0 645.0Q1739.0 640 1741.0 633Q1747.0 614 1753.0 596.0Q1759.0 578 1766.0 558L1916.0 191Q1919.0 186 1924.0 185.5Q1929.0 185 1931.0 190L2092.0 548Q2099.0 577 2103.5 599.0Q2108.0 621 2112.0 634Q2115.0 647 2125.0 647H2166.0Q2204.0 649 2246.0 653.0Q2288.0 657 2311.0 657Q2319.0 657 2326.5 654.5Q2334.0 652 2334.0 644Q2334.0 636 2328.0 632.0Q2322.0 628 2310.0 623Q2302.0 621 2291.0 616.5Q2280.0 612 2272.0 608Q2251.0 599 2240.5 585.0Q2230.0 571 2231.0 545Q2232.0 474 2235.0 417.5Q2238.0 361 2240.5 311.5Q2243.0 262 2247.0 210.5Q2251.0 159 2254.0 97Q2256.0 69 2275.5 53.0Q2295.0 37 2328.0 29Q2340.0 26 2347.5 22.0Q2355.0 18 2355.0 10Q2355.0 3 2348.5 0.0Q2342.0 -3 2331.0 -3Q2308.0 -3 2283.0 -2.0Q2258.0 -1 2234.5 0.0Q2211.0 1 2190.0 1Q2170.0 1 2149.0 0.0Q2128.0 -1 2106.0 -2.5Q2084.0 -4 2060.0 -4Q2050.0 -4 2042.5 -0.5Q2035.0 3 2035.0 9Q2035.0 17 2042.5 22.0Q2050.0 27 2062.0 29Q2096.0 36 2109.5 50.0Q2123.0 64 2121.0 97Q2120.0 162 2118.0 222.0Q2116.0 282 2114.0 341.0Q2112.0 400 2109.0 460Q2108.0 468 2104.5 467.5Q2101.0 467 2097.0 459L1893.0 -1Q1889.0 -12 1880.0 -10.5Q1871.0 -9 1868.0 -1Q1822.0 115 1771.5 228.5Q1721.0 342 1672.0 459Q1669.0 467 1663.5 465.0Q1658.0 463 1657.0 454Q1652.0 398 1648.0 338.5Q1644.0 279 1643.0 220.0Q1642.0 161 1642.0 103Q1642.0 76 1659.5 57.0Q1677.0 38 1713.0 29Q1725.0 27 1733.5 22.5Q1742.0 18 1742.0 10Q1742.0 3 1734.0 0.0Q1726.0 -3 1716.0 -3Q1689.0 -3 1675.0 -2.0Q1661.0 -1 1649.0 0.0Q1637.0 1 1617.0 1Q1596.0 1 1577.5 0.0Q1559.0 -1 1543.0 -2.5Q1527.0 -4 1515.0 -4ZM2424.0 -4Q2415.0 -4 2408.0 -0.5Q2401.0 3 2401.0 9Q2401.0 24 2426.0 29Q2464.0 37 2480.0 51.0Q2496.0 65 2496.0 98V538Q2496.0 576 2483.5 594.0Q2471.0 612 2435.0 620Q2421.0 623 2415.0 628.5Q2409.0 634 2409.0 640Q2409.0 647 2415.5 650.5Q2422.0 654 2433.0 654Q2457.0 654 2477.5 653.5Q2498.0 653 2517.0 652.0Q2536.0 651 2556.0 651Q2578.0 651 2597.5 653.0Q2617.0 655 2637.5 657.0Q2658.0 659 2685.0 659Q2804.0 659 2875.0 609.0Q2946.0 559 2946.0 471Q2946.0 409 2920.5 356.5Q2895.0 304 2842.5 272.0Q2790.0 240 2710.0 240Q2685.0 240 2672.0 247.5Q2659.0 255 2659.0 264Q2659.0 270 2665.5 274.5Q2672.0 279 2677.0 279Q2686.0 279 2694.5 277.5Q2703.0 276 2720.0 276Q2767.0 276 2791.5 324.0Q2816.0 372 2816.0 452Q2816.0 540 2780.5 580.5Q2745.0 621 2685.0 621Q2657.0 621 2641.5 609.5Q2626.0 598 2626.0 573L2625.0 104Q2625.0 71 2641.5 54.5Q2658.0 38 2698.0 29Q2711.0 27 2717.0 22.5Q2723.0 18 2723.0 10Q2723.0 3 2717.5 0.0Q2712.0 -3 2701.0 -3Q2678.0 -3 2654.0 -1.5Q2630.0 0 2607.5 1.0Q2585.0 2 2565.0 2Q2543.0 2 2519.5 1.0Q2496.0 0 2472.0 -2.0Q2448.0 -4 2424.0 -4ZM2995.0 -5Q2983.0 -5 2975.0 -1.5Q2967.0 2 2967.0 10Q2967.0 19 2974.5 24.0Q2982.0 29 2994.0 33Q3023.0 41 3044.5 57.5Q3066.0 74 3079.0 103Q3104.0 162 3127.0 216.5Q3150.0 271 3171.0 325.0Q3192.0 379 3213.5 435.0Q3235.0 491 3257.0 553Q3268.0 584 3272.0 601.0Q3276.0 618 3279.0 626Q3294.0 630 3307.0 634.0Q3320.0 638 3336.0 644Q3350.0 651 3360.0 662.0Q3370.0 673 3375.0 679Q3378.0 681 3381.0 681.5Q3384.0 682 3387.0 677Q3390.0 671 3392.0 665.0Q3394.0 659 3396.0 652Q3418.0 581 3441.5 508.5Q3465.0 436 3488.0 365.5Q3511.0 295 3532.5 230.5Q3554.0 166 3572.0 112Q3581.0 85 3594.5 69.0Q3608.0 53 3624.5 44.5Q3641.0 36 3661.0 31Q3674.0 28 3681.0 23.0Q3688.0 18 3688.0 9Q3688.0 3 3681.5 0.0Q3675.0 -3 3665.0 -3Q3647.0 -3 3619.5 -2.0Q3592.0 -1 3563.0 0.5Q3534.0 2 3511.0 2Q3491.0 2 3466.5 1.0Q3442.0 0 3417.5 -1.0Q3393.0 -2 3376.0 -2Q3366.0 -2 3358.5 1.5Q3351.0 5 3351.0 12Q3351.0 20 3359.0 25.5Q3367.0 31 3378.0 33Q3414.0 39 3430.0 51.5Q3446.0 64 3442.0 88Q3439.0 105 3433.0 128.5Q3427.0 152 3420.5 177.5Q3414.0 203 3407.0 224Q3405.0 232 3401.0 235.5Q3397.0 239 3386.0 239H3206.0Q3199.0 239 3195.0 234.5Q3191.0 230 3189.0 221Q3185.0 208 3179.5 191.5Q3174.0 175 3168.5 157.5Q3163.0 140 3158.5 125.0Q3154.0 110 3152.0 99Q3147.0 72 3161.5 56.5Q3176.0 41 3212.0 32Q3239.0 25 3239.0 11Q3239.0 5 3232.5 1.5Q3226.0 -2 3214.0 -2Q3191.0 -2 3166.0 -0.5Q3141.0 1 3111.0 1Q3081.0 1 3052.5 -2.0Q3024.0 -5 2995.0 -5ZM3233.0 285H3372.0Q3386.0 285 3386.0 291Q3386.0 294 3385.5 296.0Q3385.0 298 3384.0 302L3314.0 533Q3310.0 547 3307.0 547Q3305.0 547 3300.0 534L3216.0 302Q3214.0 297 3214.0 294Q3214.0 289 3219.5 287.0Q3225.0 285 3233.0 285ZM4358.0 -18Q4346.0 -18 4318.0 -3.0Q4290.0 12 4261.0 49Q4244.0 68 4219.5 95.5Q4195.0 123 4165.5 156.0Q4136.0 189 4104.0 225.0Q4072.0 261 4040.5 297.0Q4009.0 333 3979.0 366.0Q3949.0 399 3924.0 426.5Q3899.0 454 3882.0 474Q3878.0 479 3873.5 482.5Q3869.0 486 3866.0 486Q3862.0 486 3860.0 479.0Q3858.0 472 3858.0 466Q3858.0 420 3858.5 357.0Q3859.0 294 3859.0 229.0Q3859.0 164 3859.0 109Q3859.0 78 3877.0 58.0Q3895.0 38 3934.0 29Q3946.0 27 3954.5 22.5Q3963.0 18 3963.0 10Q3963.0 3 3955.0 0.0Q3947.0 -3 3937.0 -3Q3910.0 -3 3894.0 -2.0Q3878.0 -1 3865.0 0.0Q3852.0 1 3832.0 1Q3811.0 1 3794.5 0.0Q3778.0 -1 3765.0 -2.5Q3752.0 -4 3740.0 -4Q3730.0 -4 3722.0 -0.5Q3714.0 3 3714.0 9Q3714.0 17 3721.5 21.5Q3729.0 26 3742.0 30Q3768.0 38 3780.5 59.5Q3793.0 81 3796.0 111Q3800.0 149 3804.0 210.5Q3808.0 272 3811.5 349.0Q3815.0 426 3815.0 508Q3815.0 560 3788.5 583.0Q3762.0 606 3722.0 620Q3715.0 622 3704.0 628.0Q3693.0 634 3693.0 643Q3693.0 652 3701.0 655.0Q3709.0 658 3718.0 658Q3739.0 658 3760.0 657.0Q3781.0 656 3802.5 655.5Q3824.0 655 3847.5 654.0Q3871.0 653 3898.0 653Q3907.0 653 3911.5 649.5Q3916.0 646 3920.0 640Q3936.0 621 3961.0 592.5Q3986.0 564 4015.5 529.5Q4045.0 495 4077.5 457.0Q4110.0 419 4142.5 381.0Q4175.0 343 4205.0 308.5Q4235.0 274 4259.5 245.5Q4284.0 217 4300.0 199Q4304.0 195 4309.5 189.0Q4315.0 183 4319.0 183Q4327.0 183 4328.0 200Q4328.0 226 4328.0 266.5Q4328.0 307 4328.5 356.5Q4329.0 406 4328.5 458.0Q4328.0 510 4327.0 558Q4326.0 583 4306.5 597.5Q4287.0 612 4258.0 618Q4246.0 621 4235.5 625.5Q4225.0 630 4225.0 639Q4225.0 646 4235.5 649.0Q4246.0 652 4255.0 652Q4275.0 652 4288.5 652.0Q4302.0 652 4314.0 651.5Q4326.0 651 4339.0 651Q4361.0 651 4375.0 651.5Q4389.0 652 4405.5 653.0Q4422.0 654 4449.0 654Q4461.0 654 4468.5 650.5Q4476.0 647 4476.0 641Q4476.0 626 4447.0 620Q4412.0 613 4397.5 601.0Q4383.0 589 4382.0 561Q4382.0 536 4381.5 497.0Q4381.0 458 4380.0 412.0Q4379.0 366 4377.5 318.0Q4376.0 270 4375.5 224.0Q4375.0 178 4375.0 141Q4375.0 117 4377.0 92.0Q4379.0 67 4381.5 47.5Q4384.0 28 4384.0 20Q4384.0 -2 4377.0 -10.0Q4370.0 -18 4358.0 -18ZM4526.0 -4Q4517.0 -4 4510.0 -0.5Q4503.0 3 4503.0 9Q4503.0 24 4528.0 29Q4566.0 37 4583.0 51.0Q4600.0 65 4600.0 97V551Q4600.0 584 4586.0 598.0Q4572.0 612 4533.0 620Q4508.0 625 4508.0 641Q4508.0 647 4515.0 650.5Q4522.0 654 4531.0 654Q4555.0 654 4578.0 653.0Q4601.0 652 4622.5 651.0Q4644.0 650 4666.0 650Q4687.0 650 4708.5 651.0Q4730.0 652 4753.0 653.0Q4776.0 654 4800.0 654Q4810.0 654 4816.0 650.5Q4822.0 647 4822.0 640Q4822.0 632 4815.5 627.5Q4809.0 623 4797.0 620Q4757.0 610 4743.0 596.0Q4729.0 582 4729.0 550V98Q4729.0 67 4745.5 53.0Q4762.0 39 4800.0 29Q4813.0 26 4819.5 22.0Q4826.0 18 4826.0 10Q4826.0 3 4820.0 0.0Q4814.0 -3 4804.0 -3Q4780.0 -3 4756.0 -2.0Q4732.0 -1 4709.5 0.0Q4687.0 1 4666.0 1Q4644.0 1 4621.0 0.0Q4598.0 -1 4574.0 -2.5Q4550.0 -4 4526.0 -4ZM5218.0 -14Q5150.0 -14 5088.0 9.5Q5026.0 33 4978.5 76.5Q4931.0 120 4903.5 180.5Q4876.0 241 4876.0 315Q4876.0 383 4898.5 445.5Q4921.0 508 4965.5 557.0Q5010.0 606 5075.5 635.0Q5141.0 664 5227.0 664Q5295.0 664 5356.5 640.5Q5418.0 617 5466.0 573.5Q5514.0 530 5541.5 469.5Q5569.0 409 5569.0 335Q5569.0 268 5546.5 205.0Q5524.0 142 5479.5 93.0Q5435.0 44 5369.5 15.0Q5304.0 -14 5218.0 -14ZM5235.0 30Q5298.0 30 5340.5 62.0Q5383.0 94 5404.5 151.5Q5426.0 209 5426.0 284Q5426.0 348 5413.0 408.0Q5400.0 468 5373.0 515.5Q5346.0 563 5305.5 591.0Q5265.0 619 5209.0 619Q5146.0 619 5103.5 587.0Q5061.0 555 5040.0 498.0Q5019.0 441 5019.0 366Q5019.0 302 5032.0 242.0Q5045.0 182 5071.5 134.0Q5098.0 86 5138.5 58.0Q5179.0 30 5235.0 30ZM6279.0 -18Q6267.0 -18 6239.0 -3.0Q6211.0 12 6182.0 49Q6165.0 68 6140.5 95.5Q6116.0 123 6086.5 156.0Q6057.0 189 6025.0 225.0Q5993.0 261 5961.5 297.0Q5930.0 333 5900.0 366.0Q5870.0 399 5845.0 426.5Q5820.0 454 5803.0 474Q5799.0 479 5794.5 482.5Q5790.0 486 5787.0 486Q5783.0 486 5781.0 479.0Q5779.0 472 5779.0 466Q5779.0 420 5779.5 357.0Q5780.0 294 5780.0 229.0Q5780.0 164 5780.0 109Q5780.0 78 5798.0 58.0Q5816.0 38 5855.0 29Q5867.0 27 5875.5 22.5Q5884.0 18 5884.0 10Q5884.0 3 5876.0 0.0Q5868.0 -3 5858.0 -3Q5831.0 -3 5815.0 -2.0Q5799.0 -1 5786.0 0.0Q5773.0 1 5753.0 1Q5732.0 1 5715.5 0.0Q5699.0 -1 5686.0 -2.5Q5673.0 -4 5661.0 -4Q5651.0 -4 5643.0 -0.5Q5635.0 3 5635.0 9Q5635.0 17 5642.5 21.5Q5650.0 26 5663.0 30Q5689.0 38 5701.5 59.5Q5714.0 81 5717.0 111Q5721.0 149 5725.0 210.5Q5729.0 272 5732.5 349.0Q5736.0 426 5736.0 508Q5736.0 560 5709.5 583.0Q5683.0 606 5643.0 620Q5636.0 622 5625.0 628.0Q5614.0 634 5614.0 643Q5614.0 652 5622.0 655.0Q5630.0 658 5639.0 658Q5660.0 658 5681.0 657.0Q5702.0 656 5723.5 655.5Q5745.0 655 5768.5 654.0Q5792.0 653 5819.0 653Q5828.0 653 5832.5 649.5Q5837.0 646 5841.0 640Q5857.0 621 5882.0 592.5Q5907.0 564 5936.5 529.5Q5966.0 495 5998.5 457.0Q6031.0 419 6063.5 381.0Q6096.0 343 6126.0 308.5Q6156.0 274 6180.5 245.5Q6205.0 217 6221.0 199Q6225.0 195 6230.5 189.0Q6236.0 183 6240.0 183Q6248.0 183 6249.0 200Q6249.0 226 6249.0 266.5Q6249.0 307 6249.5 356.5Q6250.0 406 6249.5 458.0Q6249.0 510 6248.0 558Q6247.0 583 6227.5 597.5Q6208.0 612 6179.0 618Q6167.0 621 6156.5 625.5Q6146.0 630 6146.0 639Q6146.0 646 6156.5 649.0Q6167.0 652 6176.0 652Q6196.0 652 6209.5 652.0Q6223.0 652 6235.0 651.5Q6247.0 651 6260.0 651Q6282.0 651 6296.0 651.5Q6310.0 652 6326.5 653.0Q6343.0 654 6370.0 654Q6382.0 654 6389.5 650.5Q6397.0 647 6397.0 641Q6397.0 626 6368.0 620Q6333.0 613 6318.5 601.0Q6304.0 589 6303.0 561Q6303.0 536 6302.5 497.0Q6302.0 458 6301.0 412.0Q6300.0 366 6298.5 318.0Q6297.0 270 6296.5 224.0Q6296.0 178 6296.0 141Q6296.0 117 6298.0 92.0Q6300.0 67 6302.5 47.5Q6305.0 28 6305.0 20Q6305.0 -2 6298.0 -10.0Q6291.0 -18 6279.0 -18ZM6621.0 -15Q6578.0 -15 6539.5 -4.0Q6501.0 7 6469.0 29Q6463.0 34 6458.0 39.5Q6453.0 45 6450.0 52Q6442.0 77 6439.0 113.5Q6436.0 150 6437.0 184Q6437.0 191 6442.5 194.0Q6448.0 197 6456.0 197Q6464.0 197 6468.5 194.5Q6473.0 192 6475.0 185Q6497.0 110 6539.0 68.0Q6581.0 26 6634.0 26Q6667.0 26 6690.0 41.0Q6713.0 56 6725.0 80.0Q6737.0 104 6737.0 132Q6737.0 167 6724.5 190.0Q6712.0 213 6687.0 231.5Q6662.0 250 6624.0 271Q6583.0 295 6544.0 321.5Q6505.0 348 6480.0 384.5Q6455.0 421 6455.0 475Q6455.0 531 6483.5 573.5Q6512.0 616 6563.0 640.0Q6614.0 664 6681.0 664Q6718.0 664 6750.0 656.0Q6782.0 648 6801.0 640Q6812.0 636 6817.5 630.0Q6823.0 624 6826.0 611Q6832.0 590 6836.5 561.0Q6841.0 532 6841.0 500Q6841.0 488 6823.0 488Q6815.0 488 6807.0 492.0Q6799.0 496 6797.0 503Q6779.0 561 6747.5 591.0Q6716.0 621 6670.0 621Q6639.0 621 6617.0 610.5Q6595.0 600 6582.0 578.5Q6569.0 557 6569.0 523Q6569.0 497 6586.5 475.0Q6604.0 453 6635.5 432.0Q6667.0 411 6706.0 386Q6754.0 358 6786.5 329.5Q6819.0 301 6836.0 266.5Q6853.0 232 6853.0 185Q6853.0 119 6824.0 74.5Q6795.0 30 6743.0 7.5Q6691.0 -15 6621.0 -15ZM6939.0 -4Q6930.0 -4 6923.0 0.0Q6916.0 4 6916.0 10Q6916.0 24 6941.0 29Q6977.0 37 6989.0 51.0Q7001.0 65 7001.0 98V551Q7001.0 584 6991.0 598.0Q6981.0 612 6944.0 620Q6919.0 625 6919.0 640Q6919.0 647 6925.5 650.5Q6932.0 654 6942.0 654Q6966.0 654 6987.0 653.0Q7008.0 652 7028.0 651.0Q7048.0 650 7068.0 650Q7088.0 650 7109.5 651.0Q7131.0 652 7154.0 653.0Q7177.0 654 7200.0 654Q7222.0 654 7222.0 639Q7222.0 631 7216.0 627.0Q7210.0 623 7197.0 620Q7158.0 610 7144.5 595.0Q7131.0 580 7131.0 550V364Q7131.0 357 7135.5 354.5Q7140.0 352 7146.0 352H7445.0Q7456.0 352 7456.0 366V551Q7456.0 580 7443.0 595.0Q7430.0 610 7391.0 620Q7378.0 623 7371.5 627.0Q7365.0 631 7365.0 639Q7365.0 654 7387.0 654Q7411.0 654 7435.0 653.0Q7459.0 652 7481.5 651.0Q7504.0 650 7525.0 650Q7544.0 650 7562.0 651.0Q7580.0 652 7600.5 653.0Q7621.0 654 7645.0 654Q7654.0 654 7661.0 650.5Q7668.0 647 7668.0 640Q7668.0 625 7642.0 620Q7607.0 612 7596.5 597.0Q7586.0 582 7586.0 551V98Q7586.0 65 7597.0 51.0Q7608.0 37 7644.0 29Q7669.0 24 7669.0 10Q7669.0 4 7662.0 0.0Q7655.0 -4 7646.0 -4Q7623.0 -4 7602.0 -2.5Q7581.0 -1 7560.5 0.0Q7540.0 1 7520.0 1Q7500.0 1 7478.0 0.0Q7456.0 -1 7433.0 -2.0Q7410.0 -3 7386.0 -3Q7377.0 -3 7371.0 0.5Q7365.0 4 7365.0 11Q7365.0 19 7371.0 22.5Q7377.0 26 7389.0 29Q7425.0 38 7440.5 53.0Q7456.0 68 7456.0 98V288Q7456.0 294 7454.5 299.0Q7453.0 304 7446.0 304H7142.0Q7131.0 304 7131.0 289V102Q7131.0 72 7148.5 55.0Q7166.0 38 7202.0 29Q7215.0 26 7221.0 22.5Q7227.0 19 7227.0 11Q7227.0 4 7221.5 0.5Q7216.0 -3 7205.0 -3Q7182.0 -3 7158.0 -2.0Q7134.0 -1 7111.5 0.0Q7089.0 1 7068.0 1Q7047.0 1 7026.0 0.0Q7005.0 -1 6983.0 -2.5Q6961.0 -4 6939.0 -4ZM7735.0 -4Q7726.0 -4 7719.0 -0.5Q7712.0 3 7712.0 9Q7712.0 24 7737.0 29Q7775.0 37 7792.0 51.0Q7809.0 65 7809.0 97V551Q7809.0 584 7795.0 598.0Q7781.0 612 7742.0 620Q7717.0 625 7717.0 641Q7717.0 647 7724.0 650.5Q7731.0 654 7740.0 654Q7764.0 654 7787.0 653.0Q7810.0 652 7831.5 651.0Q7853.0 650 7875.0 650Q7896.0 650 7917.5 651.0Q7939.0 652 7962.0 653.0Q7985.0 654 8009.0 654Q8019.0 654 8025.0 650.5Q8031.0 647 8031.0 640Q8031.0 632 8024.5 627.5Q8018.0 623 8006.0 620Q7966.0 610 7952.0 596.0Q7938.0 582 7938.0 550V98Q7938.0 67 7954.5 53.0Q7971.0 39 8009.0 29Q8022.0 26 8028.5 22.0Q8035.0 18 8035.0 10Q8035.0 3 8029.0 0.0Q8023.0 -3 8013.0 -3Q7989.0 -3 7965.0 -2.0Q7941.0 -1 7918.5 0.0Q7896.0 1 7875.0 1Q7853.0 1 7830.0 0.0Q7807.0 -1 7783.0 -2.5Q7759.0 -4 7735.0 -4ZM8093.0 -4Q8084.0 -4 8077.0 -0.5Q8070.0 3 8070.0 9Q8070.0 24 8095.0 29Q8133.0 37 8149.0 51.0Q8165.0 65 8165.0 98V538Q8165.0 576 8152.5 594.0Q8140.0 612 8104.0 620Q8090.0 623 8084.0 628.5Q8078.0 634 8078.0 640Q8078.0 647 8084.5 650.5Q8091.0 654 8102.0 654Q8126.0 654 8146.5 653.5Q8167.0 653 8186.0 652.0Q8205.0 651 8225.0 651Q8247.0 651 8266.5 653.0Q8286.0 655 8306.5 657.0Q8327.0 659 8354.0 659Q8473.0 659 8544.0 609.0Q8615.0 559 8615.0 471Q8615.0 409 8589.5 356.5Q8564.0 304 8511.5 272.0Q8459.0 240 8379.0 240Q8354.0 240 8341.0 247.5Q8328.0 255 8328.0 264Q8328.0 270 8334.5 274.5Q8341.0 279 8346.0 279Q8355.0 279 8363.5 277.5Q8372.0 276 8389.0 276Q8436.0 276 8460.5 324.0Q8485.0 372 8485.0 452Q8485.0 540 8449.5 580.5Q8414.0 621 8354.0 621Q8326.0 621 8310.5 609.5Q8295.0 598 8295.0 573L8294.0 104Q8294.0 71 8310.5 54.5Q8327.0 38 8367.0 29Q8380.0 27 8386.0 22.5Q8392.0 18 8392.0 10Q8392.0 3 8386.5 0.0Q8381.0 -3 8370.0 -3Q8347.0 -3 8323.0 -1.5Q8299.0 0 8276.5 1.0Q8254.0 2 8234.0 2Q8212.0 2 8188.5 1.0Q8165.0 0 8141.0 -2.0Q8117.0 -4 8093.0 -4Z" transform="matrix(0.017520 0 0 -0.017520 74.23 389.68)" fill="#15130f"/></svg>