<svg xmlns="http://www.w3.org/2000/svg" viewBox="0 0 300 446"><rect width="300" height="446" fill="#f4ecd8"/><rect x="20.0" y="25.5" width="260" height="395" rx="20.3" fill="#f4ecd8" stroke="#15130f" stroke-width="1.5"/><rect x="36.9" y="42.4" width="226.2" height="354.7" fill="none" stroke="#15130f" stroke-width="0.7"/><g fill="none" stroke="#15130f" stroke-width="0.65" stroke-opacity="0.72" stroke-linecap="round" stroke-linejoin="round"><line x1="36.9" y1="281.5" x2="263.1" y2="281.5"/></g><path d="M36.9,370.6 H263.1 V397.1 H36.9 Z" fill="#d7e8c4"/><g fill="none" stroke="#15130f" stroke-width="0.8"><line x1="36.9" y1="370.6" x2="263.1" y2="370.6"/><line x1="61.6" y1="370.6" x2="61.6" y2="397.1"/><line x1="238.4" y1="370.6" x2="238.4" y2="397.1"/></g><rect x="141.4" y="34.4" width="17.2" height="19.0" fill="#d7e8c4" stroke="#15130f" stroke-width="0.8"/><path d="M754.0 1055H388.0Q323.0 1055 311.0 963Q305.0 912 298.0 870Q294.0 844 294.0 822Q294.0 792 325.0 792Q335.0 792 350.0 795Q414.0 806 475.0 806Q664.0 806 775.5 709.5Q887.0 613 887.0 449Q887.0 250 738.0 111.5Q589.0 -27 375.0 -27Q285.0 -27 176.5 10.0Q68.0 47 68.0 78Q68.0 105 94.0 105Q101.0 105 112.0 101Q255.0 47 343.0 47Q489.0 47 590.5 139.0Q692.0 231 692.0 365Q692.0 477 611.5 550.0Q531.0 623 407.0 623Q373.0 623 299.0 612Q255.0 606 240.0 606Q196.0 606 196.0 658Q196.0 671 205.0 708Q212.0 739 227.0 858Q234.0 917 245.0 993L264.0 1132Q277.0 1226 285.5 1240.0Q294.0 1254 337.0 1254H727.0Q767.0 1254 797.0 1284L837.0 1323Q845.0 1331 858.0 1331Q875.0 1331 875.0 1315Q875.0 1301 869.0 1285L847.0 1208L830.0 1148Q809.0 1075 801.0 1065.0Q793.0 1055 754.0 1055Z" transform="matrix(0.006858 0 0 -0.006858 146.73 49.15)" fill="#15130f"/><path d="M101.0 47Q181.0 63 244.0 113Q309.0 164 358.0 252Q477.0 463 477.0 701Q477.0 941 358.0 1151Q310.0 1237 245.0 1288Q180.0 1338 100.0 1353Q188.0 1394 291.0 1405Q333.0 1410 377.0 1410Q670.0 1410 848.5 1205.0Q1027.0 1000 1027.0 699Q1027.0 399 847.0 194.5Q667.0 -10 377.0 -10Q332.0 -10 290.0 -5Q188.0 7 101.0 47ZM498.0 1241Q677.0 1021 677.0 699Q677.0 378 497.0 159Q468.0 124 436.0 94Q607.0 118 708.0 286Q827.0 481 827.0 701Q827.0 923 708.0 1117Q607.0 1281 438.0 1306Q470.0 1276 498.0 1241Z" transform="matrix(0.009268 0 0 -0.009268 44.03 390.35)" fill="#15130f"/><path d="M250.0 439Q250.0 348 278.0 263.5Q306.0 179 358.5 134.0Q411.0 89 467.0 89Q524.0 89 576.5 134.0Q629.0 179 657.0 263.5Q685.0 348 685.0 439Q685.0 530 657.0 614.5Q629.0 699 576.5 744.0Q524.0 789 467.0 789Q411.0 789 358.5 744.0Q306.0 699 278.0 614.5Q250.0 530 250.0 439ZM831.0 665Q885.0 556 885.0 439Q885.0 322 831.0 213.5Q777.0 105 676.5 47.0Q576.0 -11 467.0 -11Q359.0 -11 258.5 47.0Q158.0 105 104.0 213.5Q50.0 322 50.0 439Q50.0 556 104.0 664.5Q158.0 773 258.5 831.0Q359.0 889 467.0 889Q503.0 889 537.0 883V900Q537.0 1115 681.0 1262.5Q825.0 1410 1118.0 1410Q1411.0 1410 1555.5 1262.5Q1700.0 1115 1700.0 900Q1700.0 684 1389.0 330.0Q1078.0 -24 1078.0 -204Q1078.0 -303 1125.5 -356.5Q1173.0 -410 1248.0 -410Q1356.0 -410 1446.5 -374.0Q1537.0 -338 1581.0 -266.5Q1625.0 -195 1651.0 -51H1688.0V-510H1651.0Q1644.0 -464 1629.5 -449.0Q1615.0 -434 1590.0 -434Q1554.0 -434 1450.0 -472.0Q1346.0 -510 1227.0 -510Q1089.0 -510 994.5 -400.0Q900.0 -290 900.0 -128Q900.0 102 1200.0 452.5Q1500.0 803 1500.0 950Q1500.0 1100 1414.0 1205.0Q1328.0 1310 1118.0 1310Q905.0 1310 821.0 1205.0Q737.0 1100 737.0 900Q737.0 836 768.0 782.5Q799.0 729 831.0 665Z" transform="matrix(0.009268 0 0 -0.009268 242.64 388.04)" fill="#15130f"/><path d="M24.0 -5Q12.0 -5 4.0 -1.5Q-4.0 2 -4.0 10Q-4.0 19 3.5 24.0Q11.0 29 23.0 33Q52.0 41 73.5 57.5Q95.0 74 108.0 103Q133.0 162 156.0 216.5Q179.0 271 200.0 325.0Q221.0 379 242.5 435.0Q264.0 491 286.0 553Q297.0 584 301.0 601.0Q305.0 618 308.0 626Q323.0 630 336.0 634.0Q349.0 638 365.0 644Q379.0 651 389.0 662.0Q399.0 673 404.0 679Q407.0 681 410.0 681.5Q413.0 682 416.0 677Q419.0 671 421.0 665.0Q423.0 659 425.0 652Q447.0 581 470.5 508.5Q494.0 436 517.0 365.5Q540.0 295 561.5 230.5Q583.0 166 601.0 112Q610.0 85 623.5 69.0Q637.0 53 653.5 44.5Q670.0 36 690.0 31Q703.0 28 710.0 23.0Q717.0 18 717.0 9Q717.0 3 710.5 0.0Q704.0 -3 694.0 -3Q676.0 -3 648.5 -2.0Q621.0 -1 592.0 0.5Q563.0 2 540.0 2Q520.0 2 495.5 1.0Q471.0 0 446.5 -1.0Q422.0 -2 405.0 -2Q395.0 -2 387.5 1.5Q380.0 5 380.0 12Q380.0 20 388.0 25.5Q396.0 31 407.0 33Q443.0 39 459.0 51.5Q475.0 64 471.0 88Q468.0 105 462.0 128.5Q456.0 152 449.5 177.5Q443.0 203 436.0 224Q434.0 232 430.0 235.5Q426.0 239 415.0 239H235.0Q228.0 239 224.0 234.5Q220.0 230 218.0 221Q214.0 208 208.5 191.5Q203.0 175 197.5 157.5Q192.0 140 187.5 125.0Q183.0 110 181.0 99Q176.0 72 190.5 56.5Q205.0 41 241.0 32Q268.0 25 268.0 11Q268.0 5 261.5 1.5Q255.0 -2 243.0 -2Q220.0 -2 195.0 -0.5Q170.0 1 140.0 1Q110.0 1 81.5 -2.0Q53.0 -5 24.0 -5ZM262.0 285H401.0Q415.0 285 415.0 291Q415.0 294 414.5 296.0Q414.0 298 413.0 302L343.0 533Q339.0 547 336.0 547Q334.0 547 329.0 534L245.0 302Q243.0 297 243.0 294Q243.0 289 248.5 287.0Q254.0 285 262.0 285ZM753.0 -4Q744.0 -4 737.0 -0.5Q730.0 3 730.0 9Q730.0 24 755.0 29Q793.0 37 809.0 51.0Q825.0 65 825.0 98V538Q825.0 576 812.5 594.0Q800.0 612 764.0 620Q750.0 623 744.0 628.5Q738.0 634 738.0 640Q738.0 647 744.5 650.5Q751.0 654 762.0 654Q786.0 654 806.5 653.5Q827.0 653 846.0 652.0Q865.0 651 885.0 651Q907.0 651 926.5 653.0Q946.0 655 966.5 657.0Q987.0 659 1014.0 659Q1133.0 659 1204.0 609.0Q1275.0 559 1275.0 471Q1275.0 409 1249.5 356.5Q1224.0 304 1171.5 272.0Q1119.0 240 1039.0 240Q1014.0 240 1001.0 247.5Q988.0 255 988.0 264Q988.0 270 994.5 274.5Q1001.0 279 1006.0 279Q1015.0 279 1023.5 277.5Q1032.0 276 1049.0 276Q1096.0 276 1120.5 324.0Q1145.0 372 1145.0 452Q1145.0 540 1109.5 580.5Q1074.0 621 1014.0 621Q986.0 621 970.5 609.5Q955.0 598 955.0 573L954.0 104Q954.0 71 970.5 54.5Q987.0 38 1027.0 29Q1040.0 27 1046.0 22.5Q1052.0 18 1052.0 10Q1052.0 3 1046.5 0.0Q1041.0 -3 1030.0 -3Q1007.0 -3 983.0 -1.5Q959.0 0 936.5 1.0Q914.0 2 894.0 2Q872.0 2 848.5 1.0Q825.0 0 801.0 -2.0Q777.0 -4 753.0 -4ZM1342.0 -4Q1333.0 -4 1326.0 -0.5Q1319.0 3 1319.0 9Q1319.0 24 1344.0 29Q1382.0 37 1398.0 51.0Q1414.0 65 1414.0 98V538Q1414.0 576 1401.5 594.0Q1389.0 612 1353.0 620Q1339.0 623 1333.0 628.5Q1327.0 634 1327.0 640Q1327.0 647 1333.5 650.5Q1340.0 654 1351.0 654Q1375.0 654 1395.5 653.5Q1416.0 653 1435.0 652.0Q1454.0 651 1474.0 651Q1496.0 651 1515.5 653.0Q1535.0 655 1555.5 657.0Q1576.0 659 1603.0 659Q1722.0 659 1793.0 609.0Q1864.0 559 1864.0 471Q1864.0 409 1838.5 356.5Q1813.0 304 1760.5 272.0Q1708.0 240 1628.0 240Q1603.0 240 1590.0 247.5Q1577.0 255 1577.0 264Q1577.0 270 1583.5 274.5Q1590.0 279 1595.0 279Q1604.0 279 1612.5 277.5Q1621.0 276 1638.0 276Q1685.0 276 1709.5 324.0Q1734.0 372 1734.0 452Q1734.0 540 1698.5 580.5Q1663.0 621 1603.0 621Q1575.0 621 1559.5 609.5Q1544.0 598 1544.0 573L1543.0 104Q1543.0 71 1559.5 54.5Q1576.0 38 1616.0 29Q1629.0 27 1635.0 22.5Q1641.0 18 1641.0 10Q1641.0 3 1635.5 0.0Q1630.0 -3 1619.0 -3Q1596.0 -3 1572.0 -1.5Q1548.0 0 1525.5 1.0Q1503.0 2 1483.0 2Q1461.0 2 1437.5 1.0Q1414.0 0 1390.0 -2.0Q1366.0 -4 1342.0 -4ZM2531.0 -21Q2488.0 -21 2456.0 -11.5Q2424.0 -2 2401.0 16.0Q2378.0 34 2359.0 58Q2337.0 88 2316.0 116.5Q2295.0 145 2273.5 179.5Q2252.0 214 2226.0 262Q2213.0 285 2193.0 296Q2180.0 303 2166.5 306.0Q2153.0 309 2144.0 309Q2138.0 310 2135.0 304.0Q2132.0 298 2132.0 289V103Q2132.0 72 2148.5 55.0Q2165.0 38 2205.0 29Q2218.0 27 2224.0 22.5Q2230.0 18 2230.0 10Q2230.0 3 2224.5 0.0Q2219.0 -3 2208.0 -3Q2185.0 -3 2161.0 -1.5Q2137.0 0 2114.5 1.0Q2092.0 2 2072.0 2Q2050.0 2 2026.5 1.0Q2003.0 0 1979.0 -2.0Q1955.0 -4 1931.0 -4Q1922.0 -4 1915.0 -0.5Q1908.0 3 1908.0 9Q1908.0 24 1933.0 29Q1971.0 37 1987.0 51.0Q2003.0 65 2003.0 98V540Q2003.0 569 1998.5 584.5Q1994.0 600 1981.0 608.0Q1968.0 616 1942.0 620Q1928.0 622 1922.0 628.0Q1916.0 634 1916.0 640Q1916.0 647 1922.5 650.5Q1929.0 654 1940.0 654Q1970.0 654 1988.0 653.0Q2006.0 652 2022.5 650.5Q2039.0 649 2062.0 649Q2084.0 649 2101.0 651.0Q2118.0 653 2139.0 655.0Q2160.0 657 2193.0 657Q2308.0 657 2369.0 617.0Q2430.0 577 2430.0 495Q2430.0 450 2411.0 418.5Q2392.0 387 2363.5 367.0Q2335.0 347 2305.0 336Q2301.0 335 2301.5 331.0Q2302.0 327 2305.0 324Q2335.0 278 2363.5 236.5Q2392.0 195 2423.5 158.0Q2455.0 121 2492.0 87Q2523.0 58 2555.5 52.5Q2588.0 47 2623.0 47Q2638.0 47 2638.0 32Q2638.0 12 2623.0 0.5Q2608.0 -11 2583.5 -16.0Q2559.0 -21 2531.0 -21ZM2175.0 338Q2216.0 338 2243.5 356.5Q2271.0 375 2285.5 406.0Q2300.0 437 2300.0 475Q2300.0 520 2289.0 551.5Q2278.0 583 2251.5 600.5Q2225.0 618 2179.0 618Q2153.0 618 2143.5 599.5Q2134.0 581 2133.0 525Q2132.0 502 2132.0 464.5Q2132.0 427 2132.0 375Q2132.0 353 2143.5 345.5Q2155.0 338 2175.0 338ZM2682.0 -5Q2671.0 -5 2664.5 -1.0Q2658.0 3 2658.0 9Q2658.0 22 2684.0 28Q2720.0 37 2735.5 50.5Q2751.0 64 2751.0 97V550Q2751.0 584 2737.5 598.0Q2724.0 612 2687.0 620Q2673.0 623 2667.0 628.5Q2661.0 634 2661.0 640Q2661.0 647 2667.5 650.5Q2674.0 654 2685.0 654Q2714.0 654 2740.5 653.0Q2767.0 652 2792.0 651.0Q2817.0 650 2844.0 650Q2890.0 650 2941.5 651.0Q2993.0 652 3034.0 652Q3067.0 653 3088.5 655.0Q3110.0 657 3114.0 657Q3121.0 657 3128.5 654.0Q3136.0 651 3137.0 642Q3141.0 609 3147.0 577.0Q3153.0 545 3153.0 521Q3153.0 512 3148.5 507.5Q3144.0 503 3139.0 503Q3134.0 503 3130.0 506.5Q3126.0 510 3123.0 517Q3115.0 540 3108.0 557.0Q3101.0 574 3092.0 583Q3079.0 597 3062.0 605.0Q3045.0 613 3021.0 613H2928.0Q2910.0 613 2895.0 602.5Q2880.0 592 2880.0 573V377Q2880.0 366 2886.5 360.0Q2893.0 354 2902.0 354H2994.0Q3021.0 354 3032.5 369.0Q3044.0 384 3052.0 410Q3059.0 430 3071.0 430Q3076.0 430 3080.0 424.5Q3084.0 419 3084.0 410Q3083.0 400 3082.0 386.0Q3081.0 372 3080.5 358.0Q3080.0 344 3080.0 333Q3080.0 321 3080.5 306.0Q3081.0 291 3081.5 276.5Q3082.0 262 3083.0 252Q3084.0 241 3081.5 235.0Q3079.0 229 3073.0 229Q3057.0 229 3050.0 257Q3042.0 285 3031.0 299.0Q3020.0 313 3001.0 313H2907.0Q2894.0 313 2887.0 308.0Q2880.0 303 2880.0 289V99Q2880.0 66 2894.0 53.0Q2908.0 40 2937.0 40H3019.0Q3044.0 40 3064.5 45.0Q3085.0 50 3100.0 61Q3117.0 73 3130.5 93.5Q3144.0 114 3157.0 139Q3161.0 147 3165.0 149.5Q3169.0 152 3175.0 152Q3180.0 151 3182.5 146.0Q3185.0 141 3185.0 135Q3185.0 121 3180.0 99.0Q3175.0 77 3167.5 53.5Q3160.0 30 3154.0 10Q3151.0 3 3146.0 -0.5Q3141.0 -4 3134.0 -4Q3110.0 -4 3072.5 -3.5Q3035.0 -3 2991.0 -2.0Q2947.0 -1 2901.0 -0.5Q2855.0 0 2813.0 0Q2792.0 0 2770.5 -1.0Q2749.0 -2 2727.0 -3.5Q2705.0 -5 2682.0 -5ZM3609.0 -14Q3534.0 -14 3467.0 9.5Q3400.0 33 3348.5 77.0Q3297.0 121 3267.5 182.5Q3238.0 244 3238.0 319Q3238.0 389 3267.0 451.0Q3296.0 513 3349.0 561.0Q3402.0 609 3475.5 636.5Q3549.0 664 3637.0 664Q3671.0 664 3701.5 659.5Q3732.0 655 3761.0 648.5Q3790.0 642 3818.0 632Q3829.0 628 3835.5 621.0Q3842.0 614 3843.0 602Q3847.0 572 3849.0 542.5Q3851.0 513 3851.0 484Q3852.0 474 3844.0 469.5Q3836.0 465 3827.0 468.5Q3818.0 472 3814.0 483Q3806.0 511 3795.5 535.5Q3785.0 560 3764.0 577Q3741.0 596 3706.0 607.5Q3671.0 619 3624.0 619Q3570.0 619 3526.0 597.0Q3482.0 575 3450.5 536.0Q3419.0 497 3402.0 448.0Q3385.0 399 3385.0 345Q3385.0 281 3400.5 224.0Q3416.0 167 3447.5 123.5Q3479.0 80 3524.0 55.5Q3569.0 31 3627.0 31Q3701.0 31 3747.0 63.0Q3793.0 95 3825.0 158Q3833.0 174 3847.0 173.5Q3861.0 173 3861.0 157Q3861.0 145 3858.0 127.0Q3855.0 109 3849.5 88.5Q3844.0 68 3837.0 48Q3833.0 36 3827.0 30.0Q3821.0 24 3809.0 19Q3771.0 3 3719.5 -5.5Q3668.0 -14 3609.0 -14ZM3953.0 -4Q3944.0 -4 3937.0 -0.5Q3930.0 3 3930.0 9Q3930.0 24 3955.0 29Q3993.0 37 4010.0 51.0Q4027.0 65 4027.0 97V551Q4027.0 584 4013.0 598.0Q3999.0 612 3960.0 620Q3935.0 625 3935.0 641Q3935.0 647 3942.0 650.5Q3949.0 654 3958.0 654Q3982.0 654 4005.0 653.0Q4028.0 652 4049.5 651.0Q4071.0 650 4093.0 650Q4114.0 650 4135.5 651.0Q4157.0 652 4180.0 653.0Q4203.0 654 4227.0 654Q4237.0 654 4243.0 650.5Q4249.0 647 4249.0 640Q4249.0 632 4242.5 627.5Q4236.0 623 4224.0 620Q4184.0 610 4170.0 596.0Q4156.0 582 4156.0 550V98Q4156.0 67 4172.5 53.0Q4189.0 39 4227.0 29Q4240.0 26 4246.5 22.0Q4253.0 18 4253.0 10Q4253.0 3 4247.0 0.0Q4241.0 -3 4231.0 -3Q4207.0 -3 4183.0 -2.0Q4159.0 -1 4136.5 0.0Q4114.0 1 4093.0 1Q4071.0 1 4048.0 0.0Q4025.0 -1 4001.0 -2.5Q3977.0 -4 3953.0 -4ZM4293.0 -5Q4281.0 -5 4273.0 -1.5Q4265.0 2 4265.0 10Q4265.0 19 4272.5 24.0Q4280.0 29 4292.0 33Q4321.0 41 4342.5 57.5Q4364.0 74 4377.0 103Q4402.0 162 4425.0 216.5Q4448.0 271 4469.0 325.0Q4490.0 379 4511.5 435.0Q4533.0 491 4555.0 553Q4566.0 584 4570.0 601.0Q4574.0 618 4577.0 626Q4592.0 630 4605.0 634.0Q4618.0 638 4634.0 644Q4648.0 651 4658.0 662.0Q4668.0 673 4673.0 679Q4676.0 681 4679.0 681.5Q4682.0 682 4685.0 677Q4688.0 671 4690.0 665.0Q4692.0 659 4694.0 652Q4716.0 581 4739.5 508.5Q4763.0 436 4786.0 365.5Q4809.0 295 4830.5 230.5Q4852.0 166 4870.0 112Q4879.0 85 4892.5 69.0Q4906.0 53 4922.5 44.5Q4939.0 36 4959.0 31Q4972.0 28 4979.0 23.0Q4986.0 18 4986.0 9Q4986.0 3 4979.5 0.0Q4973.0 -3 4963.0 -3Q4945.0 -3 4917.5 -2.0Q4890.0 -1 4861.0 0.5Q4832.0 2 4809.0 2Q4789.0 2 4764.5 1.0Q4740.0 0 4715.5 -1.0Q4691.0 -2 4674.0 -2Q4664.0 -2 4656.5 1.5Q4649.0 5 4649.0 12Q4649.0 20 4657.0 25.5Q4665.0 31 4676.0 33Q4712.0 39 4728.0 51.5Q4744.0 64 4740.0 88Q4737.0 105 4731.0 128.5Q4725.0 152 4718.5 177.5Q4712.0 203 4705.0 224Q4703.0 232 4699.0 235.5Q4695.0 239 4684.0 239H4504.0Q4497.0 239 4493.0 234.5Q4489.0 230 4487.0 221Q4483.0 208 4477.5 191.5Q4472.0 175 4466.5 157.5Q4461.0 140 4456.5 125.0Q4452.0 110 4450.0 99Q4445.0 72 4459.5 56.5Q4474.0 41 4510.0 32Q4537.0 25 4537.0 11Q4537.0 5 4530.5 1.5Q4524.0 -2 4512.0 -2Q4489.0 -2 4464.0 -0.5Q4439.0 1 4409.0 1Q4379.0 1 4350.5 -2.0Q4322.0 -5 4293.0 -5ZM4531.0 285H4670.0Q4684.0 285 4684.0 291Q4684.0 294 4683.5 296.0Q4683.0 298 4682.0 302L4612.0 533Q4608.0 547 4605.0 547Q4603.0 547 4598.0 534L4514.0 302Q4512.0 297 4512.0 294Q4512.0 289 4517.5 287.0Q4523.0 285 4531.0 285ZM5189.0 -4Q5179.0 -4 5171.5 -0.5Q5164.0 3 5164.0 9Q5164.0 17 5171.0 22.0Q5178.0 27 5191.0 29Q5229.0 37 5247.0 51.5Q5265.0 66 5265.0 99V504Q5265.0 545 5263.0 566.0Q5261.0 587 5257.5 594.5Q5254.0 602 5247.0 603Q5237.0 607 5222.0 608.0Q5207.0 609 5193.0 609H5162.0Q5133.0 609 5106.0 595.5Q5079.0 582 5064.0 559Q5060.0 553 5051.5 542.0Q5043.0 531 5033.5 522.0Q5024.0 513 5014.0 513Q5007.0 513 5004.5 518.0Q5002.0 523 5002.0 529Q5002.0 541 5008.0 553Q5025.0 587 5033.5 612.5Q5042.0 638 5045.0 673Q5047.0 688 5053.5 692.5Q5060.0 697 5067.0 697Q5073.0 697 5081.5 684.5Q5090.0 672 5097.0 664Q5106.0 655 5129.0 650.5Q5152.0 646 5168.0 646L5537.0 647Q5565.0 647 5584.0 651.5Q5603.0 656 5614.0 661Q5629.0 670 5638.0 679.5Q5647.0 689 5659.0 689Q5664.0 689 5666.5 683.5Q5669.0 678 5669.0 670Q5669.0 665 5668.0 658.5Q5667.0 652 5666.0 647Q5662.0 628 5658.0 613.5Q5654.0 599 5651.5 586.5Q5649.0 574 5649.0 558V541Q5649.0 527 5645.0 517.0Q5641.0 507 5632.0 507Q5624.0 507 5618.5 516.5Q5613.0 526 5607.0 546Q5598.0 578 5577.0 593.5Q5556.0 609 5511.0 609H5443.0Q5424.0 609 5413.5 602.0Q5403.0 595 5398.5 571.5Q5394.0 548 5394.0 499V100Q5394.0 68 5412.0 53.5Q5430.0 39 5469.0 29Q5481.0 26 5488.0 22.0Q5495.0 18 5495.0 10Q5495.0 3 5488.5 0.0Q5482.0 -3 5472.0 -3Q5448.0 -3 5424.0 -2.0Q5400.0 -1 5376.5 0.0Q5353.0 1 5331.0 1Q5309.0 1 5285.5 0.0Q5262.0 -1 5237.5 -2.5Q5213.0 -4 5189.0 -4ZM5707.0 -4Q5698.0 -4 5691.0 -0.5Q5684.0 3 5684.0 9Q5684.0 24 5709.0 29Q5747.0 37 5764.0 51.0Q5781.0 65 5781.0 97V551Q5781.0 584 5767.0 598.0Q5753.0 612 5714.0 620Q5689.0 625 5689.0 641Q5689.0 647 5696.0 650.5Q5703.0 654 5712.0 654Q5736.0 654 5759.0 653.0Q5782.0 652 5803.5 651.0Q5825.0 650 5847.0 650Q5868.0 650 5889.5 651.0Q5911.0 652 5934.0 653.0Q5957.0 654 5981.0 654Q5991.0 654 5997.0 650.5Q6003.0 647 6003.0 640Q6003.0 632 5996.5 627.5Q5990.0 623 5978.0 620Q5938.0 610 5924.0 596.0Q5910.0 582 5910.0 550V98Q5910.0 67 5926.5 53.0Q5943.0 39 5981.0 29Q5994.0 26 6000.5 22.0Q6007.0 18 6007.0 10Q6007.0 3 6001.0 0.0Q5995.0 -3 5985.0 -3Q5961.0 -3 5937.0 -2.0Q5913.0 -1 5890.5 0.0Q5868.0 1 5847.0 1Q5825.0 1 5802.0 0.0Q5779.0 -1 5755.0 -2.5Q5731.0 -4 5707.0 -4ZM6399.0 -14Q6331.0 -14 6269.0 9.5Q6207.0 33 6159.5 76.5Q6112.0 120 6084.5 180.5Q6057.0 241 6057.0 315Q6057.0 383 6079.5 445.5Q6102.0 508 6146.5 557.0Q6191.0 606 6256.5 635.0Q6322.0 664 6408.0 664Q6476.0 664 6537.5 640.5Q6599.0 617 6647.0 573.5Q6695.0 530 6722.5 469.5Q6750.0 409 6750.0 335Q6750.0 268 6727.5 205.0Q6705.0 142 6660.5 93.0Q6616.0 44 6550.5 15.0Q6485.0 -14 6399.0 -14ZM6416.0 30Q6479.0 30 6521.5 62.0Q6564.0 94 6585.5 151.5Q6607.0 209 6607.0 284Q6607.0 348 6594.0 408.0Q6581.0 468 6554.0 515.5Q6527.0 563 6486.5 591.0Q6446.0 619 6390.0 619Q6327.0 619 6284.5 587.0Q6242.0 555 6221.0 498.0Q6200.0 441 6200.0 366Q6200.0 302 6213.0 242.0Q6226.0 182 6252.5 134.0Q6279.0 86 6319.5 58.0Q6360.0 30 6416.0 30ZM7460.0 -18Q7448.0 -18 7420.0 -3.0Q7392.0 12 7363.0 49Q7346.0 68 7321.5 95.5Q7297.0 123 7267.5 156.0Q7238.0 189 7206.0 225.0Q7174.0 261 7142.5 297.0Q7111.0 333 7081.0 366.0Q7051.0 399 7026.0 426.5Q7001.0 454 6984.0 474Q6980.0 479 6975.5 482.5Q6971.0 486 6968.0 486Q6964.0 486 6962.0 479.0Q6960.0 472 6960.0 466Q6960.0 420 6960.5 357.0Q6961.0 294 6961.0 229.0Q6961.0 164 6961.0 109Q6961.0 78 6979.0 58.0Q6997.0 38 7036.0 29Q7048.0 27 7056.5 22.5Q7065.0 18 7065.0 10Q7065.0 3 7057.0 0.0Q7049.0 -3 7039.0 -3Q7012.0 -3 6996.0 -2.0Q6980.0 -1 6967.0 0.0Q6954.0 1 6934.0 1Q6913.0 1 6896.5 0.0Q6880.0 -1 6867.0 -2.5Q6854.0 -4 6842.0 -4Q6832.0 -4 6824.0 -0.5Q6816.0 3 6816.0 9Q6816.0 17 6823.5 21.5Q6831.0 26 6844.0 30Q6870.0 38 6882.5 59.5Q6895.0 81 6898.0 111Q6902.0 149 6906.0 210.5Q6910.0 272 6913.5 349.0Q6917.0 426 6917.0 508Q6917.0 560 6890.5 583.0Q6864.0 606 6824.0 620Q6817.0 622 6806.0 628.0Q6795.0 634 6795.0 643Q6795.0 652 6803.0 655.0Q6811.0 658 6820.0 658Q6841.0 658 6862.0 657.0Q6883.0 656 6904.5 655.5Q6926.0 655 6949.5 654.0Q6973.0 653 7000.0 653Q7009.0 653 7013.5 649.5Q7018.0 646 7022.0 640Q7038.0 621 7063.0 592.5Q7088.0 564 7117.5 529.5Q7147.0 495 7179.5 457.0Q7212.0 419 7244.5 381.0Q7277.0 343 7307.0 308.5Q7337.0 274 7361.5 245.5Q7386.0 217 7402.0 199Q7406.0 195 7411.5 189.0Q7417.0 183 7421.0 183Q7429.0 183 7430.0 200Q7430.0 226 7430.0 266.5Q7430.0 307 7430.5 356.5Q7431.0 406 7430.5 458.0Q7430.0 510 7429.0 558Q7428.0 583 7408.5 597.5Q7389.0 612 7360.0 618Q7348.0 621 7337.5 625.5Q7327.0 630 7327.0 639Q7327.0 646 7337.5 649.0Q7348.0 652 7357.0 652Q7377.0 652 7390.5 652.0Q7404.0 652 7416.0 651.5Q7428.0 651 7441.0 651Q7463.0 651 7477.0 651.5Q7491.0 652 7507.5 653.0Q7524.0 654 7551.0 654Q7563.0 654 7570.5 650.5Q7578.0 647 7578.0 641Q7578.0 626 7549.0 620Q7514.0 613 7499.5 601.0Q7485.0 589 7484.0 561Q7484.0 536 7483.5 497.0Q7483.0 458 7482.0 412.0Q7481.0 366 7479.5 318.0Q7478.0 270 7477.5 224.0Q7477.0 178 7477.0 141Q7477.0 117 7479.0 92.0Q7481.0 67 7483.5 47.5Q7486.0 28 7486.0 20Q7486.0 -2 7479.0 -10.0Q7472.0 -18 7460.0 -18Z" transform="matrix(0.019920 0 0 -0.019920 74.56 390.60)" fill="#15130f"/></svg>