<svg xmlns="http://www.w3.org/2000/svg" viewBox="0 0 300 446"><rect width="300" height="446" fill="#f4ecd8"/><rect x="20.0" y="25.5" width="260" height="395" rx="20.3" fill="#f4ecd8" stroke="#15130f" stroke-width="1.5"/><rect x="36.9" y="42.4" width="226.2" height="354.7" fill="none" stroke="#15130f" stroke-width="0.7"/><g fill="none" stroke="#15130f" stroke-width="0.65" stroke-opacity="0.72" stroke-linecap="round" stroke-linejoin="round"><line x1="36.9" y1="281.5" x2="263.1" y2="281.5"/></g><path d="M36.9,370.6 H263.1 V397.1 H36.9 Z" fill="#d7e8c4"/><g fill="none" stroke="#15130f" stroke-width="0.8"><line x1="36.9" y1="370.6" x2="263.1" y2="370.6"/><line x1="61.6" y1="370.6" x2="61.6" y2="397.1"/><line x1="238.4" y1="370.6" x2="238.4" y2="397.1"/></g><rect x="141.4" y="34.4" width="17.2" height="19.0" fill="#d7e8c4" stroke="#15130f" stroke-width="0.8"/><path d="M649.0 1092V235L647.0 193L657.0 137Q686.0 59 825.0 52Q867.0 50 867.0 28Q867.0 -7 780.0 -7Q761.0 -7 652.0 2Q595.0 7 494.0 7Q394.0 7 322.0 -2Q293.0 -5 280.0 -5Q255.0 -5 255.0 20Q255.0 41 281.0 45Q384.0 61 415.0 92.0Q446.0 123 446.0 210L445.0 248V1010Q445.0 1115 363.0 1115Q331.0 1115 306.0 1104L281.0 1093Q270.0 1089 261.0 1089Q235.0 1089 235.0 1113Q235.0 1137 260.0 1150.0Q285.0 1163 362.0 1180Q506.0 1211 567.0 1267L614.0 1310Q625.0 1320 641.0 1320Q661.0 1320 661.0 1282Q661.0 1271 659.0 1243L651.0 1153Q649.0 1126 649.0 1092ZM1673.0 1092V235L1671.0 193L1681.0 137Q1710.0 59 1849.0 52Q1891.0 50 1891.0 28Q1891.0 -7 1804.0 -7Q1785.0 -7 1676.0 2Q1619.0 7 1518.0 7Q1418.0 7 1346.0 -2Q1317.0 -5 1304.0 -5Q1279.0 -5 1279.0 20Q1279.0 41 1305.0 45Q1408.0 61 1439.0 92.0Q1470.0 123 1470.0 210L1469.0 248V1010Q1469.0 1115 1387.0 1115Q1355.0 1115 1330.0 1104L1305.0 1093Q1294.0 1089 1285.0 1089Q1259.0 1089 1259.0 1113Q1259.0 1137 1284.0 1150.0Q1309.0 1163 1386.0 1180Q1530.0 1211 1591.0 1267L1638.0 1310Q1649.0 1320 1665.0 1320Q1685.0 1320 1685.0 1282Q1685.0 1271 1683.0 1243L1675.0 1153Q1673.0 1126 1673.0 1092Z" transform="matrix(0.006024 0 0 -0.006024 143.60 48.63)" fill="#15130f"/><path d="M101.0 47Q181.0 63 244.0 113Q309.0 164 358.0 252Q477.0 463 477.0 701Q477.0 941 358.0 1151Q310.0 1237 245.0 1288Q180.0 1338 100.0 1353Q188.0 1394 291.0 1405Q333.0 1410 377.0 1410Q670.0 1410 848.5 1205.0Q1027.0 1000 1027.0 699Q1027.0 399 847.0 194.5Q667.0 -10 377.0 -10Q332.0 -10 290.0 -5Q188.0 7 101.0 47ZM498.0 1241Q677.0 1021 677.0 699Q677.0 378 497.0 159Q468.0 124 436.0 94Q607.0 118 708.0 286Q827.0 481 827.0 701Q827.0 923 708.0 1117Q607.0 1281 438.0 1306Q470.0 1276 498.0 1241Z" transform="matrix(0.009268 0 0 -0.009268 44.03 390.35)" fill="#15130f"/><path d="M56.0 700 567.0 1430 833.0 968 1150.0 1420 1416.0 959 1733.0 1410 2033.0 891 1910.0 704 1662.0 1134 1345.0 682 1078.0 1143 762.0 692 495.0 1153 179.0 700ZM50.0 0 567.0 738 833.0 276 1150.0 728 1416.0 267 1733.0 718 2033.0 199 1910.0 12 1662.0 442 1345.0 -10 1078.0 451 762.0 0 495.0 461 173.0 0Z" transform="matrix(0.009217 0 0 -0.009217 241.15 390.41)" fill="#15130f"/><path d="M40.0 -4Q31.0 -4 24.0 -0.5Q17.0 3 17.0 9Q17.0 24 42.0 29Q80.0 37 97.0 51.0Q114.0 65 114.0 97V551Q114.0 584 100.0 598.0Q86.0 612 47.0 620Q22.0 625 22.0 641Q22.0 647 29.0 650.5Q36.0 654 45.0 654Q69.0 654 92.0 653.0Q115.0 652 136.5 651.0Q158.0 650 180.0 650Q201.0 650 222.5 651.0Q244.0 652 267.0 653.0Q290.0 654 314.0 654Q324.0 654 330.0 650.5Q336.0 647 336.0 640Q336.0 632 329.5 627.5Q323.0 623 311.0 620Q271.0 610 257.0 596.0Q243.0 582 243.0 550V98Q243.0 67 259.5 53.0Q276.0 39 314.0 29Q327.0 26 333.5 22.0Q340.0 18 340.0 10Q340.0 3 334.0 0.0Q328.0 -3 318.0 -3Q294.0 -3 270.0 -2.0Q246.0 -1 223.5 0.0Q201.0 1 180.0 1Q158.0 1 135.0 0.0Q112.0 -1 88.0 -2.5Q64.0 -4 40.0 -4ZM1032.0 -18Q1020.0 -18 992.0 -3.0Q964.0 12 935.0 49Q918.0 68 893.5 95.5Q869.0 123 839.5 156.0Q810.0 189 778.0 225.0Q746.0 261 714.5 297.0Q683.0 333 653.0 366.0Q623.0 399 598.0 426.5Q573.0 454 556.0 474Q552.0 479 547.5 482.5Q543.0 486 540.0 486Q536.0 486 534.0 479.0Q532.0 472 532.0 466Q532.0 420 532.5 357.0Q533.0 294 533.0 229.0Q533.0 164 533.0 109Q533.0 78 551.0 58.0Q569.0 38 608.0 29Q620.0 27 628.5 22.5Q637.0 18 637.0 10Q637.0 3 629.0 0.0Q621.0 -3 611.0 -3Q584.0 -3 568.0 -2.0Q552.0 -1 539.0 0.0Q526.0 1 506.0 1Q485.0 1 468.5 0.0Q452.0 -1 439.0 -2.5Q426.0 -4 414.0 -4Q404.0 -4 396.0 -0.5Q388.0 3 388.0 9Q388.0 17 395.5 21.5Q403.0 26 416.0 30Q442.0 38 454.5 59.5Q467.0 81 470.0 111Q474.0 149 478.0 210.5Q482.0 272 485.5 349.0Q489.0 426 489.0 508Q489.0 560 462.5 583.0Q436.0 606 396.0 620Q389.0 622 378.0 628.0Q367.0 634 367.0 643Q367.0 652 375.0 655.0Q383.0 658 392.0 658Q413.0 658 434.0 657.0Q455.0 656 476.5 655.5Q498.0 655 521.5 654.0Q545.0 653 572.0 653Q581.0 653 585.5 649.5Q590.0 646 594.0 640Q610.0 621 635.0 592.5Q660.0 564 689.5 529.5Q719.0 495 751.5 457.0Q784.0 419 816.5 381.0Q849.0 343 879.0 308.5Q909.0 274 933.5 245.5Q958.0 217 974.0 199Q978.0 195 983.5 189.0Q989.0 183 993.0 183Q1001.0 183 1002.0 200Q1002.0 226 1002.0 266.5Q1002.0 307 1002.5 356.5Q1003.0 406 1002.5 458.0Q1002.0 510 1001.0 558Q1000.0 583 980.5 597.5Q961.0 612 932.0 618Q920.0 621 909.5 625.5Q899.0 630 899.0 639Q899.0 646 909.5 649.0Q920.0 652 929.0 652Q949.0 652 962.5 652.0Q976.0 652 988.0 651.5Q1000.0 651 1013.0 651Q1035.0 651 1049.0 651.5Q1063.0 652 1079.5 653.0Q1096.0 654 1123.0 654Q1135.0 654 1142.5 650.5Q1150.0 647 1150.0 641Q1150.0 626 1121.0 620Q1086.0 613 1071.5 601.0Q1057.0 589 1056.0 561Q1056.0 536 1055.5 497.0Q1055.0 458 1054.0 412.0Q1053.0 366 1051.5 318.0Q1050.0 270 1049.5 224.0Q1049.0 178 1049.0 141Q1049.0 117 1051.0 92.0Q1053.0 67 1055.5 47.5Q1058.0 28 1058.0 20Q1058.0 -2 1051.0 -10.0Q1044.0 -18 1032.0 -18ZM1539.0 -7Q1512.0 -7 1474.0 -5.0Q1436.0 -3 1397.5 -1.5Q1359.0 0 1334.0 0Q1314.0 0 1293.5 -0.5Q1273.0 -1 1251.0 -2.5Q1229.0 -4 1204.0 -4Q1195.0 -4 1188.0 -0.5Q1181.0 3 1181.0 10Q1181.0 19 1187.5 23.0Q1194.0 27 1207.0 29Q1245.0 37 1259.0 51.0Q1273.0 65 1273.0 98V550Q1273.0 584 1259.5 598.0Q1246.0 612 1207.0 620Q1194.0 622 1187.5 626.5Q1181.0 631 1181.0 640Q1181.0 647 1188.0 650.5Q1195.0 654 1204.0 654Q1228.0 654 1250.0 653.5Q1272.0 653 1293.5 651.5Q1315.0 650 1337.0 650Q1352.0 650 1377.5 651.5Q1403.0 653 1432.5 654.5Q1462.0 656 1488.0 657.5Q1514.0 659 1530.0 659Q1614.0 659 1681.0 635.0Q1748.0 611 1795.5 568.0Q1843.0 525 1868.0 466.0Q1893.0 407 1893.0 338Q1893.0 269 1868.0 207.0Q1843.0 145 1796.5 97.0Q1750.0 49 1684.5 21.0Q1619.0 -7 1539.0 -7ZM1524.0 39Q1596.0 39 1646.5 73.5Q1697.0 108 1723.0 170.5Q1749.0 233 1749.0 315Q1749.0 383 1731.5 438.5Q1714.0 494 1682.5 532.5Q1651.0 571 1607.5 592.0Q1564.0 613 1513.0 613Q1477.0 613 1452.5 611.0Q1428.0 609 1415.5 599.5Q1403.0 590 1403.0 568V128Q1403.0 93 1418.5 73.5Q1434.0 54 1461.5 46.5Q1489.0 39 1524.0 39ZM1971.0 -5Q1960.0 -5 1953.5 -1.0Q1947.0 3 1947.0 9Q1947.0 22 1973.0 28Q2009.0 37 2024.5 50.5Q2040.0 64 2040.0 97V550Q2040.0 584 2026.5 598.0Q2013.0 612 1976.0 620Q1962.0 623 1956.0 628.5Q1950.0 634 1950.0 640Q1950.0 647 1956.5 650.5Q1963.0 654 1974.0 654Q2003.0 654 2029.5 653.0Q2056.0 652 2081.0 651.0Q2106.0 650 2133.0 650Q2179.0 650 2230.5 651.0Q2282.0 652 2323.0 652Q2356.0 653 2377.5 655.0Q2399.0 657 2403.0 657Q2410.0 657 2417.5 654.0Q2425.0 651 2426.0 642Q2430.0 609 2436.0 577.0Q2442.0 545 2442.0 521Q2442.0 512 2437.5 507.5Q2433.0 503 2428.0 503Q2423.0 503 2419.0 506.5Q2415.0 510 2412.0 517Q2404.0 540 2397.0 557.0Q2390.0 574 2381.0 583Q2368.0 597 2351.0 605.0Q2334.0 613 2310.0 613H2217.0Q2199.0 613 2184.0 602.5Q2169.0 592 2169.0 573V377Q2169.0 366 2175.5 360.0Q2182.0 354 2191.0 354H2283.0Q2310.0 354 2321.5 369.0Q2333.0 384 2341.0 410Q2348.0 430 2360.0 430Q2365.0 430 2369.0 424.5Q2373.0 419 2373.0 410Q2372.0 400 2371.0 386.0Q2370.0 372 2369.5 358.0Q2369.0 344 2369.0 333Q2369.0 321 2369.5 306.0Q2370.0 291 2370.5 276.5Q2371.0 262 2372.0 252Q2373.0 241 2370.5 235.0Q2368.0 229 2362.0 229Q2346.0 229 2339.0 257Q2331.0 285 2320.0 299.0Q2309.0 313 2290.0 313H2196.0Q2183.0 313 2176.0 308.0Q2169.0 303 2169.0 289V99Q2169.0 66 2183.0 53.0Q2197.0 40 2226.0 40H2308.0Q2333.0 40 2353.5 45.0Q2374.0 50 2389.0 61Q2406.0 73 2419.5 93.5Q2433.0 114 2446.0 139Q2450.0 147 2454.0 149.5Q2458.0 152 2464.0 152Q2469.0 151 2471.5 146.0Q2474.0 141 2474.0 135Q2474.0 121 2469.0 99.0Q2464.0 77 2456.5 53.5Q2449.0 30 2443.0 10Q2440.0 3 2435.0 -0.5Q2430.0 -4 2423.0 -4Q2399.0 -4 2361.5 -3.5Q2324.0 -3 2280.0 -2.0Q2236.0 -1 2190.0 -0.5Q2144.0 0 2102.0 0Q2081.0 0 2059.5 -1.0Q2038.0 -2 2016.0 -3.5Q1994.0 -5 1971.0 -5ZM2535.0 -4Q2526.0 -4 2519.0 -0.5Q2512.0 3 2512.0 9Q2512.0 24 2537.0 29Q2575.0 37 2591.0 51.0Q2607.0 65 2607.0 98V538Q2607.0 576 2594.5 594.0Q2582.0 612 2546.0 620Q2532.0 623 2526.0 628.5Q2520.0 634 2520.0 640Q2520.0 647 2526.5 650.5Q2533.0 654 2544.0 654Q2568.0 654 2588.5 653.5Q2609.0 653 2628.0 652.0Q2647.0 651 2667.0 651Q2689.0 651 2708.5 653.0Q2728.0 655 2748.5 657.0Q2769.0 659 2796.0 659Q2915.0 659 2986.0 609.0Q3057.0 559 3057.0 471Q3057.0 409 3031.5 356.5Q3006.0 304 2953.5 272.0Q2901.0 240 2821.0 240Q2796.0 240 2783.0 247.5Q2770.0 255 2770.0 264Q2770.0 270 2776.5 274.5Q2783.0 279 2788.0 279Q2797.0 279 2805.5 277.5Q2814.0 276 2831.0 276Q2878.0 276 2902.5 324.0Q2927.0 372 2927.0 452Q2927.0 540 2891.5 580.5Q2856.0 621 2796.0 621Q2768.0 621 2752.5 609.5Q2737.0 598 2737.0 573L2736.0 104Q2736.0 71 2752.5 54.5Q2769.0 38 2809.0 29Q2822.0 27 2828.0 22.5Q2834.0 18 2834.0 10Q2834.0 3 2828.5 0.0Q2823.0 -3 2812.0 -3Q2789.0 -3 2765.0 -1.5Q2741.0 0 2718.5 1.0Q2696.0 2 2676.0 2Q2654.0 2 2630.5 1.0Q2607.0 0 2583.0 -2.0Q2559.0 -4 2535.0 -4ZM3131.0 -5Q3120.0 -5 3113.5 -1.0Q3107.0 3 3107.0 9Q3107.0 22 3133.0 28Q3169.0 37 3184.5 50.5Q3200.0 64 3200.0 97V550Q3200.0 584 3186.5 598.0Q3173.0 612 3136.0 620Q3122.0 623 3116.0 628.5Q3110.0 634 3110.0 640Q3110.0 647 3116.5 650.5Q3123.0 654 3134.0 654Q3163.0 654 3189.5 653.0Q3216.0 652 3241.0 651.0Q3266.0 650 3293.0 650Q3339.0 650 3390.5 651.0Q3442.0 652 3483.0 652Q3516.0 653 3537.5 655.0Q3559.0 657 3563.0 657Q3570.0 657 3577.5 654.0Q3585.0 651 3586.0 642Q3590.0 609 3596.0 577.0Q3602.0 545 3602.0 521Q3602.0 512 3597.5 507.5Q3593.0 503 3588.0 503Q3583.0 503 3579.0 506.5Q3575.0 510 3572.0 517Q3564.0 540 3557.0 557.0Q3550.0 574 3541.0 583Q3528.0 597 3511.0 605.0Q3494.0 613 3470.0 613H3377.0Q3359.0 613 3344.0 602.5Q3329.0 592 3329.0 573V377Q3329.0 366 3335.5 360.0Q3342.0 354 3351.0 354H3443.0Q3470.0 354 3481.5 369.0Q3493.0 384 3501.0 410Q3508.0 430 3520.0 430Q3525.0 430 3529.0 424.5Q3533.0 419 3533.0 410Q3532.0 400 3531.0 386.0Q3530.0 372 3529.5 358.0Q3529.0 344 3529.0 333Q3529.0 321 3529.5 306.0Q3530.0 291 3530.5 276.5Q3531.0 262 3532.0 252Q3533.0 241 3530.5 235.0Q3528.0 229 3522.0 229Q3506.0 229 3499.0 257Q3491.0 285 3480.0 299.0Q3469.0 313 3450.0 313H3356.0Q3343.0 313 3336.0 308.0Q3329.0 303 3329.0 289V99Q3329.0 66 3343.0 53.0Q3357.0 40 3386.0 40H3468.0Q3493.0 40 3513.5 45.0Q3534.0 50 3549.0 61Q3566.0 73 3579.5 93.5Q3593.0 114 3606.0 139Q3610.0 147 3614.0 149.5Q3618.0 152 3624.0 152Q3629.0 151 3631.5 146.0Q3634.0 141 3634.0 135Q3634.0 121 3629.0 99.0Q3624.0 77 3616.5 53.5Q3609.0 30 3603.0 10Q3600.0 3 3595.0 -0.5Q3590.0 -4 3583.0 -4Q3559.0 -4 3521.5 -3.5Q3484.0 -3 3440.0 -2.0Q3396.0 -1 3350.0 -0.5Q3304.0 0 3262.0 0Q3241.0 0 3219.5 -1.0Q3198.0 -2 3176.0 -3.5Q3154.0 -5 3131.0 -5ZM4329.0 -18Q4317.0 -18 4289.0 -3.0Q4261.0 12 4232.0 49Q4215.0 68 4190.5 95.5Q4166.0 123 4136.5 156.0Q4107.0 189 4075.0 225.0Q4043.0 261 4011.5 297.0Q3980.0 333 3950.0 366.0Q3920.0 399 3895.0 426.5Q3870.0 454 3853.0 474Q3849.0 479 3844.5 482.5Q3840.0 486 3837.0 486Q3833.0 486 3831.0 479.0Q3829.0 472 3829.0 466Q3829.0 420 3829.5 357.0Q3830.0 294 3830.0 229.0Q3830.0 164 3830.0 109Q3830.0 78 3848.0 58.0Q3866.0 38 3905.0 29Q3917.0 27 3925.5 22.5Q3934.0 18 3934.0 10Q3934.0 3 3926.0 0.0Q3918.0 -3 3908.0 -3Q3881.0 -3 3865.0 -2.0Q3849.0 -1 3836.0 0.0Q3823.0 1 3803.0 1Q3782.0 1 3765.5 0.0Q3749.0 -1 3736.0 -2.5Q3723.0 -4 3711.0 -4Q3701.0 -4 3693.0 -0.5Q3685.0 3 3685.0 9Q3685.0 17 3692.5 21.5Q3700.0 26 3713.0 30Q3739.0 38 3751.5 59.5Q3764.0 81 3767.0 111Q3771.0 149 3775.0 210.5Q3779.0 272 3782.5 349.0Q3786.0 426 3786.0 508Q3786.0 560 3759.5 583.0Q3733.0 606 3693.0 620Q3686.0 622 3675.0 628.0Q3664.0 634 3664.0 643Q3664.0 652 3672.0 655.0Q3680.0 658 3689.0 658Q3710.0 658 3731.0 657.0Q3752.0 656 3773.5 655.5Q3795.0 655 3818.5 654.0Q3842.0 653 3869.0 653Q3878.0 653 3882.5 649.5Q3887.0 646 3891.0 640Q3907.0 621 3932.0 592.5Q3957.0 564 3986.5 529.5Q4016.0 495 4048.5 457.0Q4081.0 419 4113.5 381.0Q4146.0 343 4176.0 308.5Q4206.0 274 4230.5 245.5Q4255.0 217 4271.0 199Q4275.0 195 4280.5 189.0Q4286.0 183 4290.0 183Q4298.0 183 4299.0 200Q4299.0 226 4299.0 266.5Q4299.0 307 4299.5 356.5Q4300.0 406 4299.5 458.0Q4299.0 510 4298.0 558Q4297.0 583 4277.5 597.5Q4258.0 612 4229.0 618Q4217.0 621 4206.5 625.5Q4196.0 630 4196.0 639Q4196.0 646 4206.5 649.0Q4217.0 652 4226.0 652Q4246.0 652 4259.5 652.0Q4273.0 652 4285.0 651.5Q4297.0 651 4310.0 651Q4332.0 651 4346.0 651.5Q4360.0 652 4376.5 653.0Q4393.0 654 4420.0 654Q4432.0 654 4439.5 650.5Q4447.0 647 4447.0 641Q4447.0 626 4418.0 620Q4383.0 613 4368.5 601.0Q4354.0 589 4353.0 561Q4353.0 536 4352.5 497.0Q4352.0 458 4351.0 412.0Q4350.0 366 4348.5 318.0Q4347.0 270 4346.5 224.0Q4346.0 178 4346.0 141Q4346.0 117 4348.0 92.0Q4350.0 67 4352.5 47.5Q4355.0 28 4355.0 20Q4355.0 -2 4348.0 -10.0Q4341.0 -18 4329.0 -18ZM4836.0 -7Q4809.0 -7 4771.0 -5.0Q4733.0 -3 4694.5 -1.5Q4656.0 0 4631.0 0Q4611.0 0 4590.5 -0.5Q4570.0 -1 4548.0 -2.5Q4526.0 -4 4501.0 -4Q4492.0 -4 4485.0 -0.5Q4478.0 3 4478.0 10Q4478.0 19 4484.5 23.0Q4491.0 27 4504.0 29Q4542.0 37 4556.0 51.0Q4570.0 65 4570.0 98V550Q4570.0 584 4556.5 598.0Q4543.0 612 4504.0 620Q4491.0 622 4484.5 626.5Q4478.0 631 4478.0 640Q4478.0 647 4485.0 650.5Q4492.0 654 4501.0 654Q4525.0 654 4547.0 653.5Q4569.0 653 4590.5 651.5Q4612.0 650 4634.0 650Q4649.0 650 4674.5 651.5Q4700.0 653 4729.5 654.5Q4759.0 656 4785.0 657.5Q4811.0 659 4827.0 659Q4911.0 659 4978.0 635.0Q5045.0 611 5092.5 568.0Q5140.0 525 5165.0 466.0Q5190.0 407 5190.0 338Q5190.0 269 5165.0 207.0Q5140.0 145 5093.5 97.0Q5047.0 49 4981.5 21.0Q4916.0 -7 4836.0 -7ZM4821.0 39Q4893.0 39 4943.5 73.5Q4994.0 108 5020.0 170.5Q5046.0 233 5046.0 315Q5046.0 383 5028.5 438.5Q5011.0 494 4979.5 532.5Q4948.0 571 4904.5 592.0Q4861.0 613 4810.0 613Q4774.0 613 4749.5 611.0Q4725.0 609 4712.5 599.5Q4700.0 590 4700.0 568V128Q4700.0 93 4715.5 73.5Q4731.0 54 4758.5 46.5Q4786.0 39 4821.0 39ZM5268.0 -5Q5257.0 -5 5250.5 -1.0Q5244.0 3 5244.0 9Q5244.0 22 5270.0 28Q5306.0 37 5321.5 50.5Q5337.0 64 5337.0 97V550Q5337.0 584 5323.5 598.0Q5310.0 612 5273.0 620Q5259.0 623 5253.0 628.5Q5247.0 634 5247.0 640Q5247.0 647 5253.5 650.5Q5260.0 654 5271.0 654Q5300.0 654 5326.5 653.0Q5353.0 652 5378.0 651.0Q5403.0 650 5430.0 650Q5476.0 650 5527.5 651.0Q5579.0 652 5620.0 652Q5653.0 653 5674.5 655.0Q5696.0 657 5700.0 657Q5707.0 657 5714.5 654.0Q5722.0 651 5723.0 642Q5727.0 609 5733.0 577.0Q5739.0 545 5739.0 521Q5739.0 512 5734.5 507.5Q5730.0 503 5725.0 503Q5720.0 503 5716.0 506.5Q5712.0 510 5709.0 517Q5701.0 540 5694.0 557.0Q5687.0 574 5678.0 583Q5665.0 597 5648.0 605.0Q5631.0 613 5607.0 613H5514.0Q5496.0 613 5481.0 602.5Q5466.0 592 5466.0 573V377Q5466.0 366 5472.5 360.0Q5479.0 354 5488.0 354H5580.0Q5607.0 354 5618.5 369.0Q5630.0 384 5638.0 410Q5645.0 430 5657.0 430Q5662.0 430 5666.0 424.5Q5670.0 419 5670.0 410Q5669.0 400 5668.0 386.0Q5667.0 372 5666.5 358.0Q5666.0 344 5666.0 333Q5666.0 321 5666.5 306.0Q5667.0 291 5667.5 276.5Q5668.0 262 5669.0 252Q5670.0 241 5667.5 235.0Q5665.0 229 5659.0 229Q5643.0 229 5636.0 257Q5628.0 285 5617.0 299.0Q5606.0 313 5587.0 313H5493.0Q5480.0 313 5473.0 308.0Q5466.0 303 5466.0 289V99Q5466.0 66 5480.0 53.0Q5494.0 40 5523.0 40H5605.0Q5630.0 40 5650.5 45.0Q5671.0 50 5686.0 61Q5703.0 73 5716.5 93.5Q5730.0 114 5743.0 139Q5747.0 147 5751.0 149.5Q5755.0 152 5761.0 152Q5766.0 151 5768.5 146.0Q5771.0 141 5771.0 135Q5771.0 121 5766.0 99.0Q5761.0 77 5753.5 53.5Q5746.0 30 5740.0 10Q5737.0 3 5732.0 -0.5Q5727.0 -4 5720.0 -4Q5696.0 -4 5658.5 -3.5Q5621.0 -3 5577.0 -2.0Q5533.0 -1 5487.0 -0.5Q5441.0 0 5399.0 0Q5378.0 0 5356.5 -1.0Q5335.0 -2 5313.0 -3.5Q5291.0 -5 5268.0 -5ZM6466.0 -18Q6454.0 -18 6426.0 -3.0Q6398.0 12 6369.0 49Q6352.0 68 6327.5 95.5Q6303.0 123 6273.5 156.0Q6244.0 189 6212.0 225.0Q6180.0 261 6148.5 297.0Q6117.0 333 6087.0 366.0Q6057.0 399 6032.0 426.5Q6007.0 454 5990.0 474Q5986.0 479 5981.5 482.5Q5977.0 486 5974.0 486Q5970.0 486 5968.0 479.0Q5966.0 472 5966.0 466Q5966.0 420 5966.5 357.0Q5967.0 294 5967.0 229.0Q5967.0 164 5967.0 109Q5967.0 78 5985.0 58.0Q6003.0 38 6042.0 29Q6054.0 27 6062.5 22.5Q6071.0 18 6071.0 10Q6071.0 3 6063.0 0.0Q6055.0 -3 6045.0 -3Q6018.0 -3 6002.0 -2.0Q5986.0 -1 5973.0 0.0Q5960.0 1 5940.0 1Q5919.0 1 5902.5 0.0Q5886.0 -1 5873.0 -2.5Q5860.0 -4 5848.0 -4Q5838.0 -4 5830.0 -0.5Q5822.0 3 5822.0 9Q5822.0 17 5829.5 21.5Q5837.0 26 5850.0 30Q5876.0 38 5888.5 59.5Q5901.0 81 5904.0 111Q5908.0 149 5912.0 210.5Q5916.0 272 5919.5 349.0Q5923.0 426 5923.0 508Q5923.0 560 5896.5 583.0Q5870.0 606 5830.0 620Q5823.0 622 5812.0 628.0Q5801.0 634 5801.0 643Q5801.0 652 5809.0 655.0Q5817.0 658 5826.0 658Q5847.0 658 5868.0 657.0Q5889.0 656 5910.5 655.5Q5932.0 655 5955.5 654.0Q5979.0 653 6006.0 653Q6015.0 653 6019.5 649.5Q6024.0 646 6028.0 640Q6044.0 621 6069.0 592.5Q6094.0 564 6123.5 529.5Q6153.0 495 6185.5 457.0Q6218.0 419 6250.5 381.0Q6283.0 343 6313.0 308.5Q6343.0 274 6367.5 245.5Q6392.0 217 6408.0 199Q6412.0 195 6417.5 189.0Q6423.0 183 6427.0 183Q6435.0 183 6436.0 200Q6436.0 226 6436.0 266.5Q6436.0 307 6436.5 356.5Q6437.0 406 6436.5 458.0Q6436.0 510 6435.0 558Q6434.0 583 6414.5 597.5Q6395.0 612 6366.0 618Q6354.0 621 6343.5 625.5Q6333.0 630 6333.0 639Q6333.0 646 6343.5 649.0Q6354.0 652 6363.0 652Q6383.0 652 6396.5 652.0Q6410.0 652 6422.0 651.5Q6434.0 651 6447.0 651Q6469.0 651 6483.0 651.5Q6497.0 652 6513.5 653.0Q6530.0 654 6557.0 654Q6569.0 654 6576.5 650.5Q6584.0 647 6584.0 641Q6584.0 626 6555.0 620Q6520.0 613 6505.5 601.0Q6491.0 589 6490.0 561Q6490.0 536 6489.5 497.0Q6489.0 458 6488.0 412.0Q6487.0 366 6485.5 318.0Q6484.0 270 6483.5 224.0Q6483.0 178 6483.0 141Q6483.0 117 6485.0 92.0Q6487.0 67 6489.5 47.5Q6492.0 28 6492.0 20Q6492.0 -2 6485.0 -10.0Q6478.0 -18 6466.0 -18ZM6999.0 -14Q6924.0 -14 6857.0 9.5Q6790.0 33 6738.5 77.0Q6687.0 121 6657.5 182.5Q6628.0 244 6628.0 319Q6628.0 389 6657.0 451.0Q6686.0 513 6739.0 561.0Q6792.0 609 6865.5 636.5Q6939.0 664 7027.0 664Q7061.0 664 7091.5 659.5Q7122.0 655 7151.0 648.5Q7180.0 642 7208.0 632Q7219.0 628 7225.5 621.0Q7232.0 614 7233.0 602Q7237.0 572 7239.0 542.5Q7241.0 513 7241.0 484Q7242.0 474 7234.0 469.5Q7226.0 465 7217.0 468.5Q7208.0 472 7204.0 483Q7196.0 511 7185.5 535.5Q7175.0 560 7154.0 577Q7131.0 596 7096.0 607.5Q7061.0 619 7014.0 619Q6960.0 619 6916.0 597.0Q6872.0 575 6840.5 536.0Q6809.0 497 6792.0 448.0Q6775.0 399 6775.0 345Q6775.0 281 6790.5 224.0Q6806.0 167 6837.5 123.5Q6869.0 80 6914.0 55.5Q6959.0 31 7017.0 31Q7091.0 31 7137.0 63.0Q7183.0 95 7215.0 158Q7223.0 174 7237.0 173.5Q7251.0 173 7251.0 157Q7251.0 145 7248.0 127.0Q7245.0 109 7239.5 88.5Q7234.0 68 7227.0 48Q7223.0 36 7217.0 30.0Q7211.0 24 7199.0 19Q7161.0 3 7109.5 -5.5Q7058.0 -14 6999.0 -14ZM7352.0 -5Q7341.0 -5 7334.5 -1.0Q7328.0 3 7328.0 9Q7328.0 22 7354.0 28Q7390.0 37 7405.5 50.5Q7421.0 64 7421.0 97V550Q7421.0 584 7407.5 598.0Q7394.0 612 7357.0 620Q7343.0 623 7337.0 628.5Q7331.0 634 7331.0 640Q7331.0 647 7337.5 650.5Q7344.0 654 7355.0 654Q7384.0 654 7410.5 653.0Q7437.0 652 7462.0 651.0Q7487.0 650 7514.0 650Q7560.0 650 7611.5 651.0Q7663.0 652 7704.0 652Q7737.0 653 7758.5 655.0Q7780.0 657 7784.0 657Q7791.0 657 7798.5 654.0Q7806.0 651 7807.0 642Q7811.0 609 7817.0 577.0Q7823.0 545 7823.0 521Q7823.0 512 7818.5 507.5Q7814.0 503 7809.0 503Q7804.0 503 7800.0 506.5Q7796.0 510 7793.0 517Q7785.0 540 7778.0 557.0Q7771.0 574 7762.0 583Q7749.0 597 7732.0 605.0Q7715.0 613 7691.0 613H7598.0Q7580.0 613 7565.0 602.5Q7550.0 592 7550.0 573V377Q7550.0 366 7556.5 360.0Q7563.0 354 7572.0 354H7664.0Q7691.0 354 7702.5 369.0Q7714.0 384 7722.0 410Q7729.0 430 7741.0 430Q7746.0 430 7750.0 424.5Q7754.0 419 7754.0 410Q7753.0 400 7752.0 386.0Q7751.0 372 7750.5 358.0Q7750.0 344 7750.0 333Q7750.0 321 7750.5 306.0Q7751.0 291 7751.5 276.5Q7752.0 262 7753.0 252Q7754.0 241 7751.5 235.0Q7749.0 229 7743.0 229Q7727.0 229 7720.0 257Q7712.0 285 7701.0 299.0Q7690.0 313 7671.0 313H7577.0Q7564.0 313 7557.0 308.0Q7550.0 303 7550.0 289V99Q7550.0 66 7564.0 53.0Q7578.0 40 7607.0 40H7689.0Q7714.0 40 7734.5 45.0Q7755.0 50 7770.0 61Q7787.0 73 7800.5 93.5Q7814.0 114 7827.0 139Q7831.0 147 7835.0 149.5Q7839.0 152 7845.0 152Q7850.0 151 7852.5 146.0Q7855.0 141 7855.0 135Q7855.0 121 7850.0 99.0Q7845.0 77 7837.5 53.5Q7830.0 30 7824.0 10Q7821.0 3 7816.0 -0.5Q7811.0 -4 7804.0 -4Q7780.0 -4 7742.5 -3.5Q7705.0 -3 7661.0 -2.0Q7617.0 -1 7571.0 -0.5Q7525.0 0 7483.0 0Q7462.0 0 7440.5 -1.0Q7419.0 -2 7397.0 -3.5Q7375.0 -5 7352.0 -5Z" transform="matrix(0.019320 0 0 -0.019320 73.96 390.11)" fill="#15130f"/></svg>