<svg xmlns="http://www.w3.org/2000/svg" viewBox="0 0 300 446"><rect width="300" height="446" fill="#f4ecd8"/><rect x="20.0" y="25.5" width="260" height="395" rx="20.3" fill="#f4ecd8" stroke="#15130f" stroke-width="1.5"/><rect x="36.9" y="42.4" width="226.2" height="354.7" fill="none" stroke="#15130f" stroke-width="0.7"/><g fill="none" stroke="#15130f" stroke-width="0.65" stroke-opacity="0.72" stroke-linecap="round" stroke-linejoin="round"><line x1="36.9" y1="281.5" x2="263.1" y2="281.5"/></g><path d="M36.9,370.6 H263.1 V397.1 H36.9 Z" fill="#d7e8c4"/><g fill="none" stroke="#15130f" stroke-width="0.8"><line x1="36.9" y1="370.6" x2="263.1" y2="370.6"/><line x1="61.6" y1="370.6" x2="61.6" y2="397.1"/><line x1="238.4" y1="370.6" x2="238.4" y2="397.1"/></g><rect x="141.4" y="34.4" width="17.2" height="19.0" fill="#d7e8c4" stroke="#15130f" stroke-width="0.8"/><path d="M923.0 348Q946.0 348 948.0 331L946.0 321L931.0 277Q917.0 236 896.0 192L845.0 85Q815.0 23 792.5 9.5Q770.0 -4 697.0 -4Q653.0 -4 591.0 -1L506.0 4Q458.0 6 371.0 6Q208.0 6 167.0 -1Q139.0 -6 126.0 -6Q95.0 -6 95.0 21Q95.0 40 154.0 106Q246.0 211 365.0 383.0Q484.0 555 541.0 665Q617.0 813 617.0 932Q617.0 1035 559.0 1096.0Q501.0 1157 404.0 1157Q266.0 1157 156.0 1033Q146.0 1021 138.0 1021Q131.0 1021 122.5 1029.5Q114.0 1038 114.0 1046Q114.0 1059 145.0 1101.5Q176.0 1144 210.0 1176Q343.0 1307 517.0 1307Q655.0 1307 740.0 1230.5Q825.0 1154 825.0 1029Q825.0 803 432.0 355L384.0 300Q342.0 253 342.0 233Q342.0 198 426.0 198L590.0 200L686.0 201Q750.0 204 811.0 241.0Q872.0 278 902.0 333Q911.0 348 923.0 348Z" transform="matrix(0.006858 0 0 -0.006858 146.42 49.14)" fill="#15130f"/><path d="M101.0 47Q181.0 63 244.0 113Q309.0 164 358.0 252Q477.0 463 477.0 701Q477.0 941 358.0 1151Q310.0 1237 245.0 1288Q180.0 1338 100.0 1353Q188.0 1394 291.0 1405Q333.0 1410 377.0 1410Q670.0 1410 848.5 1205.0Q1027.0 1000 1027.0 699Q1027.0 399 847.0 194.5Q667.0 -10 377.0 -10Q332.0 -10 290.0 -5Q188.0 7 101.0 47ZM498.0 1241Q677.0 1021 677.0 699Q677.0 378 497.0 159Q468.0 124 436.0 94Q607.0 118 708.0 286Q827.0 481 827.0 701Q827.0 923 708.0 1117Q607.0 1281 438.0 1306Q470.0 1276 498.0 1241Z" transform="matrix(0.009268 0 0 -0.009268 44.03 390.35)" fill="#15130f"/><path d="M467.0 450Q467.0 349 495.0 264.5Q523.0 180 575.5 135.0Q628.0 90 684.0 90Q741.0 90 793.5 135.0Q846.0 180 874.0 264.5Q902.0 349 902.0 450Q902.0 541 874.0 625.5Q846.0 710 793.5 755.0Q741.0 800 684.0 800Q628.0 800 575.5 755.0Q523.0 710 495.0 625.5Q467.0 541 467.0 450ZM897.0 840Q995.0 782 1048.0 676Q1102.0 567 1102.0 450Q1102.0 323 1048.0 214.5Q994.0 106 893.5 48.0Q793.0 -10 684.0 -10Q576.0 -10 475.5 48.0Q375.0 106 321.0 214.5Q267.0 323 267.0 450Q267.0 567 321.0 676Q374.0 782 472.0 840Q374.0 878 321.0 950Q267.0 1022 267.0 1100Q267.0 1162 239.0 1210.5Q211.0 1259 158.5 1284.5Q106.0 1310 50.0 1310V1410Q158.0 1410 258.5 1371.5Q359.0 1333 413.0 1260.5Q467.0 1188 467.0 1100Q467.0 1048 495.0 999.5Q523.0 951 575.5 925.5Q628.0 900 684.0 900Q741.0 900 793.5 925.5Q846.0 951 874.0 999.5Q902.0 1048 902.0 1100Q902.0 1188 956.0 1260.5Q1010.0 1333 1110.5 1371.5Q1211.0 1410 1320.0 1410V1310Q1263.0 1310 1210.5 1284.5Q1158.0 1259 1130.0 1210.5Q1102.0 1162 1102.0 1100Q1102.0 1022 1048.0 950Q995.0 878 897.0 840Z" transform="matrix(0.009268 0 0 -0.009268 244.40 390.35)" fill="#15130f"/><path d="M49.0 -5Q38.0 -5 31.5 -1.0Q25.0 3 25.0 9Q25.0 22 51.0 28Q87.0 37 102.5 50.5Q118.0 64 118.0 97V550Q118.0 584 104.5 598.0Q91.0 612 54.0 620Q40.0 623 34.0 628.5Q28.0 634 28.0 640Q28.0 647 34.5 650.5Q41.0 654 52.0 654Q81.0 654 107.5 653.0Q134.0 652 159.0 651.0Q184.0 650 211.0 650Q257.0 650 308.5 651.0Q360.0 652 401.0 652Q434.0 653 455.5 655.0Q477.0 657 481.0 657Q488.0 657 495.5 654.0Q503.0 651 504.0 642Q508.0 609 514.0 577.0Q520.0 545 520.0 521Q520.0 512 515.5 507.5Q511.0 503 506.0 503Q501.0 503 497.0 506.5Q493.0 510 490.0 517Q482.0 540 475.0 557.0Q468.0 574 459.0 583Q446.0 597 429.0 605.0Q412.0 613 388.0 613H295.0Q277.0 613 262.0 602.5Q247.0 592 247.0 573V377Q247.0 366 253.5 360.0Q260.0 354 269.0 354H361.0Q388.0 354 399.5 369.0Q411.0 384 419.0 410Q426.0 430 438.0 430Q443.0 430 447.0 424.5Q451.0 419 451.0 410Q450.0 400 449.0 386.0Q448.0 372 447.5 358.0Q447.0 344 447.0 333Q447.0 321 447.5 306.0Q448.0 291 448.5 276.5Q449.0 262 450.0 252Q451.0 241 448.5 235.0Q446.0 229 440.0 229Q424.0 229 417.0 257Q409.0 285 398.0 299.0Q387.0 313 368.0 313H274.0Q261.0 313 254.0 308.0Q247.0 303 247.0 289V99Q247.0 66 261.0 53.0Q275.0 40 304.0 40H386.0Q411.0 40 431.5 45.0Q452.0 50 467.0 61Q484.0 73 497.5 93.5Q511.0 114 524.0 139Q528.0 147 532.0 149.5Q536.0 152 542.0 152Q547.0 151 549.5 146.0Q552.0 141 552.0 135Q552.0 121 547.0 99.0Q542.0 77 534.5 53.5Q527.0 30 521.0 10Q518.0 3 513.0 -0.5Q508.0 -4 501.0 -4Q477.0 -4 439.5 -3.5Q402.0 -3 358.0 -2.0Q314.0 -1 268.0 -0.5Q222.0 0 180.0 0Q159.0 0 137.5 -1.0Q116.0 -2 94.0 -3.5Q72.0 -5 49.0 -5ZM596.0 -6Q584.0 -6 575.0 -3.0Q566.0 0 566.0 8Q566.0 17 574.5 21.0Q583.0 25 595.0 29Q614.0 35 635.5 46.0Q657.0 57 680.0 76.5Q703.0 96 725.0 124L848.0 281Q860.0 296 861.5 312.0Q863.0 328 849.0 347L710.0 543Q694.0 566 679.5 581.5Q665.0 597 650.0 606.0Q635.0 615 616.0 620Q604.0 624 596.5 628.5Q589.0 633 589.0 641Q589.0 648 596.0 651.0Q603.0 654 613.0 654Q651.0 654 697.0 651.0Q743.0 648 786.0 649Q818.0 649 848.0 651.5Q878.0 654 905.0 654Q915.0 654 923.5 650.5Q932.0 647 932.0 640Q932.0 632 923.5 627.5Q915.0 623 902.0 619Q874.0 612 860.0 605.0Q846.0 598 846.0 583Q846.0 569 868.0 539L961.0 409Q971.0 396 978.0 395.5Q985.0 395 994.0 407L1085.0 530Q1098.0 547 1104.0 560.5Q1110.0 574 1110.0 584Q1110.0 596 1099.5 604.5Q1089.0 613 1065.0 619Q1055.0 621 1044.5 626.5Q1034.0 632 1034.0 640Q1034.0 647 1042.5 650.0Q1051.0 653 1064.0 653Q1082.0 653 1095.0 652.5Q1108.0 652 1121.0 651.0Q1134.0 650 1152.0 650Q1181.0 650 1206.5 653.5Q1232.0 657 1258.0 657Q1270.0 657 1279.5 653.5Q1289.0 650 1289.0 642Q1289.0 634 1280.0 630.0Q1271.0 626 1258.0 622Q1234.0 615 1206.0 591.5Q1178.0 568 1155.0 540L1025.0 381Q1013.0 367 1011.5 357.5Q1010.0 348 1019.0 333L1182.0 101Q1200.0 75 1222.0 56.5Q1244.0 38 1266.0 31Q1279.0 29 1290.0 23.0Q1301.0 17 1301.0 8Q1301.0 2 1293.5 -1.5Q1286.0 -5 1274.0 -5Q1245.0 -5 1214.5 -3.5Q1184.0 -2 1154.5 0.0Q1125.0 2 1095.0 1Q1065.0 1 1036.5 0.0Q1008.0 -1 982.0 -1Q972.0 -1 963.0 2.5Q954.0 6 954.0 12Q954.0 20 964.5 25.5Q975.0 31 984.0 33Q1002.0 38 1019.5 47.5Q1037.0 57 1037.0 75Q1037.0 82 1035.0 88.0Q1033.0 94 1027.0 102L920.0 254Q910.0 270 902.0 272.0Q894.0 274 883.0 258L775.0 111Q765.0 96 762.5 85.0Q760.0 74 761.0 68Q762.0 55 774.0 45.0Q786.0 35 807.0 31Q820.0 29 829.0 23.5Q838.0 18 838.0 10Q838.0 3 829.5 0.0Q821.0 -3 809.0 -3Q785.0 -3 758.5 -1.5Q732.0 0 711.0 0Q680.0 0 652.0 -3.0Q624.0 -6 596.0 -6ZM1331.0 -5Q1319.0 -5 1311.0 -1.5Q1303.0 2 1303.0 10Q1303.0 19 1310.5 24.0Q1318.0 29 1330.0 33Q1359.0 41 1380.5 57.5Q1402.0 74 1415.0 103Q1440.0 162 1463.0 216.5Q1486.0 271 1507.0 325.0Q1528.0 379 1549.5 435.0Q1571.0 491 1593.0 553Q1604.0 584 1608.0 601.0Q1612.0 618 1615.0 626Q1630.0 630 1643.0 634.0Q1656.0 638 1672.0 644Q1686.0 651 1696.0 662.0Q1706.0 673 1711.0 679Q1714.0 681 1717.0 681.5Q1720.0 682 1723.0 677Q1726.0 671 1728.0 665.0Q1730.0 659 1732.0 652Q1754.0 581 1777.5 508.5Q1801.0 436 1824.0 365.5Q1847.0 295 1868.5 230.5Q1890.0 166 1908.0 112Q1917.0 85 1930.5 69.0Q1944.0 53 1960.5 44.5Q1977.0 36 1997.0 31Q2010.0 28 2017.0 23.0Q2024.0 18 2024.0 9Q2024.0 3 2017.5 0.0Q2011.0 -3 2001.0 -3Q1983.0 -3 1955.5 -2.0Q1928.0 -1 1899.0 0.5Q1870.0 2 1847.0 2Q1827.0 2 1802.5 1.0Q1778.0 0 1753.5 -1.0Q1729.0 -2 1712.0 -2Q1702.0 -2 1694.5 1.5Q1687.0 5 1687.0 12Q1687.0 20 1695.0 25.5Q1703.0 31 1714.0 33Q1750.0 39 1766.0 51.5Q1782.0 64 1778.0 88Q1775.0 105 1769.0 128.5Q1763.0 152 1756.5 177.5Q1750.0 203 1743.0 224Q1741.0 232 1737.0 235.5Q1733.0 239 1722.0 239H1542.0Q1535.0 239 1531.0 234.5Q1527.0 230 1525.0 221Q1521.0 208 1515.5 191.5Q1510.0 175 1504.5 157.5Q1499.0 140 1494.5 125.0Q1490.0 110 1488.0 99Q1483.0 72 1497.5 56.5Q1512.0 41 1548.0 32Q1575.0 25 1575.0 11Q1575.0 5 1568.5 1.5Q1562.0 -2 1550.0 -2Q1527.0 -2 1502.0 -0.5Q1477.0 1 1447.0 1Q1417.0 1 1388.5 -2.0Q1360.0 -5 1331.0 -5ZM1569.0 285H1708.0Q1722.0 285 1722.0 291Q1722.0 294 1721.5 296.0Q1721.0 298 1720.0 302L1650.0 533Q1646.0 547 1643.0 547Q1641.0 547 1636.0 534L1552.0 302Q1550.0 297 1550.0 294Q1550.0 289 1555.5 287.0Q1561.0 285 1569.0 285ZM2064.0 -5Q2053.0 -5 2047.0 -0.5Q2041.0 4 2041.0 9Q2041.0 17 2048.0 21.5Q2055.0 26 2062.0 28Q2098.0 37 2115.0 50.5Q2132.0 64 2132.0 95V555Q2132.0 578 2126.5 590.0Q2121.0 602 2107.5 608.5Q2094.0 615 2068.0 620Q2042.0 625 2042.0 641Q2042.0 647 2049.0 650.5Q2056.0 654 2065.0 654Q2090.0 654 2112.5 653.0Q2135.0 652 2156.0 651.0Q2177.0 650 2198.0 650Q2221.0 650 2244.5 651.0Q2268.0 652 2292.5 653.0Q2317.0 654 2340.0 654Q2350.0 654 2356.0 650.5Q2362.0 647 2362.0 640Q2362.0 632 2355.5 627.5Q2349.0 623 2337.0 620Q2298.0 610 2279.5 598.5Q2261.0 587 2261.0 558V101Q2261.0 72 2274.0 58.5Q2287.0 45 2323.0 45H2432.0Q2455.0 45 2474.0 53.0Q2493.0 61 2505.0 73Q2523.0 89 2535.0 107.0Q2547.0 125 2558.0 149Q2565.0 164 2571.0 172.0Q2577.0 180 2583.0 180Q2590.0 180 2593.0 173.5Q2596.0 167 2596.0 160Q2596.0 159 2595.0 154.0Q2594.0 149 2594.0 146Q2586.0 117 2580.5 96.0Q2575.0 75 2571.5 55.5Q2568.0 36 2565.0 13Q2564.0 6 2561.0 0.5Q2558.0 -5 2549.0 -5Q2519.0 -5 2477.0 -4.0Q2435.0 -3 2388.0 -2.5Q2341.0 -2 2293.5 -1.0Q2246.0 0 2204.0 0Q2182.0 0 2153.5 -1.0Q2125.0 -2 2100.0 -3.5Q2075.0 -5 2064.0 -5ZM2812.0 -4Q2802.0 -4 2794.5 -0.5Q2787.0 3 2787.0 9Q2787.0 17 2794.0 22.0Q2801.0 27 2814.0 29Q2852.0 37 2870.0 51.5Q2888.0 66 2888.0 99V504Q2888.0 545 2886.0 566.0Q2884.0 587 2880.5 594.5Q2877.0 602 2870.0 603Q2860.0 607 2845.0 608.0Q2830.0 609 2816.0 609H2785.0Q2756.0 609 2729.0 595.5Q2702.0 582 2687.0 559Q2683.0 553 2674.5 542.0Q2666.0 531 2656.5 522.0Q2647.0 513 2637.0 513Q2630.0 513 2627.5 518.0Q2625.0 523 2625.0 529Q2625.0 541 2631.0 553Q2648.0 587 2656.5 612.5Q2665.0 638 2668.0 673Q2670.0 688 2676.5 692.5Q2683.0 697 2690.0 697Q2696.0 697 2704.5 684.5Q2713.0 672 2720.0 664Q2729.0 655 2752.0 650.5Q2775.0 646 2791.0 646L3160.0 647Q3188.0 647 3207.0 651.5Q3226.0 656 3237.0 661Q3252.0 670 3261.0 679.5Q3270.0 689 3282.0 689Q3287.0 689 3289.5 683.5Q3292.0 678 3292.0 670Q3292.0 665 3291.0 658.5Q3290.0 652 3289.0 647Q3285.0 628 3281.0 613.5Q3277.0 599 3274.5 586.5Q3272.0 574 3272.0 558V541Q3272.0 527 3268.0 517.0Q3264.0 507 3255.0 507Q3247.0 507 3241.5 516.5Q3236.0 526 3230.0 546Q3221.0 578 3200.0 593.5Q3179.0 609 3134.0 609H3066.0Q3047.0 609 3036.5 602.0Q3026.0 595 3021.5 571.5Q3017.0 548 3017.0 499V100Q3017.0 68 3035.0 53.5Q3053.0 39 3092.0 29Q3104.0 26 3111.0 22.0Q3118.0 18 3118.0 10Q3118.0 3 3111.5 0.0Q3105.0 -3 3095.0 -3Q3071.0 -3 3047.0 -2.0Q3023.0 -1 2999.5 0.0Q2976.0 1 2954.0 1Q2932.0 1 2908.5 0.0Q2885.0 -1 2860.5 -2.5Q2836.0 -4 2812.0 -4ZM3314.0 -5Q3302.0 -5 3294.0 -1.5Q3286.0 2 3286.0 10Q3286.0 19 3293.5 24.0Q3301.0 29 3313.0 33Q3342.0 41 3363.5 57.5Q3385.0 74 3398.0 103Q3423.0 162 3446.0 216.5Q3469.0 271 3490.0 325.0Q3511.0 379 3532.5 435.0Q3554.0 491 3576.0 553Q3587.0 584 3591.0 601.0Q3595.0 618 3598.0 626Q3613.0 630 3626.0 634.0Q3639.0 638 3655.0 644Q3669.0 651 3679.0 662.0Q3689.0 673 3694.0 679Q3697.0 681 3700.0 681.5Q3703.0 682 3706.0 677Q3709.0 671 3711.0 665.0Q3713.0 659 3715.0 652Q3737.0 581 3760.5 508.5Q3784.0 436 3807.0 365.5Q3830.0 295 3851.5 230.5Q3873.0 166 3891.0 112Q3900.0 85 3913.5 69.0Q3927.0 53 3943.5 44.5Q3960.0 36 3980.0 31Q3993.0 28 4000.0 23.0Q4007.0 18 4007.0 9Q4007.0 3 4000.5 0.0Q3994.0 -3 3984.0 -3Q3966.0 -3 3938.5 -2.0Q3911.0 -1 3882.0 0.5Q3853.0 2 3830.0 2Q3810.0 2 3785.5 1.0Q3761.0 0 3736.5 -1.0Q3712.0 -2 3695.0 -2Q3685.0 -2 3677.5 1.5Q3670.0 5 3670.0 12Q3670.0 20 3678.0 25.5Q3686.0 31 3697.0 33Q3733.0 39 3749.0 51.5Q3765.0 64 3761.0 88Q3758.0 105 3752.0 128.5Q3746.0 152 3739.5 177.5Q3733.0 203 3726.0 224Q3724.0 232 3720.0 235.5Q3716.0 239 3705.0 239H3525.0Q3518.0 239 3514.0 234.5Q3510.0 230 3508.0 221Q3504.0 208 3498.5 191.5Q3493.0 175 3487.5 157.5Q3482.0 140 3477.5 125.0Q3473.0 110 3471.0 99Q3466.0 72 3480.5 56.5Q3495.0 41 3531.0 32Q3558.0 25 3558.0 11Q3558.0 5 3551.5 1.5Q3545.0 -2 3533.0 -2Q3510.0 -2 3485.0 -0.5Q3460.0 1 3430.0 1Q3400.0 1 3371.5 -2.0Q3343.0 -5 3314.0 -5ZM3552.0 285H3691.0Q3705.0 285 3705.0 291Q3705.0 294 3704.5 296.0Q3704.0 298 3703.0 302L3633.0 533Q3629.0 547 3626.0 547Q3624.0 547 3619.0 534L3535.0 302Q3533.0 297 3533.0 294Q3533.0 289 3538.5 287.0Q3544.0 285 3552.0 285ZM4210.0 -4Q4200.0 -4 4192.5 -0.5Q4185.0 3 4185.0 9Q4185.0 17 4192.0 22.0Q4199.0 27 4212.0 29Q4250.0 37 4268.0 51.5Q4286.0 66 4286.0 99V504Q4286.0 545 4284.0 566.0Q4282.0 587 4278.5 594.5Q4275.0 602 4268.0 603Q4258.0 607 4243.0 608.0Q4228.0 609 4214.0 609H4183.0Q4154.0 609 4127.0 595.5Q4100.0 582 4085.0 559Q4081.0 553 4072.5 542.0Q4064.0 531 4054.5 522.0Q4045.0 513 4035.0 513Q4028.0 513 4025.5 518.0Q4023.0 523 4023.0 529Q4023.0 541 4029.0 553Q4046.0 587 4054.5 612.5Q4063.0 638 4066.0 673Q4068.0 688 4074.5 692.5Q4081.0 697 4088.0 697Q4094.0 697 4102.5 684.5Q4111.0 672 4118.0 664Q4127.0 655 4150.0 650.5Q4173.0 646 4189.0 646L4558.0 647Q4586.0 647 4605.0 651.5Q4624.0 656 4635.0 661Q4650.0 670 4659.0 679.5Q4668.0 689 4680.0 689Q4685.0 689 4687.5 683.5Q4690.0 678 4690.0 670Q4690.0 665 4689.0 658.5Q4688.0 652 4687.0 647Q4683.0 628 4679.0 613.5Q4675.0 599 4672.5 586.5Q4670.0 574 4670.0 558V541Q4670.0 527 4666.0 517.0Q4662.0 507 4653.0 507Q4645.0 507 4639.5 516.5Q4634.0 526 4628.0 546Q4619.0 578 4598.0 593.5Q4577.0 609 4532.0 609H4464.0Q4445.0 609 4434.5 602.0Q4424.0 595 4419.5 571.5Q4415.0 548 4415.0 499V100Q4415.0 68 4433.0 53.5Q4451.0 39 4490.0 29Q4502.0 26 4509.0 22.0Q4516.0 18 4516.0 10Q4516.0 3 4509.5 0.0Q4503.0 -3 4493.0 -3Q4469.0 -3 4445.0 -2.0Q4421.0 -1 4397.5 0.0Q4374.0 1 4352.0 1Q4330.0 1 4306.5 0.0Q4283.0 -1 4258.5 -2.5Q4234.0 -4 4210.0 -4ZM4728.0 -4Q4719.0 -4 4712.0 -0.5Q4705.0 3 4705.0 9Q4705.0 24 4730.0 29Q4768.0 37 4785.0 51.0Q4802.0 65 4802.0 97V551Q4802.0 584 4788.0 598.0Q4774.0 612 4735.0 620Q4710.0 625 4710.0 641Q4710.0 647 4717.0 650.5Q4724.0 654 4733.0 654Q4757.0 654 4780.0 653.0Q4803.0 652 4824.5 651.0Q4846.0 650 4868.0 650Q4889.0 650 4910.5 651.0Q4932.0 652 4955.0 653.0Q4978.0 654 5002.0 654Q5012.0 654 5018.0 650.5Q5024.0 647 5024.0 640Q5024.0 632 5017.5 627.5Q5011.0 623 4999.0 620Q4959.0 610 4945.0 596.0Q4931.0 582 4931.0 550V98Q4931.0 67 4947.5 53.0Q4964.0 39 5002.0 29Q5015.0 26 5021.5 22.0Q5028.0 18 5028.0 10Q5028.0 3 5022.0 0.0Q5016.0 -3 5006.0 -3Q4982.0 -3 4958.0 -2.0Q4934.0 -1 4911.5 0.0Q4889.0 1 4868.0 1Q4846.0 1 4823.0 0.0Q4800.0 -1 4776.0 -2.5Q4752.0 -4 4728.0 -4ZM5420.0 -14Q5352.0 -14 5290.0 9.5Q5228.0 33 5180.5 76.5Q5133.0 120 5105.5 180.5Q5078.0 241 5078.0 315Q5078.0 383 5100.5 445.5Q5123.0 508 5167.5 557.0Q5212.0 606 5277.5 635.0Q5343.0 664 5429.0 664Q5497.0 664 5558.5 640.5Q5620.0 617 5668.0 573.5Q5716.0 530 5743.5 469.5Q5771.0 409 5771.0 335Q5771.0 268 5748.5 205.0Q5726.0 142 5681.5 93.0Q5637.0 44 5571.5 15.0Q5506.0 -14 5420.0 -14ZM5437.0 30Q5500.0 30 5542.5 62.0Q5585.0 94 5606.5 151.5Q5628.0 209 5628.0 284Q5628.0 348 5615.0 408.0Q5602.0 468 5575.0 515.5Q5548.0 563 5507.5 591.0Q5467.0 619 5411.0 619Q5348.0 619 5305.5 587.0Q5263.0 555 5242.0 498.0Q5221.0 441 5221.0 366Q5221.0 302 5234.0 242.0Q5247.0 182 5273.5 134.0Q5300.0 86 5340.5 58.0Q5381.0 30 5437.0 30ZM6481.0 -18Q6469.0 -18 6441.0 -3.0Q6413.0 12 6384.0 49Q6367.0 68 6342.5 95.5Q6318.0 123 6288.5 156.0Q6259.0 189 6227.0 225.0Q6195.0 261 6163.5 297.0Q6132.0 333 6102.0 366.0Q6072.0 399 6047.0 426.5Q6022.0 454 6005.0 474Q6001.0 479 5996.5 482.5Q5992.0 486 5989.0 486Q5985.0 486 5983.0 479.0Q5981.0 472 5981.0 466Q5981.0 420 5981.5 357.0Q5982.0 294 5982.0 229.0Q5982.0 164 5982.0 109Q5982.0 78 6000.0 58.0Q6018.0 38 6057.0 29Q6069.0 27 6077.5 22.5Q6086.0 18 6086.0 10Q6086.0 3 6078.0 0.0Q6070.0 -3 6060.0 -3Q6033.0 -3 6017.0 -2.0Q6001.0 -1 5988.0 0.0Q5975.0 1 5955.0 1Q5934.0 1 5917.5 0.0Q5901.0 -1 5888.0 -2.5Q5875.0 -4 5863.0 -4Q5853.0 -4 5845.0 -0.5Q5837.0 3 5837.0 9Q5837.0 17 5844.5 21.5Q5852.0 26 5865.0 30Q5891.0 38 5903.5 59.5Q5916.0 81 5919.0 111Q5923.0 149 5927.0 210.5Q5931.0 272 5934.5 349.0Q5938.0 426 5938.0 508Q5938.0 560 5911.5 583.0Q5885.0 606 5845.0 620Q5838.0 622 5827.0 628.0Q5816.0 634 5816.0 643Q5816.0 652 5824.0 655.0Q5832.0 658 5841.0 658Q5862.0 658 5883.0 657.0Q5904.0 656 5925.5 655.5Q5947.0 655 5970.5 654.0Q5994.0 653 6021.0 653Q6030.0 653 6034.5 649.5Q6039.0 646 6043.0 640Q6059.0 621 6084.0 592.5Q6109.0 564 6138.5 529.5Q6168.0 495 6200.5 457.0Q6233.0 419 6265.5 381.0Q6298.0 343 6328.0 308.5Q6358.0 274 6382.5 245.5Q6407.0 217 6423.0 199Q6427.0 195 6432.5 189.0Q6438.0 183 6442.0 183Q6450.0 183 6451.0 200Q6451.0 226 6451.0 266.5Q6451.0 307 6451.5 356.5Q6452.0 406 6451.5 458.0Q6451.0 510 6450.0 558Q6449.0 583 6429.5 597.5Q6410.0 612 6381.0 618Q6369.0 621 6358.5 625.5Q6348.0 630 6348.0 639Q6348.0 646 6358.5 649.0Q6369.0 652 6378.0 652Q6398.0 652 6411.5 652.0Q6425.0 652 6437.0 651.5Q6449.0 651 6462.0 651Q6484.0 651 6498.0 651.5Q6512.0 652 6528.5 653.0Q6545.0 654 6572.0 654Q6584.0 654 6591.5 650.5Q6599.0 647 6599.0 641Q6599.0 626 6570.0 620Q6535.0 613 6520.5 601.0Q6506.0 589 6505.0 561Q6505.0 536 6504.5 497.0Q6504.0 458 6503.0 412.0Q6502.0 366 6500.5 318.0Q6499.0 270 6498.5 224.0Q6498.0 178 6498.0 141Q6498.0 117 6500.0 92.0Q6502.0 67 6504.5 47.5Q6507.0 28 6507.0 20Q6507.0 -2 6500.0 -10.0Q6493.0 -18 6481.0 -18Z" transform="matrix(0.022120 0 0 -0.022120 76.74 391.38)" fill="#15130f"/></svg>