<svg xmlns="http://www.w3.org/2000/svg" viewBox="0 0 300 446"><rect width="300" height="446" fill="#f4ecd8"/><rect x="20.0" y="25.5" width="260" height="395" rx="20.3" fill="#f4ecd8" stroke="#15130f" stroke-width="1.5"/><rect x="36.9" y="42.4" width="226.2" height="354.7" fill="none" stroke="#15130f" stroke-width="0.7"/><g fill="none" stroke="#15130f" stroke-width="0.65" stroke-opacity="0.72" stroke-linecap="round" stroke-linejoin="round"><line x1="36.9" y1="210.4" x2="263.1" y2="210.4"/></g><path d="M36.9,370.6 H263.1 V397.1 H36.9 Z" fill="#d9cf9a"/><g fill="none" stroke="#15130f" stroke-width="0.8"><line x1="36.9" y1="370.6" x2="263.1" y2="370.6"/><line x1="61.6" y1="370.6" x2="61.6" y2="397.1"/><line x1="238.4" y1="370.6" x2="238.4" y2="397.1"/></g><rect x="141.4" y="34.4" width="17.2" height="19.0" fill="#d9cf9a" stroke="#15130f" stroke-width="0.8"/><path d="M649.0 1092V235L647.0 193L657.0 137Q686.0 59 825.0 52Q867.0 50 867.0 28Q867.0 -7 780.0 -7Q761.0 -7 652.0 2Q595.0 7 494.0 7Q394.0 7 322.0 -2Q293.0 -5 280.0 -5Q255.0 -5 255.0 20Q255.0 41 281.0 45Q384.0 61 415.0 92.0Q446.0 123 446.0 210L445.0 248V1010Q445.0 1115 363.0 1115Q331.0 1115 306.0 1104L281.0 1093Q270.0 1089 261.0 1089Q235.0 1089 235.0 1113Q235.0 1137 260.0 1150.0Q285.0 1163 362.0 1180Q506.0 1211 567.0 1267L614.0 1310Q625.0 1320 641.0 1320Q661.0 1320 661.0 1282Q661.0 1271 659.0 1243L651.0 1153Q649.0 1126 649.0 1092ZM1673.0 1092V235L1671.0 193L1681.0 137Q1710.0 59 1849.0 52Q1891.0 50 1891.0 28Q1891.0 -7 1804.0 -7Q1785.0 -7 1676.0 2Q1619.0 7 1518.0 7Q1418.0 7 1346.0 -2Q1317.0 -5 1304.0 -5Q1279.0 -5 1279.0 20Q1279.0 41 1305.0 45Q1408.0 61 1439.0 92.0Q1470.0 123 1470.0 210L1469.0 248V1010Q1469.0 1115 1387.0 1115Q1355.0 1115 1330.0 1104L1305.0 1093Q1294.0 1089 1285.0 1089Q1259.0 1089 1259.0 1113Q1259.0 1137 1284.0 1150.0Q1309.0 1163 1386.0 1180Q1530.0 1211 1591.0 1267L1638.0 1310Q1649.0 1320 1665.0 1320Q1685.0 1320 1685.0 1282Q1685.0 1271 1683.0 1243L1675.0 1153Q1673.0 1126 1673.0 1092Z" transform="matrix(0.006024 0 0 -0.006024 143.60 48.63)" fill="#15130f"/><path d="M450.0 1050V690Q569.0 900 750.0 900Q934.0 900 1042.0 757.0Q1150.0 614 1150.0 429Q1150.0 290 1050.0 130.5Q950.0 -29 950.0 -150Q950.0 -420 1132.0 -450Q1179.0 -450 1240.0 -420L1260.0 -450Q1183.0 -500 1102.0 -500Q954.0 -500 852.0 -391.0Q750.0 -282 750.0 -150Q750.0 -44 850.0 129.5Q950.0 303 950.0 429Q950.0 573 887.5 686.5Q825.0 800 706.0 800Q551.0 800 450.0 576V200Q450.0 150 490.0 95.0Q530.0 40 600.0 40H650.0V0H50.0V40H100.0Q170.0 40 210.0 95.0Q250.0 150 250.0 200V1050H50.0V1150H250.0V1200Q250.0 1250 210.0 1305.0Q170.0 1360 100.0 1360H50.0V1400H650.0V1360H600.0Q530.0 1360 490.0 1305.0Q450.0 1250 450.0 1200V1150H650.0V1050Z" transform="matrix(0.009268 0 0 -0.009268 43.18 388.04)" fill="#15130f"/><path d="M56.0 700 567.0 1430 833.0 968 1150.0 1420 1416.0 959 1733.0 1410 2033.0 891 1910.0 704 1662.0 1134 1345.0 682 1078.0 1143 762.0 692 495.0 1153 179.0 700ZM50.0 0 567.0 738 833.0 276 1150.0 728 1416.0 267 1733.0 718 2033.0 199 1910.0 12 1662.0 442 1345.0 -10 1078.0 451 762.0 0 495.0 461 173.0 0Z" transform="matrix(0.009217 0 0 -0.009217 241.15 390.41)" fill="#15130f"/><path d="M49.0 -5Q38.0 -5 31.5 -1.0Q25.0 3 25.0 9Q25.0 22 51.0 28Q87.0 37 102.5 50.5Q118.0 64 118.0 97V550Q118.0 584 104.5 598.0Q91.0 612 54.0 620Q40.0 623 34.0 628.5Q28.0 634 28.0 640Q28.0 647 34.5 650.5Q41.0 654 52.0 654Q81.0 654 107.5 653.0Q134.0 652 159.0 651.0Q184.0 650 211.0 650Q257.0 650 308.5 651.0Q360.0 652 401.0 652Q434.0 653 455.5 655.0Q477.0 657 481.0 657Q488.0 657 495.5 654.0Q503.0 651 504.0 642Q508.0 609 514.0 577.0Q520.0 545 520.0 521Q520.0 512 515.5 507.5Q511.0 503 506.0 503Q501.0 503 497.0 506.5Q493.0 510 490.0 517Q482.0 540 475.0 557.0Q468.0 574 459.0 583Q446.0 597 429.0 605.0Q412.0 613 388.0 613H295.0Q277.0 613 262.0 602.5Q247.0 592 247.0 573V377Q247.0 366 253.5 360.0Q260.0 354 269.0 354H361.0Q388.0 354 399.5 369.0Q411.0 384 419.0 410Q426.0 430 438.0 430Q443.0 430 447.0 424.5Q451.0 419 451.0 410Q450.0 400 449.0 386.0Q448.0 372 447.5 358.0Q447.0 344 447.0 333Q447.0 321 447.5 306.0Q448.0 291 448.5 276.5Q449.0 262 450.0 252Q451.0 241 448.5 235.0Q446.0 229 440.0 229Q424.0 229 417.0 257Q409.0 285 398.0 299.0Q387.0 313 368.0 313H274.0Q261.0 313 254.0 308.0Q247.0 303 247.0 289V99Q247.0 66 261.0 53.0Q275.0 40 304.0 40H386.0Q411.0 40 431.5 45.0Q452.0 50 467.0 61Q484.0 73 497.5 93.5Q511.0 114 524.0 139Q528.0 147 532.0 149.5Q536.0 152 542.0 152Q547.0 151 549.5 146.0Q552.0 141 552.0 135Q552.0 121 547.0 99.0Q542.0 77 534.5 53.5Q527.0 30 521.0 10Q518.0 3 513.0 -0.5Q508.0 -4 501.0 -4Q477.0 -4 439.5 -3.5Q402.0 -3 358.0 -2.0Q314.0 -1 268.0 -0.5Q222.0 0 180.0 0Q159.0 0 137.5 -1.0Q116.0 -2 94.0 -3.5Q72.0 -5 49.0 -5ZM976.0 -14Q901.0 -14 834.0 9.5Q767.0 33 715.5 77.0Q664.0 121 634.5 182.5Q605.0 244 605.0 319Q605.0 389 634.0 451.0Q663.0 513 716.0 561.0Q769.0 609 842.5 636.5Q916.0 664 1004.0 664Q1038.0 664 1068.5 659.5Q1099.0 655 1128.0 648.5Q1157.0 642 1185.0 632Q1196.0 628 1202.5 621.0Q1209.0 614 1210.0 602Q1214.0 572 1216.0 542.5Q1218.0 513 1218.0 484Q1219.0 474 1211.0 469.5Q1203.0 465 1194.0 468.5Q1185.0 472 1181.0 483Q1173.0 511 1162.5 535.5Q1152.0 560 1131.0 577Q1108.0 596 1073.0 607.5Q1038.0 619 991.0 619Q937.0 619 893.0 597.0Q849.0 575 817.5 536.0Q786.0 497 769.0 448.0Q752.0 399 752.0 345Q752.0 281 767.5 224.0Q783.0 167 814.5 123.5Q846.0 80 891.0 55.5Q936.0 31 994.0 31Q1068.0 31 1114.0 63.0Q1160.0 95 1192.0 158Q1200.0 174 1214.0 173.5Q1228.0 173 1228.0 157Q1228.0 145 1225.0 127.0Q1222.0 109 1216.5 88.5Q1211.0 68 1204.0 48Q1200.0 36 1194.0 30.0Q1188.0 24 1176.0 19Q1138.0 3 1086.5 -5.5Q1035.0 -14 976.0 -14ZM1685.0 -14Q1610.0 -14 1543.0 9.5Q1476.0 33 1424.5 77.0Q1373.0 121 1343.5 182.5Q1314.0 244 1314.0 319Q1314.0 389 1343.0 451.0Q1372.0 513 1425.0 561.0Q1478.0 609 1551.5 636.5Q1625.0 664 1713.0 664Q1747.0 664 1777.5 659.5Q1808.0 655 1837.0 648.5Q1866.0 642 1894.0 632Q1905.0 628 1911.5 621.0Q1918.0 614 1919.0 602Q1923.0 572 1925.0 542.5Q1927.0 513 1927.0 484Q1928.0 474 1920.0 469.5Q1912.0 465 1903.0 468.5Q1894.0 472 1890.0 483Q1882.0 511 1871.5 535.5Q1861.0 560 1840.0 577Q1817.0 596 1782.0 607.5Q1747.0 619 1700.0 619Q1646.0 619 1602.0 597.0Q1558.0 575 1526.5 536.0Q1495.0 497 1478.0 448.0Q1461.0 399 1461.0 345Q1461.0 281 1476.5 224.0Q1492.0 167 1523.5 123.5Q1555.0 80 1600.0 55.5Q1645.0 31 1703.0 31Q1777.0 31 1823.0 63.0Q1869.0 95 1901.0 158Q1909.0 174 1923.0 173.5Q1937.0 173 1937.0 157Q1937.0 145 1934.0 127.0Q1931.0 109 1925.5 88.5Q1920.0 68 1913.0 48Q1909.0 36 1903.0 30.0Q1897.0 24 1885.0 19Q1847.0 3 1795.5 -5.5Q1744.0 -14 1685.0 -14ZM2038.0 -5Q2027.0 -5 2020.5 -1.0Q2014.0 3 2014.0 9Q2014.0 22 2040.0 28Q2076.0 37 2091.5 50.5Q2107.0 64 2107.0 97V550Q2107.0 584 2093.5 598.0Q2080.0 612 2043.0 620Q2029.0 623 2023.0 628.5Q2017.0 634 2017.0 640Q2017.0 647 2023.5 650.5Q2030.0 654 2041.0 654Q2070.0 654 2096.5 653.0Q2123.0 652 2148.0 651.0Q2173.0 650 2200.0 650Q2246.0 650 2297.5 651.0Q2349.0 652 2390.0 652Q2423.0 653 2444.5 655.0Q2466.0 657 2470.0 657Q2477.0 657 2484.5 654.0Q2492.0 651 2493.0 642Q2497.0 609 2503.0 577.0Q2509.0 545 2509.0 521Q2509.0 512 2504.5 507.5Q2500.0 503 2495.0 503Q2490.0 503 2486.0 506.5Q2482.0 510 2479.0 517Q2471.0 540 2464.0 557.0Q2457.0 574 2448.0 583Q2435.0 597 2418.0 605.0Q2401.0 613 2377.0 613H2284.0Q2266.0 613 2251.0 602.5Q2236.0 592 2236.0 573V377Q2236.0 366 2242.5 360.0Q2249.0 354 2258.0 354H2350.0Q2377.0 354 2388.5 369.0Q2400.0 384 2408.0 410Q2415.0 430 2427.0 430Q2432.0 430 2436.0 424.5Q2440.0 419 2440.0 410Q2439.0 400 2438.0 386.0Q2437.0 372 2436.5 358.0Q2436.0 344 2436.0 333Q2436.0 321 2436.5 306.0Q2437.0 291 2437.5 276.5Q2438.0 262 2439.0 252Q2440.0 241 2437.5 235.0Q2435.0 229 2429.0 229Q2413.0 229 2406.0 257Q2398.0 285 2387.0 299.0Q2376.0 313 2357.0 313H2263.0Q2250.0 313 2243.0 308.0Q2236.0 303 2236.0 289V99Q2236.0 66 2250.0 53.0Q2264.0 40 2293.0 40H2375.0Q2400.0 40 2420.5 45.0Q2441.0 50 2456.0 61Q2473.0 73 2486.5 93.5Q2500.0 114 2513.0 139Q2517.0 147 2521.0 149.5Q2525.0 152 2531.0 152Q2536.0 151 2538.5 146.0Q2541.0 141 2541.0 135Q2541.0 121 2536.0 99.0Q2531.0 77 2523.5 53.5Q2516.0 30 2510.0 10Q2507.0 3 2502.0 -0.5Q2497.0 -4 2490.0 -4Q2466.0 -4 2428.5 -3.5Q2391.0 -3 2347.0 -2.0Q2303.0 -1 2257.0 -0.5Q2211.0 0 2169.0 0Q2148.0 0 2126.5 -1.0Q2105.0 -2 2083.0 -3.5Q2061.0 -5 2038.0 -5ZM3236.0 -18Q3224.0 -18 3196.0 -3.0Q3168.0 12 3139.0 49Q3122.0 68 3097.5 95.5Q3073.0 123 3043.5 156.0Q3014.0 189 2982.0 225.0Q2950.0 261 2918.5 297.0Q2887.0 333 2857.0 366.0Q2827.0 399 2802.0 426.5Q2777.0 454 2760.0 474Q2756.0 479 2751.5 482.5Q2747.0 486 2744.0 486Q2740.0 486 2738.0 479.0Q2736.0 472 2736.0 466Q2736.0 420 2736.5 357.0Q2737.0 294 2737.0 229.0Q2737.0 164 2737.0 109Q2737.0 78 2755.0 58.0Q2773.0 38 2812.0 29Q2824.0 27 2832.5 22.5Q2841.0 18 2841.0 10Q2841.0 3 2833.0 0.0Q2825.0 -3 2815.0 -3Q2788.0 -3 2772.0 -2.0Q2756.0 -1 2743.0 0.0Q2730.0 1 2710.0 1Q2689.0 1 2672.5 0.0Q2656.0 -1 2643.0 -2.5Q2630.0 -4 2618.0 -4Q2608.0 -4 2600.0 -0.5Q2592.0 3 2592.0 9Q2592.0 17 2599.5 21.5Q2607.0 26 2620.0 30Q2646.0 38 2658.5 59.5Q2671.0 81 2674.0 111Q2678.0 149 2682.0 210.5Q2686.0 272 2689.5 349.0Q2693.0 426 2693.0 508Q2693.0 560 2666.5 583.0Q2640.0 606 2600.0 620Q2593.0 622 2582.0 628.0Q2571.0 634 2571.0 643Q2571.0 652 2579.0 655.0Q2587.0 658 2596.0 658Q2617.0 658 2638.0 657.0Q2659.0 656 2680.5 655.5Q2702.0 655 2725.5 654.0Q2749.0 653 2776.0 653Q2785.0 653 2789.5 649.5Q2794.0 646 2798.0 640Q2814.0 621 2839.0 592.5Q2864.0 564 2893.5 529.5Q2923.0 495 2955.5 457.0Q2988.0 419 3020.5 381.0Q3053.0 343 3083.0 308.5Q3113.0 274 3137.5 245.5Q3162.0 217 3178.0 199Q3182.0 195 3187.5 189.0Q3193.0 183 3197.0 183Q3205.0 183 3206.0 200Q3206.0 226 3206.0 266.5Q3206.0 307 3206.5 356.5Q3207.0 406 3206.5 458.0Q3206.0 510 3205.0 558Q3204.0 583 3184.5 597.5Q3165.0 612 3136.0 618Q3124.0 621 3113.5 625.5Q3103.0 630 3103.0 639Q3103.0 646 3113.5 649.0Q3124.0 652 3133.0 652Q3153.0 652 3166.5 652.0Q3180.0 652 3192.0 651.5Q3204.0 651 3217.0 651Q3239.0 651 3253.0 651.5Q3267.0 652 3283.5 653.0Q3300.0 654 3327.0 654Q3339.0 654 3346.5 650.5Q3354.0 647 3354.0 641Q3354.0 626 3325.0 620Q3290.0 613 3275.5 601.0Q3261.0 589 3260.0 561Q3260.0 536 3259.5 497.0Q3259.0 458 3258.0 412.0Q3257.0 366 3255.5 318.0Q3254.0 270 3253.5 224.0Q3253.0 178 3253.0 141Q3253.0 117 3255.0 92.0Q3257.0 67 3259.5 47.5Q3262.0 28 3262.0 20Q3262.0 -2 3255.0 -10.0Q3248.0 -18 3236.0 -18ZM3573.0 -4Q3563.0 -4 3555.5 -0.5Q3548.0 3 3548.0 9Q3548.0 17 3555.0 22.0Q3562.0 27 3575.0 29Q3613.0 37 3631.0 51.5Q3649.0 66 3649.0 99V504Q3649.0 545 3647.0 566.0Q3645.0 587 3641.5 594.5Q3638.0 602 3631.0 603Q3621.0 607 3606.0 608.0Q3591.0 609 3577.0 609H3546.0Q3517.0 609 3490.0 595.5Q3463.0 582 3448.0 559Q3444.0 553 3435.5 542.0Q3427.0 531 3417.5 522.0Q3408.0 513 3398.0 513Q3391.0 513 3388.5 518.0Q3386.0 523 3386.0 529Q3386.0 541 3392.0 553Q3409.0 587 3417.5 612.5Q3426.0 638 3429.0 673Q3431.0 688 3437.5 692.5Q3444.0 697 3451.0 697Q3457.0 697 3465.5 684.5Q3474.0 672 3481.0 664Q3490.0 655 3513.0 650.5Q3536.0 646 3552.0 646L3921.0 647Q3949.0 647 3968.0 651.5Q3987.0 656 3998.0 661Q4013.0 670 4022.0 679.5Q4031.0 689 4043.0 689Q4048.0 689 4050.5 683.5Q4053.0 678 4053.0 670Q4053.0 665 4052.0 658.5Q4051.0 652 4050.0 647Q4046.0 628 4042.0 613.5Q4038.0 599 4035.5 586.5Q4033.0 574 4033.0 558V541Q4033.0 527 4029.0 517.0Q4025.0 507 4016.0 507Q4008.0 507 4002.5 516.5Q3997.0 526 3991.0 546Q3982.0 578 3961.0 593.5Q3940.0 609 3895.0 609H3827.0Q3808.0 609 3797.5 602.0Q3787.0 595 3782.5 571.5Q3778.0 548 3778.0 499V100Q3778.0 68 3796.0 53.5Q3814.0 39 3853.0 29Q3865.0 26 3872.0 22.0Q3879.0 18 3879.0 10Q3879.0 3 3872.5 0.0Q3866.0 -3 3856.0 -3Q3832.0 -3 3808.0 -2.0Q3784.0 -1 3760.5 0.0Q3737.0 1 3715.0 1Q3693.0 1 3669.5 0.0Q3646.0 -1 3621.5 -2.5Q3597.0 -4 3573.0 -4ZM4693.0 -21Q4650.0 -21 4618.0 -11.5Q4586.0 -2 4563.0 16.0Q4540.0 34 4521.0 58Q4499.0 88 4478.0 116.5Q4457.0 145 4435.5 179.5Q4414.0 214 4388.0 262Q4375.0 285 4355.0 296Q4342.0 303 4328.5 306.0Q4315.0 309 4306.0 309Q4300.0 310 4297.0 304.0Q4294.0 298 4294.0 289V103Q4294.0 72 4310.5 55.0Q4327.0 38 4367.0 29Q4380.0 27 4386.0 22.5Q4392.0 18 4392.0 10Q4392.0 3 4386.5 0.0Q4381.0 -3 4370.0 -3Q4347.0 -3 4323.0 -1.5Q4299.0 0 4276.5 1.0Q4254.0 2 4234.0 2Q4212.0 2 4188.5 1.0Q4165.0 0 4141.0 -2.0Q4117.0 -4 4093.0 -4Q4084.0 -4 4077.0 -0.5Q4070.0 3 4070.0 9Q4070.0 24 4095.0 29Q4133.0 37 4149.0 51.0Q4165.0 65 4165.0 98V540Q4165.0 569 4160.5 584.5Q4156.0 600 4143.0 608.0Q4130.0 616 4104.0 620Q4090.0 622 4084.0 628.0Q4078.0 634 4078.0 640Q4078.0 647 4084.5 650.5Q4091.0 654 4102.0 654Q4132.0 654 4150.0 653.0Q4168.0 652 4184.5 650.5Q4201.0 649 4224.0 649Q4246.0 649 4263.0 651.0Q4280.0 653 4301.0 655.0Q4322.0 657 4355.0 657Q4470.0 657 4531.0 617.0Q4592.0 577 4592.0 495Q4592.0 450 4573.0 418.5Q4554.0 387 4525.5 367.0Q4497.0 347 4467.0 336Q4463.0 335 4463.5 331.0Q4464.0 327 4467.0 324Q4497.0 278 4525.5 236.5Q4554.0 195 4585.5 158.0Q4617.0 121 4654.0 87Q4685.0 58 4717.5 52.5Q4750.0 47 4785.0 47Q4800.0 47 4800.0 32Q4800.0 12 4785.0 0.5Q4770.0 -11 4745.5 -16.0Q4721.0 -21 4693.0 -21ZM4337.0 338Q4378.0 338 4405.5 356.5Q4433.0 375 4447.5 406.0Q4462.0 437 4462.0 475Q4462.0 520 4451.0 551.5Q4440.0 583 4413.5 600.5Q4387.0 618 4341.0 618Q4315.0 618 4305.5 599.5Q4296.0 581 4295.0 525Q4294.0 502 4294.0 464.5Q4294.0 427 4294.0 375Q4294.0 353 4305.5 345.5Q4317.0 338 4337.0 338ZM4835.0 -4Q4826.0 -4 4819.0 -0.5Q4812.0 3 4812.0 9Q4812.0 24 4837.0 29Q4875.0 37 4892.0 51.0Q4909.0 65 4909.0 97V551Q4909.0 584 4895.0 598.0Q4881.0 612 4842.0 620Q4817.0 625 4817.0 641Q4817.0 647 4824.0 650.5Q4831.0 654 4840.0 654Q4864.0 654 4887.0 653.0Q4910.0 652 4931.5 651.0Q4953.0 650 4975.0 650Q4996.0 650 5017.5 651.0Q5039.0 652 5062.0 653.0Q5085.0 654 5109.0 654Q5119.0 654 5125.0 650.5Q5131.0 647 5131.0 640Q5131.0 632 5124.5 627.5Q5118.0 623 5106.0 620Q5066.0 610 5052.0 596.0Q5038.0 582 5038.0 550V98Q5038.0 67 5054.5 53.0Q5071.0 39 5109.0 29Q5122.0 26 5128.5 22.0Q5135.0 18 5135.0 10Q5135.0 3 5129.0 0.0Q5123.0 -3 5113.0 -3Q5089.0 -3 5065.0 -2.0Q5041.0 -1 5018.5 0.0Q4996.0 1 4975.0 1Q4953.0 1 4930.0 0.0Q4907.0 -1 4883.0 -2.5Q4859.0 -4 4835.0 -4ZM5556.0 -14Q5481.0 -14 5414.0 9.5Q5347.0 33 5295.5 77.0Q5244.0 121 5214.5 182.5Q5185.0 244 5185.0 319Q5185.0 389 5214.0 451.0Q5243.0 513 5296.0 561.0Q5349.0 609 5422.5 636.5Q5496.0 664 5584.0 664Q5618.0 664 5648.5 659.5Q5679.0 655 5708.0 648.5Q5737.0 642 5765.0 632Q5776.0 628 5782.5 621.0Q5789.0 614 5790.0 602Q5794.0 572 5796.0 542.5Q5798.0 513 5798.0 484Q5799.0 474 5791.0 469.5Q5783.0 465 5774.0 468.5Q5765.0 472 5761.0 483Q5753.0 511 5742.5 535.5Q5732.0 560 5711.0 577Q5688.0 596 5653.0 607.5Q5618.0 619 5571.0 619Q5517.0 619 5473.0 597.0Q5429.0 575 5397.5 536.0Q5366.0 497 5349.0 448.0Q5332.0 399 5332.0 345Q5332.0 281 5347.5 224.0Q5363.0 167 5394.5 123.5Q5426.0 80 5471.0 55.5Q5516.0 31 5574.0 31Q5648.0 31 5694.0 63.0Q5740.0 95 5772.0 158Q5780.0 174 5794.0 173.5Q5808.0 173 5808.0 157Q5808.0 145 5805.0 127.0Q5802.0 109 5796.5 88.5Q5791.0 68 5784.0 48Q5780.0 36 5774.0 30.0Q5768.0 24 5756.0 19Q5718.0 3 5666.5 -5.5Q5615.0 -14 5556.0 -14ZM5900.0 -4Q5891.0 -4 5884.0 -0.5Q5877.0 3 5877.0 9Q5877.0 24 5902.0 29Q5940.0 37 5957.0 51.0Q5974.0 65 5974.0 97V551Q5974.0 584 5960.0 598.0Q5946.0 612 5907.0 620Q5882.0 625 5882.0 641Q5882.0 647 5889.0 650.5Q5896.0 654 5905.0 654Q5929.0 654 5952.0 653.0Q5975.0 652 5996.5 651.0Q6018.0 650 6040.0 650Q6061.0 650 6082.5 651.0Q6104.0 652 6127.0 653.0Q6150.0 654 6174.0 654Q6184.0 654 6190.0 650.5Q6196.0 647 6196.0 640Q6196.0 632 6189.5 627.5Q6183.0 623 6171.0 620Q6131.0 610 6117.0 596.0Q6103.0 582 6103.0 550V98Q6103.0 67 6119.5 53.0Q6136.0 39 6174.0 29Q6187.0 26 6193.5 22.0Q6200.0 18 6200.0 10Q6200.0 3 6194.0 0.0Q6188.0 -3 6178.0 -3Q6154.0 -3 6130.0 -2.0Q6106.0 -1 6083.5 0.0Q6061.0 1 6040.0 1Q6018.0 1 5995.0 0.0Q5972.0 -1 5948.0 -2.5Q5924.0 -4 5900.0 -4ZM6425.0 -4Q6415.0 -4 6407.5 -0.5Q6400.0 3 6400.0 9Q6400.0 17 6407.0 22.0Q6414.0 27 6427.0 29Q6465.0 37 6483.0 51.5Q6501.0 66 6501.0 99V504Q6501.0 545 6499.0 566.0Q6497.0 587 6493.5 594.5Q6490.0 602 6483.0 603Q6473.0 607 6458.0 608.0Q6443.0 609 6429.0 609H6398.0Q6369.0 609 6342.0 595.5Q6315.0 582 6300.0 559Q6296.0 553 6287.5 542.0Q6279.0 531 6269.5 522.0Q6260.0 513 6250.0 513Q6243.0 513 6240.5 518.0Q6238.0 523 6238.0 529Q6238.0 541 6244.0 553Q6261.0 587 6269.5 612.5Q6278.0 638 6281.0 673Q6283.0 688 6289.5 692.5Q6296.0 697 6303.0 697Q6309.0 697 6317.5 684.5Q6326.0 672 6333.0 664Q6342.0 655 6365.0 650.5Q6388.0 646 6404.0 646L6773.0 647Q6801.0 647 6820.0 651.5Q6839.0 656 6850.0 661Q6865.0 670 6874.0 679.5Q6883.0 689 6895.0 689Q6900.0 689 6902.5 683.5Q6905.0 678 6905.0 670Q6905.0 665 6904.0 658.5Q6903.0 652 6902.0 647Q6898.0 628 6894.0 613.5Q6890.0 599 6887.5 586.5Q6885.0 574 6885.0 558V541Q6885.0 527 6881.0 517.0Q6877.0 507 6868.0 507Q6860.0 507 6854.5 516.5Q6849.0 526 6843.0 546Q6834.0 578 6813.0 593.5Q6792.0 609 6747.0 609H6679.0Q6660.0 609 6649.5 602.0Q6639.0 595 6634.5 571.5Q6630.0 548 6630.0 499V100Q6630.0 68 6648.0 53.5Q6666.0 39 6705.0 29Q6717.0 26 6724.0 22.0Q6731.0 18 6731.0 10Q6731.0 3 6724.5 0.0Q6718.0 -3 6708.0 -3Q6684.0 -3 6660.0 -2.0Q6636.0 -1 6612.5 0.0Q6589.0 1 6567.0 1Q6545.0 1 6521.5 0.0Q6498.0 -1 6473.5 -2.5Q6449.0 -4 6425.0 -4ZM7092.0 -6Q7079.0 -6 7071.5 -2.0Q7064.0 2 7064.0 9Q7064.0 17 7072.5 21.5Q7081.0 26 7094.0 29Q7132.0 36 7149.0 56.0Q7166.0 76 7166.0 109V251Q7166.0 280 7156.0 303.5Q7146.0 327 7137.0 343L7012.0 540Q7004.0 553 6991.5 569.5Q6979.0 586 6964.0 600.0Q6949.0 614 6930.0 619Q6918.0 623 6910.5 627.5Q6903.0 632 6903.0 640Q6903.0 647 6910.0 650.5Q6917.0 654 6927.0 654Q6963.0 654 6998.5 651.5Q7034.0 649 7074.0 649Q7103.0 649 7129.5 651.5Q7156.0 654 7184.0 654Q7194.0 654 7203.0 650.5Q7212.0 647 7212.0 640Q7212.0 632 7203.0 627.0Q7194.0 622 7182.0 619Q7159.0 614 7147.5 607.0Q7136.0 600 7136.0 586Q7136.0 571 7148.0 551L7247.0 376Q7260.0 351 7269.0 351Q7274.0 351 7279.0 357.0Q7284.0 363 7292.0 376Q7316.0 415 7336.0 453.0Q7356.0 491 7379.0 536Q7385.0 548 7388.5 559.5Q7392.0 571 7392.0 580Q7392.0 600 7376.0 608.5Q7360.0 617 7343.0 619Q7333.0 620 7322.0 626.0Q7311.0 632 7311.0 640Q7311.0 647 7320.0 650.0Q7329.0 653 7340.0 653Q7367.0 653 7387.5 651.0Q7408.0 649 7433.0 649Q7461.0 649 7486.5 652.0Q7512.0 655 7536.0 655Q7548.0 655 7556.5 652.0Q7565.0 649 7565.0 641Q7565.0 632 7553.0 627.5Q7541.0 623 7527.0 619Q7499.0 611 7479.0 592.0Q7459.0 573 7440.0 543Q7423.0 515 7408.0 491.5Q7393.0 468 7379.5 446.5Q7366.0 425 7352.0 402.5Q7338.0 380 7322.0 353Q7312.0 336 7306.5 322.0Q7301.0 308 7298.0 293.0Q7295.0 278 7295.0 258V110Q7295.0 73 7312.0 55.5Q7329.0 38 7367.0 29Q7381.0 26 7389.5 22.0Q7398.0 18 7398.0 9Q7398.0 3 7390.5 -1.0Q7383.0 -5 7371.0 -5Q7347.0 -5 7323.0 -3.0Q7299.0 -1 7276.5 0.5Q7254.0 2 7232.0 2Q7210.0 2 7187.0 0.5Q7164.0 -1 7140.0 -3.5Q7116.0 -6 7092.0 -6Z" transform="matrix(0.020120 0 0 -0.020120 73.64 390.67)" fill="#15130f"/></svg>