<svg xmlns="http://www.w3.org/2000/svg" viewBox="0 0 300 446"><rect width="300" height="446" fill="#f4ecd8"/><rect x="20.0" y="25.5" width="260" height="395" rx="20.3" fill="#f4ecd8" stroke="#15130f" stroke-width="1.5"/><rect x="36.9" y="42.4" width="226.2" height="354.7" fill="none" stroke="#15130f" stroke-width="0.7"/><g fill="none" stroke="#15130f" stroke-width="0.65" stroke-opacity="0.72" stroke-linecap="round" stroke-linejoin="round"><line x1="36.9" y1="210.4" x2="263.1" y2="210.4"/></g><path d="M36.9,370.6 H263.1 V397.1 H36.9 Z" fill="#d9cf9a"/><g fill="none" stroke="#15130f" stroke-width="0.8"><line x1="36.9" y1="370.6" x2="263.1" y2="370.6"/><line x1="61.6" y1="370.6" x2="61.6" y2="397.1"/><line x1="238.4" y1="370.6" x2="238.4" y2="397.1"/></g><rect x="141.4" y="34.4" width="17.2" height="19.0" fill="#d9cf9a" stroke="#15130f" stroke-width="0.8"/><path d="M731.0 1093H467.0L377.0 1095L276.0 1077Q209.0 1046 197.0 961Q190.0 917 170.0 915Q139.0 913 139.0 965Q139.0 1051 170.0 1146L196.0 1225L203.0 1262Q208.0 1287 239.0 1287Q249.0 1287 279.0 1285Q310.0 1282 401.0 1282H808.0Q871.0 1282 886.5 1270.5Q902.0 1259 902.0 1214Q902.0 1092 809.0 873L717.0 658Q578.0 330 578.0 161Q578.0 67 592.0 11L604.0 -35Q606.0 -41 606.0 -47Q606.0 -64 575.0 -70Q570.0 -71 557.0 -75Q476.0 -101 435.0 -101Q377.0 -101 357.5 -74.5Q338.0 -48 338.0 28Q338.0 262 500.0 501L605.0 657Q677.0 762 737.5 889.5Q798.0 1017 798.0 1061Q798.0 1093 731.0 1093Z" transform="matrix(0.006858 0 0 -0.006858 146.43 48.74)" fill="#15130f"/><path d="M450.0 1050V690Q569.0 900 750.0 900Q934.0 900 1042.0 757.0Q1150.0 614 1150.0 429Q1150.0 290 1050.0 130.5Q950.0 -29 950.0 -150Q950.0 -420 1132.0 -450Q1179.0 -450 1240.0 -420L1260.0 -450Q1183.0 -500 1102.0 -500Q954.0 -500 852.0 -391.0Q750.0 -282 750.0 -150Q750.0 -44 850.0 129.5Q950.0 303 950.0 429Q950.0 573 887.5 686.5Q825.0 800 706.0 800Q551.0 800 450.0 576V200Q450.0 150 490.0 95.0Q530.0 40 600.0 40H650.0V0H50.0V40H100.0Q170.0 40 210.0 95.0Q250.0 150 250.0 200V1050H50.0V1150H250.0V1200Q250.0 1250 210.0 1305.0Q170.0 1360 100.0 1360H50.0V1400H650.0V1360H600.0Q530.0 1360 490.0 1305.0Q450.0 1250 450.0 1200V1150H650.0V1050Z" transform="matrix(0.009268 0 0 -0.009268 43.18 388.04)" fill="#15130f"/><path d="M50.0 100H1650.0V0H50.0ZM50.0 300V400H339.0Q300.0 491 300.0 600Q300.0 815 451.0 962.5Q602.0 1110 850.0 1110Q1098.0 1110 1249.0 962.5Q1400.0 815 1400.0 600Q1400.0 491 1361.0 400H1650.0V300H1090.0Q1099.0 310 1149.5 403.0Q1200.0 496 1200.0 600Q1200.0 750 1106.5 880.0Q1013.0 1010 850.0 1010Q684.0 1010 592.0 880.0Q500.0 750 500.0 600Q500.0 496 550.0 403.0Q600.0 310 608.0 300Z" transform="matrix(0.009268 0 0 -0.009268 242.87 389.01)" fill="#15130f"/><path d="M379.0 -7Q352.0 -7 314.0 -5.0Q276.0 -3 237.5 -1.5Q199.0 0 174.0 0Q154.0 0 133.5 -0.5Q113.0 -1 91.0 -2.5Q69.0 -4 44.0 -4Q35.0 -4 28.0 -0.5Q21.0 3 21.0 10Q21.0 19 27.5 23.0Q34.0 27 47.0 29Q85.0 37 99.0 51.0Q113.0 65 113.0 98V550Q113.0 584 99.5 598.0Q86.0 612 47.0 620Q34.0 622 27.5 626.5Q21.0 631 21.0 640Q21.0 647 28.0 650.5Q35.0 654 44.0 654Q68.0 654 90.0 653.5Q112.0 653 133.5 651.5Q155.0 650 177.0 650Q192.0 650 217.5 651.5Q243.0 653 272.5 654.5Q302.0 656 328.0 657.5Q354.0 659 370.0 659Q454.0 659 521.0 635.0Q588.0 611 635.5 568.0Q683.0 525 708.0 466.0Q733.0 407 733.0 338Q733.0 269 708.0 207.0Q683.0 145 636.5 97.0Q590.0 49 524.5 21.0Q459.0 -7 379.0 -7ZM364.0 39Q436.0 39 486.5 73.5Q537.0 108 563.0 170.5Q589.0 233 589.0 315Q589.0 383 571.5 438.5Q554.0 494 522.5 532.5Q491.0 571 447.5 592.0Q404.0 613 353.0 613Q317.0 613 292.5 611.0Q268.0 609 255.5 599.5Q243.0 590 243.0 568V128Q243.0 93 258.5 73.5Q274.0 54 301.5 46.5Q329.0 39 364.0 39ZM811.0 -5Q800.0 -5 793.5 -1.0Q787.0 3 787.0 9Q787.0 22 813.0 28Q849.0 37 864.5 50.5Q880.0 64 880.0 97V550Q880.0 584 866.5 598.0Q853.0 612 816.0 620Q802.0 623 796.0 628.5Q790.0 634 790.0 640Q790.0 647 796.5 650.5Q803.0 654 814.0 654Q843.0 654 869.5 653.0Q896.0 652 921.0 651.0Q946.0 650 973.0 650Q1019.0 650 1070.5 651.0Q1122.0 652 1163.0 652Q1196.0 653 1217.5 655.0Q1239.0 657 1243.0 657Q1250.0 657 1257.5 654.0Q1265.0 651 1266.0 642Q1270.0 609 1276.0 577.0Q1282.0 545 1282.0 521Q1282.0 512 1277.5 507.5Q1273.0 503 1268.0 503Q1263.0 503 1259.0 506.5Q1255.0 510 1252.0 517Q1244.0 540 1237.0 557.0Q1230.0 574 1221.0 583Q1208.0 597 1191.0 605.0Q1174.0 613 1150.0 613H1057.0Q1039.0 613 1024.0 602.5Q1009.0 592 1009.0 573V377Q1009.0 366 1015.5 360.0Q1022.0 354 1031.0 354H1123.0Q1150.0 354 1161.5 369.0Q1173.0 384 1181.0 410Q1188.0 430 1200.0 430Q1205.0 430 1209.0 424.5Q1213.0 419 1213.0 410Q1212.0 400 1211.0 386.0Q1210.0 372 1209.5 358.0Q1209.0 344 1209.0 333Q1209.0 321 1209.5 306.0Q1210.0 291 1210.5 276.5Q1211.0 262 1212.0 252Q1213.0 241 1210.5 235.0Q1208.0 229 1202.0 229Q1186.0 229 1179.0 257Q1171.0 285 1160.0 299.0Q1149.0 313 1130.0 313H1036.0Q1023.0 313 1016.0 308.0Q1009.0 303 1009.0 289V99Q1009.0 66 1023.0 53.0Q1037.0 40 1066.0 40H1148.0Q1173.0 40 1193.5 45.0Q1214.0 50 1229.0 61Q1246.0 73 1259.5 93.5Q1273.0 114 1286.0 139Q1290.0 147 1294.0 149.5Q1298.0 152 1304.0 152Q1309.0 151 1311.5 146.0Q1314.0 141 1314.0 135Q1314.0 121 1309.0 99.0Q1304.0 77 1296.5 53.5Q1289.0 30 1283.0 10Q1280.0 3 1275.0 -0.5Q1270.0 -4 1263.0 -4Q1239.0 -4 1201.5 -3.5Q1164.0 -3 1120.0 -2.0Q1076.0 -1 1030.0 -0.5Q984.0 0 942.0 0Q921.0 0 899.5 -1.0Q878.0 -2 856.0 -3.5Q834.0 -5 811.0 -5ZM1671.0 -15Q1659.0 -15 1654.0 -2Q1648.0 11 1639.0 34.0Q1630.0 57 1623.0 76L1432.0 549Q1422.0 574 1405.0 592.5Q1388.0 611 1360.0 619Q1348.0 623 1340.5 627.5Q1333.0 632 1333.0 640Q1333.0 647 1340.0 650.5Q1347.0 654 1357.0 654Q1375.0 654 1399.5 653.0Q1424.0 652 1449.0 651.0Q1474.0 650 1495.0 650Q1515.0 650 1541.0 651.0Q1567.0 652 1591.5 653.0Q1616.0 654 1633.0 654Q1643.0 654 1652.0 650.5Q1661.0 647 1661.0 640Q1661.0 632 1652.0 626.5Q1643.0 621 1630.0 619Q1601.0 614 1585.5 605.5Q1570.0 597 1570.0 580Q1570.0 570 1573.0 561.0Q1576.0 552 1577.0 545L1712.0 177Q1714.0 172 1716.5 171.0Q1719.0 170 1722.0 178L1845.0 502Q1865.0 554 1851.5 583.5Q1838.0 613 1798.0 619Q1785.0 621 1775.5 626.5Q1766.0 632 1766.0 640Q1766.0 647 1775.0 650.0Q1784.0 653 1795.0 653Q1813.0 653 1828.0 652.5Q1843.0 652 1858.0 651.5Q1873.0 651 1892.0 651Q1921.0 651 1949.5 653.0Q1978.0 655 2003.0 655Q2015.0 655 2024.0 652.0Q2033.0 649 2033.0 641Q2033.0 632 2024.5 628.0Q2016.0 624 2004.0 621Q1971.0 613 1949.5 589.0Q1928.0 565 1912.0 527L1748.0 133Q1737.0 106 1726.5 82.0Q1716.0 58 1707.5 37.0Q1699.0 16 1690.0 -2Q1687.0 -9 1683.0 -12.0Q1679.0 -15 1671.0 -15ZM2404.0 -14Q2336.0 -14 2274.0 9.5Q2212.0 33 2164.5 76.5Q2117.0 120 2089.5 180.5Q2062.0 241 2062.0 315Q2062.0 383 2084.5 445.5Q2107.0 508 2151.5 557.0Q2196.0 606 2261.5 635.0Q2327.0 664 2413.0 664Q2481.0 664 2542.5 640.5Q2604.0 617 2652.0 573.5Q2700.0 530 2727.5 469.5Q2755.0 409 2755.0 335Q2755.0 268 2732.5 205.0Q2710.0 142 2665.5 93.0Q2621.0 44 2555.5 15.0Q2490.0 -14 2404.0 -14ZM2421.0 30Q2484.0 30 2526.5 62.0Q2569.0 94 2590.5 151.5Q2612.0 209 2612.0 284Q2612.0 348 2599.0 408.0Q2586.0 468 2559.0 515.5Q2532.0 563 2491.5 591.0Q2451.0 619 2395.0 619Q2332.0 619 2289.5 587.0Q2247.0 555 2226.0 498.0Q2205.0 441 2205.0 366Q2205.0 302 2218.0 242.0Q2231.0 182 2257.5 134.0Q2284.0 86 2324.5 58.0Q2365.0 30 2421.0 30ZM2998.0 -4Q2988.0 -4 2980.5 -0.5Q2973.0 3 2973.0 9Q2973.0 17 2980.0 22.0Q2987.0 27 3000.0 29Q3038.0 37 3056.0 51.5Q3074.0 66 3074.0 99V504Q3074.0 545 3072.0 566.0Q3070.0 587 3066.5 594.5Q3063.0 602 3056.0 603Q3046.0 607 3031.0 608.0Q3016.0 609 3002.0 609H2971.0Q2942.0 609 2915.0 595.5Q2888.0 582 2873.0 559Q2869.0 553 2860.5 542.0Q2852.0 531 2842.5 522.0Q2833.0 513 2823.0 513Q2816.0 513 2813.5 518.0Q2811.0 523 2811.0 529Q2811.0 541 2817.0 553Q2834.0 587 2842.5 612.5Q2851.0 638 2854.0 673Q2856.0 688 2862.5 692.5Q2869.0 697 2876.0 697Q2882.0 697 2890.5 684.5Q2899.0 672 2906.0 664Q2915.0 655 2938.0 650.5Q2961.0 646 2977.0 646L3346.0 647Q3374.0 647 3393.0 651.5Q3412.0 656 3423.0 661Q3438.0 670 3447.0 679.5Q3456.0 689 3468.0 689Q3473.0 689 3475.5 683.5Q3478.0 678 3478.0 670Q3478.0 665 3477.0 658.5Q3476.0 652 3475.0 647Q3471.0 628 3467.0 613.5Q3463.0 599 3460.5 586.5Q3458.0 574 3458.0 558V541Q3458.0 527 3454.0 517.0Q3450.0 507 3441.0 507Q3433.0 507 3427.5 516.5Q3422.0 526 3416.0 546Q3407.0 578 3386.0 593.5Q3365.0 609 3320.0 609H3252.0Q3233.0 609 3222.5 602.0Q3212.0 595 3207.5 571.5Q3203.0 548 3203.0 499V100Q3203.0 68 3221.0 53.5Q3239.0 39 3278.0 29Q3290.0 26 3297.0 22.0Q3304.0 18 3304.0 10Q3304.0 3 3297.5 0.0Q3291.0 -3 3281.0 -3Q3257.0 -3 3233.0 -2.0Q3209.0 -1 3185.5 0.0Q3162.0 1 3140.0 1Q3118.0 1 3094.5 0.0Q3071.0 -1 3046.5 -2.5Q3022.0 -4 2998.0 -4ZM3516.0 -4Q3507.0 -4 3500.0 -0.5Q3493.0 3 3493.0 9Q3493.0 24 3518.0 29Q3556.0 37 3573.0 51.0Q3590.0 65 3590.0 97V551Q3590.0 584 3576.0 598.0Q3562.0 612 3523.0 620Q3498.0 625 3498.0 641Q3498.0 647 3505.0 650.5Q3512.0 654 3521.0 654Q3545.0 654 3568.0 653.0Q3591.0 652 3612.5 651.0Q3634.0 650 3656.0 650Q3677.0 650 3698.5 651.0Q3720.0 652 3743.0 653.0Q3766.0 654 3790.0 654Q3800.0 654 3806.0 650.5Q3812.0 647 3812.0 640Q3812.0 632 3805.5 627.5Q3799.0 623 3787.0 620Q3747.0 610 3733.0 596.0Q3719.0 582 3719.0 550V98Q3719.0 67 3735.5 53.0Q3752.0 39 3790.0 29Q3803.0 26 3809.5 22.0Q3816.0 18 3816.0 10Q3816.0 3 3810.0 0.0Q3804.0 -3 3794.0 -3Q3770.0 -3 3746.0 -2.0Q3722.0 -1 3699.5 0.0Q3677.0 1 3656.0 1Q3634.0 1 3611.0 0.0Q3588.0 -1 3564.0 -2.5Q3540.0 -4 3516.0 -4ZM4208.0 -14Q4140.0 -14 4078.0 9.5Q4016.0 33 3968.5 76.5Q3921.0 120 3893.5 180.5Q3866.0 241 3866.0 315Q3866.0 383 3888.5 445.5Q3911.0 508 3955.5 557.0Q4000.0 606 4065.5 635.0Q4131.0 664 4217.0 664Q4285.0 664 4346.5 640.5Q4408.0 617 4456.0 573.5Q4504.0 530 4531.5 469.5Q4559.0 409 4559.0 335Q4559.0 268 4536.5 205.0Q4514.0 142 4469.5 93.0Q4425.0 44 4359.5 15.0Q4294.0 -14 4208.0 -14ZM4225.0 30Q4288.0 30 4330.5 62.0Q4373.0 94 4394.5 151.5Q4416.0 209 4416.0 284Q4416.0 348 4403.0 408.0Q4390.0 468 4363.0 515.5Q4336.0 563 4295.5 591.0Q4255.0 619 4199.0 619Q4136.0 619 4093.5 587.0Q4051.0 555 4030.0 498.0Q4009.0 441 4009.0 366Q4009.0 302 4022.0 242.0Q4035.0 182 4061.5 134.0Q4088.0 86 4128.5 58.0Q4169.0 30 4225.0 30ZM5269.0 -18Q5257.0 -18 5229.0 -3.0Q5201.0 12 5172.0 49Q5155.0 68 5130.5 95.5Q5106.0 123 5076.5 156.0Q5047.0 189 5015.0 225.0Q4983.0 261 4951.5 297.0Q4920.0 333 4890.0 366.0Q4860.0 399 4835.0 426.5Q4810.0 454 4793.0 474Q4789.0 479 4784.5 482.5Q4780.0 486 4777.0 486Q4773.0 486 4771.0 479.0Q4769.0 472 4769.0 466Q4769.0 420 4769.5 357.0Q4770.0 294 4770.0 229.0Q4770.0 164 4770.0 109Q4770.0 78 4788.0 58.0Q4806.0 38 4845.0 29Q4857.0 27 4865.5 22.5Q4874.0 18 4874.0 10Q4874.0 3 4866.0 0.0Q4858.0 -3 4848.0 -3Q4821.0 -3 4805.0 -2.0Q4789.0 -1 4776.0 0.0Q4763.0 1 4743.0 1Q4722.0 1 4705.5 0.0Q4689.0 -1 4676.0 -2.5Q4663.0 -4 4651.0 -4Q4641.0 -4 4633.0 -0.5Q4625.0 3 4625.0 9Q4625.0 17 4632.5 21.5Q4640.0 26 4653.0 30Q4679.0 38 4691.5 59.5Q4704.0 81 4707.0 111Q4711.0 149 4715.0 210.5Q4719.0 272 4722.5 349.0Q4726.0 426 4726.0 508Q4726.0 560 4699.5 583.0Q4673.0 606 4633.0 620Q4626.0 622 4615.0 628.0Q4604.0 634 4604.0 643Q4604.0 652 4612.0 655.0Q4620.0 658 4629.0 658Q4650.0 658 4671.0 657.0Q4692.0 656 4713.5 655.5Q4735.0 655 4758.5 654.0Q4782.0 653 4809.0 653Q4818.0 653 4822.5 649.5Q4827.0 646 4831.0 640Q4847.0 621 4872.0 592.5Q4897.0 564 4926.5 529.5Q4956.0 495 4988.5 457.0Q5021.0 419 5053.5 381.0Q5086.0 343 5116.0 308.5Q5146.0 274 5170.5 245.5Q5195.0 217 5211.0 199Q5215.0 195 5220.5 189.0Q5226.0 183 5230.0 183Q5238.0 183 5239.0 200Q5239.0 226 5239.0 266.5Q5239.0 307 5239.5 356.5Q5240.0 406 5239.5 458.0Q5239.0 510 5238.0 558Q5237.0 583 5217.5 597.5Q5198.0 612 5169.0 618Q5157.0 621 5146.5 625.5Q5136.0 630 5136.0 639Q5136.0 646 5146.5 649.0Q5157.0 652 5166.0 652Q5186.0 652 5199.5 652.0Q5213.0 652 5225.0 651.5Q5237.0 651 5250.0 651Q5272.0 651 5286.0 651.5Q5300.0 652 5316.5 653.0Q5333.0 654 5360.0 654Q5372.0 654 5379.5 650.5Q5387.0 647 5387.0 641Q5387.0 626 5358.0 620Q5323.0 613 5308.5 601.0Q5294.0 589 5293.0 561Q5293.0 536 5292.5 497.0Q5292.0 458 5291.0 412.0Q5290.0 366 5288.5 318.0Q5287.0 270 5286.5 224.0Q5286.0 178 5286.0 141Q5286.0 117 5288.0 92.0Q5290.0 67 5292.5 47.5Q5295.0 28 5295.0 20Q5295.0 -2 5288.0 -10.0Q5281.0 -18 5269.0 -18Z" transform="matrix(0.022120 0 0 -0.022120 90.19 391.38)" fill="#15130f"/></svg>