<svg xmlns="http://www.w3.org/2000/svg" viewBox="0 0 300 446"><rect width="300" height="446" fill="#f4ecd8"/><rect x="20.0" y="25.5" width="260" height="395" rx="20.3" fill="#f4ecd8" stroke="#15130f" stroke-width="1.5"/><rect x="36.9" y="42.4" width="226.2" height="354.7" fill="none" stroke="#15130f" stroke-width="0.7"/><g fill="none" stroke="#15130f" stroke-width="0.65" stroke-opacity="0.72" stroke-linecap="round" stroke-linejoin="round"><line x1="36.9" y1="210.4" x2="263.1" y2="210.4"/></g><path d="M36.9,370.6 H263.1 V397.1 H36.9 Z" fill="#d9cf9a"/><g fill="none" stroke="#15130f" stroke-width="0.8"><line x1="36.9" y1="370.6" x2="263.1" y2="370.6"/><line x1="61.6" y1="370.6" x2="61.6" y2="397.1"/><line x1="238.4" y1="370.6" x2="238.4" y2="397.1"/></g><rect x="141.4" y="34.4" width="17.2" height="19.0" fill="#d9cf9a" stroke="#15130f" stroke-width="0.8"/><path d="M649.0 1092V235L647.0 193L657.0 137Q686.0 59 825.0 52Q867.0 50 867.0 28Q867.0 -7 780.0 -7Q761.0 -7 652.0 2Q595.0 7 494.0 7Q394.0 7 322.0 -2Q293.0 -5 280.0 -5Q255.0 -5 255.0 20Q255.0 41 281.0 45Q384.0 61 415.0 92.0Q446.0 123 446.0 210L445.0 248V1010Q445.0 1115 363.0 1115Q331.0 1115 306.0 1104L281.0 1093Q270.0 1089 261.0 1089Q235.0 1089 235.0 1113Q235.0 1137 260.0 1150.0Q285.0 1163 362.0 1180Q506.0 1211 567.0 1267L614.0 1310Q625.0 1320 641.0 1320Q661.0 1320 661.0 1282Q661.0 1271 659.0 1243L651.0 1153Q649.0 1126 649.0 1092ZM1569.0 1307Q1753.0 1307 1878.5 1138.5Q2004.0 970 2004.0 722Q2004.0 567 1951.0 407.5Q1898.0 248 1812.0 142Q1674.0 -27 1496.0 -27Q1308.0 -27 1187.5 146.0Q1067.0 319 1067.0 588Q1067.0 880 1216.0 1093.5Q1365.0 1307 1569.0 1307ZM1470.0 1205Q1366.0 1205 1305.5 1102.0Q1245.0 999 1245.0 824Q1245.0 522 1354.0 312.5Q1463.0 103 1620.0 103Q1723.0 103 1784.0 206.5Q1845.0 310 1845.0 485Q1845.0 644 1797.5 809.0Q1750.0 974 1675.0 1077Q1580.0 1205 1470.0 1205Z" transform="matrix(0.006024 0 0 -0.006024 143.26 48.57)" fill="#15130f"/><path d="M450.0 1050V690Q569.0 900 750.0 900Q934.0 900 1042.0 757.0Q1150.0 614 1150.0 429Q1150.0 290 1050.0 130.5Q950.0 -29 950.0 -150Q950.0 -420 1132.0 -450Q1179.0 -450 1240.0 -420L1260.0 -450Q1183.0 -500 1102.0 -500Q954.0 -500 852.0 -391.0Q750.0 -282 750.0 -150Q750.0 -44 850.0 129.5Q950.0 303 950.0 429Q950.0 573 887.5 686.5Q825.0 800 706.0 800Q551.0 800 450.0 576V200Q450.0 150 490.0 95.0Q530.0 40 600.0 40H650.0V0H50.0V40H100.0Q170.0 40 210.0 95.0Q250.0 150 250.0 200V1050H50.0V1150H250.0V1200Q250.0 1250 210.0 1305.0Q170.0 1360 100.0 1360H50.0V1400H650.0V1360H600.0Q530.0 1360 490.0 1305.0Q450.0 1250 450.0 1200V1150H650.0V1050Z" transform="matrix(0.009268 0 0 -0.009268 43.18 388.04)" fill="#15130f"/><path d="M1415.0 450Q1415.0 359 1443.0 274.5Q1471.0 190 1523.5 145.0Q1576.0 100 1632.0 100Q1689.0 100 1741.5 145.0Q1794.0 190 1822.0 274.5Q1850.0 359 1850.0 450Q1850.0 541 1822.0 625.5Q1794.0 710 1741.5 755.0Q1689.0 800 1632.0 800Q1576.0 800 1523.5 755.0Q1471.0 710 1443.0 625.5Q1415.0 541 1415.0 450ZM1395.0 824Q1409.0 834 1424.0 842Q1524.0 900 1632.0 900Q1741.0 900 1841.5 842.0Q1942.0 784 1996.0 675.5Q2050.0 567 2050.0 450Q2050.0 333 1996.0 224.5Q1942.0 116 1841.5 58.0Q1741.0 0 1632.0 0Q1524.0 0 1424.0 58Q1379.0 84 1343.0 120Q1297.0 25 1221.0 -55Q1027.0 -260 715.0 -260Q483.0 -260 289.0 -55Q278.0 -43 267.0 -31L292.0 4Q446.0 -160 715.0 -160Q952.0 -160 1083.5 35.5Q1215.0 231 1215.0 450Q1215.0 906 1106.0 1305Q927.0 1266 820.0 895Q700.0 479 700.0 0H500.0Q500.0 479 380.0 894.5Q260.0 1310 50.0 1310V1410Q343.0 1410 522.0 1003Q566.0 901 600.0 786Q634.0 901 679.0 1003Q857.0 1410 1150.0 1410H1255.0Q1359.0 1153 1395.0 824Z" transform="matrix(0.009139 0 0 -0.009139 241.15 389.12)" fill="#15130f"/><path d="M642.0 -21Q599.0 -21 567.0 -11.5Q535.0 -2 512.0 16.0Q489.0 34 470.0 58Q448.0 88 427.0 116.5Q406.0 145 384.5 179.5Q363.0 214 337.0 262Q324.0 285 304.0 296Q291.0 303 277.5 306.0Q264.0 309 255.0 309Q249.0 310 246.0 304.0Q243.0 298 243.0 289V103Q243.0 72 259.5 55.0Q276.0 38 316.0 29Q329.0 27 335.0 22.5Q341.0 18 341.0 10Q341.0 3 335.5 0.0Q330.0 -3 319.0 -3Q296.0 -3 272.0 -1.5Q248.0 0 225.5 1.0Q203.0 2 183.0 2Q161.0 2 137.5 1.0Q114.0 0 90.0 -2.0Q66.0 -4 42.0 -4Q33.0 -4 26.0 -0.5Q19.0 3 19.0 9Q19.0 24 44.0 29Q82.0 37 98.0 51.0Q114.0 65 114.0 98V540Q114.0 569 109.5 584.5Q105.0 600 92.0 608.0Q79.0 616 53.0 620Q39.0 622 33.0 628.0Q27.0 634 27.0 640Q27.0 647 33.5 650.5Q40.0 654 51.0 654Q81.0 654 99.0 653.0Q117.0 652 133.5 650.5Q150.0 649 173.0 649Q195.0 649 212.0 651.0Q229.0 653 250.0 655.0Q271.0 657 304.0 657Q419.0 657 480.0 617.0Q541.0 577 541.0 495Q541.0 450 522.0 418.5Q503.0 387 474.5 367.0Q446.0 347 416.0 336Q412.0 335 412.5 331.0Q413.0 327 416.0 324Q446.0 278 474.5 236.5Q503.0 195 534.5 158.0Q566.0 121 603.0 87Q634.0 58 666.5 52.5Q699.0 47 734.0 47Q749.0 47 749.0 32Q749.0 12 734.0 0.5Q719.0 -11 694.5 -16.0Q670.0 -21 642.0 -21ZM286.0 338Q327.0 338 354.5 356.5Q382.0 375 396.5 406.0Q411.0 437 411.0 475Q411.0 520 400.0 551.5Q389.0 583 362.5 600.5Q336.0 618 290.0 618Q264.0 618 254.5 599.5Q245.0 581 244.0 525Q243.0 502 243.0 464.5Q243.0 427 243.0 375Q243.0 353 254.5 345.5Q266.0 338 286.0 338ZM784.0 -4Q775.0 -4 768.0 -0.5Q761.0 3 761.0 9Q761.0 24 786.0 29Q824.0 37 841.0 51.0Q858.0 65 858.0 97V551Q858.0 584 844.0 598.0Q830.0 612 791.0 620Q766.0 625 766.0 641Q766.0 647 773.0 650.5Q780.0 654 789.0 654Q813.0 654 836.0 653.0Q859.0 652 880.5 651.0Q902.0 650 924.0 650Q945.0 650 966.5 651.0Q988.0 652 1011.0 653.0Q1034.0 654 1058.0 654Q1068.0 654 1074.0 650.5Q1080.0 647 1080.0 640Q1080.0 632 1073.5 627.5Q1067.0 623 1055.0 620Q1015.0 610 1001.0 596.0Q987.0 582 987.0 550V98Q987.0 67 1003.5 53.0Q1020.0 39 1058.0 29Q1071.0 26 1077.5 22.0Q1084.0 18 1084.0 10Q1084.0 3 1078.0 0.0Q1072.0 -3 1062.0 -3Q1038.0 -3 1014.0 -2.0Q990.0 -1 967.5 0.0Q945.0 1 924.0 1Q902.0 1 879.0 0.0Q856.0 -1 832.0 -2.5Q808.0 -4 784.0 -4ZM1505.0 -14Q1430.0 -14 1363.0 9.5Q1296.0 33 1244.5 77.0Q1193.0 121 1163.5 182.5Q1134.0 244 1134.0 319Q1134.0 389 1163.0 451.0Q1192.0 513 1245.0 561.0Q1298.0 609 1371.5 636.5Q1445.0 664 1533.0 664Q1567.0 664 1597.5 659.5Q1628.0 655 1657.0 648.5Q1686.0 642 1714.0 632Q1725.0 628 1731.5 621.0Q1738.0 614 1739.0 602Q1743.0 572 1745.0 542.5Q1747.0 513 1747.0 484Q1748.0 474 1740.0 469.5Q1732.0 465 1723.0 468.5Q1714.0 472 1710.0 483Q1702.0 511 1691.5 535.5Q1681.0 560 1660.0 577Q1637.0 596 1602.0 607.5Q1567.0 619 1520.0 619Q1466.0 619 1422.0 597.0Q1378.0 575 1346.5 536.0Q1315.0 497 1298.0 448.0Q1281.0 399 1281.0 345Q1281.0 281 1296.5 224.0Q1312.0 167 1343.5 123.5Q1375.0 80 1420.0 55.5Q1465.0 31 1523.0 31Q1597.0 31 1643.0 63.0Q1689.0 95 1721.0 158Q1729.0 174 1743.0 173.5Q1757.0 173 1757.0 157Q1757.0 145 1754.0 127.0Q1751.0 109 1745.5 88.5Q1740.0 68 1733.0 48Q1729.0 36 1723.0 30.0Q1717.0 24 1705.0 19Q1667.0 3 1615.5 -5.5Q1564.0 -14 1505.0 -14ZM1857.0 -4Q1848.0 -4 1841.0 0.0Q1834.0 4 1834.0 10Q1834.0 24 1859.0 29Q1895.0 37 1907.0 51.0Q1919.0 65 1919.0 98V551Q1919.0 584 1909.0 598.0Q1899.0 612 1862.0 620Q1837.0 625 1837.0 640Q1837.0 647 1843.5 650.5Q1850.0 654 1860.0 654Q1884.0 654 1905.0 653.0Q1926.0 652 1946.0 651.0Q1966.0 650 1986.0 650Q2006.0 650 2027.5 651.0Q2049.0 652 2072.0 653.0Q2095.0 654 2118.0 654Q2140.0 654 2140.0 639Q2140.0 631 2134.0 627.0Q2128.0 623 2115.0 620Q2076.0 610 2062.5 595.0Q2049.0 580 2049.0 550V364Q2049.0 357 2053.5 354.5Q2058.0 352 2064.0 352H2363.0Q2374.0 352 2374.0 366V551Q2374.0 580 2361.0 595.0Q2348.0 610 2309.0 620Q2296.0 623 2289.5 627.0Q2283.0 631 2283.0 639Q2283.0 654 2305.0 654Q2329.0 654 2353.0 653.0Q2377.0 652 2399.5 651.0Q2422.0 650 2443.0 650Q2462.0 650 2480.0 651.0Q2498.0 652 2518.5 653.0Q2539.0 654 2563.0 654Q2572.0 654 2579.0 650.5Q2586.0 647 2586.0 640Q2586.0 625 2560.0 620Q2525.0 612 2514.5 597.0Q2504.0 582 2504.0 551V98Q2504.0 65 2515.0 51.0Q2526.0 37 2562.0 29Q2587.0 24 2587.0 10Q2587.0 4 2580.0 0.0Q2573.0 -4 2564.0 -4Q2541.0 -4 2520.0 -2.5Q2499.0 -1 2478.5 0.0Q2458.0 1 2438.0 1Q2418.0 1 2396.0 0.0Q2374.0 -1 2351.0 -2.0Q2328.0 -3 2304.0 -3Q2295.0 -3 2289.0 0.5Q2283.0 4 2283.0 11Q2283.0 19 2289.0 22.5Q2295.0 26 2307.0 29Q2343.0 38 2358.5 53.0Q2374.0 68 2374.0 98V288Q2374.0 294 2372.5 299.0Q2371.0 304 2364.0 304H2060.0Q2049.0 304 2049.0 289V102Q2049.0 72 2066.5 55.0Q2084.0 38 2120.0 29Q2133.0 26 2139.0 22.5Q2145.0 19 2145.0 11Q2145.0 4 2139.5 0.5Q2134.0 -3 2123.0 -3Q2100.0 -3 2076.0 -2.0Q2052.0 -1 2029.5 0.0Q2007.0 1 1986.0 1Q1965.0 1 1944.0 0.0Q1923.0 -1 1901.0 -2.5Q1879.0 -4 1857.0 -4ZM2662.0 -5Q2651.0 -5 2644.5 -1.0Q2638.0 3 2638.0 9Q2638.0 22 2664.0 28Q2700.0 37 2715.5 50.5Q2731.0 64 2731.0 97V550Q2731.0 584 2717.5 598.0Q2704.0 612 2667.0 620Q2653.0 623 2647.0 628.5Q2641.0 634 2641.0 640Q2641.0 647 2647.5 650.5Q2654.0 654 2665.0 654Q2694.0 654 2720.5 653.0Q2747.0 652 2772.0 651.0Q2797.0 650 2824.0 650Q2870.0 650 2921.5 651.0Q2973.0 652 3014.0 652Q3047.0 653 3068.5 655.0Q3090.0 657 3094.0 657Q3101.0 657 3108.5 654.0Q3116.0 651 3117.0 642Q3121.0 609 3127.0 577.0Q3133.0 545 3133.0 521Q3133.0 512 3128.5 507.5Q3124.0 503 3119.0 503Q3114.0 503 3110.0 506.5Q3106.0 510 3103.0 517Q3095.0 540 3088.0 557.0Q3081.0 574 3072.0 583Q3059.0 597 3042.0 605.0Q3025.0 613 3001.0 613H2908.0Q2890.0 613 2875.0 602.5Q2860.0 592 2860.0 573V377Q2860.0 366 2866.5 360.0Q2873.0 354 2882.0 354H2974.0Q3001.0 354 3012.5 369.0Q3024.0 384 3032.0 410Q3039.0 430 3051.0 430Q3056.0 430 3060.0 424.5Q3064.0 419 3064.0 410Q3063.0 400 3062.0 386.0Q3061.0 372 3060.5 358.0Q3060.0 344 3060.0 333Q3060.0 321 3060.5 306.0Q3061.0 291 3061.5 276.5Q3062.0 262 3063.0 252Q3064.0 241 3061.5 235.0Q3059.0 229 3053.0 229Q3037.0 229 3030.0 257Q3022.0 285 3011.0 299.0Q3000.0 313 2981.0 313H2887.0Q2874.0 313 2867.0 308.0Q2860.0 303 2860.0 289V99Q2860.0 66 2874.0 53.0Q2888.0 40 2917.0 40H2999.0Q3024.0 40 3044.5 45.0Q3065.0 50 3080.0 61Q3097.0 73 3110.5 93.5Q3124.0 114 3137.0 139Q3141.0 147 3145.0 149.5Q3149.0 152 3155.0 152Q3160.0 151 3162.5 146.0Q3165.0 141 3165.0 135Q3165.0 121 3160.0 99.0Q3155.0 77 3147.5 53.5Q3140.0 30 3134.0 10Q3131.0 3 3126.0 -0.5Q3121.0 -4 3114.0 -4Q3090.0 -4 3052.5 -3.5Q3015.0 -3 2971.0 -2.0Q2927.0 -1 2881.0 -0.5Q2835.0 0 2793.0 0Q2772.0 0 2750.5 -1.0Q2729.0 -2 2707.0 -3.5Q2685.0 -5 2662.0 -5ZM3398.0 -15Q3355.0 -15 3316.5 -4.0Q3278.0 7 3246.0 29Q3240.0 34 3235.0 39.5Q3230.0 45 3227.0 52Q3219.0 77 3216.0 113.5Q3213.0 150 3214.0 184Q3214.0 191 3219.5 194.0Q3225.0 197 3233.0 197Q3241.0 197 3245.5 194.5Q3250.0 192 3252.0 185Q3274.0 110 3316.0 68.0Q3358.0 26 3411.0 26Q3444.0 26 3467.0 41.0Q3490.0 56 3502.0 80.0Q3514.0 104 3514.0 132Q3514.0 167 3501.5 190.0Q3489.0 213 3464.0 231.5Q3439.0 250 3401.0 271Q3360.0 295 3321.0 321.5Q3282.0 348 3257.0 384.5Q3232.0 421 3232.0 475Q3232.0 531 3260.5 573.5Q3289.0 616 3340.0 640.0Q3391.0 664 3458.0 664Q3495.0 664 3527.0 656.0Q3559.0 648 3578.0 640Q3589.0 636 3594.5 630.0Q3600.0 624 3603.0 611Q3609.0 590 3613.5 561.0Q3618.0 532 3618.0 500Q3618.0 488 3600.0 488Q3592.0 488 3584.0 492.0Q3576.0 496 3574.0 503Q3556.0 561 3524.5 591.0Q3493.0 621 3447.0 621Q3416.0 621 3394.0 610.5Q3372.0 600 3359.0 578.5Q3346.0 557 3346.0 523Q3346.0 497 3363.5 475.0Q3381.0 453 3412.5 432.0Q3444.0 411 3483.0 386Q3531.0 358 3563.5 329.5Q3596.0 301 3613.0 266.5Q3630.0 232 3630.0 185Q3630.0 119 3601.0 74.5Q3572.0 30 3520.0 7.5Q3468.0 -15 3398.0 -15Z" transform="matrix(0.022120 0 0 -0.022120 109.64 390.98)" fill="#15130f"/></svg>