<svg xmlns="http://www.w3.org/2000/svg" viewBox="0 0 300 446"><rect width="300" height="446" fill="#f4ecd8"/><rect x="20.0" y="25.5" width="260" height="395" rx="20.3" fill="#f4ecd8" stroke="#15130f" stroke-width="1.5"/><rect x="36.9" y="42.4" width="226.2" height="354.7" fill="none" stroke="#15130f" stroke-width="0.7"/><g fill="none" stroke="#15130f" stroke-width="0.65" stroke-opacity="0.72" stroke-linecap="round" stroke-linejoin="round"><line x1="36.9" y1="210.4" x2="263.1" y2="210.4"/></g><path d="M36.9,370.6 H263.1 V397.1 H36.9 Z" fill="#d9cf9a"/><g fill="none" stroke="#15130f" stroke-width="0.8"><line x1="36.9" y1="370.6" x2="263.1" y2="370.6"/><line x1="61.6" y1="370.6" x2="61.6" y2="397.1"/><line x1="238.4" y1="370.6" x2="238.4" y2="397.1"/></g><rect x="141.4" y="34.4" width="17.2" height="19.0" fill="#d9cf9a" stroke="#15130f" stroke-width="0.8"/><path d="M541.0 1306Q697.0 1306 797.5 1224.5Q898.0 1143 898.0 1016Q898.0 934 849.0 869.0Q800.0 804 718.0 776Q668.0 759 667.0 750Q666.0 740 723.0 716Q957.0 617 957.0 376Q957.0 194 834.0 83.5Q711.0 -27 509.0 -27Q311.0 -27 189.5 75.0Q68.0 177 68.0 343Q68.0 527 267.0 635Q285.0 645 286.0 651Q287.0 657 266.0 673Q124.0 777 124.0 943Q124.0 1101 241.5 1203.5Q359.0 1306 541.0 1306ZM510.0 1245Q405.0 1245 336.5 1188.0Q268.0 1131 268.0 1044Q268.0 947 375.0 873Q495.0 790 602.0 790Q672.0 790 719.5 848.0Q767.0 906 767.0 991Q767.0 1097 692.5 1171.0Q618.0 1245 510.0 1245ZM354.0 615Q340.0 616 312.5 598.0Q285.0 580 269.0 560Q216.0 496 216.0 388Q216.0 235 306.0 135.5Q396.0 36 535.0 36Q653.0 36 728.5 100.0Q804.0 164 804.0 265Q804.0 441 612.0 513L510.0 552Q474.0 565 396.0 600Q363.0 614 354.0 615Z" transform="matrix(0.006858 0 0 -0.006858 146.49 49.06)" fill="#15130f"/><path d="M450.0 1050V690Q569.0 900 750.0 900Q934.0 900 1042.0 757.0Q1150.0 614 1150.0 429Q1150.0 290 1050.0 130.5Q950.0 -29 950.0 -150Q950.0 -420 1132.0 -450Q1179.0 -450 1240.0 -420L1260.0 -450Q1183.0 -500 1102.0 -500Q954.0 -500 852.0 -391.0Q750.0 -282 750.0 -150Q750.0 -44 850.0 129.5Q950.0 303 950.0 429Q950.0 573 887.5 686.5Q825.0 800 706.0 800Q551.0 800 450.0 576V200Q450.0 150 490.0 95.0Q530.0 40 600.0 40H650.0V0H50.0V40H100.0Q170.0 40 210.0 95.0Q250.0 150 250.0 200V1050H50.0V1150H250.0V1200Q250.0 1250 210.0 1305.0Q170.0 1360 100.0 1360H50.0V1400H650.0V1360H600.0Q530.0 1360 490.0 1305.0Q450.0 1250 450.0 1200V1150H650.0V1050Z" transform="matrix(0.009268 0 0 -0.009268 43.18 388.04)" fill="#15130f"/><path d="M1250.0 0V1067Q1250.0 1212 1241.5 1255.5Q1233.0 1299 1212.5 1317.5Q1192.0 1336 1168.0 1336L938.0 1106Q950.0 1037 950.0 952V0H750.0V1067Q750.0 1212 741.5 1255.5Q733.0 1299 712.5 1317.5Q692.0 1336 668.0 1336L438.0 1106Q450.0 1037 450.0 952V0H50.0V40H100.0Q170.0 40 210.0 95.0Q250.0 150 250.0 200V1067Q250.0 1212 241.5 1255.5Q233.0 1299 212.5 1317.5Q192.0 1336 168.0 1336V1410Q284.0 1392 358.0 1301Q387.0 1264 408.0 1216L602.0 1410H668.0Q784.0 1392 858.0 1301Q887.0 1264 908.0 1216L1102.0 1410H1168.0Q1284.0 1392 1358.0 1301Q1450.0 1187 1450.0 952V0Q1450.0 -91 1478.0 -175.5Q1506.0 -260 1558.5 -305.0Q1611.0 -350 1667.0 -350H1867.0Q1742.0 -225 1617.0 0H1667.0Q1967.0 -300 2267.0 -400Q1967.0 -500 1667.0 -800H1617.0Q1742.0 -575 1867.0 -450H1667.0Q1559.0 -450 1458.5 -392.0Q1358.0 -334 1304.0 -225.5Q1250.0 -117 1250.0 0Z" transform="matrix(0.008244 0 0 -0.008244 241.20 386.38)" fill="#15130f"/><path d="M40.0 -4Q31.0 -4 24.0 -0.5Q17.0 3 17.0 9Q17.0 24 42.0 29Q80.0 37 97.0 51.0Q114.0 65 114.0 97V551Q114.0 584 100.0 598.0Q86.0 612 47.0 620Q22.0 625 22.0 641Q22.0 647 29.0 650.5Q36.0 654 45.0 654Q69.0 654 92.0 653.0Q115.0 652 136.5 651.0Q158.0 650 180.0 650Q201.0 650 222.5 651.0Q244.0 652 267.0 653.0Q290.0 654 314.0 654Q324.0 654 330.0 650.5Q336.0 647 336.0 640Q336.0 632 329.5 627.5Q323.0 623 311.0 620Q271.0 610 257.0 596.0Q243.0 582 243.0 550V98Q243.0 67 259.5 53.0Q276.0 39 314.0 29Q327.0 26 333.5 22.0Q340.0 18 340.0 10Q340.0 3 334.0 0.0Q328.0 -3 318.0 -3Q294.0 -3 270.0 -2.0Q246.0 -1 223.5 0.0Q201.0 1 180.0 1Q158.0 1 135.0 0.0Q112.0 -1 88.0 -2.5Q64.0 -4 40.0 -4ZM1032.0 -18Q1020.0 -18 992.0 -3.0Q964.0 12 935.0 49Q918.0 68 893.5 95.5Q869.0 123 839.5 156.0Q810.0 189 778.0 225.0Q746.0 261 714.5 297.0Q683.0 333 653.0 366.0Q623.0 399 598.0 426.5Q573.0 454 556.0 474Q552.0 479 547.5 482.5Q543.0 486 540.0 486Q536.0 486 534.0 479.0Q532.0 472 532.0 466Q532.0 420 532.5 357.0Q533.0 294 533.0 229.0Q533.0 164 533.0 109Q533.0 78 551.0 58.0Q569.0 38 608.0 29Q620.0 27 628.5 22.5Q637.0 18 637.0 10Q637.0 3 629.0 0.0Q621.0 -3 611.0 -3Q584.0 -3 568.0 -2.0Q552.0 -1 539.0 0.0Q526.0 1 506.0 1Q485.0 1 468.5 0.0Q452.0 -1 439.0 -2.5Q426.0 -4 414.0 -4Q404.0 -4 396.0 -0.5Q388.0 3 388.0 9Q388.0 17 395.5 21.5Q403.0 26 416.0 30Q442.0 38 454.5 59.5Q467.0 81 470.0 111Q474.0 149 478.0 210.5Q482.0 272 485.5 349.0Q489.0 426 489.0 508Q489.0 560 462.5 583.0Q436.0 606 396.0 620Q389.0 622 378.0 628.0Q367.0 634 367.0 643Q367.0 652 375.0 655.0Q383.0 658 392.0 658Q413.0 658 434.0 657.0Q455.0 656 476.5 655.5Q498.0 655 521.5 654.0Q545.0 653 572.0 653Q581.0 653 585.5 649.5Q590.0 646 594.0 640Q610.0 621 635.0 592.5Q660.0 564 689.5 529.5Q719.0 495 751.5 457.0Q784.0 419 816.5 381.0Q849.0 343 879.0 308.5Q909.0 274 933.5 245.5Q958.0 217 974.0 199Q978.0 195 983.5 189.0Q989.0 183 993.0 183Q1001.0 183 1002.0 200Q1002.0 226 1002.0 266.5Q1002.0 307 1002.5 356.5Q1003.0 406 1002.5 458.0Q1002.0 510 1001.0 558Q1000.0 583 980.5 597.5Q961.0 612 932.0 618Q920.0 621 909.5 625.5Q899.0 630 899.0 639Q899.0 646 909.5 649.0Q920.0 652 929.0 652Q949.0 652 962.5 652.0Q976.0 652 988.0 651.5Q1000.0 651 1013.0 651Q1035.0 651 1049.0 651.5Q1063.0 652 1079.5 653.0Q1096.0 654 1123.0 654Q1135.0 654 1142.5 650.5Q1150.0 647 1150.0 641Q1150.0 626 1121.0 620Q1086.0 613 1071.5 601.0Q1057.0 589 1056.0 561Q1056.0 536 1055.5 497.0Q1055.0 458 1054.0 412.0Q1053.0 366 1051.5 318.0Q1050.0 270 1049.5 224.0Q1049.0 178 1049.0 141Q1049.0 117 1051.0 92.0Q1053.0 67 1055.5 47.5Q1058.0 28 1058.0 20Q1058.0 -2 1051.0 -10.0Q1044.0 -18 1032.0 -18ZM1208.0 -4Q1199.0 -4 1192.0 0.0Q1185.0 4 1185.0 10Q1185.0 24 1210.0 29Q1246.0 37 1258.0 51.0Q1270.0 65 1270.0 98V551Q1270.0 584 1260.0 598.0Q1250.0 612 1213.0 620Q1188.0 625 1188.0 640Q1188.0 647 1194.5 650.5Q1201.0 654 1211.0 654Q1235.0 654 1256.0 653.0Q1277.0 652 1297.0 651.0Q1317.0 650 1337.0 650Q1357.0 650 1378.5 651.0Q1400.0 652 1423.0 653.0Q1446.0 654 1469.0 654Q1491.0 654 1491.0 639Q1491.0 631 1485.0 627.0Q1479.0 623 1466.0 620Q1427.0 610 1413.5 595.0Q1400.0 580 1400.0 550V364Q1400.0 357 1404.5 354.5Q1409.0 352 1415.0 352H1714.0Q1725.0 352 1725.0 366V551Q1725.0 580 1712.0 595.0Q1699.0 610 1660.0 620Q1647.0 623 1640.5 627.0Q1634.0 631 1634.0 639Q1634.0 654 1656.0 654Q1680.0 654 1704.0 653.0Q1728.0 652 1750.5 651.0Q1773.0 650 1794.0 650Q1813.0 650 1831.0 651.0Q1849.0 652 1869.5 653.0Q1890.0 654 1914.0 654Q1923.0 654 1930.0 650.5Q1937.0 647 1937.0 640Q1937.0 625 1911.0 620Q1876.0 612 1865.5 597.0Q1855.0 582 1855.0 551V98Q1855.0 65 1866.0 51.0Q1877.0 37 1913.0 29Q1938.0 24 1938.0 10Q1938.0 4 1931.0 0.0Q1924.0 -4 1915.0 -4Q1892.0 -4 1871.0 -2.5Q1850.0 -1 1829.5 0.0Q1809.0 1 1789.0 1Q1769.0 1 1747.0 0.0Q1725.0 -1 1702.0 -2.0Q1679.0 -3 1655.0 -3Q1646.0 -3 1640.0 0.5Q1634.0 4 1634.0 11Q1634.0 19 1640.0 22.5Q1646.0 26 1658.0 29Q1694.0 38 1709.5 53.0Q1725.0 68 1725.0 98V288Q1725.0 294 1723.5 299.0Q1722.0 304 1715.0 304H1411.0Q1400.0 304 1400.0 289V102Q1400.0 72 1417.5 55.0Q1435.0 38 1471.0 29Q1484.0 26 1490.0 22.5Q1496.0 19 1496.0 11Q1496.0 4 1490.5 0.5Q1485.0 -3 1474.0 -3Q1451.0 -3 1427.0 -2.0Q1403.0 -1 1380.5 0.0Q1358.0 1 1337.0 1Q1316.0 1 1295.0 0.0Q1274.0 -1 1252.0 -2.5Q1230.0 -4 1208.0 -4ZM2013.0 -5Q2002.0 -5 1995.5 -1.0Q1989.0 3 1989.0 9Q1989.0 22 2015.0 28Q2051.0 37 2066.5 50.5Q2082.0 64 2082.0 97V550Q2082.0 584 2068.5 598.0Q2055.0 612 2018.0 620Q2004.0 623 1998.0 628.5Q1992.0 634 1992.0 640Q1992.0 647 1998.5 650.5Q2005.0 654 2016.0 654Q2045.0 654 2071.5 653.0Q2098.0 652 2123.0 651.0Q2148.0 650 2175.0 650Q2221.0 650 2272.5 651.0Q2324.0 652 2365.0 652Q2398.0 653 2419.5 655.0Q2441.0 657 2445.0 657Q2452.0 657 2459.5 654.0Q2467.0 651 2468.0 642Q2472.0 609 2478.0 577.0Q2484.0 545 2484.0 521Q2484.0 512 2479.5 507.5Q2475.0 503 2470.0 503Q2465.0 503 2461.0 506.5Q2457.0 510 2454.0 517Q2446.0 540 2439.0 557.0Q2432.0 574 2423.0 583Q2410.0 597 2393.0 605.0Q2376.0 613 2352.0 613H2259.0Q2241.0 613 2226.0 602.5Q2211.0 592 2211.0 573V377Q2211.0 366 2217.5 360.0Q2224.0 354 2233.0 354H2325.0Q2352.0 354 2363.5 369.0Q2375.0 384 2383.0 410Q2390.0 430 2402.0 430Q2407.0 430 2411.0 424.5Q2415.0 419 2415.0 410Q2414.0 400 2413.0 386.0Q2412.0 372 2411.5 358.0Q2411.0 344 2411.0 333Q2411.0 321 2411.5 306.0Q2412.0 291 2412.5 276.5Q2413.0 262 2414.0 252Q2415.0 241 2412.5 235.0Q2410.0 229 2404.0 229Q2388.0 229 2381.0 257Q2373.0 285 2362.0 299.0Q2351.0 313 2332.0 313H2238.0Q2225.0 313 2218.0 308.0Q2211.0 303 2211.0 289V99Q2211.0 66 2225.0 53.0Q2239.0 40 2268.0 40H2350.0Q2375.0 40 2395.5 45.0Q2416.0 50 2431.0 61Q2448.0 73 2461.5 93.5Q2475.0 114 2488.0 139Q2492.0 147 2496.0 149.5Q2500.0 152 2506.0 152Q2511.0 151 2513.5 146.0Q2516.0 141 2516.0 135Q2516.0 121 2511.0 99.0Q2506.0 77 2498.5 53.5Q2491.0 30 2485.0 10Q2482.0 3 2477.0 -0.5Q2472.0 -4 2465.0 -4Q2441.0 -4 2403.5 -3.5Q2366.0 -3 2322.0 -2.0Q2278.0 -1 2232.0 -0.5Q2186.0 0 2144.0 0Q2123.0 0 2101.5 -1.0Q2080.0 -2 2058.0 -3.5Q2036.0 -5 2013.0 -5ZM3177.0 -21Q3134.0 -21 3102.0 -11.5Q3070.0 -2 3047.0 16.0Q3024.0 34 3005.0 58Q2983.0 88 2962.0 116.5Q2941.0 145 2919.5 179.5Q2898.0 214 2872.0 262Q2859.0 285 2839.0 296Q2826.0 303 2812.5 306.0Q2799.0 309 2790.0 309Q2784.0 310 2781.0 304.0Q2778.0 298 2778.0 289V103Q2778.0 72 2794.5 55.0Q2811.0 38 2851.0 29Q2864.0 27 2870.0 22.5Q2876.0 18 2876.0 10Q2876.0 3 2870.5 0.0Q2865.0 -3 2854.0 -3Q2831.0 -3 2807.0 -1.5Q2783.0 0 2760.5 1.0Q2738.0 2 2718.0 2Q2696.0 2 2672.5 1.0Q2649.0 0 2625.0 -2.0Q2601.0 -4 2577.0 -4Q2568.0 -4 2561.0 -0.5Q2554.0 3 2554.0 9Q2554.0 24 2579.0 29Q2617.0 37 2633.0 51.0Q2649.0 65 2649.0 98V540Q2649.0 569 2644.5 584.5Q2640.0 600 2627.0 608.0Q2614.0 616 2588.0 620Q2574.0 622 2568.0 628.0Q2562.0 634 2562.0 640Q2562.0 647 2568.5 650.5Q2575.0 654 2586.0 654Q2616.0 654 2634.0 653.0Q2652.0 652 2668.5 650.5Q2685.0 649 2708.0 649Q2730.0 649 2747.0 651.0Q2764.0 653 2785.0 655.0Q2806.0 657 2839.0 657Q2954.0 657 3015.0 617.0Q3076.0 577 3076.0 495Q3076.0 450 3057.0 418.5Q3038.0 387 3009.5 367.0Q2981.0 347 2951.0 336Q2947.0 335 2947.5 331.0Q2948.0 327 2951.0 324Q2981.0 278 3009.5 236.5Q3038.0 195 3069.5 158.0Q3101.0 121 3138.0 87Q3169.0 58 3201.5 52.5Q3234.0 47 3269.0 47Q3284.0 47 3284.0 32Q3284.0 12 3269.0 0.5Q3254.0 -11 3229.5 -16.0Q3205.0 -21 3177.0 -21ZM2821.0 338Q2862.0 338 2889.5 356.5Q2917.0 375 2931.5 406.0Q2946.0 437 2946.0 475Q2946.0 520 2935.0 551.5Q2924.0 583 2897.5 600.5Q2871.0 618 2825.0 618Q2799.0 618 2789.5 599.5Q2780.0 581 2779.0 525Q2778.0 502 2778.0 464.5Q2778.0 427 2778.0 375Q2778.0 353 2789.5 345.5Q2801.0 338 2821.0 338ZM3319.0 -4Q3310.0 -4 3303.0 -0.5Q3296.0 3 3296.0 9Q3296.0 24 3321.0 29Q3359.0 37 3376.0 51.0Q3393.0 65 3393.0 97V551Q3393.0 584 3379.0 598.0Q3365.0 612 3326.0 620Q3301.0 625 3301.0 641Q3301.0 647 3308.0 650.5Q3315.0 654 3324.0 654Q3348.0 654 3371.0 653.0Q3394.0 652 3415.5 651.0Q3437.0 650 3459.0 650Q3480.0 650 3501.5 651.0Q3523.0 652 3546.0 653.0Q3569.0 654 3593.0 654Q3603.0 654 3609.0 650.5Q3615.0 647 3615.0 640Q3615.0 632 3608.5 627.5Q3602.0 623 3590.0 620Q3550.0 610 3536.0 596.0Q3522.0 582 3522.0 550V98Q3522.0 67 3538.5 53.0Q3555.0 39 3593.0 29Q3606.0 26 3612.5 22.0Q3619.0 18 3619.0 10Q3619.0 3 3613.0 0.0Q3607.0 -3 3597.0 -3Q3573.0 -3 3549.0 -2.0Q3525.0 -1 3502.5 0.0Q3480.0 1 3459.0 1Q3437.0 1 3414.0 0.0Q3391.0 -1 3367.0 -2.5Q3343.0 -4 3319.0 -4ZM3844.0 -4Q3834.0 -4 3826.5 -0.5Q3819.0 3 3819.0 9Q3819.0 17 3826.0 22.0Q3833.0 27 3846.0 29Q3884.0 37 3902.0 51.5Q3920.0 66 3920.0 99V504Q3920.0 545 3918.0 566.0Q3916.0 587 3912.5 594.5Q3909.0 602 3902.0 603Q3892.0 607 3877.0 608.0Q3862.0 609 3848.0 609H3817.0Q3788.0 609 3761.0 595.5Q3734.0 582 3719.0 559Q3715.0 553 3706.5 542.0Q3698.0 531 3688.5 522.0Q3679.0 513 3669.0 513Q3662.0 513 3659.5 518.0Q3657.0 523 3657.0 529Q3657.0 541 3663.0 553Q3680.0 587 3688.5 612.5Q3697.0 638 3700.0 673Q3702.0 688 3708.5 692.5Q3715.0 697 3722.0 697Q3728.0 697 3736.5 684.5Q3745.0 672 3752.0 664Q3761.0 655 3784.0 650.5Q3807.0 646 3823.0 646L4192.0 647Q4220.0 647 4239.0 651.5Q4258.0 656 4269.0 661Q4284.0 670 4293.0 679.5Q4302.0 689 4314.0 689Q4319.0 689 4321.5 683.5Q4324.0 678 4324.0 670Q4324.0 665 4323.0 658.5Q4322.0 652 4321.0 647Q4317.0 628 4313.0 613.5Q4309.0 599 4306.5 586.5Q4304.0 574 4304.0 558V541Q4304.0 527 4300.0 517.0Q4296.0 507 4287.0 507Q4279.0 507 4273.5 516.5Q4268.0 526 4262.0 546Q4253.0 578 4232.0 593.5Q4211.0 609 4166.0 609H4098.0Q4079.0 609 4068.5 602.0Q4058.0 595 4053.5 571.5Q4049.0 548 4049.0 499V100Q4049.0 68 4067.0 53.5Q4085.0 39 4124.0 29Q4136.0 26 4143.0 22.0Q4150.0 18 4150.0 10Q4150.0 3 4143.5 0.0Q4137.0 -3 4127.0 -3Q4103.0 -3 4079.0 -2.0Q4055.0 -1 4031.5 0.0Q4008.0 1 3986.0 1Q3964.0 1 3940.5 0.0Q3917.0 -1 3892.5 -2.5Q3868.0 -4 3844.0 -4ZM4346.0 -5Q4334.0 -5 4326.0 -1.5Q4318.0 2 4318.0 10Q4318.0 19 4325.5 24.0Q4333.0 29 4345.0 33Q4374.0 41 4395.5 57.5Q4417.0 74 4430.0 103Q4455.0 162 4478.0 216.5Q4501.0 271 4522.0 325.0Q4543.0 379 4564.5 435.0Q4586.0 491 4608.0 553Q4619.0 584 4623.0 601.0Q4627.0 618 4630.0 626Q4645.0 630 4658.0 634.0Q4671.0 638 4687.0 644Q4701.0 651 4711.0 662.0Q4721.0 673 4726.0 679Q4729.0 681 4732.0 681.5Q4735.0 682 4738.0 677Q4741.0 671 4743.0 665.0Q4745.0 659 4747.0 652Q4769.0 581 4792.5 508.5Q4816.0 436 4839.0 365.5Q4862.0 295 4883.5 230.5Q4905.0 166 4923.0 112Q4932.0 85 4945.5 69.0Q4959.0 53 4975.5 44.5Q4992.0 36 5012.0 31Q5025.0 28 5032.0 23.0Q5039.0 18 5039.0 9Q5039.0 3 5032.5 0.0Q5026.0 -3 5016.0 -3Q4998.0 -3 4970.5 -2.0Q4943.0 -1 4914.0 0.5Q4885.0 2 4862.0 2Q4842.0 2 4817.5 1.0Q4793.0 0 4768.5 -1.0Q4744.0 -2 4727.0 -2Q4717.0 -2 4709.5 1.5Q4702.0 5 4702.0 12Q4702.0 20 4710.0 25.5Q4718.0 31 4729.0 33Q4765.0 39 4781.0 51.5Q4797.0 64 4793.0 88Q4790.0 105 4784.0 128.5Q4778.0 152 4771.5 177.5Q4765.0 203 4758.0 224Q4756.0 232 4752.0 235.5Q4748.0 239 4737.0 239H4557.0Q4550.0 239 4546.0 234.5Q4542.0 230 4540.0 221Q4536.0 208 4530.5 191.5Q4525.0 175 4519.5 157.5Q4514.0 140 4509.5 125.0Q4505.0 110 4503.0 99Q4498.0 72 4512.5 56.5Q4527.0 41 4563.0 32Q4590.0 25 4590.0 11Q4590.0 5 4583.5 1.5Q4577.0 -2 4565.0 -2Q4542.0 -2 4517.0 -0.5Q4492.0 1 4462.0 1Q4432.0 1 4403.5 -2.0Q4375.0 -5 4346.0 -5ZM4584.0 285H4723.0Q4737.0 285 4737.0 291Q4737.0 294 4736.5 296.0Q4736.0 298 4735.0 302L4665.0 533Q4661.0 547 4658.0 547Q4656.0 547 4651.0 534L4567.0 302Q4565.0 297 4565.0 294Q4565.0 289 4570.5 287.0Q4576.0 285 4584.0 285ZM5709.0 -18Q5697.0 -18 5669.0 -3.0Q5641.0 12 5612.0 49Q5595.0 68 5570.5 95.5Q5546.0 123 5516.5 156.0Q5487.0 189 5455.0 225.0Q5423.0 261 5391.5 297.0Q5360.0 333 5330.0 366.0Q5300.0 399 5275.0 426.5Q5250.0 454 5233.0 474Q5229.0 479 5224.5 482.5Q5220.0 486 5217.0 486Q5213.0 486 5211.0 479.0Q5209.0 472 5209.0 466Q5209.0 420 5209.5 357.0Q5210.0 294 5210.0 229.0Q5210.0 164 5210.0 109Q5210.0 78 5228.0 58.0Q5246.0 38 5285.0 29Q5297.0 27 5305.5 22.5Q5314.0 18 5314.0 10Q5314.0 3 5306.0 0.0Q5298.0 -3 5288.0 -3Q5261.0 -3 5245.0 -2.0Q5229.0 -1 5216.0 0.0Q5203.0 1 5183.0 1Q5162.0 1 5145.5 0.0Q5129.0 -1 5116.0 -2.5Q5103.0 -4 5091.0 -4Q5081.0 -4 5073.0 -0.5Q5065.0 3 5065.0 9Q5065.0 17 5072.5 21.5Q5080.0 26 5093.0 30Q5119.0 38 5131.5 59.5Q5144.0 81 5147.0 111Q5151.0 149 5155.0 210.5Q5159.0 272 5162.5 349.0Q5166.0 426 5166.0 508Q5166.0 560 5139.5 583.0Q5113.0 606 5073.0 620Q5066.0 622 5055.0 628.0Q5044.0 634 5044.0 643Q5044.0 652 5052.0 655.0Q5060.0 658 5069.0 658Q5090.0 658 5111.0 657.0Q5132.0 656 5153.5 655.5Q5175.0 655 5198.5 654.0Q5222.0 653 5249.0 653Q5258.0 653 5262.5 649.5Q5267.0 646 5271.0 640Q5287.0 621 5312.0 592.5Q5337.0 564 5366.5 529.5Q5396.0 495 5428.5 457.0Q5461.0 419 5493.5 381.0Q5526.0 343 5556.0 308.5Q5586.0 274 5610.5 245.5Q5635.0 217 5651.0 199Q5655.0 195 5660.5 189.0Q5666.0 183 5670.0 183Q5678.0 183 5679.0 200Q5679.0 226 5679.0 266.5Q5679.0 307 5679.5 356.5Q5680.0 406 5679.5 458.0Q5679.0 510 5678.0 558Q5677.0 583 5657.5 597.5Q5638.0 612 5609.0 618Q5597.0 621 5586.5 625.5Q5576.0 630 5576.0 639Q5576.0 646 5586.5 649.0Q5597.0 652 5606.0 652Q5626.0 652 5639.5 652.0Q5653.0 652 5665.0 651.5Q5677.0 651 5690.0 651Q5712.0 651 5726.0 651.5Q5740.0 652 5756.5 653.0Q5773.0 654 5800.0 654Q5812.0 654 5819.5 650.5Q5827.0 647 5827.0 641Q5827.0 626 5798.0 620Q5763.0 613 5748.5 601.0Q5734.0 589 5733.0 561Q5733.0 536 5732.5 497.0Q5732.0 458 5731.0 412.0Q5730.0 366 5728.5 318.0Q5727.0 270 5726.5 224.0Q5726.0 178 5726.0 141Q5726.0 117 5728.0 92.0Q5730.0 67 5732.5 47.5Q5735.0 28 5735.0 20Q5735.0 -2 5728.0 -10.0Q5721.0 -18 5709.0 -18ZM6242.0 -14Q6167.0 -14 6100.0 9.5Q6033.0 33 5981.5 77.0Q5930.0 121 5900.5 182.5Q5871.0 244 5871.0 319Q5871.0 389 5900.0 451.0Q5929.0 513 5982.0 561.0Q6035.0 609 6108.5 636.5Q6182.0 664 6270.0 664Q6304.0 664 6334.5 659.5Q6365.0 655 6394.0 648.5Q6423.0 642 6451.0 632Q6462.0 628 6468.5 621.0Q6475.0 614 6476.0 602Q6480.0 572 6482.0 542.5Q6484.0 513 6484.0 484Q6485.0 474 6477.0 469.5Q6469.0 465 6460.0 468.5Q6451.0 472 6447.0 483Q6439.0 511 6428.5 535.5Q6418.0 560 6397.0 577Q6374.0 596 6339.0 607.5Q6304.0 619 6257.0 619Q6203.0 619 6159.0 597.0Q6115.0 575 6083.5 536.0Q6052.0 497 6035.0 448.0Q6018.0 399 6018.0 345Q6018.0 281 6033.5 224.0Q6049.0 167 6080.5 123.5Q6112.0 80 6157.0 55.5Q6202.0 31 6260.0 31Q6334.0 31 6380.0 63.0Q6426.0 95 6458.0 158Q6466.0 174 6480.0 173.5Q6494.0 173 6494.0 157Q6494.0 145 6491.0 127.0Q6488.0 109 6482.5 88.5Q6477.0 68 6470.0 48Q6466.0 36 6460.0 30.0Q6454.0 24 6442.0 19Q6404.0 3 6352.5 -5.5Q6301.0 -14 6242.0 -14ZM6595.0 -5Q6584.0 -5 6577.5 -1.0Q6571.0 3 6571.0 9Q6571.0 22 6597.0 28Q6633.0 37 6648.5 50.5Q6664.0 64 6664.0 97V550Q6664.0 584 6650.5 598.0Q6637.0 612 6600.0 620Q6586.0 623 6580.0 628.5Q6574.0 634 6574.0 640Q6574.0 647 6580.5 650.5Q6587.0 654 6598.0 654Q6627.0 654 6653.5 653.0Q6680.0 652 6705.0 651.0Q6730.0 650 6757.0 650Q6803.0 650 6854.5 651.0Q6906.0 652 6947.0 652Q6980.0 653 7001.5 655.0Q7023.0 657 7027.0 657Q7034.0 657 7041.5 654.0Q7049.0 651 7050.0 642Q7054.0 609 7060.0 577.0Q7066.0 545 7066.0 521Q7066.0 512 7061.5 507.5Q7057.0 503 7052.0 503Q7047.0 503 7043.0 506.5Q7039.0 510 7036.0 517Q7028.0 540 7021.0 557.0Q7014.0 574 7005.0 583Q6992.0 597 6975.0 605.0Q6958.0 613 6934.0 613H6841.0Q6823.0 613 6808.0 602.5Q6793.0 592 6793.0 573V377Q6793.0 366 6799.5 360.0Q6806.0 354 6815.0 354H6907.0Q6934.0 354 6945.5 369.0Q6957.0 384 6965.0 410Q6972.0 430 6984.0 430Q6989.0 430 6993.0 424.5Q6997.0 419 6997.0 410Q6996.0 400 6995.0 386.0Q6994.0 372 6993.5 358.0Q6993.0 344 6993.0 333Q6993.0 321 6993.5 306.0Q6994.0 291 6994.5 276.5Q6995.0 262 6996.0 252Q6997.0 241 6994.5 235.0Q6992.0 229 6986.0 229Q6970.0 229 6963.0 257Q6955.0 285 6944.0 299.0Q6933.0 313 6914.0 313H6820.0Q6807.0 313 6800.0 308.0Q6793.0 303 6793.0 289V99Q6793.0 66 6807.0 53.0Q6821.0 40 6850.0 40H6932.0Q6957.0 40 6977.5 45.0Q6998.0 50 7013.0 61Q7030.0 73 7043.5 93.5Q7057.0 114 7070.0 139Q7074.0 147 7078.0 149.5Q7082.0 152 7088.0 152Q7093.0 151 7095.5 146.0Q7098.0 141 7098.0 135Q7098.0 121 7093.0 99.0Q7088.0 77 7080.5 53.5Q7073.0 30 7067.0 10Q7064.0 3 7059.0 -0.5Q7054.0 -4 7047.0 -4Q7023.0 -4 6985.5 -3.5Q6948.0 -3 6904.0 -2.0Q6860.0 -1 6814.0 -0.5Q6768.0 0 6726.0 0Q6705.0 0 6683.5 -1.0Q6662.0 -2 6640.0 -3.5Q6618.0 -5 6595.0 -5Z" transform="matrix(0.021320 0 0 -0.021320 74.15 391.07)" fill="#15130f"/></svg>