<svg xmlns="http://www.w3.org/2000/svg" viewBox="0 0 300 446"><rect width="300" height="446" fill="#f4ecd8"/><rect x="20.0" y="25.5" width="260" height="395" rx="20.3" fill="#f4ecd8" stroke="#15130f" stroke-width="1.5"/><rect x="36.9" y="42.4" width="226.2" height="354.7" fill="none" stroke="#15130f" stroke-width="0.7"/><g fill="none" stroke="#15130f" stroke-width="0.65" stroke-opacity="0.72" stroke-linecap="round" stroke-linejoin="round"><line x1="36.9" y1="210.4" x2="263.1" y2="210.4"/></g><path d="M36.9,370.6 H263.1 V397.1 H36.9 Z" fill="#d9cf9a"/><g fill="none" stroke="#15130f" stroke-width="0.8"><line x1="36.9" y1="370.6" x2="263.1" y2="370.6"/><line x1="61.6" y1="370.6" x2="61.6" y2="397.1"/><line x1="238.4" y1="370.6" x2="238.4" y2="397.1"/></g><rect x="141.4" y="34.4" width="17.2" height="19.0" fill="#d9cf9a" stroke="#15130f" stroke-width="0.8"/><path d="M649.0 1092V235L647.0 193L657.0 137Q686.0 59 825.0 52Q867.0 50 867.0 28Q867.0 -7 780.0 -7Q761.0 -7 652.0 2Q595.0 7 494.0 7Q394.0 7 322.0 -2Q293.0 -5 280.0 -5Q255.0 -5 255.0 20Q255.0 41 281.0 45Q384.0 61 415.0 92.0Q446.0 123 446.0 210L445.0 248V1010Q445.0 1115 363.0 1115Q331.0 1115 306.0 1104L281.0 1093Q270.0 1089 261.0 1089Q235.0 1089 235.0 1113Q235.0 1137 260.0 1150.0Q285.0 1163 362.0 1180Q506.0 1211 567.0 1267L614.0 1310Q625.0 1320 641.0 1320Q661.0 1320 661.0 1282Q661.0 1271 659.0 1243L651.0 1153Q649.0 1126 649.0 1092ZM1947.0 348Q1970.0 348 1972.0 331L1970.0 321L1955.0 277Q1941.0 236 1920.0 192L1869.0 85Q1839.0 23 1816.5 9.5Q1794.0 -4 1721.0 -4Q1677.0 -4 1615.0 -1L1530.0 4Q1482.0 6 1395.0 6Q1232.0 6 1191.0 -1Q1163.0 -6 1150.0 -6Q1119.0 -6 1119.0 21Q1119.0 40 1178.0 106Q1270.0 211 1389.0 383.0Q1508.0 555 1565.0 665Q1641.0 813 1641.0 932Q1641.0 1035 1583.0 1096.0Q1525.0 1157 1428.0 1157Q1290.0 1157 1180.0 1033Q1170.0 1021 1162.0 1021Q1155.0 1021 1146.5 1029.5Q1138.0 1038 1138.0 1046Q1138.0 1059 1169.0 1101.5Q1200.0 1144 1234.0 1176Q1367.0 1307 1541.0 1307Q1679.0 1307 1764.0 1230.5Q1849.0 1154 1849.0 1029Q1849.0 803 1456.0 355L1408.0 300Q1366.0 253 1366.0 233Q1366.0 198 1450.0 198L1614.0 200L1710.0 201Q1774.0 204 1835.0 241.0Q1896.0 278 1926.0 333Q1935.0 348 1947.0 348Z" transform="matrix(0.006024 0 0 -0.006024 143.35 48.63)" fill="#15130f"/><path d="M450.0 1050V690Q569.0 900 750.0 900Q934.0 900 1042.0 757.0Q1150.0 614 1150.0 429Q1150.0 290 1050.0 130.5Q950.0 -29 950.0 -150Q950.0 -420 1132.0 -450Q1179.0 -450 1240.0 -420L1260.0 -450Q1183.0 -500 1102.0 -500Q954.0 -500 852.0 -391.0Q750.0 -282 750.0 -150Q750.0 -44 850.0 129.5Q950.0 303 950.0 429Q950.0 573 887.5 686.5Q825.0 800 706.0 800Q551.0 800 450.0 576V200Q450.0 150 490.0 95.0Q530.0 40 600.0 40H650.0V0H50.0V40H100.0Q170.0 40 210.0 95.0Q250.0 150 250.0 200V1050H50.0V1150H250.0V1200Q250.0 1250 210.0 1305.0Q170.0 1360 100.0 1360H50.0V1400H650.0V1360H600.0Q530.0 1360 490.0 1305.0Q450.0 1250 450.0 1200V1150H650.0V1050Z" transform="matrix(0.009268 0 0 -0.009268 43.18 388.04)" fill="#15130f"/><path d="M548.0 750Q533.0 984 370.0 1200Q330.0 1250 250.0 1305.0Q170.0 1360 100.0 1360H50.0V1400H402.0Q440.0 1370 476.0 1337Q731.0 1091 749.0 750H951.0Q969.0 1091 1224.0 1337Q1260.0 1370 1298.0 1400H1650.0V1360H1600.0Q1530.0 1360 1450.0 1305.0Q1370.0 1250 1330.0 1200Q1167.0 984 1152.0 750H1600.0V650H1152.0Q1168.0 413 1340.0 190Q1378.0 145 1450.0 95Q1530.0 40 1600.0 40H1650.0V0H1301.0Q1262.0 29 1227.0 63Q969.0 308 951.0 650H749.0Q731.0 308 473.0 63Q438.0 29 399.0 0H50.0V40H100.0Q170.0 40 250.0 95Q322.0 145 360.0 190Q532.0 413 548.0 650H100.0V750Z" transform="matrix(0.009268 0 0 -0.009268 242.87 390.35)" fill="#15130f"/><path d="M46.0 -5Q35.0 -5 29.0 -0.5Q23.0 4 23.0 9Q23.0 17 30.0 21.5Q37.0 26 44.0 28Q80.0 37 97.0 50.5Q114.0 64 114.0 95V555Q114.0 578 108.5 590.0Q103.0 602 89.5 608.5Q76.0 615 50.0 620Q24.0 625 24.0 641Q24.0 647 31.0 650.5Q38.0 654 47.0 654Q72.0 654 94.5 653.0Q117.0 652 138.0 651.0Q159.0 650 180.0 650Q203.0 650 226.5 651.0Q250.0 652 274.5 653.0Q299.0 654 322.0 654Q332.0 654 338.0 650.5Q344.0 647 344.0 640Q344.0 632 337.5 627.5Q331.0 623 319.0 620Q280.0 610 261.5 598.5Q243.0 587 243.0 558V101Q243.0 72 256.0 58.5Q269.0 45 305.0 45H414.0Q437.0 45 456.0 53.0Q475.0 61 487.0 73Q505.0 89 517.0 107.0Q529.0 125 540.0 149Q547.0 164 553.0 172.0Q559.0 180 565.0 180Q572.0 180 575.0 173.5Q578.0 167 578.0 160Q578.0 159 577.0 154.0Q576.0 149 576.0 146Q568.0 117 562.5 96.0Q557.0 75 553.5 55.5Q550.0 36 547.0 13Q546.0 6 543.0 0.5Q540.0 -5 531.0 -5Q501.0 -5 459.0 -4.0Q417.0 -3 370.0 -2.5Q323.0 -2 275.5 -1.0Q228.0 0 186.0 0Q164.0 0 135.5 -1.0Q107.0 -2 82.0 -3.5Q57.0 -5 46.0 -5ZM961.0 -14Q893.0 -14 831.0 9.5Q769.0 33 721.5 76.5Q674.0 120 646.5 180.5Q619.0 241 619.0 315Q619.0 383 641.5 445.5Q664.0 508 708.5 557.0Q753.0 606 818.5 635.0Q884.0 664 970.0 664Q1038.0 664 1099.5 640.5Q1161.0 617 1209.0 573.5Q1257.0 530 1284.5 469.5Q1312.0 409 1312.0 335Q1312.0 268 1289.5 205.0Q1267.0 142 1222.5 93.0Q1178.0 44 1112.5 15.0Q1047.0 -14 961.0 -14ZM978.0 30Q1041.0 30 1083.5 62.0Q1126.0 94 1147.5 151.5Q1169.0 209 1169.0 284Q1169.0 348 1156.0 408.0Q1143.0 468 1116.0 515.5Q1089.0 563 1048.5 591.0Q1008.0 619 952.0 619Q889.0 619 846.5 587.0Q804.0 555 783.0 498.0Q762.0 441 762.0 366Q762.0 302 775.0 242.0Q788.0 182 814.5 134.0Q841.0 86 881.5 58.0Q922.0 30 978.0 30ZM1560.0 -15Q1517.0 -15 1478.5 -4.0Q1440.0 7 1408.0 29Q1402.0 34 1397.0 39.5Q1392.0 45 1389.0 52Q1381.0 77 1378.0 113.5Q1375.0 150 1376.0 184Q1376.0 191 1381.5 194.0Q1387.0 197 1395.0 197Q1403.0 197 1407.5 194.5Q1412.0 192 1414.0 185Q1436.0 110 1478.0 68.0Q1520.0 26 1573.0 26Q1606.0 26 1629.0 41.0Q1652.0 56 1664.0 80.0Q1676.0 104 1676.0 132Q1676.0 167 1663.5 190.0Q1651.0 213 1626.0 231.5Q1601.0 250 1563.0 271Q1522.0 295 1483.0 321.5Q1444.0 348 1419.0 384.5Q1394.0 421 1394.0 475Q1394.0 531 1422.5 573.5Q1451.0 616 1502.0 640.0Q1553.0 664 1620.0 664Q1657.0 664 1689.0 656.0Q1721.0 648 1740.0 640Q1751.0 636 1756.5 630.0Q1762.0 624 1765.0 611Q1771.0 590 1775.5 561.0Q1780.0 532 1780.0 500Q1780.0 488 1762.0 488Q1754.0 488 1746.0 492.0Q1738.0 496 1736.0 503Q1718.0 561 1686.5 591.0Q1655.0 621 1609.0 621Q1578.0 621 1556.0 610.5Q1534.0 600 1521.0 578.5Q1508.0 557 1508.0 523Q1508.0 497 1525.5 475.0Q1543.0 453 1574.5 432.0Q1606.0 411 1645.0 386Q1693.0 358 1725.5 329.5Q1758.0 301 1775.0 266.5Q1792.0 232 1792.0 185Q1792.0 119 1763.0 74.5Q1734.0 30 1682.0 7.5Q1630.0 -15 1560.0 -15ZM2044.0 -15Q2001.0 -15 1962.5 -4.0Q1924.0 7 1892.0 29Q1886.0 34 1881.0 39.5Q1876.0 45 1873.0 52Q1865.0 77 1862.0 113.5Q1859.0 150 1860.0 184Q1860.0 191 1865.5 194.0Q1871.0 197 1879.0 197Q1887.0 197 1891.5 194.5Q1896.0 192 1898.0 185Q1920.0 110 1962.0 68.0Q2004.0 26 2057.0 26Q2090.0 26 2113.0 41.0Q2136.0 56 2148.0 80.0Q2160.0 104 2160.0 132Q2160.0 167 2147.5 190.0Q2135.0 213 2110.0 231.5Q2085.0 250 2047.0 271Q2006.0 295 1967.0 321.5Q1928.0 348 1903.0 384.5Q1878.0 421 1878.0 475Q1878.0 531 1906.5 573.5Q1935.0 616 1986.0 640.0Q2037.0 664 2104.0 664Q2141.0 664 2173.0 656.0Q2205.0 648 2224.0 640Q2235.0 636 2240.5 630.0Q2246.0 624 2249.0 611Q2255.0 590 2259.5 561.0Q2264.0 532 2264.0 500Q2264.0 488 2246.0 488Q2238.0 488 2230.0 492.0Q2222.0 496 2220.0 503Q2202.0 561 2170.5 591.0Q2139.0 621 2093.0 621Q2062.0 621 2040.0 610.5Q2018.0 600 2005.0 578.5Q1992.0 557 1992.0 523Q1992.0 497 2009.5 475.0Q2027.0 453 2058.5 432.0Q2090.0 411 2129.0 386Q2177.0 358 2209.5 329.5Q2242.0 301 2259.0 266.5Q2276.0 232 2276.0 185Q2276.0 119 2247.0 74.5Q2218.0 30 2166.0 7.5Q2114.0 -15 2044.0 -15Z" transform="matrix(0.022120 0 0 -0.022120 124.57 391.05)" fill="#15130f"/></svg>