<svg xmlns="http://www.w3.org/2000/svg" viewBox="0 0 300 446"><rect width="300" height="446" fill="#f4ecd8"/><rect x="20.0" y="25.5" width="260" height="395" rx="20.3" fill="#f4ecd8" stroke="#15130f" stroke-width="1.5"/><rect x="36.9" y="42.4" width="226.2" height="354.7" fill="none" stroke="#15130f" stroke-width="0.7"/><g fill="none" stroke="#15130f" stroke-width="0.65" stroke-opacity="0.72" stroke-linecap="round" stroke-linejoin="round"><line x1="36.9" y1="155.5" x2="263.1" y2="155.5"/><path d="M36.9,155.5 A113.1,113.1 0 0 1 263.1,155.5"/></g><path d="M36.9,370.6 H263.1 V397.1 H36.9 Z" fill="#f0cf48"/><g fill="none" stroke="#15130f" stroke-width="0.8"><line x1="36.9" y1="370.6" x2="263.1" y2="370.6"/><line x1="61.6" y1="370.6" x2="61.6" y2="397.1"/><line x1="238.4" y1="370.6" x2="238.4" y2="397.1"/></g><rect x="141.4" y="34.4" width="17.2" height="19.0" fill="#f0cf48" stroke="#15130f" stroke-width="0.8"/><path d="M511.0 1307Q708.0 1307 834.5 1159.0Q961.0 1011 961.0 779Q961.0 491 764.5 263.5Q568.0 36 272.0 -19L193.0 -34Q180.0 -36 170.0 -36Q144.0 -36 145.0 -7Q146.0 8 153.5 12.0Q161.0 16 206.0 26Q348.0 58 482.0 175.0Q616.0 292 661.0 422L680.0 478Q690.0 507 690.0 524Q690.0 554 668.0 553Q658.0 552 642.0 541Q589.0 503 512.5 475.5Q436.0 448 384.0 448Q245.0 448 150.5 558.5Q56.0 669 56.0 830Q56.0 1039 184.0 1173.0Q312.0 1307 511.0 1307ZM455.0 1245Q364.0 1245 307.5 1166.5Q251.0 1088 251.0 963Q251.0 787 326.5 675.5Q402.0 564 522.0 564Q619.0 564 684.5 640.5Q750.0 717 750.0 830Q750.0 997 661.5 1121.0Q573.0 1245 455.0 1245Z" transform="matrix(0.006858 0 0 -0.006858 146.51 49.04)" fill="#15130f"/><path d="M700 1410Q993 1410 1171.5 1205.0Q1350 1000 1350 700Q1350 399 1170.0 194.5Q990 -10 700 -10Q410 -10 230.0 194.5Q50 399 50 700Q50 1000 228.5 1205.0Q407 1410 700 1410ZM700 1310Q487 1310 368.5 1116.5Q250 923 250 700Q250 481 368.5 285.5Q487 90 700 90Q910 90 1030.0 285.5Q1150 481 1150 700Q1150 923 1030.0 1116.5Q910 1310 700 1310ZM700.0 950Q766.0 950 826.0 918.0Q886.0 886 918.0 826.0Q950.0 766 950.0 700Q950.0 634 918.0 574.0Q886.0 514 826.0 482.0Q766.0 450 700.0 450Q634.0 450 574.0 482.0Q514.0 514 482.0 574.0Q450.0 634 450.0 700Q450.0 766 482.0 826.0Q514.0 886 574.0 918.0Q634.0 950 700.0 950Z" transform="matrix(0.009268 0 0 -0.009268 42.76 390.35)" fill="#15130f"/><path d="M525.0 394 121.0 -10 50.0 61 454.0 465 136.0 783 277.0 924 595.0 606 1152.0 1163Q975.0 1163 728.0 1234L763.0 1269Q1188.0 1269 1470.0 1410Q1329.0 1128 1329.0 703L1294.0 668Q1223.0 915 1223.0 1092L666.0 535L984.0 217L843.0 76Z" transform="matrix(0.007599 0 0 -0.007599 244.97 389.19)" fill="#15130f"/><path d="M49.0 -5Q38.0 -5 31.5 -1.0Q25.0 3 25.0 9Q25.0 22 51.0 28Q87.0 37 102.5 50.5Q118.0 64 118.0 97V550Q118.0 584 104.5 598.0Q91.0 612 54.0 620Q40.0 623 34.0 628.5Q28.0 634 28.0 640Q28.0 647 34.5 650.5Q41.0 654 52.0 654Q81.0 654 107.5 653.0Q134.0 652 159.0 651.0Q184.0 650 211.0 650Q257.0 650 308.5 651.0Q360.0 652 401.0 652Q434.0 653 455.5 655.0Q477.0 657 481.0 657Q488.0 657 495.5 654.0Q503.0 651 504.0 642Q508.0 609 514.0 577.0Q520.0 545 520.0 521Q520.0 512 515.5 507.5Q511.0 503 506.0 503Q501.0 503 497.0 506.5Q493.0 510 490.0 517Q482.0 540 475.0 557.0Q468.0 574 459.0 583Q446.0 597 429.0 605.0Q412.0 613 388.0 613H295.0Q277.0 613 262.0 602.5Q247.0 592 247.0 573V377Q247.0 366 253.5 360.0Q260.0 354 269.0 354H361.0Q388.0 354 399.5 369.0Q411.0 384 419.0 410Q426.0 430 438.0 430Q443.0 430 447.0 424.5Q451.0 419 451.0 410Q450.0 400 449.0 386.0Q448.0 372 447.5 358.0Q447.0 344 447.0 333Q447.0 321 447.5 306.0Q448.0 291 448.5 276.5Q449.0 262 450.0 252Q451.0 241 448.5 235.0Q446.0 229 440.0 229Q424.0 229 417.0 257Q409.0 285 398.0 299.0Q387.0 313 368.0 313H274.0Q261.0 313 254.0 308.0Q247.0 303 247.0 289V99Q247.0 66 261.0 53.0Q275.0 40 304.0 40H386.0Q411.0 40 431.5 45.0Q452.0 50 467.0 61Q484.0 73 497.5 93.5Q511.0 114 524.0 139Q528.0 147 532.0 149.5Q536.0 152 542.0 152Q547.0 151 549.5 146.0Q552.0 141 552.0 135Q552.0 121 547.0 99.0Q542.0 77 534.5 53.5Q527.0 30 521.0 10Q518.0 3 513.0 -0.5Q508.0 -4 501.0 -4Q477.0 -4 439.5 -3.5Q402.0 -3 358.0 -2.0Q314.0 -1 268.0 -0.5Q222.0 0 180.0 0Q159.0 0 137.5 -1.0Q116.0 -2 94.0 -3.5Q72.0 -5 49.0 -5ZM1247.0 -18Q1235.0 -18 1207.0 -3.0Q1179.0 12 1150.0 49Q1133.0 68 1108.5 95.5Q1084.0 123 1054.5 156.0Q1025.0 189 993.0 225.0Q961.0 261 929.5 297.0Q898.0 333 868.0 366.0Q838.0 399 813.0 426.5Q788.0 454 771.0 474Q767.0 479 762.5 482.5Q758.0 486 755.0 486Q751.0 486 749.0 479.0Q747.0 472 747.0 466Q747.0 420 747.5 357.0Q748.0 294 748.0 229.0Q748.0 164 748.0 109Q748.0 78 766.0 58.0Q784.0 38 823.0 29Q835.0 27 843.5 22.5Q852.0 18 852.0 10Q852.0 3 844.0 0.0Q836.0 -3 826.0 -3Q799.0 -3 783.0 -2.0Q767.0 -1 754.0 0.0Q741.0 1 721.0 1Q700.0 1 683.5 0.0Q667.0 -1 654.0 -2.5Q641.0 -4 629.0 -4Q619.0 -4 611.0 -0.5Q603.0 3 603.0 9Q603.0 17 610.5 21.5Q618.0 26 631.0 30Q657.0 38 669.5 59.5Q682.0 81 685.0 111Q689.0 149 693.0 210.5Q697.0 272 700.5 349.0Q704.0 426 704.0 508Q704.0 560 677.5 583.0Q651.0 606 611.0 620Q604.0 622 593.0 628.0Q582.0 634 582.0 643Q582.0 652 590.0 655.0Q598.0 658 607.0 658Q628.0 658 649.0 657.0Q670.0 656 691.5 655.5Q713.0 655 736.5 654.0Q760.0 653 787.0 653Q796.0 653 800.5 649.5Q805.0 646 809.0 640Q825.0 621 850.0 592.5Q875.0 564 904.5 529.5Q934.0 495 966.5 457.0Q999.0 419 1031.5 381.0Q1064.0 343 1094.0 308.5Q1124.0 274 1148.5 245.5Q1173.0 217 1189.0 199Q1193.0 195 1198.5 189.0Q1204.0 183 1208.0 183Q1216.0 183 1217.0 200Q1217.0 226 1217.0 266.5Q1217.0 307 1217.5 356.5Q1218.0 406 1217.5 458.0Q1217.0 510 1216.0 558Q1215.0 583 1195.5 597.5Q1176.0 612 1147.0 618Q1135.0 621 1124.5 625.5Q1114.0 630 1114.0 639Q1114.0 646 1124.5 649.0Q1135.0 652 1144.0 652Q1164.0 652 1177.5 652.0Q1191.0 652 1203.0 651.5Q1215.0 651 1228.0 651Q1250.0 651 1264.0 651.5Q1278.0 652 1294.5 653.0Q1311.0 654 1338.0 654Q1350.0 654 1357.5 650.5Q1365.0 647 1365.0 641Q1365.0 626 1336.0 620Q1301.0 613 1286.5 601.0Q1272.0 589 1271.0 561Q1271.0 536 1270.5 497.0Q1270.0 458 1269.0 412.0Q1268.0 366 1266.5 318.0Q1265.0 270 1264.5 224.0Q1264.0 178 1264.0 141Q1264.0 117 1266.0 92.0Q1268.0 67 1270.5 47.5Q1273.0 28 1273.0 20Q1273.0 -2 1266.0 -10.0Q1259.0 -18 1247.0 -18ZM1584.0 -4Q1574.0 -4 1566.5 -0.5Q1559.0 3 1559.0 9Q1559.0 17 1566.0 22.0Q1573.0 27 1586.0 29Q1624.0 37 1642.0 51.5Q1660.0 66 1660.0 99V504Q1660.0 545 1658.0 566.0Q1656.0 587 1652.5 594.5Q1649.0 602 1642.0 603Q1632.0 607 1617.0 608.0Q1602.0 609 1588.0 609H1557.0Q1528.0 609 1501.0 595.5Q1474.0 582 1459.0 559Q1455.0 553 1446.5 542.0Q1438.0 531 1428.5 522.0Q1419.0 513 1409.0 513Q1402.0 513 1399.5 518.0Q1397.0 523 1397.0 529Q1397.0 541 1403.0 553Q1420.0 587 1428.5 612.5Q1437.0 638 1440.0 673Q1442.0 688 1448.5 692.5Q1455.0 697 1462.0 697Q1468.0 697 1476.5 684.5Q1485.0 672 1492.0 664Q1501.0 655 1524.0 650.5Q1547.0 646 1563.0 646L1932.0 647Q1960.0 647 1979.0 651.5Q1998.0 656 2009.0 661Q2024.0 670 2033.0 679.5Q2042.0 689 2054.0 689Q2059.0 689 2061.5 683.5Q2064.0 678 2064.0 670Q2064.0 665 2063.0 658.5Q2062.0 652 2061.0 647Q2057.0 628 2053.0 613.5Q2049.0 599 2046.5 586.5Q2044.0 574 2044.0 558V541Q2044.0 527 2040.0 517.0Q2036.0 507 2027.0 507Q2019.0 507 2013.5 516.5Q2008.0 526 2002.0 546Q1993.0 578 1972.0 593.5Q1951.0 609 1906.0 609H1838.0Q1819.0 609 1808.5 602.0Q1798.0 595 1793.5 571.5Q1789.0 548 1789.0 499V100Q1789.0 68 1807.0 53.5Q1825.0 39 1864.0 29Q1876.0 26 1883.0 22.0Q1890.0 18 1890.0 10Q1890.0 3 1883.5 0.0Q1877.0 -3 1867.0 -3Q1843.0 -3 1819.0 -2.0Q1795.0 -1 1771.5 0.0Q1748.0 1 1726.0 1Q1704.0 1 1680.5 0.0Q1657.0 -1 1632.5 -2.5Q1608.0 -4 1584.0 -4ZM2110.0 -4Q2101.0 -4 2094.0 0.0Q2087.0 4 2087.0 10Q2087.0 24 2112.0 29Q2148.0 37 2160.0 51.0Q2172.0 65 2172.0 98V551Q2172.0 584 2162.0 598.0Q2152.0 612 2115.0 620Q2090.0 625 2090.0 640Q2090.0 647 2096.5 650.5Q2103.0 654 2113.0 654Q2137.0 654 2158.0 653.0Q2179.0 652 2199.0 651.0Q2219.0 650 2239.0 650Q2259.0 650 2280.5 651.0Q2302.0 652 2325.0 653.0Q2348.0 654 2371.0 654Q2393.0 654 2393.0 639Q2393.0 631 2387.0 627.0Q2381.0 623 2368.0 620Q2329.0 610 2315.5 595.0Q2302.0 580 2302.0 550V364Q2302.0 357 2306.5 354.5Q2311.0 352 2317.0 352H2616.0Q2627.0 352 2627.0 366V551Q2627.0 580 2614.0 595.0Q2601.0 610 2562.0 620Q2549.0 623 2542.5 627.0Q2536.0 631 2536.0 639Q2536.0 654 2558.0 654Q2582.0 654 2606.0 653.0Q2630.0 652 2652.5 651.0Q2675.0 650 2696.0 650Q2715.0 650 2733.0 651.0Q2751.0 652 2771.5 653.0Q2792.0 654 2816.0 654Q2825.0 654 2832.0 650.5Q2839.0 647 2839.0 640Q2839.0 625 2813.0 620Q2778.0 612 2767.5 597.0Q2757.0 582 2757.0 551V98Q2757.0 65 2768.0 51.0Q2779.0 37 2815.0 29Q2840.0 24 2840.0 10Q2840.0 4 2833.0 0.0Q2826.0 -4 2817.0 -4Q2794.0 -4 2773.0 -2.5Q2752.0 -1 2731.5 0.0Q2711.0 1 2691.0 1Q2671.0 1 2649.0 0.0Q2627.0 -1 2604.0 -2.0Q2581.0 -3 2557.0 -3Q2548.0 -3 2542.0 0.5Q2536.0 4 2536.0 11Q2536.0 19 2542.0 22.5Q2548.0 26 2560.0 29Q2596.0 38 2611.5 53.0Q2627.0 68 2627.0 98V288Q2627.0 294 2625.5 299.0Q2624.0 304 2617.0 304H2313.0Q2302.0 304 2302.0 289V102Q2302.0 72 2319.5 55.0Q2337.0 38 2373.0 29Q2386.0 26 2392.0 22.5Q2398.0 19 2398.0 11Q2398.0 4 2392.5 0.5Q2387.0 -3 2376.0 -3Q2353.0 -3 2329.0 -2.0Q2305.0 -1 2282.5 0.0Q2260.0 1 2239.0 1Q2218.0 1 2197.0 0.0Q2176.0 -1 2154.0 -2.5Q2132.0 -4 2110.0 -4ZM3239.0 -14Q3146.0 -14 3084.0 19.0Q3022.0 52 2991.0 111.0Q2960.0 170 2960.0 249V541Q2960.0 571 2946.5 592.0Q2933.0 613 2911.0 619Q2881.0 627 2881.0 641Q2881.0 647 2889.0 650.5Q2897.0 654 2909.0 654Q2937.0 654 2967.5 652.0Q2998.0 650 3027.0 650Q3053.0 650 3086.5 651.5Q3120.0 653 3144.0 653Q3156.0 653 3163.5 650.0Q3171.0 647 3171.0 640Q3171.0 630 3158.5 625.5Q3146.0 621 3129.0 614Q3115.0 608 3102.5 589.5Q3090.0 571 3090.0 539V270Q3090.0 198 3114.0 151.5Q3138.0 105 3178.0 83.0Q3218.0 61 3268.0 61Q3363.0 61 3409.0 121.0Q3455.0 181 3455.0 293Q3455.0 318 3455.0 352.0Q3455.0 386 3454.5 422.5Q3454.0 459 3453.0 492Q3453.0 531 3447.5 555.5Q3442.0 580 3432.0 594.5Q3422.0 609 3404.0 617Q3394.0 621 3380.5 626.0Q3367.0 631 3367.0 639Q3367.0 647 3375.0 650.0Q3383.0 653 3396.0 653Q3428.0 653 3445.5 652.0Q3463.0 651 3486.0 651Q3503.0 651 3516.5 651.5Q3530.0 652 3543.0 653.0Q3556.0 654 3573.0 654Q3585.0 654 3592.0 651.5Q3599.0 649 3599.0 641Q3599.0 627 3570.0 620Q3539.0 612 3527.0 591.0Q3515.0 570 3513.0 536Q3509.0 457 3507.5 391.0Q3506.0 325 3505.0 258Q3504.0 178 3468.5 116.5Q3433.0 55 3373.0 20.5Q3313.0 -14 3239.0 -14ZM3822.0 -15Q3779.0 -15 3740.5 -4.0Q3702.0 7 3670.0 29Q3664.0 34 3659.0 39.5Q3654.0 45 3651.0 52Q3643.0 77 3640.0 113.5Q3637.0 150 3638.0 184Q3638.0 191 3643.5 194.0Q3649.0 197 3657.0 197Q3665.0 197 3669.5 194.5Q3674.0 192 3676.0 185Q3698.0 110 3740.0 68.0Q3782.0 26 3835.0 26Q3868.0 26 3891.0 41.0Q3914.0 56 3926.0 80.0Q3938.0 104 3938.0 132Q3938.0 167 3925.5 190.0Q3913.0 213 3888.0 231.5Q3863.0 250 3825.0 271Q3784.0 295 3745.0 321.5Q3706.0 348 3681.0 384.5Q3656.0 421 3656.0 475Q3656.0 531 3684.5 573.5Q3713.0 616 3764.0 640.0Q3815.0 664 3882.0 664Q3919.0 664 3951.0 656.0Q3983.0 648 4002.0 640Q4013.0 636 4018.5 630.0Q4024.0 624 4027.0 611Q4033.0 590 4037.5 561.0Q4042.0 532 4042.0 500Q4042.0 488 4024.0 488Q4016.0 488 4008.0 492.0Q4000.0 496 3998.0 503Q3980.0 561 3948.5 591.0Q3917.0 621 3871.0 621Q3840.0 621 3818.0 610.5Q3796.0 600 3783.0 578.5Q3770.0 557 3770.0 523Q3770.0 497 3787.5 475.0Q3805.0 453 3836.5 432.0Q3868.0 411 3907.0 386Q3955.0 358 3987.5 329.5Q4020.0 301 4037.0 266.5Q4054.0 232 4054.0 185Q4054.0 119 4025.0 74.5Q3996.0 30 3944.0 7.5Q3892.0 -15 3822.0 -15ZM4132.0 -4Q4123.0 -4 4116.0 -0.5Q4109.0 3 4109.0 9Q4109.0 24 4134.0 29Q4172.0 37 4189.0 51.0Q4206.0 65 4206.0 97V551Q4206.0 584 4192.0 598.0Q4178.0 612 4139.0 620Q4114.0 625 4114.0 641Q4114.0 647 4121.0 650.5Q4128.0 654 4137.0 654Q4161.0 654 4184.0 653.0Q4207.0 652 4228.5 651.0Q4250.0 650 4272.0 650Q4293.0 650 4314.5 651.0Q4336.0 652 4359.0 653.0Q4382.0 654 4406.0 654Q4416.0 654 4422.0 650.5Q4428.0 647 4428.0 640Q4428.0 632 4421.5 627.5Q4415.0 623 4403.0 620Q4363.0 610 4349.0 596.0Q4335.0 582 4335.0 550V98Q4335.0 67 4351.5 53.0Q4368.0 39 4406.0 29Q4419.0 26 4425.5 22.0Q4432.0 18 4432.0 10Q4432.0 3 4426.0 0.0Q4420.0 -3 4410.0 -3Q4386.0 -3 4362.0 -2.0Q4338.0 -1 4315.5 0.0Q4293.0 1 4272.0 1Q4250.0 1 4227.0 0.0Q4204.0 -1 4180.0 -2.5Q4156.0 -4 4132.0 -4ZM4472.0 -5Q4460.0 -5 4452.0 -1.5Q4444.0 2 4444.0 10Q4444.0 19 4451.5 24.0Q4459.0 29 4471.0 33Q4500.0 41 4521.5 57.5Q4543.0 74 4556.0 103Q4581.0 162 4604.0 216.5Q4627.0 271 4648.0 325.0Q4669.0 379 4690.5 435.0Q4712.0 491 4734.0 553Q4745.0 584 4749.0 601.0Q4753.0 618 4756.0 626Q4771.0 630 4784.0 634.0Q4797.0 638 4813.0 644Q4827.0 651 4837.0 662.0Q4847.0 673 4852.0 679Q4855.0 681 4858.0 681.5Q4861.0 682 4864.0 677Q4867.0 671 4869.0 665.0Q4871.0 659 4873.0 652Q4895.0 581 4918.5 508.5Q4942.0 436 4965.0 365.5Q4988.0 295 5009.5 230.5Q5031.0 166 5049.0 112Q5058.0 85 5071.5 69.0Q5085.0 53 5101.5 44.5Q5118.0 36 5138.0 31Q5151.0 28 5158.0 23.0Q5165.0 18 5165.0 9Q5165.0 3 5158.5 0.0Q5152.0 -3 5142.0 -3Q5124.0 -3 5096.5 -2.0Q5069.0 -1 5040.0 0.5Q5011.0 2 4988.0 2Q4968.0 2 4943.5 1.0Q4919.0 0 4894.5 -1.0Q4870.0 -2 4853.0 -2Q4843.0 -2 4835.5 1.5Q4828.0 5 4828.0 12Q4828.0 20 4836.0 25.5Q4844.0 31 4855.0 33Q4891.0 39 4907.0 51.5Q4923.0 64 4919.0 88Q4916.0 105 4910.0 128.5Q4904.0 152 4897.5 177.5Q4891.0 203 4884.0 224Q4882.0 232 4878.0 235.5Q4874.0 239 4863.0 239H4683.0Q4676.0 239 4672.0 234.5Q4668.0 230 4666.0 221Q4662.0 208 4656.5 191.5Q4651.0 175 4645.5 157.5Q4640.0 140 4635.5 125.0Q4631.0 110 4629.0 99Q4624.0 72 4638.5 56.5Q4653.0 41 4689.0 32Q4716.0 25 4716.0 11Q4716.0 5 4709.5 1.5Q4703.0 -2 4691.0 -2Q4668.0 -2 4643.0 -0.5Q4618.0 1 4588.0 1Q4558.0 1 4529.5 -2.0Q4501.0 -5 4472.0 -5ZM4710.0 285H4849.0Q4863.0 285 4863.0 291Q4863.0 294 4862.5 296.0Q4862.0 298 4861.0 302L4791.0 533Q4787.0 547 4784.0 547Q4782.0 547 4777.0 534L4693.0 302Q4691.0 297 4691.0 294Q4691.0 289 4696.5 287.0Q4702.0 285 4710.0 285ZM5373.0 -15Q5330.0 -15 5291.5 -4.0Q5253.0 7 5221.0 29Q5215.0 34 5210.0 39.5Q5205.0 45 5202.0 52Q5194.0 77 5191.0 113.5Q5188.0 150 5189.0 184Q5189.0 191 5194.5 194.0Q5200.0 197 5208.0 197Q5216.0 197 5220.5 194.5Q5225.0 192 5227.0 185Q5249.0 110 5291.0 68.0Q5333.0 26 5386.0 26Q5419.0 26 5442.0 41.0Q5465.0 56 5477.0 80.0Q5489.0 104 5489.0 132Q5489.0 167 5476.5 190.0Q5464.0 213 5439.0 231.5Q5414.0 250 5376.0 271Q5335.0 295 5296.0 321.5Q5257.0 348 5232.0 384.5Q5207.0 421 5207.0 475Q5207.0 531 5235.5 573.5Q5264.0 616 5315.0 640.0Q5366.0 664 5433.0 664Q5470.0 664 5502.0 656.0Q5534.0 648 5553.0 640Q5564.0 636 5569.5 630.0Q5575.0 624 5578.0 611Q5584.0 590 5588.5 561.0Q5593.0 532 5593.0 500Q5593.0 488 5575.0 488Q5567.0 488 5559.0 492.0Q5551.0 496 5549.0 503Q5531.0 561 5499.5 591.0Q5468.0 621 5422.0 621Q5391.0 621 5369.0 610.5Q5347.0 600 5334.0 578.5Q5321.0 557 5321.0 523Q5321.0 497 5338.5 475.0Q5356.0 453 5387.5 432.0Q5419.0 411 5458.0 386Q5506.0 358 5538.5 329.5Q5571.0 301 5588.0 266.5Q5605.0 232 5605.0 185Q5605.0 119 5576.0 74.5Q5547.0 30 5495.0 7.5Q5443.0 -15 5373.0 -15ZM5688.0 -4Q5676.0 -4 5669.5 -0.5Q5663.0 3 5663.0 9Q5663.0 17 5671.5 20.5Q5680.0 24 5692.0 27Q5716.0 34 5733.0 54.0Q5750.0 74 5754.0 106Q5762.0 167 5769.5 239.0Q5777.0 311 5783.5 384.0Q5790.0 457 5794.0 521Q5794.0 528 5794.0 537.0Q5794.0 546 5794.0 555Q5793.0 570 5788.5 579.5Q5784.0 589 5773.0 597Q5759.0 607 5744.0 612.5Q5729.0 618 5710.0 622Q5699.0 624 5692.5 629.5Q5686.0 635 5686.0 643Q5686.0 651 5694.0 654.0Q5702.0 657 5715.0 657Q5728.0 657 5750.0 656.0Q5772.0 655 5797.5 653.5Q5823.0 652 5848.0 651.0Q5873.0 650 5892.0 650Q5900.0 650 5906.0 645.0Q5912.0 640 5914.0 633Q5920.0 614 5926.0 596.0Q5932.0 578 5939.0 558L6089.0 191Q6092.0 186 6097.0 185.5Q6102.0 185 6104.0 190L6265.0 548Q6272.0 577 6276.5 599.0Q6281.0 621 6285.0 634Q6288.0 647 6298.0 647H6339.0Q6377.0 649 6419.0 653.0Q6461.0 657 6484.0 657Q6492.0 657 6499.5 654.5Q6507.0 652 6507.0 644Q6507.0 636 6501.0 632.0Q6495.0 628 6483.0 623Q6475.0 621 6464.0 616.5Q6453.0 612 6445.0 608Q6424.0 599 6413.5 585.0Q6403.0 571 6404.0 545Q6405.0 474 6408.0 417.5Q6411.0 361 6413.5 311.5Q6416.0 262 6420.0 210.5Q6424.0 159 6427.0 97Q6429.0 69 6448.5 53.0Q6468.0 37 6501.0 29Q6513.0 26 6520.5 22.0Q6528.0 18 6528.0 10Q6528.0 3 6521.5 0.0Q6515.0 -3 6504.0 -3Q6481.0 -3 6456.0 -2.0Q6431.0 -1 6407.5 0.0Q6384.0 1 6363.0 1Q6343.0 1 6322.0 0.0Q6301.0 -1 6279.0 -2.5Q6257.0 -4 6233.0 -4Q6223.0 -4 6215.5 -0.5Q6208.0 3 6208.0 9Q6208.0 17 6215.5 22.0Q6223.0 27 6235.0 29Q6269.0 36 6282.5 50.0Q6296.0 64 6294.0 97Q6293.0 162 6291.0 222.0Q6289.0 282 6287.0 341.0Q6285.0 400 6282.0 460Q6281.0 468 6277.5 467.5Q6274.0 467 6270.0 459L6066.0 -1Q6062.0 -12 6053.0 -10.5Q6044.0 -9 6041.0 -1Q5995.0 115 5944.5 228.5Q5894.0 342 5845.0 459Q5842.0 467 5836.5 465.0Q5831.0 463 5830.0 454Q5825.0 398 5821.0 338.5Q5817.0 279 5816.0 220.0Q5815.0 161 5815.0 103Q5815.0 76 5832.5 57.0Q5850.0 38 5886.0 29Q5898.0 27 5906.5 22.5Q5915.0 18 5915.0 10Q5915.0 3 5907.0 0.0Q5899.0 -3 5889.0 -3Q5862.0 -3 5848.0 -2.0Q5834.0 -1 5822.0 0.0Q5810.0 1 5790.0 1Q5769.0 1 5750.5 0.0Q5732.0 -1 5716.0 -2.5Q5700.0 -4 5688.0 -4Z" transform="matrix(0.022120 0 0 -0.022120 77.52 391.38)" fill="#15130f"/></svg>