<svg xmlns="http://www.w3.org/2000/svg" viewBox="0 0 300 446"><rect width="300" height="446" fill="#f4ecd8"/><rect x="20.0" y="25.5" width="260" height="395" rx="20.3" fill="#f4ecd8" stroke="#15130f" stroke-width="1.5"/><rect x="36.9" y="42.4" width="226.2" height="354.7" fill="none" stroke="#15130f" stroke-width="0.7"/><g fill="none" stroke="#15130f" stroke-width="0.65" stroke-opacity="0.72" stroke-linecap="round" stroke-linejoin="round"><line x1="36.9" y1="155.5" x2="263.1" y2="155.5"/><path d="M36.9,155.5 A113.1,113.1 0 0 1 263.1,155.5"/></g><path d="M36.9,370.6 H263.1 V397.1 H36.9 Z" fill="#f0cf48"/><g fill="none" stroke="#15130f" stroke-width="0.8"><line x1="36.9" y1="370.6" x2="263.1" y2="370.6"/><line x1="61.6" y1="370.6" x2="61.6" y2="397.1"/><line x1="238.4" y1="370.6" x2="238.4" y2="397.1"/></g><rect x="141.4" y="34.4" width="17.2" height="19.0" fill="#f0cf48" stroke="#15130f" stroke-width="0.8"/><path d="M649.0 1092V235L647.0 193L657.0 137Q686.0 59 825.0 52Q867.0 50 867.0 28Q867.0 -7 780.0 -7Q761.0 -7 652.0 2Q595.0 7 494.0 7Q394.0 7 322.0 -2Q293.0 -5 280.0 -5Q255.0 -5 255.0 20Q255.0 41 281.0 45Q384.0 61 415.0 92.0Q446.0 123 446.0 210L445.0 248V1010Q445.0 1115 363.0 1115Q331.0 1115 306.0 1104L281.0 1093Q270.0 1089 261.0 1089Q235.0 1089 235.0 1113Q235.0 1137 260.0 1150.0Q285.0 1163 362.0 1180Q506.0 1211 567.0 1267L614.0 1310Q625.0 1320 641.0 1320Q661.0 1320 661.0 1282Q661.0 1271 659.0 1243L651.0 1153Q649.0 1126 649.0 1092ZM1947.0 348Q1970.0 348 1972.0 331L1970.0 321L1955.0 277Q1941.0 236 1920.0 192L1869.0 85Q1839.0 23 1816.5 9.5Q1794.0 -4 1721.0 -4Q1677.0 -4 1615.0 -1L1530.0 4Q1482.0 6 1395.0 6Q1232.0 6 1191.0 -1Q1163.0 -6 1150.0 -6Q1119.0 -6 1119.0 21Q1119.0 40 1178.0 106Q1270.0 211 1389.0 383.0Q1508.0 555 1565.0 665Q1641.0 813 1641.0 932Q1641.0 1035 1583.0 1096.0Q1525.0 1157 1428.0 1157Q1290.0 1157 1180.0 1033Q1170.0 1021 1162.0 1021Q1155.0 1021 1146.5 1029.5Q1138.0 1038 1138.0 1046Q1138.0 1059 1169.0 1101.5Q1200.0 1144 1234.0 1176Q1367.0 1307 1541.0 1307Q1679.0 1307 1764.0 1230.5Q1849.0 1154 1849.0 1029Q1849.0 803 1456.0 355L1408.0 300Q1366.0 253 1366.0 233Q1366.0 198 1450.0 198L1614.0 200L1710.0 201Q1774.0 204 1835.0 241.0Q1896.0 278 1926.0 333Q1935.0 348 1947.0 348Z" transform="matrix(0.006024 0 0 -0.006024 143.35 48.63)" fill="#15130f"/><path d="M700 1410Q993 1410 1171.5 1205.0Q1350 1000 1350 700Q1350 399 1170.0 194.5Q990 -10 700 -10Q410 -10 230.0 194.5Q50 399 50 700Q50 1000 228.5 1205.0Q407 1410 700 1410ZM700 1310Q487 1310 368.5 1116.5Q250 923 250 700Q250 481 368.5 285.5Q487 90 700 90Q910 90 1030.0 285.5Q1150 481 1150 700Q1150 923 1030.0 1116.5Q910 1310 700 1310ZM700.0 950Q766.0 950 826.0 918.0Q886.0 886 918.0 826.0Q950.0 766 950.0 700Q950.0 634 918.0 574.0Q886.0 514 826.0 482.0Q766.0 450 700.0 450Q634.0 450 574.0 482.0Q514.0 514 482.0 574.0Q450.0 634 450.0 700Q450.0 766 482.0 826.0Q514.0 886 574.0 918.0Q634.0 950 700.0 950Z" transform="matrix(0.009268 0 0 -0.009268 42.76 390.35)" fill="#15130f"/><path d="M548.0 750Q533.0 984 370.0 1200Q330.0 1250 250.0 1305.0Q170.0 1360 100.0 1360H50.0V1400H402.0Q440.0 1370 476.0 1337Q731.0 1091 749.0 750H951.0Q969.0 1091 1224.0 1337Q1260.0 1370 1298.0 1400H1650.0V1360H1600.0Q1530.0 1360 1450.0 1305.0Q1370.0 1250 1330.0 1200Q1167.0 984 1152.0 750H1600.0V650H1152.0Q1168.0 413 1340.0 190Q1378.0 145 1450.0 95Q1530.0 40 1600.0 40H1650.0V0H1301.0Q1262.0 29 1227.0 63Q969.0 308 951.0 650H749.0Q731.0 308 473.0 63Q438.0 29 399.0 0H50.0V40H100.0Q170.0 40 250.0 95Q322.0 145 360.0 190Q532.0 413 548.0 650H100.0V750Z" transform="matrix(0.009268 0 0 -0.009268 242.87 390.35)" fill="#15130f"/><path d="M338.0 -15Q326.0 -15 321.0 -2Q315.0 11 306.0 34.0Q297.0 57 290.0 76L99.0 549Q89.0 574 72.0 592.5Q55.0 611 27.0 619Q15.0 623 7.5 627.5Q0.0 632 0.0 640Q0.0 647 7.0 650.5Q14.0 654 24.0 654Q42.0 654 66.5 653.0Q91.0 652 116.0 651.0Q141.0 650 162.0 650Q182.0 650 208.0 651.0Q234.0 652 258.5 653.0Q283.0 654 300.0 654Q310.0 654 319.0 650.5Q328.0 647 328.0 640Q328.0 632 319.0 626.5Q310.0 621 297.0 619Q268.0 614 252.5 605.5Q237.0 597 237.0 580Q237.0 570 240.0 561.0Q243.0 552 244.0 545L379.0 177Q381.0 172 383.5 171.0Q386.0 170 389.0 178L512.0 502Q532.0 554 518.5 583.5Q505.0 613 465.0 619Q452.0 621 442.5 626.5Q433.0 632 433.0 640Q433.0 647 442.0 650.0Q451.0 653 462.0 653Q480.0 653 495.0 652.5Q510.0 652 525.0 651.5Q540.0 651 559.0 651Q588.0 651 616.5 653.0Q645.0 655 670.0 655Q682.0 655 691.0 652.0Q700.0 649 700.0 641Q700.0 632 691.5 628.0Q683.0 624 671.0 621Q638.0 613 616.5 589.0Q595.0 565 579.0 527L415.0 133Q404.0 106 393.5 82.0Q383.0 58 374.5 37.0Q366.0 16 357.0 -2Q354.0 -9 350.0 -12.0Q346.0 -15 338.0 -15ZM735.0 -4Q726.0 -4 719.0 -0.5Q712.0 3 712.0 9Q712.0 24 737.0 29Q775.0 37 792.0 51.0Q809.0 65 809.0 97V551Q809.0 584 795.0 598.0Q781.0 612 742.0 620Q717.0 625 717.0 641Q717.0 647 724.0 650.5Q731.0 654 740.0 654Q764.0 654 787.0 653.0Q810.0 652 831.5 651.0Q853.0 650 875.0 650Q896.0 650 917.5 651.0Q939.0 652 962.0 653.0Q985.0 654 1009.0 654Q1019.0 654 1025.0 650.5Q1031.0 647 1031.0 640Q1031.0 632 1024.5 627.5Q1018.0 623 1006.0 620Q966.0 610 952.0 596.0Q938.0 582 938.0 550V98Q938.0 67 954.5 53.0Q971.0 39 1009.0 29Q1022.0 26 1028.5 22.0Q1035.0 18 1035.0 10Q1035.0 3 1029.0 0.0Q1023.0 -3 1013.0 -3Q989.0 -3 965.0 -2.0Q941.0 -1 918.5 0.0Q896.0 1 875.0 1Q853.0 1 830.0 0.0Q807.0 -1 783.0 -2.5Q759.0 -4 735.0 -4ZM1265.0 -15Q1222.0 -15 1183.5 -4.0Q1145.0 7 1113.0 29Q1107.0 34 1102.0 39.5Q1097.0 45 1094.0 52Q1086.0 77 1083.0 113.5Q1080.0 150 1081.0 184Q1081.0 191 1086.5 194.0Q1092.0 197 1100.0 197Q1108.0 197 1112.5 194.5Q1117.0 192 1119.0 185Q1141.0 110 1183.0 68.0Q1225.0 26 1278.0 26Q1311.0 26 1334.0 41.0Q1357.0 56 1369.0 80.0Q1381.0 104 1381.0 132Q1381.0 167 1368.5 190.0Q1356.0 213 1331.0 231.5Q1306.0 250 1268.0 271Q1227.0 295 1188.0 321.5Q1149.0 348 1124.0 384.5Q1099.0 421 1099.0 475Q1099.0 531 1127.5 573.5Q1156.0 616 1207.0 640.0Q1258.0 664 1325.0 664Q1362.0 664 1394.0 656.0Q1426.0 648 1445.0 640Q1456.0 636 1461.5 630.0Q1467.0 624 1470.0 611Q1476.0 590 1480.5 561.0Q1485.0 532 1485.0 500Q1485.0 488 1467.0 488Q1459.0 488 1451.0 492.0Q1443.0 496 1441.0 503Q1423.0 561 1391.5 591.0Q1360.0 621 1314.0 621Q1283.0 621 1261.0 610.5Q1239.0 600 1226.0 578.5Q1213.0 557 1213.0 523Q1213.0 497 1230.5 475.0Q1248.0 453 1279.5 432.0Q1311.0 411 1350.0 386Q1398.0 358 1430.5 329.5Q1463.0 301 1480.0 266.5Q1497.0 232 1497.0 185Q1497.0 119 1468.0 74.5Q1439.0 30 1387.0 7.5Q1335.0 -15 1265.0 -15ZM1575.0 -4Q1566.0 -4 1559.0 -0.5Q1552.0 3 1552.0 9Q1552.0 24 1577.0 29Q1615.0 37 1632.0 51.0Q1649.0 65 1649.0 97V551Q1649.0 584 1635.0 598.0Q1621.0 612 1582.0 620Q1557.0 625 1557.0 641Q1557.0 647 1564.0 650.5Q1571.0 654 1580.0 654Q1604.0 654 1627.0 653.0Q1650.0 652 1671.5 651.0Q1693.0 650 1715.0 650Q1736.0 650 1757.5 651.0Q1779.0 652 1802.0 653.0Q1825.0 654 1849.0 654Q1859.0 654 1865.0 650.5Q1871.0 647 1871.0 640Q1871.0 632 1864.5 627.5Q1858.0 623 1846.0 620Q1806.0 610 1792.0 596.0Q1778.0 582 1778.0 550V98Q1778.0 67 1794.5 53.0Q1811.0 39 1849.0 29Q1862.0 26 1868.5 22.0Q1875.0 18 1875.0 10Q1875.0 3 1869.0 0.0Q1863.0 -3 1853.0 -3Q1829.0 -3 1805.0 -2.0Q1781.0 -1 1758.5 0.0Q1736.0 1 1715.0 1Q1693.0 1 1670.0 0.0Q1647.0 -1 1623.0 -2.5Q1599.0 -4 1575.0 -4ZM2267.0 -14Q2199.0 -14 2137.0 9.5Q2075.0 33 2027.5 76.5Q1980.0 120 1952.5 180.5Q1925.0 241 1925.0 315Q1925.0 383 1947.5 445.5Q1970.0 508 2014.5 557.0Q2059.0 606 2124.5 635.0Q2190.0 664 2276.0 664Q2344.0 664 2405.5 640.5Q2467.0 617 2515.0 573.5Q2563.0 530 2590.5 469.5Q2618.0 409 2618.0 335Q2618.0 268 2595.5 205.0Q2573.0 142 2528.5 93.0Q2484.0 44 2418.5 15.0Q2353.0 -14 2267.0 -14ZM2284.0 30Q2347.0 30 2389.5 62.0Q2432.0 94 2453.5 151.5Q2475.0 209 2475.0 284Q2475.0 348 2462.0 408.0Q2449.0 468 2422.0 515.5Q2395.0 563 2354.5 591.0Q2314.0 619 2258.0 619Q2195.0 619 2152.5 587.0Q2110.0 555 2089.0 498.0Q2068.0 441 2068.0 366Q2068.0 302 2081.0 242.0Q2094.0 182 2120.5 134.0Q2147.0 86 2187.5 58.0Q2228.0 30 2284.0 30ZM3328.0 -18Q3316.0 -18 3288.0 -3.0Q3260.0 12 3231.0 49Q3214.0 68 3189.5 95.5Q3165.0 123 3135.5 156.0Q3106.0 189 3074.0 225.0Q3042.0 261 3010.5 297.0Q2979.0 333 2949.0 366.0Q2919.0 399 2894.0 426.5Q2869.0 454 2852.0 474Q2848.0 479 2843.5 482.5Q2839.0 486 2836.0 486Q2832.0 486 2830.0 479.0Q2828.0 472 2828.0 466Q2828.0 420 2828.5 357.0Q2829.0 294 2829.0 229.0Q2829.0 164 2829.0 109Q2829.0 78 2847.0 58.0Q2865.0 38 2904.0 29Q2916.0 27 2924.5 22.5Q2933.0 18 2933.0 10Q2933.0 3 2925.0 0.0Q2917.0 -3 2907.0 -3Q2880.0 -3 2864.0 -2.0Q2848.0 -1 2835.0 0.0Q2822.0 1 2802.0 1Q2781.0 1 2764.5 0.0Q2748.0 -1 2735.0 -2.5Q2722.0 -4 2710.0 -4Q2700.0 -4 2692.0 -0.5Q2684.0 3 2684.0 9Q2684.0 17 2691.5 21.5Q2699.0 26 2712.0 30Q2738.0 38 2750.5 59.5Q2763.0 81 2766.0 111Q2770.0 149 2774.0 210.5Q2778.0 272 2781.5 349.0Q2785.0 426 2785.0 508Q2785.0 560 2758.5 583.0Q2732.0 606 2692.0 620Q2685.0 622 2674.0 628.0Q2663.0 634 2663.0 643Q2663.0 652 2671.0 655.0Q2679.0 658 2688.0 658Q2709.0 658 2730.0 657.0Q2751.0 656 2772.5 655.5Q2794.0 655 2817.5 654.0Q2841.0 653 2868.0 653Q2877.0 653 2881.5 649.5Q2886.0 646 2890.0 640Q2906.0 621 2931.0 592.5Q2956.0 564 2985.5 529.5Q3015.0 495 3047.5 457.0Q3080.0 419 3112.5 381.0Q3145.0 343 3175.0 308.5Q3205.0 274 3229.5 245.5Q3254.0 217 3270.0 199Q3274.0 195 3279.5 189.0Q3285.0 183 3289.0 183Q3297.0 183 3298.0 200Q3298.0 226 3298.0 266.5Q3298.0 307 3298.5 356.5Q3299.0 406 3298.5 458.0Q3298.0 510 3297.0 558Q3296.0 583 3276.5 597.5Q3257.0 612 3228.0 618Q3216.0 621 3205.5 625.5Q3195.0 630 3195.0 639Q3195.0 646 3205.5 649.0Q3216.0 652 3225.0 652Q3245.0 652 3258.5 652.0Q3272.0 652 3284.0 651.5Q3296.0 651 3309.0 651Q3331.0 651 3345.0 651.5Q3359.0 652 3375.5 653.0Q3392.0 654 3419.0 654Q3431.0 654 3438.5 650.5Q3446.0 647 3446.0 641Q3446.0 626 3417.0 620Q3382.0 613 3367.5 601.0Q3353.0 589 3352.0 561Q3352.0 536 3351.5 497.0Q3351.0 458 3350.0 412.0Q3349.0 366 3347.5 318.0Q3346.0 270 3345.5 224.0Q3345.0 178 3345.0 141Q3345.0 117 3347.0 92.0Q3349.0 67 3351.5 47.5Q3354.0 28 3354.0 20Q3354.0 -2 3347.0 -10.0Q3340.0 -18 3328.0 -18Z" transform="matrix(0.022120 0 0 -0.022120 111.89 391.01)" fill="#15130f"/></svg>