<svg xmlns="http://www.w3.org/2000/svg" viewBox="0 0 300 446"><rect width="300" height="446" fill="#f4ecd8"/><rect x="20.0" y="25.5" width="260" height="395" rx="20.3" fill="#f4ecd8" stroke="#15130f" stroke-width="1.5"/><rect x="36.9" y="42.4" width="226.2" height="354.7" fill="none" stroke="#15130f" stroke-width="0.7"/><g fill="none" stroke="#15130f" stroke-width="0.65" stroke-opacity="0.72" stroke-linecap="round" stroke-linejoin="round"><line x1="36.9" y1="155.5" x2="263.1" y2="155.5"/><path d="M36.9,155.5 A113.1,113.1 0 0 1 263.1,155.5"/></g><path d="M36.9,370.6 H263.1 V397.1 H36.9 Z" fill="#f0cf48"/><g fill="none" stroke="#15130f" stroke-width="0.8"><line x1="36.9" y1="370.6" x2="263.1" y2="370.6"/><line x1="61.6" y1="370.6" x2="61.6" y2="397.1"/><line x1="238.4" y1="370.6" x2="238.4" y2="397.1"/></g><rect x="141.4" y="34.4" width="17.2" height="19.0" fill="#f0cf48" stroke="#15130f" stroke-width="0.8"/><path d="M923.0 348Q946.0 348 948.0 331L946.0 321L931.0 277Q917.0 236 896.0 192L845.0 85Q815.0 23 792.5 9.5Q770.0 -4 697.0 -4Q653.0 -4 591.0 -1L506.0 4Q458.0 6 371.0 6Q208.0 6 167.0 -1Q139.0 -6 126.0 -6Q95.0 -6 95.0 21Q95.0 40 154.0 106Q246.0 211 365.0 383.0Q484.0 555 541.0 665Q617.0 813 617.0 932Q617.0 1035 559.0 1096.0Q501.0 1157 404.0 1157Q266.0 1157 156.0 1033Q146.0 1021 138.0 1021Q131.0 1021 122.5 1029.5Q114.0 1038 114.0 1046Q114.0 1059 145.0 1101.5Q176.0 1144 210.0 1176Q343.0 1307 517.0 1307Q655.0 1307 740.0 1230.5Q825.0 1154 825.0 1029Q825.0 803 432.0 355L384.0 300Q342.0 253 342.0 233Q342.0 198 426.0 198L590.0 200L686.0 201Q750.0 204 811.0 241.0Q872.0 278 902.0 333Q911.0 348 923.0 348Z" transform="matrix(0.006858 0 0 -0.006858 146.42 49.14)" fill="#15130f"/><path d="M700 1410Q993 1410 1171.5 1205.0Q1350 1000 1350 700Q1350 399 1170.0 194.5Q990 -10 700 -10Q410 -10 230.0 194.5Q50 399 50 700Q50 1000 228.5 1205.0Q407 1410 700 1410ZM700 1310Q487 1310 368.5 1116.5Q250 923 250 700Q250 481 368.5 285.5Q487 90 700 90Q910 90 1030.0 285.5Q1150 481 1150 700Q1150 923 1030.0 1116.5Q910 1310 700 1310ZM700.0 950Q766.0 950 826.0 918.0Q886.0 886 918.0 826.0Q950.0 766 950.0 700Q950.0 634 918.0 574.0Q886.0 514 826.0 482.0Q766.0 450 700.0 450Q634.0 450 574.0 482.0Q514.0 514 482.0 574.0Q450.0 634 450.0 700Q450.0 766 482.0 826.0Q514.0 886 574.0 918.0Q634.0 950 700.0 950Z" transform="matrix(0.009268 0 0 -0.009268 42.76 390.35)" fill="#15130f"/><path d="M467.0 450Q467.0 349 495.0 264.5Q523.0 180 575.5 135.0Q628.0 90 684.0 90Q741.0 90 793.5 135.0Q846.0 180 874.0 264.5Q902.0 349 902.0 450Q902.0 541 874.0 625.5Q846.0 710 793.5 755.0Q741.0 800 684.0 800Q628.0 800 575.5 755.0Q523.0 710 495.0 625.5Q467.0 541 467.0 450ZM897.0 840Q995.0 782 1048.0 676Q1102.0 567 1102.0 450Q1102.0 323 1048.0 214.5Q994.0 106 893.5 48.0Q793.0 -10 684.0 -10Q576.0 -10 475.5 48.0Q375.0 106 321.0 214.5Q267.0 323 267.0 450Q267.0 567 321.0 676Q374.0 782 472.0 840Q374.0 878 321.0 950Q267.0 1022 267.0 1100Q267.0 1162 239.0 1210.5Q211.0 1259 158.5 1284.5Q106.0 1310 50.0 1310V1410Q158.0 1410 258.5 1371.5Q359.0 1333 413.0 1260.5Q467.0 1188 467.0 1100Q467.0 1048 495.0 999.5Q523.0 951 575.5 925.5Q628.0 900 684.0 900Q741.0 900 793.5 925.5Q846.0 951 874.0 999.5Q902.0 1048 902.0 1100Q902.0 1188 956.0 1260.5Q1010.0 1333 1110.5 1371.5Q1211.0 1410 1320.0 1410V1310Q1263.0 1310 1210.5 1284.5Q1158.0 1259 1130.0 1210.5Q1102.0 1162 1102.0 1100Q1102.0 1022 1048.0 950Q995.0 878 897.0 840Z" transform="matrix(0.009268 0 0 -0.009268 244.40 390.35)" fill="#15130f"/><path d="M24.0 -5Q12.0 -5 4.0 -1.5Q-4.0 2 -4.0 10Q-4.0 19 3.5 24.0Q11.0 29 23.0 33Q52.0 41 73.5 57.5Q95.0 74 108.0 103Q133.0 162 156.0 216.5Q179.0 271 200.0 325.0Q221.0 379 242.5 435.0Q264.0 491 286.0 553Q297.0 584 301.0 601.0Q305.0 618 308.0 626Q323.0 630 336.0 634.0Q349.0 638 365.0 644Q379.0 651 389.0 662.0Q399.0 673 404.0 679Q407.0 681 410.0 681.5Q413.0 682 416.0 677Q419.0 671 421.0 665.0Q423.0 659 425.0 652Q447.0 581 470.5 508.5Q494.0 436 517.0 365.5Q540.0 295 561.5 230.5Q583.0 166 601.0 112Q610.0 85 623.5 69.0Q637.0 53 653.5 44.5Q670.0 36 690.0 31Q703.0 28 710.0 23.0Q717.0 18 717.0 9Q717.0 3 710.5 0.0Q704.0 -3 694.0 -3Q676.0 -3 648.5 -2.0Q621.0 -1 592.0 0.5Q563.0 2 540.0 2Q520.0 2 495.5 1.0Q471.0 0 446.5 -1.0Q422.0 -2 405.0 -2Q395.0 -2 387.5 1.5Q380.0 5 380.0 12Q380.0 20 388.0 25.5Q396.0 31 407.0 33Q443.0 39 459.0 51.5Q475.0 64 471.0 88Q468.0 105 462.0 128.5Q456.0 152 449.5 177.5Q443.0 203 436.0 224Q434.0 232 430.0 235.5Q426.0 239 415.0 239H235.0Q228.0 239 224.0 234.5Q220.0 230 218.0 221Q214.0 208 208.5 191.5Q203.0 175 197.5 157.5Q192.0 140 187.5 125.0Q183.0 110 181.0 99Q176.0 72 190.5 56.5Q205.0 41 241.0 32Q268.0 25 268.0 11Q268.0 5 261.5 1.5Q255.0 -2 243.0 -2Q220.0 -2 195.0 -0.5Q170.0 1 140.0 1Q110.0 1 81.5 -2.0Q53.0 -5 24.0 -5ZM262.0 285H401.0Q415.0 285 415.0 291Q415.0 294 414.5 296.0Q414.0 298 413.0 302L343.0 533Q339.0 547 336.0 547Q334.0 547 329.0 534L245.0 302Q243.0 297 243.0 294Q243.0 289 248.5 287.0Q254.0 285 262.0 285ZM1116.0 -14Q1041.0 -14 974.0 9.5Q907.0 33 855.5 77.0Q804.0 121 774.5 182.5Q745.0 244 745.0 319Q745.0 389 774.0 451.0Q803.0 513 856.0 561.0Q909.0 609 982.5 636.5Q1056.0 664 1144.0 664Q1178.0 664 1208.5 659.5Q1239.0 655 1268.0 648.5Q1297.0 642 1325.0 632Q1336.0 628 1342.5 621.0Q1349.0 614 1350.0 602Q1354.0 572 1356.0 542.5Q1358.0 513 1358.0 484Q1359.0 474 1351.0 469.5Q1343.0 465 1334.0 468.5Q1325.0 472 1321.0 483Q1313.0 511 1302.5 535.5Q1292.0 560 1271.0 577Q1248.0 596 1213.0 607.5Q1178.0 619 1131.0 619Q1077.0 619 1033.0 597.0Q989.0 575 957.5 536.0Q926.0 497 909.0 448.0Q892.0 399 892.0 345Q892.0 281 907.5 224.0Q923.0 167 954.5 123.5Q986.0 80 1031.0 55.5Q1076.0 31 1134.0 31Q1208.0 31 1254.0 63.0Q1300.0 95 1332.0 158Q1340.0 174 1354.0 173.5Q1368.0 173 1368.0 157Q1368.0 145 1365.0 127.0Q1362.0 109 1356.5 88.5Q1351.0 68 1344.0 48Q1340.0 36 1334.0 30.0Q1328.0 24 1316.0 19Q1278.0 3 1226.5 -5.5Q1175.0 -14 1116.0 -14ZM2154.0 -248Q2090.0 -248 2031.0 -227.5Q1972.0 -207 1922.0 -171Q1884.0 -144 1852.0 -120.5Q1820.0 -97 1780.0 -63Q1755.0 -41 1726.5 -21.5Q1698.0 -2 1666.0 11Q1631.0 25 1593.5 49.5Q1556.0 74 1524.5 110.5Q1493.0 147 1473.5 197.5Q1454.0 248 1454.0 315Q1454.0 383 1476.5 445.5Q1499.0 508 1543.5 557.0Q1588.0 606 1653.5 635.0Q1719.0 664 1805.0 664Q1873.0 664 1934.5 640.5Q1996.0 617 2044.0 573.5Q2092.0 530 2119.5 469.5Q2147.0 409 2147.0 335Q2147.0 264 2122.0 198.5Q2097.0 133 2048.0 83.0Q1999.0 33 1926.0 8Q1916.0 5 1916.0 -1Q1916.0 -6 1921.0 -11Q1946.0 -36 1972.0 -59.0Q1998.0 -82 2035.0 -111Q2084.0 -150 2127.0 -166.0Q2170.0 -182 2217.0 -182Q2230.0 -182 2241.5 -180.5Q2253.0 -179 2259.0 -177Q2265.0 -176 2270.0 -175.0Q2275.0 -174 2280.0 -174Q2302.0 -174 2302.0 -191Q2302.0 -200 2298.0 -205.5Q2294.0 -211 2283.0 -218Q2260.0 -233 2226.5 -240.5Q2193.0 -248 2154.0 -248ZM1813.0 31Q1908.0 31 1956.0 99.5Q2004.0 168 2004.0 284Q2004.0 350 1991.0 409.5Q1978.0 469 1951.0 516.0Q1924.0 563 1883.5 590.0Q1843.0 617 1787.0 617Q1692.0 617 1644.5 549.0Q1597.0 481 1597.0 366Q1597.0 300 1610.0 240.5Q1623.0 181 1649.5 133.5Q1676.0 86 1716.5 58.5Q1757.0 31 1813.0 31ZM2554.0 -14Q2461.0 -14 2399.0 19.0Q2337.0 52 2306.0 111.0Q2275.0 170 2275.0 249V541Q2275.0 571 2261.5 592.0Q2248.0 613 2226.0 619Q2196.0 627 2196.0 641Q2196.0 647 2204.0 650.5Q2212.0 654 2224.0 654Q2252.0 654 2282.5 652.0Q2313.0 650 2342.0 650Q2368.0 650 2401.5 651.5Q2435.0 653 2459.0 653Q2471.0 653 2478.5 650.0Q2486.0 647 2486.0 640Q2486.0 630 2473.5 625.5Q2461.0 621 2444.0 614Q2430.0 608 2417.5 589.5Q2405.0 571 2405.0 539V270Q2405.0 198 2429.0 151.5Q2453.0 105 2493.0 83.0Q2533.0 61 2583.0 61Q2678.0 61 2724.0 121.0Q2770.0 181 2770.0 293Q2770.0 318 2770.0 352.0Q2770.0 386 2769.5 422.5Q2769.0 459 2768.0 492Q2768.0 531 2762.5 555.5Q2757.0 580 2747.0 594.5Q2737.0 609 2719.0 617Q2709.0 621 2695.5 626.0Q2682.0 631 2682.0 639Q2682.0 647 2690.0 650.0Q2698.0 653 2711.0 653Q2743.0 653 2760.5 652.0Q2778.0 651 2801.0 651Q2818.0 651 2831.5 651.5Q2845.0 652 2858.0 653.0Q2871.0 654 2888.0 654Q2900.0 654 2907.0 651.5Q2914.0 649 2914.0 641Q2914.0 627 2885.0 620Q2854.0 612 2842.0 591.0Q2830.0 570 2828.0 536Q2824.0 457 2822.5 391.0Q2821.0 325 2820.0 258Q2819.0 178 2783.5 116.5Q2748.0 55 2688.0 20.5Q2628.0 -14 2554.0 -14ZM2963.0 -4Q2954.0 -4 2947.0 -0.5Q2940.0 3 2940.0 9Q2940.0 24 2965.0 29Q3003.0 37 3020.0 51.0Q3037.0 65 3037.0 97V551Q3037.0 584 3023.0 598.0Q3009.0 612 2970.0 620Q2945.0 625 2945.0 641Q2945.0 647 2952.0 650.5Q2959.0 654 2968.0 654Q2992.0 654 3015.0 653.0Q3038.0 652 3059.5 651.0Q3081.0 650 3103.0 650Q3124.0 650 3145.5 651.0Q3167.0 652 3190.0 653.0Q3213.0 654 3237.0 654Q3247.0 654 3253.0 650.5Q3259.0 647 3259.0 640Q3259.0 632 3252.5 627.5Q3246.0 623 3234.0 620Q3194.0 610 3180.0 596.0Q3166.0 582 3166.0 550V98Q3166.0 67 3182.5 53.0Q3199.0 39 3237.0 29Q3250.0 26 3256.5 22.0Q3263.0 18 3263.0 10Q3263.0 3 3257.0 0.0Q3251.0 -3 3241.0 -3Q3217.0 -3 3193.0 -2.0Q3169.0 -1 3146.5 0.0Q3124.0 1 3103.0 1Q3081.0 1 3058.0 0.0Q3035.0 -1 3011.0 -2.5Q2987.0 -4 2963.0 -4ZM3493.0 -15Q3450.0 -15 3411.5 -4.0Q3373.0 7 3341.0 29Q3335.0 34 3330.0 39.5Q3325.0 45 3322.0 52Q3314.0 77 3311.0 113.5Q3308.0 150 3309.0 184Q3309.0 191 3314.5 194.0Q3320.0 197 3328.0 197Q3336.0 197 3340.5 194.5Q3345.0 192 3347.0 185Q3369.0 110 3411.0 68.0Q3453.0 26 3506.0 26Q3539.0 26 3562.0 41.0Q3585.0 56 3597.0 80.0Q3609.0 104 3609.0 132Q3609.0 167 3596.5 190.0Q3584.0 213 3559.0 231.5Q3534.0 250 3496.0 271Q3455.0 295 3416.0 321.5Q3377.0 348 3352.0 384.5Q3327.0 421 3327.0 475Q3327.0 531 3355.5 573.5Q3384.0 616 3435.0 640.0Q3486.0 664 3553.0 664Q3590.0 664 3622.0 656.0Q3654.0 648 3673.0 640Q3684.0 636 3689.5 630.0Q3695.0 624 3698.0 611Q3704.0 590 3708.5 561.0Q3713.0 532 3713.0 500Q3713.0 488 3695.0 488Q3687.0 488 3679.0 492.0Q3671.0 496 3669.0 503Q3651.0 561 3619.5 591.0Q3588.0 621 3542.0 621Q3511.0 621 3489.0 610.5Q3467.0 600 3454.0 578.5Q3441.0 557 3441.0 523Q3441.0 497 3458.5 475.0Q3476.0 453 3507.5 432.0Q3539.0 411 3578.0 386Q3626.0 358 3658.5 329.5Q3691.0 301 3708.0 266.5Q3725.0 232 3725.0 185Q3725.0 119 3696.0 74.5Q3667.0 30 3615.0 7.5Q3563.0 -15 3493.0 -15ZM3803.0 -4Q3794.0 -4 3787.0 -0.5Q3780.0 3 3780.0 9Q3780.0 24 3805.0 29Q3843.0 37 3860.0 51.0Q3877.0 65 3877.0 97V551Q3877.0 584 3863.0 598.0Q3849.0 612 3810.0 620Q3785.0 625 3785.0 641Q3785.0 647 3792.0 650.5Q3799.0 654 3808.0 654Q3832.0 654 3855.0 653.0Q3878.0 652 3899.5 651.0Q3921.0 650 3943.0 650Q3964.0 650 3985.5 651.0Q4007.0 652 4030.0 653.0Q4053.0 654 4077.0 654Q4087.0 654 4093.0 650.5Q4099.0 647 4099.0 640Q4099.0 632 4092.5 627.5Q4086.0 623 4074.0 620Q4034.0 610 4020.0 596.0Q4006.0 582 4006.0 550V98Q4006.0 67 4022.5 53.0Q4039.0 39 4077.0 29Q4090.0 26 4096.5 22.0Q4103.0 18 4103.0 10Q4103.0 3 4097.0 0.0Q4091.0 -3 4081.0 -3Q4057.0 -3 4033.0 -2.0Q4009.0 -1 3986.5 0.0Q3964.0 1 3943.0 1Q3921.0 1 3898.0 0.0Q3875.0 -1 3851.0 -2.5Q3827.0 -4 3803.0 -4ZM4328.0 -4Q4318.0 -4 4310.5 -0.5Q4303.0 3 4303.0 9Q4303.0 17 4310.0 22.0Q4317.0 27 4330.0 29Q4368.0 37 4386.0 51.5Q4404.0 66 4404.0 99V504Q4404.0 545 4402.0 566.0Q4400.0 587 4396.5 594.5Q4393.0 602 4386.0 603Q4376.0 607 4361.0 608.0Q4346.0 609 4332.0 609H4301.0Q4272.0 609 4245.0 595.5Q4218.0 582 4203.0 559Q4199.0 553 4190.5 542.0Q4182.0 531 4172.5 522.0Q4163.0 513 4153.0 513Q4146.0 513 4143.5 518.0Q4141.0 523 4141.0 529Q4141.0 541 4147.0 553Q4164.0 587 4172.5 612.5Q4181.0 638 4184.0 673Q4186.0 688 4192.5 692.5Q4199.0 697 4206.0 697Q4212.0 697 4220.5 684.5Q4229.0 672 4236.0 664Q4245.0 655 4268.0 650.5Q4291.0 646 4307.0 646L4676.0 647Q4704.0 647 4723.0 651.5Q4742.0 656 4753.0 661Q4768.0 670 4777.0 679.5Q4786.0 689 4798.0 689Q4803.0 689 4805.5 683.5Q4808.0 678 4808.0 670Q4808.0 665 4807.0 658.5Q4806.0 652 4805.0 647Q4801.0 628 4797.0 613.5Q4793.0 599 4790.5 586.5Q4788.0 574 4788.0 558V541Q4788.0 527 4784.0 517.0Q4780.0 507 4771.0 507Q4763.0 507 4757.5 516.5Q4752.0 526 4746.0 546Q4737.0 578 4716.0 593.5Q4695.0 609 4650.0 609H4582.0Q4563.0 609 4552.5 602.0Q4542.0 595 4537.5 571.5Q4533.0 548 4533.0 499V100Q4533.0 68 4551.0 53.5Q4569.0 39 4608.0 29Q4620.0 26 4627.0 22.0Q4634.0 18 4634.0 10Q4634.0 3 4627.5 0.0Q4621.0 -3 4611.0 -3Q4587.0 -3 4563.0 -2.0Q4539.0 -1 4515.5 0.0Q4492.0 1 4470.0 1Q4448.0 1 4424.5 0.0Q4401.0 -1 4376.5 -2.5Q4352.0 -4 4328.0 -4ZM4846.0 -4Q4837.0 -4 4830.0 -0.5Q4823.0 3 4823.0 9Q4823.0 24 4848.0 29Q4886.0 37 4903.0 51.0Q4920.0 65 4920.0 97V551Q4920.0 584 4906.0 598.0Q4892.0 612 4853.0 620Q4828.0 625 4828.0 641Q4828.0 647 4835.0 650.5Q4842.0 654 4851.0 654Q4875.0 654 4898.0 653.0Q4921.0 652 4942.5 651.0Q4964.0 650 4986.0 650Q5007.0 650 5028.5 651.0Q5050.0 652 5073.0 653.0Q5096.0 654 5120.0 654Q5130.0 654 5136.0 650.5Q5142.0 647 5142.0 640Q5142.0 632 5135.5 627.5Q5129.0 623 5117.0 620Q5077.0 610 5063.0 596.0Q5049.0 582 5049.0 550V98Q5049.0 67 5065.5 53.0Q5082.0 39 5120.0 29Q5133.0 26 5139.5 22.0Q5146.0 18 5146.0 10Q5146.0 3 5140.0 0.0Q5134.0 -3 5124.0 -3Q5100.0 -3 5076.0 -2.0Q5052.0 -1 5029.5 0.0Q5007.0 1 4986.0 1Q4964.0 1 4941.0 0.0Q4918.0 -1 4894.0 -2.5Q4870.0 -4 4846.0 -4ZM5538.0 -14Q5470.0 -14 5408.0 9.5Q5346.0 33 5298.5 76.5Q5251.0 120 5223.5 180.5Q5196.0 241 5196.0 315Q5196.0 383 5218.5 445.5Q5241.0 508 5285.5 557.0Q5330.0 606 5395.5 635.0Q5461.0 664 5547.0 664Q5615.0 664 5676.5 640.5Q5738.0 617 5786.0 573.5Q5834.0 530 5861.5 469.5Q5889.0 409 5889.0 335Q5889.0 268 5866.5 205.0Q5844.0 142 5799.5 93.0Q5755.0 44 5689.5 15.0Q5624.0 -14 5538.0 -14ZM5555.0 30Q5618.0 30 5660.5 62.0Q5703.0 94 5724.5 151.5Q5746.0 209 5746.0 284Q5746.0 348 5733.0 408.0Q5720.0 468 5693.0 515.5Q5666.0 563 5625.5 591.0Q5585.0 619 5529.0 619Q5466.0 619 5423.5 587.0Q5381.0 555 5360.0 498.0Q5339.0 441 5339.0 366Q5339.0 302 5352.0 242.0Q5365.0 182 5391.5 134.0Q5418.0 86 5458.5 58.0Q5499.0 30 5555.0 30ZM6599.0 -18Q6587.0 -18 6559.0 -3.0Q6531.0 12 6502.0 49Q6485.0 68 6460.5 95.5Q6436.0 123 6406.5 156.0Q6377.0 189 6345.0 225.0Q6313.0 261 6281.5 297.0Q6250.0 333 6220.0 366.0Q6190.0 399 6165.0 426.5Q6140.0 454 6123.0 474Q6119.0 479 6114.5 482.5Q6110.0 486 6107.0 486Q6103.0 486 6101.0 479.0Q6099.0 472 6099.0 466Q6099.0 420 6099.5 357.0Q6100.0 294 6100.0 229.0Q6100.0 164 6100.0 109Q6100.0 78 6118.0 58.0Q6136.0 38 6175.0 29Q6187.0 27 6195.5 22.5Q6204.0 18 6204.0 10Q6204.0 3 6196.0 0.0Q6188.0 -3 6178.0 -3Q6151.0 -3 6135.0 -2.0Q6119.0 -1 6106.0 0.0Q6093.0 1 6073.0 1Q6052.0 1 6035.5 0.0Q6019.0 -1 6006.0 -2.5Q5993.0 -4 5981.0 -4Q5971.0 -4 5963.0 -0.5Q5955.0 3 5955.0 9Q5955.0 17 5962.5 21.5Q5970.0 26 5983.0 30Q6009.0 38 6021.5 59.5Q6034.0 81 6037.0 111Q6041.0 149 6045.0 210.5Q6049.0 272 6052.5 349.0Q6056.0 426 6056.0 508Q6056.0 560 6029.5 583.0Q6003.0 606 5963.0 620Q5956.0 622 5945.0 628.0Q5934.0 634 5934.0 643Q5934.0 652 5942.0 655.0Q5950.0 658 5959.0 658Q5980.0 658 6001.0 657.0Q6022.0 656 6043.5 655.5Q6065.0 655 6088.5 654.0Q6112.0 653 6139.0 653Q6148.0 653 6152.5 649.5Q6157.0 646 6161.0 640Q6177.0 621 6202.0 592.5Q6227.0 564 6256.5 529.5Q6286.0 495 6318.5 457.0Q6351.0 419 6383.5 381.0Q6416.0 343 6446.0 308.5Q6476.0 274 6500.5 245.5Q6525.0 217 6541.0 199Q6545.0 195 6550.5 189.0Q6556.0 183 6560.0 183Q6568.0 183 6569.0 200Q6569.0 226 6569.0 266.5Q6569.0 307 6569.5 356.5Q6570.0 406 6569.5 458.0Q6569.0 510 6568.0 558Q6567.0 583 6547.5 597.5Q6528.0 612 6499.0 618Q6487.0 621 6476.5 625.5Q6466.0 630 6466.0 639Q6466.0 646 6476.5 649.0Q6487.0 652 6496.0 652Q6516.0 652 6529.5 652.0Q6543.0 652 6555.0 651.5Q6567.0 651 6580.0 651Q6602.0 651 6616.0 651.5Q6630.0 652 6646.5 653.0Q6663.0 654 6690.0 654Q6702.0 654 6709.5 650.5Q6717.0 647 6717.0 641Q6717.0 626 6688.0 620Q6653.0 613 6638.5 601.0Q6624.0 589 6623.0 561Q6623.0 536 6622.5 497.0Q6622.0 458 6621.0 412.0Q6620.0 366 6618.5 318.0Q6617.0 270 6616.5 224.0Q6616.0 178 6616.0 141Q6616.0 117 6618.0 92.0Q6620.0 67 6622.5 47.5Q6625.0 28 6625.0 20Q6625.0 -2 6618.0 -10.0Q6611.0 -18 6599.0 -18Z" transform="matrix(0.022120 0 0 -0.022120 75.75 388.83)" fill="#15130f"/></svg>