<svg xmlns="http://www.w3.org/2000/svg" viewBox="0 0 300 446"><rect width="300" height="446" fill="#f4ecd8"/><rect x="20.0" y="25.5" width="260" height="395" rx="20.3" fill="#f4ecd8" stroke="#15130f" stroke-width="1.5"/><rect x="36.9" y="42.4" width="226.2" height="354.7" fill="none" stroke="#15130f" stroke-width="0.7"/><g fill="none" stroke="#15130f" stroke-width="0.65" stroke-opacity="0.72" stroke-linecap="round" stroke-linejoin="round"><line x1="36.9" y1="155.5" x2="263.1" y2="155.5"/><path d="M36.9,155.5 A113.1,113.1 0 0 1 263.1,155.5"/></g><path d="M36.9,370.6 H263.1 V397.1 H36.9 Z" fill="#f0cf48"/><g fill="none" stroke="#15130f" stroke-width="0.8"><line x1="36.9" y1="370.6" x2="263.1" y2="370.6"/><line x1="61.6" y1="370.6" x2="61.6" y2="397.1"/><line x1="238.4" y1="370.6" x2="238.4" y2="397.1"/></g><rect x="141.4" y="34.4" width="17.2" height="19.0" fill="#f0cf48" stroke="#15130f" stroke-width="0.8"/><path d="M649.0 1092V235L647.0 193L657.0 137Q686.0 59 825.0 52Q867.0 50 867.0 28Q867.0 -7 780.0 -7Q761.0 -7 652.0 2Q595.0 7 494.0 7Q394.0 7 322.0 -2Q293.0 -5 280.0 -5Q255.0 -5 255.0 20Q255.0 41 281.0 45Q384.0 61 415.0 92.0Q446.0 123 446.0 210L445.0 248V1010Q445.0 1115 363.0 1115Q331.0 1115 306.0 1104L281.0 1093Q270.0 1089 261.0 1089Q235.0 1089 235.0 1113Q235.0 1137 260.0 1150.0Q285.0 1163 362.0 1180Q506.0 1211 567.0 1267L614.0 1310Q625.0 1320 641.0 1320Q661.0 1320 661.0 1282Q661.0 1271 659.0 1243L651.0 1153Q649.0 1126 649.0 1092Z" transform="matrix(0.006858 0 0 -0.006858 146.22 49.18)" fill="#15130f"/><path d="M700 1410Q993 1410 1171.5 1205.0Q1350 1000 1350 700Q1350 399 1170.0 194.5Q990 -10 700 -10Q410 -10 230.0 194.5Q50 399 50 700Q50 1000 228.5 1205.0Q407 1410 700 1410ZM700 1310Q487 1310 368.5 1116.5Q250 923 250 700Q250 481 368.5 285.5Q487 90 700 90Q910 90 1030.0 285.5Q1150 481 1150 700Q1150 923 1030.0 1116.5Q910 1310 700 1310ZM700.0 950Q766.0 950 826.0 918.0Q886.0 886 918.0 826.0Q950.0 766 950.0 700Q950.0 634 918.0 574.0Q886.0 514 826.0 482.0Q766.0 450 700.0 450Q634.0 450 574.0 482.0Q514.0 514 482.0 574.0Q450.0 634 450.0 700Q450.0 766 482.0 826.0Q514.0 886 574.0 918.0Q634.0 950 700.0 950Z" transform="matrix(0.009268 0 0 -0.009268 42.76 390.35)" fill="#15130f"/><path d="M917.0 -500Q917.0 362 797.0 836.0Q677.0 1310 467.0 1310Q411.0 1310 358.5 1265.0Q306.0 1220 278.0 1135.5Q250.0 1051 250.0 960Q250.0 869 278.0 784.5Q306.0 700 358.5 655.0Q411.0 610 467.0 610Q524.0 610 577.0 655Q605.0 680 641.0 680Q670.0 680 703.0 663Q734.0 647 734.0 628Q734.0 601 677.0 568Q576.0 510 467.0 510Q359.0 510 258.5 568.0Q158.0 626 104.0 734.5Q50.0 843 50.0 960Q50.0 1077 104.0 1185.5Q158.0 1294 258.5 1352.0Q359.0 1410 467.0 1410Q760.0 1410 939.0 959Q983.0 845 1017.0 696Q1051.0 845 1096.0 959Q1274.0 1410 1567.0 1410Q1675.0 1410 1775.5 1352.0Q1876.0 1294 1930.0 1185.5Q1984.0 1077 1984.0 960Q1984.0 843 1930.0 734.5Q1876.0 626 1775.5 568.0Q1675.0 510 1567.0 510Q1458.0 510 1357.0 568Q1300.0 601 1300.0 628Q1300.0 647 1331.0 663Q1364.0 680 1393.0 680Q1429.0 680 1457.0 655Q1510.0 610 1567.0 610Q1623.0 610 1675.5 655.0Q1728.0 700 1756.0 784.5Q1784.0 869 1784.0 960Q1784.0 1051 1756.0 1135.5Q1728.0 1220 1675.5 1265.0Q1623.0 1310 1567.0 1310Q1357.0 1310 1237.0 836.0Q1117.0 362 1117.0 -500Z" transform="matrix(0.009268 0 0 -0.009268 241.32 388.08)" fill="#15130f"/><path d="M24.0 -5Q12.0 -5 4.0 -1.5Q-4.0 2 -4.0 10Q-4.0 19 3.5 24.0Q11.0 29 23.0 33Q52.0 41 73.5 57.5Q95.0 74 108.0 103Q133.0 162 156.0 216.5Q179.0 271 200.0 325.0Q221.0 379 242.5 435.0Q264.0 491 286.0 553Q297.0 584 301.0 601.0Q305.0 618 308.0 626Q323.0 630 336.0 634.0Q349.0 638 365.0 644Q379.0 651 389.0 662.0Q399.0 673 404.0 679Q407.0 681 410.0 681.5Q413.0 682 416.0 677Q419.0 671 421.0 665.0Q423.0 659 425.0 652Q447.0 581 470.5 508.5Q494.0 436 517.0 365.5Q540.0 295 561.5 230.5Q583.0 166 601.0 112Q610.0 85 623.5 69.0Q637.0 53 653.5 44.5Q670.0 36 690.0 31Q703.0 28 710.0 23.0Q717.0 18 717.0 9Q717.0 3 710.5 0.0Q704.0 -3 694.0 -3Q676.0 -3 648.5 -2.0Q621.0 -1 592.0 0.5Q563.0 2 540.0 2Q520.0 2 495.5 1.0Q471.0 0 446.5 -1.0Q422.0 -2 405.0 -2Q395.0 -2 387.5 1.5Q380.0 5 380.0 12Q380.0 20 388.0 25.5Q396.0 31 407.0 33Q443.0 39 459.0 51.5Q475.0 64 471.0 88Q468.0 105 462.0 128.5Q456.0 152 449.5 177.5Q443.0 203 436.0 224Q434.0 232 430.0 235.5Q426.0 239 415.0 239H235.0Q228.0 239 224.0 234.5Q220.0 230 218.0 221Q214.0 208 208.5 191.5Q203.0 175 197.5 157.5Q192.0 140 187.5 125.0Q183.0 110 181.0 99Q176.0 72 190.5 56.5Q205.0 41 241.0 32Q268.0 25 268.0 11Q268.0 5 261.5 1.5Q255.0 -2 243.0 -2Q220.0 -2 195.0 -0.5Q170.0 1 140.0 1Q110.0 1 81.5 -2.0Q53.0 -5 24.0 -5ZM262.0 285H401.0Q415.0 285 415.0 291Q415.0 294 414.5 296.0Q414.0 298 413.0 302L343.0 533Q339.0 547 336.0 547Q334.0 547 329.0 534L245.0 302Q243.0 297 243.0 294Q243.0 289 248.5 287.0Q254.0 285 262.0 285ZM925.0 -15Q882.0 -15 843.5 -4.0Q805.0 7 773.0 29Q767.0 34 762.0 39.5Q757.0 45 754.0 52Q746.0 77 743.0 113.5Q740.0 150 741.0 184Q741.0 191 746.5 194.0Q752.0 197 760.0 197Q768.0 197 772.5 194.5Q777.0 192 779.0 185Q801.0 110 843.0 68.0Q885.0 26 938.0 26Q971.0 26 994.0 41.0Q1017.0 56 1029.0 80.0Q1041.0 104 1041.0 132Q1041.0 167 1028.5 190.0Q1016.0 213 991.0 231.5Q966.0 250 928.0 271Q887.0 295 848.0 321.5Q809.0 348 784.0 384.5Q759.0 421 759.0 475Q759.0 531 787.5 573.5Q816.0 616 867.0 640.0Q918.0 664 985.0 664Q1022.0 664 1054.0 656.0Q1086.0 648 1105.0 640Q1116.0 636 1121.5 630.0Q1127.0 624 1130.0 611Q1136.0 590 1140.5 561.0Q1145.0 532 1145.0 500Q1145.0 488 1127.0 488Q1119.0 488 1111.0 492.0Q1103.0 496 1101.0 503Q1083.0 561 1051.5 591.0Q1020.0 621 974.0 621Q943.0 621 921.0 610.5Q899.0 600 886.0 578.5Q873.0 557 873.0 523Q873.0 497 890.5 475.0Q908.0 453 939.5 432.0Q971.0 411 1010.0 386Q1058.0 358 1090.5 329.5Q1123.0 301 1140.0 266.5Q1157.0 232 1157.0 185Q1157.0 119 1128.0 74.5Q1099.0 30 1047.0 7.5Q995.0 -15 925.0 -15ZM1409.0 -15Q1366.0 -15 1327.5 -4.0Q1289.0 7 1257.0 29Q1251.0 34 1246.0 39.5Q1241.0 45 1238.0 52Q1230.0 77 1227.0 113.5Q1224.0 150 1225.0 184Q1225.0 191 1230.5 194.0Q1236.0 197 1244.0 197Q1252.0 197 1256.5 194.5Q1261.0 192 1263.0 185Q1285.0 110 1327.0 68.0Q1369.0 26 1422.0 26Q1455.0 26 1478.0 41.0Q1501.0 56 1513.0 80.0Q1525.0 104 1525.0 132Q1525.0 167 1512.5 190.0Q1500.0 213 1475.0 231.5Q1450.0 250 1412.0 271Q1371.0 295 1332.0 321.5Q1293.0 348 1268.0 384.5Q1243.0 421 1243.0 475Q1243.0 531 1271.5 573.5Q1300.0 616 1351.0 640.0Q1402.0 664 1469.0 664Q1506.0 664 1538.0 656.0Q1570.0 648 1589.0 640Q1600.0 636 1605.5 630.0Q1611.0 624 1614.0 611Q1620.0 590 1624.5 561.0Q1629.0 532 1629.0 500Q1629.0 488 1611.0 488Q1603.0 488 1595.0 492.0Q1587.0 496 1585.0 503Q1567.0 561 1535.5 591.0Q1504.0 621 1458.0 621Q1427.0 621 1405.0 610.5Q1383.0 600 1370.0 578.5Q1357.0 557 1357.0 523Q1357.0 497 1374.5 475.0Q1392.0 453 1423.5 432.0Q1455.0 411 1494.0 386Q1542.0 358 1574.5 329.5Q1607.0 301 1624.0 266.5Q1641.0 232 1641.0 185Q1641.0 119 1612.0 74.5Q1583.0 30 1531.0 7.5Q1479.0 -15 1409.0 -15ZM1728.0 -5Q1717.0 -5 1710.5 -1.0Q1704.0 3 1704.0 9Q1704.0 22 1730.0 28Q1766.0 37 1781.5 50.5Q1797.0 64 1797.0 97V550Q1797.0 584 1783.5 598.0Q1770.0 612 1733.0 620Q1719.0 623 1713.0 628.5Q1707.0 634 1707.0 640Q1707.0 647 1713.5 650.5Q1720.0 654 1731.0 654Q1760.0 654 1786.5 653.0Q1813.0 652 1838.0 651.0Q1863.0 650 1890.0 650Q1936.0 650 1987.5 651.0Q2039.0 652 2080.0 652Q2113.0 653 2134.5 655.0Q2156.0 657 2160.0 657Q2167.0 657 2174.5 654.0Q2182.0 651 2183.0 642Q2187.0 609 2193.0 577.0Q2199.0 545 2199.0 521Q2199.0 512 2194.5 507.5Q2190.0 503 2185.0 503Q2180.0 503 2176.0 506.5Q2172.0 510 2169.0 517Q2161.0 540 2154.0 557.0Q2147.0 574 2138.0 583Q2125.0 597 2108.0 605.0Q2091.0 613 2067.0 613H1974.0Q1956.0 613 1941.0 602.5Q1926.0 592 1926.0 573V377Q1926.0 366 1932.5 360.0Q1939.0 354 1948.0 354H2040.0Q2067.0 354 2078.5 369.0Q2090.0 384 2098.0 410Q2105.0 430 2117.0 430Q2122.0 430 2126.0 424.5Q2130.0 419 2130.0 410Q2129.0 400 2128.0 386.0Q2127.0 372 2126.5 358.0Q2126.0 344 2126.0 333Q2126.0 321 2126.5 306.0Q2127.0 291 2127.5 276.5Q2128.0 262 2129.0 252Q2130.0 241 2127.5 235.0Q2125.0 229 2119.0 229Q2103.0 229 2096.0 257Q2088.0 285 2077.0 299.0Q2066.0 313 2047.0 313H1953.0Q1940.0 313 1933.0 308.0Q1926.0 303 1926.0 289V99Q1926.0 66 1940.0 53.0Q1954.0 40 1983.0 40H2065.0Q2090.0 40 2110.5 45.0Q2131.0 50 2146.0 61Q2163.0 73 2176.5 93.5Q2190.0 114 2203.0 139Q2207.0 147 2211.0 149.5Q2215.0 152 2221.0 152Q2226.0 151 2228.5 146.0Q2231.0 141 2231.0 135Q2231.0 121 2226.0 99.0Q2221.0 77 2213.5 53.5Q2206.0 30 2200.0 10Q2197.0 3 2192.0 -0.5Q2187.0 -4 2180.0 -4Q2156.0 -4 2118.5 -3.5Q2081.0 -3 2037.0 -2.0Q1993.0 -1 1947.0 -0.5Q1901.0 0 1859.0 0Q1838.0 0 1816.5 -1.0Q1795.0 -2 1773.0 -3.5Q1751.0 -5 1728.0 -5ZM2892.0 -21Q2849.0 -21 2817.0 -11.5Q2785.0 -2 2762.0 16.0Q2739.0 34 2720.0 58Q2698.0 88 2677.0 116.5Q2656.0 145 2634.5 179.5Q2613.0 214 2587.0 262Q2574.0 285 2554.0 296Q2541.0 303 2527.5 306.0Q2514.0 309 2505.0 309Q2499.0 310 2496.0 304.0Q2493.0 298 2493.0 289V103Q2493.0 72 2509.5 55.0Q2526.0 38 2566.0 29Q2579.0 27 2585.0 22.5Q2591.0 18 2591.0 10Q2591.0 3 2585.5 0.0Q2580.0 -3 2569.0 -3Q2546.0 -3 2522.0 -1.5Q2498.0 0 2475.5 1.0Q2453.0 2 2433.0 2Q2411.0 2 2387.5 1.0Q2364.0 0 2340.0 -2.0Q2316.0 -4 2292.0 -4Q2283.0 -4 2276.0 -0.5Q2269.0 3 2269.0 9Q2269.0 24 2294.0 29Q2332.0 37 2348.0 51.0Q2364.0 65 2364.0 98V540Q2364.0 569 2359.5 584.5Q2355.0 600 2342.0 608.0Q2329.0 616 2303.0 620Q2289.0 622 2283.0 628.0Q2277.0 634 2277.0 640Q2277.0 647 2283.5 650.5Q2290.0 654 2301.0 654Q2331.0 654 2349.0 653.0Q2367.0 652 2383.5 650.5Q2400.0 649 2423.0 649Q2445.0 649 2462.0 651.0Q2479.0 653 2500.0 655.0Q2521.0 657 2554.0 657Q2669.0 657 2730.0 617.0Q2791.0 577 2791.0 495Q2791.0 450 2772.0 418.5Q2753.0 387 2724.5 367.0Q2696.0 347 2666.0 336Q2662.0 335 2662.5 331.0Q2663.0 327 2666.0 324Q2696.0 278 2724.5 236.5Q2753.0 195 2784.5 158.0Q2816.0 121 2853.0 87Q2884.0 58 2916.5 52.5Q2949.0 47 2984.0 47Q2999.0 47 2999.0 32Q2999.0 12 2984.0 0.5Q2969.0 -11 2944.5 -16.0Q2920.0 -21 2892.0 -21ZM2536.0 338Q2577.0 338 2604.5 356.5Q2632.0 375 2646.5 406.0Q2661.0 437 2661.0 475Q2661.0 520 2650.0 551.5Q2639.0 583 2612.5 600.5Q2586.0 618 2540.0 618Q2514.0 618 2504.5 599.5Q2495.0 581 2494.0 525Q2493.0 502 2493.0 464.5Q2493.0 427 2493.0 375Q2493.0 353 2504.5 345.5Q2516.0 338 2536.0 338ZM3203.0 -4Q3193.0 -4 3185.5 -0.5Q3178.0 3 3178.0 9Q3178.0 17 3185.0 22.0Q3192.0 27 3205.0 29Q3243.0 37 3261.0 51.5Q3279.0 66 3279.0 99V504Q3279.0 545 3277.0 566.0Q3275.0 587 3271.5 594.5Q3268.0 602 3261.0 603Q3251.0 607 3236.0 608.0Q3221.0 609 3207.0 609H3176.0Q3147.0 609 3120.0 595.5Q3093.0 582 3078.0 559Q3074.0 553 3065.5 542.0Q3057.0 531 3047.5 522.0Q3038.0 513 3028.0 513Q3021.0 513 3018.5 518.0Q3016.0 523 3016.0 529Q3016.0 541 3022.0 553Q3039.0 587 3047.5 612.5Q3056.0 638 3059.0 673Q3061.0 688 3067.5 692.5Q3074.0 697 3081.0 697Q3087.0 697 3095.5 684.5Q3104.0 672 3111.0 664Q3120.0 655 3143.0 650.5Q3166.0 646 3182.0 646L3551.0 647Q3579.0 647 3598.0 651.5Q3617.0 656 3628.0 661Q3643.0 670 3652.0 679.5Q3661.0 689 3673.0 689Q3678.0 689 3680.5 683.5Q3683.0 678 3683.0 670Q3683.0 665 3682.0 658.5Q3681.0 652 3680.0 647Q3676.0 628 3672.0 613.5Q3668.0 599 3665.5 586.5Q3663.0 574 3663.0 558V541Q3663.0 527 3659.0 517.0Q3655.0 507 3646.0 507Q3638.0 507 3632.5 516.5Q3627.0 526 3621.0 546Q3612.0 578 3591.0 593.5Q3570.0 609 3525.0 609H3457.0Q3438.0 609 3427.5 602.0Q3417.0 595 3412.5 571.5Q3408.0 548 3408.0 499V100Q3408.0 68 3426.0 53.5Q3444.0 39 3483.0 29Q3495.0 26 3502.0 22.0Q3509.0 18 3509.0 10Q3509.0 3 3502.5 0.0Q3496.0 -3 3486.0 -3Q3462.0 -3 3438.0 -2.0Q3414.0 -1 3390.5 0.0Q3367.0 1 3345.0 1Q3323.0 1 3299.5 0.0Q3276.0 -1 3251.5 -2.5Q3227.0 -4 3203.0 -4ZM3721.0 -4Q3712.0 -4 3705.0 -0.5Q3698.0 3 3698.0 9Q3698.0 24 3723.0 29Q3761.0 37 3778.0 51.0Q3795.0 65 3795.0 97V551Q3795.0 584 3781.0 598.0Q3767.0 612 3728.0 620Q3703.0 625 3703.0 641Q3703.0 647 3710.0 650.5Q3717.0 654 3726.0 654Q3750.0 654 3773.0 653.0Q3796.0 652 3817.5 651.0Q3839.0 650 3861.0 650Q3882.0 650 3903.5 651.0Q3925.0 652 3948.0 653.0Q3971.0 654 3995.0 654Q4005.0 654 4011.0 650.5Q4017.0 647 4017.0 640Q4017.0 632 4010.5 627.5Q4004.0 623 3992.0 620Q3952.0 610 3938.0 596.0Q3924.0 582 3924.0 550V98Q3924.0 67 3940.5 53.0Q3957.0 39 3995.0 29Q4008.0 26 4014.5 22.0Q4021.0 18 4021.0 10Q4021.0 3 4015.0 0.0Q4009.0 -3 3999.0 -3Q3975.0 -3 3951.0 -2.0Q3927.0 -1 3904.5 0.0Q3882.0 1 3861.0 1Q3839.0 1 3816.0 0.0Q3793.0 -1 3769.0 -2.5Q3745.0 -4 3721.0 -4ZM4413.0 -14Q4345.0 -14 4283.0 9.5Q4221.0 33 4173.5 76.5Q4126.0 120 4098.5 180.5Q4071.0 241 4071.0 315Q4071.0 383 4093.5 445.5Q4116.0 508 4160.5 557.0Q4205.0 606 4270.5 635.0Q4336.0 664 4422.0 664Q4490.0 664 4551.5 640.5Q4613.0 617 4661.0 573.5Q4709.0 530 4736.5 469.5Q4764.0 409 4764.0 335Q4764.0 268 4741.5 205.0Q4719.0 142 4674.5 93.0Q4630.0 44 4564.5 15.0Q4499.0 -14 4413.0 -14ZM4430.0 30Q4493.0 30 4535.5 62.0Q4578.0 94 4599.5 151.5Q4621.0 209 4621.0 284Q4621.0 348 4608.0 408.0Q4595.0 468 4568.0 515.5Q4541.0 563 4500.5 591.0Q4460.0 619 4404.0 619Q4341.0 619 4298.5 587.0Q4256.0 555 4235.0 498.0Q4214.0 441 4214.0 366Q4214.0 302 4227.0 242.0Q4240.0 182 4266.5 134.0Q4293.0 86 4333.5 58.0Q4374.0 30 4430.0 30ZM5474.0 -18Q5462.0 -18 5434.0 -3.0Q5406.0 12 5377.0 49Q5360.0 68 5335.5 95.5Q5311.0 123 5281.5 156.0Q5252.0 189 5220.0 225.0Q5188.0 261 5156.5 297.0Q5125.0 333 5095.0 366.0Q5065.0 399 5040.0 426.5Q5015.0 454 4998.0 474Q4994.0 479 4989.5 482.5Q4985.0 486 4982.0 486Q4978.0 486 4976.0 479.0Q4974.0 472 4974.0 466Q4974.0 420 4974.5 357.0Q4975.0 294 4975.0 229.0Q4975.0 164 4975.0 109Q4975.0 78 4993.0 58.0Q5011.0 38 5050.0 29Q5062.0 27 5070.5 22.5Q5079.0 18 5079.0 10Q5079.0 3 5071.0 0.0Q5063.0 -3 5053.0 -3Q5026.0 -3 5010.0 -2.0Q4994.0 -1 4981.0 0.0Q4968.0 1 4948.0 1Q4927.0 1 4910.5 0.0Q4894.0 -1 4881.0 -2.5Q4868.0 -4 4856.0 -4Q4846.0 -4 4838.0 -0.5Q4830.0 3 4830.0 9Q4830.0 17 4837.5 21.5Q4845.0 26 4858.0 30Q4884.0 38 4896.5 59.5Q4909.0 81 4912.0 111Q4916.0 149 4920.0 210.5Q4924.0 272 4927.5 349.0Q4931.0 426 4931.0 508Q4931.0 560 4904.5 583.0Q4878.0 606 4838.0 620Q4831.0 622 4820.0 628.0Q4809.0 634 4809.0 643Q4809.0 652 4817.0 655.0Q4825.0 658 4834.0 658Q4855.0 658 4876.0 657.0Q4897.0 656 4918.5 655.5Q4940.0 655 4963.5 654.0Q4987.0 653 5014.0 653Q5023.0 653 5027.5 649.5Q5032.0 646 5036.0 640Q5052.0 621 5077.0 592.5Q5102.0 564 5131.5 529.5Q5161.0 495 5193.5 457.0Q5226.0 419 5258.5 381.0Q5291.0 343 5321.0 308.5Q5351.0 274 5375.5 245.5Q5400.0 217 5416.0 199Q5420.0 195 5425.5 189.0Q5431.0 183 5435.0 183Q5443.0 183 5444.0 200Q5444.0 226 5444.0 266.5Q5444.0 307 5444.5 356.5Q5445.0 406 5444.5 458.0Q5444.0 510 5443.0 558Q5442.0 583 5422.5 597.5Q5403.0 612 5374.0 618Q5362.0 621 5351.5 625.5Q5341.0 630 5341.0 639Q5341.0 646 5351.5 649.0Q5362.0 652 5371.0 652Q5391.0 652 5404.5 652.0Q5418.0 652 5430.0 651.5Q5442.0 651 5455.0 651Q5477.0 651 5491.0 651.5Q5505.0 652 5521.5 653.0Q5538.0 654 5565.0 654Q5577.0 654 5584.5 650.5Q5592.0 647 5592.0 641Q5592.0 626 5563.0 620Q5528.0 613 5513.5 601.0Q5499.0 589 5498.0 561Q5498.0 536 5497.5 497.0Q5497.0 458 5496.0 412.0Q5495.0 366 5493.5 318.0Q5492.0 270 5491.5 224.0Q5491.0 178 5491.0 141Q5491.0 117 5493.0 92.0Q5495.0 67 5497.5 47.5Q5500.0 28 5500.0 20Q5500.0 -2 5493.0 -10.0Q5486.0 -18 5474.0 -18Z" transform="matrix(0.022120 0 0 -0.022120 88.20 391.34)" fill="#15130f"/></svg>