<svg xmlns="http://www.w3.org/2000/svg" viewBox="0 0 300 446"><rect width="300" height="446" fill="#f4ecd8"/><rect x="20.0" y="25.5" width="260" height="395" rx="20.3" fill="#f4ecd8" stroke="#15130f" stroke-width="1.5"/><rect x="36.9" y="42.4" width="226.2" height="354.7" fill="none" stroke="#15130f" stroke-width="0.7"/><g fill="none" stroke="#15130f" stroke-width="0.65" stroke-opacity="0.72" stroke-linecap="round" stroke-linejoin="round"><line x1="36.9" y1="155.5" x2="263.1" y2="155.5"/><path d="M36.9,155.5 A113.1,113.1 0 0 1 263.1,155.5"/></g><path d="M36.9,370.6 H263.1 V397.1 H36.9 Z" fill="#f0cf48"/><g fill="none" stroke="#15130f" stroke-width="0.8"><line x1="36.9" y1="370.6" x2="263.1" y2="370.6"/><line x1="61.6" y1="370.6" x2="61.6" y2="397.1"/><line x1="238.4" y1="370.6" x2="238.4" y2="397.1"/></g><rect x="141.4" y="34.4" width="17.2" height="19.0" fill="#f0cf48" stroke="#15130f" stroke-width="0.8"/><path d="M766.0 262V-54Q764.0 -88 718.0 -88L649.0 -99Q619.0 -104 598.0 -110Q582.0 -115 572.0 -116Q548.0 -118 548.0 -92Q548.0 -82 552.0 -63Q563.0 -18 563.0 41V262L564.0 290L552.0 316Q541.0 325 493.0 325H98.0Q53.0 325 39.5 332.5Q26.0 340 26.0 366Q26.0 415 264.0 747Q442.0 995 584.5 1169.0Q727.0 1343 752.0 1343Q768.0 1343 768.0 1317L767.0 1232L766.0 1143V549L771.0 522Q778.0 506 822.0 506Q899.0 506 922.0 572Q928.0 590 941.0 590Q967.0 590 967.0 567Q967.0 557 965.0 547Q961.0 528 956.0 462Q950.0 372 930.0 347.5Q910.0 323 845.0 323H812.0Q781.0 323 773.5 313.0Q766.0 303 766.0 262ZM563.0 570V743L561.0 856L563.0 958L562.0 984Q562.0 1001 553.0 1001Q544.0 1001 523.0 973L489.0 928L381.0 788Q316.0 705 230.0 573Q216.0 551 207.0 540Q196.0 525 196.0 515Q197.0 499 236.0 499L268.0 498H528.0Q564.0 498 564.0 546Z" transform="matrix(0.006858 0 0 -0.006858 146.59 48.88)" fill="#15130f"/><path d="M700 1410Q993 1410 1171.5 1205.0Q1350 1000 1350 700Q1350 399 1170.0 194.5Q990 -10 700 -10Q410 -10 230.0 194.5Q50 399 50 700Q50 1000 228.5 1205.0Q407 1410 700 1410ZM700 1310Q487 1310 368.5 1116.5Q250 923 250 700Q250 481 368.5 285.5Q487 90 700 90Q910 90 1030.0 285.5Q1150 481 1150 700Q1150 923 1030.0 1116.5Q910 1310 700 1310ZM700.0 950Q766.0 950 826.0 918.0Q886.0 886 918.0 826.0Q950.0 766 950.0 700Q950.0 634 918.0 574.0Q886.0 514 826.0 482.0Q766.0 450 700.0 450Q634.0 450 574.0 482.0Q514.0 514 482.0 574.0Q450.0 634 450.0 700Q450.0 766 482.0 826.0Q514.0 886 574.0 918.0Q634.0 950 700.0 950Z" transform="matrix(0.009268 0 0 -0.009268 42.76 390.35)" fill="#15130f"/><path d="M250.0 800Q250.0 735 271.5 674.5Q293.0 614 333.5 582.0Q374.0 550 417.0 550Q461.0 550 501.5 582.0Q542.0 614 563.5 674.5Q585.0 735 585.0 800Q585.0 865 563.5 925.5Q542.0 986 501.5 1018.0Q461.0 1050 417.0 1050Q374.0 1050 333.5 1018.0Q293.0 986 271.5 925.5Q250.0 865 250.0 800ZM1744.0 1050Q1700.0 1100 1637.0 1148Q1423.0 1310 1050.0 1310Q671.0 1310 460.0 1148Q533.0 1140 602.0 1105Q690.0 1060 737.5 975.5Q785.0 891 785.0 800Q785.0 709 737.5 624.5Q690.0 540 601.5 495.0Q513.0 450 417.0 450Q322.0 450 233.5 495.0Q145.0 540 97.5 624.5Q50.0 709 50.0 800Q50.0 1058 324.5 1234.0Q599.0 1410 1050.0 1410Q1501.0 1410 1776.0 1234Q1905.0 1151 1973.0 1050ZM1850.0 600Q1850.0 665 1828.5 725.5Q1807.0 786 1766.5 818.0Q1726.0 850 1683.0 850Q1639.0 850 1598.5 818.0Q1558.0 786 1536.5 725.5Q1515.0 665 1515.0 600Q1515.0 535 1536.5 474.5Q1558.0 414 1598.5 382.0Q1639.0 350 1683.0 350Q1726.0 350 1766.5 382.0Q1807.0 414 1828.5 474.5Q1850.0 535 1850.0 600ZM356.0 350Q400.0 300 464.0 252Q677.0 90 1050.0 90Q1429.0 90 1640.0 252Q1567.0 260 1499.0 295Q1410.0 340 1362.5 424.5Q1315.0 509 1315.0 600Q1315.0 691 1362.5 775.5Q1410.0 860 1498.5 905.0Q1587.0 950 1683.0 950Q1778.0 950 1866.5 905.0Q1955.0 860 2002.5 775.5Q2050.0 691 2050.0 600Q2050.0 342 1775.5 166.0Q1501.0 -10 1050.0 -10Q599.0 -10 325.0 166Q195.0 249 127.0 350Z" transform="matrix(0.009139 0 0 -0.009139 241.15 390.26)" fill="#15130f"/><path d="M642.0 -21Q599.0 -21 567.0 -11.5Q535.0 -2 512.0 16.0Q489.0 34 470.0 58Q448.0 88 427.0 116.5Q406.0 145 384.5 179.5Q363.0 214 337.0 262Q324.0 285 304.0 296Q291.0 303 277.5 306.0Q264.0 309 255.0 309Q249.0 310 246.0 304.0Q243.0 298 243.0 289V103Q243.0 72 259.5 55.0Q276.0 38 316.0 29Q329.0 27 335.0 22.5Q341.0 18 341.0 10Q341.0 3 335.5 0.0Q330.0 -3 319.0 -3Q296.0 -3 272.0 -1.5Q248.0 0 225.5 1.0Q203.0 2 183.0 2Q161.0 2 137.5 1.0Q114.0 0 90.0 -2.0Q66.0 -4 42.0 -4Q33.0 -4 26.0 -0.5Q19.0 3 19.0 9Q19.0 24 44.0 29Q82.0 37 98.0 51.0Q114.0 65 114.0 98V540Q114.0 569 109.5 584.5Q105.0 600 92.0 608.0Q79.0 616 53.0 620Q39.0 622 33.0 628.0Q27.0 634 27.0 640Q27.0 647 33.5 650.5Q40.0 654 51.0 654Q81.0 654 99.0 653.0Q117.0 652 133.5 650.5Q150.0 649 173.0 649Q195.0 649 212.0 651.0Q229.0 653 250.0 655.0Q271.0 657 304.0 657Q419.0 657 480.0 617.0Q541.0 577 541.0 495Q541.0 450 522.0 418.5Q503.0 387 474.5 367.0Q446.0 347 416.0 336Q412.0 335 412.5 331.0Q413.0 327 416.0 324Q446.0 278 474.5 236.5Q503.0 195 534.5 158.0Q566.0 121 603.0 87Q634.0 58 666.5 52.5Q699.0 47 734.0 47Q749.0 47 749.0 32Q749.0 12 734.0 0.5Q719.0 -11 694.5 -16.0Q670.0 -21 642.0 -21ZM286.0 338Q327.0 338 354.5 356.5Q382.0 375 396.5 406.0Q411.0 437 411.0 475Q411.0 520 400.0 551.5Q389.0 583 362.5 600.5Q336.0 618 290.0 618Q264.0 618 254.5 599.5Q245.0 581 244.0 525Q243.0 502 243.0 464.5Q243.0 427 243.0 375Q243.0 353 254.5 345.5Q266.0 338 286.0 338ZM793.0 -5Q782.0 -5 775.5 -1.0Q769.0 3 769.0 9Q769.0 22 795.0 28Q831.0 37 846.5 50.5Q862.0 64 862.0 97V550Q862.0 584 848.5 598.0Q835.0 612 798.0 620Q784.0 623 778.0 628.5Q772.0 634 772.0 640Q772.0 647 778.5 650.5Q785.0 654 796.0 654Q825.0 654 851.5 653.0Q878.0 652 903.0 651.0Q928.0 650 955.0 650Q1001.0 650 1052.5 651.0Q1104.0 652 1145.0 652Q1178.0 653 1199.5 655.0Q1221.0 657 1225.0 657Q1232.0 657 1239.5 654.0Q1247.0 651 1248.0 642Q1252.0 609 1258.0 577.0Q1264.0 545 1264.0 521Q1264.0 512 1259.5 507.5Q1255.0 503 1250.0 503Q1245.0 503 1241.0 506.5Q1237.0 510 1234.0 517Q1226.0 540 1219.0 557.0Q1212.0 574 1203.0 583Q1190.0 597 1173.0 605.0Q1156.0 613 1132.0 613H1039.0Q1021.0 613 1006.0 602.5Q991.0 592 991.0 573V377Q991.0 366 997.5 360.0Q1004.0 354 1013.0 354H1105.0Q1132.0 354 1143.5 369.0Q1155.0 384 1163.0 410Q1170.0 430 1182.0 430Q1187.0 430 1191.0 424.5Q1195.0 419 1195.0 410Q1194.0 400 1193.0 386.0Q1192.0 372 1191.5 358.0Q1191.0 344 1191.0 333Q1191.0 321 1191.5 306.0Q1192.0 291 1192.5 276.5Q1193.0 262 1194.0 252Q1195.0 241 1192.5 235.0Q1190.0 229 1184.0 229Q1168.0 229 1161.0 257Q1153.0 285 1142.0 299.0Q1131.0 313 1112.0 313H1018.0Q1005.0 313 998.0 308.0Q991.0 303 991.0 289V99Q991.0 66 1005.0 53.0Q1019.0 40 1048.0 40H1130.0Q1155.0 40 1175.5 45.0Q1196.0 50 1211.0 61Q1228.0 73 1241.5 93.5Q1255.0 114 1268.0 139Q1272.0 147 1276.0 149.5Q1280.0 152 1286.0 152Q1291.0 151 1293.5 146.0Q1296.0 141 1296.0 135Q1296.0 121 1291.0 99.0Q1286.0 77 1278.5 53.5Q1271.0 30 1265.0 10Q1262.0 3 1257.0 -0.5Q1252.0 -4 1245.0 -4Q1221.0 -4 1183.5 -3.5Q1146.0 -3 1102.0 -2.0Q1058.0 -1 1012.0 -0.5Q966.0 0 924.0 0Q903.0 0 881.5 -1.0Q860.0 -2 838.0 -3.5Q816.0 -5 793.0 -5ZM1529.0 -15Q1486.0 -15 1447.5 -4.0Q1409.0 7 1377.0 29Q1371.0 34 1366.0 39.5Q1361.0 45 1358.0 52Q1350.0 77 1347.0 113.5Q1344.0 150 1345.0 184Q1345.0 191 1350.5 194.0Q1356.0 197 1364.0 197Q1372.0 197 1376.5 194.5Q1381.0 192 1383.0 185Q1405.0 110 1447.0 68.0Q1489.0 26 1542.0 26Q1575.0 26 1598.0 41.0Q1621.0 56 1633.0 80.0Q1645.0 104 1645.0 132Q1645.0 167 1632.5 190.0Q1620.0 213 1595.0 231.5Q1570.0 250 1532.0 271Q1491.0 295 1452.0 321.5Q1413.0 348 1388.0 384.5Q1363.0 421 1363.0 475Q1363.0 531 1391.5 573.5Q1420.0 616 1471.0 640.0Q1522.0 664 1589.0 664Q1626.0 664 1658.0 656.0Q1690.0 648 1709.0 640Q1720.0 636 1725.5 630.0Q1731.0 624 1734.0 611Q1740.0 590 1744.5 561.0Q1749.0 532 1749.0 500Q1749.0 488 1731.0 488Q1723.0 488 1715.0 492.0Q1707.0 496 1705.0 503Q1687.0 561 1655.5 591.0Q1624.0 621 1578.0 621Q1547.0 621 1525.0 610.5Q1503.0 600 1490.0 578.5Q1477.0 557 1477.0 523Q1477.0 497 1494.5 475.0Q1512.0 453 1543.5 432.0Q1575.0 411 1614.0 386Q1662.0 358 1694.5 329.5Q1727.0 301 1744.0 266.5Q1761.0 232 1761.0 185Q1761.0 119 1732.0 74.5Q1703.0 30 1651.0 7.5Q1599.0 -15 1529.0 -15ZM2175.0 -14Q2107.0 -14 2045.0 9.5Q1983.0 33 1935.5 76.5Q1888.0 120 1860.5 180.5Q1833.0 241 1833.0 315Q1833.0 383 1855.5 445.5Q1878.0 508 1922.5 557.0Q1967.0 606 2032.5 635.0Q2098.0 664 2184.0 664Q2252.0 664 2313.5 640.5Q2375.0 617 2423.0 573.5Q2471.0 530 2498.5 469.5Q2526.0 409 2526.0 335Q2526.0 268 2503.5 205.0Q2481.0 142 2436.5 93.0Q2392.0 44 2326.5 15.0Q2261.0 -14 2175.0 -14ZM2192.0 30Q2255.0 30 2297.5 62.0Q2340.0 94 2361.5 151.5Q2383.0 209 2383.0 284Q2383.0 348 2370.0 408.0Q2357.0 468 2330.0 515.5Q2303.0 563 2262.5 591.0Q2222.0 619 2166.0 619Q2103.0 619 2060.5 587.0Q2018.0 555 1997.0 498.0Q1976.0 441 1976.0 366Q1976.0 302 1989.0 242.0Q2002.0 182 2028.5 134.0Q2055.0 86 2095.5 58.0Q2136.0 30 2192.0 30ZM2933.0 -14Q2840.0 -14 2778.0 19.0Q2716.0 52 2685.0 111.0Q2654.0 170 2654.0 249V541Q2654.0 571 2640.5 592.0Q2627.0 613 2605.0 619Q2575.0 627 2575.0 641Q2575.0 647 2583.0 650.5Q2591.0 654 2603.0 654Q2631.0 654 2661.5 652.0Q2692.0 650 2721.0 650Q2747.0 650 2780.5 651.5Q2814.0 653 2838.0 653Q2850.0 653 2857.5 650.0Q2865.0 647 2865.0 640Q2865.0 630 2852.5 625.5Q2840.0 621 2823.0 614Q2809.0 608 2796.5 589.5Q2784.0 571 2784.0 539V270Q2784.0 198 2808.0 151.5Q2832.0 105 2872.0 83.0Q2912.0 61 2962.0 61Q3057.0 61 3103.0 121.0Q3149.0 181 3149.0 293Q3149.0 318 3149.0 352.0Q3149.0 386 3148.5 422.5Q3148.0 459 3147.0 492Q3147.0 531 3141.5 555.5Q3136.0 580 3126.0 594.5Q3116.0 609 3098.0 617Q3088.0 621 3074.5 626.0Q3061.0 631 3061.0 639Q3061.0 647 3069.0 650.0Q3077.0 653 3090.0 653Q3122.0 653 3139.5 652.0Q3157.0 651 3180.0 651Q3197.0 651 3210.5 651.5Q3224.0 652 3237.0 653.0Q3250.0 654 3267.0 654Q3279.0 654 3286.0 651.5Q3293.0 649 3293.0 641Q3293.0 627 3264.0 620Q3233.0 612 3221.0 591.0Q3209.0 570 3207.0 536Q3203.0 457 3201.5 391.0Q3200.0 325 3199.0 258Q3198.0 178 3162.5 116.5Q3127.0 55 3067.0 20.5Q3007.0 -14 2933.0 -14ZM3944.0 -21Q3901.0 -21 3869.0 -11.5Q3837.0 -2 3814.0 16.0Q3791.0 34 3772.0 58Q3750.0 88 3729.0 116.5Q3708.0 145 3686.5 179.5Q3665.0 214 3639.0 262Q3626.0 285 3606.0 296Q3593.0 303 3579.5 306.0Q3566.0 309 3557.0 309Q3551.0 310 3548.0 304.0Q3545.0 298 3545.0 289V103Q3545.0 72 3561.5 55.0Q3578.0 38 3618.0 29Q3631.0 27 3637.0 22.5Q3643.0 18 3643.0 10Q3643.0 3 3637.5 0.0Q3632.0 -3 3621.0 -3Q3598.0 -3 3574.0 -1.5Q3550.0 0 3527.5 1.0Q3505.0 2 3485.0 2Q3463.0 2 3439.5 1.0Q3416.0 0 3392.0 -2.0Q3368.0 -4 3344.0 -4Q3335.0 -4 3328.0 -0.5Q3321.0 3 3321.0 9Q3321.0 24 3346.0 29Q3384.0 37 3400.0 51.0Q3416.0 65 3416.0 98V540Q3416.0 569 3411.5 584.5Q3407.0 600 3394.0 608.0Q3381.0 616 3355.0 620Q3341.0 622 3335.0 628.0Q3329.0 634 3329.0 640Q3329.0 647 3335.5 650.5Q3342.0 654 3353.0 654Q3383.0 654 3401.0 653.0Q3419.0 652 3435.5 650.5Q3452.0 649 3475.0 649Q3497.0 649 3514.0 651.0Q3531.0 653 3552.0 655.0Q3573.0 657 3606.0 657Q3721.0 657 3782.0 617.0Q3843.0 577 3843.0 495Q3843.0 450 3824.0 418.5Q3805.0 387 3776.5 367.0Q3748.0 347 3718.0 336Q3714.0 335 3714.5 331.0Q3715.0 327 3718.0 324Q3748.0 278 3776.5 236.5Q3805.0 195 3836.5 158.0Q3868.0 121 3905.0 87Q3936.0 58 3968.5 52.5Q4001.0 47 4036.0 47Q4051.0 47 4051.0 32Q4051.0 12 4036.0 0.5Q4021.0 -11 3996.5 -16.0Q3972.0 -21 3944.0 -21ZM3588.0 338Q3629.0 338 3656.5 356.5Q3684.0 375 3698.5 406.0Q3713.0 437 3713.0 475Q3713.0 520 3702.0 551.5Q3691.0 583 3664.5 600.5Q3638.0 618 3592.0 618Q3566.0 618 3556.5 599.5Q3547.0 581 3546.0 525Q3545.0 502 3545.0 464.5Q3545.0 427 3545.0 375Q3545.0 353 3556.5 345.5Q3568.0 338 3588.0 338ZM4451.0 -14Q4376.0 -14 4309.0 9.5Q4242.0 33 4190.5 77.0Q4139.0 121 4109.5 182.5Q4080.0 244 4080.0 319Q4080.0 389 4109.0 451.0Q4138.0 513 4191.0 561.0Q4244.0 609 4317.5 636.5Q4391.0 664 4479.0 664Q4513.0 664 4543.5 659.5Q4574.0 655 4603.0 648.5Q4632.0 642 4660.0 632Q4671.0 628 4677.5 621.0Q4684.0 614 4685.0 602Q4689.0 572 4691.0 542.5Q4693.0 513 4693.0 484Q4694.0 474 4686.0 469.5Q4678.0 465 4669.0 468.5Q4660.0 472 4656.0 483Q4648.0 511 4637.5 535.5Q4627.0 560 4606.0 577Q4583.0 596 4548.0 607.5Q4513.0 619 4466.0 619Q4412.0 619 4368.0 597.0Q4324.0 575 4292.5 536.0Q4261.0 497 4244.0 448.0Q4227.0 399 4227.0 345Q4227.0 281 4242.5 224.0Q4258.0 167 4289.5 123.5Q4321.0 80 4366.0 55.5Q4411.0 31 4469.0 31Q4543.0 31 4589.0 63.0Q4635.0 95 4667.0 158Q4675.0 174 4689.0 173.5Q4703.0 173 4703.0 157Q4703.0 145 4700.0 127.0Q4697.0 109 4691.5 88.5Q4686.0 68 4679.0 48Q4675.0 36 4669.0 30.0Q4663.0 24 4651.0 19Q4613.0 3 4561.5 -5.5Q4510.0 -14 4451.0 -14ZM4804.0 -5Q4793.0 -5 4786.5 -1.0Q4780.0 3 4780.0 9Q4780.0 22 4806.0 28Q4842.0 37 4857.5 50.5Q4873.0 64 4873.0 97V550Q4873.0 584 4859.5 598.0Q4846.0 612 4809.0 620Q4795.0 623 4789.0 628.5Q4783.0 634 4783.0 640Q4783.0 647 4789.5 650.5Q4796.0 654 4807.0 654Q4836.0 654 4862.5 653.0Q4889.0 652 4914.0 651.0Q4939.0 650 4966.0 650Q5012.0 650 5063.5 651.0Q5115.0 652 5156.0 652Q5189.0 653 5210.5 655.0Q5232.0 657 5236.0 657Q5243.0 657 5250.5 654.0Q5258.0 651 5259.0 642Q5263.0 609 5269.0 577.0Q5275.0 545 5275.0 521Q5275.0 512 5270.5 507.5Q5266.0 503 5261.0 503Q5256.0 503 5252.0 506.5Q5248.0 510 5245.0 517Q5237.0 540 5230.0 557.0Q5223.0 574 5214.0 583Q5201.0 597 5184.0 605.0Q5167.0 613 5143.0 613H5050.0Q5032.0 613 5017.0 602.5Q5002.0 592 5002.0 573V377Q5002.0 366 5008.5 360.0Q5015.0 354 5024.0 354H5116.0Q5143.0 354 5154.5 369.0Q5166.0 384 5174.0 410Q5181.0 430 5193.0 430Q5198.0 430 5202.0 424.5Q5206.0 419 5206.0 410Q5205.0 400 5204.0 386.0Q5203.0 372 5202.5 358.0Q5202.0 344 5202.0 333Q5202.0 321 5202.5 306.0Q5203.0 291 5203.5 276.5Q5204.0 262 5205.0 252Q5206.0 241 5203.5 235.0Q5201.0 229 5195.0 229Q5179.0 229 5172.0 257Q5164.0 285 5153.0 299.0Q5142.0 313 5123.0 313H5029.0Q5016.0 313 5009.0 308.0Q5002.0 303 5002.0 289V99Q5002.0 66 5016.0 53.0Q5030.0 40 5059.0 40H5141.0Q5166.0 40 5186.5 45.0Q5207.0 50 5222.0 61Q5239.0 73 5252.5 93.5Q5266.0 114 5279.0 139Q5283.0 147 5287.0 149.5Q5291.0 152 5297.0 152Q5302.0 151 5304.5 146.0Q5307.0 141 5307.0 135Q5307.0 121 5302.0 99.0Q5297.0 77 5289.5 53.5Q5282.0 30 5276.0 10Q5273.0 3 5268.0 -0.5Q5263.0 -4 5256.0 -4Q5232.0 -4 5194.5 -3.5Q5157.0 -3 5113.0 -2.0Q5069.0 -1 5023.0 -0.5Q4977.0 0 4935.0 0Q4914.0 0 4892.5 -1.0Q4871.0 -2 4849.0 -3.5Q4827.0 -5 4804.0 -5ZM5371.0 -4Q5362.0 -4 5355.0 -0.5Q5348.0 3 5348.0 9Q5348.0 24 5373.0 29Q5411.0 37 5425.5 51.0Q5440.0 65 5440.0 98V538Q5440.0 576 5427.5 594.0Q5415.0 612 5379.0 620Q5365.0 623 5359.0 628.5Q5353.0 634 5353.0 640Q5353.0 647 5359.5 650.5Q5366.0 654 5377.0 654Q5405.0 654 5431.0 653.0Q5457.0 652 5482.0 651.0Q5507.0 650 5533.0 650Q5569.0 650 5611.5 650.0Q5654.0 650 5692.0 650Q5730.0 650 5760.5 655.5Q5791.0 661 5812.0 661Q5818.0 661 5825.5 657.5Q5833.0 654 5834.0 645Q5836.0 626 5837.0 602.0Q5838.0 578 5838.5 556.0Q5839.0 534 5839.0 521Q5839.0 501 5828.0 501Q5823.0 501 5817.5 505.0Q5812.0 509 5810.0 516Q5804.0 538 5796.5 555.5Q5789.0 573 5778.0 583Q5765.0 598 5747.5 604.0Q5730.0 610 5707.0 610H5616.0Q5592.0 610 5580.5 596.5Q5569.0 583 5569.0 562Q5569.0 544 5569.0 519.0Q5569.0 494 5569.0 472Q5569.0 449 5569.0 423.0Q5569.0 397 5569.0 376Q5569.0 366 5573.5 359.5Q5578.0 353 5588.0 353Q5615.0 353 5642.5 354.0Q5670.0 355 5691.0 355Q5715.0 355 5728.5 369.0Q5742.0 383 5750.0 403Q5754.0 410 5759.5 415.0Q5765.0 420 5770.0 420Q5775.0 420 5779.5 415.0Q5784.0 410 5783.0 400Q5781.0 381 5779.5 364.5Q5778.0 348 5778.0 334Q5778.0 316 5779.0 302.0Q5780.0 288 5782.0 265Q5783.0 254 5780.5 248.0Q5778.0 242 5772.0 242Q5764.0 242 5757.5 250.0Q5751.0 258 5749.0 266Q5741.0 293 5728.5 303.0Q5716.0 313 5700.0 313Q5688.0 313 5675.5 313.5Q5663.0 314 5652.0 314Q5637.0 314 5621.5 314.0Q5606.0 314 5591.0 313Q5580.0 312 5574.0 306.5Q5568.0 301 5568.0 289Q5568.0 243 5568.5 195.0Q5569.0 147 5570.0 99Q5571.0 68 5587.0 53.0Q5603.0 38 5643.0 29Q5656.0 27 5662.0 22.5Q5668.0 18 5668.0 10Q5668.0 3 5662.5 0.0Q5657.0 -3 5646.0 -3Q5623.0 -3 5598.5 -1.5Q5574.0 0 5551.5 1.0Q5529.0 2 5510.0 2Q5488.0 2 5465.0 1.0Q5442.0 0 5418.5 -2.0Q5395.0 -4 5371.0 -4ZM6234.0 -14Q6141.0 -14 6079.0 19.0Q6017.0 52 5986.0 111.0Q5955.0 170 5955.0 249V541Q5955.0 571 5941.5 592.0Q5928.0 613 5906.0 619Q5876.0 627 5876.0 641Q5876.0 647 5884.0 650.5Q5892.0 654 5904.0 654Q5932.0 654 5962.5 652.0Q5993.0 650 6022.0 650Q6048.0 650 6081.5 651.5Q6115.0 653 6139.0 653Q6151.0 653 6158.5 650.0Q6166.0 647 6166.0 640Q6166.0 630 6153.5 625.5Q6141.0 621 6124.0 614Q6110.0 608 6097.5 589.5Q6085.0 571 6085.0 539V270Q6085.0 198 6109.0 151.5Q6133.0 105 6173.0 83.0Q6213.0 61 6263.0 61Q6358.0 61 6404.0 121.0Q6450.0 181 6450.0 293Q6450.0 318 6450.0 352.0Q6450.0 386 6449.5 422.5Q6449.0 459 6448.0 492Q6448.0 531 6442.5 555.5Q6437.0 580 6427.0 594.5Q6417.0 609 6399.0 617Q6389.0 621 6375.5 626.0Q6362.0 631 6362.0 639Q6362.0 647 6370.0 650.0Q6378.0 653 6391.0 653Q6423.0 653 6440.5 652.0Q6458.0 651 6481.0 651Q6498.0 651 6511.5 651.5Q6525.0 652 6538.0 653.0Q6551.0 654 6568.0 654Q6580.0 654 6587.0 651.5Q6594.0 649 6594.0 641Q6594.0 627 6565.0 620Q6534.0 612 6522.0 591.0Q6510.0 570 6508.0 536Q6504.0 457 6502.5 391.0Q6501.0 325 6500.0 258Q6499.0 178 6463.5 116.5Q6428.0 55 6368.0 20.5Q6308.0 -14 6234.0 -14ZM6649.0 -5Q6638.0 -5 6632.0 -0.5Q6626.0 4 6626.0 9Q6626.0 17 6633.0 21.5Q6640.0 26 6647.0 28Q6683.0 37 6700.0 50.5Q6717.0 64 6717.0 95V555Q6717.0 578 6711.5 590.0Q6706.0 602 6692.5 608.5Q6679.0 615 6653.0 620Q6627.0 625 6627.0 641Q6627.0 647 6634.0 650.5Q6641.0 654 6650.0 654Q6675.0 654 6697.5 653.0Q6720.0 652 6741.0 651.0Q6762.0 650 6783.0 650Q6806.0 650 6829.5 651.0Q6853.0 652 6877.5 653.0Q6902.0 654 6925.0 654Q6935.0 654 6941.0 650.5Q6947.0 647 6947.0 640Q6947.0 632 6940.5 627.5Q6934.0 623 6922.0 620Q6883.0 610 6864.5 598.5Q6846.0 587 6846.0 558V101Q6846.0 72 6859.0 58.5Q6872.0 45 6908.0 45H7017.0Q7040.0 45 7059.0 53.0Q7078.0 61 7090.0 73Q7108.0 89 7120.0 107.0Q7132.0 125 7143.0 149Q7150.0 164 7156.0 172.0Q7162.0 180 7168.0 180Q7175.0 180 7178.0 173.5Q7181.0 167 7181.0 160Q7181.0 159 7180.0 154.0Q7179.0 149 7179.0 146Q7171.0 117 7165.5 96.0Q7160.0 75 7156.5 55.5Q7153.0 36 7150.0 13Q7149.0 6 7146.0 0.5Q7143.0 -5 7134.0 -5Q7104.0 -5 7062.0 -4.0Q7020.0 -3 6973.0 -2.5Q6926.0 -2 6878.5 -1.0Q6831.0 0 6789.0 0Q6767.0 0 6738.5 -1.0Q6710.0 -2 6685.0 -3.5Q6660.0 -5 6649.0 -5ZM7864.0 -18Q7852.0 -18 7824.0 -3.0Q7796.0 12 7767.0 49Q7750.0 68 7725.5 95.5Q7701.0 123 7671.5 156.0Q7642.0 189 7610.0 225.0Q7578.0 261 7546.5 297.0Q7515.0 333 7485.0 366.0Q7455.0 399 7430.0 426.5Q7405.0 454 7388.0 474Q7384.0 479 7379.5 482.5Q7375.0 486 7372.0 486Q7368.0 486 7366.0 479.0Q7364.0 472 7364.0 466Q7364.0 420 7364.5 357.0Q7365.0 294 7365.0 229.0Q7365.0 164 7365.0 109Q7365.0 78 7383.0 58.0Q7401.0 38 7440.0 29Q7452.0 27 7460.5 22.5Q7469.0 18 7469.0 10Q7469.0 3 7461.0 0.0Q7453.0 -3 7443.0 -3Q7416.0 -3 7400.0 -2.0Q7384.0 -1 7371.0 0.0Q7358.0 1 7338.0 1Q7317.0 1 7300.5 0.0Q7284.0 -1 7271.0 -2.5Q7258.0 -4 7246.0 -4Q7236.0 -4 7228.0 -0.5Q7220.0 3 7220.0 9Q7220.0 17 7227.5 21.5Q7235.0 26 7248.0 30Q7274.0 38 7286.5 59.5Q7299.0 81 7302.0 111Q7306.0 149 7310.0 210.5Q7314.0 272 7317.5 349.0Q7321.0 426 7321.0 508Q7321.0 560 7294.5 583.0Q7268.0 606 7228.0 620Q7221.0 622 7210.0 628.0Q7199.0 634 7199.0 643Q7199.0 652 7207.0 655.0Q7215.0 658 7224.0 658Q7245.0 658 7266.0 657.0Q7287.0 656 7308.5 655.5Q7330.0 655 7353.5 654.0Q7377.0 653 7404.0 653Q7413.0 653 7417.5 649.5Q7422.0 646 7426.0 640Q7442.0 621 7467.0 592.5Q7492.0 564 7521.5 529.5Q7551.0 495 7583.5 457.0Q7616.0 419 7648.5 381.0Q7681.0 343 7711.0 308.5Q7741.0 274 7765.5 245.5Q7790.0 217 7806.0 199Q7810.0 195 7815.5 189.0Q7821.0 183 7825.0 183Q7833.0 183 7834.0 200Q7834.0 226 7834.0 266.5Q7834.0 307 7834.5 356.5Q7835.0 406 7834.5 458.0Q7834.0 510 7833.0 558Q7832.0 583 7812.5 597.5Q7793.0 612 7764.0 618Q7752.0 621 7741.5 625.5Q7731.0 630 7731.0 639Q7731.0 646 7741.5 649.0Q7752.0 652 7761.0 652Q7781.0 652 7794.5 652.0Q7808.0 652 7820.0 651.5Q7832.0 651 7845.0 651Q7867.0 651 7881.0 651.5Q7895.0 652 7911.5 653.0Q7928.0 654 7955.0 654Q7967.0 654 7974.5 650.5Q7982.0 647 7982.0 641Q7982.0 626 7953.0 620Q7918.0 613 7903.5 601.0Q7889.0 589 7888.0 561Q7888.0 536 7887.5 497.0Q7887.0 458 7886.0 412.0Q7885.0 366 7883.5 318.0Q7882.0 270 7881.5 224.0Q7881.0 178 7881.0 141Q7881.0 117 7883.0 92.0Q7885.0 67 7887.5 47.5Q7890.0 28 7890.0 20Q7890.0 -2 7883.0 -10.0Q7876.0 -18 7864.0 -18ZM8041.0 -5Q8030.0 -5 8023.5 -1.0Q8017.0 3 8017.0 9Q8017.0 22 8043.0 28Q8079.0 37 8094.5 50.5Q8110.0 64 8110.0 97V550Q8110.0 584 8096.5 598.0Q8083.0 612 8046.0 620Q8032.0 623 8026.0 628.5Q8020.0 634 8020.0 640Q8020.0 647 8026.5 650.5Q8033.0 654 8044.0 654Q8073.0 654 8099.5 653.0Q8126.0 652 8151.0 651.0Q8176.0 650 8203.0 650Q8249.0 650 8300.5 651.0Q8352.0 652 8393.0 652Q8426.0 653 8447.5 655.0Q8469.0 657 8473.0 657Q8480.0 657 8487.5 654.0Q8495.0 651 8496.0 642Q8500.0 609 8506.0 577.0Q8512.0 545 8512.0 521Q8512.0 512 8507.5 507.5Q8503.0 503 8498.0 503Q8493.0 503 8489.0 506.5Q8485.0 510 8482.0 517Q8474.0 540 8467.0 557.0Q8460.0 574 8451.0 583Q8438.0 597 8421.0 605.0Q8404.0 613 8380.0 613H8287.0Q8269.0 613 8254.0 602.5Q8239.0 592 8239.0 573V377Q8239.0 366 8245.5 360.0Q8252.0 354 8261.0 354H8353.0Q8380.0 354 8391.5 369.0Q8403.0 384 8411.0 410Q8418.0 430 8430.0 430Q8435.0 430 8439.0 424.5Q8443.0 419 8443.0 410Q8442.0 400 8441.0 386.0Q8440.0 372 8439.5 358.0Q8439.0 344 8439.0 333Q8439.0 321 8439.5 306.0Q8440.0 291 8440.5 276.5Q8441.0 262 8442.0 252Q8443.0 241 8440.5 235.0Q8438.0 229 8432.0 229Q8416.0 229 8409.0 257Q8401.0 285 8390.0 299.0Q8379.0 313 8360.0 313H8266.0Q8253.0 313 8246.0 308.0Q8239.0 303 8239.0 289V99Q8239.0 66 8253.0 53.0Q8267.0 40 8296.0 40H8378.0Q8403.0 40 8423.5 45.0Q8444.0 50 8459.0 61Q8476.0 73 8489.5 93.5Q8503.0 114 8516.0 139Q8520.0 147 8524.0 149.5Q8528.0 152 8534.0 152Q8539.0 151 8541.5 146.0Q8544.0 141 8544.0 135Q8544.0 121 8539.0 99.0Q8534.0 77 8526.5 53.5Q8519.0 30 8513.0 10Q8510.0 3 8505.0 -0.5Q8500.0 -4 8493.0 -4Q8469.0 -4 8431.5 -3.5Q8394.0 -3 8350.0 -2.0Q8306.0 -1 8260.0 -0.5Q8214.0 0 8172.0 0Q8151.0 0 8129.5 -1.0Q8108.0 -2 8086.0 -3.5Q8064.0 -5 8041.0 -5ZM8777.0 -15Q8734.0 -15 8695.5 -4.0Q8657.0 7 8625.0 29Q8619.0 34 8614.0 39.5Q8609.0 45 8606.0 52Q8598.0 77 8595.0 113.5Q8592.0 150 8593.0 184Q8593.0 191 8598.5 194.0Q8604.0 197 8612.0 197Q8620.0 197 8624.5 194.5Q8629.0 192 8631.0 185Q8653.0 110 8695.0 68.0Q8737.0 26 8790.0 26Q8823.0 26 8846.0 41.0Q8869.0 56 8881.0 80.0Q8893.0 104 8893.0 132Q8893.0 167 8880.5 190.0Q8868.0 213 8843.0 231.5Q8818.0 250 8780.0 271Q8739.0 295 8700.0 321.5Q8661.0 348 8636.0 384.5Q8611.0 421 8611.0 475Q8611.0 531 8639.5 573.5Q8668.0 616 8719.0 640.0Q8770.0 664 8837.0 664Q8874.0 664 8906.0 656.0Q8938.0 648 8957.0 640Q8968.0 636 8973.5 630.0Q8979.0 624 8982.0 611Q8988.0 590 8992.5 561.0Q8997.0 532 8997.0 500Q8997.0 488 8979.0 488Q8971.0 488 8963.0 492.0Q8955.0 496 8953.0 503Q8935.0 561 8903.5 591.0Q8872.0 621 8826.0 621Q8795.0 621 8773.0 610.5Q8751.0 600 8738.0 578.5Q8725.0 557 8725.0 523Q8725.0 497 8742.5 475.0Q8760.0 453 8791.5 432.0Q8823.0 411 8862.0 386Q8910.0 358 8942.5 329.5Q8975.0 301 8992.0 266.5Q9009.0 232 9009.0 185Q9009.0 119 8980.0 74.5Q8951.0 30 8899.0 7.5Q8847.0 -15 8777.0 -15ZM9261.0 -15Q9218.0 -15 9179.5 -4.0Q9141.0 7 9109.0 29Q9103.0 34 9098.0 39.5Q9093.0 45 9090.0 52Q9082.0 77 9079.0 113.5Q9076.0 150 9077.0 184Q9077.0 191 9082.5 194.0Q9088.0 197 9096.0 197Q9104.0 197 9108.5 194.5Q9113.0 192 9115.0 185Q9137.0 110 9179.0 68.0Q9221.0 26 9274.0 26Q9307.0 26 9330.0 41.0Q9353.0 56 9365.0 80.0Q9377.0 104 9377.0 132Q9377.0 167 9364.5 190.0Q9352.0 213 9327.0 231.5Q9302.0 250 9264.0 271Q9223.0 295 9184.0 321.5Q9145.0 348 9120.0 384.5Q9095.0 421 9095.0 475Q9095.0 531 9123.5 573.5Q9152.0 616 9203.0 640.0Q9254.0 664 9321.0 664Q9358.0 664 9390.0 656.0Q9422.0 648 9441.0 640Q9452.0 636 9457.5 630.0Q9463.0 624 9466.0 611Q9472.0 590 9476.5 561.0Q9481.0 532 9481.0 500Q9481.0 488 9463.0 488Q9455.0 488 9447.0 492.0Q9439.0 496 9437.0 503Q9419.0 561 9387.5 591.0Q9356.0 621 9310.0 621Q9279.0 621 9257.0 610.5Q9235.0 600 9222.0 578.5Q9209.0 557 9209.0 523Q9209.0 497 9226.5 475.0Q9244.0 453 9275.5 432.0Q9307.0 411 9346.0 386Q9394.0 358 9426.5 329.5Q9459.0 301 9476.0 266.5Q9493.0 232 9493.0 185Q9493.0 119 9464.0 74.5Q9435.0 30 9383.0 7.5Q9331.0 -15 9261.0 -15Z" transform="matrix(0.015920 0 0 -0.015920 74.28 388.99)" fill="#15130f"/></svg>