<svg xmlns="http://www.w3.org/2000/svg" viewBox="0 0 300 446"><rect width="300" height="446" fill="#f4ecd8"/><rect x="20.0" y="25.5" width="260" height="395" rx="20.3" fill="#f4ecd8" stroke="#15130f" stroke-width="1.5"/><rect x="36.9" y="42.4" width="226.2" height="354.7" fill="none" stroke="#15130f" stroke-width="0.7"/><g fill="none" stroke="#15130f" stroke-width="0.65" stroke-opacity="0.72" stroke-linecap="round" stroke-linejoin="round"><line x1="36.9" y1="155.5" x2="263.1" y2="155.5"/><path d="M36.9,155.5 A113.1,113.1 0 0 1 263.1,155.5"/></g><path d="M36.9,370.6 H263.1 V397.1 H36.9 Z" fill="#f0cf48"/><g fill="none" stroke="#15130f" stroke-width="0.8"><line x1="36.9" y1="370.6" x2="263.1" y2="370.6"/><line x1="61.6" y1="370.6" x2="61.6" y2="397.1"/><line x1="238.4" y1="370.6" x2="238.4" y2="397.1"/></g><rect x="141.4" y="34.4" width="17.2" height="19.0" fill="#f0cf48" stroke="#15130f" stroke-width="0.8"/><path d="M541.0 1306Q697.0 1306 797.5 1224.5Q898.0 1143 898.0 1016Q898.0 934 849.0 869.0Q800.0 804 718.0 776Q668.0 759 667.0 750Q666.0 740 723.0 716Q957.0 617 957.0 376Q957.0 194 834.0 83.5Q711.0 -27 509.0 -27Q311.0 -27 189.5 75.0Q68.0 177 68.0 343Q68.0 527 267.0 635Q285.0 645 286.0 651Q287.0 657 266.0 673Q124.0 777 124.0 943Q124.0 1101 241.5 1203.5Q359.0 1306 541.0 1306ZM510.0 1245Q405.0 1245 336.5 1188.0Q268.0 1131 268.0 1044Q268.0 947 375.0 873Q495.0 790 602.0 790Q672.0 790 719.5 848.0Q767.0 906 767.0 991Q767.0 1097 692.5 1171.0Q618.0 1245 510.0 1245ZM354.0 615Q340.0 616 312.5 598.0Q285.0 580 269.0 560Q216.0 496 216.0 388Q216.0 235 306.0 135.5Q396.0 36 535.0 36Q653.0 36 728.5 100.0Q804.0 164 804.0 265Q804.0 441 612.0 513L510.0 552Q474.0 565 396.0 600Q363.0 614 354.0 615Z" transform="matrix(0.006858 0 0 -0.006858 146.49 49.06)" fill="#15130f"/><path d="M700 1410Q993 1410 1171.5 1205.0Q1350 1000 1350 700Q1350 399 1170.0 194.5Q990 -10 700 -10Q410 -10 230.0 194.5Q50 399 50 700Q50 1000 228.5 1205.0Q407 1410 700 1410ZM700 1310Q487 1310 368.5 1116.5Q250 923 250 700Q250 481 368.5 285.5Q487 90 700 90Q910 90 1030.0 285.5Q1150 481 1150 700Q1150 923 1030.0 1116.5Q910 1310 700 1310ZM700.0 950Q766.0 950 826.0 918.0Q886.0 886 918.0 826.0Q950.0 766 950.0 700Q950.0 634 918.0 574.0Q886.0 514 826.0 482.0Q766.0 450 700.0 450Q634.0 450 574.0 482.0Q514.0 514 482.0 574.0Q450.0 634 450.0 700Q450.0 766 482.0 826.0Q514.0 886 574.0 918.0Q634.0 950 700.0 950Z" transform="matrix(0.009268 0 0 -0.009268 42.76 390.35)" fill="#15130f"/><path d="M1250.0 0V1067Q1250.0 1212 1241.5 1255.5Q1233.0 1299 1212.5 1317.5Q1192.0 1336 1168.0 1336L938.0 1106Q950.0 1037 950.0 952V0H750.0V1067Q750.0 1212 741.5 1255.5Q733.0 1299 712.5 1317.5Q692.0 1336 668.0 1336L438.0 1106Q450.0 1037 450.0 952V0H50.0V40H100.0Q170.0 40 210.0 95.0Q250.0 150 250.0 200V1067Q250.0 1212 241.5 1255.5Q233.0 1299 212.5 1317.5Q192.0 1336 168.0 1336V1410Q284.0 1392 358.0 1301Q387.0 1264 408.0 1216L602.0 1410H668.0Q784.0 1392 858.0 1301Q887.0 1264 908.0 1216L1102.0 1410H1168.0Q1284.0 1392 1358.0 1301Q1450.0 1187 1450.0 952V0Q1450.0 -91 1478.0 -175.5Q1506.0 -260 1558.5 -305.0Q1611.0 -350 1667.0 -350H1867.0Q1742.0 -225 1617.0 0H1667.0Q1967.0 -300 2267.0 -400Q1967.0 -500 1667.0 -800H1617.0Q1742.0 -575 1867.0 -450H1667.0Q1559.0 -450 1458.5 -392.0Q1358.0 -334 1304.0 -225.5Q1250.0 -117 1250.0 0Z" transform="matrix(0.008244 0 0 -0.008244 241.20 386.38)" fill="#15130f"/><path d="M49.0 -5Q38.0 -5 31.5 -1.0Q25.0 3 25.0 9Q25.0 22 51.0 28Q87.0 37 102.5 50.5Q118.0 64 118.0 97V550Q118.0 584 104.5 598.0Q91.0 612 54.0 620Q40.0 623 34.0 628.5Q28.0 634 28.0 640Q28.0 647 34.5 650.5Q41.0 654 52.0 654Q81.0 654 107.5 653.0Q134.0 652 159.0 651.0Q184.0 650 211.0 650Q257.0 650 308.5 651.0Q360.0 652 401.0 652Q434.0 653 455.5 655.0Q477.0 657 481.0 657Q488.0 657 495.5 654.0Q503.0 651 504.0 642Q508.0 609 514.0 577.0Q520.0 545 520.0 521Q520.0 512 515.5 507.5Q511.0 503 506.0 503Q501.0 503 497.0 506.5Q493.0 510 490.0 517Q482.0 540 475.0 557.0Q468.0 574 459.0 583Q446.0 597 429.0 605.0Q412.0 613 388.0 613H295.0Q277.0 613 262.0 602.5Q247.0 592 247.0 573V377Q247.0 366 253.5 360.0Q260.0 354 269.0 354H361.0Q388.0 354 399.5 369.0Q411.0 384 419.0 410Q426.0 430 438.0 430Q443.0 430 447.0 424.5Q451.0 419 451.0 410Q450.0 400 449.0 386.0Q448.0 372 447.5 358.0Q447.0 344 447.0 333Q447.0 321 447.5 306.0Q448.0 291 448.5 276.5Q449.0 262 450.0 252Q451.0 241 448.5 235.0Q446.0 229 440.0 229Q424.0 229 417.0 257Q409.0 285 398.0 299.0Q387.0 313 368.0 313H274.0Q261.0 313 254.0 308.0Q247.0 303 247.0 289V99Q247.0 66 261.0 53.0Q275.0 40 304.0 40H386.0Q411.0 40 431.5 45.0Q452.0 50 467.0 61Q484.0 73 497.5 93.5Q511.0 114 524.0 139Q528.0 147 532.0 149.5Q536.0 152 542.0 152Q547.0 151 549.5 146.0Q552.0 141 552.0 135Q552.0 121 547.0 99.0Q542.0 77 534.5 53.5Q527.0 30 521.0 10Q518.0 3 513.0 -0.5Q508.0 -4 501.0 -4Q477.0 -4 439.5 -3.5Q402.0 -3 358.0 -2.0Q314.0 -1 268.0 -0.5Q222.0 0 180.0 0Q159.0 0 137.5 -1.0Q116.0 -2 94.0 -3.5Q72.0 -5 49.0 -5ZM1247.0 -18Q1235.0 -18 1207.0 -3.0Q1179.0 12 1150.0 49Q1133.0 68 1108.5 95.5Q1084.0 123 1054.5 156.0Q1025.0 189 993.0 225.0Q961.0 261 929.5 297.0Q898.0 333 868.0 366.0Q838.0 399 813.0 426.5Q788.0 454 771.0 474Q767.0 479 762.5 482.5Q758.0 486 755.0 486Q751.0 486 749.0 479.0Q747.0 472 747.0 466Q747.0 420 747.5 357.0Q748.0 294 748.0 229.0Q748.0 164 748.0 109Q748.0 78 766.0 58.0Q784.0 38 823.0 29Q835.0 27 843.5 22.5Q852.0 18 852.0 10Q852.0 3 844.0 0.0Q836.0 -3 826.0 -3Q799.0 -3 783.0 -2.0Q767.0 -1 754.0 0.0Q741.0 1 721.0 1Q700.0 1 683.5 0.0Q667.0 -1 654.0 -2.5Q641.0 -4 629.0 -4Q619.0 -4 611.0 -0.5Q603.0 3 603.0 9Q603.0 17 610.5 21.5Q618.0 26 631.0 30Q657.0 38 669.5 59.5Q682.0 81 685.0 111Q689.0 149 693.0 210.5Q697.0 272 700.5 349.0Q704.0 426 704.0 508Q704.0 560 677.5 583.0Q651.0 606 611.0 620Q604.0 622 593.0 628.0Q582.0 634 582.0 643Q582.0 652 590.0 655.0Q598.0 658 607.0 658Q628.0 658 649.0 657.0Q670.0 656 691.5 655.5Q713.0 655 736.5 654.0Q760.0 653 787.0 653Q796.0 653 800.5 649.5Q805.0 646 809.0 640Q825.0 621 850.0 592.5Q875.0 564 904.5 529.5Q934.0 495 966.5 457.0Q999.0 419 1031.5 381.0Q1064.0 343 1094.0 308.5Q1124.0 274 1148.5 245.5Q1173.0 217 1189.0 199Q1193.0 195 1198.5 189.0Q1204.0 183 1208.0 183Q1216.0 183 1217.0 200Q1217.0 226 1217.0 266.5Q1217.0 307 1217.5 356.5Q1218.0 406 1217.5 458.0Q1217.0 510 1216.0 558Q1215.0 583 1195.5 597.5Q1176.0 612 1147.0 618Q1135.0 621 1124.5 625.5Q1114.0 630 1114.0 639Q1114.0 646 1124.5 649.0Q1135.0 652 1144.0 652Q1164.0 652 1177.5 652.0Q1191.0 652 1203.0 651.5Q1215.0 651 1228.0 651Q1250.0 651 1264.0 651.5Q1278.0 652 1294.5 653.0Q1311.0 654 1338.0 654Q1350.0 654 1357.5 650.5Q1365.0 647 1365.0 641Q1365.0 626 1336.0 620Q1301.0 613 1286.5 601.0Q1272.0 589 1271.0 561Q1271.0 536 1270.5 497.0Q1270.0 458 1269.0 412.0Q1268.0 366 1266.5 318.0Q1265.0 270 1264.5 224.0Q1264.0 178 1264.0 141Q1264.0 117 1266.0 92.0Q1268.0 67 1270.5 47.5Q1273.0 28 1273.0 20Q1273.0 -2 1266.0 -10.0Q1259.0 -18 1247.0 -18ZM1754.0 -7Q1727.0 -7 1689.0 -5.0Q1651.0 -3 1612.5 -1.5Q1574.0 0 1549.0 0Q1529.0 0 1508.5 -0.5Q1488.0 -1 1466.0 -2.5Q1444.0 -4 1419.0 -4Q1410.0 -4 1403.0 -0.5Q1396.0 3 1396.0 10Q1396.0 19 1402.5 23.0Q1409.0 27 1422.0 29Q1460.0 37 1474.0 51.0Q1488.0 65 1488.0 98V550Q1488.0 584 1474.5 598.0Q1461.0 612 1422.0 620Q1409.0 622 1402.5 626.5Q1396.0 631 1396.0 640Q1396.0 647 1403.0 650.5Q1410.0 654 1419.0 654Q1443.0 654 1465.0 653.5Q1487.0 653 1508.5 651.5Q1530.0 650 1552.0 650Q1567.0 650 1592.5 651.5Q1618.0 653 1647.5 654.5Q1677.0 656 1703.0 657.5Q1729.0 659 1745.0 659Q1829.0 659 1896.0 635.0Q1963.0 611 2010.5 568.0Q2058.0 525 2083.0 466.0Q2108.0 407 2108.0 338Q2108.0 269 2083.0 207.0Q2058.0 145 2011.5 97.0Q1965.0 49 1899.5 21.0Q1834.0 -7 1754.0 -7ZM1739.0 39Q1811.0 39 1861.5 73.5Q1912.0 108 1938.0 170.5Q1964.0 233 1964.0 315Q1964.0 383 1946.5 438.5Q1929.0 494 1897.5 532.5Q1866.0 571 1822.5 592.0Q1779.0 613 1728.0 613Q1692.0 613 1667.5 611.0Q1643.0 609 1630.5 599.5Q1618.0 590 1618.0 568V128Q1618.0 93 1633.5 73.5Q1649.0 54 1676.5 46.5Q1704.0 39 1739.0 39ZM2510.0 -14Q2417.0 -14 2355.0 19.0Q2293.0 52 2262.0 111.0Q2231.0 170 2231.0 249V541Q2231.0 571 2217.5 592.0Q2204.0 613 2182.0 619Q2152.0 627 2152.0 641Q2152.0 647 2160.0 650.5Q2168.0 654 2180.0 654Q2208.0 654 2238.5 652.0Q2269.0 650 2298.0 650Q2324.0 650 2357.5 651.5Q2391.0 653 2415.0 653Q2427.0 653 2434.5 650.0Q2442.0 647 2442.0 640Q2442.0 630 2429.5 625.5Q2417.0 621 2400.0 614Q2386.0 608 2373.5 589.5Q2361.0 571 2361.0 539V270Q2361.0 198 2385.0 151.5Q2409.0 105 2449.0 83.0Q2489.0 61 2539.0 61Q2634.0 61 2680.0 121.0Q2726.0 181 2726.0 293Q2726.0 318 2726.0 352.0Q2726.0 386 2725.5 422.5Q2725.0 459 2724.0 492Q2724.0 531 2718.5 555.5Q2713.0 580 2703.0 594.5Q2693.0 609 2675.0 617Q2665.0 621 2651.5 626.0Q2638.0 631 2638.0 639Q2638.0 647 2646.0 650.0Q2654.0 653 2667.0 653Q2699.0 653 2716.5 652.0Q2734.0 651 2757.0 651Q2774.0 651 2787.5 651.5Q2801.0 652 2814.0 653.0Q2827.0 654 2844.0 654Q2856.0 654 2863.0 651.5Q2870.0 649 2870.0 641Q2870.0 627 2841.0 620Q2810.0 612 2798.0 591.0Q2786.0 570 2784.0 536Q2780.0 457 2778.5 391.0Q2777.0 325 2776.0 258Q2775.0 178 2739.5 116.5Q2704.0 55 2644.0 20.5Q2584.0 -14 2510.0 -14ZM3521.0 -21Q3478.0 -21 3446.0 -11.5Q3414.0 -2 3391.0 16.0Q3368.0 34 3349.0 58Q3327.0 88 3306.0 116.5Q3285.0 145 3263.5 179.5Q3242.0 214 3216.0 262Q3203.0 285 3183.0 296Q3170.0 303 3156.5 306.0Q3143.0 309 3134.0 309Q3128.0 310 3125.0 304.0Q3122.0 298 3122.0 289V103Q3122.0 72 3138.5 55.0Q3155.0 38 3195.0 29Q3208.0 27 3214.0 22.5Q3220.0 18 3220.0 10Q3220.0 3 3214.5 0.0Q3209.0 -3 3198.0 -3Q3175.0 -3 3151.0 -1.5Q3127.0 0 3104.5 1.0Q3082.0 2 3062.0 2Q3040.0 2 3016.5 1.0Q2993.0 0 2969.0 -2.0Q2945.0 -4 2921.0 -4Q2912.0 -4 2905.0 -0.5Q2898.0 3 2898.0 9Q2898.0 24 2923.0 29Q2961.0 37 2977.0 51.0Q2993.0 65 2993.0 98V540Q2993.0 569 2988.5 584.5Q2984.0 600 2971.0 608.0Q2958.0 616 2932.0 620Q2918.0 622 2912.0 628.0Q2906.0 634 2906.0 640Q2906.0 647 2912.5 650.5Q2919.0 654 2930.0 654Q2960.0 654 2978.0 653.0Q2996.0 652 3012.5 650.5Q3029.0 649 3052.0 649Q3074.0 649 3091.0 651.0Q3108.0 653 3129.0 655.0Q3150.0 657 3183.0 657Q3298.0 657 3359.0 617.0Q3420.0 577 3420.0 495Q3420.0 450 3401.0 418.5Q3382.0 387 3353.5 367.0Q3325.0 347 3295.0 336Q3291.0 335 3291.5 331.0Q3292.0 327 3295.0 324Q3325.0 278 3353.5 236.5Q3382.0 195 3413.5 158.0Q3445.0 121 3482.0 87Q3513.0 58 3545.5 52.5Q3578.0 47 3613.0 47Q3628.0 47 3628.0 32Q3628.0 12 3613.0 0.5Q3598.0 -11 3573.5 -16.0Q3549.0 -21 3521.0 -21ZM3165.0 338Q3206.0 338 3233.5 356.5Q3261.0 375 3275.5 406.0Q3290.0 437 3290.0 475Q3290.0 520 3279.0 551.5Q3268.0 583 3241.5 600.5Q3215.0 618 3169.0 618Q3143.0 618 3133.5 599.5Q3124.0 581 3123.0 525Q3122.0 502 3122.0 464.5Q3122.0 427 3122.0 375Q3122.0 353 3133.5 345.5Q3145.0 338 3165.0 338ZM3647.0 -5Q3635.0 -5 3627.0 -1.5Q3619.0 2 3619.0 10Q3619.0 19 3626.5 24.0Q3634.0 29 3646.0 33Q3675.0 41 3696.5 57.5Q3718.0 74 3731.0 103Q3756.0 162 3779.0 216.5Q3802.0 271 3823.0 325.0Q3844.0 379 3865.5 435.0Q3887.0 491 3909.0 553Q3920.0 584 3924.0 601.0Q3928.0 618 3931.0 626Q3946.0 630 3959.0 634.0Q3972.0 638 3988.0 644Q4002.0 651 4012.0 662.0Q4022.0 673 4027.0 679Q4030.0 681 4033.0 681.5Q4036.0 682 4039.0 677Q4042.0 671 4044.0 665.0Q4046.0 659 4048.0 652Q4070.0 581 4093.5 508.5Q4117.0 436 4140.0 365.5Q4163.0 295 4184.5 230.5Q4206.0 166 4224.0 112Q4233.0 85 4246.5 69.0Q4260.0 53 4276.5 44.5Q4293.0 36 4313.0 31Q4326.0 28 4333.0 23.0Q4340.0 18 4340.0 9Q4340.0 3 4333.5 0.0Q4327.0 -3 4317.0 -3Q4299.0 -3 4271.5 -2.0Q4244.0 -1 4215.0 0.5Q4186.0 2 4163.0 2Q4143.0 2 4118.5 1.0Q4094.0 0 4069.5 -1.0Q4045.0 -2 4028.0 -2Q4018.0 -2 4010.5 1.5Q4003.0 5 4003.0 12Q4003.0 20 4011.0 25.5Q4019.0 31 4030.0 33Q4066.0 39 4082.0 51.5Q4098.0 64 4094.0 88Q4091.0 105 4085.0 128.5Q4079.0 152 4072.5 177.5Q4066.0 203 4059.0 224Q4057.0 232 4053.0 235.5Q4049.0 239 4038.0 239H3858.0Q3851.0 239 3847.0 234.5Q3843.0 230 3841.0 221Q3837.0 208 3831.5 191.5Q3826.0 175 3820.5 157.5Q3815.0 140 3810.5 125.0Q3806.0 110 3804.0 99Q3799.0 72 3813.5 56.5Q3828.0 41 3864.0 32Q3891.0 25 3891.0 11Q3891.0 5 3884.5 1.5Q3878.0 -2 3866.0 -2Q3843.0 -2 3818.0 -0.5Q3793.0 1 3763.0 1Q3733.0 1 3704.5 -2.0Q3676.0 -5 3647.0 -5ZM3885.0 285H4024.0Q4038.0 285 4038.0 291Q4038.0 294 4037.5 296.0Q4037.0 298 4036.0 302L3966.0 533Q3962.0 547 3959.0 547Q3957.0 547 3952.0 534L3868.0 302Q3866.0 297 3866.0 294Q3866.0 289 3871.5 287.0Q3877.0 285 3885.0 285ZM5010.0 -18Q4998.0 -18 4970.0 -3.0Q4942.0 12 4913.0 49Q4896.0 68 4871.5 95.5Q4847.0 123 4817.5 156.0Q4788.0 189 4756.0 225.0Q4724.0 261 4692.5 297.0Q4661.0 333 4631.0 366.0Q4601.0 399 4576.0 426.5Q4551.0 454 4534.0 474Q4530.0 479 4525.5 482.5Q4521.0 486 4518.0 486Q4514.0 486 4512.0 479.0Q4510.0 472 4510.0 466Q4510.0 420 4510.5 357.0Q4511.0 294 4511.0 229.0Q4511.0 164 4511.0 109Q4511.0 78 4529.0 58.0Q4547.0 38 4586.0 29Q4598.0 27 4606.5 22.5Q4615.0 18 4615.0 10Q4615.0 3 4607.0 0.0Q4599.0 -3 4589.0 -3Q4562.0 -3 4546.0 -2.0Q4530.0 -1 4517.0 0.0Q4504.0 1 4484.0 1Q4463.0 1 4446.5 0.0Q4430.0 -1 4417.0 -2.5Q4404.0 -4 4392.0 -4Q4382.0 -4 4374.0 -0.5Q4366.0 3 4366.0 9Q4366.0 17 4373.5 21.5Q4381.0 26 4394.0 30Q4420.0 38 4432.5 59.5Q4445.0 81 4448.0 111Q4452.0 149 4456.0 210.5Q4460.0 272 4463.5 349.0Q4467.0 426 4467.0 508Q4467.0 560 4440.5 583.0Q4414.0 606 4374.0 620Q4367.0 622 4356.0 628.0Q4345.0 634 4345.0 643Q4345.0 652 4353.0 655.0Q4361.0 658 4370.0 658Q4391.0 658 4412.0 657.0Q4433.0 656 4454.5 655.5Q4476.0 655 4499.5 654.0Q4523.0 653 4550.0 653Q4559.0 653 4563.5 649.5Q4568.0 646 4572.0 640Q4588.0 621 4613.0 592.5Q4638.0 564 4667.5 529.5Q4697.0 495 4729.5 457.0Q4762.0 419 4794.5 381.0Q4827.0 343 4857.0 308.5Q4887.0 274 4911.5 245.5Q4936.0 217 4952.0 199Q4956.0 195 4961.5 189.0Q4967.0 183 4971.0 183Q4979.0 183 4980.0 200Q4980.0 226 4980.0 266.5Q4980.0 307 4980.5 356.5Q4981.0 406 4980.5 458.0Q4980.0 510 4979.0 558Q4978.0 583 4958.5 597.5Q4939.0 612 4910.0 618Q4898.0 621 4887.5 625.5Q4877.0 630 4877.0 639Q4877.0 646 4887.5 649.0Q4898.0 652 4907.0 652Q4927.0 652 4940.5 652.0Q4954.0 652 4966.0 651.5Q4978.0 651 4991.0 651Q5013.0 651 5027.0 651.5Q5041.0 652 5057.5 653.0Q5074.0 654 5101.0 654Q5113.0 654 5120.5 650.5Q5128.0 647 5128.0 641Q5128.0 626 5099.0 620Q5064.0 613 5049.5 601.0Q5035.0 589 5034.0 561Q5034.0 536 5033.5 497.0Q5033.0 458 5032.0 412.0Q5031.0 366 5029.5 318.0Q5028.0 270 5027.5 224.0Q5027.0 178 5027.0 141Q5027.0 117 5029.0 92.0Q5031.0 67 5033.5 47.5Q5036.0 28 5036.0 20Q5036.0 -2 5029.0 -10.0Q5022.0 -18 5010.0 -18ZM5543.0 -14Q5468.0 -14 5401.0 9.5Q5334.0 33 5282.5 77.0Q5231.0 121 5201.5 182.5Q5172.0 244 5172.0 319Q5172.0 389 5201.0 451.0Q5230.0 513 5283.0 561.0Q5336.0 609 5409.5 636.5Q5483.0 664 5571.0 664Q5605.0 664 5635.5 659.5Q5666.0 655 5695.0 648.5Q5724.0 642 5752.0 632Q5763.0 628 5769.5 621.0Q5776.0 614 5777.0 602Q5781.0 572 5783.0 542.5Q5785.0 513 5785.0 484Q5786.0 474 5778.0 469.5Q5770.0 465 5761.0 468.5Q5752.0 472 5748.0 483Q5740.0 511 5729.5 535.5Q5719.0 560 5698.0 577Q5675.0 596 5640.0 607.5Q5605.0 619 5558.0 619Q5504.0 619 5460.0 597.0Q5416.0 575 5384.5 536.0Q5353.0 497 5336.0 448.0Q5319.0 399 5319.0 345Q5319.0 281 5334.5 224.0Q5350.0 167 5381.5 123.5Q5413.0 80 5458.0 55.5Q5503.0 31 5561.0 31Q5635.0 31 5681.0 63.0Q5727.0 95 5759.0 158Q5767.0 174 5781.0 173.5Q5795.0 173 5795.0 157Q5795.0 145 5792.0 127.0Q5789.0 109 5783.5 88.5Q5778.0 68 5771.0 48Q5767.0 36 5761.0 30.0Q5755.0 24 5743.0 19Q5705.0 3 5653.5 -5.5Q5602.0 -14 5543.0 -14ZM5896.0 -5Q5885.0 -5 5878.5 -1.0Q5872.0 3 5872.0 9Q5872.0 22 5898.0 28Q5934.0 37 5949.5 50.5Q5965.0 64 5965.0 97V550Q5965.0 584 5951.5 598.0Q5938.0 612 5901.0 620Q5887.0 623 5881.0 628.5Q5875.0 634 5875.0 640Q5875.0 647 5881.5 650.5Q5888.0 654 5899.0 654Q5928.0 654 5954.5 653.0Q5981.0 652 6006.0 651.0Q6031.0 650 6058.0 650Q6104.0 650 6155.5 651.0Q6207.0 652 6248.0 652Q6281.0 653 6302.5 655.0Q6324.0 657 6328.0 657Q6335.0 657 6342.5 654.0Q6350.0 651 6351.0 642Q6355.0 609 6361.0 577.0Q6367.0 545 6367.0 521Q6367.0 512 6362.5 507.5Q6358.0 503 6353.0 503Q6348.0 503 6344.0 506.5Q6340.0 510 6337.0 517Q6329.0 540 6322.0 557.0Q6315.0 574 6306.0 583Q6293.0 597 6276.0 605.0Q6259.0 613 6235.0 613H6142.0Q6124.0 613 6109.0 602.5Q6094.0 592 6094.0 573V377Q6094.0 366 6100.5 360.0Q6107.0 354 6116.0 354H6208.0Q6235.0 354 6246.5 369.0Q6258.0 384 6266.0 410Q6273.0 430 6285.0 430Q6290.0 430 6294.0 424.5Q6298.0 419 6298.0 410Q6297.0 400 6296.0 386.0Q6295.0 372 6294.5 358.0Q6294.0 344 6294.0 333Q6294.0 321 6294.5 306.0Q6295.0 291 6295.5 276.5Q6296.0 262 6297.0 252Q6298.0 241 6295.5 235.0Q6293.0 229 6287.0 229Q6271.0 229 6264.0 257Q6256.0 285 6245.0 299.0Q6234.0 313 6215.0 313H6121.0Q6108.0 313 6101.0 308.0Q6094.0 303 6094.0 289V99Q6094.0 66 6108.0 53.0Q6122.0 40 6151.0 40H6233.0Q6258.0 40 6278.5 45.0Q6299.0 50 6314.0 61Q6331.0 73 6344.5 93.5Q6358.0 114 6371.0 139Q6375.0 147 6379.0 149.5Q6383.0 152 6389.0 152Q6394.0 151 6396.5 146.0Q6399.0 141 6399.0 135Q6399.0 121 6394.0 99.0Q6389.0 77 6381.5 53.5Q6374.0 30 6368.0 10Q6365.0 3 6360.0 -0.5Q6355.0 -4 6348.0 -4Q6324.0 -4 6286.5 -3.5Q6249.0 -3 6205.0 -2.0Q6161.0 -1 6115.0 -0.5Q6069.0 0 6027.0 0Q6006.0 0 5984.5 -1.0Q5963.0 -2 5941.0 -3.5Q5919.0 -5 5896.0 -5Z" transform="matrix(0.022120 0 0 -0.022120 78.95 391.17)" fill="#15130f"/></svg>