<svg xmlns="http://www.w3.org/2000/svg" viewBox="0 0 300 446"><rect width="300" height="446" fill="#f4ecd8"/><rect x="20.0" y="25.5" width="260" height="395" rx="20.3" fill="#f4ecd8" stroke="#15130f" stroke-width="1.5"/><rect x="36.9" y="42.4" width="226.2" height="354.7" fill="none" stroke="#15130f" stroke-width="0.7"/><g fill="none" stroke="#15130f" stroke-width="0.65" stroke-opacity="0.72" stroke-linecap="round" stroke-linejoin="round"><line x1="36.9" y1="155.5" x2="263.1" y2="155.5"/><path d="M36.9,155.5 A113.1,113.1 0 0 1 263.1,155.5"/></g><path d="M36.9,370.6 H263.1 V397.1 H36.9 Z" fill="#f0cf48"/><g fill="none" stroke="#15130f" stroke-width="0.8"><line x1="36.9" y1="370.6" x2="263.1" y2="370.6"/><line x1="61.6" y1="370.6" x2="61.6" y2="397.1"/><line x1="238.4" y1="370.6" x2="238.4" y2="397.1"/></g><rect x="141.4" y="34.4" width="17.2" height="19.0" fill="#f0cf48" stroke="#15130f" stroke-width="0.8"/><path d="M853.0 1316Q873.0 1316 875.0 1308L880.0 1293L883.0 1279Q881.0 1265 840.0 1259Q750.0 1244 640.0 1176.5Q530.0 1109 463.0 1027Q420.0 973 377.5 882.5Q335.0 792 335.0 753Q335.0 727 354.0 728Q367.0 729 385.0 742Q435.0 777 512.0 803.0Q589.0 829 645.0 829Q781.0 829 874.5 722.0Q968.0 615 968.0 459Q968.0 243 841.0 108.0Q714.0 -27 511.0 -27Q313.0 -27 187.5 122.5Q62.0 272 62.0 508Q62.0 756 224.0 971.5Q386.0 1187 633.0 1268Q779.0 1316 853.0 1316ZM501.0 715Q402.0 715 337.5 638.5Q273.0 562 273.0 445Q273.0 284 361.5 159.5Q450.0 35 565.0 35Q658.0 35 715.0 113.0Q772.0 191 772.0 318Q772.0 497 697.5 606.0Q623.0 715 501.0 715Z" transform="matrix(0.006858 0 0 -0.006858 146.47 49.10)" fill="#15130f"/><path d="M700 1410Q993 1410 1171.5 1205.0Q1350 1000 1350 700Q1350 399 1170.0 194.5Q990 -10 700 -10Q410 -10 230.0 194.5Q50 399 50 700Q50 1000 228.5 1205.0Q407 1410 700 1410ZM700 1310Q487 1310 368.5 1116.5Q250 923 250 700Q250 481 368.5 285.5Q487 90 700 90Q910 90 1030.0 285.5Q1150 481 1150 700Q1150 923 1030.0 1116.5Q910 1310 700 1310ZM700.0 950Q766.0 950 826.0 918.0Q886.0 886 918.0 826.0Q950.0 766 950.0 700Q950.0 634 918.0 574.0Q886.0 514 826.0 482.0Q766.0 450 700.0 450Q634.0 450 574.0 482.0Q514.0 514 482.0 574.0Q450.0 634 450.0 700Q450.0 766 482.0 826.0Q514.0 886 574.0 918.0Q634.0 950 700.0 950Z" transform="matrix(0.009268 0 0 -0.009268 42.76 390.35)" fill="#15130f"/><path d="M1450.0 635V-198Q1651.0 -179 1769.0 -4Q1900.0 191 1900.0 410Q1900.0 633 1769.0 827Q1742.0 865 1711.0 896ZM1259.0 -187Q1250.0 -126 1250.0 -52V1067Q1250.0 1212 1241.5 1255.5Q1233.0 1299 1212.5 1317.5Q1192.0 1336 1168.0 1336L938.0 1106Q950.0 1037 950.0 952V0H750.0V1067Q750.0 1212 741.5 1255.5Q733.0 1299 712.5 1317.5Q692.0 1336 668.0 1336L438.0 1106Q450.0 1037 450.0 952V0H50.0V40H100.0Q170.0 40 210.0 95.0Q250.0 150 250.0 200V1067Q250.0 1212 241.5 1255.5Q233.0 1299 212.5 1317.5Q192.0 1336 168.0 1336V1410Q284.0 1392 358.0 1301Q387.0 1264 408.0 1216L602.0 1410H668.0Q784.0 1392 858.0 1301Q887.0 1264 908.0 1216L1102.0 1410H1168.0Q1284.0 1392 1358.0 1301Q1450.0 1187 1450.0 952V775L1726.0 1051Q1824.0 1007 1908.0 915Q2100.0 710 2100.0 410Q2100.0 109 1906.0 -95Q1729.0 -282 1453.0 -298Q1455.0 -337 1459.0 -355Q1467.0 -399 1487.5 -417.5Q1508.0 -436 1532.0 -436V-510Q1416.0 -491 1343.0 -401Q1305.0 -354 1282.0 -286Q1118.0 -247 974.0 -95Q963.0 -83 952.0 -71L977.0 -36Q1088.0 -154 1259.0 -187Z" transform="matrix(0.008916 0 0 -0.008916 241.17 387.88)" fill="#15130f"/><path d="M48.0 -4Q39.0 -4 32.0 0.0Q25.0 4 25.0 10Q25.0 24 50.0 29Q86.0 37 98.0 51.0Q110.0 65 110.0 98V551Q110.0 584 100.0 598.0Q90.0 612 53.0 620Q28.0 625 28.0 640Q28.0 647 34.5 650.5Q41.0 654 51.0 654Q75.0 654 96.0 653.0Q117.0 652 137.0 651.0Q157.0 650 177.0 650Q197.0 650 218.5 651.0Q240.0 652 263.0 653.0Q286.0 654 309.0 654Q331.0 654 331.0 639Q331.0 631 325.0 627.0Q319.0 623 306.0 620Q267.0 610 253.5 595.0Q240.0 580 240.0 550V364Q240.0 357 244.5 354.5Q249.0 352 255.0 352H554.0Q565.0 352 565.0 366V551Q565.0 580 552.0 595.0Q539.0 610 500.0 620Q487.0 623 480.5 627.0Q474.0 631 474.0 639Q474.0 654 496.0 654Q520.0 654 544.0 653.0Q568.0 652 590.5 651.0Q613.0 650 634.0 650Q653.0 650 671.0 651.0Q689.0 652 709.5 653.0Q730.0 654 754.0 654Q763.0 654 770.0 650.5Q777.0 647 777.0 640Q777.0 625 751.0 620Q716.0 612 705.5 597.0Q695.0 582 695.0 551V98Q695.0 65 706.0 51.0Q717.0 37 753.0 29Q778.0 24 778.0 10Q778.0 4 771.0 0.0Q764.0 -4 755.0 -4Q732.0 -4 711.0 -2.5Q690.0 -1 669.5 0.0Q649.0 1 629.0 1Q609.0 1 587.0 0.0Q565.0 -1 542.0 -2.0Q519.0 -3 495.0 -3Q486.0 -3 480.0 0.5Q474.0 4 474.0 11Q474.0 19 480.0 22.5Q486.0 26 498.0 29Q534.0 38 549.5 53.0Q565.0 68 565.0 98V288Q565.0 294 563.5 299.0Q562.0 304 555.0 304H251.0Q240.0 304 240.0 289V102Q240.0 72 257.5 55.0Q275.0 38 311.0 29Q324.0 26 330.0 22.5Q336.0 19 336.0 11Q336.0 4 330.5 0.5Q325.0 -3 314.0 -3Q291.0 -3 267.0 -2.0Q243.0 -1 220.5 0.0Q198.0 1 177.0 1Q156.0 1 135.0 0.0Q114.0 -1 92.0 -2.5Q70.0 -4 48.0 -4ZM853.0 -5Q842.0 -5 835.5 -1.0Q829.0 3 829.0 9Q829.0 22 855.0 28Q891.0 37 906.5 50.5Q922.0 64 922.0 97V550Q922.0 584 908.5 598.0Q895.0 612 858.0 620Q844.0 623 838.0 628.5Q832.0 634 832.0 640Q832.0 647 838.5 650.5Q845.0 654 856.0 654Q885.0 654 911.5 653.0Q938.0 652 963.0 651.0Q988.0 650 1015.0 650Q1061.0 650 1112.5 651.0Q1164.0 652 1205.0 652Q1238.0 653 1259.5 655.0Q1281.0 657 1285.0 657Q1292.0 657 1299.5 654.0Q1307.0 651 1308.0 642Q1312.0 609 1318.0 577.0Q1324.0 545 1324.0 521Q1324.0 512 1319.5 507.5Q1315.0 503 1310.0 503Q1305.0 503 1301.0 506.5Q1297.0 510 1294.0 517Q1286.0 540 1279.0 557.0Q1272.0 574 1263.0 583Q1250.0 597 1233.0 605.0Q1216.0 613 1192.0 613H1099.0Q1081.0 613 1066.0 602.5Q1051.0 592 1051.0 573V377Q1051.0 366 1057.5 360.0Q1064.0 354 1073.0 354H1165.0Q1192.0 354 1203.5 369.0Q1215.0 384 1223.0 410Q1230.0 430 1242.0 430Q1247.0 430 1251.0 424.5Q1255.0 419 1255.0 410Q1254.0 400 1253.0 386.0Q1252.0 372 1251.5 358.0Q1251.0 344 1251.0 333Q1251.0 321 1251.5 306.0Q1252.0 291 1252.5 276.5Q1253.0 262 1254.0 252Q1255.0 241 1252.5 235.0Q1250.0 229 1244.0 229Q1228.0 229 1221.0 257Q1213.0 285 1202.0 299.0Q1191.0 313 1172.0 313H1078.0Q1065.0 313 1058.0 308.0Q1051.0 303 1051.0 289V99Q1051.0 66 1065.0 53.0Q1079.0 40 1108.0 40H1190.0Q1215.0 40 1235.5 45.0Q1256.0 50 1271.0 61Q1288.0 73 1301.5 93.5Q1315.0 114 1328.0 139Q1332.0 147 1336.0 149.5Q1340.0 152 1346.0 152Q1351.0 151 1353.5 146.0Q1356.0 141 1356.0 135Q1356.0 121 1351.0 99.0Q1346.0 77 1338.5 53.5Q1331.0 30 1325.0 10Q1322.0 3 1317.0 -0.5Q1312.0 -4 1305.0 -4Q1281.0 -4 1243.5 -3.5Q1206.0 -3 1162.0 -2.0Q1118.0 -1 1072.0 -0.5Q1026.0 0 984.0 0Q963.0 0 941.5 -1.0Q920.0 -2 898.0 -3.5Q876.0 -5 853.0 -5ZM1399.0 -5Q1387.0 -5 1379.0 -1.5Q1371.0 2 1371.0 10Q1371.0 19 1378.5 24.0Q1386.0 29 1398.0 33Q1427.0 41 1448.5 57.5Q1470.0 74 1483.0 103Q1508.0 162 1531.0 216.5Q1554.0 271 1575.0 325.0Q1596.0 379 1617.5 435.0Q1639.0 491 1661.0 553Q1672.0 584 1676.0 601.0Q1680.0 618 1683.0 626Q1698.0 630 1711.0 634.0Q1724.0 638 1740.0 644Q1754.0 651 1764.0 662.0Q1774.0 673 1779.0 679Q1782.0 681 1785.0 681.5Q1788.0 682 1791.0 677Q1794.0 671 1796.0 665.0Q1798.0 659 1800.0 652Q1822.0 581 1845.5 508.5Q1869.0 436 1892.0 365.5Q1915.0 295 1936.5 230.5Q1958.0 166 1976.0 112Q1985.0 85 1998.5 69.0Q2012.0 53 2028.5 44.5Q2045.0 36 2065.0 31Q2078.0 28 2085.0 23.0Q2092.0 18 2092.0 9Q2092.0 3 2085.5 0.0Q2079.0 -3 2069.0 -3Q2051.0 -3 2023.5 -2.0Q1996.0 -1 1967.0 0.5Q1938.0 2 1915.0 2Q1895.0 2 1870.5 1.0Q1846.0 0 1821.5 -1.0Q1797.0 -2 1780.0 -2Q1770.0 -2 1762.5 1.5Q1755.0 5 1755.0 12Q1755.0 20 1763.0 25.5Q1771.0 31 1782.0 33Q1818.0 39 1834.0 51.5Q1850.0 64 1846.0 88Q1843.0 105 1837.0 128.5Q1831.0 152 1824.5 177.5Q1818.0 203 1811.0 224Q1809.0 232 1805.0 235.5Q1801.0 239 1790.0 239H1610.0Q1603.0 239 1599.0 234.5Q1595.0 230 1593.0 221Q1589.0 208 1583.5 191.5Q1578.0 175 1572.5 157.5Q1567.0 140 1562.5 125.0Q1558.0 110 1556.0 99Q1551.0 72 1565.5 56.5Q1580.0 41 1616.0 32Q1643.0 25 1643.0 11Q1643.0 5 1636.5 1.5Q1630.0 -2 1618.0 -2Q1595.0 -2 1570.0 -0.5Q1545.0 1 1515.0 1Q1485.0 1 1456.5 -2.0Q1428.0 -5 1399.0 -5ZM1637.0 285H1776.0Q1790.0 285 1790.0 291Q1790.0 294 1789.5 296.0Q1789.0 298 1788.0 302L1718.0 533Q1714.0 547 1711.0 547Q1709.0 547 1704.0 534L1620.0 302Q1618.0 297 1618.0 294Q1618.0 289 1623.5 287.0Q1629.0 285 1637.0 285ZM2132.0 -5Q2121.0 -5 2115.0 -0.5Q2109.0 4 2109.0 9Q2109.0 17 2116.0 21.5Q2123.0 26 2130.0 28Q2166.0 37 2183.0 50.5Q2200.0 64 2200.0 95V555Q2200.0 578 2194.5 590.0Q2189.0 602 2175.5 608.5Q2162.0 615 2136.0 620Q2110.0 625 2110.0 641Q2110.0 647 2117.0 650.5Q2124.0 654 2133.0 654Q2158.0 654 2180.5 653.0Q2203.0 652 2224.0 651.0Q2245.0 650 2266.0 650Q2289.0 650 2312.5 651.0Q2336.0 652 2360.5 653.0Q2385.0 654 2408.0 654Q2418.0 654 2424.0 650.5Q2430.0 647 2430.0 640Q2430.0 632 2423.5 627.5Q2417.0 623 2405.0 620Q2366.0 610 2347.5 598.5Q2329.0 587 2329.0 558V101Q2329.0 72 2342.0 58.5Q2355.0 45 2391.0 45H2500.0Q2523.0 45 2542.0 53.0Q2561.0 61 2573.0 73Q2591.0 89 2603.0 107.0Q2615.0 125 2626.0 149Q2633.0 164 2639.0 172.0Q2645.0 180 2651.0 180Q2658.0 180 2661.0 173.5Q2664.0 167 2664.0 160Q2664.0 159 2663.0 154.0Q2662.0 149 2662.0 146Q2654.0 117 2648.5 96.0Q2643.0 75 2639.5 55.5Q2636.0 36 2633.0 13Q2632.0 6 2629.0 0.5Q2626.0 -5 2617.0 -5Q2587.0 -5 2545.0 -4.0Q2503.0 -3 2456.0 -2.5Q2409.0 -2 2361.5 -1.0Q2314.0 0 2272.0 0Q2250.0 0 2221.5 -1.0Q2193.0 -2 2168.0 -3.5Q2143.0 -5 2132.0 -5ZM2880.0 -4Q2870.0 -4 2862.5 -0.5Q2855.0 3 2855.0 9Q2855.0 17 2862.0 22.0Q2869.0 27 2882.0 29Q2920.0 37 2938.0 51.5Q2956.0 66 2956.0 99V504Q2956.0 545 2954.0 566.0Q2952.0 587 2948.5 594.5Q2945.0 602 2938.0 603Q2928.0 607 2913.0 608.0Q2898.0 609 2884.0 609H2853.0Q2824.0 609 2797.0 595.5Q2770.0 582 2755.0 559Q2751.0 553 2742.5 542.0Q2734.0 531 2724.5 522.0Q2715.0 513 2705.0 513Q2698.0 513 2695.5 518.0Q2693.0 523 2693.0 529Q2693.0 541 2699.0 553Q2716.0 587 2724.5 612.5Q2733.0 638 2736.0 673Q2738.0 688 2744.5 692.5Q2751.0 697 2758.0 697Q2764.0 697 2772.5 684.5Q2781.0 672 2788.0 664Q2797.0 655 2820.0 650.5Q2843.0 646 2859.0 646L3228.0 647Q3256.0 647 3275.0 651.5Q3294.0 656 3305.0 661Q3320.0 670 3329.0 679.5Q3338.0 689 3350.0 689Q3355.0 689 3357.5 683.5Q3360.0 678 3360.0 670Q3360.0 665 3359.0 658.5Q3358.0 652 3357.0 647Q3353.0 628 3349.0 613.5Q3345.0 599 3342.5 586.5Q3340.0 574 3340.0 558V541Q3340.0 527 3336.0 517.0Q3332.0 507 3323.0 507Q3315.0 507 3309.5 516.5Q3304.0 526 3298.0 546Q3289.0 578 3268.0 593.5Q3247.0 609 3202.0 609H3134.0Q3115.0 609 3104.5 602.0Q3094.0 595 3089.5 571.5Q3085.0 548 3085.0 499V100Q3085.0 68 3103.0 53.5Q3121.0 39 3160.0 29Q3172.0 26 3179.0 22.0Q3186.0 18 3186.0 10Q3186.0 3 3179.5 0.0Q3173.0 -3 3163.0 -3Q3139.0 -3 3115.0 -2.0Q3091.0 -1 3067.5 0.0Q3044.0 1 3022.0 1Q3000.0 1 2976.5 0.0Q2953.0 -1 2928.5 -2.5Q2904.0 -4 2880.0 -4ZM3406.0 -4Q3397.0 -4 3390.0 0.0Q3383.0 4 3383.0 10Q3383.0 24 3408.0 29Q3444.0 37 3456.0 51.0Q3468.0 65 3468.0 98V551Q3468.0 584 3458.0 598.0Q3448.0 612 3411.0 620Q3386.0 625 3386.0 640Q3386.0 647 3392.5 650.5Q3399.0 654 3409.0 654Q3433.0 654 3454.0 653.0Q3475.0 652 3495.0 651.0Q3515.0 650 3535.0 650Q3555.0 650 3576.5 651.0Q3598.0 652 3621.0 653.0Q3644.0 654 3667.0 654Q3689.0 654 3689.0 639Q3689.0 631 3683.0 627.0Q3677.0 623 3664.0 620Q3625.0 610 3611.5 595.0Q3598.0 580 3598.0 550V364Q3598.0 357 3602.5 354.5Q3607.0 352 3613.0 352H3912.0Q3923.0 352 3923.0 366V551Q3923.0 580 3910.0 595.0Q3897.0 610 3858.0 620Q3845.0 623 3838.5 627.0Q3832.0 631 3832.0 639Q3832.0 654 3854.0 654Q3878.0 654 3902.0 653.0Q3926.0 652 3948.5 651.0Q3971.0 650 3992.0 650Q4011.0 650 4029.0 651.0Q4047.0 652 4067.5 653.0Q4088.0 654 4112.0 654Q4121.0 654 4128.0 650.5Q4135.0 647 4135.0 640Q4135.0 625 4109.0 620Q4074.0 612 4063.5 597.0Q4053.0 582 4053.0 551V98Q4053.0 65 4064.0 51.0Q4075.0 37 4111.0 29Q4136.0 24 4136.0 10Q4136.0 4 4129.0 0.0Q4122.0 -4 4113.0 -4Q4090.0 -4 4069.0 -2.5Q4048.0 -1 4027.5 0.0Q4007.0 1 3987.0 1Q3967.0 1 3945.0 0.0Q3923.0 -1 3900.0 -2.0Q3877.0 -3 3853.0 -3Q3844.0 -3 3838.0 0.5Q3832.0 4 3832.0 11Q3832.0 19 3838.0 22.5Q3844.0 26 3856.0 29Q3892.0 38 3907.5 53.0Q3923.0 68 3923.0 98V288Q3923.0 294 3921.5 299.0Q3920.0 304 3913.0 304H3609.0Q3598.0 304 3598.0 289V102Q3598.0 72 3615.5 55.0Q3633.0 38 3669.0 29Q3682.0 26 3688.0 22.5Q3694.0 19 3694.0 11Q3694.0 4 3688.5 0.5Q3683.0 -3 3672.0 -3Q3649.0 -3 3625.0 -2.0Q3601.0 -1 3578.5 0.0Q3556.0 1 3535.0 1Q3514.0 1 3493.0 0.0Q3472.0 -1 3450.0 -2.5Q3428.0 -4 3406.0 -4Z" transform="matrix(0.022120 0 0 -0.022120 103.98 391.52)" fill="#15130f"/></svg>