<svg xmlns="http://www.w3.org/2000/svg" viewBox="0 0 300 446"><rect width="300" height="446" fill="#f4ecd8"/><rect x="20.0" y="25.5" width="260" height="395" rx="20.3" fill="#f4ecd8" stroke="#15130f" stroke-width="1.5"/><rect x="36.9" y="42.4" width="226.2" height="354.7" fill="none" stroke="#15130f" stroke-width="0.7"/><path d="M36.9,370.6 H263.1 V397.1 H36.9 Z" fill="#e7bfd0"/><g fill="none" stroke="#15130f" stroke-width="0.8"><line x1="36.9" y1="370.6" x2="263.1" y2="370.6"/><line x1="61.6" y1="370.6" x2="61.6" y2="397.1"/><line x1="238.4" y1="370.6" x2="238.4" y2="397.1"/></g><rect x="141.4" y="34.4" width="17.2" height="19.0" fill="#e7bfd0" stroke="#15130f" stroke-width="0.8"/><path d="M649.0 1092V235L647.0 193L657.0 137Q686.0 59 825.0 52Q867.0 50 867.0 28Q867.0 -7 780.0 -7Q761.0 -7 652.0 2Q595.0 7 494.0 7Q394.0 7 322.0 -2Q293.0 -5 280.0 -5Q255.0 -5 255.0 20Q255.0 41 281.0 45Q384.0 61 415.0 92.0Q446.0 123 446.0 210L445.0 248V1010Q445.0 1115 363.0 1115Q331.0 1115 306.0 1104L281.0 1093Q270.0 1089 261.0 1089Q235.0 1089 235.0 1113Q235.0 1137 260.0 1150.0Q285.0 1163 362.0 1180Q506.0 1211 567.0 1267L614.0 1310Q625.0 1320 641.0 1320Q661.0 1320 661.0 1282Q661.0 1271 659.0 1243L651.0 1153Q649.0 1126 649.0 1092Z" transform="matrix(0.006858 0 0 -0.006858 146.22 49.18)" fill="#15130f"/><path d="M250.0 950Q250.0 859 278.0 774.5Q306.0 690 358.5 645.0Q411.0 600 467.0 600Q524.0 600 576.5 645.0Q629.0 690 657.0 774.5Q685.0 859 685.0 950Q685.0 1051 657.0 1135.5Q629.0 1220 576.5 1265.0Q524.0 1310 467.0 1310Q411.0 1310 358.5 1265.0Q306.0 1220 278.0 1135.5Q250.0 1051 250.0 950ZM368.0 513Q312.0 527 259.0 558Q158.0 616 104.0 724.5Q50.0 833 50.0 950Q50.0 1077 104.0 1185.5Q158.0 1294 258.5 1352.0Q359.0 1410 467.0 1410Q576.0 1410 676.5 1352.0Q777.0 1294 831.0 1185.5Q885.0 1077 885.0 950Q885.0 833 831.0 724.5Q777.0 616 677.0 558Q623.0 527 568.0 513V350H785.0V250H568.0V170Q568.0 120 593.0 80.0Q618.0 40 688.0 40H738.0V0H198.0V40H248.0Q318.0 40 343.0 80.0Q368.0 120 368.0 170V250H150.0V350H368.0Z" transform="matrix(0.009268 0 0 -0.009268 44.92 390.40)" fill="#15130f"/><path d="M917.0 -500Q917.0 362 797.0 836.0Q677.0 1310 467.0 1310Q411.0 1310 358.5 1265.0Q306.0 1220 278.0 1135.5Q250.0 1051 250.0 960Q250.0 869 278.0 784.5Q306.0 700 358.5 655.0Q411.0 610 467.0 610Q524.0 610 577.0 655Q605.0 680 641.0 680Q670.0 680 703.0 663Q734.0 647 734.0 628Q734.0 601 677.0 568Q576.0 510 467.0 510Q359.0 510 258.5 568.0Q158.0 626 104.0 734.5Q50.0 843 50.0 960Q50.0 1077 104.0 1185.5Q158.0 1294 258.5 1352.0Q359.0 1410 467.0 1410Q760.0 1410 939.0 959Q983.0 845 1017.0 696Q1051.0 845 1096.0 959Q1274.0 1410 1567.0 1410Q1675.0 1410 1775.5 1352.0Q1876.0 1294 1930.0 1185.5Q1984.0 1077 1984.0 960Q1984.0 843 1930.0 734.5Q1876.0 626 1775.5 568.0Q1675.0 510 1567.0 510Q1458.0 510 1357.0 568Q1300.0 601 1300.0 628Q1300.0 647 1331.0 663Q1364.0 680 1393.0 680Q1429.0 680 1457.0 655Q1510.0 610 1567.0 610Q1623.0 610 1675.5 655.0Q1728.0 700 1756.0 784.5Q1784.0 869 1784.0 960Q1784.0 1051 1756.0 1135.5Q1728.0 1220 1675.5 1265.0Q1623.0 1310 1567.0 1310Q1357.0 1310 1237.0 836.0Q1117.0 362 1117.0 -500Z" transform="matrix(0.009268 0 0 -0.009268 241.32 388.08)" fill="#15130f"/><path d="M46.0 -5Q35.0 -5 29.0 -0.5Q23.0 4 23.0 9Q23.0 17 30.0 21.5Q37.0 26 44.0 28Q80.0 37 97.0 50.5Q114.0 64 114.0 95V555Q114.0 578 108.5 590.0Q103.0 602 89.5 608.5Q76.0 615 50.0 620Q24.0 625 24.0 641Q24.0 647 31.0 650.5Q38.0 654 47.0 654Q72.0 654 94.5 653.0Q117.0 652 138.0 651.0Q159.0 650 180.0 650Q203.0 650 226.5 651.0Q250.0 652 274.5 653.0Q299.0 654 322.0 654Q332.0 654 338.0 650.5Q344.0 647 344.0 640Q344.0 632 337.5 627.5Q331.0 623 319.0 620Q280.0 610 261.5 598.5Q243.0 587 243.0 558V101Q243.0 72 256.0 58.5Q269.0 45 305.0 45H414.0Q437.0 45 456.0 53.0Q475.0 61 487.0 73Q505.0 89 517.0 107.0Q529.0 125 540.0 149Q547.0 164 553.0 172.0Q559.0 180 565.0 180Q572.0 180 575.0 173.5Q578.0 167 578.0 160Q578.0 159 577.0 154.0Q576.0 149 576.0 146Q568.0 117 562.5 96.0Q557.0 75 553.5 55.5Q550.0 36 547.0 13Q546.0 6 543.0 0.5Q540.0 -5 531.0 -5Q501.0 -5 459.0 -4.0Q417.0 -3 370.0 -2.5Q323.0 -2 275.5 -1.0Q228.0 0 186.0 0Q164.0 0 135.5 -1.0Q107.0 -2 82.0 -3.5Q57.0 -5 46.0 -5ZM958.0 -14Q865.0 -14 803.0 19.0Q741.0 52 710.0 111.0Q679.0 170 679.0 249V541Q679.0 571 665.5 592.0Q652.0 613 630.0 619Q600.0 627 600.0 641Q600.0 647 608.0 650.5Q616.0 654 628.0 654Q656.0 654 686.5 652.0Q717.0 650 746.0 650Q772.0 650 805.5 651.5Q839.0 653 863.0 653Q875.0 653 882.5 650.0Q890.0 647 890.0 640Q890.0 630 877.5 625.5Q865.0 621 848.0 614Q834.0 608 821.5 589.5Q809.0 571 809.0 539V270Q809.0 198 833.0 151.5Q857.0 105 897.0 83.0Q937.0 61 987.0 61Q1082.0 61 1128.0 121.0Q1174.0 181 1174.0 293Q1174.0 318 1174.0 352.0Q1174.0 386 1173.5 422.5Q1173.0 459 1172.0 492Q1172.0 531 1166.5 555.5Q1161.0 580 1151.0 594.5Q1141.0 609 1123.0 617Q1113.0 621 1099.5 626.0Q1086.0 631 1086.0 639Q1086.0 647 1094.0 650.0Q1102.0 653 1115.0 653Q1147.0 653 1164.5 652.0Q1182.0 651 1205.0 651Q1222.0 651 1235.5 651.5Q1249.0 652 1262.0 653.0Q1275.0 654 1292.0 654Q1304.0 654 1311.0 651.5Q1318.0 649 1318.0 641Q1318.0 627 1289.0 620Q1258.0 612 1246.0 591.0Q1234.0 570 1232.0 536Q1228.0 457 1226.5 391.0Q1225.0 325 1224.0 258Q1223.0 178 1187.5 116.5Q1152.0 55 1092.0 20.5Q1032.0 -14 958.0 -14ZM1541.0 -15Q1498.0 -15 1459.5 -4.0Q1421.0 7 1389.0 29Q1383.0 34 1378.0 39.5Q1373.0 45 1370.0 52Q1362.0 77 1359.0 113.5Q1356.0 150 1357.0 184Q1357.0 191 1362.5 194.0Q1368.0 197 1376.0 197Q1384.0 197 1388.5 194.5Q1393.0 192 1395.0 185Q1417.0 110 1459.0 68.0Q1501.0 26 1554.0 26Q1587.0 26 1610.0 41.0Q1633.0 56 1645.0 80.0Q1657.0 104 1657.0 132Q1657.0 167 1644.5 190.0Q1632.0 213 1607.0 231.5Q1582.0 250 1544.0 271Q1503.0 295 1464.0 321.5Q1425.0 348 1400.0 384.5Q1375.0 421 1375.0 475Q1375.0 531 1403.5 573.5Q1432.0 616 1483.0 640.0Q1534.0 664 1601.0 664Q1638.0 664 1670.0 656.0Q1702.0 648 1721.0 640Q1732.0 636 1737.5 630.0Q1743.0 624 1746.0 611Q1752.0 590 1756.5 561.0Q1761.0 532 1761.0 500Q1761.0 488 1743.0 488Q1735.0 488 1727.0 492.0Q1719.0 496 1717.0 503Q1699.0 561 1667.5 591.0Q1636.0 621 1590.0 621Q1559.0 621 1537.0 610.5Q1515.0 600 1502.0 578.5Q1489.0 557 1489.0 523Q1489.0 497 1506.5 475.0Q1524.0 453 1555.5 432.0Q1587.0 411 1626.0 386Q1674.0 358 1706.5 329.5Q1739.0 301 1756.0 266.5Q1773.0 232 1773.0 185Q1773.0 119 1744.0 74.5Q1715.0 30 1663.0 7.5Q1611.0 -15 1541.0 -15ZM2020.0 -4Q2010.0 -4 2002.5 -0.5Q1995.0 3 1995.0 9Q1995.0 17 2002.0 22.0Q2009.0 27 2022.0 29Q2060.0 37 2078.0 51.5Q2096.0 66 2096.0 99V504Q2096.0 545 2094.0 566.0Q2092.0 587 2088.5 594.5Q2085.0 602 2078.0 603Q2068.0 607 2053.0 608.0Q2038.0 609 2024.0 609H1993.0Q1964.0 609 1937.0 595.5Q1910.0 582 1895.0 559Q1891.0 553 1882.5 542.0Q1874.0 531 1864.5 522.0Q1855.0 513 1845.0 513Q1838.0 513 1835.5 518.0Q1833.0 523 1833.0 529Q1833.0 541 1839.0 553Q1856.0 587 1864.5 612.5Q1873.0 638 1876.0 673Q1878.0 688 1884.5 692.5Q1891.0 697 1898.0 697Q1904.0 697 1912.5 684.5Q1921.0 672 1928.0 664Q1937.0 655 1960.0 650.5Q1983.0 646 1999.0 646L2368.0 647Q2396.0 647 2415.0 651.5Q2434.0 656 2445.0 661Q2460.0 670 2469.0 679.5Q2478.0 689 2490.0 689Q2495.0 689 2497.5 683.5Q2500.0 678 2500.0 670Q2500.0 665 2499.0 658.5Q2498.0 652 2497.0 647Q2493.0 628 2489.0 613.5Q2485.0 599 2482.5 586.5Q2480.0 574 2480.0 558V541Q2480.0 527 2476.0 517.0Q2472.0 507 2463.0 507Q2455.0 507 2449.5 516.5Q2444.0 526 2438.0 546Q2429.0 578 2408.0 593.5Q2387.0 609 2342.0 609H2274.0Q2255.0 609 2244.5 602.0Q2234.0 595 2229.5 571.5Q2225.0 548 2225.0 499V100Q2225.0 68 2243.0 53.5Q2261.0 39 2300.0 29Q2312.0 26 2319.0 22.0Q2326.0 18 2326.0 10Q2326.0 3 2319.5 0.0Q2313.0 -3 2303.0 -3Q2279.0 -3 2255.0 -2.0Q2231.0 -1 2207.5 0.0Q2184.0 1 2162.0 1Q2140.0 1 2116.5 0.0Q2093.0 -1 2068.5 -2.5Q2044.0 -4 2020.0 -4Z" transform="matrix(0.022120 0 0 -0.022120 122.10 391.41)" fill="#15130f"/></svg>