<svg xmlns="http://www.w3.org/2000/svg" viewBox="0 0 300 446"><rect width="300" height="446" fill="#f4ecd8"/><rect x="20.0" y="25.5" width="260" height="395" rx="20.3" fill="#f4ecd8" stroke="#15130f" stroke-width="1.5"/><rect x="36.9" y="42.4" width="226.2" height="354.7" fill="none" stroke="#15130f" stroke-width="0.7"/><path d="M36.9,370.6 H263.1 V397.1 H36.9 Z" fill="#e7bfd0"/><g fill="none" stroke="#15130f" stroke-width="0.8"><line x1="36.9" y1="370.6" x2="263.1" y2="370.6"/><line x1="61.6" y1="370.6" x2="61.6" y2="397.1"/><line x1="238.4" y1="370.6" x2="238.4" y2="397.1"/></g><rect x="141.4" y="34.4" width="17.2" height="19.0" fill="#e7bfd0" stroke="#15130f" stroke-width="0.8"/><path d="M731.0 1093H467.0L377.0 1095L276.0 1077Q209.0 1046 197.0 961Q190.0 917 170.0 915Q139.0 913 139.0 965Q139.0 1051 170.0 1146L196.0 1225L203.0 1262Q208.0 1287 239.0 1287Q249.0 1287 279.0 1285Q310.0 1282 401.0 1282H808.0Q871.0 1282 886.5 1270.5Q902.0 1259 902.0 1214Q902.0 1092 809.0 873L717.0 658Q578.0 330 578.0 161Q578.0 67 592.0 11L604.0 -35Q606.0 -41 606.0 -47Q606.0 -64 575.0 -70Q570.0 -71 557.0 -75Q476.0 -101 435.0 -101Q377.0 -101 357.5 -74.5Q338.0 -48 338.0 28Q338.0 262 500.0 501L605.0 657Q677.0 762 737.5 889.5Q798.0 1017 798.0 1061Q798.0 1093 731.0 1093Z" transform="matrix(0.006858 0 0 -0.006858 146.43 48.74)" fill="#15130f"/><path d="M250.0 950Q250.0 859 278.0 774.5Q306.0 690 358.5 645.0Q411.0 600 467.0 600Q524.0 600 576.5 645.0Q629.0 690 657.0 774.5Q685.0 859 685.0 950Q685.0 1051 657.0 1135.5Q629.0 1220 576.5 1265.0Q524.0 1310 467.0 1310Q411.0 1310 358.5 1265.0Q306.0 1220 278.0 1135.5Q250.0 1051 250.0 950ZM368.0 513Q312.0 527 259.0 558Q158.0 616 104.0 724.5Q50.0 833 50.0 950Q50.0 1077 104.0 1185.5Q158.0 1294 258.5 1352.0Q359.0 1410 467.0 1410Q576.0 1410 676.5 1352.0Q777.0 1294 831.0 1185.5Q885.0 1077 885.0 950Q885.0 833 831.0 724.5Q777.0 616 677.0 558Q623.0 527 568.0 513V350H785.0V250H568.0V170Q568.0 120 593.0 80.0Q618.0 40 688.0 40H738.0V0H198.0V40H248.0Q318.0 40 343.0 80.0Q368.0 120 368.0 170V250H150.0V350H368.0Z" transform="matrix(0.009268 0 0 -0.009268 44.92 390.40)" fill="#15130f"/><path d="M50.0 100H1650.0V0H50.0ZM50.0 300V400H339.0Q300.0 491 300.0 600Q300.0 815 451.0 962.5Q602.0 1110 850.0 1110Q1098.0 1110 1249.0 962.5Q1400.0 815 1400.0 600Q1400.0 491 1361.0 400H1650.0V300H1090.0Q1099.0 310 1149.5 403.0Q1200.0 496 1200.0 600Q1200.0 750 1106.5 880.0Q1013.0 1010 850.0 1010Q684.0 1010 592.0 880.0Q500.0 750 500.0 600Q500.0 496 550.0 403.0Q600.0 310 608.0 300Z" transform="matrix(0.009268 0 0 -0.009268 242.87 389.01)" fill="#15130f"/><path d="M40.0 -4Q31.0 -4 24.0 -0.5Q17.0 3 17.0 9Q17.0 24 42.0 29Q80.0 37 97.0 51.0Q114.0 65 114.0 97V551Q114.0 584 100.0 598.0Q86.0 612 47.0 620Q22.0 625 22.0 641Q22.0 647 29.0 650.5Q36.0 654 45.0 654Q69.0 654 92.0 653.0Q115.0 652 136.5 651.0Q158.0 650 180.0 650Q201.0 650 222.5 651.0Q244.0 652 267.0 653.0Q290.0 654 314.0 654Q324.0 654 330.0 650.5Q336.0 647 336.0 640Q336.0 632 329.5 627.5Q323.0 623 311.0 620Q271.0 610 257.0 596.0Q243.0 582 243.0 550V98Q243.0 67 259.5 53.0Q276.0 39 314.0 29Q327.0 26 333.5 22.0Q340.0 18 340.0 10Q340.0 3 334.0 0.0Q328.0 -3 318.0 -3Q294.0 -3 270.0 -2.0Q246.0 -1 223.5 0.0Q201.0 1 180.0 1Q158.0 1 135.0 0.0Q112.0 -1 88.0 -2.5Q64.0 -4 40.0 -4ZM1032.0 -18Q1020.0 -18 992.0 -3.0Q964.0 12 935.0 49Q918.0 68 893.5 95.5Q869.0 123 839.5 156.0Q810.0 189 778.0 225.0Q746.0 261 714.5 297.0Q683.0 333 653.0 366.0Q623.0 399 598.0 426.5Q573.0 454 556.0 474Q552.0 479 547.5 482.5Q543.0 486 540.0 486Q536.0 486 534.0 479.0Q532.0 472 532.0 466Q532.0 420 532.5 357.0Q533.0 294 533.0 229.0Q533.0 164 533.0 109Q533.0 78 551.0 58.0Q569.0 38 608.0 29Q620.0 27 628.5 22.5Q637.0 18 637.0 10Q637.0 3 629.0 0.0Q621.0 -3 611.0 -3Q584.0 -3 568.0 -2.0Q552.0 -1 539.0 0.0Q526.0 1 506.0 1Q485.0 1 468.5 0.0Q452.0 -1 439.0 -2.5Q426.0 -4 414.0 -4Q404.0 -4 396.0 -0.5Q388.0 3 388.0 9Q388.0 17 395.5 21.5Q403.0 26 416.0 30Q442.0 38 454.5 59.5Q467.0 81 470.0 111Q474.0 149 478.0 210.5Q482.0 272 485.5 349.0Q489.0 426 489.0 508Q489.0 560 462.5 583.0Q436.0 606 396.0 620Q389.0 622 378.0 628.0Q367.0 634 367.0 643Q367.0 652 375.0 655.0Q383.0 658 392.0 658Q413.0 658 434.0 657.0Q455.0 656 476.5 655.5Q498.0 655 521.5 654.0Q545.0 653 572.0 653Q581.0 653 585.5 649.5Q590.0 646 594.0 640Q610.0 621 635.0 592.5Q660.0 564 689.5 529.5Q719.0 495 751.5 457.0Q784.0 419 816.5 381.0Q849.0 343 879.0 308.5Q909.0 274 933.5 245.5Q958.0 217 974.0 199Q978.0 195 983.5 189.0Q989.0 183 993.0 183Q1001.0 183 1002.0 200Q1002.0 226 1002.0 266.5Q1002.0 307 1002.5 356.5Q1003.0 406 1002.5 458.0Q1002.0 510 1001.0 558Q1000.0 583 980.5 597.5Q961.0 612 932.0 618Q920.0 621 909.5 625.5Q899.0 630 899.0 639Q899.0 646 909.5 649.0Q920.0 652 929.0 652Q949.0 652 962.5 652.0Q976.0 652 988.0 651.5Q1000.0 651 1013.0 651Q1035.0 651 1049.0 651.5Q1063.0 652 1079.5 653.0Q1096.0 654 1123.0 654Q1135.0 654 1142.5 650.5Q1150.0 647 1150.0 641Q1150.0 626 1121.0 620Q1086.0 613 1071.5 601.0Q1057.0 589 1056.0 561Q1056.0 536 1055.5 497.0Q1055.0 458 1054.0 412.0Q1053.0 366 1051.5 318.0Q1050.0 270 1049.5 224.0Q1049.0 178 1049.0 141Q1049.0 117 1051.0 92.0Q1053.0 67 1055.5 47.5Q1058.0 28 1058.0 20Q1058.0 -2 1051.0 -10.0Q1044.0 -18 1032.0 -18ZM1539.0 -7Q1512.0 -7 1474.0 -5.0Q1436.0 -3 1397.5 -1.5Q1359.0 0 1334.0 0Q1314.0 0 1293.5 -0.5Q1273.0 -1 1251.0 -2.5Q1229.0 -4 1204.0 -4Q1195.0 -4 1188.0 -0.5Q1181.0 3 1181.0 10Q1181.0 19 1187.5 23.0Q1194.0 27 1207.0 29Q1245.0 37 1259.0 51.0Q1273.0 65 1273.0 98V550Q1273.0 584 1259.5 598.0Q1246.0 612 1207.0 620Q1194.0 622 1187.5 626.5Q1181.0 631 1181.0 640Q1181.0 647 1188.0 650.5Q1195.0 654 1204.0 654Q1228.0 654 1250.0 653.5Q1272.0 653 1293.5 651.5Q1315.0 650 1337.0 650Q1352.0 650 1377.5 651.5Q1403.0 653 1432.5 654.5Q1462.0 656 1488.0 657.5Q1514.0 659 1530.0 659Q1614.0 659 1681.0 635.0Q1748.0 611 1795.5 568.0Q1843.0 525 1868.0 466.0Q1893.0 407 1893.0 338Q1893.0 269 1868.0 207.0Q1843.0 145 1796.5 97.0Q1750.0 49 1684.5 21.0Q1619.0 -7 1539.0 -7ZM1524.0 39Q1596.0 39 1646.5 73.5Q1697.0 108 1723.0 170.5Q1749.0 233 1749.0 315Q1749.0 383 1731.5 438.5Q1714.0 494 1682.5 532.5Q1651.0 571 1607.5 592.0Q1564.0 613 1513.0 613Q1477.0 613 1452.5 611.0Q1428.0 609 1415.5 599.5Q1403.0 590 1403.0 568V128Q1403.0 93 1418.5 73.5Q1434.0 54 1461.5 46.5Q1489.0 39 1524.0 39ZM1971.0 -5Q1960.0 -5 1953.5 -1.0Q1947.0 3 1947.0 9Q1947.0 22 1973.0 28Q2009.0 37 2024.5 50.5Q2040.0 64 2040.0 97V550Q2040.0 584 2026.5 598.0Q2013.0 612 1976.0 620Q1962.0 623 1956.0 628.5Q1950.0 634 1950.0 640Q1950.0 647 1956.5 650.5Q1963.0 654 1974.0 654Q2003.0 654 2029.5 653.0Q2056.0 652 2081.0 651.0Q2106.0 650 2133.0 650Q2179.0 650 2230.5 651.0Q2282.0 652 2323.0 652Q2356.0 653 2377.5 655.0Q2399.0 657 2403.0 657Q2410.0 657 2417.5 654.0Q2425.0 651 2426.0 642Q2430.0 609 2436.0 577.0Q2442.0 545 2442.0 521Q2442.0 512 2437.5 507.5Q2433.0 503 2428.0 503Q2423.0 503 2419.0 506.5Q2415.0 510 2412.0 517Q2404.0 540 2397.0 557.0Q2390.0 574 2381.0 583Q2368.0 597 2351.0 605.0Q2334.0 613 2310.0 613H2217.0Q2199.0 613 2184.0 602.5Q2169.0 592 2169.0 573V377Q2169.0 366 2175.5 360.0Q2182.0 354 2191.0 354H2283.0Q2310.0 354 2321.5 369.0Q2333.0 384 2341.0 410Q2348.0 430 2360.0 430Q2365.0 430 2369.0 424.5Q2373.0 419 2373.0 410Q2372.0 400 2371.0 386.0Q2370.0 372 2369.5 358.0Q2369.0 344 2369.0 333Q2369.0 321 2369.5 306.0Q2370.0 291 2370.5 276.5Q2371.0 262 2372.0 252Q2373.0 241 2370.5 235.0Q2368.0 229 2362.0 229Q2346.0 229 2339.0 257Q2331.0 285 2320.0 299.0Q2309.0 313 2290.0 313H2196.0Q2183.0 313 2176.0 308.0Q2169.0 303 2169.0 289V99Q2169.0 66 2183.0 53.0Q2197.0 40 2226.0 40H2308.0Q2333.0 40 2353.5 45.0Q2374.0 50 2389.0 61Q2406.0 73 2419.5 93.5Q2433.0 114 2446.0 139Q2450.0 147 2454.0 149.5Q2458.0 152 2464.0 152Q2469.0 151 2471.5 146.0Q2474.0 141 2474.0 135Q2474.0 121 2469.0 99.0Q2464.0 77 2456.5 53.5Q2449.0 30 2443.0 10Q2440.0 3 2435.0 -0.5Q2430.0 -4 2423.0 -4Q2399.0 -4 2361.5 -3.5Q2324.0 -3 2280.0 -2.0Q2236.0 -1 2190.0 -0.5Q2144.0 0 2102.0 0Q2081.0 0 2059.5 -1.0Q2038.0 -2 2016.0 -3.5Q1994.0 -5 1971.0 -5ZM2898.0 -14Q2823.0 -14 2756.0 9.5Q2689.0 33 2637.5 77.0Q2586.0 121 2556.5 182.5Q2527.0 244 2527.0 319Q2527.0 389 2556.0 451.0Q2585.0 513 2638.0 561.0Q2691.0 609 2764.5 636.5Q2838.0 664 2926.0 664Q2960.0 664 2990.5 659.5Q3021.0 655 3050.0 648.5Q3079.0 642 3107.0 632Q3118.0 628 3124.5 621.0Q3131.0 614 3132.0 602Q3136.0 572 3138.0 542.5Q3140.0 513 3140.0 484Q3141.0 474 3133.0 469.5Q3125.0 465 3116.0 468.5Q3107.0 472 3103.0 483Q3095.0 511 3084.5 535.5Q3074.0 560 3053.0 577Q3030.0 596 2995.0 607.5Q2960.0 619 2913.0 619Q2859.0 619 2815.0 597.0Q2771.0 575 2739.5 536.0Q2708.0 497 2691.0 448.0Q2674.0 399 2674.0 345Q2674.0 281 2689.5 224.0Q2705.0 167 2736.5 123.5Q2768.0 80 2813.0 55.5Q2858.0 31 2916.0 31Q2990.0 31 3036.0 63.0Q3082.0 95 3114.0 158Q3122.0 174 3136.0 173.5Q3150.0 173 3150.0 157Q3150.0 145 3147.0 127.0Q3144.0 109 3138.5 88.5Q3133.0 68 3126.0 48Q3122.0 36 3116.0 30.0Q3110.0 24 3098.0 19Q3060.0 3 3008.5 -5.5Q2957.0 -14 2898.0 -14ZM3242.0 -4Q3233.0 -4 3226.0 -0.5Q3219.0 3 3219.0 9Q3219.0 24 3244.0 29Q3282.0 37 3299.0 51.0Q3316.0 65 3316.0 97V551Q3316.0 584 3302.0 598.0Q3288.0 612 3249.0 620Q3224.0 625 3224.0 641Q3224.0 647 3231.0 650.5Q3238.0 654 3247.0 654Q3271.0 654 3294.0 653.0Q3317.0 652 3338.5 651.0Q3360.0 650 3382.0 650Q3403.0 650 3424.5 651.0Q3446.0 652 3469.0 653.0Q3492.0 654 3516.0 654Q3526.0 654 3532.0 650.5Q3538.0 647 3538.0 640Q3538.0 632 3531.5 627.5Q3525.0 623 3513.0 620Q3473.0 610 3459.0 596.0Q3445.0 582 3445.0 550V98Q3445.0 67 3461.5 53.0Q3478.0 39 3516.0 29Q3529.0 26 3535.5 22.0Q3542.0 18 3542.0 10Q3542.0 3 3536.0 0.0Q3530.0 -3 3520.0 -3Q3496.0 -3 3472.0 -2.0Q3448.0 -1 3425.5 0.0Q3403.0 1 3382.0 1Q3360.0 1 3337.0 0.0Q3314.0 -1 3290.0 -2.5Q3266.0 -4 3242.0 -4ZM3772.0 -15Q3729.0 -15 3690.5 -4.0Q3652.0 7 3620.0 29Q3614.0 34 3609.0 39.5Q3604.0 45 3601.0 52Q3593.0 77 3590.0 113.5Q3587.0 150 3588.0 184Q3588.0 191 3593.5 194.0Q3599.0 197 3607.0 197Q3615.0 197 3619.5 194.5Q3624.0 192 3626.0 185Q3648.0 110 3690.0 68.0Q3732.0 26 3785.0 26Q3818.0 26 3841.0 41.0Q3864.0 56 3876.0 80.0Q3888.0 104 3888.0 132Q3888.0 167 3875.5 190.0Q3863.0 213 3838.0 231.5Q3813.0 250 3775.0 271Q3734.0 295 3695.0 321.5Q3656.0 348 3631.0 384.5Q3606.0 421 3606.0 475Q3606.0 531 3634.5 573.5Q3663.0 616 3714.0 640.0Q3765.0 664 3832.0 664Q3869.0 664 3901.0 656.0Q3933.0 648 3952.0 640Q3963.0 636 3968.5 630.0Q3974.0 624 3977.0 611Q3983.0 590 3987.5 561.0Q3992.0 532 3992.0 500Q3992.0 488 3974.0 488Q3966.0 488 3958.0 492.0Q3950.0 496 3948.0 503Q3930.0 561 3898.5 591.0Q3867.0 621 3821.0 621Q3790.0 621 3768.0 610.5Q3746.0 600 3733.0 578.5Q3720.0 557 3720.0 523Q3720.0 497 3737.5 475.0Q3755.0 453 3786.5 432.0Q3818.0 411 3857.0 386Q3905.0 358 3937.5 329.5Q3970.0 301 3987.0 266.5Q4004.0 232 4004.0 185Q4004.0 119 3975.0 74.5Q3946.0 30 3894.0 7.5Q3842.0 -15 3772.0 -15ZM4082.0 -4Q4073.0 -4 4066.0 -0.5Q4059.0 3 4059.0 9Q4059.0 24 4084.0 29Q4122.0 37 4139.0 51.0Q4156.0 65 4156.0 97V551Q4156.0 584 4142.0 598.0Q4128.0 612 4089.0 620Q4064.0 625 4064.0 641Q4064.0 647 4071.0 650.5Q4078.0 654 4087.0 654Q4111.0 654 4134.0 653.0Q4157.0 652 4178.5 651.0Q4200.0 650 4222.0 650Q4243.0 650 4264.5 651.0Q4286.0 652 4309.0 653.0Q4332.0 654 4356.0 654Q4366.0 654 4372.0 650.5Q4378.0 647 4378.0 640Q4378.0 632 4371.5 627.5Q4365.0 623 4353.0 620Q4313.0 610 4299.0 596.0Q4285.0 582 4285.0 550V98Q4285.0 67 4301.5 53.0Q4318.0 39 4356.0 29Q4369.0 26 4375.5 22.0Q4382.0 18 4382.0 10Q4382.0 3 4376.0 0.0Q4370.0 -3 4360.0 -3Q4336.0 -3 4312.0 -2.0Q4288.0 -1 4265.5 0.0Q4243.0 1 4222.0 1Q4200.0 1 4177.0 0.0Q4154.0 -1 4130.0 -2.5Q4106.0 -4 4082.0 -4ZM4774.0 -14Q4706.0 -14 4644.0 9.5Q4582.0 33 4534.5 76.5Q4487.0 120 4459.5 180.5Q4432.0 241 4432.0 315Q4432.0 383 4454.5 445.5Q4477.0 508 4521.5 557.0Q4566.0 606 4631.5 635.0Q4697.0 664 4783.0 664Q4851.0 664 4912.5 640.5Q4974.0 617 5022.0 573.5Q5070.0 530 5097.5 469.5Q5125.0 409 5125.0 335Q5125.0 268 5102.5 205.0Q5080.0 142 5035.5 93.0Q4991.0 44 4925.5 15.0Q4860.0 -14 4774.0 -14ZM4791.0 30Q4854.0 30 4896.5 62.0Q4939.0 94 4960.5 151.5Q4982.0 209 4982.0 284Q4982.0 348 4969.0 408.0Q4956.0 468 4929.0 515.5Q4902.0 563 4861.5 591.0Q4821.0 619 4765.0 619Q4702.0 619 4659.5 587.0Q4617.0 555 4596.0 498.0Q4575.0 441 4575.0 366Q4575.0 302 4588.0 242.0Q4601.0 182 4627.5 134.0Q4654.0 86 4694.5 58.0Q4735.0 30 4791.0 30ZM5835.0 -18Q5823.0 -18 5795.0 -3.0Q5767.0 12 5738.0 49Q5721.0 68 5696.5 95.5Q5672.0 123 5642.5 156.0Q5613.0 189 5581.0 225.0Q5549.0 261 5517.5 297.0Q5486.0 333 5456.0 366.0Q5426.0 399 5401.0 426.5Q5376.0 454 5359.0 474Q5355.0 479 5350.5 482.5Q5346.0 486 5343.0 486Q5339.0 486 5337.0 479.0Q5335.0 472 5335.0 466Q5335.0 420 5335.5 357.0Q5336.0 294 5336.0 229.0Q5336.0 164 5336.0 109Q5336.0 78 5354.0 58.0Q5372.0 38 5411.0 29Q5423.0 27 5431.5 22.5Q5440.0 18 5440.0 10Q5440.0 3 5432.0 0.0Q5424.0 -3 5414.0 -3Q5387.0 -3 5371.0 -2.0Q5355.0 -1 5342.0 0.0Q5329.0 1 5309.0 1Q5288.0 1 5271.5 0.0Q5255.0 -1 5242.0 -2.5Q5229.0 -4 5217.0 -4Q5207.0 -4 5199.0 -0.5Q5191.0 3 5191.0 9Q5191.0 17 5198.5 21.5Q5206.0 26 5219.0 30Q5245.0 38 5257.5 59.5Q5270.0 81 5273.0 111Q5277.0 149 5281.0 210.5Q5285.0 272 5288.5 349.0Q5292.0 426 5292.0 508Q5292.0 560 5265.5 583.0Q5239.0 606 5199.0 620Q5192.0 622 5181.0 628.0Q5170.0 634 5170.0 643Q5170.0 652 5178.0 655.0Q5186.0 658 5195.0 658Q5216.0 658 5237.0 657.0Q5258.0 656 5279.5 655.5Q5301.0 655 5324.5 654.0Q5348.0 653 5375.0 653Q5384.0 653 5388.5 649.5Q5393.0 646 5397.0 640Q5413.0 621 5438.0 592.5Q5463.0 564 5492.5 529.5Q5522.0 495 5554.5 457.0Q5587.0 419 5619.5 381.0Q5652.0 343 5682.0 308.5Q5712.0 274 5736.5 245.5Q5761.0 217 5777.0 199Q5781.0 195 5786.5 189.0Q5792.0 183 5796.0 183Q5804.0 183 5805.0 200Q5805.0 226 5805.0 266.5Q5805.0 307 5805.5 356.5Q5806.0 406 5805.5 458.0Q5805.0 510 5804.0 558Q5803.0 583 5783.5 597.5Q5764.0 612 5735.0 618Q5723.0 621 5712.5 625.5Q5702.0 630 5702.0 639Q5702.0 646 5712.5 649.0Q5723.0 652 5732.0 652Q5752.0 652 5765.5 652.0Q5779.0 652 5791.0 651.5Q5803.0 651 5816.0 651Q5838.0 651 5852.0 651.5Q5866.0 652 5882.5 653.0Q5899.0 654 5926.0 654Q5938.0 654 5945.5 650.5Q5953.0 647 5953.0 641Q5953.0 626 5924.0 620Q5889.0 613 5874.5 601.0Q5860.0 589 5859.0 561Q5859.0 536 5858.5 497.0Q5858.0 458 5857.0 412.0Q5856.0 366 5854.5 318.0Q5853.0 270 5852.5 224.0Q5852.0 178 5852.0 141Q5852.0 117 5854.0 92.0Q5856.0 67 5858.5 47.5Q5861.0 28 5861.0 20Q5861.0 -2 5854.0 -10.0Q5847.0 -18 5835.0 -18Z" transform="matrix(0.022120 0 0 -0.022120 83.97 391.01)" fill="#15130f"/></svg>