<svg xmlns="http://www.w3.org/2000/svg" viewBox="0 0 300 446"><rect width="300" height="446" fill="#f4ecd8"/><rect x="20.0" y="25.5" width="260" height="395" rx="20.3" fill="#f4ecd8" stroke="#15130f" stroke-width="1.5"/><rect x="36.9" y="42.4" width="226.2" height="354.7" fill="none" stroke="#15130f" stroke-width="0.7"/><path d="M36.9,370.6 H263.1 V397.1 H36.9 Z" fill="#e7bfd0"/><g fill="none" stroke="#15130f" stroke-width="0.8"><line x1="36.9" y1="370.6" x2="263.1" y2="370.6"/><line x1="61.6" y1="370.6" x2="61.6" y2="397.1"/><line x1="238.4" y1="370.6" x2="238.4" y2="397.1"/></g><rect x="141.4" y="34.4" width="17.2" height="19.0" fill="#e7bfd0" stroke="#15130f" stroke-width="0.8"/><path d="M649.0 1092V235L647.0 193L657.0 137Q686.0 59 825.0 52Q867.0 50 867.0 28Q867.0 -7 780.0 -7Q761.0 -7 652.0 2Q595.0 7 494.0 7Q394.0 7 322.0 -2Q293.0 -5 280.0 -5Q255.0 -5 255.0 20Q255.0 41 281.0 45Q384.0 61 415.0 92.0Q446.0 123 446.0 210L445.0 248V1010Q445.0 1115 363.0 1115Q331.0 1115 306.0 1104L281.0 1093Q270.0 1089 261.0 1089Q235.0 1089 235.0 1113Q235.0 1137 260.0 1150.0Q285.0 1163 362.0 1180Q506.0 1211 567.0 1267L614.0 1310Q625.0 1320 641.0 1320Q661.0 1320 661.0 1282Q661.0 1271 659.0 1243L651.0 1153Q649.0 1126 649.0 1092ZM1569.0 1307Q1753.0 1307 1878.5 1138.5Q2004.0 970 2004.0 722Q2004.0 567 1951.0 407.5Q1898.0 248 1812.0 142Q1674.0 -27 1496.0 -27Q1308.0 -27 1187.5 146.0Q1067.0 319 1067.0 588Q1067.0 880 1216.0 1093.5Q1365.0 1307 1569.0 1307ZM1470.0 1205Q1366.0 1205 1305.5 1102.0Q1245.0 999 1245.0 824Q1245.0 522 1354.0 312.5Q1463.0 103 1620.0 103Q1723.0 103 1784.0 206.5Q1845.0 310 1845.0 485Q1845.0 644 1797.5 809.0Q1750.0 974 1675.0 1077Q1580.0 1205 1470.0 1205Z" transform="matrix(0.006024 0 0 -0.006024 143.26 48.57)" fill="#15130f"/><path d="M250.0 950Q250.0 859 278.0 774.5Q306.0 690 358.5 645.0Q411.0 600 467.0 600Q524.0 600 576.5 645.0Q629.0 690 657.0 774.5Q685.0 859 685.0 950Q685.0 1051 657.0 1135.5Q629.0 1220 576.5 1265.0Q524.0 1310 467.0 1310Q411.0 1310 358.5 1265.0Q306.0 1220 278.0 1135.5Q250.0 1051 250.0 950ZM368.0 513Q312.0 527 259.0 558Q158.0 616 104.0 724.5Q50.0 833 50.0 950Q50.0 1077 104.0 1185.5Q158.0 1294 258.5 1352.0Q359.0 1410 467.0 1410Q576.0 1410 676.5 1352.0Q777.0 1294 831.0 1185.5Q885.0 1077 885.0 950Q885.0 833 831.0 724.5Q777.0 616 677.0 558Q623.0 527 568.0 513V350H785.0V250H568.0V170Q568.0 120 593.0 80.0Q618.0 40 688.0 40H738.0V0H198.0V40H248.0Q318.0 40 343.0 80.0Q368.0 120 368.0 170V250H150.0V350H368.0Z" transform="matrix(0.009268 0 0 -0.009268 44.92 390.40)" fill="#15130f"/><path d="M1415.0 450Q1415.0 359 1443.0 274.5Q1471.0 190 1523.5 145.0Q1576.0 100 1632.0 100Q1689.0 100 1741.5 145.0Q1794.0 190 1822.0 274.5Q1850.0 359 1850.0 450Q1850.0 541 1822.0 625.5Q1794.0 710 1741.5 755.0Q1689.0 800 1632.0 800Q1576.0 800 1523.5 755.0Q1471.0 710 1443.0 625.5Q1415.0 541 1415.0 450ZM1395.0 824Q1409.0 834 1424.0 842Q1524.0 900 1632.0 900Q1741.0 900 1841.5 842.0Q1942.0 784 1996.0 675.5Q2050.0 567 2050.0 450Q2050.0 333 1996.0 224.5Q1942.0 116 1841.5 58.0Q1741.0 0 1632.0 0Q1524.0 0 1424.0 58Q1379.0 84 1343.0 120Q1297.0 25 1221.0 -55Q1027.0 -260 715.0 -260Q483.0 -260 289.0 -55Q278.0 -43 267.0 -31L292.0 4Q446.0 -160 715.0 -160Q952.0 -160 1083.5 35.5Q1215.0 231 1215.0 450Q1215.0 906 1106.0 1305Q927.0 1266 820.0 895Q700.0 479 700.0 0H500.0Q500.0 479 380.0 894.5Q260.0 1310 50.0 1310V1410Q343.0 1410 522.0 1003Q566.0 901 600.0 786Q634.0 901 679.0 1003Q857.0 1410 1150.0 1410H1255.0Q1359.0 1153 1395.0 824Z" transform="matrix(0.009139 0 0 -0.009139 241.15 389.12)" fill="#15130f"/><path d="M405.0 -14Q330.0 -14 263.0 9.5Q196.0 33 144.5 77.0Q93.0 121 63.5 182.5Q34.0 244 34.0 319Q34.0 389 63.0 451.0Q92.0 513 145.0 561.0Q198.0 609 271.5 636.5Q345.0 664 433.0 664Q467.0 664 497.5 659.5Q528.0 655 557.0 648.5Q586.0 642 614.0 632Q625.0 628 631.5 621.0Q638.0 614 639.0 602Q643.0 572 645.0 542.5Q647.0 513 647.0 484Q648.0 474 640.0 469.5Q632.0 465 623.0 468.5Q614.0 472 610.0 483Q602.0 511 591.5 535.5Q581.0 560 560.0 577Q537.0 596 502.0 607.5Q467.0 619 420.0 619Q366.0 619 322.0 597.0Q278.0 575 246.5 536.0Q215.0 497 198.0 448.0Q181.0 399 181.0 345Q181.0 281 196.5 224.0Q212.0 167 243.5 123.5Q275.0 80 320.0 55.5Q365.0 31 423.0 31Q497.0 31 543.0 63.0Q589.0 95 621.0 158Q629.0 174 643.0 173.5Q657.0 173 657.0 157Q657.0 145 654.0 127.0Q651.0 109 645.5 88.5Q640.0 68 633.0 48Q629.0 36 623.0 30.0Q617.0 24 605.0 19Q567.0 3 515.5 -5.5Q464.0 -14 405.0 -14ZM1085.0 -14Q1017.0 -14 955.0 9.5Q893.0 33 845.5 76.5Q798.0 120 770.5 180.5Q743.0 241 743.0 315Q743.0 383 765.5 445.5Q788.0 508 832.5 557.0Q877.0 606 942.5 635.0Q1008.0 664 1094.0 664Q1162.0 664 1223.5 640.5Q1285.0 617 1333.0 573.5Q1381.0 530 1408.5 469.5Q1436.0 409 1436.0 335Q1436.0 268 1413.5 205.0Q1391.0 142 1346.5 93.0Q1302.0 44 1236.5 15.0Q1171.0 -14 1085.0 -14ZM1102.0 30Q1165.0 30 1207.5 62.0Q1250.0 94 1271.5 151.5Q1293.0 209 1293.0 284Q1293.0 348 1280.0 408.0Q1267.0 468 1240.0 515.5Q1213.0 563 1172.5 591.0Q1132.0 619 1076.0 619Q1013.0 619 970.5 587.0Q928.0 555 907.0 498.0Q886.0 441 886.0 366Q886.0 302 899.0 242.0Q912.0 182 938.5 134.0Q965.0 86 1005.5 58.0Q1046.0 30 1102.0 30ZM2146.0 -18Q2134.0 -18 2106.0 -3.0Q2078.0 12 2049.0 49Q2032.0 68 2007.5 95.5Q1983.0 123 1953.5 156.0Q1924.0 189 1892.0 225.0Q1860.0 261 1828.5 297.0Q1797.0 333 1767.0 366.0Q1737.0 399 1712.0 426.5Q1687.0 454 1670.0 474Q1666.0 479 1661.5 482.5Q1657.0 486 1654.0 486Q1650.0 486 1648.0 479.0Q1646.0 472 1646.0 466Q1646.0 420 1646.5 357.0Q1647.0 294 1647.0 229.0Q1647.0 164 1647.0 109Q1647.0 78 1665.0 58.0Q1683.0 38 1722.0 29Q1734.0 27 1742.5 22.5Q1751.0 18 1751.0 10Q1751.0 3 1743.0 0.0Q1735.0 -3 1725.0 -3Q1698.0 -3 1682.0 -2.0Q1666.0 -1 1653.0 0.0Q1640.0 1 1620.0 1Q1599.0 1 1582.5 0.0Q1566.0 -1 1553.0 -2.5Q1540.0 -4 1528.0 -4Q1518.0 -4 1510.0 -0.5Q1502.0 3 1502.0 9Q1502.0 17 1509.5 21.5Q1517.0 26 1530.0 30Q1556.0 38 1568.5 59.5Q1581.0 81 1584.0 111Q1588.0 149 1592.0 210.5Q1596.0 272 1599.5 349.0Q1603.0 426 1603.0 508Q1603.0 560 1576.5 583.0Q1550.0 606 1510.0 620Q1503.0 622 1492.0 628.0Q1481.0 634 1481.0 643Q1481.0 652 1489.0 655.0Q1497.0 658 1506.0 658Q1527.0 658 1548.0 657.0Q1569.0 656 1590.5 655.5Q1612.0 655 1635.5 654.0Q1659.0 653 1686.0 653Q1695.0 653 1699.5 649.5Q1704.0 646 1708.0 640Q1724.0 621 1749.0 592.5Q1774.0 564 1803.5 529.5Q1833.0 495 1865.5 457.0Q1898.0 419 1930.5 381.0Q1963.0 343 1993.0 308.5Q2023.0 274 2047.5 245.5Q2072.0 217 2088.0 199Q2092.0 195 2097.5 189.0Q2103.0 183 2107.0 183Q2115.0 183 2116.0 200Q2116.0 226 2116.0 266.5Q2116.0 307 2116.5 356.5Q2117.0 406 2116.5 458.0Q2116.0 510 2115.0 558Q2114.0 583 2094.5 597.5Q2075.0 612 2046.0 618Q2034.0 621 2023.5 625.5Q2013.0 630 2013.0 639Q2013.0 646 2023.5 649.0Q2034.0 652 2043.0 652Q2063.0 652 2076.5 652.0Q2090.0 652 2102.0 651.5Q2114.0 651 2127.0 651Q2149.0 651 2163.0 651.5Q2177.0 652 2193.5 653.0Q2210.0 654 2237.0 654Q2249.0 654 2256.5 650.5Q2264.0 647 2264.0 641Q2264.0 626 2235.0 620Q2200.0 613 2185.5 601.0Q2171.0 589 2170.0 561Q2170.0 536 2169.5 497.0Q2169.0 458 2168.0 412.0Q2167.0 366 2165.5 318.0Q2164.0 270 2163.5 224.0Q2163.0 178 2163.0 141Q2163.0 117 2165.0 92.0Q2167.0 67 2169.5 47.5Q2172.0 28 2172.0 20Q2172.0 -2 2165.0 -10.0Q2158.0 -18 2146.0 -18ZM2612.0 -15Q2600.0 -15 2595.0 -2Q2589.0 11 2580.0 34.0Q2571.0 57 2564.0 76L2373.0 549Q2363.0 574 2346.0 592.5Q2329.0 611 2301.0 619Q2289.0 623 2281.5 627.5Q2274.0 632 2274.0 640Q2274.0 647 2281.0 650.5Q2288.0 654 2298.0 654Q2316.0 654 2340.5 653.0Q2365.0 652 2390.0 651.0Q2415.0 650 2436.0 650Q2456.0 650 2482.0 651.0Q2508.0 652 2532.5 653.0Q2557.0 654 2574.0 654Q2584.0 654 2593.0 650.5Q2602.0 647 2602.0 640Q2602.0 632 2593.0 626.5Q2584.0 621 2571.0 619Q2542.0 614 2526.5 605.5Q2511.0 597 2511.0 580Q2511.0 570 2514.0 561.0Q2517.0 552 2518.0 545L2653.0 177Q2655.0 172 2657.5 171.0Q2660.0 170 2663.0 178L2786.0 502Q2806.0 554 2792.5 583.5Q2779.0 613 2739.0 619Q2726.0 621 2716.5 626.5Q2707.0 632 2707.0 640Q2707.0 647 2716.0 650.0Q2725.0 653 2736.0 653Q2754.0 653 2769.0 652.5Q2784.0 652 2799.0 651.5Q2814.0 651 2833.0 651Q2862.0 651 2890.5 653.0Q2919.0 655 2944.0 655Q2956.0 655 2965.0 652.0Q2974.0 649 2974.0 641Q2974.0 632 2965.5 628.0Q2957.0 624 2945.0 621Q2912.0 613 2890.5 589.0Q2869.0 565 2853.0 527L2689.0 133Q2678.0 106 2667.5 82.0Q2657.0 58 2648.5 37.0Q2640.0 16 2631.0 -2Q2628.0 -9 2624.0 -12.0Q2620.0 -15 2612.0 -15ZM3018.0 -5Q3007.0 -5 3000.5 -1.0Q2994.0 3 2994.0 9Q2994.0 22 3020.0 28Q3056.0 37 3071.5 50.5Q3087.0 64 3087.0 97V550Q3087.0 584 3073.5 598.0Q3060.0 612 3023.0 620Q3009.0 623 3003.0 628.5Q2997.0 634 2997.0 640Q2997.0 647 3003.5 650.5Q3010.0 654 3021.0 654Q3050.0 654 3076.5 653.0Q3103.0 652 3128.0 651.0Q3153.0 650 3180.0 650Q3226.0 650 3277.5 651.0Q3329.0 652 3370.0 652Q3403.0 653 3424.5 655.0Q3446.0 657 3450.0 657Q3457.0 657 3464.5 654.0Q3472.0 651 3473.0 642Q3477.0 609 3483.0 577.0Q3489.0 545 3489.0 521Q3489.0 512 3484.5 507.5Q3480.0 503 3475.0 503Q3470.0 503 3466.0 506.5Q3462.0 510 3459.0 517Q3451.0 540 3444.0 557.0Q3437.0 574 3428.0 583Q3415.0 597 3398.0 605.0Q3381.0 613 3357.0 613H3264.0Q3246.0 613 3231.0 602.5Q3216.0 592 3216.0 573V377Q3216.0 366 3222.5 360.0Q3229.0 354 3238.0 354H3330.0Q3357.0 354 3368.5 369.0Q3380.0 384 3388.0 410Q3395.0 430 3407.0 430Q3412.0 430 3416.0 424.5Q3420.0 419 3420.0 410Q3419.0 400 3418.0 386.0Q3417.0 372 3416.5 358.0Q3416.0 344 3416.0 333Q3416.0 321 3416.5 306.0Q3417.0 291 3417.5 276.5Q3418.0 262 3419.0 252Q3420.0 241 3417.5 235.0Q3415.0 229 3409.0 229Q3393.0 229 3386.0 257Q3378.0 285 3367.0 299.0Q3356.0 313 3337.0 313H3243.0Q3230.0 313 3223.0 308.0Q3216.0 303 3216.0 289V99Q3216.0 66 3230.0 53.0Q3244.0 40 3273.0 40H3355.0Q3380.0 40 3400.5 45.0Q3421.0 50 3436.0 61Q3453.0 73 3466.5 93.5Q3480.0 114 3493.0 139Q3497.0 147 3501.0 149.5Q3505.0 152 3511.0 152Q3516.0 151 3518.5 146.0Q3521.0 141 3521.0 135Q3521.0 121 3516.0 99.0Q3511.0 77 3503.5 53.5Q3496.0 30 3490.0 10Q3487.0 3 3482.0 -0.5Q3477.0 -4 3470.0 -4Q3446.0 -4 3408.5 -3.5Q3371.0 -3 3327.0 -2.0Q3283.0 -1 3237.0 -0.5Q3191.0 0 3149.0 0Q3128.0 0 3106.5 -1.0Q3085.0 -2 3063.0 -3.5Q3041.0 -5 3018.0 -5ZM4216.0 -18Q4204.0 -18 4176.0 -3.0Q4148.0 12 4119.0 49Q4102.0 68 4077.5 95.5Q4053.0 123 4023.5 156.0Q3994.0 189 3962.0 225.0Q3930.0 261 3898.5 297.0Q3867.0 333 3837.0 366.0Q3807.0 399 3782.0 426.5Q3757.0 454 3740.0 474Q3736.0 479 3731.5 482.5Q3727.0 486 3724.0 486Q3720.0 486 3718.0 479.0Q3716.0 472 3716.0 466Q3716.0 420 3716.5 357.0Q3717.0 294 3717.0 229.0Q3717.0 164 3717.0 109Q3717.0 78 3735.0 58.0Q3753.0 38 3792.0 29Q3804.0 27 3812.5 22.5Q3821.0 18 3821.0 10Q3821.0 3 3813.0 0.0Q3805.0 -3 3795.0 -3Q3768.0 -3 3752.0 -2.0Q3736.0 -1 3723.0 0.0Q3710.0 1 3690.0 1Q3669.0 1 3652.5 0.0Q3636.0 -1 3623.0 -2.5Q3610.0 -4 3598.0 -4Q3588.0 -4 3580.0 -0.5Q3572.0 3 3572.0 9Q3572.0 17 3579.5 21.5Q3587.0 26 3600.0 30Q3626.0 38 3638.5 59.5Q3651.0 81 3654.0 111Q3658.0 149 3662.0 210.5Q3666.0 272 3669.5 349.0Q3673.0 426 3673.0 508Q3673.0 560 3646.5 583.0Q3620.0 606 3580.0 620Q3573.0 622 3562.0 628.0Q3551.0 634 3551.0 643Q3551.0 652 3559.0 655.0Q3567.0 658 3576.0 658Q3597.0 658 3618.0 657.0Q3639.0 656 3660.5 655.5Q3682.0 655 3705.5 654.0Q3729.0 653 3756.0 653Q3765.0 653 3769.5 649.5Q3774.0 646 3778.0 640Q3794.0 621 3819.0 592.5Q3844.0 564 3873.5 529.5Q3903.0 495 3935.5 457.0Q3968.0 419 4000.5 381.0Q4033.0 343 4063.0 308.5Q4093.0 274 4117.5 245.5Q4142.0 217 4158.0 199Q4162.0 195 4167.5 189.0Q4173.0 183 4177.0 183Q4185.0 183 4186.0 200Q4186.0 226 4186.0 266.5Q4186.0 307 4186.5 356.5Q4187.0 406 4186.5 458.0Q4186.0 510 4185.0 558Q4184.0 583 4164.5 597.5Q4145.0 612 4116.0 618Q4104.0 621 4093.5 625.5Q4083.0 630 4083.0 639Q4083.0 646 4093.5 649.0Q4104.0 652 4113.0 652Q4133.0 652 4146.5 652.0Q4160.0 652 4172.0 651.5Q4184.0 651 4197.0 651Q4219.0 651 4233.0 651.5Q4247.0 652 4263.5 653.0Q4280.0 654 4307.0 654Q4319.0 654 4326.5 650.5Q4334.0 647 4334.0 641Q4334.0 626 4305.0 620Q4270.0 613 4255.5 601.0Q4241.0 589 4240.0 561Q4240.0 536 4239.5 497.0Q4239.0 458 4238.0 412.0Q4237.0 366 4235.5 318.0Q4234.0 270 4233.5 224.0Q4233.0 178 4233.0 141Q4233.0 117 4235.0 92.0Q4237.0 67 4239.5 47.5Q4242.0 28 4242.0 20Q4242.0 -2 4235.0 -10.0Q4228.0 -18 4216.0 -18ZM4553.0 -4Q4543.0 -4 4535.5 -0.5Q4528.0 3 4528.0 9Q4528.0 17 4535.0 22.0Q4542.0 27 4555.0 29Q4593.0 37 4611.0 51.5Q4629.0 66 4629.0 99V504Q4629.0 545 4627.0 566.0Q4625.0 587 4621.5 594.5Q4618.0 602 4611.0 603Q4601.0 607 4586.0 608.0Q4571.0 609 4557.0 609H4526.0Q4497.0 609 4470.0 595.5Q4443.0 582 4428.0 559Q4424.0 553 4415.5 542.0Q4407.0 531 4397.5 522.0Q4388.0 513 4378.0 513Q4371.0 513 4368.5 518.0Q4366.0 523 4366.0 529Q4366.0 541 4372.0 553Q4389.0 587 4397.5 612.5Q4406.0 638 4409.0 673Q4411.0 688 4417.5 692.5Q4424.0 697 4431.0 697Q4437.0 697 4445.5 684.5Q4454.0 672 4461.0 664Q4470.0 655 4493.0 650.5Q4516.0 646 4532.0 646L4901.0 647Q4929.0 647 4948.0 651.5Q4967.0 656 4978.0 661Q4993.0 670 5002.0 679.5Q5011.0 689 5023.0 689Q5028.0 689 5030.5 683.5Q5033.0 678 5033.0 670Q5033.0 665 5032.0 658.5Q5031.0 652 5030.0 647Q5026.0 628 5022.0 613.5Q5018.0 599 5015.5 586.5Q5013.0 574 5013.0 558V541Q5013.0 527 5009.0 517.0Q5005.0 507 4996.0 507Q4988.0 507 4982.5 516.5Q4977.0 526 4971.0 546Q4962.0 578 4941.0 593.5Q4920.0 609 4875.0 609H4807.0Q4788.0 609 4777.5 602.0Q4767.0 595 4762.5 571.5Q4758.0 548 4758.0 499V100Q4758.0 68 4776.0 53.5Q4794.0 39 4833.0 29Q4845.0 26 4852.0 22.0Q4859.0 18 4859.0 10Q4859.0 3 4852.5 0.0Q4846.0 -3 4836.0 -3Q4812.0 -3 4788.0 -2.0Q4764.0 -1 4740.5 0.0Q4717.0 1 4695.0 1Q4673.0 1 4649.5 0.0Q4626.0 -1 4601.5 -2.5Q4577.0 -4 4553.0 -4ZM5071.0 -4Q5062.0 -4 5055.0 -0.5Q5048.0 3 5048.0 9Q5048.0 24 5073.0 29Q5111.0 37 5128.0 51.0Q5145.0 65 5145.0 97V551Q5145.0 584 5131.0 598.0Q5117.0 612 5078.0 620Q5053.0 625 5053.0 641Q5053.0 647 5060.0 650.5Q5067.0 654 5076.0 654Q5100.0 654 5123.0 653.0Q5146.0 652 5167.5 651.0Q5189.0 650 5211.0 650Q5232.0 650 5253.5 651.0Q5275.0 652 5298.0 653.0Q5321.0 654 5345.0 654Q5355.0 654 5361.0 650.5Q5367.0 647 5367.0 640Q5367.0 632 5360.5 627.5Q5354.0 623 5342.0 620Q5302.0 610 5288.0 596.0Q5274.0 582 5274.0 550V98Q5274.0 67 5290.5 53.0Q5307.0 39 5345.0 29Q5358.0 26 5364.5 22.0Q5371.0 18 5371.0 10Q5371.0 3 5365.0 0.0Q5359.0 -3 5349.0 -3Q5325.0 -3 5301.0 -2.0Q5277.0 -1 5254.5 0.0Q5232.0 1 5211.0 1Q5189.0 1 5166.0 0.0Q5143.0 -1 5119.0 -2.5Q5095.0 -4 5071.0 -4ZM5763.0 -14Q5695.0 -14 5633.0 9.5Q5571.0 33 5523.5 76.5Q5476.0 120 5448.5 180.5Q5421.0 241 5421.0 315Q5421.0 383 5443.5 445.5Q5466.0 508 5510.5 557.0Q5555.0 606 5620.5 635.0Q5686.0 664 5772.0 664Q5840.0 664 5901.5 640.5Q5963.0 617 6011.0 573.5Q6059.0 530 6086.5 469.5Q6114.0 409 6114.0 335Q6114.0 268 6091.5 205.0Q6069.0 142 6024.5 93.0Q5980.0 44 5914.5 15.0Q5849.0 -14 5763.0 -14ZM5780.0 30Q5843.0 30 5885.5 62.0Q5928.0 94 5949.5 151.5Q5971.0 209 5971.0 284Q5971.0 348 5958.0 408.0Q5945.0 468 5918.0 515.5Q5891.0 563 5850.5 591.0Q5810.0 619 5754.0 619Q5691.0 619 5648.5 587.0Q5606.0 555 5585.0 498.0Q5564.0 441 5564.0 366Q5564.0 302 5577.0 242.0Q5590.0 182 5616.5 134.0Q5643.0 86 5683.5 58.0Q5724.0 30 5780.0 30ZM6824.0 -18Q6812.0 -18 6784.0 -3.0Q6756.0 12 6727.0 49Q6710.0 68 6685.5 95.5Q6661.0 123 6631.5 156.0Q6602.0 189 6570.0 225.0Q6538.0 261 6506.5 297.0Q6475.0 333 6445.0 366.0Q6415.0 399 6390.0 426.5Q6365.0 454 6348.0 474Q6344.0 479 6339.5 482.5Q6335.0 486 6332.0 486Q6328.0 486 6326.0 479.0Q6324.0 472 6324.0 466Q6324.0 420 6324.5 357.0Q6325.0 294 6325.0 229.0Q6325.0 164 6325.0 109Q6325.0 78 6343.0 58.0Q6361.0 38 6400.0 29Q6412.0 27 6420.5 22.5Q6429.0 18 6429.0 10Q6429.0 3 6421.0 0.0Q6413.0 -3 6403.0 -3Q6376.0 -3 6360.0 -2.0Q6344.0 -1 6331.0 0.0Q6318.0 1 6298.0 1Q6277.0 1 6260.5 0.0Q6244.0 -1 6231.0 -2.5Q6218.0 -4 6206.0 -4Q6196.0 -4 6188.0 -0.5Q6180.0 3 6180.0 9Q6180.0 17 6187.5 21.5Q6195.0 26 6208.0 30Q6234.0 38 6246.5 59.5Q6259.0 81 6262.0 111Q6266.0 149 6270.0 210.5Q6274.0 272 6277.5 349.0Q6281.0 426 6281.0 508Q6281.0 560 6254.5 583.0Q6228.0 606 6188.0 620Q6181.0 622 6170.0 628.0Q6159.0 634 6159.0 643Q6159.0 652 6167.0 655.0Q6175.0 658 6184.0 658Q6205.0 658 6226.0 657.0Q6247.0 656 6268.5 655.5Q6290.0 655 6313.5 654.0Q6337.0 653 6364.0 653Q6373.0 653 6377.5 649.5Q6382.0 646 6386.0 640Q6402.0 621 6427.0 592.5Q6452.0 564 6481.5 529.5Q6511.0 495 6543.5 457.0Q6576.0 419 6608.5 381.0Q6641.0 343 6671.0 308.5Q6701.0 274 6725.5 245.5Q6750.0 217 6766.0 199Q6770.0 195 6775.5 189.0Q6781.0 183 6785.0 183Q6793.0 183 6794.0 200Q6794.0 226 6794.0 266.5Q6794.0 307 6794.5 356.5Q6795.0 406 6794.5 458.0Q6794.0 510 6793.0 558Q6792.0 583 6772.5 597.5Q6753.0 612 6724.0 618Q6712.0 621 6701.5 625.5Q6691.0 630 6691.0 639Q6691.0 646 6701.5 649.0Q6712.0 652 6721.0 652Q6741.0 652 6754.5 652.0Q6768.0 652 6780.0 651.5Q6792.0 651 6805.0 651Q6827.0 651 6841.0 651.5Q6855.0 652 6871.5 653.0Q6888.0 654 6915.0 654Q6927.0 654 6934.5 650.5Q6942.0 647 6942.0 641Q6942.0 626 6913.0 620Q6878.0 613 6863.5 601.0Q6849.0 589 6848.0 561Q6848.0 536 6847.5 497.0Q6847.0 458 6846.0 412.0Q6845.0 366 6843.5 318.0Q6842.0 270 6841.5 224.0Q6841.0 178 6841.0 141Q6841.0 117 6843.0 92.0Q6845.0 67 6847.5 47.5Q6850.0 28 6850.0 20Q6850.0 -2 6843.0 -10.0Q6836.0 -18 6824.0 -18Z" transform="matrix(0.021920 0 0 -0.021920 73.54 391.31)" fill="#15130f"/></svg>