<svg xmlns="http://www.w3.org/2000/svg" viewBox="0 0 300 446"><rect width="300" height="446" fill="#f4ecd8"/><rect x="20.0" y="25.5" width="260" height="395" rx="20.3" fill="#f4ecd8" stroke="#15130f" stroke-width="1.5"/><rect x="36.9" y="42.4" width="226.2" height="354.7" fill="none" stroke="#15130f" stroke-width="0.7"/><path d="M36.9,370.6 H263.1 V397.1 H36.9 Z" fill="#e7bfd0"/><g fill="none" stroke="#15130f" stroke-width="0.8"><line x1="36.9" y1="370.6" x2="263.1" y2="370.6"/><line x1="61.6" y1="370.6" x2="61.6" y2="397.1"/><line x1="238.4" y1="370.6" x2="238.4" y2="397.1"/></g><rect x="141.4" y="34.4" width="17.2" height="19.0" fill="#e7bfd0" stroke="#15130f" stroke-width="0.8"/><path d="M541.0 1306Q697.0 1306 797.5 1224.5Q898.0 1143 898.0 1016Q898.0 934 849.0 869.0Q800.0 804 718.0 776Q668.0 759 667.0 750Q666.0 740 723.0 716Q957.0 617 957.0 376Q957.0 194 834.0 83.5Q711.0 -27 509.0 -27Q311.0 -27 189.5 75.0Q68.0 177 68.0 343Q68.0 527 267.0 635Q285.0 645 286.0 651Q287.0 657 266.0 673Q124.0 777 124.0 943Q124.0 1101 241.5 1203.5Q359.0 1306 541.0 1306ZM510.0 1245Q405.0 1245 336.5 1188.0Q268.0 1131 268.0 1044Q268.0 947 375.0 873Q495.0 790 602.0 790Q672.0 790 719.5 848.0Q767.0 906 767.0 991Q767.0 1097 692.5 1171.0Q618.0 1245 510.0 1245ZM354.0 615Q340.0 616 312.5 598.0Q285.0 580 269.0 560Q216.0 496 216.0 388Q216.0 235 306.0 135.5Q396.0 36 535.0 36Q653.0 36 728.5 100.0Q804.0 164 804.0 265Q804.0 441 612.0 513L510.0 552Q474.0 565 396.0 600Q363.0 614 354.0 615Z" transform="matrix(0.006858 0 0 -0.006858 146.49 49.06)" fill="#15130f"/><path d="M250.0 950Q250.0 859 278.0 774.5Q306.0 690 358.5 645.0Q411.0 600 467.0 600Q524.0 600 576.5 645.0Q629.0 690 657.0 774.5Q685.0 859 685.0 950Q685.0 1051 657.0 1135.5Q629.0 1220 576.5 1265.0Q524.0 1310 467.0 1310Q411.0 1310 358.5 1265.0Q306.0 1220 278.0 1135.5Q250.0 1051 250.0 950ZM368.0 513Q312.0 527 259.0 558Q158.0 616 104.0 724.5Q50.0 833 50.0 950Q50.0 1077 104.0 1185.5Q158.0 1294 258.5 1352.0Q359.0 1410 467.0 1410Q576.0 1410 676.5 1352.0Q777.0 1294 831.0 1185.5Q885.0 1077 885.0 950Q885.0 833 831.0 724.5Q777.0 616 677.0 558Q623.0 527 568.0 513V350H785.0V250H568.0V170Q568.0 120 593.0 80.0Q618.0 40 688.0 40H738.0V0H198.0V40H248.0Q318.0 40 343.0 80.0Q368.0 120 368.0 170V250H150.0V350H368.0Z" transform="matrix(0.009268 0 0 -0.009268 44.92 390.40)" fill="#15130f"/><path d="M1250.0 0V1067Q1250.0 1212 1241.5 1255.5Q1233.0 1299 1212.5 1317.5Q1192.0 1336 1168.0 1336L938.0 1106Q950.0 1037 950.0 952V0H750.0V1067Q750.0 1212 741.5 1255.5Q733.0 1299 712.5 1317.5Q692.0 1336 668.0 1336L438.0 1106Q450.0 1037 450.0 952V0H50.0V40H100.0Q170.0 40 210.0 95.0Q250.0 150 250.0 200V1067Q250.0 1212 241.5 1255.5Q233.0 1299 212.5 1317.5Q192.0 1336 168.0 1336V1410Q284.0 1392 358.0 1301Q387.0 1264 408.0 1216L602.0 1410H668.0Q784.0 1392 858.0 1301Q887.0 1264 908.0 1216L1102.0 1410H1168.0Q1284.0 1392 1358.0 1301Q1450.0 1187 1450.0 952V0Q1450.0 -91 1478.0 -175.5Q1506.0 -260 1558.5 -305.0Q1611.0 -350 1667.0 -350H1867.0Q1742.0 -225 1617.0 0H1667.0Q1967.0 -300 2267.0 -400Q1967.0 -500 1667.0 -800H1617.0Q1742.0 -575 1867.0 -450H1667.0Q1559.0 -450 1458.5 -392.0Q1358.0 -334 1304.0 -225.5Q1250.0 -117 1250.0 0Z" transform="matrix(0.008244 0 0 -0.008244 241.20 386.38)" fill="#15130f"/><path d="M214.0 -15Q171.0 -15 132.5 -4.0Q94.0 7 62.0 29Q56.0 34 51.0 39.5Q46.0 45 43.0 52Q35.0 77 32.0 113.5Q29.0 150 30.0 184Q30.0 191 35.5 194.0Q41.0 197 49.0 197Q57.0 197 61.5 194.5Q66.0 192 68.0 185Q90.0 110 132.0 68.0Q174.0 26 227.0 26Q260.0 26 283.0 41.0Q306.0 56 318.0 80.0Q330.0 104 330.0 132Q330.0 167 317.5 190.0Q305.0 213 280.0 231.5Q255.0 250 217.0 271Q176.0 295 137.0 321.5Q98.0 348 73.0 384.5Q48.0 421 48.0 475Q48.0 531 76.5 573.5Q105.0 616 156.0 640.0Q207.0 664 274.0 664Q311.0 664 343.0 656.0Q375.0 648 394.0 640Q405.0 636 410.5 630.0Q416.0 624 419.0 611Q425.0 590 429.5 561.0Q434.0 532 434.0 500Q434.0 488 416.0 488Q408.0 488 400.0 492.0Q392.0 496 390.0 503Q372.0 561 340.5 591.0Q309.0 621 263.0 621Q232.0 621 210.0 610.5Q188.0 600 175.0 578.5Q162.0 557 162.0 523Q162.0 497 179.5 475.0Q197.0 453 228.5 432.0Q260.0 411 299.0 386Q347.0 358 379.5 329.5Q412.0 301 429.0 266.5Q446.0 232 446.0 185Q446.0 119 417.0 74.5Q388.0 30 336.0 7.5Q284.0 -15 214.0 -15ZM533.0 -5Q522.0 -5 515.5 -1.0Q509.0 3 509.0 9Q509.0 22 535.0 28Q571.0 37 586.5 50.5Q602.0 64 602.0 97V550Q602.0 584 588.5 598.0Q575.0 612 538.0 620Q524.0 623 518.0 628.5Q512.0 634 512.0 640Q512.0 647 518.5 650.5Q525.0 654 536.0 654Q565.0 654 591.5 653.0Q618.0 652 643.0 651.0Q668.0 650 695.0 650Q741.0 650 792.5 651.0Q844.0 652 885.0 652Q918.0 653 939.5 655.0Q961.0 657 965.0 657Q972.0 657 979.5 654.0Q987.0 651 988.0 642Q992.0 609 998.0 577.0Q1004.0 545 1004.0 521Q1004.0 512 999.5 507.5Q995.0 503 990.0 503Q985.0 503 981.0 506.5Q977.0 510 974.0 517Q966.0 540 959.0 557.0Q952.0 574 943.0 583Q930.0 597 913.0 605.0Q896.0 613 872.0 613H779.0Q761.0 613 746.0 602.5Q731.0 592 731.0 573V377Q731.0 366 737.5 360.0Q744.0 354 753.0 354H845.0Q872.0 354 883.5 369.0Q895.0 384 903.0 410Q910.0 430 922.0 430Q927.0 430 931.0 424.5Q935.0 419 935.0 410Q934.0 400 933.0 386.0Q932.0 372 931.5 358.0Q931.0 344 931.0 333Q931.0 321 931.5 306.0Q932.0 291 932.5 276.5Q933.0 262 934.0 252Q935.0 241 932.5 235.0Q930.0 229 924.0 229Q908.0 229 901.0 257Q893.0 285 882.0 299.0Q871.0 313 852.0 313H758.0Q745.0 313 738.0 308.0Q731.0 303 731.0 289V99Q731.0 66 745.0 53.0Q759.0 40 788.0 40H870.0Q895.0 40 915.5 45.0Q936.0 50 951.0 61Q968.0 73 981.5 93.5Q995.0 114 1008.0 139Q1012.0 147 1016.0 149.5Q1020.0 152 1026.0 152Q1031.0 151 1033.5 146.0Q1036.0 141 1036.0 135Q1036.0 121 1031.0 99.0Q1026.0 77 1018.5 53.5Q1011.0 30 1005.0 10Q1002.0 3 997.0 -0.5Q992.0 -4 985.0 -4Q961.0 -4 923.5 -3.5Q886.0 -3 842.0 -2.0Q798.0 -1 752.0 -0.5Q706.0 0 664.0 0Q643.0 0 621.5 -1.0Q600.0 -2 578.0 -3.5Q556.0 -5 533.0 -5ZM1460.0 -14Q1385.0 -14 1318.0 9.5Q1251.0 33 1199.5 77.0Q1148.0 121 1118.5 182.5Q1089.0 244 1089.0 319Q1089.0 389 1118.0 451.0Q1147.0 513 1200.0 561.0Q1253.0 609 1326.5 636.5Q1400.0 664 1488.0 664Q1522.0 664 1552.5 659.5Q1583.0 655 1612.0 648.5Q1641.0 642 1669.0 632Q1680.0 628 1686.5 621.0Q1693.0 614 1694.0 602Q1698.0 572 1700.0 542.5Q1702.0 513 1702.0 484Q1703.0 474 1695.0 469.5Q1687.0 465 1678.0 468.5Q1669.0 472 1665.0 483Q1657.0 511 1646.5 535.5Q1636.0 560 1615.0 577Q1592.0 596 1557.0 607.5Q1522.0 619 1475.0 619Q1421.0 619 1377.0 597.0Q1333.0 575 1301.5 536.0Q1270.0 497 1253.0 448.0Q1236.0 399 1236.0 345Q1236.0 281 1251.5 224.0Q1267.0 167 1298.5 123.5Q1330.0 80 1375.0 55.5Q1420.0 31 1478.0 31Q1552.0 31 1598.0 63.0Q1644.0 95 1676.0 158Q1684.0 174 1698.0 173.5Q1712.0 173 1712.0 157Q1712.0 145 1709.0 127.0Q1706.0 109 1700.5 88.5Q1695.0 68 1688.0 48Q1684.0 36 1678.0 30.0Q1672.0 24 1660.0 19Q1622.0 3 1570.5 -5.5Q1519.0 -14 1460.0 -14ZM2406.0 -21Q2363.0 -21 2331.0 -11.5Q2299.0 -2 2276.0 16.0Q2253.0 34 2234.0 58Q2212.0 88 2191.0 116.5Q2170.0 145 2148.5 179.5Q2127.0 214 2101.0 262Q2088.0 285 2068.0 296Q2055.0 303 2041.5 306.0Q2028.0 309 2019.0 309Q2013.0 310 2010.0 304.0Q2007.0 298 2007.0 289V103Q2007.0 72 2023.5 55.0Q2040.0 38 2080.0 29Q2093.0 27 2099.0 22.5Q2105.0 18 2105.0 10Q2105.0 3 2099.5 0.0Q2094.0 -3 2083.0 -3Q2060.0 -3 2036.0 -1.5Q2012.0 0 1989.5 1.0Q1967.0 2 1947.0 2Q1925.0 2 1901.5 1.0Q1878.0 0 1854.0 -2.0Q1830.0 -4 1806.0 -4Q1797.0 -4 1790.0 -0.5Q1783.0 3 1783.0 9Q1783.0 24 1808.0 29Q1846.0 37 1862.0 51.0Q1878.0 65 1878.0 98V540Q1878.0 569 1873.5 584.5Q1869.0 600 1856.0 608.0Q1843.0 616 1817.0 620Q1803.0 622 1797.0 628.0Q1791.0 634 1791.0 640Q1791.0 647 1797.5 650.5Q1804.0 654 1815.0 654Q1845.0 654 1863.0 653.0Q1881.0 652 1897.5 650.5Q1914.0 649 1937.0 649Q1959.0 649 1976.0 651.0Q1993.0 653 2014.0 655.0Q2035.0 657 2068.0 657Q2183.0 657 2244.0 617.0Q2305.0 577 2305.0 495Q2305.0 450 2286.0 418.5Q2267.0 387 2238.5 367.0Q2210.0 347 2180.0 336Q2176.0 335 2176.5 331.0Q2177.0 327 2180.0 324Q2210.0 278 2238.5 236.5Q2267.0 195 2298.5 158.0Q2330.0 121 2367.0 87Q2398.0 58 2430.5 52.5Q2463.0 47 2498.0 47Q2513.0 47 2513.0 32Q2513.0 12 2498.0 0.5Q2483.0 -11 2458.5 -16.0Q2434.0 -21 2406.0 -21ZM2050.0 338Q2091.0 338 2118.5 356.5Q2146.0 375 2160.5 406.0Q2175.0 437 2175.0 475Q2175.0 520 2164.0 551.5Q2153.0 583 2126.5 600.5Q2100.0 618 2054.0 618Q2028.0 618 2018.5 599.5Q2009.0 581 2008.0 525Q2007.0 502 2007.0 464.5Q2007.0 427 2007.0 375Q2007.0 353 2018.5 345.5Q2030.0 338 2050.0 338ZM2557.0 -5Q2546.0 -5 2539.5 -1.0Q2533.0 3 2533.0 9Q2533.0 22 2559.0 28Q2595.0 37 2610.5 50.5Q2626.0 64 2626.0 97V550Q2626.0 584 2612.5 598.0Q2599.0 612 2562.0 620Q2548.0 623 2542.0 628.5Q2536.0 634 2536.0 640Q2536.0 647 2542.5 650.5Q2549.0 654 2560.0 654Q2589.0 654 2615.5 653.0Q2642.0 652 2667.0 651.0Q2692.0 650 2719.0 650Q2765.0 650 2816.5 651.0Q2868.0 652 2909.0 652Q2942.0 653 2963.5 655.0Q2985.0 657 2989.0 657Q2996.0 657 3003.5 654.0Q3011.0 651 3012.0 642Q3016.0 609 3022.0 577.0Q3028.0 545 3028.0 521Q3028.0 512 3023.5 507.5Q3019.0 503 3014.0 503Q3009.0 503 3005.0 506.5Q3001.0 510 2998.0 517Q2990.0 540 2983.0 557.0Q2976.0 574 2967.0 583Q2954.0 597 2937.0 605.0Q2920.0 613 2896.0 613H2803.0Q2785.0 613 2770.0 602.5Q2755.0 592 2755.0 573V377Q2755.0 366 2761.5 360.0Q2768.0 354 2777.0 354H2869.0Q2896.0 354 2907.5 369.0Q2919.0 384 2927.0 410Q2934.0 430 2946.0 430Q2951.0 430 2955.0 424.5Q2959.0 419 2959.0 410Q2958.0 400 2957.0 386.0Q2956.0 372 2955.5 358.0Q2955.0 344 2955.0 333Q2955.0 321 2955.5 306.0Q2956.0 291 2956.5 276.5Q2957.0 262 2958.0 252Q2959.0 241 2956.5 235.0Q2954.0 229 2948.0 229Q2932.0 229 2925.0 257Q2917.0 285 2906.0 299.0Q2895.0 313 2876.0 313H2782.0Q2769.0 313 2762.0 308.0Q2755.0 303 2755.0 289V99Q2755.0 66 2769.0 53.0Q2783.0 40 2812.0 40H2894.0Q2919.0 40 2939.5 45.0Q2960.0 50 2975.0 61Q2992.0 73 3005.5 93.5Q3019.0 114 3032.0 139Q3036.0 147 3040.0 149.5Q3044.0 152 3050.0 152Q3055.0 151 3057.5 146.0Q3060.0 141 3060.0 135Q3060.0 121 3055.0 99.0Q3050.0 77 3042.5 53.5Q3035.0 30 3029.0 10Q3026.0 3 3021.0 -0.5Q3016.0 -4 3009.0 -4Q2985.0 -4 2947.5 -3.5Q2910.0 -3 2866.0 -2.0Q2822.0 -1 2776.0 -0.5Q2730.0 0 2688.0 0Q2667.0 0 2645.5 -1.0Q2624.0 -2 2602.0 -3.5Q2580.0 -5 2557.0 -5ZM3288.0 -4Q3278.0 -4 3270.5 -0.5Q3263.0 3 3263.0 9Q3263.0 17 3270.0 22.0Q3277.0 27 3290.0 29Q3328.0 37 3346.0 51.5Q3364.0 66 3364.0 99V504Q3364.0 545 3362.0 566.0Q3360.0 587 3356.5 594.5Q3353.0 602 3346.0 603Q3336.0 607 3321.0 608.0Q3306.0 609 3292.0 609H3261.0Q3232.0 609 3205.0 595.5Q3178.0 582 3163.0 559Q3159.0 553 3150.5 542.0Q3142.0 531 3132.5 522.0Q3123.0 513 3113.0 513Q3106.0 513 3103.5 518.0Q3101.0 523 3101.0 529Q3101.0 541 3107.0 553Q3124.0 587 3132.5 612.5Q3141.0 638 3144.0 673Q3146.0 688 3152.5 692.5Q3159.0 697 3166.0 697Q3172.0 697 3180.5 684.5Q3189.0 672 3196.0 664Q3205.0 655 3228.0 650.5Q3251.0 646 3267.0 646L3636.0 647Q3664.0 647 3683.0 651.5Q3702.0 656 3713.0 661Q3728.0 670 3737.0 679.5Q3746.0 689 3758.0 689Q3763.0 689 3765.5 683.5Q3768.0 678 3768.0 670Q3768.0 665 3767.0 658.5Q3766.0 652 3765.0 647Q3761.0 628 3757.0 613.5Q3753.0 599 3750.5 586.5Q3748.0 574 3748.0 558V541Q3748.0 527 3744.0 517.0Q3740.0 507 3731.0 507Q3723.0 507 3717.5 516.5Q3712.0 526 3706.0 546Q3697.0 578 3676.0 593.5Q3655.0 609 3610.0 609H3542.0Q3523.0 609 3512.5 602.0Q3502.0 595 3497.5 571.5Q3493.0 548 3493.0 499V100Q3493.0 68 3511.0 53.5Q3529.0 39 3568.0 29Q3580.0 26 3587.0 22.0Q3594.0 18 3594.0 10Q3594.0 3 3587.5 0.0Q3581.0 -3 3571.0 -3Q3547.0 -3 3523.0 -2.0Q3499.0 -1 3475.5 0.0Q3452.0 1 3430.0 1Q3408.0 1 3384.5 0.0Q3361.0 -1 3336.5 -2.5Q3312.0 -4 3288.0 -4ZM3980.0 -15Q3937.0 -15 3898.5 -4.0Q3860.0 7 3828.0 29Q3822.0 34 3817.0 39.5Q3812.0 45 3809.0 52Q3801.0 77 3798.0 113.5Q3795.0 150 3796.0 184Q3796.0 191 3801.5 194.0Q3807.0 197 3815.0 197Q3823.0 197 3827.5 194.5Q3832.0 192 3834.0 185Q3856.0 110 3898.0 68.0Q3940.0 26 3993.0 26Q4026.0 26 4049.0 41.0Q4072.0 56 4084.0 80.0Q4096.0 104 4096.0 132Q4096.0 167 4083.5 190.0Q4071.0 213 4046.0 231.5Q4021.0 250 3983.0 271Q3942.0 295 3903.0 321.5Q3864.0 348 3839.0 384.5Q3814.0 421 3814.0 475Q3814.0 531 3842.5 573.5Q3871.0 616 3922.0 640.0Q3973.0 664 4040.0 664Q4077.0 664 4109.0 656.0Q4141.0 648 4160.0 640Q4171.0 636 4176.5 630.0Q4182.0 624 4185.0 611Q4191.0 590 4195.5 561.0Q4200.0 532 4200.0 500Q4200.0 488 4182.0 488Q4174.0 488 4166.0 492.0Q4158.0 496 4156.0 503Q4138.0 561 4106.5 591.0Q4075.0 621 4029.0 621Q3998.0 621 3976.0 610.5Q3954.0 600 3941.0 578.5Q3928.0 557 3928.0 523Q3928.0 497 3945.5 475.0Q3963.0 453 3994.5 432.0Q4026.0 411 4065.0 386Q4113.0 358 4145.5 329.5Q4178.0 301 4195.0 266.5Q4212.0 232 4212.0 185Q4212.0 119 4183.0 74.5Q4154.0 30 4102.0 7.5Q4050.0 -15 3980.0 -15Z" transform="matrix(0.022120 0 0 -0.022120 103.09 391.34)" fill="#15130f"/></svg>