<svg xmlns="http://www.w3.org/2000/svg" viewBox="0 0 300 446"><rect width="300" height="446" fill="#f4ecd8"/><rect x="20.0" y="25.5" width="260" height="395" rx="20.3" fill="#f4ecd8" stroke="#15130f" stroke-width="1.5"/><rect x="36.9" y="42.4" width="226.2" height="354.7" fill="none" stroke="#15130f" stroke-width="0.7"/><path d="M36.9,370.6 H263.1 V397.1 H36.9 Z" fill="#e7bfd0"/><g fill="none" stroke="#15130f" stroke-width="0.8"><line x1="36.9" y1="370.6" x2="263.1" y2="370.6"/><line x1="61.6" y1="370.6" x2="61.6" y2="397.1"/><line x1="238.4" y1="370.6" x2="238.4" y2="397.1"/></g><rect x="141.4" y="34.4" width="17.2" height="19.0" fill="#e7bfd0" stroke="#15130f" stroke-width="0.8"/><path d="M923.0 348Q946.0 348 948.0 331L946.0 321L931.0 277Q917.0 236 896.0 192L845.0 85Q815.0 23 792.5 9.5Q770.0 -4 697.0 -4Q653.0 -4 591.0 -1L506.0 4Q458.0 6 371.0 6Q208.0 6 167.0 -1Q139.0 -6 126.0 -6Q95.0 -6 95.0 21Q95.0 40 154.0 106Q246.0 211 365.0 383.0Q484.0 555 541.0 665Q617.0 813 617.0 932Q617.0 1035 559.0 1096.0Q501.0 1157 404.0 1157Q266.0 1157 156.0 1033Q146.0 1021 138.0 1021Q131.0 1021 122.5 1029.5Q114.0 1038 114.0 1046Q114.0 1059 145.0 1101.5Q176.0 1144 210.0 1176Q343.0 1307 517.0 1307Q655.0 1307 740.0 1230.5Q825.0 1154 825.0 1029Q825.0 803 432.0 355L384.0 300Q342.0 253 342.0 233Q342.0 198 426.0 198L590.0 200L686.0 201Q750.0 204 811.0 241.0Q872.0 278 902.0 333Q911.0 348 923.0 348Z" transform="matrix(0.006858 0 0 -0.006858 146.42 49.14)" fill="#15130f"/><path d="M250.0 950Q250.0 859 278.0 774.5Q306.0 690 358.5 645.0Q411.0 600 467.0 600Q524.0 600 576.5 645.0Q629.0 690 657.0 774.5Q685.0 859 685.0 950Q685.0 1051 657.0 1135.5Q629.0 1220 576.5 1265.0Q524.0 1310 467.0 1310Q411.0 1310 358.5 1265.0Q306.0 1220 278.0 1135.5Q250.0 1051 250.0 950ZM368.0 513Q312.0 527 259.0 558Q158.0 616 104.0 724.5Q50.0 833 50.0 950Q50.0 1077 104.0 1185.5Q158.0 1294 258.5 1352.0Q359.0 1410 467.0 1410Q576.0 1410 676.5 1352.0Q777.0 1294 831.0 1185.5Q885.0 1077 885.0 950Q885.0 833 831.0 724.5Q777.0 616 677.0 558Q623.0 527 568.0 513V350H785.0V250H568.0V170Q568.0 120 593.0 80.0Q618.0 40 688.0 40H738.0V0H198.0V40H248.0Q318.0 40 343.0 80.0Q368.0 120 368.0 170V250H150.0V350H368.0Z" transform="matrix(0.009268 0 0 -0.009268 44.92 390.40)" fill="#15130f"/><path d="M467.0 450Q467.0 349 495.0 264.5Q523.0 180 575.5 135.0Q628.0 90 684.0 90Q741.0 90 793.5 135.0Q846.0 180 874.0 264.5Q902.0 349 902.0 450Q902.0 541 874.0 625.5Q846.0 710 793.5 755.0Q741.0 800 684.0 800Q628.0 800 575.5 755.0Q523.0 710 495.0 625.5Q467.0 541 467.0 450ZM897.0 840Q995.0 782 1048.0 676Q1102.0 567 1102.0 450Q1102.0 323 1048.0 214.5Q994.0 106 893.5 48.0Q793.0 -10 684.0 -10Q576.0 -10 475.5 48.0Q375.0 106 321.0 214.5Q267.0 323 267.0 450Q267.0 567 321.0 676Q374.0 782 472.0 840Q374.0 878 321.0 950Q267.0 1022 267.0 1100Q267.0 1162 239.0 1210.5Q211.0 1259 158.5 1284.5Q106.0 1310 50.0 1310V1410Q158.0 1410 258.5 1371.5Q359.0 1333 413.0 1260.5Q467.0 1188 467.0 1100Q467.0 1048 495.0 999.5Q523.0 951 575.5 925.5Q628.0 900 684.0 900Q741.0 900 793.5 925.5Q846.0 951 874.0 999.5Q902.0 1048 902.0 1100Q902.0 1188 956.0 1260.5Q1010.0 1333 1110.5 1371.5Q1211.0 1410 1320.0 1410V1310Q1263.0 1310 1210.5 1284.5Q1158.0 1259 1130.0 1210.5Q1102.0 1162 1102.0 1100Q1102.0 1022 1048.0 950Q995.0 878 897.0 840Z" transform="matrix(0.009268 0 0 -0.009268 244.40 390.35)" fill="#15130f"/><path d="M642.0 -21Q599.0 -21 567.0 -11.5Q535.0 -2 512.0 16.0Q489.0 34 470.0 58Q448.0 88 427.0 116.5Q406.0 145 384.5 179.5Q363.0 214 337.0 262Q324.0 285 304.0 296Q291.0 303 277.5 306.0Q264.0 309 255.0 309Q249.0 310 246.0 304.0Q243.0 298 243.0 289V103Q243.0 72 259.5 55.0Q276.0 38 316.0 29Q329.0 27 335.0 22.5Q341.0 18 341.0 10Q341.0 3 335.5 0.0Q330.0 -3 319.0 -3Q296.0 -3 272.0 -1.5Q248.0 0 225.5 1.0Q203.0 2 183.0 2Q161.0 2 137.5 1.0Q114.0 0 90.0 -2.0Q66.0 -4 42.0 -4Q33.0 -4 26.0 -0.5Q19.0 3 19.0 9Q19.0 24 44.0 29Q82.0 37 98.0 51.0Q114.0 65 114.0 98V540Q114.0 569 109.5 584.5Q105.0 600 92.0 608.0Q79.0 616 53.0 620Q39.0 622 33.0 628.0Q27.0 634 27.0 640Q27.0 647 33.5 650.5Q40.0 654 51.0 654Q81.0 654 99.0 653.0Q117.0 652 133.5 650.5Q150.0 649 173.0 649Q195.0 649 212.0 651.0Q229.0 653 250.0 655.0Q271.0 657 304.0 657Q419.0 657 480.0 617.0Q541.0 577 541.0 495Q541.0 450 522.0 418.5Q503.0 387 474.5 367.0Q446.0 347 416.0 336Q412.0 335 412.5 331.0Q413.0 327 416.0 324Q446.0 278 474.5 236.5Q503.0 195 534.5 158.0Q566.0 121 603.0 87Q634.0 58 666.5 52.5Q699.0 47 734.0 47Q749.0 47 749.0 32Q749.0 12 734.0 0.5Q719.0 -11 694.5 -16.0Q670.0 -21 642.0 -21ZM286.0 338Q327.0 338 354.5 356.5Q382.0 375 396.5 406.0Q411.0 437 411.0 475Q411.0 520 400.0 551.5Q389.0 583 362.5 600.5Q336.0 618 290.0 618Q264.0 618 254.5 599.5Q245.0 581 244.0 525Q243.0 502 243.0 464.5Q243.0 427 243.0 375Q243.0 353 254.5 345.5Q266.0 338 286.0 338ZM1120.0 -14Q1052.0 -14 990.0 9.5Q928.0 33 880.5 76.5Q833.0 120 805.5 180.5Q778.0 241 778.0 315Q778.0 383 800.5 445.5Q823.0 508 867.5 557.0Q912.0 606 977.5 635.0Q1043.0 664 1129.0 664Q1197.0 664 1258.5 640.5Q1320.0 617 1368.0 573.5Q1416.0 530 1443.5 469.5Q1471.0 409 1471.0 335Q1471.0 268 1448.5 205.0Q1426.0 142 1381.5 93.0Q1337.0 44 1271.5 15.0Q1206.0 -14 1120.0 -14ZM1137.0 30Q1200.0 30 1242.5 62.0Q1285.0 94 1306.5 151.5Q1328.0 209 1328.0 284Q1328.0 348 1315.0 408.0Q1302.0 468 1275.0 515.5Q1248.0 563 1207.5 591.0Q1167.0 619 1111.0 619Q1048.0 619 1005.5 587.0Q963.0 555 942.0 498.0Q921.0 441 921.0 366Q921.0 302 934.0 242.0Q947.0 182 973.5 134.0Q1000.0 86 1040.5 58.0Q1081.0 30 1137.0 30ZM1550.0 -4Q1538.0 -4 1531.5 -0.5Q1525.0 3 1525.0 9Q1525.0 17 1533.5 20.5Q1542.0 24 1554.0 27Q1578.0 34 1595.0 54.0Q1612.0 74 1616.0 106Q1624.0 167 1631.5 239.0Q1639.0 311 1645.5 384.0Q1652.0 457 1656.0 521Q1656.0 528 1656.0 537.0Q1656.0 546 1656.0 555Q1655.0 570 1650.5 579.5Q1646.0 589 1635.0 597Q1621.0 607 1606.0 612.5Q1591.0 618 1572.0 622Q1561.0 624 1554.5 629.5Q1548.0 635 1548.0 643Q1548.0 651 1556.0 654.0Q1564.0 657 1577.0 657Q1590.0 657 1612.0 656.0Q1634.0 655 1659.5 653.5Q1685.0 652 1710.0 651.0Q1735.0 650 1754.0 650Q1762.0 650 1768.0 645.0Q1774.0 640 1776.0 633Q1782.0 614 1788.0 596.0Q1794.0 578 1801.0 558L1951.0 191Q1954.0 186 1959.0 185.5Q1964.0 185 1966.0 190L2127.0 548Q2134.0 577 2138.5 599.0Q2143.0 621 2147.0 634Q2150.0 647 2160.0 647H2201.0Q2239.0 649 2281.0 653.0Q2323.0 657 2346.0 657Q2354.0 657 2361.5 654.5Q2369.0 652 2369.0 644Q2369.0 636 2363.0 632.0Q2357.0 628 2345.0 623Q2337.0 621 2326.0 616.5Q2315.0 612 2307.0 608Q2286.0 599 2275.5 585.0Q2265.0 571 2266.0 545Q2267.0 474 2270.0 417.5Q2273.0 361 2275.5 311.5Q2278.0 262 2282.0 210.5Q2286.0 159 2289.0 97Q2291.0 69 2310.5 53.0Q2330.0 37 2363.0 29Q2375.0 26 2382.5 22.0Q2390.0 18 2390.0 10Q2390.0 3 2383.5 0.0Q2377.0 -3 2366.0 -3Q2343.0 -3 2318.0 -2.0Q2293.0 -1 2269.5 0.0Q2246.0 1 2225.0 1Q2205.0 1 2184.0 0.0Q2163.0 -1 2141.0 -2.5Q2119.0 -4 2095.0 -4Q2085.0 -4 2077.5 -0.5Q2070.0 3 2070.0 9Q2070.0 17 2077.5 22.0Q2085.0 27 2097.0 29Q2131.0 36 2144.5 50.0Q2158.0 64 2156.0 97Q2155.0 162 2153.0 222.0Q2151.0 282 2149.0 341.0Q2147.0 400 2144.0 460Q2143.0 468 2139.5 467.5Q2136.0 467 2132.0 459L1928.0 -1Q1924.0 -12 1915.0 -10.5Q1906.0 -9 1903.0 -1Q1857.0 115 1806.5 228.5Q1756.0 342 1707.0 459Q1704.0 467 1698.5 465.0Q1693.0 463 1692.0 454Q1687.0 398 1683.0 338.5Q1679.0 279 1678.0 220.0Q1677.0 161 1677.0 103Q1677.0 76 1694.5 57.0Q1712.0 38 1748.0 29Q1760.0 27 1768.5 22.5Q1777.0 18 1777.0 10Q1777.0 3 1769.0 0.0Q1761.0 -3 1751.0 -3Q1724.0 -3 1710.0 -2.0Q1696.0 -1 1684.0 0.0Q1672.0 1 1652.0 1Q1631.0 1 1612.5 0.0Q1594.0 -1 1578.0 -2.5Q1562.0 -4 1550.0 -4ZM2441.0 -5Q2429.0 -5 2421.0 -1.5Q2413.0 2 2413.0 10Q2413.0 19 2420.5 24.0Q2428.0 29 2440.0 33Q2469.0 41 2490.5 57.5Q2512.0 74 2525.0 103Q2550.0 162 2573.0 216.5Q2596.0 271 2617.0 325.0Q2638.0 379 2659.5 435.0Q2681.0 491 2703.0 553Q2714.0 584 2718.0 601.0Q2722.0 618 2725.0 626Q2740.0 630 2753.0 634.0Q2766.0 638 2782.0 644Q2796.0 651 2806.0 662.0Q2816.0 673 2821.0 679Q2824.0 681 2827.0 681.5Q2830.0 682 2833.0 677Q2836.0 671 2838.0 665.0Q2840.0 659 2842.0 652Q2864.0 581 2887.5 508.5Q2911.0 436 2934.0 365.5Q2957.0 295 2978.5 230.5Q3000.0 166 3018.0 112Q3027.0 85 3040.5 69.0Q3054.0 53 3070.5 44.5Q3087.0 36 3107.0 31Q3120.0 28 3127.0 23.0Q3134.0 18 3134.0 9Q3134.0 3 3127.5 0.0Q3121.0 -3 3111.0 -3Q3093.0 -3 3065.5 -2.0Q3038.0 -1 3009.0 0.5Q2980.0 2 2957.0 2Q2937.0 2 2912.5 1.0Q2888.0 0 2863.5 -1.0Q2839.0 -2 2822.0 -2Q2812.0 -2 2804.5 1.5Q2797.0 5 2797.0 12Q2797.0 20 2805.0 25.5Q2813.0 31 2824.0 33Q2860.0 39 2876.0 51.5Q2892.0 64 2888.0 88Q2885.0 105 2879.0 128.5Q2873.0 152 2866.5 177.5Q2860.0 203 2853.0 224Q2851.0 232 2847.0 235.5Q2843.0 239 2832.0 239H2652.0Q2645.0 239 2641.0 234.5Q2637.0 230 2635.0 221Q2631.0 208 2625.5 191.5Q2620.0 175 2614.5 157.5Q2609.0 140 2604.5 125.0Q2600.0 110 2598.0 99Q2593.0 72 2607.5 56.5Q2622.0 41 2658.0 32Q2685.0 25 2685.0 11Q2685.0 5 2678.5 1.5Q2672.0 -2 2660.0 -2Q2637.0 -2 2612.0 -0.5Q2587.0 1 2557.0 1Q2527.0 1 2498.5 -2.0Q2470.0 -5 2441.0 -5ZM2679.0 285H2818.0Q2832.0 285 2832.0 291Q2832.0 294 2831.5 296.0Q2831.0 298 2830.0 302L2760.0 533Q2756.0 547 2753.0 547Q2751.0 547 2746.0 534L2662.0 302Q2660.0 297 2660.0 294Q2660.0 289 2665.5 287.0Q2671.0 285 2679.0 285ZM3804.0 -18Q3792.0 -18 3764.0 -3.0Q3736.0 12 3707.0 49Q3690.0 68 3665.5 95.5Q3641.0 123 3611.5 156.0Q3582.0 189 3550.0 225.0Q3518.0 261 3486.5 297.0Q3455.0 333 3425.0 366.0Q3395.0 399 3370.0 426.5Q3345.0 454 3328.0 474Q3324.0 479 3319.5 482.5Q3315.0 486 3312.0 486Q3308.0 486 3306.0 479.0Q3304.0 472 3304.0 466Q3304.0 420 3304.5 357.0Q3305.0 294 3305.0 229.0Q3305.0 164 3305.0 109Q3305.0 78 3323.0 58.0Q3341.0 38 3380.0 29Q3392.0 27 3400.5 22.5Q3409.0 18 3409.0 10Q3409.0 3 3401.0 0.0Q3393.0 -3 3383.0 -3Q3356.0 -3 3340.0 -2.0Q3324.0 -1 3311.0 0.0Q3298.0 1 3278.0 1Q3257.0 1 3240.5 0.0Q3224.0 -1 3211.0 -2.5Q3198.0 -4 3186.0 -4Q3176.0 -4 3168.0 -0.5Q3160.0 3 3160.0 9Q3160.0 17 3167.5 21.5Q3175.0 26 3188.0 30Q3214.0 38 3226.5 59.5Q3239.0 81 3242.0 111Q3246.0 149 3250.0 210.5Q3254.0 272 3257.5 349.0Q3261.0 426 3261.0 508Q3261.0 560 3234.5 583.0Q3208.0 606 3168.0 620Q3161.0 622 3150.0 628.0Q3139.0 634 3139.0 643Q3139.0 652 3147.0 655.0Q3155.0 658 3164.0 658Q3185.0 658 3206.0 657.0Q3227.0 656 3248.5 655.5Q3270.0 655 3293.5 654.0Q3317.0 653 3344.0 653Q3353.0 653 3357.5 649.5Q3362.0 646 3366.0 640Q3382.0 621 3407.0 592.5Q3432.0 564 3461.5 529.5Q3491.0 495 3523.5 457.0Q3556.0 419 3588.5 381.0Q3621.0 343 3651.0 308.5Q3681.0 274 3705.5 245.5Q3730.0 217 3746.0 199Q3750.0 195 3755.5 189.0Q3761.0 183 3765.0 183Q3773.0 183 3774.0 200Q3774.0 226 3774.0 266.5Q3774.0 307 3774.5 356.5Q3775.0 406 3774.5 458.0Q3774.0 510 3773.0 558Q3772.0 583 3752.5 597.5Q3733.0 612 3704.0 618Q3692.0 621 3681.5 625.5Q3671.0 630 3671.0 639Q3671.0 646 3681.5 649.0Q3692.0 652 3701.0 652Q3721.0 652 3734.5 652.0Q3748.0 652 3760.0 651.5Q3772.0 651 3785.0 651Q3807.0 651 3821.0 651.5Q3835.0 652 3851.5 653.0Q3868.0 654 3895.0 654Q3907.0 654 3914.5 650.5Q3922.0 647 3922.0 641Q3922.0 626 3893.0 620Q3858.0 613 3843.5 601.0Q3829.0 589 3828.0 561Q3828.0 536 3827.5 497.0Q3827.0 458 3826.0 412.0Q3825.0 366 3823.5 318.0Q3822.0 270 3821.5 224.0Q3821.0 178 3821.0 141Q3821.0 117 3823.0 92.0Q3825.0 67 3827.5 47.5Q3830.0 28 3830.0 20Q3830.0 -2 3823.0 -10.0Q3816.0 -18 3804.0 -18ZM4337.0 -14Q4262.0 -14 4195.0 9.5Q4128.0 33 4076.5 77.0Q4025.0 121 3995.5 182.5Q3966.0 244 3966.0 319Q3966.0 389 3995.0 451.0Q4024.0 513 4077.0 561.0Q4130.0 609 4203.5 636.5Q4277.0 664 4365.0 664Q4399.0 664 4429.5 659.5Q4460.0 655 4489.0 648.5Q4518.0 642 4546.0 632Q4557.0 628 4563.5 621.0Q4570.0 614 4571.0 602Q4575.0 572 4577.0 542.5Q4579.0 513 4579.0 484Q4580.0 474 4572.0 469.5Q4564.0 465 4555.0 468.5Q4546.0 472 4542.0 483Q4534.0 511 4523.5 535.5Q4513.0 560 4492.0 577Q4469.0 596 4434.0 607.5Q4399.0 619 4352.0 619Q4298.0 619 4254.0 597.0Q4210.0 575 4178.5 536.0Q4147.0 497 4130.0 448.0Q4113.0 399 4113.0 345Q4113.0 281 4128.5 224.0Q4144.0 167 4175.5 123.5Q4207.0 80 4252.0 55.5Q4297.0 31 4355.0 31Q4429.0 31 4475.0 63.0Q4521.0 95 4553.0 158Q4561.0 174 4575.0 173.5Q4589.0 173 4589.0 157Q4589.0 145 4586.0 127.0Q4583.0 109 4577.5 88.5Q4572.0 68 4565.0 48Q4561.0 36 4555.0 30.0Q4549.0 24 4537.0 19Q4499.0 3 4447.5 -5.5Q4396.0 -14 4337.0 -14ZM4690.0 -5Q4679.0 -5 4672.5 -1.0Q4666.0 3 4666.0 9Q4666.0 22 4692.0 28Q4728.0 37 4743.5 50.5Q4759.0 64 4759.0 97V550Q4759.0 584 4745.5 598.0Q4732.0 612 4695.0 620Q4681.0 623 4675.0 628.5Q4669.0 634 4669.0 640Q4669.0 647 4675.5 650.5Q4682.0 654 4693.0 654Q4722.0 654 4748.5 653.0Q4775.0 652 4800.0 651.0Q4825.0 650 4852.0 650Q4898.0 650 4949.5 651.0Q5001.0 652 5042.0 652Q5075.0 653 5096.5 655.0Q5118.0 657 5122.0 657Q5129.0 657 5136.5 654.0Q5144.0 651 5145.0 642Q5149.0 609 5155.0 577.0Q5161.0 545 5161.0 521Q5161.0 512 5156.5 507.5Q5152.0 503 5147.0 503Q5142.0 503 5138.0 506.5Q5134.0 510 5131.0 517Q5123.0 540 5116.0 557.0Q5109.0 574 5100.0 583Q5087.0 597 5070.0 605.0Q5053.0 613 5029.0 613H4936.0Q4918.0 613 4903.0 602.5Q4888.0 592 4888.0 573V377Q4888.0 366 4894.5 360.0Q4901.0 354 4910.0 354H5002.0Q5029.0 354 5040.5 369.0Q5052.0 384 5060.0 410Q5067.0 430 5079.0 430Q5084.0 430 5088.0 424.5Q5092.0 419 5092.0 410Q5091.0 400 5090.0 386.0Q5089.0 372 5088.5 358.0Q5088.0 344 5088.0 333Q5088.0 321 5088.5 306.0Q5089.0 291 5089.5 276.5Q5090.0 262 5091.0 252Q5092.0 241 5089.5 235.0Q5087.0 229 5081.0 229Q5065.0 229 5058.0 257Q5050.0 285 5039.0 299.0Q5028.0 313 5009.0 313H4915.0Q4902.0 313 4895.0 308.0Q4888.0 303 4888.0 289V99Q4888.0 66 4902.0 53.0Q4916.0 40 4945.0 40H5027.0Q5052.0 40 5072.5 45.0Q5093.0 50 5108.0 61Q5125.0 73 5138.5 93.5Q5152.0 114 5165.0 139Q5169.0 147 5173.0 149.5Q5177.0 152 5183.0 152Q5188.0 151 5190.5 146.0Q5193.0 141 5193.0 135Q5193.0 121 5188.0 99.0Q5183.0 77 5175.5 53.5Q5168.0 30 5162.0 10Q5159.0 3 5154.0 -0.5Q5149.0 -4 5142.0 -4Q5118.0 -4 5080.5 -3.5Q5043.0 -3 4999.0 -2.0Q4955.0 -1 4909.0 -0.5Q4863.0 0 4821.0 0Q4800.0 0 4778.5 -1.0Q4757.0 -2 4735.0 -3.5Q4713.0 -5 4690.0 -5Z" transform="matrix(0.022120 0 0 -0.022120 92.36 391.17)" fill="#15130f"/></svg>