<svg xmlns="http://www.w3.org/2000/svg" viewBox="0 0 300 446"><rect width="300" height="446" fill="#f4ecd8"/><rect x="20.0" y="25.5" width="260" height="395" rx="20.3" fill="#f4ecd8" stroke="#15130f" stroke-width="1.5"/><rect x="36.9" y="42.4" width="226.2" height="354.7" fill="none" stroke="#15130f" stroke-width="0.7"/><path d="M36.9,370.6 H263.1 V397.1 H36.9 Z" fill="#e7bfd0"/><g fill="none" stroke="#15130f" stroke-width="0.8"><line x1="36.9" y1="370.6" x2="263.1" y2="370.6"/><line x1="61.6" y1="370.6" x2="61.6" y2="397.1"/><line x1="238.4" y1="370.6" x2="238.4" y2="397.1"/></g><rect x="141.4" y="34.4" width="17.2" height="19.0" fill="#e7bfd0" stroke="#15130f" stroke-width="0.8"/><path d="M766.0 262V-54Q764.0 -88 718.0 -88L649.0 -99Q619.0 -104 598.0 -110Q582.0 -115 572.0 -116Q548.0 -118 548.0 -92Q548.0 -82 552.0 -63Q563.0 -18 563.0 41V262L564.0 290L552.0 316Q541.0 325 493.0 325H98.0Q53.0 325 39.5 332.5Q26.0 340 26.0 366Q26.0 415 264.0 747Q442.0 995 584.5 1169.0Q727.0 1343 752.0 1343Q768.0 1343 768.0 1317L767.0 1232L766.0 1143V549L771.0 522Q778.0 506 822.0 506Q899.0 506 922.0 572Q928.0 590 941.0 590Q967.0 590 967.0 567Q967.0 557 965.0 547Q961.0 528 956.0 462Q950.0 372 930.0 347.5Q910.0 323 845.0 323H812.0Q781.0 323 773.5 313.0Q766.0 303 766.0 262ZM563.0 570V743L561.0 856L563.0 958L562.0 984Q562.0 1001 553.0 1001Q544.0 1001 523.0 973L489.0 928L381.0 788Q316.0 705 230.0 573Q216.0 551 207.0 540Q196.0 525 196.0 515Q197.0 499 236.0 499L268.0 498H528.0Q564.0 498 564.0 546Z" transform="matrix(0.006858 0 0 -0.006858 146.59 48.88)" fill="#15130f"/><path d="M250.0 950Q250.0 859 278.0 774.5Q306.0 690 358.5 645.0Q411.0 600 467.0 600Q524.0 600 576.5 645.0Q629.0 690 657.0 774.5Q685.0 859 685.0 950Q685.0 1051 657.0 1135.5Q629.0 1220 576.5 1265.0Q524.0 1310 467.0 1310Q411.0 1310 358.5 1265.0Q306.0 1220 278.0 1135.5Q250.0 1051 250.0 950ZM368.0 513Q312.0 527 259.0 558Q158.0 616 104.0 724.5Q50.0 833 50.0 950Q50.0 1077 104.0 1185.5Q158.0 1294 258.5 1352.0Q359.0 1410 467.0 1410Q576.0 1410 676.5 1352.0Q777.0 1294 831.0 1185.5Q885.0 1077 885.0 950Q885.0 833 831.0 724.5Q777.0 616 677.0 558Q623.0 527 568.0 513V350H785.0V250H568.0V170Q568.0 120 593.0 80.0Q618.0 40 688.0 40H738.0V0H198.0V40H248.0Q318.0 40 343.0 80.0Q368.0 120 368.0 170V250H150.0V350H368.0Z" transform="matrix(0.009268 0 0 -0.009268 44.92 390.40)" fill="#15130f"/><path d="M250.0 800Q250.0 735 271.5 674.5Q293.0 614 333.5 582.0Q374.0 550 417.0 550Q461.0 550 501.5 582.0Q542.0 614 563.5 674.5Q585.0 735 585.0 800Q585.0 865 563.5 925.5Q542.0 986 501.5 1018.0Q461.0 1050 417.0 1050Q374.0 1050 333.5 1018.0Q293.0 986 271.5 925.5Q250.0 865 250.0 800ZM1744.0 1050Q1700.0 1100 1637.0 1148Q1423.0 1310 1050.0 1310Q671.0 1310 460.0 1148Q533.0 1140 602.0 1105Q690.0 1060 737.5 975.5Q785.0 891 785.0 800Q785.0 709 737.5 624.5Q690.0 540 601.5 495.0Q513.0 450 417.0 450Q322.0 450 233.5 495.0Q145.0 540 97.5 624.5Q50.0 709 50.0 800Q50.0 1058 324.5 1234.0Q599.0 1410 1050.0 1410Q1501.0 1410 1776.0 1234Q1905.0 1151 1973.0 1050ZM1850.0 600Q1850.0 665 1828.5 725.5Q1807.0 786 1766.5 818.0Q1726.0 850 1683.0 850Q1639.0 850 1598.5 818.0Q1558.0 786 1536.5 725.5Q1515.0 665 1515.0 600Q1515.0 535 1536.5 474.5Q1558.0 414 1598.5 382.0Q1639.0 350 1683.0 350Q1726.0 350 1766.5 382.0Q1807.0 414 1828.5 474.5Q1850.0 535 1850.0 600ZM356.0 350Q400.0 300 464.0 252Q677.0 90 1050.0 90Q1429.0 90 1640.0 252Q1567.0 260 1499.0 295Q1410.0 340 1362.5 424.5Q1315.0 509 1315.0 600Q1315.0 691 1362.5 775.5Q1410.0 860 1498.5 905.0Q1587.0 950 1683.0 950Q1778.0 950 1866.5 905.0Q1955.0 860 2002.5 775.5Q2050.0 691 2050.0 600Q2050.0 342 1775.5 166.0Q1501.0 -10 1050.0 -10Q599.0 -10 325.0 166Q195.0 249 127.0 350Z" transform="matrix(0.009139 0 0 -0.009139 241.15 390.26)" fill="#15130f"/><path d="M41.0 -5Q30.0 -5 23.5 -1.0Q17.0 3 17.0 9Q17.0 22 43.0 28Q78.0 37 94.5 50.5Q111.0 64 111.0 97V550Q111.0 584 97.5 599.0Q84.0 614 48.0 620Q34.0 622 28.0 628.0Q22.0 634 22.0 640Q22.0 647 28.5 650.5Q35.0 654 46.0 654Q76.0 654 95.0 653.0Q114.0 652 131.0 650.5Q148.0 649 171.0 649Q193.0 649 210.5 651.0Q228.0 653 249.0 655.0Q270.0 657 303.0 657Q421.0 657 481.5 623.5Q542.0 590 542.0 508Q542.0 476 528.5 449.0Q515.0 422 497.0 407Q481.0 392 465.0 383.0Q449.0 374 426.0 367Q422.0 366 422.0 362.0Q422.0 358 426.0 357Q451.0 351 477.5 341.0Q504.0 331 527.5 313.0Q551.0 295 565.5 266.5Q580.0 238 580.0 194Q580.0 138 562.5 105.5Q545.0 73 520.5 56.0Q496.0 39 475.0 28Q443.0 12 401.5 4.0Q360.0 -4 302.0 -4Q275.0 -4 244.0 -2.0Q213.0 0 179.0 0Q156.0 0 133.5 -1.0Q111.0 -2 88.0 -3.5Q65.0 -5 41.0 -5ZM307.0 46Q342.0 46 372.0 65.0Q402.0 84 420.0 116.0Q438.0 148 438.0 187Q438.0 224 428.0 247.5Q418.0 271 404.5 285.5Q391.0 300 380.0 307Q370.0 314 347.5 322.0Q325.0 330 290.0 330Q268.0 330 254.0 320.0Q240.0 310 240.0 297V112Q240.0 77 257.5 61.5Q275.0 46 307.0 46ZM282.0 369Q307.0 369 331.0 375.0Q355.0 381 379.0 397Q388.0 404 401.5 426.0Q415.0 448 415.0 490Q415.0 527 404.5 556.0Q394.0 585 368.5 601.5Q343.0 618 298.0 618Q265.0 618 252.5 607.0Q240.0 596 240.0 574V405Q240.0 384 255.0 376.5Q270.0 369 282.0 369ZM653.0 -4Q644.0 -4 637.0 -0.5Q630.0 3 630.0 9Q630.0 24 655.0 29Q693.0 37 710.0 51.0Q727.0 65 727.0 97V551Q727.0 584 713.0 598.0Q699.0 612 660.0 620Q635.0 625 635.0 641Q635.0 647 642.0 650.5Q649.0 654 658.0 654Q682.0 654 705.0 653.0Q728.0 652 749.5 651.0Q771.0 650 793.0 650Q814.0 650 835.5 651.0Q857.0 652 880.0 653.0Q903.0 654 927.0 654Q937.0 654 943.0 650.5Q949.0 647 949.0 640Q949.0 632 942.5 627.5Q936.0 623 924.0 620Q884.0 610 870.0 596.0Q856.0 582 856.0 550V98Q856.0 67 872.5 53.0Q889.0 39 927.0 29Q940.0 26 946.5 22.0Q953.0 18 953.0 10Q953.0 3 947.0 0.0Q941.0 -3 931.0 -3Q907.0 -3 883.0 -2.0Q859.0 -1 836.5 0.0Q814.0 1 793.0 1Q771.0 1 748.0 0.0Q725.0 -1 701.0 -2.5Q677.0 -4 653.0 -4ZM1611.0 -21Q1568.0 -21 1536.0 -11.5Q1504.0 -2 1481.0 16.0Q1458.0 34 1439.0 58Q1417.0 88 1396.0 116.5Q1375.0 145 1353.5 179.5Q1332.0 214 1306.0 262Q1293.0 285 1273.0 296Q1260.0 303 1246.5 306.0Q1233.0 309 1224.0 309Q1218.0 310 1215.0 304.0Q1212.0 298 1212.0 289V103Q1212.0 72 1228.5 55.0Q1245.0 38 1285.0 29Q1298.0 27 1304.0 22.5Q1310.0 18 1310.0 10Q1310.0 3 1304.5 0.0Q1299.0 -3 1288.0 -3Q1265.0 -3 1241.0 -1.5Q1217.0 0 1194.5 1.0Q1172.0 2 1152.0 2Q1130.0 2 1106.5 1.0Q1083.0 0 1059.0 -2.0Q1035.0 -4 1011.0 -4Q1002.0 -4 995.0 -0.5Q988.0 3 988.0 9Q988.0 24 1013.0 29Q1051.0 37 1067.0 51.0Q1083.0 65 1083.0 98V540Q1083.0 569 1078.5 584.5Q1074.0 600 1061.0 608.0Q1048.0 616 1022.0 620Q1008.0 622 1002.0 628.0Q996.0 634 996.0 640Q996.0 647 1002.5 650.5Q1009.0 654 1020.0 654Q1050.0 654 1068.0 653.0Q1086.0 652 1102.5 650.5Q1119.0 649 1142.0 649Q1164.0 649 1181.0 651.0Q1198.0 653 1219.0 655.0Q1240.0 657 1273.0 657Q1388.0 657 1449.0 617.0Q1510.0 577 1510.0 495Q1510.0 450 1491.0 418.5Q1472.0 387 1443.5 367.0Q1415.0 347 1385.0 336Q1381.0 335 1381.5 331.0Q1382.0 327 1385.0 324Q1415.0 278 1443.5 236.5Q1472.0 195 1503.5 158.0Q1535.0 121 1572.0 87Q1603.0 58 1635.5 52.5Q1668.0 47 1703.0 47Q1718.0 47 1718.0 32Q1718.0 12 1703.0 0.5Q1688.0 -11 1663.5 -16.0Q1639.0 -21 1611.0 -21ZM1255.0 338Q1296.0 338 1323.5 356.5Q1351.0 375 1365.5 406.0Q1380.0 437 1380.0 475Q1380.0 520 1369.0 551.5Q1358.0 583 1331.5 600.5Q1305.0 618 1259.0 618Q1233.0 618 1223.5 599.5Q1214.0 581 1213.0 525Q1212.0 502 1212.0 464.5Q1212.0 427 1212.0 375Q1212.0 353 1223.5 345.5Q1235.0 338 1255.0 338ZM1922.0 -4Q1912.0 -4 1904.5 -0.5Q1897.0 3 1897.0 9Q1897.0 17 1904.0 22.0Q1911.0 27 1924.0 29Q1962.0 37 1980.0 51.5Q1998.0 66 1998.0 99V504Q1998.0 545 1996.0 566.0Q1994.0 587 1990.5 594.5Q1987.0 602 1980.0 603Q1970.0 607 1955.0 608.0Q1940.0 609 1926.0 609H1895.0Q1866.0 609 1839.0 595.5Q1812.0 582 1797.0 559Q1793.0 553 1784.5 542.0Q1776.0 531 1766.5 522.0Q1757.0 513 1747.0 513Q1740.0 513 1737.5 518.0Q1735.0 523 1735.0 529Q1735.0 541 1741.0 553Q1758.0 587 1766.5 612.5Q1775.0 638 1778.0 673Q1780.0 688 1786.5 692.5Q1793.0 697 1800.0 697Q1806.0 697 1814.5 684.5Q1823.0 672 1830.0 664Q1839.0 655 1862.0 650.5Q1885.0 646 1901.0 646L2270.0 647Q2298.0 647 2317.0 651.5Q2336.0 656 2347.0 661Q2362.0 670 2371.0 679.5Q2380.0 689 2392.0 689Q2397.0 689 2399.5 683.5Q2402.0 678 2402.0 670Q2402.0 665 2401.0 658.5Q2400.0 652 2399.0 647Q2395.0 628 2391.0 613.5Q2387.0 599 2384.5 586.5Q2382.0 574 2382.0 558V541Q2382.0 527 2378.0 517.0Q2374.0 507 2365.0 507Q2357.0 507 2351.5 516.5Q2346.0 526 2340.0 546Q2331.0 578 2310.0 593.5Q2289.0 609 2244.0 609H2176.0Q2157.0 609 2146.5 602.0Q2136.0 595 2131.5 571.5Q2127.0 548 2127.0 499V100Q2127.0 68 2145.0 53.5Q2163.0 39 2202.0 29Q2214.0 26 2221.0 22.0Q2228.0 18 2228.0 10Q2228.0 3 2221.5 0.0Q2215.0 -3 2205.0 -3Q2181.0 -3 2157.0 -2.0Q2133.0 -1 2109.5 0.0Q2086.0 1 2064.0 1Q2042.0 1 2018.5 0.0Q1995.0 -1 1970.5 -2.5Q1946.0 -4 1922.0 -4ZM2448.0 -4Q2439.0 -4 2432.0 0.0Q2425.0 4 2425.0 10Q2425.0 24 2450.0 29Q2486.0 37 2498.0 51.0Q2510.0 65 2510.0 98V551Q2510.0 584 2500.0 598.0Q2490.0 612 2453.0 620Q2428.0 625 2428.0 640Q2428.0 647 2434.5 650.5Q2441.0 654 2451.0 654Q2475.0 654 2496.0 653.0Q2517.0 652 2537.0 651.0Q2557.0 650 2577.0 650Q2597.0 650 2618.5 651.0Q2640.0 652 2663.0 653.0Q2686.0 654 2709.0 654Q2731.0 654 2731.0 639Q2731.0 631 2725.0 627.0Q2719.0 623 2706.0 620Q2667.0 610 2653.5 595.0Q2640.0 580 2640.0 550V364Q2640.0 357 2644.5 354.5Q2649.0 352 2655.0 352H2954.0Q2965.0 352 2965.0 366V551Q2965.0 580 2952.0 595.0Q2939.0 610 2900.0 620Q2887.0 623 2880.5 627.0Q2874.0 631 2874.0 639Q2874.0 654 2896.0 654Q2920.0 654 2944.0 653.0Q2968.0 652 2990.5 651.0Q3013.0 650 3034.0 650Q3053.0 650 3071.0 651.0Q3089.0 652 3109.5 653.0Q3130.0 654 3154.0 654Q3163.0 654 3170.0 650.5Q3177.0 647 3177.0 640Q3177.0 625 3151.0 620Q3116.0 612 3105.5 597.0Q3095.0 582 3095.0 551V98Q3095.0 65 3106.0 51.0Q3117.0 37 3153.0 29Q3178.0 24 3178.0 10Q3178.0 4 3171.0 0.0Q3164.0 -4 3155.0 -4Q3132.0 -4 3111.0 -2.5Q3090.0 -1 3069.5 0.0Q3049.0 1 3029.0 1Q3009.0 1 2987.0 0.0Q2965.0 -1 2942.0 -2.0Q2919.0 -3 2895.0 -3Q2886.0 -3 2880.0 0.5Q2874.0 4 2874.0 11Q2874.0 19 2880.0 22.5Q2886.0 26 2898.0 29Q2934.0 38 2949.5 53.0Q2965.0 68 2965.0 98V288Q2965.0 294 2963.5 299.0Q2962.0 304 2955.0 304H2651.0Q2640.0 304 2640.0 289V102Q2640.0 72 2657.5 55.0Q2675.0 38 2711.0 29Q2724.0 26 2730.0 22.5Q2736.0 19 2736.0 11Q2736.0 4 2730.5 0.5Q2725.0 -3 2714.0 -3Q2691.0 -3 2667.0 -2.0Q2643.0 -1 2620.5 0.0Q2598.0 1 2577.0 1Q2556.0 1 2535.0 0.0Q2514.0 -1 2492.0 -2.5Q2470.0 -4 2448.0 -4Z" transform="matrix(0.022120 0 0 -0.022120 114.66 391.34)" fill="#15130f"/></svg>