<svg xmlns="http://www.w3.org/2000/svg" viewBox="0 0 300 446"><rect width="300" height="446" fill="#f4ecd8"/><rect x="20.0" y="25.5" width="260" height="395" rx="20.3" fill="#f4ecd8" stroke="#15130f" stroke-width="1.5"/><rect x="36.9" y="42.4" width="226.2" height="354.7" fill="none" stroke="#15130f" stroke-width="0.7"/><path d="M36.9,370.6 H263.1 V397.1 H36.9 Z" fill="#e7bfd0"/><g fill="none" stroke="#15130f" stroke-width="0.8"><line x1="36.9" y1="370.6" x2="263.1" y2="370.6"/><line x1="61.6" y1="370.6" x2="61.6" y2="397.1"/><line x1="238.4" y1="370.6" x2="238.4" y2="397.1"/></g><rect x="141.4" y="34.4" width="17.2" height="19.0" fill="#e7bfd0" stroke="#15130f" stroke-width="0.8"/><path d="M754.0 1055H388.0Q323.0 1055 311.0 963Q305.0 912 298.0 870Q294.0 844 294.0 822Q294.0 792 325.0 792Q335.0 792 350.0 795Q414.0 806 475.0 806Q664.0 806 775.5 709.5Q887.0 613 887.0 449Q887.0 250 738.0 111.5Q589.0 -27 375.0 -27Q285.0 -27 176.5 10.0Q68.0 47 68.0 78Q68.0 105 94.0 105Q101.0 105 112.0 101Q255.0 47 343.0 47Q489.0 47 590.5 139.0Q692.0 231 692.0 365Q692.0 477 611.5 550.0Q531.0 623 407.0 623Q373.0 623 299.0 612Q255.0 606 240.0 606Q196.0 606 196.0 658Q196.0 671 205.0 708Q212.0 739 227.0 858Q234.0 917 245.0 993L264.0 1132Q277.0 1226 285.5 1240.0Q294.0 1254 337.0 1254H727.0Q767.0 1254 797.0 1284L837.0 1323Q845.0 1331 858.0 1331Q875.0 1331 875.0 1315Q875.0 1301 869.0 1285L847.0 1208L830.0 1148Q809.0 1075 801.0 1065.0Q793.0 1055 754.0 1055Z" transform="matrix(0.006858 0 0 -0.006858 146.73 49.15)" fill="#15130f"/><path d="M250.0 950Q250.0 859 278.0 774.5Q306.0 690 358.5 645.0Q411.0 600 467.0 600Q524.0 600 576.5 645.0Q629.0 690 657.0 774.5Q685.0 859 685.0 950Q685.0 1051 657.0 1135.5Q629.0 1220 576.5 1265.0Q524.0 1310 467.0 1310Q411.0 1310 358.5 1265.0Q306.0 1220 278.0 1135.5Q250.0 1051 250.0 950ZM368.0 513Q312.0 527 259.0 558Q158.0 616 104.0 724.5Q50.0 833 50.0 950Q50.0 1077 104.0 1185.5Q158.0 1294 258.5 1352.0Q359.0 1410 467.0 1410Q576.0 1410 676.5 1352.0Q777.0 1294 831.0 1185.5Q885.0 1077 885.0 950Q885.0 833 831.0 724.5Q777.0 616 677.0 558Q623.0 527 568.0 513V350H785.0V250H568.0V170Q568.0 120 593.0 80.0Q618.0 40 688.0 40H738.0V0H198.0V40H248.0Q318.0 40 343.0 80.0Q368.0 120 368.0 170V250H150.0V350H368.0Z" transform="matrix(0.009268 0 0 -0.009268 44.92 390.40)" fill="#15130f"/><path d="M250.0 439Q250.0 348 278.0 263.5Q306.0 179 358.5 134.0Q411.0 89 467.0 89Q524.0 89 576.5 134.0Q629.0 179 657.0 263.5Q685.0 348 685.0 439Q685.0 530 657.0 614.5Q629.0 699 576.5 744.0Q524.0 789 467.0 789Q411.0 789 358.5 744.0Q306.0 699 278.0 614.5Q250.0 530 250.0 439ZM831.0 665Q885.0 556 885.0 439Q885.0 322 831.0 213.5Q777.0 105 676.5 47.0Q576.0 -11 467.0 -11Q359.0 -11 258.5 47.0Q158.0 105 104.0 213.5Q50.0 322 50.0 439Q50.0 556 104.0 664.5Q158.0 773 258.5 831.0Q359.0 889 467.0 889Q503.0 889 537.0 883V900Q537.0 1115 681.0 1262.5Q825.0 1410 1118.0 1410Q1411.0 1410 1555.5 1262.5Q1700.0 1115 1700.0 900Q1700.0 684 1389.0 330.0Q1078.0 -24 1078.0 -204Q1078.0 -303 1125.5 -356.5Q1173.0 -410 1248.0 -410Q1356.0 -410 1446.5 -374.0Q1537.0 -338 1581.0 -266.5Q1625.0 -195 1651.0 -51H1688.0V-510H1651.0Q1644.0 -464 1629.5 -449.0Q1615.0 -434 1590.0 -434Q1554.0 -434 1450.0 -472.0Q1346.0 -510 1227.0 -510Q1089.0 -510 994.5 -400.0Q900.0 -290 900.0 -128Q900.0 102 1200.0 452.5Q1500.0 803 1500.0 950Q1500.0 1100 1414.0 1205.0Q1328.0 1310 1118.0 1310Q905.0 1310 821.0 1205.0Q737.0 1100 737.0 900Q737.0 836 768.0 782.5Q799.0 729 831.0 665Z" transform="matrix(0.009268 0 0 -0.009268 242.64 388.04)" fill="#15130f"/><path d="M24.0 -5Q12.0 -5 4.0 -1.5Q-4.0 2 -4.0 10Q-4.0 19 3.5 24.0Q11.0 29 23.0 33Q52.0 41 73.5 57.5Q95.0 74 108.0 103Q133.0 162 156.0 216.5Q179.0 271 200.0 325.0Q221.0 379 242.5 435.0Q264.0 491 286.0 553Q297.0 584 301.0 601.0Q305.0 618 308.0 626Q323.0 630 336.0 634.0Q349.0 638 365.0 644Q379.0 651 389.0 662.0Q399.0 673 404.0 679Q407.0 681 410.0 681.5Q413.0 682 416.0 677Q419.0 671 421.0 665.0Q423.0 659 425.0 652Q447.0 581 470.5 508.5Q494.0 436 517.0 365.5Q540.0 295 561.5 230.5Q583.0 166 601.0 112Q610.0 85 623.5 69.0Q637.0 53 653.5 44.5Q670.0 36 690.0 31Q703.0 28 710.0 23.0Q717.0 18 717.0 9Q717.0 3 710.5 0.0Q704.0 -3 694.0 -3Q676.0 -3 648.5 -2.0Q621.0 -1 592.0 0.5Q563.0 2 540.0 2Q520.0 2 495.5 1.0Q471.0 0 446.5 -1.0Q422.0 -2 405.0 -2Q395.0 -2 387.5 1.5Q380.0 5 380.0 12Q380.0 20 388.0 25.5Q396.0 31 407.0 33Q443.0 39 459.0 51.5Q475.0 64 471.0 88Q468.0 105 462.0 128.5Q456.0 152 449.5 177.5Q443.0 203 436.0 224Q434.0 232 430.0 235.5Q426.0 239 415.0 239H235.0Q228.0 239 224.0 234.5Q220.0 230 218.0 221Q214.0 208 208.5 191.5Q203.0 175 197.5 157.5Q192.0 140 187.5 125.0Q183.0 110 181.0 99Q176.0 72 190.5 56.5Q205.0 41 241.0 32Q268.0 25 268.0 11Q268.0 5 261.5 1.5Q255.0 -2 243.0 -2Q220.0 -2 195.0 -0.5Q170.0 1 140.0 1Q110.0 1 81.5 -2.0Q53.0 -5 24.0 -5ZM262.0 285H401.0Q415.0 285 415.0 291Q415.0 294 414.5 296.0Q414.0 298 413.0 302L343.0 533Q339.0 547 336.0 547Q334.0 547 329.0 534L245.0 302Q243.0 297 243.0 294Q243.0 289 248.5 287.0Q254.0 285 262.0 285ZM756.0 -4Q747.0 -4 740.0 -0.5Q733.0 3 733.0 9Q733.0 24 758.0 29Q796.0 37 810.5 51.0Q825.0 65 825.0 98V538Q825.0 576 812.5 594.0Q800.0 612 764.0 620Q750.0 623 744.0 628.5Q738.0 634 738.0 640Q738.0 647 744.5 650.5Q751.0 654 762.0 654Q790.0 654 816.0 653.0Q842.0 652 867.0 651.0Q892.0 650 918.0 650Q954.0 650 996.5 650.0Q1039.0 650 1077.0 650Q1115.0 650 1145.5 655.5Q1176.0 661 1197.0 661Q1203.0 661 1210.5 657.5Q1218.0 654 1219.0 645Q1221.0 626 1222.0 602.0Q1223.0 578 1223.5 556.0Q1224.0 534 1224.0 521Q1224.0 501 1213.0 501Q1208.0 501 1202.5 505.0Q1197.0 509 1195.0 516Q1189.0 538 1181.5 555.5Q1174.0 573 1163.0 583Q1150.0 598 1132.5 604.0Q1115.0 610 1092.0 610H1001.0Q977.0 610 965.5 596.5Q954.0 583 954.0 562Q954.0 544 954.0 519.0Q954.0 494 954.0 472Q954.0 449 954.0 423.0Q954.0 397 954.0 376Q954.0 366 958.5 359.5Q963.0 353 973.0 353Q1000.0 353 1027.5 354.0Q1055.0 355 1076.0 355Q1100.0 355 1113.5 369.0Q1127.0 383 1135.0 403Q1139.0 410 1144.5 415.0Q1150.0 420 1155.0 420Q1160.0 420 1164.5 415.0Q1169.0 410 1168.0 400Q1166.0 381 1164.5 364.5Q1163.0 348 1163.0 334Q1163.0 316 1164.0 302.0Q1165.0 288 1167.0 265Q1168.0 254 1165.5 248.0Q1163.0 242 1157.0 242Q1149.0 242 1142.5 250.0Q1136.0 258 1134.0 266Q1126.0 293 1113.5 303.0Q1101.0 313 1085.0 313Q1073.0 313 1060.5 313.5Q1048.0 314 1037.0 314Q1022.0 314 1006.5 314.0Q991.0 314 976.0 313Q965.0 312 959.0 306.5Q953.0 301 953.0 289Q953.0 243 953.5 195.0Q954.0 147 955.0 99Q956.0 68 972.0 53.0Q988.0 38 1028.0 29Q1041.0 27 1047.0 22.5Q1053.0 18 1053.0 10Q1053.0 3 1047.5 0.0Q1042.0 -3 1031.0 -3Q1008.0 -3 983.5 -1.5Q959.0 0 936.5 1.0Q914.0 2 895.0 2Q873.0 2 850.0 1.0Q827.0 0 803.5 -2.0Q780.0 -4 756.0 -4ZM1291.0 -4Q1282.0 -4 1275.0 -0.5Q1268.0 3 1268.0 9Q1268.0 24 1293.0 29Q1331.0 37 1345.5 51.0Q1360.0 65 1360.0 98V538Q1360.0 576 1347.5 594.0Q1335.0 612 1299.0 620Q1285.0 623 1279.0 628.5Q1273.0 634 1273.0 640Q1273.0 647 1279.5 650.5Q1286.0 654 1297.0 654Q1325.0 654 1351.0 653.0Q1377.0 652 1402.0 651.0Q1427.0 650 1453.0 650Q1489.0 650 1531.5 650.0Q1574.0 650 1612.0 650Q1650.0 650 1680.5 655.5Q1711.0 661 1732.0 661Q1738.0 661 1745.5 657.5Q1753.0 654 1754.0 645Q1756.0 626 1757.0 602.0Q1758.0 578 1758.5 556.0Q1759.0 534 1759.0 521Q1759.0 501 1748.0 501Q1743.0 501 1737.5 505.0Q1732.0 509 1730.0 516Q1724.0 538 1716.5 555.5Q1709.0 573 1698.0 583Q1685.0 598 1667.5 604.0Q1650.0 610 1627.0 610H1536.0Q1512.0 610 1500.5 596.5Q1489.0 583 1489.0 562Q1489.0 544 1489.0 519.0Q1489.0 494 1489.0 472Q1489.0 449 1489.0 423.0Q1489.0 397 1489.0 376Q1489.0 366 1493.5 359.5Q1498.0 353 1508.0 353Q1535.0 353 1562.5 354.0Q1590.0 355 1611.0 355Q1635.0 355 1648.5 369.0Q1662.0 383 1670.0 403Q1674.0 410 1679.5 415.0Q1685.0 420 1690.0 420Q1695.0 420 1699.5 415.0Q1704.0 410 1703.0 400Q1701.0 381 1699.5 364.5Q1698.0 348 1698.0 334Q1698.0 316 1699.0 302.0Q1700.0 288 1702.0 265Q1703.0 254 1700.5 248.0Q1698.0 242 1692.0 242Q1684.0 242 1677.5 250.0Q1671.0 258 1669.0 266Q1661.0 293 1648.5 303.0Q1636.0 313 1620.0 313Q1608.0 313 1595.5 313.5Q1583.0 314 1572.0 314Q1557.0 314 1541.5 314.0Q1526.0 314 1511.0 313Q1500.0 312 1494.0 306.5Q1488.0 301 1488.0 289Q1488.0 243 1488.5 195.0Q1489.0 147 1490.0 99Q1491.0 68 1507.0 53.0Q1523.0 38 1563.0 29Q1576.0 27 1582.0 22.5Q1588.0 18 1588.0 10Q1588.0 3 1582.5 0.0Q1577.0 -3 1566.0 -3Q1543.0 -3 1518.5 -1.5Q1494.0 0 1471.5 1.0Q1449.0 2 1430.0 2Q1408.0 2 1385.0 1.0Q1362.0 0 1338.5 -2.0Q1315.0 -4 1291.0 -4ZM1805.0 -5Q1793.0 -5 1785.0 -1.5Q1777.0 2 1777.0 10Q1777.0 19 1784.5 24.0Q1792.0 29 1804.0 33Q1833.0 41 1854.5 57.5Q1876.0 74 1889.0 103Q1914.0 162 1937.0 216.5Q1960.0 271 1981.0 325.0Q2002.0 379 2023.5 435.0Q2045.0 491 2067.0 553Q2078.0 584 2082.0 601.0Q2086.0 618 2089.0 626Q2104.0 630 2117.0 634.0Q2130.0 638 2146.0 644Q2160.0 651 2170.0 662.0Q2180.0 673 2185.0 679Q2188.0 681 2191.0 681.5Q2194.0 682 2197.0 677Q2200.0 671 2202.0 665.0Q2204.0 659 2206.0 652Q2228.0 581 2251.5 508.5Q2275.0 436 2298.0 365.5Q2321.0 295 2342.5 230.5Q2364.0 166 2382.0 112Q2391.0 85 2404.5 69.0Q2418.0 53 2434.5 44.5Q2451.0 36 2471.0 31Q2484.0 28 2491.0 23.0Q2498.0 18 2498.0 9Q2498.0 3 2491.5 0.0Q2485.0 -3 2475.0 -3Q2457.0 -3 2429.5 -2.0Q2402.0 -1 2373.0 0.5Q2344.0 2 2321.0 2Q2301.0 2 2276.5 1.0Q2252.0 0 2227.5 -1.0Q2203.0 -2 2186.0 -2Q2176.0 -2 2168.5 1.5Q2161.0 5 2161.0 12Q2161.0 20 2169.0 25.5Q2177.0 31 2188.0 33Q2224.0 39 2240.0 51.5Q2256.0 64 2252.0 88Q2249.0 105 2243.0 128.5Q2237.0 152 2230.5 177.5Q2224.0 203 2217.0 224Q2215.0 232 2211.0 235.5Q2207.0 239 2196.0 239H2016.0Q2009.0 239 2005.0 234.5Q2001.0 230 1999.0 221Q1995.0 208 1989.5 191.5Q1984.0 175 1978.5 157.5Q1973.0 140 1968.5 125.0Q1964.0 110 1962.0 99Q1957.0 72 1971.5 56.5Q1986.0 41 2022.0 32Q2049.0 25 2049.0 11Q2049.0 5 2042.5 1.5Q2036.0 -2 2024.0 -2Q2001.0 -2 1976.0 -0.5Q1951.0 1 1921.0 1Q1891.0 1 1862.5 -2.0Q1834.0 -5 1805.0 -5ZM2043.0 285H2182.0Q2196.0 285 2196.0 291Q2196.0 294 2195.5 296.0Q2195.0 298 2194.0 302L2124.0 533Q2120.0 547 2117.0 547Q2115.0 547 2110.0 534L2026.0 302Q2024.0 297 2024.0 294Q2024.0 289 2029.5 287.0Q2035.0 285 2043.0 285ZM2532.0 -4Q2523.0 -4 2516.0 -0.5Q2509.0 3 2509.0 9Q2509.0 24 2534.0 29Q2572.0 37 2589.0 51.0Q2606.0 65 2606.0 97V551Q2606.0 584 2592.0 598.0Q2578.0 612 2539.0 620Q2514.0 625 2514.0 641Q2514.0 647 2521.0 650.5Q2528.0 654 2537.0 654Q2561.0 654 2584.0 653.0Q2607.0 652 2628.5 651.0Q2650.0 650 2672.0 650Q2693.0 650 2714.5 651.0Q2736.0 652 2759.0 653.0Q2782.0 654 2806.0 654Q2816.0 654 2822.0 650.5Q2828.0 647 2828.0 640Q2828.0 632 2821.5 627.5Q2815.0 623 2803.0 620Q2763.0 610 2749.0 596.0Q2735.0 582 2735.0 550V98Q2735.0 67 2751.5 53.0Q2768.0 39 2806.0 29Q2819.0 26 2825.5 22.0Q2832.0 18 2832.0 10Q2832.0 3 2826.0 0.0Q2820.0 -3 2810.0 -3Q2786.0 -3 2762.0 -2.0Q2738.0 -1 2715.5 0.0Q2693.0 1 2672.0 1Q2650.0 1 2627.0 0.0Q2604.0 -1 2580.0 -2.5Q2556.0 -4 2532.0 -4ZM3490.0 -21Q3447.0 -21 3415.0 -11.5Q3383.0 -2 3360.0 16.0Q3337.0 34 3318.0 58Q3296.0 88 3275.0 116.5Q3254.0 145 3232.5 179.5Q3211.0 214 3185.0 262Q3172.0 285 3152.0 296Q3139.0 303 3125.5 306.0Q3112.0 309 3103.0 309Q3097.0 310 3094.0 304.0Q3091.0 298 3091.0 289V103Q3091.0 72 3107.5 55.0Q3124.0 38 3164.0 29Q3177.0 27 3183.0 22.5Q3189.0 18 3189.0 10Q3189.0 3 3183.5 0.0Q3178.0 -3 3167.0 -3Q3144.0 -3 3120.0 -1.5Q3096.0 0 3073.5 1.0Q3051.0 2 3031.0 2Q3009.0 2 2985.5 1.0Q2962.0 0 2938.0 -2.0Q2914.0 -4 2890.0 -4Q2881.0 -4 2874.0 -0.5Q2867.0 3 2867.0 9Q2867.0 24 2892.0 29Q2930.0 37 2946.0 51.0Q2962.0 65 2962.0 98V540Q2962.0 569 2957.5 584.5Q2953.0 600 2940.0 608.0Q2927.0 616 2901.0 620Q2887.0 622 2881.0 628.0Q2875.0 634 2875.0 640Q2875.0 647 2881.5 650.5Q2888.0 654 2899.0 654Q2929.0 654 2947.0 653.0Q2965.0 652 2981.5 650.5Q2998.0 649 3021.0 649Q3043.0 649 3060.0 651.0Q3077.0 653 3098.0 655.0Q3119.0 657 3152.0 657Q3267.0 657 3328.0 617.0Q3389.0 577 3389.0 495Q3389.0 450 3370.0 418.5Q3351.0 387 3322.5 367.0Q3294.0 347 3264.0 336Q3260.0 335 3260.5 331.0Q3261.0 327 3264.0 324Q3294.0 278 3322.5 236.5Q3351.0 195 3382.5 158.0Q3414.0 121 3451.0 87Q3482.0 58 3514.5 52.5Q3547.0 47 3582.0 47Q3597.0 47 3597.0 32Q3597.0 12 3582.0 0.5Q3567.0 -11 3542.5 -16.0Q3518.0 -21 3490.0 -21ZM3134.0 338Q3175.0 338 3202.5 356.5Q3230.0 375 3244.5 406.0Q3259.0 437 3259.0 475Q3259.0 520 3248.0 551.5Q3237.0 583 3210.5 600.5Q3184.0 618 3138.0 618Q3112.0 618 3102.5 599.5Q3093.0 581 3092.0 525Q3091.0 502 3091.0 464.5Q3091.0 427 3091.0 375Q3091.0 353 3102.5 345.5Q3114.0 338 3134.0 338Z" transform="matrix(0.022120 0 0 -0.022120 110.26 391.17)" fill="#15130f"/></svg>