<svg xmlns="http://www.w3.org/2000/svg" viewBox="0 0 300 446"><rect width="300" height="446" fill="#f4ecd8"/><rect x="20.0" y="25.5" width="260" height="395" rx="20.3" fill="#f4ecd8" stroke="#15130f" stroke-width="1.5"/><rect x="36.9" y="42.4" width="226.2" height="354.7" fill="none" stroke="#15130f" stroke-width="0.7"/><path d="M36.9,370.6 H263.1 V397.1 H36.9 Z" fill="#e7bfd0"/><g fill="none" stroke="#15130f" stroke-width="0.8"><line x1="36.9" y1="370.6" x2="263.1" y2="370.6"/><line x1="61.6" y1="370.6" x2="61.6" y2="397.1"/><line x1="238.4" y1="370.6" x2="238.4" y2="397.1"/></g><rect x="141.4" y="34.4" width="17.2" height="19.0" fill="#e7bfd0" stroke="#15130f" stroke-width="0.8"/><path d="M649.0 1092V235L647.0 193L657.0 137Q686.0 59 825.0 52Q867.0 50 867.0 28Q867.0 -7 780.0 -7Q761.0 -7 652.0 2Q595.0 7 494.0 7Q394.0 7 322.0 -2Q293.0 -5 280.0 -5Q255.0 -5 255.0 20Q255.0 41 281.0 45Q384.0 61 415.0 92.0Q446.0 123 446.0 210L445.0 248V1010Q445.0 1115 363.0 1115Q331.0 1115 306.0 1104L281.0 1093Q270.0 1089 261.0 1089Q235.0 1089 235.0 1113Q235.0 1137 260.0 1150.0Q285.0 1163 362.0 1180Q506.0 1211 567.0 1267L614.0 1310Q625.0 1320 641.0 1320Q661.0 1320 661.0 1282Q661.0 1271 659.0 1243L651.0 1153Q649.0 1126 649.0 1092ZM1947.0 348Q1970.0 348 1972.0 331L1970.0 321L1955.0 277Q1941.0 236 1920.0 192L1869.0 85Q1839.0 23 1816.5 9.5Q1794.0 -4 1721.0 -4Q1677.0 -4 1615.0 -1L1530.0 4Q1482.0 6 1395.0 6Q1232.0 6 1191.0 -1Q1163.0 -6 1150.0 -6Q1119.0 -6 1119.0 21Q1119.0 40 1178.0 106Q1270.0 211 1389.0 383.0Q1508.0 555 1565.0 665Q1641.0 813 1641.0 932Q1641.0 1035 1583.0 1096.0Q1525.0 1157 1428.0 1157Q1290.0 1157 1180.0 1033Q1170.0 1021 1162.0 1021Q1155.0 1021 1146.5 1029.5Q1138.0 1038 1138.0 1046Q1138.0 1059 1169.0 1101.5Q1200.0 1144 1234.0 1176Q1367.0 1307 1541.0 1307Q1679.0 1307 1764.0 1230.5Q1849.0 1154 1849.0 1029Q1849.0 803 1456.0 355L1408.0 300Q1366.0 253 1366.0 233Q1366.0 198 1450.0 198L1614.0 200L1710.0 201Q1774.0 204 1835.0 241.0Q1896.0 278 1926.0 333Q1935.0 348 1947.0 348Z" transform="matrix(0.006024 0 0 -0.006024 143.35 48.63)" fill="#15130f"/><path d="M250.0 950Q250.0 859 278.0 774.5Q306.0 690 358.5 645.0Q411.0 600 467.0 600Q524.0 600 576.5 645.0Q629.0 690 657.0 774.5Q685.0 859 685.0 950Q685.0 1051 657.0 1135.5Q629.0 1220 576.5 1265.0Q524.0 1310 467.0 1310Q411.0 1310 358.5 1265.0Q306.0 1220 278.0 1135.5Q250.0 1051 250.0 950ZM368.0 513Q312.0 527 259.0 558Q158.0 616 104.0 724.5Q50.0 833 50.0 950Q50.0 1077 104.0 1185.5Q158.0 1294 258.5 1352.0Q359.0 1410 467.0 1410Q576.0 1410 676.5 1352.0Q777.0 1294 831.0 1185.5Q885.0 1077 885.0 950Q885.0 833 831.0 724.5Q777.0 616 677.0 558Q623.0 527 568.0 513V350H785.0V250H568.0V170Q568.0 120 593.0 80.0Q618.0 40 688.0 40H738.0V0H198.0V40H248.0Q318.0 40 343.0 80.0Q368.0 120 368.0 170V250H150.0V350H368.0Z" transform="matrix(0.009268 0 0 -0.009268 44.92 390.40)" fill="#15130f"/><path d="M548.0 750Q533.0 984 370.0 1200Q330.0 1250 250.0 1305.0Q170.0 1360 100.0 1360H50.0V1400H402.0Q440.0 1370 476.0 1337Q731.0 1091 749.0 750H951.0Q969.0 1091 1224.0 1337Q1260.0 1370 1298.0 1400H1650.0V1360H1600.0Q1530.0 1360 1450.0 1305.0Q1370.0 1250 1330.0 1200Q1167.0 984 1152.0 750H1600.0V650H1152.0Q1168.0 413 1340.0 190Q1378.0 145 1450.0 95Q1530.0 40 1600.0 40H1650.0V0H1301.0Q1262.0 29 1227.0 63Q969.0 308 951.0 650H749.0Q731.0 308 473.0 63Q438.0 29 399.0 0H50.0V40H100.0Q170.0 40 250.0 95Q322.0 145 360.0 190Q532.0 413 548.0 650H100.0V750Z" transform="matrix(0.009268 0 0 -0.009268 242.87 390.35)" fill="#15130f"/><path d="M214.0 -15Q171.0 -15 132.5 -4.0Q94.0 7 62.0 29Q56.0 34 51.0 39.5Q46.0 45 43.0 52Q35.0 77 32.0 113.5Q29.0 150 30.0 184Q30.0 191 35.5 194.0Q41.0 197 49.0 197Q57.0 197 61.5 194.5Q66.0 192 68.0 185Q90.0 110 132.0 68.0Q174.0 26 227.0 26Q260.0 26 283.0 41.0Q306.0 56 318.0 80.0Q330.0 104 330.0 132Q330.0 167 317.5 190.0Q305.0 213 280.0 231.5Q255.0 250 217.0 271Q176.0 295 137.0 321.5Q98.0 348 73.0 384.5Q48.0 421 48.0 475Q48.0 531 76.5 573.5Q105.0 616 156.0 640.0Q207.0 664 274.0 664Q311.0 664 343.0 656.0Q375.0 648 394.0 640Q405.0 636 410.5 630.0Q416.0 624 419.0 611Q425.0 590 429.5 561.0Q434.0 532 434.0 500Q434.0 488 416.0 488Q408.0 488 400.0 492.0Q392.0 496 390.0 503Q372.0 561 340.5 591.0Q309.0 621 263.0 621Q232.0 621 210.0 610.5Q188.0 600 175.0 578.5Q162.0 557 162.0 523Q162.0 497 179.5 475.0Q197.0 453 228.5 432.0Q260.0 411 299.0 386Q347.0 358 379.5 329.5Q412.0 301 429.0 266.5Q446.0 232 446.0 185Q446.0 119 417.0 74.5Q388.0 30 336.0 7.5Q284.0 -15 214.0 -15ZM857.0 -14Q764.0 -14 702.0 19.0Q640.0 52 609.0 111.0Q578.0 170 578.0 249V541Q578.0 571 564.5 592.0Q551.0 613 529.0 619Q499.0 627 499.0 641Q499.0 647 507.0 650.5Q515.0 654 527.0 654Q555.0 654 585.5 652.0Q616.0 650 645.0 650Q671.0 650 704.5 651.5Q738.0 653 762.0 653Q774.0 653 781.5 650.0Q789.0 647 789.0 640Q789.0 630 776.5 625.5Q764.0 621 747.0 614Q733.0 608 720.5 589.5Q708.0 571 708.0 539V270Q708.0 198 732.0 151.5Q756.0 105 796.0 83.0Q836.0 61 886.0 61Q981.0 61 1027.0 121.0Q1073.0 181 1073.0 293Q1073.0 318 1073.0 352.0Q1073.0 386 1072.5 422.5Q1072.0 459 1071.0 492Q1071.0 531 1065.5 555.5Q1060.0 580 1050.0 594.5Q1040.0 609 1022.0 617Q1012.0 621 998.5 626.0Q985.0 631 985.0 639Q985.0 647 993.0 650.0Q1001.0 653 1014.0 653Q1046.0 653 1063.5 652.0Q1081.0 651 1104.0 651Q1121.0 651 1134.5 651.5Q1148.0 652 1161.0 653.0Q1174.0 654 1191.0 654Q1203.0 654 1210.0 651.5Q1217.0 649 1217.0 641Q1217.0 627 1188.0 620Q1157.0 612 1145.0 591.0Q1133.0 570 1131.0 536Q1127.0 457 1125.5 391.0Q1124.0 325 1123.0 258Q1122.0 178 1086.5 116.5Q1051.0 55 991.0 20.5Q931.0 -14 857.0 -14ZM1267.0 -5Q1256.0 -5 1249.5 -1.0Q1243.0 3 1243.0 9Q1243.0 22 1269.0 28Q1304.0 37 1320.5 50.5Q1337.0 64 1337.0 97V550Q1337.0 584 1323.5 599.0Q1310.0 614 1274.0 620Q1260.0 622 1254.0 628.0Q1248.0 634 1248.0 640Q1248.0 647 1254.5 650.5Q1261.0 654 1272.0 654Q1302.0 654 1321.0 653.0Q1340.0 652 1357.0 650.5Q1374.0 649 1397.0 649Q1419.0 649 1436.5 651.0Q1454.0 653 1475.0 655.0Q1496.0 657 1529.0 657Q1647.0 657 1707.5 623.5Q1768.0 590 1768.0 508Q1768.0 476 1754.5 449.0Q1741.0 422 1723.0 407Q1707.0 392 1691.0 383.0Q1675.0 374 1652.0 367Q1648.0 366 1648.0 362.0Q1648.0 358 1652.0 357Q1677.0 351 1703.5 341.0Q1730.0 331 1753.5 313.0Q1777.0 295 1791.5 266.5Q1806.0 238 1806.0 194Q1806.0 138 1788.5 105.5Q1771.0 73 1746.5 56.0Q1722.0 39 1701.0 28Q1669.0 12 1627.5 4.0Q1586.0 -4 1528.0 -4Q1501.0 -4 1470.0 -2.0Q1439.0 0 1405.0 0Q1382.0 0 1359.5 -1.0Q1337.0 -2 1314.0 -3.5Q1291.0 -5 1267.0 -5ZM1533.0 46Q1568.0 46 1598.0 65.0Q1628.0 84 1646.0 116.0Q1664.0 148 1664.0 187Q1664.0 224 1654.0 247.5Q1644.0 271 1630.5 285.5Q1617.0 300 1606.0 307Q1596.0 314 1573.5 322.0Q1551.0 330 1516.0 330Q1494.0 330 1480.0 320.0Q1466.0 310 1466.0 297V112Q1466.0 77 1483.5 61.5Q1501.0 46 1533.0 46ZM1508.0 369Q1533.0 369 1557.0 375.0Q1581.0 381 1605.0 397Q1614.0 404 1627.5 426.0Q1641.0 448 1641.0 490Q1641.0 527 1630.5 556.0Q1620.0 585 1594.5 601.5Q1569.0 618 1524.0 618Q1491.0 618 1478.5 607.0Q1466.0 596 1466.0 574V405Q1466.0 384 1481.0 376.5Q1496.0 369 1508.0 369ZM1884.0 -4Q1872.0 -4 1865.5 -0.5Q1859.0 3 1859.0 9Q1859.0 17 1867.5 20.5Q1876.0 24 1888.0 27Q1912.0 34 1929.0 54.0Q1946.0 74 1950.0 106Q1958.0 167 1965.5 239.0Q1973.0 311 1979.5 384.0Q1986.0 457 1990.0 521Q1990.0 528 1990.0 537.0Q1990.0 546 1990.0 555Q1989.0 570 1984.5 579.5Q1980.0 589 1969.0 597Q1955.0 607 1940.0 612.5Q1925.0 618 1906.0 622Q1895.0 624 1888.5 629.5Q1882.0 635 1882.0 643Q1882.0 651 1890.0 654.0Q1898.0 657 1911.0 657Q1924.0 657 1946.0 656.0Q1968.0 655 1993.5 653.5Q2019.0 652 2044.0 651.0Q2069.0 650 2088.0 650Q2096.0 650 2102.0 645.0Q2108.0 640 2110.0 633Q2116.0 614 2122.0 596.0Q2128.0 578 2135.0 558L2285.0 191Q2288.0 186 2293.0 185.5Q2298.0 185 2300.0 190L2461.0 548Q2468.0 577 2472.5 599.0Q2477.0 621 2481.0 634Q2484.0 647 2494.0 647H2535.0Q2573.0 649 2615.0 653.0Q2657.0 657 2680.0 657Q2688.0 657 2695.5 654.5Q2703.0 652 2703.0 644Q2703.0 636 2697.0 632.0Q2691.0 628 2679.0 623Q2671.0 621 2660.0 616.5Q2649.0 612 2641.0 608Q2620.0 599 2609.5 585.0Q2599.0 571 2600.0 545Q2601.0 474 2604.0 417.5Q2607.0 361 2609.5 311.5Q2612.0 262 2616.0 210.5Q2620.0 159 2623.0 97Q2625.0 69 2644.5 53.0Q2664.0 37 2697.0 29Q2709.0 26 2716.5 22.0Q2724.0 18 2724.0 10Q2724.0 3 2717.5 0.0Q2711.0 -3 2700.0 -3Q2677.0 -3 2652.0 -2.0Q2627.0 -1 2603.5 0.0Q2580.0 1 2559.0 1Q2539.0 1 2518.0 0.0Q2497.0 -1 2475.0 -2.5Q2453.0 -4 2429.0 -4Q2419.0 -4 2411.5 -0.5Q2404.0 3 2404.0 9Q2404.0 17 2411.5 22.0Q2419.0 27 2431.0 29Q2465.0 36 2478.5 50.0Q2492.0 64 2490.0 97Q2489.0 162 2487.0 222.0Q2485.0 282 2483.0 341.0Q2481.0 400 2478.0 460Q2477.0 468 2473.5 467.5Q2470.0 467 2466.0 459L2262.0 -1Q2258.0 -12 2249.0 -10.5Q2240.0 -9 2237.0 -1Q2191.0 115 2140.5 228.5Q2090.0 342 2041.0 459Q2038.0 467 2032.5 465.0Q2027.0 463 2026.0 454Q2021.0 398 2017.0 338.5Q2013.0 279 2012.0 220.0Q2011.0 161 2011.0 103Q2011.0 76 2028.5 57.0Q2046.0 38 2082.0 29Q2094.0 27 2102.5 22.5Q2111.0 18 2111.0 10Q2111.0 3 2103.0 0.0Q2095.0 -3 2085.0 -3Q2058.0 -3 2044.0 -2.0Q2030.0 -1 2018.0 0.0Q2006.0 1 1986.0 1Q1965.0 1 1946.5 0.0Q1928.0 -1 1912.0 -2.5Q1896.0 -4 1884.0 -4ZM2791.0 -4Q2782.0 -4 2775.0 -0.5Q2768.0 3 2768.0 9Q2768.0 24 2793.0 29Q2831.0 37 2848.0 51.0Q2865.0 65 2865.0 97V551Q2865.0 584 2851.0 598.0Q2837.0 612 2798.0 620Q2773.0 625 2773.0 641Q2773.0 647 2780.0 650.5Q2787.0 654 2796.0 654Q2820.0 654 2843.0 653.0Q2866.0 652 2887.5 651.0Q2909.0 650 2931.0 650Q2952.0 650 2973.5 651.0Q2995.0 652 3018.0 653.0Q3041.0 654 3065.0 654Q3075.0 654 3081.0 650.5Q3087.0 647 3087.0 640Q3087.0 632 3080.5 627.5Q3074.0 623 3062.0 620Q3022.0 610 3008.0 596.0Q2994.0 582 2994.0 550V98Q2994.0 67 3010.5 53.0Q3027.0 39 3065.0 29Q3078.0 26 3084.5 22.0Q3091.0 18 3091.0 10Q3091.0 3 3085.0 0.0Q3079.0 -3 3069.0 -3Q3045.0 -3 3021.0 -2.0Q2997.0 -1 2974.5 0.0Q2952.0 1 2931.0 1Q2909.0 1 2886.0 0.0Q2863.0 -1 2839.0 -2.5Q2815.0 -4 2791.0 -4ZM3321.0 -15Q3278.0 -15 3239.5 -4.0Q3201.0 7 3169.0 29Q3163.0 34 3158.0 39.5Q3153.0 45 3150.0 52Q3142.0 77 3139.0 113.5Q3136.0 150 3137.0 184Q3137.0 191 3142.5 194.0Q3148.0 197 3156.0 197Q3164.0 197 3168.5 194.5Q3173.0 192 3175.0 185Q3197.0 110 3239.0 68.0Q3281.0 26 3334.0 26Q3367.0 26 3390.0 41.0Q3413.0 56 3425.0 80.0Q3437.0 104 3437.0 132Q3437.0 167 3424.5 190.0Q3412.0 213 3387.0 231.5Q3362.0 250 3324.0 271Q3283.0 295 3244.0 321.5Q3205.0 348 3180.0 384.5Q3155.0 421 3155.0 475Q3155.0 531 3183.5 573.5Q3212.0 616 3263.0 640.0Q3314.0 664 3381.0 664Q3418.0 664 3450.0 656.0Q3482.0 648 3501.0 640Q3512.0 636 3517.5 630.0Q3523.0 624 3526.0 611Q3532.0 590 3536.5 561.0Q3541.0 532 3541.0 500Q3541.0 488 3523.0 488Q3515.0 488 3507.0 492.0Q3499.0 496 3497.0 503Q3479.0 561 3447.5 591.0Q3416.0 621 3370.0 621Q3339.0 621 3317.0 610.5Q3295.0 600 3282.0 578.5Q3269.0 557 3269.0 523Q3269.0 497 3286.5 475.0Q3304.0 453 3335.5 432.0Q3367.0 411 3406.0 386Q3454.0 358 3486.5 329.5Q3519.0 301 3536.0 266.5Q3553.0 232 3553.0 185Q3553.0 119 3524.0 74.5Q3495.0 30 3443.0 7.5Q3391.0 -15 3321.0 -15ZM3805.0 -15Q3762.0 -15 3723.5 -4.0Q3685.0 7 3653.0 29Q3647.0 34 3642.0 39.5Q3637.0 45 3634.0 52Q3626.0 77 3623.0 113.5Q3620.0 150 3621.0 184Q3621.0 191 3626.5 194.0Q3632.0 197 3640.0 197Q3648.0 197 3652.5 194.5Q3657.0 192 3659.0 185Q3681.0 110 3723.0 68.0Q3765.0 26 3818.0 26Q3851.0 26 3874.0 41.0Q3897.0 56 3909.0 80.0Q3921.0 104 3921.0 132Q3921.0 167 3908.5 190.0Q3896.0 213 3871.0 231.5Q3846.0 250 3808.0 271Q3767.0 295 3728.0 321.5Q3689.0 348 3664.0 384.5Q3639.0 421 3639.0 475Q3639.0 531 3667.5 573.5Q3696.0 616 3747.0 640.0Q3798.0 664 3865.0 664Q3902.0 664 3934.0 656.0Q3966.0 648 3985.0 640Q3996.0 636 4001.5 630.0Q4007.0 624 4010.0 611Q4016.0 590 4020.5 561.0Q4025.0 532 4025.0 500Q4025.0 488 4007.0 488Q3999.0 488 3991.0 492.0Q3983.0 496 3981.0 503Q3963.0 561 3931.5 591.0Q3900.0 621 3854.0 621Q3823.0 621 3801.0 610.5Q3779.0 600 3766.0 578.5Q3753.0 557 3753.0 523Q3753.0 497 3770.5 475.0Q3788.0 453 3819.5 432.0Q3851.0 411 3890.0 386Q3938.0 358 3970.5 329.5Q4003.0 301 4020.0 266.5Q4037.0 232 4037.0 185Q4037.0 119 4008.0 74.5Q3979.0 30 3927.0 7.5Q3875.0 -15 3805.0 -15ZM4115.0 -4Q4106.0 -4 4099.0 -0.5Q4092.0 3 4092.0 9Q4092.0 24 4117.0 29Q4155.0 37 4172.0 51.0Q4189.0 65 4189.0 97V551Q4189.0 584 4175.0 598.0Q4161.0 612 4122.0 620Q4097.0 625 4097.0 641Q4097.0 647 4104.0 650.5Q4111.0 654 4120.0 654Q4144.0 654 4167.0 653.0Q4190.0 652 4211.5 651.0Q4233.0 650 4255.0 650Q4276.0 650 4297.5 651.0Q4319.0 652 4342.0 653.0Q4365.0 654 4389.0 654Q4399.0 654 4405.0 650.5Q4411.0 647 4411.0 640Q4411.0 632 4404.5 627.5Q4398.0 623 4386.0 620Q4346.0 610 4332.0 596.0Q4318.0 582 4318.0 550V98Q4318.0 67 4334.5 53.0Q4351.0 39 4389.0 29Q4402.0 26 4408.5 22.0Q4415.0 18 4415.0 10Q4415.0 3 4409.0 0.0Q4403.0 -3 4393.0 -3Q4369.0 -3 4345.0 -2.0Q4321.0 -1 4298.5 0.0Q4276.0 1 4255.0 1Q4233.0 1 4210.0 0.0Q4187.0 -1 4163.0 -2.5Q4139.0 -4 4115.0 -4ZM4807.0 -14Q4739.0 -14 4677.0 9.5Q4615.0 33 4567.5 76.5Q4520.0 120 4492.5 180.5Q4465.0 241 4465.0 315Q4465.0 383 4487.5 445.5Q4510.0 508 4554.5 557.0Q4599.0 606 4664.5 635.0Q4730.0 664 4816.0 664Q4884.0 664 4945.5 640.5Q5007.0 617 5055.0 573.5Q5103.0 530 5130.5 469.5Q5158.0 409 5158.0 335Q5158.0 268 5135.5 205.0Q5113.0 142 5068.5 93.0Q5024.0 44 4958.5 15.0Q4893.0 -14 4807.0 -14ZM4824.0 30Q4887.0 30 4929.5 62.0Q4972.0 94 4993.5 151.5Q5015.0 209 5015.0 284Q5015.0 348 5002.0 408.0Q4989.0 468 4962.0 515.5Q4935.0 563 4894.5 591.0Q4854.0 619 4798.0 619Q4735.0 619 4692.5 587.0Q4650.0 555 4629.0 498.0Q4608.0 441 4608.0 366Q4608.0 302 4621.0 242.0Q4634.0 182 4660.5 134.0Q4687.0 86 4727.5 58.0Q4768.0 30 4824.0 30ZM5868.0 -18Q5856.0 -18 5828.0 -3.0Q5800.0 12 5771.0 49Q5754.0 68 5729.5 95.5Q5705.0 123 5675.5 156.0Q5646.0 189 5614.0 225.0Q5582.0 261 5550.5 297.0Q5519.0 333 5489.0 366.0Q5459.0 399 5434.0 426.5Q5409.0 454 5392.0 474Q5388.0 479 5383.5 482.5Q5379.0 486 5376.0 486Q5372.0 486 5370.0 479.0Q5368.0 472 5368.0 466Q5368.0 420 5368.5 357.0Q5369.0 294 5369.0 229.0Q5369.0 164 5369.0 109Q5369.0 78 5387.0 58.0Q5405.0 38 5444.0 29Q5456.0 27 5464.5 22.5Q5473.0 18 5473.0 10Q5473.0 3 5465.0 0.0Q5457.0 -3 5447.0 -3Q5420.0 -3 5404.0 -2.0Q5388.0 -1 5375.0 0.0Q5362.0 1 5342.0 1Q5321.0 1 5304.5 0.0Q5288.0 -1 5275.0 -2.5Q5262.0 -4 5250.0 -4Q5240.0 -4 5232.0 -0.5Q5224.0 3 5224.0 9Q5224.0 17 5231.5 21.5Q5239.0 26 5252.0 30Q5278.0 38 5290.5 59.5Q5303.0 81 5306.0 111Q5310.0 149 5314.0 210.5Q5318.0 272 5321.5 349.0Q5325.0 426 5325.0 508Q5325.0 560 5298.5 583.0Q5272.0 606 5232.0 620Q5225.0 622 5214.0 628.0Q5203.0 634 5203.0 643Q5203.0 652 5211.0 655.0Q5219.0 658 5228.0 658Q5249.0 658 5270.0 657.0Q5291.0 656 5312.5 655.5Q5334.0 655 5357.5 654.0Q5381.0 653 5408.0 653Q5417.0 653 5421.5 649.5Q5426.0 646 5430.0 640Q5446.0 621 5471.0 592.5Q5496.0 564 5525.5 529.5Q5555.0 495 5587.5 457.0Q5620.0 419 5652.5 381.0Q5685.0 343 5715.0 308.5Q5745.0 274 5769.5 245.5Q5794.0 217 5810.0 199Q5814.0 195 5819.5 189.0Q5825.0 183 5829.0 183Q5837.0 183 5838.0 200Q5838.0 226 5838.0 266.5Q5838.0 307 5838.5 356.5Q5839.0 406 5838.5 458.0Q5838.0 510 5837.0 558Q5836.0 583 5816.5 597.5Q5797.0 612 5768.0 618Q5756.0 621 5745.5 625.5Q5735.0 630 5735.0 639Q5735.0 646 5745.5 649.0Q5756.0 652 5765.0 652Q5785.0 652 5798.5 652.0Q5812.0 652 5824.0 651.5Q5836.0 651 5849.0 651Q5871.0 651 5885.0 651.5Q5899.0 652 5915.5 653.0Q5932.0 654 5959.0 654Q5971.0 654 5978.5 650.5Q5986.0 647 5986.0 641Q5986.0 626 5957.0 620Q5922.0 613 5907.5 601.0Q5893.0 589 5892.0 561Q5892.0 536 5891.5 497.0Q5891.0 458 5890.0 412.0Q5889.0 366 5887.5 318.0Q5886.0 270 5885.5 224.0Q5885.0 178 5885.0 141Q5885.0 117 5887.0 92.0Q5889.0 67 5891.5 47.5Q5894.0 28 5894.0 20Q5894.0 -2 5887.0 -10.0Q5880.0 -18 5868.0 -18Z" transform="matrix(0.022120 0 0 -0.022120 83.47 391.01)" fill="#15130f"/></svg>