<svg xmlns="http://www.w3.org/2000/svg" viewBox="0 0 300 446"><rect width="300" height="446" fill="#f4ecd8"/><rect x="20.0" y="25.5" width="260" height="395" rx="20.3" fill="#f4ecd8" stroke="#15130f" stroke-width="1.5"/><rect x="36.9" y="42.4" width="226.2" height="354.7" fill="none" stroke="#15130f" stroke-width="0.7"/><path d="M36.9,370.6 H263.1 V397.1 H36.9 Z" fill="#e7bfd0"/><g fill="none" stroke="#15130f" stroke-width="0.8"><line x1="36.9" y1="370.6" x2="263.1" y2="370.6"/><line x1="61.6" y1="370.6" x2="61.6" y2="397.1"/><line x1="238.4" y1="370.6" x2="238.4" y2="397.1"/></g><rect x="141.4" y="34.4" width="17.2" height="19.0" fill="#e7bfd0" stroke="#15130f" stroke-width="0.8"/><path d="M853.0 1316Q873.0 1316 875.0 1308L880.0 1293L883.0 1279Q881.0 1265 840.0 1259Q750.0 1244 640.0 1176.5Q530.0 1109 463.0 1027Q420.0 973 377.5 882.5Q335.0 792 335.0 753Q335.0 727 354.0 728Q367.0 729 385.0 742Q435.0 777 512.0 803.0Q589.0 829 645.0 829Q781.0 829 874.5 722.0Q968.0 615 968.0 459Q968.0 243 841.0 108.0Q714.0 -27 511.0 -27Q313.0 -27 187.5 122.5Q62.0 272 62.0 508Q62.0 756 224.0 971.5Q386.0 1187 633.0 1268Q779.0 1316 853.0 1316ZM501.0 715Q402.0 715 337.5 638.5Q273.0 562 273.0 445Q273.0 284 361.5 159.5Q450.0 35 565.0 35Q658.0 35 715.0 113.0Q772.0 191 772.0 318Q772.0 497 697.5 606.0Q623.0 715 501.0 715Z" transform="matrix(0.006858 0 0 -0.006858 146.47 49.10)" fill="#15130f"/><path d="M250.0 950Q250.0 859 278.0 774.5Q306.0 690 358.5 645.0Q411.0 600 467.0 600Q524.0 600 576.5 645.0Q629.0 690 657.0 774.5Q685.0 859 685.0 950Q685.0 1051 657.0 1135.5Q629.0 1220 576.5 1265.0Q524.0 1310 467.0 1310Q411.0 1310 358.5 1265.0Q306.0 1220 278.0 1135.5Q250.0 1051 250.0 950ZM368.0 513Q312.0 527 259.0 558Q158.0 616 104.0 724.5Q50.0 833 50.0 950Q50.0 1077 104.0 1185.5Q158.0 1294 258.5 1352.0Q359.0 1410 467.0 1410Q576.0 1410 676.5 1352.0Q777.0 1294 831.0 1185.5Q885.0 1077 885.0 950Q885.0 833 831.0 724.5Q777.0 616 677.0 558Q623.0 527 568.0 513V350H785.0V250H568.0V170Q568.0 120 593.0 80.0Q618.0 40 688.0 40H738.0V0H198.0V40H248.0Q318.0 40 343.0 80.0Q368.0 120 368.0 170V250H150.0V350H368.0Z" transform="matrix(0.009268 0 0 -0.009268 44.92 390.40)" fill="#15130f"/><path d="M1450.0 635V-198Q1651.0 -179 1769.0 -4Q1900.0 191 1900.0 410Q1900.0 633 1769.0 827Q1742.0 865 1711.0 896ZM1259.0 -187Q1250.0 -126 1250.0 -52V1067Q1250.0 1212 1241.5 1255.5Q1233.0 1299 1212.5 1317.5Q1192.0 1336 1168.0 1336L938.0 1106Q950.0 1037 950.0 952V0H750.0V1067Q750.0 1212 741.5 1255.5Q733.0 1299 712.5 1317.5Q692.0 1336 668.0 1336L438.0 1106Q450.0 1037 450.0 952V0H50.0V40H100.0Q170.0 40 210.0 95.0Q250.0 150 250.0 200V1067Q250.0 1212 241.5 1255.5Q233.0 1299 212.5 1317.5Q192.0 1336 168.0 1336V1410Q284.0 1392 358.0 1301Q387.0 1264 408.0 1216L602.0 1410H668.0Q784.0 1392 858.0 1301Q887.0 1264 908.0 1216L1102.0 1410H1168.0Q1284.0 1392 1358.0 1301Q1450.0 1187 1450.0 952V775L1726.0 1051Q1824.0 1007 1908.0 915Q2100.0 710 2100.0 410Q2100.0 109 1906.0 -95Q1729.0 -282 1453.0 -298Q1455.0 -337 1459.0 -355Q1467.0 -399 1487.5 -417.5Q1508.0 -436 1532.0 -436V-510Q1416.0 -491 1343.0 -401Q1305.0 -354 1282.0 -286Q1118.0 -247 974.0 -95Q963.0 -83 952.0 -71L977.0 -36Q1088.0 -154 1259.0 -187Z" transform="matrix(0.008916 0 0 -0.008916 241.17 387.88)" fill="#15130f"/><path d="M379.0 -7Q352.0 -7 314.0 -5.0Q276.0 -3 237.5 -1.5Q199.0 0 174.0 0Q154.0 0 133.5 -0.5Q113.0 -1 91.0 -2.5Q69.0 -4 44.0 -4Q35.0 -4 28.0 -0.5Q21.0 3 21.0 10Q21.0 19 27.5 23.0Q34.0 27 47.0 29Q85.0 37 99.0 51.0Q113.0 65 113.0 98V550Q113.0 584 99.5 598.0Q86.0 612 47.0 620Q34.0 622 27.5 626.5Q21.0 631 21.0 640Q21.0 647 28.0 650.5Q35.0 654 44.0 654Q68.0 654 90.0 653.5Q112.0 653 133.5 651.5Q155.0 650 177.0 650Q192.0 650 217.5 651.5Q243.0 653 272.5 654.5Q302.0 656 328.0 657.5Q354.0 659 370.0 659Q454.0 659 521.0 635.0Q588.0 611 635.5 568.0Q683.0 525 708.0 466.0Q733.0 407 733.0 338Q733.0 269 708.0 207.0Q683.0 145 636.5 97.0Q590.0 49 524.5 21.0Q459.0 -7 379.0 -7ZM364.0 39Q436.0 39 486.5 73.5Q537.0 108 563.0 170.5Q589.0 233 589.0 315Q589.0 383 571.5 438.5Q554.0 494 522.5 532.5Q491.0 571 447.5 592.0Q404.0 613 353.0 613Q317.0 613 292.5 611.0Q268.0 609 255.5 599.5Q243.0 590 243.0 568V128Q243.0 93 258.5 73.5Q274.0 54 301.5 46.5Q329.0 39 364.0 39ZM802.0 -4Q793.0 -4 786.0 -0.5Q779.0 3 779.0 9Q779.0 24 804.0 29Q842.0 37 859.0 51.0Q876.0 65 876.0 97V551Q876.0 584 862.0 598.0Q848.0 612 809.0 620Q784.0 625 784.0 641Q784.0 647 791.0 650.5Q798.0 654 807.0 654Q831.0 654 854.0 653.0Q877.0 652 898.5 651.0Q920.0 650 942.0 650Q963.0 650 984.5 651.0Q1006.0 652 1029.0 653.0Q1052.0 654 1076.0 654Q1086.0 654 1092.0 650.5Q1098.0 647 1098.0 640Q1098.0 632 1091.5 627.5Q1085.0 623 1073.0 620Q1033.0 610 1019.0 596.0Q1005.0 582 1005.0 550V98Q1005.0 67 1021.5 53.0Q1038.0 39 1076.0 29Q1089.0 26 1095.5 22.0Q1102.0 18 1102.0 10Q1102.0 3 1096.0 0.0Q1090.0 -3 1080.0 -3Q1056.0 -3 1032.0 -2.0Q1008.0 -1 985.5 0.0Q963.0 1 942.0 1Q920.0 1 897.0 0.0Q874.0 -1 850.0 -2.5Q826.0 -4 802.0 -4ZM1332.0 -15Q1289.0 -15 1250.5 -4.0Q1212.0 7 1180.0 29Q1174.0 34 1169.0 39.5Q1164.0 45 1161.0 52Q1153.0 77 1150.0 113.5Q1147.0 150 1148.0 184Q1148.0 191 1153.5 194.0Q1159.0 197 1167.0 197Q1175.0 197 1179.5 194.5Q1184.0 192 1186.0 185Q1208.0 110 1250.0 68.0Q1292.0 26 1345.0 26Q1378.0 26 1401.0 41.0Q1424.0 56 1436.0 80.0Q1448.0 104 1448.0 132Q1448.0 167 1435.5 190.0Q1423.0 213 1398.0 231.5Q1373.0 250 1335.0 271Q1294.0 295 1255.0 321.5Q1216.0 348 1191.0 384.5Q1166.0 421 1166.0 475Q1166.0 531 1194.5 573.5Q1223.0 616 1274.0 640.0Q1325.0 664 1392.0 664Q1429.0 664 1461.0 656.0Q1493.0 648 1512.0 640Q1523.0 636 1528.5 630.0Q1534.0 624 1537.0 611Q1543.0 590 1547.5 561.0Q1552.0 532 1552.0 500Q1552.0 488 1534.0 488Q1526.0 488 1518.0 492.0Q1510.0 496 1508.0 503Q1490.0 561 1458.5 591.0Q1427.0 621 1381.0 621Q1350.0 621 1328.0 610.5Q1306.0 600 1293.0 578.5Q1280.0 557 1280.0 523Q1280.0 497 1297.5 475.0Q1315.0 453 1346.5 432.0Q1378.0 411 1417.0 386Q1465.0 358 1497.5 329.5Q1530.0 301 1547.0 266.5Q1564.0 232 1564.0 185Q1564.0 119 1535.0 74.5Q1506.0 30 1454.0 7.5Q1402.0 -15 1332.0 -15ZM2007.0 -14Q1932.0 -14 1865.0 9.5Q1798.0 33 1746.5 77.0Q1695.0 121 1665.5 182.5Q1636.0 244 1636.0 319Q1636.0 389 1665.0 451.0Q1694.0 513 1747.0 561.0Q1800.0 609 1873.5 636.5Q1947.0 664 2035.0 664Q2069.0 664 2099.5 659.5Q2130.0 655 2159.0 648.5Q2188.0 642 2216.0 632Q2227.0 628 2233.5 621.0Q2240.0 614 2241.0 602Q2245.0 572 2247.0 542.5Q2249.0 513 2249.0 484Q2250.0 474 2242.0 469.5Q2234.0 465 2225.0 468.5Q2216.0 472 2212.0 483Q2204.0 511 2193.5 535.5Q2183.0 560 2162.0 577Q2139.0 596 2104.0 607.5Q2069.0 619 2022.0 619Q1968.0 619 1924.0 597.0Q1880.0 575 1848.5 536.0Q1817.0 497 1800.0 448.0Q1783.0 399 1783.0 345Q1783.0 281 1798.5 224.0Q1814.0 167 1845.5 123.5Q1877.0 80 1922.0 55.5Q1967.0 31 2025.0 31Q2099.0 31 2145.0 63.0Q2191.0 95 2223.0 158Q2231.0 174 2245.0 173.5Q2259.0 173 2259.0 157Q2259.0 145 2256.0 127.0Q2253.0 109 2247.5 88.5Q2242.0 68 2235.0 48Q2231.0 36 2225.0 30.0Q2219.0 24 2207.0 19Q2169.0 3 2117.5 -5.5Q2066.0 -14 2007.0 -14ZM2953.0 -21Q2910.0 -21 2878.0 -11.5Q2846.0 -2 2823.0 16.0Q2800.0 34 2781.0 58Q2759.0 88 2738.0 116.5Q2717.0 145 2695.5 179.5Q2674.0 214 2648.0 262Q2635.0 285 2615.0 296Q2602.0 303 2588.5 306.0Q2575.0 309 2566.0 309Q2560.0 310 2557.0 304.0Q2554.0 298 2554.0 289V103Q2554.0 72 2570.5 55.0Q2587.0 38 2627.0 29Q2640.0 27 2646.0 22.5Q2652.0 18 2652.0 10Q2652.0 3 2646.5 0.0Q2641.0 -3 2630.0 -3Q2607.0 -3 2583.0 -1.5Q2559.0 0 2536.5 1.0Q2514.0 2 2494.0 2Q2472.0 2 2448.5 1.0Q2425.0 0 2401.0 -2.0Q2377.0 -4 2353.0 -4Q2344.0 -4 2337.0 -0.5Q2330.0 3 2330.0 9Q2330.0 24 2355.0 29Q2393.0 37 2409.0 51.0Q2425.0 65 2425.0 98V540Q2425.0 569 2420.5 584.5Q2416.0 600 2403.0 608.0Q2390.0 616 2364.0 620Q2350.0 622 2344.0 628.0Q2338.0 634 2338.0 640Q2338.0 647 2344.5 650.5Q2351.0 654 2362.0 654Q2392.0 654 2410.0 653.0Q2428.0 652 2444.5 650.5Q2461.0 649 2484.0 649Q2506.0 649 2523.0 651.0Q2540.0 653 2561.0 655.0Q2582.0 657 2615.0 657Q2730.0 657 2791.0 617.0Q2852.0 577 2852.0 495Q2852.0 450 2833.0 418.5Q2814.0 387 2785.5 367.0Q2757.0 347 2727.0 336Q2723.0 335 2723.5 331.0Q2724.0 327 2727.0 324Q2757.0 278 2785.5 236.5Q2814.0 195 2845.5 158.0Q2877.0 121 2914.0 87Q2945.0 58 2977.5 52.5Q3010.0 47 3045.0 47Q3060.0 47 3060.0 32Q3060.0 12 3045.0 0.5Q3030.0 -11 3005.5 -16.0Q2981.0 -21 2953.0 -21ZM2597.0 338Q2638.0 338 2665.5 356.5Q2693.0 375 2707.5 406.0Q2722.0 437 2722.0 475Q2722.0 520 2711.0 551.5Q2700.0 583 2673.5 600.5Q2647.0 618 2601.0 618Q2575.0 618 2565.5 599.5Q2556.0 581 2555.0 525Q2554.0 502 2554.0 464.5Q2554.0 427 2554.0 375Q2554.0 353 2565.5 345.5Q2577.0 338 2597.0 338ZM3095.0 -4Q3086.0 -4 3079.0 -0.5Q3072.0 3 3072.0 9Q3072.0 24 3097.0 29Q3135.0 37 3152.0 51.0Q3169.0 65 3169.0 97V551Q3169.0 584 3155.0 598.0Q3141.0 612 3102.0 620Q3077.0 625 3077.0 641Q3077.0 647 3084.0 650.5Q3091.0 654 3100.0 654Q3124.0 654 3147.0 653.0Q3170.0 652 3191.5 651.0Q3213.0 650 3235.0 650Q3256.0 650 3277.5 651.0Q3299.0 652 3322.0 653.0Q3345.0 654 3369.0 654Q3379.0 654 3385.0 650.5Q3391.0 647 3391.0 640Q3391.0 632 3384.5 627.5Q3378.0 623 3366.0 620Q3326.0 610 3312.0 596.0Q3298.0 582 3298.0 550V98Q3298.0 67 3314.5 53.0Q3331.0 39 3369.0 29Q3382.0 26 3388.5 22.0Q3395.0 18 3395.0 10Q3395.0 3 3389.0 0.0Q3383.0 -3 3373.0 -3Q3349.0 -3 3325.0 -2.0Q3301.0 -1 3278.5 0.0Q3256.0 1 3235.0 1Q3213.0 1 3190.0 0.0Q3167.0 -1 3143.0 -2.5Q3119.0 -4 3095.0 -4ZM3456.0 -4Q3444.0 -4 3437.5 -0.5Q3431.0 3 3431.0 9Q3431.0 17 3439.5 20.5Q3448.0 24 3460.0 27Q3484.0 34 3501.0 54.0Q3518.0 74 3522.0 106Q3530.0 167 3537.5 239.0Q3545.0 311 3551.5 384.0Q3558.0 457 3562.0 521Q3562.0 528 3562.0 537.0Q3562.0 546 3562.0 555Q3561.0 570 3556.5 579.5Q3552.0 589 3541.0 597Q3527.0 607 3512.0 612.5Q3497.0 618 3478.0 622Q3467.0 624 3460.5 629.5Q3454.0 635 3454.0 643Q3454.0 651 3462.0 654.0Q3470.0 657 3483.0 657Q3496.0 657 3518.0 656.0Q3540.0 655 3565.5 653.5Q3591.0 652 3616.0 651.0Q3641.0 650 3660.0 650Q3668.0 650 3674.0 645.0Q3680.0 640 3682.0 633Q3688.0 614 3694.0 596.0Q3700.0 578 3707.0 558L3857.0 191Q3860.0 186 3865.0 185.5Q3870.0 185 3872.0 190L4033.0 548Q4040.0 577 4044.5 599.0Q4049.0 621 4053.0 634Q4056.0 647 4066.0 647H4107.0Q4145.0 649 4187.0 653.0Q4229.0 657 4252.0 657Q4260.0 657 4267.5 654.5Q4275.0 652 4275.0 644Q4275.0 636 4269.0 632.0Q4263.0 628 4251.0 623Q4243.0 621 4232.0 616.5Q4221.0 612 4213.0 608Q4192.0 599 4181.5 585.0Q4171.0 571 4172.0 545Q4173.0 474 4176.0 417.5Q4179.0 361 4181.5 311.5Q4184.0 262 4188.0 210.5Q4192.0 159 4195.0 97Q4197.0 69 4216.5 53.0Q4236.0 37 4269.0 29Q4281.0 26 4288.5 22.0Q4296.0 18 4296.0 10Q4296.0 3 4289.5 0.0Q4283.0 -3 4272.0 -3Q4249.0 -3 4224.0 -2.0Q4199.0 -1 4175.5 0.0Q4152.0 1 4131.0 1Q4111.0 1 4090.0 0.0Q4069.0 -1 4047.0 -2.5Q4025.0 -4 4001.0 -4Q3991.0 -4 3983.5 -0.5Q3976.0 3 3976.0 9Q3976.0 17 3983.5 22.0Q3991.0 27 4003.0 29Q4037.0 36 4050.5 50.0Q4064.0 64 4062.0 97Q4061.0 162 4059.0 222.0Q4057.0 282 4055.0 341.0Q4053.0 400 4050.0 460Q4049.0 468 4045.5 467.5Q4042.0 467 4038.0 459L3834.0 -1Q3830.0 -12 3821.0 -10.5Q3812.0 -9 3809.0 -1Q3763.0 115 3712.5 228.5Q3662.0 342 3613.0 459Q3610.0 467 3604.5 465.0Q3599.0 463 3598.0 454Q3593.0 398 3589.0 338.5Q3585.0 279 3584.0 220.0Q3583.0 161 3583.0 103Q3583.0 76 3600.5 57.0Q3618.0 38 3654.0 29Q3666.0 27 3674.5 22.5Q3683.0 18 3683.0 10Q3683.0 3 3675.0 0.0Q3667.0 -3 3657.0 -3Q3630.0 -3 3616.0 -2.0Q3602.0 -1 3590.0 0.0Q3578.0 1 3558.0 1Q3537.0 1 3518.5 0.0Q3500.0 -1 3484.0 -2.5Q3468.0 -4 3456.0 -4ZM4363.0 -4Q4354.0 -4 4347.0 -0.5Q4340.0 3 4340.0 9Q4340.0 24 4365.0 29Q4403.0 37 4420.0 51.0Q4437.0 65 4437.0 97V551Q4437.0 584 4423.0 598.0Q4409.0 612 4370.0 620Q4345.0 625 4345.0 641Q4345.0 647 4352.0 650.5Q4359.0 654 4368.0 654Q4392.0 654 4415.0 653.0Q4438.0 652 4459.5 651.0Q4481.0 650 4503.0 650Q4524.0 650 4545.5 651.0Q4567.0 652 4590.0 653.0Q4613.0 654 4637.0 654Q4647.0 654 4653.0 650.5Q4659.0 647 4659.0 640Q4659.0 632 4652.5 627.5Q4646.0 623 4634.0 620Q4594.0 610 4580.0 596.0Q4566.0 582 4566.0 550V98Q4566.0 67 4582.5 53.0Q4599.0 39 4637.0 29Q4650.0 26 4656.5 22.0Q4663.0 18 4663.0 10Q4663.0 3 4657.0 0.0Q4651.0 -3 4641.0 -3Q4617.0 -3 4593.0 -2.0Q4569.0 -1 4546.5 0.0Q4524.0 1 4503.0 1Q4481.0 1 4458.0 0.0Q4435.0 -1 4411.0 -2.5Q4387.0 -4 4363.0 -4ZM5355.0 -18Q5343.0 -18 5315.0 -3.0Q5287.0 12 5258.0 49Q5241.0 68 5216.5 95.5Q5192.0 123 5162.5 156.0Q5133.0 189 5101.0 225.0Q5069.0 261 5037.5 297.0Q5006.0 333 4976.0 366.0Q4946.0 399 4921.0 426.5Q4896.0 454 4879.0 474Q4875.0 479 4870.5 482.5Q4866.0 486 4863.0 486Q4859.0 486 4857.0 479.0Q4855.0 472 4855.0 466Q4855.0 420 4855.5 357.0Q4856.0 294 4856.0 229.0Q4856.0 164 4856.0 109Q4856.0 78 4874.0 58.0Q4892.0 38 4931.0 29Q4943.0 27 4951.5 22.5Q4960.0 18 4960.0 10Q4960.0 3 4952.0 0.0Q4944.0 -3 4934.0 -3Q4907.0 -3 4891.0 -2.0Q4875.0 -1 4862.0 0.0Q4849.0 1 4829.0 1Q4808.0 1 4791.5 0.0Q4775.0 -1 4762.0 -2.5Q4749.0 -4 4737.0 -4Q4727.0 -4 4719.0 -0.5Q4711.0 3 4711.0 9Q4711.0 17 4718.5 21.5Q4726.0 26 4739.0 30Q4765.0 38 4777.5 59.5Q4790.0 81 4793.0 111Q4797.0 149 4801.0 210.5Q4805.0 272 4808.5 349.0Q4812.0 426 4812.0 508Q4812.0 560 4785.5 583.0Q4759.0 606 4719.0 620Q4712.0 622 4701.0 628.0Q4690.0 634 4690.0 643Q4690.0 652 4698.0 655.0Q4706.0 658 4715.0 658Q4736.0 658 4757.0 657.0Q4778.0 656 4799.5 655.5Q4821.0 655 4844.5 654.0Q4868.0 653 4895.0 653Q4904.0 653 4908.5 649.5Q4913.0 646 4917.0 640Q4933.0 621 4958.0 592.5Q4983.0 564 5012.5 529.5Q5042.0 495 5074.5 457.0Q5107.0 419 5139.5 381.0Q5172.0 343 5202.0 308.5Q5232.0 274 5256.5 245.5Q5281.0 217 5297.0 199Q5301.0 195 5306.5 189.0Q5312.0 183 5316.0 183Q5324.0 183 5325.0 200Q5325.0 226 5325.0 266.5Q5325.0 307 5325.5 356.5Q5326.0 406 5325.5 458.0Q5325.0 510 5324.0 558Q5323.0 583 5303.5 597.5Q5284.0 612 5255.0 618Q5243.0 621 5232.5 625.5Q5222.0 630 5222.0 639Q5222.0 646 5232.5 649.0Q5243.0 652 5252.0 652Q5272.0 652 5285.5 652.0Q5299.0 652 5311.0 651.5Q5323.0 651 5336.0 651Q5358.0 651 5372.0 651.5Q5386.0 652 5402.5 653.0Q5419.0 654 5446.0 654Q5458.0 654 5465.5 650.5Q5473.0 647 5473.0 641Q5473.0 626 5444.0 620Q5409.0 613 5394.5 601.0Q5380.0 589 5379.0 561Q5379.0 536 5378.5 497.0Q5378.0 458 5377.0 412.0Q5376.0 366 5374.5 318.0Q5373.0 270 5372.5 224.0Q5372.0 178 5372.0 141Q5372.0 117 5374.0 92.0Q5376.0 67 5378.5 47.5Q5381.0 28 5381.0 20Q5381.0 -2 5374.0 -10.0Q5367.0 -18 5355.0 -18ZM5507.0 -5Q5495.0 -5 5487.0 -1.5Q5479.0 2 5479.0 10Q5479.0 19 5486.5 24.0Q5494.0 29 5506.0 33Q5535.0 41 5556.5 57.5Q5578.0 74 5591.0 103Q5616.0 162 5639.0 216.5Q5662.0 271 5683.0 325.0Q5704.0 379 5725.5 435.0Q5747.0 491 5769.0 553Q5780.0 584 5784.0 601.0Q5788.0 618 5791.0 626Q5806.0 630 5819.0 634.0Q5832.0 638 5848.0 644Q5862.0 651 5872.0 662.0Q5882.0 673 5887.0 679Q5890.0 681 5893.0 681.5Q5896.0 682 5899.0 677Q5902.0 671 5904.0 665.0Q5906.0 659 5908.0 652Q5930.0 581 5953.5 508.5Q5977.0 436 6000.0 365.5Q6023.0 295 6044.5 230.5Q6066.0 166 6084.0 112Q6093.0 85 6106.5 69.0Q6120.0 53 6136.5 44.5Q6153.0 36 6173.0 31Q6186.0 28 6193.0 23.0Q6200.0 18 6200.0 9Q6200.0 3 6193.5 0.0Q6187.0 -3 6177.0 -3Q6159.0 -3 6131.5 -2.0Q6104.0 -1 6075.0 0.5Q6046.0 2 6023.0 2Q6003.0 2 5978.5 1.0Q5954.0 0 5929.5 -1.0Q5905.0 -2 5888.0 -2Q5878.0 -2 5870.5 1.5Q5863.0 5 5863.0 12Q5863.0 20 5871.0 25.5Q5879.0 31 5890.0 33Q5926.0 39 5942.0 51.5Q5958.0 64 5954.0 88Q5951.0 105 5945.0 128.5Q5939.0 152 5932.5 177.5Q5926.0 203 5919.0 224Q5917.0 232 5913.0 235.5Q5909.0 239 5898.0 239H5718.0Q5711.0 239 5707.0 234.5Q5703.0 230 5701.0 221Q5697.0 208 5691.5 191.5Q5686.0 175 5680.5 157.5Q5675.0 140 5670.5 125.0Q5666.0 110 5664.0 99Q5659.0 72 5673.5 56.5Q5688.0 41 5724.0 32Q5751.0 25 5751.0 11Q5751.0 5 5744.5 1.5Q5738.0 -2 5726.0 -2Q5703.0 -2 5678.0 -0.5Q5653.0 1 5623.0 1Q5593.0 1 5564.5 -2.0Q5536.0 -5 5507.0 -5ZM5745.0 285H5884.0Q5898.0 285 5898.0 291Q5898.0 294 5897.5 296.0Q5897.0 298 5896.0 302L5826.0 533Q5822.0 547 5819.0 547Q5817.0 547 5812.0 534L5728.0 302Q5726.0 297 5726.0 294Q5726.0 289 5731.5 287.0Q5737.0 285 5745.0 285ZM6403.0 -4Q6393.0 -4 6385.5 -0.5Q6378.0 3 6378.0 9Q6378.0 17 6385.0 22.0Q6392.0 27 6405.0 29Q6443.0 37 6461.0 51.5Q6479.0 66 6479.0 99V504Q6479.0 545 6477.0 566.0Q6475.0 587 6471.5 594.5Q6468.0 602 6461.0 603Q6451.0 607 6436.0 608.0Q6421.0 609 6407.0 609H6376.0Q6347.0 609 6320.0 595.5Q6293.0 582 6278.0 559Q6274.0 553 6265.5 542.0Q6257.0 531 6247.5 522.0Q6238.0 513 6228.0 513Q6221.0 513 6218.5 518.0Q6216.0 523 6216.0 529Q6216.0 541 6222.0 553Q6239.0 587 6247.5 612.5Q6256.0 638 6259.0 673Q6261.0 688 6267.5 692.5Q6274.0 697 6281.0 697Q6287.0 697 6295.5 684.5Q6304.0 672 6311.0 664Q6320.0 655 6343.0 650.5Q6366.0 646 6382.0 646L6751.0 647Q6779.0 647 6798.0 651.5Q6817.0 656 6828.0 661Q6843.0 670 6852.0 679.5Q6861.0 689 6873.0 689Q6878.0 689 6880.5 683.5Q6883.0 678 6883.0 670Q6883.0 665 6882.0 658.5Q6881.0 652 6880.0 647Q6876.0 628 6872.0 613.5Q6868.0 599 6865.5 586.5Q6863.0 574 6863.0 558V541Q6863.0 527 6859.0 517.0Q6855.0 507 6846.0 507Q6838.0 507 6832.5 516.5Q6827.0 526 6821.0 546Q6812.0 578 6791.0 593.5Q6770.0 609 6725.0 609H6657.0Q6638.0 609 6627.5 602.0Q6617.0 595 6612.5 571.5Q6608.0 548 6608.0 499V100Q6608.0 68 6626.0 53.5Q6644.0 39 6683.0 29Q6695.0 26 6702.0 22.0Q6709.0 18 6709.0 10Q6709.0 3 6702.5 0.0Q6696.0 -3 6686.0 -3Q6662.0 -3 6638.0 -2.0Q6614.0 -1 6590.5 0.0Q6567.0 1 6545.0 1Q6523.0 1 6499.5 0.0Q6476.0 -1 6451.5 -2.5Q6427.0 -4 6403.0 -4ZM6921.0 -4Q6912.0 -4 6905.0 -0.5Q6898.0 3 6898.0 9Q6898.0 24 6923.0 29Q6961.0 37 6978.0 51.0Q6995.0 65 6995.0 97V551Q6995.0 584 6981.0 598.0Q6967.0 612 6928.0 620Q6903.0 625 6903.0 641Q6903.0 647 6910.0 650.5Q6917.0 654 6926.0 654Q6950.0 654 6973.0 653.0Q6996.0 652 7017.5 651.0Q7039.0 650 7061.0 650Q7082.0 650 7103.5 651.0Q7125.0 652 7148.0 653.0Q7171.0 654 7195.0 654Q7205.0 654 7211.0 650.5Q7217.0 647 7217.0 640Q7217.0 632 7210.5 627.5Q7204.0 623 7192.0 620Q7152.0 610 7138.0 596.0Q7124.0 582 7124.0 550V98Q7124.0 67 7140.5 53.0Q7157.0 39 7195.0 29Q7208.0 26 7214.5 22.0Q7221.0 18 7221.0 10Q7221.0 3 7215.0 0.0Q7209.0 -3 7199.0 -3Q7175.0 -3 7151.0 -2.0Q7127.0 -1 7104.5 0.0Q7082.0 1 7061.0 1Q7039.0 1 7016.0 0.0Q6993.0 -1 6969.0 -2.5Q6945.0 -4 6921.0 -4ZM7613.0 -14Q7545.0 -14 7483.0 9.5Q7421.0 33 7373.5 76.5Q7326.0 120 7298.5 180.5Q7271.0 241 7271.0 315Q7271.0 383 7293.5 445.5Q7316.0 508 7360.5 557.0Q7405.0 606 7470.5 635.0Q7536.0 664 7622.0 664Q7690.0 664 7751.5 640.5Q7813.0 617 7861.0 573.5Q7909.0 530 7936.5 469.5Q7964.0 409 7964.0 335Q7964.0 268 7941.5 205.0Q7919.0 142 7874.5 93.0Q7830.0 44 7764.5 15.0Q7699.0 -14 7613.0 -14ZM7630.0 30Q7693.0 30 7735.5 62.0Q7778.0 94 7799.5 151.5Q7821.0 209 7821.0 284Q7821.0 348 7808.0 408.0Q7795.0 468 7768.0 515.5Q7741.0 563 7700.5 591.0Q7660.0 619 7604.0 619Q7541.0 619 7498.5 587.0Q7456.0 555 7435.0 498.0Q7414.0 441 7414.0 366Q7414.0 302 7427.0 242.0Q7440.0 182 7466.5 134.0Q7493.0 86 7533.5 58.0Q7574.0 30 7630.0 30ZM8674.0 -18Q8662.0 -18 8634.0 -3.0Q8606.0 12 8577.0 49Q8560.0 68 8535.5 95.5Q8511.0 123 8481.5 156.0Q8452.0 189 8420.0 225.0Q8388.0 261 8356.5 297.0Q8325.0 333 8295.0 366.0Q8265.0 399 8240.0 426.5Q8215.0 454 8198.0 474Q8194.0 479 8189.5 482.5Q8185.0 486 8182.0 486Q8178.0 486 8176.0 479.0Q8174.0 472 8174.0 466Q8174.0 420 8174.5 357.0Q8175.0 294 8175.0 229.0Q8175.0 164 8175.0 109Q8175.0 78 8193.0 58.0Q8211.0 38 8250.0 29Q8262.0 27 8270.5 22.5Q8279.0 18 8279.0 10Q8279.0 3 8271.0 0.0Q8263.0 -3 8253.0 -3Q8226.0 -3 8210.0 -2.0Q8194.0 -1 8181.0 0.0Q8168.0 1 8148.0 1Q8127.0 1 8110.5 0.0Q8094.0 -1 8081.0 -2.5Q8068.0 -4 8056.0 -4Q8046.0 -4 8038.0 -0.5Q8030.0 3 8030.0 9Q8030.0 17 8037.5 21.5Q8045.0 26 8058.0 30Q8084.0 38 8096.5 59.5Q8109.0 81 8112.0 111Q8116.0 149 8120.0 210.5Q8124.0 272 8127.5 349.0Q8131.0 426 8131.0 508Q8131.0 560 8104.5 583.0Q8078.0 606 8038.0 620Q8031.0 622 8020.0 628.0Q8009.0 634 8009.0 643Q8009.0 652 8017.0 655.0Q8025.0 658 8034.0 658Q8055.0 658 8076.0 657.0Q8097.0 656 8118.5 655.5Q8140.0 655 8163.5 654.0Q8187.0 653 8214.0 653Q8223.0 653 8227.5 649.5Q8232.0 646 8236.0 640Q8252.0 621 8277.0 592.5Q8302.0 564 8331.5 529.5Q8361.0 495 8393.5 457.0Q8426.0 419 8458.5 381.0Q8491.0 343 8521.0 308.5Q8551.0 274 8575.5 245.5Q8600.0 217 8616.0 199Q8620.0 195 8625.5 189.0Q8631.0 183 8635.0 183Q8643.0 183 8644.0 200Q8644.0 226 8644.0 266.5Q8644.0 307 8644.5 356.5Q8645.0 406 8644.5 458.0Q8644.0 510 8643.0 558Q8642.0 583 8622.5 597.5Q8603.0 612 8574.0 618Q8562.0 621 8551.5 625.5Q8541.0 630 8541.0 639Q8541.0 646 8551.5 649.0Q8562.0 652 8571.0 652Q8591.0 652 8604.5 652.0Q8618.0 652 8630.0 651.5Q8642.0 651 8655.0 651Q8677.0 651 8691.0 651.5Q8705.0 652 8721.5 653.0Q8738.0 654 8765.0 654Q8777.0 654 8784.5 650.5Q8792.0 647 8792.0 641Q8792.0 626 8763.0 620Q8728.0 613 8713.5 601.0Q8699.0 589 8698.0 561Q8698.0 536 8697.5 497.0Q8697.0 458 8696.0 412.0Q8695.0 366 8693.5 318.0Q8692.0 270 8691.5 224.0Q8691.0 178 8691.0 141Q8691.0 117 8693.0 92.0Q8695.0 67 8697.5 47.5Q8700.0 28 8700.0 20Q8700.0 -2 8693.0 -10.0Q8686.0 -18 8674.0 -18Z" transform="matrix(0.017320 0 0 -0.017320 73.68 389.72)" fill="#15130f"/></svg>