<svg xmlns="http://www.w3.org/2000/svg" viewBox="0 0 300 446"><rect width="300" height="446" fill="#f4ecd8"/><rect x="20.0" y="25.5" width="260" height="395" rx="20.3" fill="#f4ecd8" stroke="#15130f" stroke-width="1.5"/><rect x="36.9" y="42.4" width="226.2" height="354.7" fill="none" stroke="#15130f" stroke-width="0.7"/><g fill="none" stroke="#15130f" stroke-width="0.65" stroke-opacity="0.72" stroke-linecap="round" stroke-linejoin="round"><path d="M150.0,42.4 L263.1,206.5 L150.0,370.6 L36.9,206.5 Z"/></g><path d="M36.9,370.6 H263.1 V397.1 H36.9 Z" fill="#c7dcf0"/><g fill="none" stroke="#15130f" stroke-width="0.8"><line x1="36.9" y1="370.6" x2="263.1" y2="370.6"/><line x1="61.6" y1="370.6" x2="61.6" y2="397.1"/><line x1="238.4" y1="370.6" x2="238.4" y2="397.1"/></g><rect x="141.4" y="34.4" width="17.2" height="19.0" fill="#c7dcf0" stroke="#15130f" stroke-width="0.8"/><path d="M542.0 980Q542.0 1081 524.0 1150.5Q506.0 1220 468.5 1265.0Q431.0 1310 374.0 1310Q309.0 1310 251.5 1260.0Q194.0 1210 140.5 1125.0Q87.0 1040 87.0 960H50.0V1410H87.0Q87.0 1385 110.5 1358.5Q134.0 1332 164.0 1332Q194.0 1332 249.0 1371.0Q304.0 1410 374.0 1410Q483.0 1410 568.5 1352.0Q654.0 1294 698.0 1210.5Q742.0 1127 742.0 1000Q742.0 883 691.0 779Q660.0 716 617.0 675H1060.0V1200Q1060.0 1250 1020.0 1305.0Q980.0 1360 910.0 1360H860.0V1400H1460.0V1360H1410.0Q1340.0 1360 1300.0 1305.0Q1260.0 1250 1260.0 1200V200Q1260.0 150 1300.0 95.0Q1340.0 40 1410.0 40H1460.0V0H860.0V40H910.0Q980.0 40 1020.0 95.0Q1060.0 150 1060.0 200V575H225.0Q430.0 680 486.0 784.5Q542.0 889 542.0 980Z" transform="matrix(0.009268 0 0 -0.009268 42.25 390.40)" fill="#15130f"/></svg>