<svg xmlns="http://www.w3.org/2000/svg" viewBox="0 0 300 446"><rect width="300" height="446" fill="#f4ecd8"/><rect x="20.0" y="25.5" width="260" height="395" rx="20.3" fill="#f4ecd8" stroke="#15130f" stroke-width="1.5"/><rect x="36.9" y="42.4" width="226.2" height="354.7" fill="none" stroke="#15130f" stroke-width="0.7"/><g fill="none" stroke="#15130f" stroke-width="0.65" stroke-opacity="0.72" stroke-linecap="round" stroke-linejoin="round"><line x1="150.0" y1="42.4" x2="150.0" y2="210.0"/><line x1="36.9" y1="210.0" x2="263.1" y2="210.0"/></g><path d="M36.9,370.6 H263.1 V397.1 H36.9 Z" fill="#e59680"/><g fill="none" stroke="#15130f" stroke-width="0.8"><line x1="36.9" y1="370.6" x2="263.1" y2="370.6"/><line x1="61.6" y1="370.6" x2="61.6" y2="397.1"/><line x1="238.4" y1="370.6" x2="238.4" y2="397.1"/></g><rect x="141.4" y="34.4" width="17.2" height="19.0" fill="#e59680" stroke="#15130f" stroke-width="0.8"/><path d="M250.0 450Q250.0 349 278.0 264.5Q306.0 180 358.5 135.0Q411.0 90 467.0 90Q524.0 90 576.5 135.0Q629.0 180 657.0 264.5Q685.0 349 685.0 450Q685.0 541 657.0 625.5Q629.0 710 576.5 755.0Q524.0 800 467.0 800Q411.0 800 358.5 755.0Q306.0 710 278.0 625.5Q250.0 541 250.0 450ZM800.0 729Q817.0 704 831.0 676Q885.0 567 885.0 450Q885.0 323 831.0 214.5Q777.0 106 676.5 48.0Q576.0 -10 467.0 -10Q359.0 -10 258.5 48.0Q158.0 106 104.0 214.5Q50.0 323 50.0 450Q50.0 567 104.0 675.5Q158.0 784 258.5 842.0Q359.0 900 467.0 900Q576.0 900 677.0 842Q706.0 825 732.0 803L1082.0 1153Q905.0 1153 658.0 1223L693.0 1259Q1117.0 1259 1400.0 1400Q1259.0 1117 1259.0 693L1223.0 658Q1153.0 905 1153.0 1082Z" transform="matrix(0.009268 0 0 -0.009268 42.53 390.31)" fill="#15130f"/></svg>