<svg xmlns="http://www.w3.org/2000/svg" viewBox="0 0 300 446"><rect width="300" height="446" fill="#f4ecd8"/><rect x="20.0" y="25.5" width="260" height="395" rx="20.3" fill="#f4ecd8" stroke="#15130f" stroke-width="1.5"/><rect x="36.9" y="42.4" width="226.2" height="354.7" fill="none" stroke="#15130f" stroke-width="0.7"/><g fill="none" stroke="#15130f" stroke-width="0.65" stroke-opacity="0.72" stroke-linecap="round" stroke-linejoin="round"><line x1="36.9" y1="42.4" x2="263.1" y2="370.6"/></g><path d="M36.9,370.6 H263.1 V397.1 H36.9 Z" fill="#bfdedc"/><g fill="none" stroke="#15130f" stroke-width="0.8"><line x1="36.9" y1="370.6" x2="263.1" y2="370.6"/><line x1="61.6" y1="370.6" x2="61.6" y2="397.1"/><line x1="238.4" y1="370.6" x2="238.4" y2="397.1"/></g><rect x="141.4" y="34.4" width="17.2" height="19.0" fill="#bfdedc" stroke="#15130f" stroke-width="0.8"/><path d="M250.0 950Q250.0 859 278.0 774.5Q306.0 690 358.5 645.0Q411.0 600 467.0 600Q524.0 600 576.5 645.0Q629.0 690 657.0 774.5Q685.0 859 685.0 950Q685.0 1051 657.0 1135.5Q629.0 1220 576.5 1265.0Q524.0 1310 467.0 1310Q411.0 1310 358.5 1265.0Q306.0 1220 278.0 1135.5Q250.0 1051 250.0 950ZM589.0 1391Q633.0 1377 677.0 1352Q777.0 1294 831.0 1185.5Q885.0 1077 885.0 950Q885.0 833 831.0 724.5Q777.0 616 677.0 558Q623.0 527 568.0 513V350H785.0V250H568.0V170Q568.0 120 593.0 80.0Q618.0 40 688.0 40H738.0V0H198.0V40H248.0Q318.0 40 343.0 80.0Q368.0 120 368.0 170V250H150.0V350H368.0V513Q312.0 527 259.0 558Q158.0 616 104.0 724.5Q50.0 833 50.0 950Q50.0 1077 104.0 1185.5Q158.0 1294 259.0 1352Q301.0 1377 346.0 1391Q253.0 1414 191.0 1476Q126.0 1541 119.0 1596Q117.0 1608 117.0 1620Q117.0 1656 138.5 1677.5Q160.0 1699 196.0 1700Q231.0 1700 251.5 1679.0Q272.0 1658 282.0 1630Q289.0 1613 292.5 1548.0Q296.0 1483 346.5 1467.5Q397.0 1452 467.0 1452Q537.0 1452 587.5 1467.5Q638.0 1483 641.5 1548.0Q645.0 1613 652.0 1630Q662.0 1658 682.5 1679.0Q703.0 1700 738.0 1700Q774.0 1699 795.5 1677.5Q817.0 1656 817.0 1620Q817.0 1608 815.0 1596Q808.0 1541 743.0 1476Q681.0 1414 589.0 1391Z" transform="matrix(0.009268 0 0 -0.009268 44.92 391.74)" fill="#15130f"/></svg>