<svg xmlns="http://www.w3.org/2000/svg" viewBox="0 0 820 330" font-family="Georgia, 'Times New Roman', serif"><rect x="0" y="0" width="820" height="330" fill="#f4ecd8"/><defs><radialGradient id="wheelwash" cx="50%" cy="50%" r="50%"><stop offset="0%" stop-color="#f8efcf"/><stop offset="65%" stop-color="#f4e7c1"/><stop offset="100%" stop-color="#f4ecd8" stop-opacity="0"/></radialGradient></defs><circle cx="728" cy="360" r="232" fill="url(#wheelwash)" stroke="none"/><g stroke="#e3d2a2" stroke-width="1"><line x1="728" y1="360" x2="651.7" y2="140.8"/><line x1="728" y1="360" x2="771.6" y2="131.9"/><line x1="728" y1="360" x2="879.7" y2="184.4"/><line x1="728" y1="360" x2="947.2" y2="283.7"/><line x1="728" y1="360" x2="956.1" y2="403.6"/><line x1="728" y1="360" x2="903.6" y2="511.7"/><line x1="728" y1="360" x2="804.3" y2="579.2"/><line x1="728" y1="360" x2="684.4" y2="588.1"/><line x1="728" y1="360" x2="576.3" y2="535.6"/><line x1="728" y1="360" x2="508.8" y2="436.3"/><line x1="728" y1="360" x2="499.9" y2="316.4"/><line x1="728" y1="360" x2="552.4" y2="208.3"/><circle cx="728" cy="360" r="232" fill="none" stroke="#e3d2a2" stroke-width="1"/></g><text x="110.0" y="54.0" text-anchor="middle" font-size="15" fill="#3c3015">4th Week</text><rect x="58.0" y="66.0" width="104" height="158" rx="8.1" fill="#ecdaa2" stroke="#6a4f28" stroke-width="1.5"/><rect x="64.8" y="72.8" width="90.5" height="141.9" fill="none" stroke="#6a4f28" stroke-width="0.7"/><g fill="none" stroke="#6a4f28" stroke-width="1.0" stroke-linecap="round" stroke-linejoin="round"><line x1="64.8" y1="168.4" x2="155.2" y2="168.4"/></g><g fill="none" stroke="#6a4f28" stroke-width="0.8"><line x1="64.8" y1="204.1" x2="155.2" y2="204.1"/><line x1="73.1" y1="204.1" x2="73.1" y2="214.6"/><line x1="146.9" y1="204.1" x2="146.9" y2="214.6"/></g><rect x="106.6" y="69.6" width="6.9" height="7.6" fill="#ecdaa2" stroke="#6a4f28" stroke-width="0.8"/><text x="110.0" y="73.7" text-anchor="middle" dominant-baseline="central" font-size="4.7" fill="#6a4f28">4</text><text x="68.92" y="209.35" text-anchor="middle" dominant-baseline="central" font-family="'Segoe UI Symbol','Apple Symbols','DejaVu Sans',sans-serif" font-size="7.49" fill="#6a4f28">☽</text><text x="151.08" y="209.35" text-anchor="middle" dominant-baseline="central" font-family="'Segoe UI Symbol','Apple Symbols','DejaVu Sans',sans-serif" font-size="7.49" fill="#6a4f28">♋</text><text x="110.0" y="209.3" text-anchor="middle" dominant-baseline="central" font-size="7.9" fill="#6a4f28">FRIENDSHIP</text><text x="110.0" y="244.0" text-anchor="middle" font-size="10.5" letter-spacing="0.6" fill="#3c3015">FRIENDSHIP</text><text x="230.0" y="54.0" text-anchor="middle" font-size="15" fill="#3c3015">3rd Week</text><rect x="178.0" y="66.0" width="104" height="158" rx="8.1" fill="#ecdaa2" stroke="#6a4f28" stroke-width="1.5"/><rect x="184.8" y="72.8" width="90.5" height="141.9" fill="none" stroke="#6a4f28" stroke-width="0.7"/><g fill="none" stroke="#6a4f28" stroke-width="1.0" stroke-linecap="round" stroke-linejoin="round"><line x1="230.0" y1="72.8" x2="230.0" y2="139.8"/><line x1="184.8" y1="139.8" x2="275.2" y2="139.8"/></g><g fill="none" stroke="#6a4f28" stroke-width="0.8"><line x1="184.8" y1="204.1" x2="275.2" y2="204.1"/><line x1="193.1" y1="204.1" x2="193.1" y2="214.6"/><line x1="266.9" y1="204.1" x2="266.9" y2="214.6"/></g><rect x="226.6" y="69.6" width="6.9" height="7.6" fill="#ecdaa2" stroke="#6a4f28" stroke-width="0.8"/><text x="230.0" y="73.7" text-anchor="middle" dominant-baseline="central" font-size="3.5" fill="#6a4f28">11</text><text x="188.92" y="209.35" text-anchor="middle" dominant-baseline="central" font-family="'Segoe UI Symbol','Apple Symbols','DejaVu Sans',sans-serif" font-size="7.49" fill="#6a4f28">♂</text><text x="271.08" y="209.35" text-anchor="middle" dominant-baseline="central" font-family="'Segoe UI Symbol','Apple Symbols','DejaVu Sans',sans-serif" font-size="7.49" fill="#6a4f28">♒</text><text x="230.0" y="209.3" text-anchor="middle" dominant-baseline="central" font-size="7.9" fill="#6a4f28">REBELLION</text><text x="230.0" y="244.0" text-anchor="middle" font-size="10.5" letter-spacing="0.6" fill="#3c3015">REBELLION</text><text x="350.0" y="54.0" text-anchor="middle" font-size="15" fill="#3c3015">2nd Week</text><rect x="298.0" y="66.0" width="104" height="158" rx="8.1" fill="#ecdaa2" stroke="#6a4f28" stroke-width="1.5"/><rect x="304.8" y="72.8" width="90.5" height="141.9" fill="none" stroke="#6a4f28" stroke-width="0.7"/><g fill="none" stroke="#6a4f28" stroke-width="1.0" stroke-linecap="round" stroke-linejoin="round"><line x1="350.0" y1="72.8" x2="350.0" y2="139.8"/><line x1="304.8" y1="139.8" x2="395.2" y2="139.8"/></g><g fill="none" stroke="#6a4f28" stroke-width="0.8"><line x1="304.8" y1="204.1" x2="395.2" y2="204.1"/><line x1="313.1" y1="204.1" x2="313.1" y2="214.6"/><line x1="386.9" y1="204.1" x2="386.9" y2="214.6"/></g><rect x="346.6" y="69.6" width="6.9" height="7.6" fill="#ecdaa2" stroke="#6a4f28" stroke-width="0.8"/><text x="350.0" y="73.7" text-anchor="middle" dominant-baseline="central" font-size="3.5" fill="#6a4f28">12</text><text x="308.92" y="209.35" text-anchor="middle" dominant-baseline="central" font-family="'Segoe UI Symbol','Apple Symbols','DejaVu Sans',sans-serif" font-size="7.49" fill="#6a4f28">♂</text><text x="391.08" y="209.35" text-anchor="middle" dominant-baseline="central" font-family="'Segoe UI Symbol','Apple Symbols','DejaVu Sans',sans-serif" font-size="7.49" fill="#6a4f28">♓</text><text x="350.0" y="209.3" text-anchor="middle" dominant-baseline="central" font-size="7.9" fill="#6a4f28">ESCAPE</text><text x="350.0" y="244.0" text-anchor="middle" font-size="10.5" letter-spacing="0.6" fill="#3c3015">ESCAPE</text><text x="470.0" y="54.0" text-anchor="middle" font-size="15" fill="#3c3015">1st Week</text><rect x="418.0" y="66.0" width="104" height="158" rx="8.1" fill="#ecdaa2" stroke="#6a4f28" stroke-width="1.5"/><rect x="424.8" y="72.8" width="90.5" height="141.9" fill="none" stroke="#6a4f28" stroke-width="0.7"/><g fill="none" stroke="#6a4f28" stroke-width="1.0" stroke-linecap="round" stroke-linejoin="round"><line x1="424.8" y1="168.4" x2="515.2" y2="168.4"/></g><g fill="none" stroke="#6a4f28" stroke-width="0.8"><line x1="424.8" y1="204.1" x2="515.2" y2="204.1"/><line x1="433.1" y1="204.1" x2="433.1" y2="214.6"/><line x1="506.9" y1="204.1" x2="506.9" y2="214.6"/></g><rect x="466.6" y="69.6" width="6.9" height="7.6" fill="#ecdaa2" stroke="#6a4f28" stroke-width="0.8"/><text x="470.0" y="73.7" text-anchor="middle" dominant-baseline="central" font-size="3.5" fill="#6a4f28">11</text><text x="428.92" y="209.35" text-anchor="middle" dominant-baseline="central" font-family="'Segoe UI Symbol','Apple Symbols','DejaVu Sans',sans-serif" font-size="7.49" fill="#6a4f28">☽</text><text x="511.08" y="209.35" text-anchor="middle" dominant-baseline="central" font-family="'Segoe UI Symbol','Apple Symbols','DejaVu Sans',sans-serif" font-size="7.49" fill="#6a4f28">♒</text><text x="470.0" y="209.3" text-anchor="middle" dominant-baseline="central" font-size="7.9" fill="#6a4f28">INDEPENDENCE</text><text x="470.0" y="244.0" text-anchor="middle" font-size="10.5" letter-spacing="0.6" fill="#3c3015">INDEPENDENCE</text><g transform="translate(0,16)"><g opacity="0.5"><rect x="538.0" y="66.0" width="104" height="158" rx="8.1" fill="#ecdaa2" stroke="#6a4f28" stroke-width="1.5"/><rect x="544.8" y="72.8" width="90.5" height="141.9" fill="none" stroke="#6a4f28" stroke-width="0.7"/><g fill="none" stroke="#6a4f28" stroke-width="1.0" stroke-linecap="round" stroke-linejoin="round"><line x1="544.8" y1="139.9" x2="635.2" y2="139.9"/></g><g fill="none" stroke="#6a4f28" stroke-width="0.8"><line x1="544.8" y1="204.1" x2="635.2" y2="204.1"/><line x1="553.1" y1="204.1" x2="553.1" y2="214.6"/><line x1="626.9" y1="204.1" x2="626.9" y2="214.6"/></g><rect x="586.6" y="69.6" width="6.9" height="7.6" fill="#ecdaa2" stroke="#6a4f28" stroke-width="0.8"/><text x="590.0" y="73.7" text-anchor="middle" dominant-baseline="central" font-size="3.5" fill="#6a4f28">12</text><text x="548.92" y="209.35" text-anchor="middle" dominant-baseline="central" font-family="'Segoe UI Symbol','Apple Symbols','DejaVu Sans',sans-serif" font-size="7.49" fill="#6a4f28">♄</text><text x="631.08" y="209.35" text-anchor="middle" dominant-baseline="central" font-family="'Segoe UI Symbol','Apple Symbols','DejaVu Sans',sans-serif" font-size="7.49" fill="#6a4f28">♓</text><text x="590.0" y="209.3" text-anchor="middle" dominant-baseline="central" font-size="7.9" fill="#6a4f28">LOSS</text></g><text x="590.0" y="246.0" text-anchor="middle" font-size="13" fill="#3c3015">11</text><text x="590.0" y="261.0" text-anchor="middle" font-size="10.5" letter-spacing="0.6" fill="#3c3015">FEBRUARY</text></g><g transform="translate(0,-30)"><g opacity="0.38"><rect x="658.0" y="66.0" width="104" height="158" rx="8.1" fill="#ecdaa2" stroke="#6a4f28" stroke-width="1.5"/><rect x="664.8" y="72.8" width="90.5" height="141.9" fill="none" stroke="#6a4f28" stroke-width="0.7"/><g fill="none" stroke="#6a4f28" stroke-width="0.8"><line x1="664.8" y1="204.1" x2="755.2" y2="204.1"/><line x1="673.1" y1="204.1" x2="673.1" y2="214.6"/><line x1="746.9" y1="204.1" x2="746.9" y2="214.6"/></g><rect x="706.6" y="69.6" width="6.9" height="7.6" fill="#ecdaa2" stroke="#6a4f28" stroke-width="0.8"/><text x="710.0" y="73.7" text-anchor="middle" dominant-baseline="central" font-size="4.7" fill="#6a4f28">8</text><text x="668.92" y="209.35" text-anchor="middle" dominant-baseline="central" font-family="'Segoe UI Symbol','Apple Symbols','DejaVu Sans',sans-serif" font-size="7.49" fill="#6a4f28">♀</text><text x="751.08" y="209.35" text-anchor="middle" dominant-baseline="central" font-family="'Segoe UI Symbol','Apple Symbols','DejaVu Sans',sans-serif" font-size="7.49" fill="#6a4f28">♏</text><text x="710.0" y="209.3" text-anchor="middle" dominant-baseline="central" font-size="7.9" fill="#6a4f28">SECRETS</text></g><text x="710.0" y="246.0" text-anchor="middle" font-size="13" fill="#3c3015">10</text><text x="710.0" y="261.0" text-anchor="middle" font-size="10.5" letter-spacing="0.6" fill="#3c3015">JANUARY</text></g></svg>