<svg xmlns="http://www.w3.org/2000/svg" viewBox="0 0 700 724" font-family="Georgia, 'Times New Roman', serif"><rect x="0" y="0" width="700" height="724" fill="#f4ecd8"/><defs><radialGradient id="wash_p137" cx="50%" cy="50%" r="60%"><stop offset="0%" stop-color="#f8efcf"/><stop offset="100%" stop-color="#efe0b2"/></radialGradient></defs><circle cx="350" cy="366" r="217.2" fill="url(#wash_p137)" stroke="none"/><g stroke="#d8c79c" stroke-width="1"><line x1="350" y1="366" x2="132.8" y2="366.0"/><line x1="350" y1="366" x2="161.9" y2="474.6"/><line x1="350" y1="366" x2="241.4" y2="554.1"/><line x1="350" y1="366" x2="350.0" y2="583.2"/><line x1="350" y1="366" x2="458.6" y2="554.1"/><line x1="350" y1="366" x2="538.1" y2="474.6"/><line x1="350" y1="366" x2="567.2" y2="366.0"/><line x1="350" y1="366" x2="538.1" y2="257.4"/><line x1="350" y1="366" x2="458.6" y2="177.9"/><line x1="350" y1="366" x2="350.0" y2="148.8"/><line x1="350" y1="366" x2="241.4" y2="177.9"/><line x1="350" y1="366" x2="161.9" y2="257.4"/><circle cx="350" cy="366" r="217.2" fill="none" stroke="#cdb878" stroke-width="1"/><circle cx="350" cy="366" r="3" fill="#6a4f28"/></g><rect x="77.0" y="373.5" width="78" height="119" rx="6.1" fill="#ecdaa2" stroke="#6a4f28" stroke-width="1.5"/><rect x="82.1" y="378.6" width="67.9" height="106.9" fill="none" stroke="#6a4f28" stroke-width="0.7"/><g fill="none" stroke="#6a4f28" stroke-width="1.0" stroke-linecap="round" stroke-linejoin="round"><line x1="116.0" y1="378.6" x2="116.0" y2="429.1"/><line x1="82.1" y1="429.1" x2="149.9" y2="429.1"/></g><g fill="none" stroke="#6a4f28" stroke-width="0.8"><line x1="82.1" y1="477.5" x2="149.9" y2="477.5"/><line x1="88.3" y1="477.5" x2="88.3" y2="485.5"/><line x1="143.7" y1="477.5" x2="143.7" y2="485.5"/></g><rect x="113.4" y="376.2" width="5.1" height="5.7" fill="#ecdaa2" stroke="#6a4f28" stroke-width="0.8"/><text x="116.0" y="379.3" text-anchor="middle" dominant-baseline="central" font-size="3.5" fill="#6a4f28">2</text><text x="85.19" y="481.49" text-anchor="middle" dominant-baseline="central" font-family="'Segoe UI Symbol','Apple Symbols','DejaVu Sans',sans-serif" font-size="5.62" fill="#6a4f28">♂</text><text x="146.81" y="481.49" text-anchor="middle" dominant-baseline="central" font-family="'Segoe UI Symbol','Apple Symbols','DejaVu Sans',sans-serif" font-size="5.62" fill="#6a4f28">♉</text><text x="116.0" y="481.5" text-anchor="middle" dominant-baseline="central" font-size="6.0" fill="#6a4f28">DEFENSE</text><rect x="159.0" y="497.5" width="78" height="119" rx="6.1" fill="#ecdaa2" stroke="#6a4f28" stroke-width="1.5"/><rect x="164.1" y="502.6" width="67.9" height="106.9" fill="none" stroke="#6a4f28" stroke-width="0.7"/><g fill="none" stroke="#6a4f28" stroke-width="1.0" stroke-linecap="round" stroke-linejoin="round"><line x1="164.1" y1="574.6" x2="231.9" y2="574.6"/></g><g fill="none" stroke="#6a4f28" stroke-width="0.8"><line x1="164.1" y1="601.5" x2="231.9" y2="601.5"/><line x1="170.3" y1="601.5" x2="170.3" y2="609.5"/><line x1="225.7" y1="601.5" x2="225.7" y2="609.5"/></g><rect x="195.4" y="500.2" width="5.1" height="5.7" fill="#ecdaa2" stroke="#6a4f28" stroke-width="0.8"/><text x="198.0" y="503.3" text-anchor="middle" dominant-baseline="central" font-size="2.6" fill="#6a4f28">11</text><text x="167.19" y="605.49" text-anchor="middle" dominant-baseline="central" font-family="'Segoe UI Symbol','Apple Symbols','DejaVu Sans',sans-serif" font-size="5.62" fill="#6a4f28">☽</text><text x="228.81" y="605.49" text-anchor="middle" dominant-baseline="central" font-family="'Segoe UI Symbol','Apple Symbols','DejaVu Sans',sans-serif" font-size="5.62" fill="#6a4f28">♒</text><text x="198.0" y="605.5" text-anchor="middle" dominant-baseline="central" font-size="6.0" fill="#6a4f28">INDEPENDENCE</text><rect x="263.0" y="526.5" width="78" height="119" rx="6.1" fill="#ecdaa2" stroke="#b6973f" stroke-width="1.3"/><rect x="359.0" y="526.5" width="78" height="119" rx="6.1" fill="#ecdaa2" stroke="#6a4f28" stroke-width="1.5"/><rect x="364.1" y="531.6" width="67.9" height="106.9" fill="none" stroke="#6a4f28" stroke-width="0.7"/><g fill="none" stroke="#6a4f28" stroke-width="1.0" stroke-linecap="round" stroke-linejoin="round"><line x1="364.1" y1="582.2" x2="431.9" y2="582.2"/></g><g fill="none" stroke="#6a4f28" stroke-width="0.8"><line x1="364.1" y1="630.5" x2="431.9" y2="630.5"/><line x1="370.3" y1="630.5" x2="370.3" y2="638.5"/><line x1="425.7" y1="630.5" x2="425.7" y2="638.5"/></g><rect x="395.4" y="529.2" width="5.1" height="5.7" fill="#ecdaa2" stroke="#6a4f28" stroke-width="0.8"/><text x="398.0" y="532.3" text-anchor="middle" dominant-baseline="central" font-size="2.6" fill="#6a4f28">12</text><text x="367.19" y="634.49" text-anchor="middle" dominant-baseline="central" font-family="'Segoe UI Symbol','Apple Symbols','DejaVu Sans',sans-serif" font-size="5.62" fill="#6a4f28">♄</text><text x="428.81" y="634.49" text-anchor="middle" dominant-baseline="central" font-family="'Segoe UI Symbol','Apple Symbols','DejaVu Sans',sans-serif" font-size="5.62" fill="#6a4f28">♓</text><text x="398.0" y="634.5" text-anchor="middle" dominant-baseline="central" font-size="6.0" fill="#6a4f28">LOSS</text><rect x="463.0" y="497.5" width="78" height="119" rx="6.1" fill="#ecdaa2" stroke="#b6973f" stroke-width="1.3"/><rect x="545.0" y="373.5" width="78" height="119" rx="6.1" fill="#ecdaa2" stroke="#b6973f" stroke-width="1.3"/><rect x="545.0" y="239.5" width="78" height="119" rx="6.1" fill="#ecdaa2" stroke="#6a4f28" stroke-width="1.5"/><rect x="550.1" y="244.6" width="67.9" height="106.9" fill="none" stroke="#6a4f28" stroke-width="0.7"/><g fill="none" stroke="#6a4f28" stroke-width="0.8"><line x1="550.1" y1="343.5" x2="617.9" y2="343.5"/><line x1="556.3" y1="343.5" x2="556.3" y2="351.5"/><line x1="611.7" y1="343.5" x2="611.7" y2="351.5"/></g><rect x="581.4" y="242.2" width="5.1" height="5.7" fill="#ecdaa2" stroke="#6a4f28" stroke-width="0.8"/><text x="584.0" y="245.3" text-anchor="middle" dominant-baseline="central" font-size="3.5" fill="#6a4f28">2</text><text x="553.19" y="347.49" text-anchor="middle" dominant-baseline="central" font-family="'Segoe UI Symbol','Apple Symbols','DejaVu Sans',sans-serif" font-size="5.62" fill="#6a4f28">♀</text><text x="614.81" y="347.49" text-anchor="middle" dominant-baseline="central" font-family="'Segoe UI Symbol','Apple Symbols','DejaVu Sans',sans-serif" font-size="5.62" fill="#6a4f28">♉</text><text x="584.0" y="347.5" text-anchor="middle" dominant-baseline="central" font-size="6.0" fill="#6a4f28">ROMANCE</text><rect x="463.0" y="115.5" width="78" height="119" rx="6.1" fill="#ecdaa2" stroke="#6a4f28" stroke-width="1.5"/><rect x="468.1" y="120.6" width="67.9" height="106.9" fill="none" stroke="#6a4f28" stroke-width="0.7"/><g fill="none" stroke="#6a4f28" stroke-width="1.0" stroke-linecap="round" stroke-linejoin="round"><line x1="468.1" y1="171.2" x2="535.9" y2="171.2"/></g><g fill="none" stroke="#6a4f28" stroke-width="0.8"><line x1="468.1" y1="219.5" x2="535.9" y2="219.5"/><line x1="474.3" y1="219.5" x2="474.3" y2="227.5"/><line x1="529.7" y1="219.5" x2="529.7" y2="227.5"/></g><rect x="499.4" y="118.2" width="5.1" height="5.7" fill="#ecdaa2" stroke="#6a4f28" stroke-width="0.8"/><text x="502.0" y="121.3" text-anchor="middle" dominant-baseline="central" font-size="3.5" fill="#6a4f28">6</text><text x="471.19" y="223.49" text-anchor="middle" dominant-baseline="central" font-family="'Segoe UI Symbol','Apple Symbols','DejaVu Sans',sans-serif" font-size="5.62" fill="#6a4f28">♄</text><text x="532.81" y="223.49" text-anchor="middle" dominant-baseline="central" font-family="'Segoe UI Symbol','Apple Symbols','DejaVu Sans',sans-serif" font-size="5.62" fill="#6a4f28">♍</text><text x="502.0" y="223.5" text-anchor="middle" dominant-baseline="central" font-size="6.0" fill="#6a4f28">ISOLATION</text><rect x="359.0" y="86.5" width="78" height="119" rx="6.1" fill="#ecdaa2" stroke="#b6973f" stroke-width="1.3"/><rect x="263.0" y="86.5" width="78" height="119" rx="6.1" fill="#ecdaa2" stroke="#6a4f28" stroke-width="1.5"/><rect x="268.1" y="91.6" width="67.9" height="106.9" fill="none" stroke="#6a4f28" stroke-width="0.7"/><g fill="none" stroke="#6a4f28" stroke-width="0.8"><line x1="268.1" y1="190.5" x2="335.9" y2="190.5"/><line x1="274.3" y1="190.5" x2="274.3" y2="198.5"/><line x1="329.7" y1="190.5" x2="329.7" y2="198.5"/></g><rect x="299.4" y="89.2" width="5.1" height="5.7" fill="#ecdaa2" stroke="#6a4f28" stroke-width="0.8"/><text x="302.0" y="92.3" text-anchor="middle" dominant-baseline="central" font-size="3.5" fill="#6a4f28">9</text><text x="271.19" y="194.49" text-anchor="middle" dominant-baseline="central" font-family="'Segoe UI Symbol','Apple Symbols','DejaVu Sans',sans-serif" font-size="5.62" fill="#6a4f28">♀</text><text x="332.81" y="194.49" text-anchor="middle" dominant-baseline="central" font-family="'Segoe UI Symbol','Apple Symbols','DejaVu Sans',sans-serif" font-size="5.62" fill="#6a4f28">♐</text><text x="302.0" y="194.5" text-anchor="middle" dominant-baseline="central" font-size="6.0" fill="#6a4f28">FLIRTATION</text><rect x="159.0" y="115.5" width="78" height="119" rx="6.1" fill="#ecdaa2" stroke="#b6973f" stroke-width="1.3"/><rect x="77.0" y="239.5" width="78" height="119" rx="6.1" fill="#ecdaa2" stroke="#b6973f" stroke-width="1.3"/><text x="116.0" y="506.5" text-anchor="middle" font-size="10" letter-spacing="0.6" fill="#3c3015">DEFENSE</text><text x="198.0" y="630.5" text-anchor="middle" font-size="10" letter-spacing="0.6" fill="#3c3015">INDEPENDENCE</text><text x="398.0" y="659.5" text-anchor="middle" font-size="10" letter-spacing="0.6" fill="#3c3015">LOSS</text><text x="584.0" y="372.5" text-anchor="middle" font-size="10" letter-spacing="0.6" fill="#3c3015">ROMANCE</text><text x="502.0" y="248.5" text-anchor="middle" font-size="10" letter-spacing="0.6" fill="#3c3015">ISOLATION</text><text x="302.0" y="219.5" text-anchor="middle" font-size="10" letter-spacing="0.6" fill="#3c3015">FLIRTATION</text><text x="217.8" y="407.4" text-anchor="middle" font-size="18" fill="#3c3015">1</text><text x="253.2" y="468.8" text-anchor="middle" font-size="18" fill="#3c3015">2</text><text x="314.6" y="504.2" text-anchor="middle" font-size="18" fill="#3c3015">3</text><text x="385.4" y="504.2" text-anchor="middle" font-size="18" fill="#3c3015">4</text><text x="446.8" y="468.8" text-anchor="middle" font-size="18" fill="#3c3015">5</text><text x="482.2" y="407.4" text-anchor="middle" font-size="18" fill="#3c3015">6</text><text x="482.2" y="336.6" text-anchor="middle" font-size="18" fill="#3c3015">7</text><text x="446.8" y="275.2" text-anchor="middle" font-size="18" fill="#3c3015">8</text><text x="385.4" y="239.8" text-anchor="middle" font-size="18" fill="#3c3015">9</text><text x="314.6" y="239.8" text-anchor="middle" font-size="18" fill="#3c3015">10</text><text x="253.2" y="275.2" text-anchor="middle" font-size="18" fill="#3c3015">11</text><text x="217.8" y="336.6" text-anchor="middle" font-size="18" fill="#3c3015">12</text><text x="46" y="46" font-size="15" fill="#3c3015">Sample Horary</text><text x="46" y="65" font-size="15" fill="#3c3015">Reading 2</text></svg>