<svg xmlns="http://www.w3.org/2000/svg" viewBox="0 0 764 600" font-family="Georgia, 'Times New Roman', serif"><rect x="0" y="0" width="764" height="600" fill="#f4ecd8"/><text x="382.0" y="38" text-anchor="middle" font-size="22" font-style="italic" letter-spacing="2" fill="#3c3015">The Card Shapes</text><text x="115" y="70" text-anchor="middle" font-size="15" fill="#3c3015">Sun</text><rect x="40.0" y="80.0" width="150" height="228" rx="11.7" fill="#ecdaa2" stroke="#6a4f28" stroke-width="1.5"/><rect x="49.8" y="89.8" width="130.5" height="204.8" fill="none" stroke="#6a4f28" stroke-width="0.7"/><g fill="none" stroke="#6a4f28" stroke-width="1.0" stroke-linecap="round" stroke-linejoin="round"><line x1="49.8" y1="155.0" x2="180.2" y2="155.0"/><path d="M49.8,155.0 A65.2,65.2 0 0 1 180.2,155.0"/></g><g fill="none" stroke="#6a4f28" stroke-width="0.8"><line x1="49.8" y1="279.2" x2="180.2" y2="279.2"/><line x1="61.8" y1="279.2" x2="61.8" y2="294.5"/><line x1="168.2" y1="279.2" x2="168.2" y2="294.5"/></g><rect x="110.0" y="85.2" width="9.9" height="10.9" fill="#ecdaa2" stroke="#6a4f28" stroke-width="0.8"/><text x="55.75" y="286.86" text-anchor="middle" dominant-baseline="central" font-family="'Segoe UI Symbol','Apple Symbols','DejaVu Sans',sans-serif" font-size="10.80" fill="#6a4f28">☉</text><text x="293" y="70" text-anchor="middle" font-size="15" fill="#3c3015">Moon</text><rect x="218.0" y="80.0" width="150" height="228" rx="11.7" fill="#ecdaa2" stroke="#6a4f28" stroke-width="1.5"/><rect x="227.8" y="89.8" width="130.5" height="204.8" fill="none" stroke="#6a4f28" stroke-width="0.7"/><g fill="none" stroke="#6a4f28" stroke-width="1.0" stroke-linecap="round" stroke-linejoin="round"><line x1="227.8" y1="227.7" x2="358.2" y2="227.7"/></g><g fill="none" stroke="#6a4f28" stroke-width="0.8"><line x1="227.8" y1="279.2" x2="358.2" y2="279.2"/><line x1="239.8" y1="279.2" x2="239.8" y2="294.5"/><line x1="346.2" y1="279.2" x2="346.2" y2="294.5"/></g><rect x="288.1" y="85.2" width="9.9" height="10.9" fill="#ecdaa2" stroke="#6a4f28" stroke-width="0.8"/><text x="233.75" y="286.86" text-anchor="middle" dominant-baseline="central" font-family="'Segoe UI Symbol','Apple Symbols','DejaVu Sans',sans-serif" font-size="10.80" fill="#6a4f28">☽</text><text x="471" y="70" text-anchor="middle" font-size="15" fill="#3c3015">Mercury</text><rect x="396.0" y="80.0" width="150" height="228" rx="11.7" fill="#ecdaa2" stroke="#6a4f28" stroke-width="1.5"/><rect x="405.8" y="89.8" width="130.5" height="204.8" fill="none" stroke="#6a4f28" stroke-width="0.7"/><g fill="none" stroke="#6a4f28" stroke-width="1.0" stroke-linecap="round" stroke-linejoin="round"><line x1="405.8" y1="89.8" x2="536.2" y2="279.2"/></g><g fill="none" stroke="#6a4f28" stroke-width="0.8"><line x1="405.8" y1="279.2" x2="536.2" y2="279.2"/><line x1="417.8" y1="279.2" x2="417.8" y2="294.5"/><line x1="524.2" y1="279.2" x2="524.2" y2="294.5"/></g><rect x="466.1" y="85.2" width="9.9" height="10.9" fill="#ecdaa2" stroke="#6a4f28" stroke-width="0.8"/><text x="411.75" y="286.86" text-anchor="middle" dominant-baseline="central" font-family="'Segoe UI Symbol','Apple Symbols','DejaVu Sans',sans-serif" font-size="10.80" fill="#6a4f28">☿</text><text x="649" y="70" text-anchor="middle" font-size="15" fill="#3c3015">Venus</text><rect x="574.0" y="80.0" width="150" height="228" rx="11.7" fill="#ecdaa2" stroke="#6a4f28" stroke-width="1.5"/><rect x="583.8" y="89.8" width="130.5" height="204.8" fill="none" stroke="#6a4f28" stroke-width="0.7"/><g fill="none" stroke="#6a4f28" stroke-width="0.8"><line x1="583.8" y1="279.2" x2="714.2" y2="279.2"/><line x1="595.8" y1="279.2" x2="595.8" y2="294.5"/><line x1="702.2" y1="279.2" x2="702.2" y2="294.5"/></g><rect x="644.0" y="85.2" width="9.9" height="10.9" fill="#ecdaa2" stroke="#6a4f28" stroke-width="0.8"/><text x="589.75" y="286.86" text-anchor="middle" dominant-baseline="central" font-family="'Segoe UI Symbol','Apple Symbols','DejaVu Sans',sans-serif" font-size="10.80" fill="#6a4f28">♀</text><text x="204" y="336" text-anchor="middle" font-size="15" fill="#3c3015">Mars</text><rect x="129.0" y="346.0" width="150" height="228" rx="11.7" fill="#ecdaa2" stroke="#6a4f28" stroke-width="1.5"/><rect x="138.8" y="355.8" width="130.5" height="204.8" fill="none" stroke="#6a4f28" stroke-width="0.7"/><g fill="none" stroke="#6a4f28" stroke-width="1.0" stroke-linecap="round" stroke-linejoin="round"><line x1="204.0" y1="355.8" x2="204.0" y2="452.5"/><line x1="138.8" y1="452.5" x2="269.2" y2="452.5"/></g><g fill="none" stroke="#6a4f28" stroke-width="0.8"><line x1="138.8" y1="545.2" x2="269.2" y2="545.2"/><line x1="150.8" y1="545.2" x2="150.8" y2="560.5"/><line x1="257.2" y1="545.2" x2="257.2" y2="560.5"/></g><rect x="199.1" y="351.2" width="9.9" height="10.9" fill="#ecdaa2" stroke="#6a4f28" stroke-width="0.8"/><text x="144.75" y="552.86" text-anchor="middle" dominant-baseline="central" font-family="'Segoe UI Symbol','Apple Symbols','DejaVu Sans',sans-serif" font-size="10.80" fill="#6a4f28">♂</text><text x="382" y="336" text-anchor="middle" font-size="15" fill="#3c3015">Jupiter</text><rect x="307.0" y="346.0" width="150" height="228" rx="11.7" fill="#ecdaa2" stroke="#6a4f28" stroke-width="1.5"/><rect x="316.8" y="355.8" width="130.5" height="204.8" fill="none" stroke="#6a4f28" stroke-width="0.7"/><g fill="none" stroke="#6a4f28" stroke-width="1.0" stroke-linecap="round" stroke-linejoin="round"><path d="M382.0,355.8 L447.2,450.5 L382.0,545.2 L316.8,450.5 Z"/></g><g fill="none" stroke="#6a4f28" stroke-width="0.8"><line x1="316.8" y1="545.2" x2="447.2" y2="545.2"/><line x1="328.8" y1="545.2" x2="328.8" y2="560.5"/><line x1="435.2" y1="545.2" x2="435.2" y2="560.5"/></g><rect x="377.1" y="351.2" width="9.9" height="10.9" fill="#ecdaa2" stroke="#6a4f28" stroke-width="0.8"/><text x="322.75" y="552.86" text-anchor="middle" dominant-baseline="central" font-family="'Segoe UI Symbol','Apple Symbols','DejaVu Sans',sans-serif" font-size="10.80" fill="#6a4f28">♃</text><text x="560" y="336" text-anchor="middle" font-size="15" fill="#3c3015">Saturn</text><rect x="485.0" y="346.0" width="150" height="228" rx="11.7" fill="#ecdaa2" stroke="#6a4f28" stroke-width="1.5"/><rect x="494.8" y="355.8" width="130.5" height="204.8" fill="none" stroke="#6a4f28" stroke-width="0.7"/><g fill="none" stroke="#6a4f28" stroke-width="1.0" stroke-linecap="round" stroke-linejoin="round"><line x1="494.8" y1="452.7" x2="625.2" y2="452.7"/></g><g fill="none" stroke="#6a4f28" stroke-width="0.8"><line x1="494.8" y1="545.2" x2="625.2" y2="545.2"/><line x1="506.8" y1="545.2" x2="506.8" y2="560.5"/><line x1="613.2" y1="545.2" x2="613.2" y2="560.5"/></g><rect x="555.0" y="351.2" width="9.9" height="10.9" fill="#ecdaa2" stroke="#6a4f28" stroke-width="0.8"/><text x="500.75" y="552.86" text-anchor="middle" dominant-baseline="central" font-family="'Segoe UI Symbol','Apple Symbols','DejaVu Sans',sans-serif" font-size="10.80" fill="#6a4f28">♄</text></svg>