<svg xmlns="http://www.w3.org/2000/svg" viewBox="0 0 764 600"><rect x="0" y="0" width="764" height="600" fill="#f4ecd8"/><path d="M209.0 -4Q199.0 -4 191.5 -0.5Q184.0 3 184.0 9Q184.0 17 191.0 22.0Q198.0 27 211.0 29Q249.0 37 267.0 51.5Q285.0 66 285.0 99V504Q285.0 545 283.0 566.0Q281.0 587 277.5 594.5Q274.0 602 267.0 603Q257.0 607 242.0 608.0Q227.0 609 213.0 609H182.0Q153.0 609 126.0 595.5Q99.0 582 84.0 559Q80.0 553 71.5 542.0Q63.0 531 53.5 522.0Q44.0 513 34.0 513Q27.0 513 24.5 518.0Q22.0 523 22.0 529Q22.0 541 28.0 553Q45.0 587 53.5 612.5Q62.0 638 65.0 673Q67.0 688 73.5 692.5Q80.0 697 87.0 697Q93.0 697 101.5 684.5Q110.0 672 117.0 664Q126.0 655 149.0 650.5Q172.0 646 188.0 646L557.0 647Q585.0 647 604.0 651.5Q623.0 656 634.0 661Q649.0 670 658.0 679.5Q667.0 689 679.0 689Q684.0 689 686.5 683.5Q689.0 678 689.0 670Q689.0 665 688.0 658.5Q687.0 652 686.0 647Q682.0 628 678.0 613.5Q674.0 599 671.5 586.5Q669.0 574 669.0 558V541Q669.0 527 665.0 517.0Q661.0 507 652.0 507Q644.0 507 638.5 516.5Q633.0 526 627.0 546Q618.0 578 597.0 593.5Q576.0 609 531.0 609H463.0Q444.0 609 433.5 602.0Q423.0 595 418.5 571.5Q414.0 548 414.0 499V100Q414.0 68 432.0 53.5Q450.0 39 489.0 29Q501.0 26 508.0 22.0Q515.0 18 515.0 10Q515.0 3 508.5 0.0Q502.0 -3 492.0 -3Q468.0 -3 444.0 -2.0Q420.0 -1 396.5 0.0Q373.0 1 351.0 1Q329.0 1 305.5 0.0Q282.0 -1 257.5 -2.5Q233.0 -4 209.0 -4ZM814.9090909090909 -3Q794.9090909090909 -3 794.9090909090909 10Q794.9090909090909 21 817.9090909090909 29Q832.9090909090909 34 845.4090909090909 40.5Q857.9090909090909 47 857.9090909090909 68V555Q857.9090909090909 582 850.4090909090909 602.0Q842.9090909090909 622 816.9090909090909 627Q806.9090909090909 629 806.9090909090909 642Q806.9090909090909 653 815.9090909090909 656Q835.9090909090909 661 862.4090909090909 669.5Q888.9090909090909 678 914.4090909090909 687.5Q939.9090909090909 697 955.9090909090909 702Q962.9090909090909 705 965.9090909090909 705Q971.9090909090909 705 973.9090909090909 702.0Q975.9090909090909 699 975.9090909090909 695Q975.9090909090909 689 973.9090909090909 679.0Q971.9090909090909 669 970.4090909090909 651.5Q968.9090909090909 634 968.9090909090909 604V391Q968.9090909090909 379 969.9090909090909 371.5Q970.9090909090909 364 974.9090909090909 360Q989.9090909090909 372 1011.909090909091 387.5Q1033.909090909091 403 1061.909090909091 414.5Q1089.909090909091 426 1122.909090909091 426Q1174.909090909091 426 1209.409090909091 388.0Q1243.909090909091 350 1243.909090909091 286V71Q1243.909090909091 50 1255.909090909091 42.0Q1267.909090909091 34 1281.909090909091 29Q1292.909090909091 25 1298.409090909091 21.0Q1303.909090909091 17 1303.909090909091 10Q1303.909090909091 -3 1282.909090909091 -3Q1259.909090909091 -3 1246.409090909091 -1.5Q1232.909090909091 0 1220.909090909091 1.0Q1208.909090909091 2 1187.909090909091 2Q1167.909090909091 2 1156.409090909091 1.0Q1144.909090909091 0 1132.909090909091 -1.5Q1120.909090909091 -3 1097.909090909091 -3Q1075.909090909091 -3 1075.909090909091 11Q1075.909090909091 18 1081.909090909091 22.0Q1087.909090909091 26 1096.909090909091 29Q1110.909090909091 33 1121.909090909091 42.0Q1132.909090909091 51 1132.909090909091 72V271Q1132.909090909091 294 1121.909090909091 312.5Q1110.909090909091 331 1094.409090909091 342.0Q1077.909090909091 353 1058.909090909091 353Q1042.909090909091 353 1022.909090909091 348.0Q1002.9090909090909 343 986.9090909090909 331Q975.9090909090909 323 972.4090909090909 313.5Q968.9090909090909 304 968.9090909090909 283V69Q969.9090909090909 49 980.4090909090909 41.5Q990.9090909090909 34 1003.9090909090909 29Q1013.9090909090909 26 1019.409090909091 22.0Q1024.909090909091 18 1024.909090909091 11Q1024.909090909091 -3 1006.9090909090909 -3Q986.9090909090909 -3 971.9090909090909 -1.5Q956.9090909090909 0 943.4090909090909 1.0Q929.9090909090909 2 911.9090909090909 2Q894.9090909090909 2 880.4090909090909 1.0Q865.9090909090909 0 850.4090909090909 -1.5Q834.9090909090909 -3 814.9090909090909 -3ZM1625.818181818182 -14Q1570.818181818182 -14 1528.818181818182 14.0Q1486.818181818182 42 1462.818181818182 91.5Q1438.818181818182 141 1438.818181818182 204Q1438.818181818182 265 1467.318181818182 315.5Q1495.818181818182 366 1543.818181818182 396.0Q1591.818181818182 426 1648.818181818182 426Q1690.818181818182 426 1723.818181818182 408.5Q1756.818181818182 391 1776.318181818182 360.5Q1795.818181818182 330 1795.818181818182 292Q1795.818181818182 256 1764.818181818182 256H1561.818181818182Q1547.818181818182 256 1541.318181818182 248.5Q1534.818181818182 241 1534.818181818182 221Q1534.818181818182 179 1553.318181818182 145.0Q1571.818181818182 111 1602.818181818182 91.0Q1633.818181818182 71 1673.818181818182 71Q1702.818181818182 71 1727.318181818182 82.5Q1751.818181818182 94 1773.818181818182 114Q1777.818181818182 117 1780.818181818182 119.5Q1783.818181818182 122 1786.818181818182 122Q1796.818181818182 122 1796.818181818182 110Q1796.818181818182 96 1784.818181818182 76Q1772.818181818182 53 1750.318181818182 32.0Q1727.818181818182 11 1695.818181818182 -1.5Q1663.818181818182 -14 1625.818181818182 -14ZM1561.818181818182 295H1632.818181818182Q1658.818181818182 295 1671.818181818182 296.0Q1684.818181818182 297 1696.818181818182 300Q1701.818181818182 301 1703.818181818182 308.5Q1705.818181818182 316 1705.818181818182 326Q1705.818181818182 353 1685.318181818182 371.5Q1664.818181818182 390 1634.818181818182 390Q1613.818181818182 390 1593.818181818182 377.5Q1573.818181818182 365 1560.818181818182 346.0Q1547.818181818182 327 1548.818181818182 307Q1548.818181818182 295 1561.818181818182 295ZM2633.636363636364 -14Q2558.636363636364 -14 2491.636363636364 9.5Q2424.636363636364 33 2373.136363636364 77.0Q2321.636363636364 121 2292.136363636364 182.5Q2262.636363636364 244 2262.636363636364 319Q2262.636363636364 389 2291.636363636364 451.0Q2320.636363636364 513 2373.636363636364 561.0Q2426.636363636364 609 2500.136363636364 636.5Q2573.636363636364 664 2661.636363636364 664Q2695.636363636364 664 2726.136363636364 659.5Q2756.636363636364 655 2785.636363636364 648.5Q2814.636363636364 642 2842.636363636364 632Q2853.636363636364 628 2860.136363636364 621.0Q2866.636363636364 614 2867.636363636364 602Q2871.636363636364 572 2873.636363636364 542.5Q2875.636363636364 513 2875.636363636364 484Q2876.636363636364 474 2868.636363636364 469.5Q2860.636363636364 465 2851.636363636364 468.5Q2842.636363636364 472 2838.636363636364 483Q2830.636363636364 511 2820.136363636364 535.5Q2809.636363636364 560 2788.636363636364 577Q2765.636363636364 596 2730.636363636364 607.5Q2695.636363636364 619 2648.636363636364 619Q2594.636363636364 619 2550.636363636364 597.0Q2506.636363636364 575 2475.136363636364 536.0Q2443.636363636364 497 2426.636363636364 448.0Q2409.636363636364 399 2409.636363636364 345Q2409.636363636364 281 2425.136363636364 224.0Q2440.636363636364 167 2472.136363636364 123.5Q2503.636363636364 80 2548.636363636364 55.5Q2593.636363636364 31 2651.636363636364 31Q2725.636363636364 31 2771.636363636364 63.0Q2817.636363636364 95 2849.636363636364 158Q2857.636363636364 174 2871.636363636364 173.5Q2885.636363636364 173 2885.636363636364 157Q2885.636363636364 145 2882.636363636364 127.0Q2879.636363636364 109 2874.136363636364 88.5Q2868.636363636364 68 2861.636363636364 48Q2857.636363636364 36 2851.636363636364 30.0Q2845.636363636364 24 2833.636363636364 19Q2795.636363636364 3 2744.136363636364 -5.5Q2692.636363636364 -14 2633.636363636364 -14ZM3153.545454545455 -14Q3129.545454545455 -14 3108.045454545455 -1.0Q3086.545454545455 12 3073.545454545455 33.0Q3060.545454545455 54 3060.545454545455 76Q3060.545454545455 110 3080.545454545455 131.5Q3100.545454545455 153 3140.545454545455 170L3233.545454545455 210Q3253.545454545455 218 3258.045454545455 225.0Q3262.545454545455 232 3262.545454545455 251L3264.545454545455 310Q3265.545454545455 338 3253.045454545455 355.0Q3240.545454545455 372 3215.545454545455 372Q3202.545454545455 372 3188.545454545455 367.0Q3174.545454545455 362 3166.545454545455 354Q3162.545454545455 350 3161.045454545455 343.5Q3159.545454545455 337 3159.545454545455 331Q3159.545454545455 326 3160.045454545455 318.5Q3160.545454545455 311 3160.545454545455 305Q3160.545454545455 299 3145.545454545455 290.0Q3130.545454545455 281 3111.545454545455 274.0Q3092.545454545455 267 3079.545454545455 267Q3072.545454545455 267 3068.545454545455 272.0Q3064.545454545455 277 3064.545454545455 284Q3064.545454545455 300 3075.045454545455 316.5Q3085.545454545455 333 3108.545454545455 352Q3133.545454545455 373 3163.545454545455 389.5Q3193.545454545455 406 3222.045454545455 416.0Q3250.545454545455 426 3271.545454545455 426Q3319.545454545455 426 3348.545454545455 394.5Q3377.545454545455 363 3376.545454545455 312L3371.545454545455 98Q3370.545454545455 76 3380.045454545455 61.0Q3389.545454545455 46 3403.545454545455 46Q3424.545454545455 46 3437.545454545455 58Q3441.545454545455 62 3444.545454545455 62Q3449.545454545455 62 3453.045454545455 58.5Q3456.545454545455 55 3456.545454545455 50Q3456.545454545455 39 3440.545454545455 23Q3422.545454545455 5 3402.045454545455 -4.5Q3381.545454545455 -14 3361.545454545455 -14Q3308.545454545455 -14 3275.545454545455 41H3272.545454545455Q3239.545454545455 12 3212.045454545455 -1.0Q3184.545454545455 -14 3153.545454545455 -14ZM3208.545454545455 46Q3222.545454545455 46 3232.545454545455 50.5Q3242.545454545455 55 3249.545454545455 63Q3253.545454545455 68 3256.045454545455 75.0Q3258.545454545455 82 3259.545454545455 95L3261.545454545455 159Q3262.545454545455 169 3259.545454545455 172.5Q3256.545454545455 176 3252.545454545455 176Q3250.545454545455 176 3246.545454545455 175.5Q3242.545454545455 175 3237.545454545455 172Q3200.545454545455 157 3184.545454545455 140.0Q3168.545454545455 123 3168.545454545455 96Q3168.545454545455 69 3181.545454545455 57.5Q3194.545454545455 46 3208.545454545455 46ZM3588.454545454546 -3Q3580.454545454546 -3 3574.454545454546 0.5Q3568.454545454546 4 3568.454545454546 10Q3568.454545454546 18 3574.954545454546 22.0Q3581.454545454546 26 3591.454545454546 29Q3612.454545454546 35 3620.954545454546 43.5Q3629.454545454546 52 3629.454545454546 67V292Q3629.454545454546 315 3622.954545454546 330.5Q3616.454545454546 346 3595.454545454546 351Q3591.454545454546 353 3587.454545454546 356.5Q3583.454545454546 360 3583.454545454546 367Q3583.454545454546 380 3594.454545454546 383Q3624.454545454546 391 3659.454545454546 404.5Q3694.454545454546 418 3718.454545454546 431Q3723.454545454546 434 3729.454545454546 437.0Q3735.454545454546 440 3738.454545454546 440Q3746.454545454546 440 3746.454545454546 430Q3746.454545454546 426 3745.954545454546 412.0Q3745.454545454546 398 3744.954545454546 381.5Q3744.454545454546 365 3743.454545454546 352Q3743.454545454546 346 3746.454545454546 346Q3762.454545454546 367 3782.454545454546 385.0Q3802.454545454546 403 3824.954545454546 415.0Q3847.454545454546 427 3870.454545454546 427Q3899.454545454546 427 3913.954545454546 415.0Q3928.454545454546 403 3928.454545454546 385Q3928.454545454546 371 3920.954545454546 355.0Q3913.454545454546 339 3901.954545454546 327.5Q3890.454545454546 316 3876.454545454546 316Q3868.454545454546 316 3859.454545454546 319.5Q3850.454545454546 323 3841.454545454546 328Q3832.454545454546 332 3822.954545454546 336.0Q3813.454545454546 340 3805.454545454546 340Q3780.454545454546 340 3760.454545454546 321.5Q3740.454545454546 303 3740.454545454546 249V73Q3740.454545454546 55 3753.454545454546 45.5Q3766.454545454546 36 3793.454545454546 28Q3804.454545454546 25 3809.954545454546 21.5Q3815.454545454546 18 3815.454545454546 10Q3815.454545454546 -3 3797.454545454546 -3Q3767.454545454546 -3 3740.954545454546 -0.5Q3714.454545454546 2 3688.454545454546 2Q3671.454545454546 2 3655.954545454546 1.0Q3640.454545454546 0 3624.454545454546 -1.5Q3608.454545454546 -3 3588.454545454546 -3ZM4381.363636363637 -19Q4378.363636363637 -19 4372.863636363637 -13.5Q4367.363636363637 -8 4367.363636363637 -5Q4369.363636363637 9 4370.863636363637 24.5Q4372.363636363637 40 4373.363636363637 51V57Q4354.363636363637 29 4319.863636363637 7.5Q4285.363636363637 -14 4241.363636363637 -14Q4185.363636363637 -14 4142.363636363637 14.5Q4099.363636363637 43 4074.863636363637 90.5Q4050.363636363637 138 4050.363636363637 193Q4050.363636363637 258 4079.863636363637 310.5Q4109.363636363637 363 4162.363636363637 393.5Q4215.363636363637 424 4285.363636363637 424Q4302.363636363637 424 4319.863636363637 421.5Q4337.363636363637 419 4350.363636363637 415Q4362.363636363637 412 4363.363636363637 412Q4368.363636363637 412 4368.363636363637 429V555Q4368.363636363637 593 4358.363636363637 608.0Q4348.363636363637 623 4326.363636363637 627Q4315.363636363637 630 4315.363636363637 642Q4315.363636363637 653 4325.363636363637 656Q4364.363636363637 665 4398.863636363637 676.5Q4433.363636363637 688 4455.363636363637 698Q4465.363636363637 702 4469.863636363637 703.5Q4474.363636363637 705 4475.363636363637 705Q4485.363636363637 705 4485.363636363637 695Q4485.363636363637 695 4484.363636363637 683.0Q4483.363636363637 671 4481.863636363637 650.5Q4480.363636363637 630 4479.363636363637 604L4476.363636363637 117Q4476.363636363637 83 4481.363636363637 68.0Q4486.363636363637 53 4498.363636363637 53Q4503.363636363637 53 4511.363636363637 53.5Q4519.363636363637 54 4539.363636363637 56Q4554.363636363637 57 4554.363636363637 46Q4554.363636363637 38 4548.863636363637 30.5Q4543.363636363637 23 4538.363636363637 23Q4504.363636363637 19 4469.363636363637 10.0Q4434.363636363637 1 4398.363636363637 -13Q4391.363636363637 -16 4387.863636363637 -17.5Q4384.363636363637 -19 4381.363636363637 -19ZM4287.363636363637 49Q4306.363636363637 49 4329.363636363637 58.5Q4352.363636363637 68 4368.363636363637 85V293Q4368.363636363637 314 4354.363636363637 334.5Q4340.363636363637 355 4317.363636363637 368.5Q4294.363636363637 382 4268.363636363637 382Q4244.363636363637 382 4221.363636363637 364.5Q4198.363636363637 347 4182.863636363637 311.0Q4167.363636363637 275 4167.363636363637 219Q4167.363636363637 173 4178.863636363637 140.5Q4190.363636363637 108 4208.363636363637 88.0Q4226.363636363637 68 4247.363636363637 58.5Q4268.363636363637 49 4287.363636363637 49ZM5181.181818181819 -15Q5138.181818181819 -15 5099.681818181819 -4.0Q5061.181818181819 7 5029.181818181819 29Q5023.181818181819 34 5018.181818181819 39.5Q5013.181818181819 45 5010.181818181819 52Q5002.181818181819 77 4999.181818181819 113.5Q4996.181818181819 150 4997.181818181819 184Q4997.181818181819 191 5002.681818181819 194.0Q5008.181818181819 197 5016.181818181819 197Q5024.181818181819 197 5028.681818181819 194.5Q5033.181818181819 192 5035.181818181819 185Q5057.181818181819 110 5099.181818181819 68.0Q5141.181818181819 26 5194.181818181819 26Q5227.181818181819 26 5250.181818181819 41.0Q5273.181818181819 56 5285.181818181819 80.0Q5297.181818181819 104 5297.181818181819 132Q5297.181818181819 167 5284.681818181819 190.0Q5272.181818181819 213 5247.181818181819 231.5Q5222.181818181819 250 5184.181818181819 271Q5143.181818181819 295 5104.181818181819 321.5Q5065.181818181819 348 5040.181818181819 384.5Q5015.181818181819 421 5015.181818181819 475Q5015.181818181819 531 5043.681818181819 573.5Q5072.181818181819 616 5123.181818181819 640.0Q5174.181818181819 664 5241.181818181819 664Q5278.181818181819 664 5310.181818181819 656.0Q5342.181818181819 648 5361.181818181819 640Q5372.181818181819 636 5377.681818181819 630.0Q5383.181818181819 624 5386.181818181819 611Q5392.181818181819 590 5396.681818181819 561.0Q5401.181818181819 532 5401.181818181819 500Q5401.181818181819 488 5383.181818181819 488Q5375.181818181819 488 5367.181818181819 492.0Q5359.181818181819 496 5357.181818181819 503Q5339.181818181819 561 5307.681818181819 591.0Q5276.181818181819 621 5230.181818181819 621Q5199.181818181819 621 5177.181818181819 610.5Q5155.181818181819 600 5142.181818181819 578.5Q5129.181818181819 557 5129.181818181819 523Q5129.181818181819 497 5146.681818181819 475.0Q5164.181818181819 453 5195.681818181819 432.0Q5227.181818181819 411 5266.181818181819 386Q5314.181818181819 358 5346.681818181819 329.5Q5379.181818181819 301 5396.181818181819 266.5Q5413.181818181819 232 5413.181818181819 185Q5413.181818181819 119 5384.181818181819 74.5Q5355.181818181819 30 5303.181818181819 7.5Q5251.181818181819 -15 5181.181818181819 -15ZM5579.09090909091 -3Q5559.09090909091 -3 5559.09090909091 10Q5559.09090909091 21 5582.09090909091 29Q5597.09090909091 34 5609.59090909091 40.5Q5622.09090909091 47 5622.09090909091 68V555Q5622.09090909091 582 5614.59090909091 602.0Q5607.09090909091 622 5581.09090909091 627Q5571.09090909091 629 5571.09090909091 642Q5571.09090909091 653 5580.09090909091 656Q5600.09090909091 661 5626.59090909091 669.5Q5653.09090909091 678 5678.59090909091 687.5Q5704.09090909091 697 5720.09090909091 702Q5727.09090909091 705 5730.09090909091 705Q5736.09090909091 705 5738.09090909091 702.0Q5740.09090909091 699 5740.09090909091 695Q5740.09090909091 689 5738.09090909091 679.0Q5736.09090909091 669 5734.59090909091 651.5Q5733.09090909091 634 5733.09090909091 604V391Q5733.09090909091 379 5734.09090909091 371.5Q5735.09090909091 364 5739.09090909091 360Q5754.09090909091 372 5776.09090909091 387.5Q5798.09090909091 403 5826.09090909091 414.5Q5854.09090909091 426 5887.09090909091 426Q5939.09090909091 426 5973.59090909091 388.0Q6008.09090909091 350 6008.09090909091 286V71Q6008.09090909091 50 6020.09090909091 42.0Q6032.09090909091 34 6046.09090909091 29Q6057.09090909091 25 6062.59090909091 21.0Q6068.09090909091 17 6068.09090909091 10Q6068.09090909091 -3 6047.09090909091 -3Q6024.09090909091 -3 6010.59090909091 -1.5Q5997.09090909091 0 5985.09090909091 1.0Q5973.09090909091 2 5952.09090909091 2Q5932.09090909091 2 5920.59090909091 1.0Q5909.09090909091 0 5897.09090909091 -1.5Q5885.09090909091 -3 5862.09090909091 -3Q5840.09090909091 -3 5840.09090909091 11Q5840.09090909091 18 5846.09090909091 22.0Q5852.09090909091 26 5861.09090909091 29Q5875.09090909091 33 5886.09090909091 42.0Q5897.09090909091 51 5897.09090909091 72V271Q5897.09090909091 294 5886.09090909091 312.5Q5875.09090909091 331 5858.59090909091 342.0Q5842.09090909091 353 5823.09090909091 353Q5807.09090909091 353 5787.09090909091 348.0Q5767.09090909091 343 5751.09090909091 331Q5740.09090909091 323 5736.59090909091 313.5Q5733.09090909091 304 5733.09090909091 283V69Q5734.09090909091 49 5744.59090909091 41.5Q5755.09090909091 34 5768.09090909091 29Q5778.09090909091 26 5783.59090909091 22.0Q5789.09090909091 18 5789.09090909091 11Q5789.09090909091 -3 5771.09090909091 -3Q5751.09090909091 -3 5736.09090909091 -1.5Q5721.09090909091 0 5707.59090909091 1.0Q5694.09090909091 2 5676.09090909091 2Q5659.09090909091 2 5644.59090909091 1.0Q5630.09090909091 0 5614.59090909091 -1.5Q5599.09090909091 -3 5579.09090909091 -3ZM6303.000000000001 -14Q6279.000000000001 -14 6257.500000000001 -1.0Q6236.000000000001 12 6223.000000000001 33.0Q6210.000000000001 54 6210.000000000001 76Q6210.000000000001 110 6230.000000000001 131.5Q6250.000000000001 153 6290.000000000001 170L6383.000000000001 210Q6403.000000000001 218 6407.500000000001 225.0Q6412.000000000001 232 6412.000000000001 251L6414.000000000001 310Q6415.000000000001 338 6402.500000000001 355.0Q6390.000000000001 372 6365.000000000001 372Q6352.000000000001 372 6338.000000000001 367.0Q6324.000000000001 362 6316.000000000001 354Q6312.000000000001 350 6310.500000000001 343.5Q6309.000000000001 337 6309.000000000001 331Q6309.000000000001 326 6309.500000000001 318.5Q6310.000000000001 311 6310.000000000001 305Q6310.000000000001 299 6295.000000000001 290.0Q6280.000000000001 281 6261.000000000001 274.0Q6242.000000000001 267 6229.000000000001 267Q6222.000000000001 267 6218.000000000001 272.0Q6214.000000000001 277 6214.000000000001 284Q6214.000000000001 300 6224.500000000001 316.5Q6235.000000000001 333 6258.000000000001 352Q6283.000000000001 373 6313.000000000001 389.5Q6343.000000000001 406 6371.500000000001 416.0Q6400.000000000001 426 6421.000000000001 426Q6469.000000000001 426 6498.000000000001 394.5Q6527.000000000001 363 6526.000000000001 312L6521.000000000001 98Q6520.000000000001 76 6529.500000000001 61.0Q6539.000000000001 46 6553.000000000001 46Q6574.000000000001 46 6587.000000000001 58Q6591.000000000001 62 6594.000000000001 62Q6599.000000000001 62 6602.500000000001 58.5Q6606.000000000001 55 6606.000000000001 50Q6606.000000000001 39 6590.000000000001 23Q6572.000000000001 5 6551.500000000001 -4.5Q6531.000000000001 -14 6511.000000000001 -14Q6458.000000000001 -14 6425.000000000001 41H6422.000000000001Q6389.000000000001 12 6361.500000000001 -1.0Q6334.000000000001 -14 6303.000000000001 -14ZM6358.000000000001 46Q6372.000000000001 46 6382.000000000001 50.5Q6392.000000000001 55 6399.000000000001 63Q6403.000000000001 68 6405.500000000001 75.0Q6408.000000000001 82 6409.000000000001 95L6411.000000000001 159Q6412.000000000001 169 6409.000000000001 172.5Q6406.000000000001 176 6402.000000000001 176Q6400.000000000001 176 6396.000000000001 175.5Q6392.000000000001 175 6387.000000000001 172Q6350.000000000001 157 6334.000000000001 140.0Q6318.000000000001 123 6318.000000000001 96Q6318.000000000001 69 6331.000000000001 57.5Q6344.000000000001 46 6358.000000000001 46ZM6730.909090909092 -270Q6724.909090909092 -270 6717.909090909092 -267.0Q6710.909090909092 -264 6710.909090909092 -257Q6710.909090909092 -249 6717.909090909092 -245.0Q6724.909090909092 -241 6733.909090909092 -238Q6752.909090909092 -232 6763.409090909092 -224.5Q6773.909090909092 -217 6773.909090909092 -200V289Q6773.909090909092 299 6768.909090909092 312.5Q6763.909090909092 326 6754.409090909092 337.5Q6744.909090909092 349 6729.909090909092 351Q6724.909090909092 353 6722.409090909092 356.5Q6719.909090909092 360 6719.909090909092 368Q6719.909090909092 375 6722.409090909092 378.5Q6724.909090909092 382 6728.909090909092 383Q6764.909090909092 391 6800.909090909092 403.5Q6836.909090909092 416 6863.909090909092 428Q6866.909090909092 429 6869.909090909092 431.5Q6872.909090909092 434 6875.909090909092 434Q6880.909090909092 434 6882.409090909092 430.5Q6883.909090909092 427 6883.909090909092 422Q6883.909090909092 414 6881.409090909092 395.5Q6878.909090909092 377 6878.909090909092 364Q6878.909090909092 354 6880.909090909092 353Q6890.909090909092 363 6916.409090909092 379.5Q6941.909090909092 396 6975.409090909092 409.0Q7008.909090909092 422 7039.909090909092 422Q7092.909090909092 422 7130.409090909092 393.5Q7167.909090909092 365 7187.909090909092 320.5Q7207.909090909092 276 7207.909090909092 228Q7207.909090909092 182 7190.409090909092 138.5Q7172.909090909092 95 7140.909090909092 60.0Q7108.909090909092 25 7067.409090909092 4.0Q7025.909090909092 -17 6977.909090909092 -17Q6965.909090909092 -17 6949.409090909092 -13.5Q6932.909090909092 -10 6916.409090909092 -4.5Q6899.909090909092 1 6887.909090909092 8Q6886.909090909092 8 6885.909090909092 2.5Q6884.909090909092 -3 6884.409090909092 -10.0Q6883.909090909092 -17 6883.909090909092 -21V-194Q6883.909090909092 -207 6891.909090909092 -215.5Q6899.909090909092 -224 6911.909090909092 -229.0Q6923.909090909092 -234 6938.909090909092 -238Q6948.909090909092 -241 6954.909090909092 -245.0Q6960.909090909092 -249 6960.909090909092 -257Q6960.909090909092 -263 6954.909090909092 -266.5Q6948.909090909092 -270 6942.909090909092 -270Q6912.909090909092 -270 6884.409090909092 -267.5Q6855.909090909092 -265 6829.909090909092 -265Q6812.909090909092 -265 6797.909090909092 -266.0Q6782.909090909092 -267 6766.909090909092 -268.5Q6750.909090909092 -270 6730.909090909092 -270ZM6980.909090909092 25Q6992.909090909092 25 7010.909090909092 33.5Q7028.909090909092 42 7046.409090909092 61.0Q7063.909090909092 80 7075.409090909092 113.0Q7086.909090909092 146 7086.909090909092 194Q7086.909090909092 249 7074.909090909092 282.5Q7062.909090909092 316 7044.909090909092 333.0Q7026.909090909092 350 7008.409090909092 355.5Q6989.909090909092 361 6975.909090909092 361Q6955.909090909092 361 6934.909090909092 352.5Q6913.909090909092 344 6899.909090909092 332.5Q6885.909090909092 321 6885.909090909092 313Q6885.909090909092 299 6885.909090909092 276.5Q6885.909090909092 254 6885.409090909092 228.5Q6884.909090909092 203 6884.409090909092 182.0Q6883.909090909092 161 6883.909090909092 152Q6883.909090909092 123 6896.909090909092 93.5Q6909.909090909092 64 6931.909090909092 44.5Q6953.909090909092 25 6980.909090909092 25ZM7536.818181818183 -14Q7481.818181818183 -14 7439.818181818183 14.0Q7397.818181818183 42 7373.818181818183 91.5Q7349.818181818183 141 7349.818181818183 204Q7349.818181818183 265 7378.318181818183 315.5Q7406.818181818183 366 7454.818181818183 396.0Q7502.818181818183 426 7559.818181818183 426Q7601.818181818183 426 7634.818181818183 408.5Q7667.818181818183 391 7687.318181818183 360.5Q7706.818181818183 330 7706.818181818183 292Q7706.818181818183 256 7675.818181818183 256H7472.818181818183Q7458.818181818183 256 7452.318181818183 248.5Q7445.818181818183 241 7445.818181818183 221Q7445.818181818183 179 7464.318181818183 145.0Q7482.818181818183 111 7513.818181818183 91.0Q7544.818181818183 71 7584.818181818183 71Q7613.818181818183 71 7638.318181818183 82.5Q7662.818181818183 94 7684.818181818183 114Q7688.818181818183 117 7691.818181818183 119.5Q7694.818181818183 122 7697.818181818183 122Q7707.818181818183 122 7707.818181818183 110Q7707.818181818183 96 7695.818181818183 76Q7683.818181818183 53 7661.318181818183 32.0Q7638.818181818183 11 7606.818181818183 -1.5Q7574.818181818183 -14 7536.818181818183 -14ZM7472.818181818183 295H7543.818181818183Q7569.818181818183 295 7582.818181818183 296.0Q7595.818181818183 297 7607.818181818183 300Q7612.818181818183 301 7614.818181818183 308.5Q7616.818181818183 316 7616.818181818183 326Q7616.818181818183 353 7596.318181818183 371.5Q7575.818181818183 390 7545.818181818183 390Q7524.818181818183 390 7504.818181818183 377.5Q7484.818181818183 365 7471.818181818183 346.0Q7458.818181818183 327 7459.818181818183 307Q7459.818181818183 295 7472.818181818183 295ZM7981.727272727274 -14Q7949.727272727274 -14 7920.227272727274 -5.5Q7890.727272727274 3 7866.727272727274 20Q7859.727272727274 34 7856.227272727274 64.0Q7852.727272727274 94 7852.727272727274 123Q7852.727272727274 135 7869.727272727274 135Q7876.727272727274 135 7881.727272727274 131.0Q7886.727272727274 127 7888.727272727274 122Q7905.727272727274 78 7931.727272727274 51.5Q7957.727272727274 25 7990.727272727274 25Q8018.727272727274 25 8034.727272727274 42.5Q8050.727272727274 60 8050.727272727274 83Q8050.727272727274 110 8031.227272727274 128.0Q8011.727272727274 146 7977.727272727274 165Q7946.727272727274 182 7922.227272727274 201.0Q7897.727272727274 220 7883.727272727274 244.5Q7869.727272727274 269 7869.727272727274 302Q7869.727272727274 339 7888.727272727274 367.0Q7907.727272727274 395 7942.227272727274 411.0Q7976.727272727274 427 8021.727272727274 427Q8053.727272727274 427 8079.227272727274 420.0Q8104.727272727274 413 8114.727272727274 406Q8122.727272727274 396 8127.727272727274 369.5Q8132.727272727274 343 8132.727272727274 314Q8132.727272727274 305 8117.727272727274 305Q8110.727272727274 305 8103.727272727274 309.0Q8096.727272727274 313 8094.727272727274 317Q8081.727272727274 354 8061.727272727274 373.0Q8041.727272727274 392 8015.727272727274 392Q7992.727272727274 392 7974.227272727274 377.5Q7955.727272727274 363 7955.727272727274 337Q7955.727272727274 316 7973.227272727274 299.0Q7990.727272727274 282 8023.727272727274 264Q8086.727272727274 230 8114.727272727274 199.5Q8142.727272727274 169 8142.727272727274 118Q8142.727272727274 57 8100.727272727274 21.5Q8058.727272727274 -14 7981.727272727274 -14Z" transform="matrix(0.022000 0 0 -0.022000 292.19 38.00)" fill="#3c3015"/><path d="M214.0 -15Q171.0 -15 132.5 -4.0Q94.0 7 62.0 29Q56.0 34 51.0 39.5Q46.0 45 43.0 52Q35.0 77 32.0 113.5Q29.0 150 30.0 184Q30.0 191 35.5 194.0Q41.0 197 49.0 197Q57.0 197 61.5 194.5Q66.0 192 68.0 185Q90.0 110 132.0 68.0Q174.0 26 227.0 26Q260.0 26 283.0 41.0Q306.0 56 318.0 80.0Q330.0 104 330.0 132Q330.0 167 317.5 190.0Q305.0 213 280.0 231.5Q255.0 250 217.0 271Q176.0 295 137.0 321.5Q98.0 348 73.0 384.5Q48.0 421 48.0 475Q48.0 531 76.5 573.5Q105.0 616 156.0 640.0Q207.0 664 274.0 664Q311.0 664 343.0 656.0Q375.0 648 394.0 640Q405.0 636 410.5 630.0Q416.0 624 419.0 611Q425.0 590 429.5 561.0Q434.0 532 434.0 500Q434.0 488 416.0 488Q408.0 488 400.0 492.0Q392.0 496 390.0 503Q372.0 561 340.5 591.0Q309.0 621 263.0 621Q232.0 621 210.0 610.5Q188.0 600 175.0 578.5Q162.0 557 162.0 523Q162.0 497 179.5 475.0Q197.0 453 228.5 432.0Q260.0 411 299.0 386Q347.0 358 379.5 329.5Q412.0 301 429.0 266.5Q446.0 232 446.0 185Q446.0 119 417.0 74.5Q388.0 30 336.0 7.5Q284.0 -15 214.0 -15ZM837.0 -20Q829.0 -20 829.0 -11Q829.0 0 831.5 20.0Q834.0 40 834.0 52Q834.0 55 833.5 57.5Q833.0 60 833.0 61Q802.0 27 760.5 6.0Q719.0 -15 673.0 -15Q641.0 -15 615.5 2.0Q590.0 19 575.5 49.0Q561.0 79 561.0 119V311Q561.0 334 552.0 347.5Q543.0 361 520.0 368Q514.0 369 509.5 373.0Q505.0 377 505.0 385Q505.0 393 509.5 397.0Q514.0 401 520.0 402Q560.0 404 589.0 409.5Q618.0 415 651.0 423Q655.0 425 659.0 426.0Q663.0 427 667.0 427Q680.0 427 679.0 413Q676.0 390 674.0 374.5Q672.0 359 672.0 336V143Q672.0 119 681.0 100.0Q690.0 81 706.0 70.0Q722.0 59 741.0 58Q760.0 58 776.5 62.0Q793.0 66 809.0 80Q817.0 86 827.0 102.5Q837.0 119 837.0 146V314Q837.0 333 828.5 344.5Q820.0 356 806.5 362.0Q793.0 368 779.0 368Q768.0 369 762.0 373.0Q756.0 377 756.0 389Q756.0 399 763.0 403.0Q770.0 407 779.0 407Q823.0 410 850.0 412.0Q877.0 414 895.5 417.0Q914.0 420 932.0 425Q935.0 426 938.5 426.5Q942.0 427 944.0 427Q958.0 427 958.0 416Q958.0 413 957.5 409.5Q957.0 406 955.0 402Q954.0 399 952.5 385.0Q951.0 371 949.5 356.0Q948.0 341 948.0 333V101Q948.0 77 953.5 68.0Q959.0 59 966.0 59Q972.0 59 983.5 59.5Q995.0 60 1000.0 60Q1008.0 60 1013.0 56.0Q1018.0 52 1018.0 43Q1018.0 34 1014.5 29.5Q1011.0 25 1002.0 24Q957.0 20 922.0 8.5Q887.0 -3 861.0 -14Q855.0 -16 848.5 -18.0Q842.0 -20 837.0 -20ZM1069.0 -3Q1061.0 -3 1055.0 0.5Q1049.0 4 1049.0 10Q1049.0 18 1055.5 22.0Q1062.0 26 1072.0 29Q1087.0 33 1099.5 40.0Q1112.0 47 1112.0 67V291Q1112.0 314 1105.5 330.5Q1099.0 347 1078.0 352Q1074.0 354 1071.0 357.5Q1068.0 361 1068.0 369Q1068.0 382 1077.0 384Q1112.0 392 1146.5 405.5Q1181.0 419 1207.0 434Q1211.0 436 1215.0 439.0Q1219.0 442 1223.0 442Q1228.0 442 1229.5 438.5Q1231.0 435 1231.0 431Q1231.0 424 1228.5 405.0Q1226.0 386 1226.0 372Q1226.0 368 1226.5 363.5Q1227.0 359 1228.0 358Q1262.0 390 1298.5 408.0Q1335.0 426 1381.0 426Q1432.0 426 1466.5 387.0Q1501.0 348 1501.0 284V66Q1501.0 46 1513.0 40.0Q1525.0 34 1540.0 29Q1548.0 26 1555.0 21.5Q1562.0 17 1562.0 9Q1562.0 3 1555.5 0.0Q1549.0 -3 1543.0 -3Q1523.0 -3 1508.0 -1.5Q1493.0 0 1478.5 1.0Q1464.0 2 1446.0 2Q1429.0 2 1414.0 1.0Q1399.0 0 1383.5 -1.5Q1368.0 -3 1348.0 -3Q1343.0 -3 1337.0 0.0Q1331.0 3 1331.0 9Q1331.0 17 1337.0 21.5Q1343.0 26 1351.0 29Q1366.0 34 1377.5 40.0Q1389.0 46 1389.0 66V269Q1389.0 309 1369.5 332.0Q1350.0 355 1317.0 355Q1290.0 355 1270.0 347.0Q1250.0 339 1231.0 324Q1227.0 321 1225.0 315.5Q1223.0 310 1223.0 304V66Q1223.0 46 1234.5 39.5Q1246.0 33 1261.0 29Q1282.0 22 1282.0 10Q1282.0 4 1277.0 0.5Q1272.0 -3 1264.0 -3Q1244.0 -3 1229.0 -1.5Q1214.0 0 1200.0 1.0Q1186.0 2 1168.0 2Q1151.0 2 1136.0 1.0Q1121.0 0 1105.0 -1.5Q1089.0 -3 1069.0 -3Z" transform="matrix(0.015000 0 0 -0.015000 103.06 70.00)" fill="#3c3015"/><rect x="40.0" y="80.0" width="150" height="228" rx="11.7" fill="#f4ecd8" stroke="#15130f" stroke-width="1.5"/><rect x="49.8" y="89.8" width="130.5" height="204.8" fill="none" stroke="#15130f" stroke-width="0.7"/><g fill="none" stroke="#15130f" stroke-width="1.0" stroke-linecap="round" stroke-linejoin="round"><line x1="49.8" y1="155.0" x2="180.2" y2="155.0"/><path d="M49.8,155.0 A65.2,65.2 0 0 1 180.2,155.0"/></g><path d="M49.8,279.2 H180.2 V294.5 H49.8 Z" fill="#f0cf48"/><g fill="none" stroke="#15130f" stroke-width="0.8"><line x1="49.8" y1="279.2" x2="180.2" y2="279.2"/><line x1="64.0" y1="279.2" x2="64.0" y2="294.5"/><line x1="166.0" y1="279.2" x2="166.0" y2="294.5"/></g><rect x="110.0" y="85.2" width="9.9" height="10.9" fill="#f0cf48" stroke="#15130f" stroke-width="0.8"/><path d="M700 1410Q993 1410 1171.5 1205.0Q1350 1000 1350 700Q1350 399 1170.0 194.5Q990 -10 700 -10Q410 -10 230.0 194.5Q50 399 50 700Q50 1000 228.5 1205.0Q407 1410 700 1410ZM700 1310Q487 1310 368.5 1116.5Q250 923 250 700Q250 481 368.5 285.5Q487 90 700 90Q910 90 1030.0 285.5Q1150 481 1150 700Q1150 923 1030.0 1116.5Q910 1310 700 1310ZM700.0 950Q766.0 950 826.0 918.0Q886.0 886 918.0 826.0Q950.0 766 950.0 700Q950.0 634 918.0 574.0Q886.0 514 826.0 482.0Q766.0 450 700.0 450Q634.0 450 574.0 482.0Q514.0 514 482.0 574.0Q450.0 634 450.0 700Q450.0 766 482.0 826.0Q514.0 886 574.0 918.0Q634.0 950 700.0 950Z" transform="matrix(0.005347 0 0 -0.005347 53.13 290.60)" fill="#15130f"/><path d="M45.0 -4Q33.0 -4 26.5 -0.5Q20.0 3 20.0 9Q20.0 17 28.5 20.5Q37.0 24 49.0 27Q73.0 34 90.0 54.0Q107.0 74 111.0 106Q119.0 167 126.5 239.0Q134.0 311 140.5 384.0Q147.0 457 151.0 521Q151.0 528 151.0 537.0Q151.0 546 151.0 555Q150.0 570 145.5 579.5Q141.0 589 130.0 597Q116.0 607 101.0 612.5Q86.0 618 67.0 622Q56.0 624 49.5 629.5Q43.0 635 43.0 643Q43.0 651 51.0 654.0Q59.0 657 72.0 657Q85.0 657 107.0 656.0Q129.0 655 154.5 653.5Q180.0 652 205.0 651.0Q230.0 650 249.0 650Q257.0 650 263.0 645.0Q269.0 640 271.0 633Q277.0 614 283.0 596.0Q289.0 578 296.0 558L446.0 191Q449.0 186 454.0 185.5Q459.0 185 461.0 190L622.0 548Q629.0 577 633.5 599.0Q638.0 621 642.0 634Q645.0 647 655.0 647H696.0Q734.0 649 776.0 653.0Q818.0 657 841.0 657Q849.0 657 856.5 654.5Q864.0 652 864.0 644Q864.0 636 858.0 632.0Q852.0 628 840.0 623Q832.0 621 821.0 616.5Q810.0 612 802.0 608Q781.0 599 770.5 585.0Q760.0 571 761.0 545Q762.0 474 765.0 417.5Q768.0 361 770.5 311.5Q773.0 262 777.0 210.5Q781.0 159 784.0 97Q786.0 69 805.5 53.0Q825.0 37 858.0 29Q870.0 26 877.5 22.0Q885.0 18 885.0 10Q885.0 3 878.5 0.0Q872.0 -3 861.0 -3Q838.0 -3 813.0 -2.0Q788.0 -1 764.5 0.0Q741.0 1 720.0 1Q700.0 1 679.0 0.0Q658.0 -1 636.0 -2.5Q614.0 -4 590.0 -4Q580.0 -4 572.5 -0.5Q565.0 3 565.0 9Q565.0 17 572.5 22.0Q580.0 27 592.0 29Q626.0 36 639.5 50.0Q653.0 64 651.0 97Q650.0 162 648.0 222.0Q646.0 282 644.0 341.0Q642.0 400 639.0 460Q638.0 468 634.5 467.5Q631.0 467 627.0 459L423.0 -1Q419.0 -12 410.0 -10.5Q401.0 -9 398.0 -1Q352.0 115 301.5 228.5Q251.0 342 202.0 459Q199.0 467 193.5 465.0Q188.0 463 187.0 454Q182.0 398 178.0 338.5Q174.0 279 173.0 220.0Q172.0 161 172.0 103Q172.0 76 189.5 57.0Q207.0 38 243.0 29Q255.0 27 263.5 22.5Q272.0 18 272.0 10Q272.0 3 264.0 0.0Q256.0 -3 246.0 -3Q219.0 -3 205.0 -2.0Q191.0 -1 179.0 0.0Q167.0 1 147.0 1Q126.0 1 107.5 0.0Q89.0 -1 73.0 -2.5Q57.0 -4 45.0 -4ZM1148.0 -14Q1089.0 -14 1042.0 12.5Q995.0 39 967.0 86.0Q939.0 133 939.0 192Q939.0 238 957.0 280.0Q975.0 322 1006.0 355.0Q1037.0 388 1079.0 407.5Q1121.0 427 1169.0 427Q1230.0 427 1278.5 398.5Q1327.0 370 1356.0 323.0Q1385.0 276 1385.0 220Q1385.0 158 1358.5 104.5Q1332.0 51 1279.5 18.5Q1227.0 -14 1148.0 -14ZM1168.0 25Q1193.0 25 1212.5 35.0Q1232.0 45 1244.0 66Q1256.0 87 1260.5 121.5Q1265.0 156 1265.0 196Q1265.0 249 1251.0 292.0Q1237.0 335 1212.0 361.0Q1187.0 387 1153.0 387Q1134.0 387 1118.5 380.5Q1103.0 374 1090.0 359Q1072.0 338 1065.5 301.5Q1059.0 265 1059.0 217Q1059.0 169 1073.5 125.0Q1088.0 81 1112.5 53.0Q1137.0 25 1168.0 25ZM1648.0 -14Q1589.0 -14 1542.0 12.5Q1495.0 39 1467.0 86.0Q1439.0 133 1439.0 192Q1439.0 238 1457.0 280.0Q1475.0 322 1506.0 355.0Q1537.0 388 1579.0 407.5Q1621.0 427 1669.0 427Q1730.0 427 1778.5 398.5Q1827.0 370 1856.0 323.0Q1885.0 276 1885.0 220Q1885.0 158 1858.5 104.5Q1832.0 51 1779.5 18.5Q1727.0 -14 1648.0 -14ZM1668.0 25Q1693.0 25 1712.5 35.0Q1732.0 45 1744.0 66Q1756.0 87 1760.5 121.5Q1765.0 156 1765.0 196Q1765.0 249 1751.0 292.0Q1737.0 335 1712.0 361.0Q1687.0 387 1653.0 387Q1634.0 387 1618.5 380.5Q1603.0 374 1590.0 359Q1572.0 338 1565.5 301.5Q1559.0 265 1559.0 217Q1559.0 169 1573.5 125.0Q1588.0 81 1612.5 53.0Q1637.0 25 1668.0 25ZM1954.0 -3Q1946.0 -3 1940.0 0.5Q1934.0 4 1934.0 10Q1934.0 18 1940.5 22.0Q1947.0 26 1957.0 29Q1972.0 33 1984.5 40.0Q1997.0 47 1997.0 67V291Q1997.0 314 1990.5 330.5Q1984.0 347 1963.0 352Q1959.0 354 1956.0 357.5Q1953.0 361 1953.0 369Q1953.0 382 1962.0 384Q1997.0 392 2031.5 405.5Q2066.0 419 2092.0 434Q2096.0 436 2100.0 439.0Q2104.0 442 2108.0 442Q2113.0 442 2114.5 438.5Q2116.0 435 2116.0 431Q2116.0 424 2113.5 405.0Q2111.0 386 2111.0 372Q2111.0 368 2111.5 363.5Q2112.0 359 2113.0 358Q2147.0 390 2183.5 408.0Q2220.0 426 2266.0 426Q2317.0 426 2351.5 387.0Q2386.0 348 2386.0 284V66Q2386.0 46 2398.0 40.0Q2410.0 34 2425.0 29Q2433.0 26 2440.0 21.5Q2447.0 17 2447.0 9Q2447.0 3 2440.5 0.0Q2434.0 -3 2428.0 -3Q2408.0 -3 2393.0 -1.5Q2378.0 0 2363.5 1.0Q2349.0 2 2331.0 2Q2314.0 2 2299.0 1.0Q2284.0 0 2268.5 -1.5Q2253.0 -3 2233.0 -3Q2228.0 -3 2222.0 0.0Q2216.0 3 2216.0 9Q2216.0 17 2222.0 21.5Q2228.0 26 2236.0 29Q2251.0 34 2262.5 40.0Q2274.0 46 2274.0 66V269Q2274.0 309 2254.5 332.0Q2235.0 355 2202.0 355Q2175.0 355 2155.0 347.0Q2135.0 339 2116.0 324Q2112.0 321 2110.0 315.5Q2108.0 310 2108.0 304V66Q2108.0 46 2119.5 39.5Q2131.0 33 2146.0 29Q2167.0 22 2167.0 10Q2167.0 4 2162.0 0.5Q2157.0 -3 2149.0 -3Q2129.0 -3 2114.0 -1.5Q2099.0 0 2085.0 1.0Q2071.0 2 2053.0 2Q2036.0 2 2021.0 1.0Q2006.0 0 1990.0 -1.5Q1974.0 -3 1954.0 -3Z" transform="matrix(0.015000 0 0 -0.015000 274.50 70.00)" fill="#3c3015"/><rect x="218.0" y="80.0" width="150" height="228" rx="11.7" fill="#f4ecd8" stroke="#15130f" stroke-width="1.5"/><rect x="227.8" y="89.8" width="130.5" height="204.8" fill="none" stroke="#15130f" stroke-width="0.7"/><g fill="none" stroke="#15130f" stroke-width="1.0" stroke-linecap="round" stroke-linejoin="round"><line x1="227.8" y1="227.7" x2="358.2" y2="227.7"/></g><path d="M227.8,279.2 H358.2 V294.5 H227.8 Z" fill="#d7e8c4"/><g fill="none" stroke="#15130f" stroke-width="0.8"><line x1="227.8" y1="279.2" x2="358.2" y2="279.2"/><line x1="242.0" y1="279.2" x2="242.0" y2="294.5"/><line x1="344.0" y1="279.2" x2="344.0" y2="294.5"/></g><rect x="288.1" y="85.2" width="9.9" height="10.9" fill="#d7e8c4" stroke="#15130f" stroke-width="0.8"/><path d="M101.0 47Q181.0 63 244.0 113Q309.0 164 358.0 252Q477.0 463 477.0 701Q477.0 941 358.0 1151Q310.0 1237 245.0 1288Q180.0 1338 100.0 1353Q188.0 1394 291.0 1405Q333.0 1410 377.0 1410Q670.0 1410 848.5 1205.0Q1027.0 1000 1027.0 699Q1027.0 399 847.0 194.5Q667.0 -10 377.0 -10Q332.0 -10 290.0 -5Q188.0 7 101.0 47ZM498.0 1241Q677.0 1021 677.0 699Q677.0 378 497.0 159Q468.0 124 436.0 94Q607.0 118 708.0 286Q827.0 481 827.0 701Q827.0 923 708.0 1117Q607.0 1281 438.0 1306Q470.0 1276 498.0 1241Z" transform="matrix(0.005347 0 0 -0.005347 231.86 290.60)" fill="#15130f"/><path d="M45.0 -4Q33.0 -4 26.5 -0.5Q20.0 3 20.0 9Q20.0 17 28.5 20.5Q37.0 24 49.0 27Q73.0 34 90.0 54.0Q107.0 74 111.0 106Q119.0 167 126.5 239.0Q134.0 311 140.5 384.0Q147.0 457 151.0 521Q151.0 528 151.0 537.0Q151.0 546 151.0 555Q150.0 570 145.5 579.5Q141.0 589 130.0 597Q116.0 607 101.0 612.5Q86.0 618 67.0 622Q56.0 624 49.5 629.5Q43.0 635 43.0 643Q43.0 651 51.0 654.0Q59.0 657 72.0 657Q85.0 657 107.0 656.0Q129.0 655 154.5 653.5Q180.0 652 205.0 651.0Q230.0 650 249.0 650Q257.0 650 263.0 645.0Q269.0 640 271.0 633Q277.0 614 283.0 596.0Q289.0 578 296.0 558L446.0 191Q449.0 186 454.0 185.5Q459.0 185 461.0 190L622.0 548Q629.0 577 633.5 599.0Q638.0 621 642.0 634Q645.0 647 655.0 647H696.0Q734.0 649 776.0 653.0Q818.0 657 841.0 657Q849.0 657 856.5 654.5Q864.0 652 864.0 644Q864.0 636 858.0 632.0Q852.0 628 840.0 623Q832.0 621 821.0 616.5Q810.0 612 802.0 608Q781.0 599 770.5 585.0Q760.0 571 761.0 545Q762.0 474 765.0 417.5Q768.0 361 770.5 311.5Q773.0 262 777.0 210.5Q781.0 159 784.0 97Q786.0 69 805.5 53.0Q825.0 37 858.0 29Q870.0 26 877.5 22.0Q885.0 18 885.0 10Q885.0 3 878.5 0.0Q872.0 -3 861.0 -3Q838.0 -3 813.0 -2.0Q788.0 -1 764.5 0.0Q741.0 1 720.0 1Q700.0 1 679.0 0.0Q658.0 -1 636.0 -2.5Q614.0 -4 590.0 -4Q580.0 -4 572.5 -0.5Q565.0 3 565.0 9Q565.0 17 572.5 22.0Q580.0 27 592.0 29Q626.0 36 639.5 50.0Q653.0 64 651.0 97Q650.0 162 648.0 222.0Q646.0 282 644.0 341.0Q642.0 400 639.0 460Q638.0 468 634.5 467.5Q631.0 467 627.0 459L423.0 -1Q419.0 -12 410.0 -10.5Q401.0 -9 398.0 -1Q352.0 115 301.5 228.5Q251.0 342 202.0 459Q199.0 467 193.5 465.0Q188.0 463 187.0 454Q182.0 398 178.0 338.5Q174.0 279 173.0 220.0Q172.0 161 172.0 103Q172.0 76 189.5 57.0Q207.0 38 243.0 29Q255.0 27 263.5 22.5Q272.0 18 272.0 10Q272.0 3 264.0 0.0Q256.0 -3 246.0 -3Q219.0 -3 205.0 -2.0Q191.0 -1 179.0 0.0Q167.0 1 147.0 1Q126.0 1 107.5 0.0Q89.0 -1 73.0 -2.5Q57.0 -4 45.0 -4ZM1124.0 -14Q1069.0 -14 1027.0 14.0Q985.0 42 961.0 91.5Q937.0 141 937.0 204Q937.0 265 965.5 315.5Q994.0 366 1042.0 396.0Q1090.0 426 1147.0 426Q1189.0 426 1222.0 408.5Q1255.0 391 1274.5 360.5Q1294.0 330 1294.0 292Q1294.0 256 1263.0 256H1060.0Q1046.0 256 1039.5 248.5Q1033.0 241 1033.0 221Q1033.0 179 1051.5 145.0Q1070.0 111 1101.0 91.0Q1132.0 71 1172.0 71Q1201.0 71 1225.5 82.5Q1250.0 94 1272.0 114Q1276.0 117 1279.0 119.5Q1282.0 122 1285.0 122Q1295.0 122 1295.0 110Q1295.0 96 1283.0 76Q1271.0 53 1248.5 32.0Q1226.0 11 1194.0 -1.5Q1162.0 -14 1124.0 -14ZM1060.0 295H1131.0Q1157.0 295 1170.0 296.0Q1183.0 297 1195.0 300Q1200.0 301 1202.0 308.5Q1204.0 316 1204.0 326Q1204.0 353 1183.5 371.5Q1163.0 390 1133.0 390Q1112.0 390 1092.0 377.5Q1072.0 365 1059.0 346.0Q1046.0 327 1047.0 307Q1047.0 295 1060.0 295ZM1364.0 -3Q1356.0 -3 1350.0 0.5Q1344.0 4 1344.0 10Q1344.0 18 1350.5 22.0Q1357.0 26 1367.0 29Q1388.0 35 1396.5 43.5Q1405.0 52 1405.0 67V292Q1405.0 315 1398.5 330.5Q1392.0 346 1371.0 351Q1367.0 353 1363.0 356.5Q1359.0 360 1359.0 367Q1359.0 380 1370.0 383Q1400.0 391 1435.0 404.5Q1470.0 418 1494.0 431Q1499.0 434 1505.0 437.0Q1511.0 440 1514.0 440Q1522.0 440 1522.0 430Q1522.0 426 1521.5 412.0Q1521.0 398 1520.5 381.5Q1520.0 365 1519.0 352Q1519.0 346 1522.0 346Q1538.0 367 1558.0 385.0Q1578.0 403 1600.5 415.0Q1623.0 427 1646.0 427Q1675.0 427 1689.5 415.0Q1704.0 403 1704.0 385Q1704.0 371 1696.5 355.0Q1689.0 339 1677.5 327.5Q1666.0 316 1652.0 316Q1644.0 316 1635.0 319.5Q1626.0 323 1617.0 328Q1608.0 332 1598.5 336.0Q1589.0 340 1581.0 340Q1556.0 340 1536.0 321.5Q1516.0 303 1516.0 249V73Q1516.0 55 1529.0 45.5Q1542.0 36 1569.0 28Q1580.0 25 1585.5 21.5Q1591.0 18 1591.0 10Q1591.0 -3 1573.0 -3Q1543.0 -3 1516.5 -0.5Q1490.0 2 1464.0 2Q1447.0 2 1431.5 1.0Q1416.0 0 1400.0 -1.5Q1384.0 -3 1364.0 -3ZM1920.0 -14Q1868.0 -14 1826.0 13.0Q1784.0 40 1759.5 87.5Q1735.0 135 1735.0 194Q1735.0 259 1765.0 311.5Q1795.0 364 1844.5 395.0Q1894.0 426 1955.0 426Q2031.0 426 2083.0 378Q2093.0 369 2093.0 360Q2093.0 353 2085.0 342.0Q2077.0 331 2066.0 323.0Q2055.0 315 2047.0 315Q2039.0 315 2032.0 320.0Q2025.0 325 2018.0 331Q1993.0 351 1966.0 365.0Q1939.0 379 1920.0 379Q1879.0 379 1856.0 343.0Q1833.0 307 1833.0 235Q1833.0 186 1850.0 150.0Q1867.0 114 1898.0 94.0Q1929.0 74 1970.0 74Q2000.0 74 2021.5 83.5Q2043.0 93 2067.0 114Q2071.0 117 2074.5 119.5Q2078.0 122 2082.0 122Q2093.0 122 2093.0 106Q2093.0 102 2091.0 94.5Q2089.0 87 2083.0 78Q2072.0 58 2047.5 36.0Q2023.0 14 1991.0 0.0Q1959.0 -14 1920.0 -14ZM2471.0 -20Q2463.0 -20 2463.0 -11Q2463.0 0 2465.5 20.0Q2468.0 40 2468.0 52Q2468.0 55 2467.5 57.5Q2467.0 60 2467.0 61Q2436.0 27 2394.5 6.0Q2353.0 -15 2307.0 -15Q2275.0 -15 2249.5 2.0Q2224.0 19 2209.5 49.0Q2195.0 79 2195.0 119V311Q2195.0 334 2186.0 347.5Q2177.0 361 2154.0 368Q2148.0 369 2143.5 373.0Q2139.0 377 2139.0 385Q2139.0 393 2143.5 397.0Q2148.0 401 2154.0 402Q2194.0 404 2223.0 409.5Q2252.0 415 2285.0 423Q2289.0 425 2293.0 426.0Q2297.0 427 2301.0 427Q2314.0 427 2313.0 413Q2310.0 390 2308.0 374.5Q2306.0 359 2306.0 336V143Q2306.0 119 2315.0 100.0Q2324.0 81 2340.0 70.0Q2356.0 59 2375.0 58Q2394.0 58 2410.5 62.0Q2427.0 66 2443.0 80Q2451.0 86 2461.0 102.5Q2471.0 119 2471.0 146V314Q2471.0 333 2462.5 344.5Q2454.0 356 2440.5 362.0Q2427.0 368 2413.0 368Q2402.0 369 2396.0 373.0Q2390.0 377 2390.0 389Q2390.0 399 2397.0 403.0Q2404.0 407 2413.0 407Q2457.0 410 2484.0 412.0Q2511.0 414 2529.5 417.0Q2548.0 420 2566.0 425Q2569.0 426 2572.5 426.5Q2576.0 427 2578.0 427Q2592.0 427 2592.0 416Q2592.0 413 2591.5 409.5Q2591.0 406 2589.0 402Q2588.0 399 2586.5 385.0Q2585.0 371 2583.5 356.0Q2582.0 341 2582.0 333V101Q2582.0 77 2587.5 68.0Q2593.0 59 2600.0 59Q2606.0 59 2617.5 59.5Q2629.0 60 2634.0 60Q2642.0 60 2647.0 56.0Q2652.0 52 2652.0 43Q2652.0 34 2648.5 29.5Q2645.0 25 2636.0 24Q2591.0 20 2556.0 8.5Q2521.0 -3 2495.0 -14Q2489.0 -16 2482.5 -18.0Q2476.0 -20 2471.0 -20ZM2705.0 -3Q2697.0 -3 2691.0 0.5Q2685.0 4 2685.0 10Q2685.0 18 2691.5 22.0Q2698.0 26 2708.0 29Q2729.0 35 2737.5 43.5Q2746.0 52 2746.0 67V292Q2746.0 315 2739.5 330.5Q2733.0 346 2712.0 351Q2708.0 353 2704.0 356.5Q2700.0 360 2700.0 367Q2700.0 380 2711.0 383Q2741.0 391 2776.0 404.5Q2811.0 418 2835.0 431Q2840.0 434 2846.0 437.0Q2852.0 440 2855.0 440Q2863.0 440 2863.0 430Q2863.0 426 2862.5 412.0Q2862.0 398 2861.5 381.5Q2861.0 365 2860.0 352Q2860.0 346 2863.0 346Q2879.0 367 2899.0 385.0Q2919.0 403 2941.5 415.0Q2964.0 427 2987.0 427Q3016.0 427 3030.5 415.0Q3045.0 403 3045.0 385Q3045.0 371 3037.5 355.0Q3030.0 339 3018.5 327.5Q3007.0 316 2993.0 316Q2985.0 316 2976.0 319.5Q2967.0 323 2958.0 328Q2949.0 332 2939.5 336.0Q2930.0 340 2922.0 340Q2897.0 340 2877.0 321.5Q2857.0 303 2857.0 249V73Q2857.0 55 2870.0 45.5Q2883.0 36 2910.0 28Q2921.0 25 2926.5 21.5Q2932.0 18 2932.0 10Q2932.0 -3 2914.0 -3Q2884.0 -3 2857.5 -0.5Q2831.0 2 2805.0 2Q2788.0 2 2772.5 1.0Q2757.0 0 2741.0 -1.5Q2725.0 -3 2705.0 -3ZM3127.0 -284Q3103.0 -284 3082.0 -268.5Q3061.0 -253 3061.0 -228Q3061.0 -209 3070.5 -192.0Q3080.0 -175 3099.0 -175Q3113.0 -175 3127.5 -180.0Q3142.0 -185 3155.0 -184Q3167.0 -183 3172.5 -178.5Q3178.0 -174 3185.0 -162Q3193.0 -148 3202.5 -131.5Q3212.0 -115 3222.5 -92.0Q3233.0 -69 3246.0 -37Q3255.0 -16 3255.0 3Q3255.0 15 3252.0 26.0Q3249.0 37 3245.0 46L3124.0 331Q3116.0 351 3104.5 366.0Q3093.0 381 3076.0 386Q3067.0 390 3061.5 394.0Q3056.0 398 3056.0 406Q3056.0 414 3064.0 415.5Q3072.0 417 3078.0 417Q3101.0 417 3115.0 416.0Q3129.0 415 3141.0 414.0Q3153.0 413 3167.0 413Q3188.0 413 3201.0 414.0Q3214.0 415 3228.5 416.0Q3243.0 417 3265.0 417Q3272.0 417 3280.0 414.5Q3288.0 412 3288.0 404Q3288.0 396 3279.0 391.5Q3270.0 387 3262.0 384Q3252.0 381 3246.0 372.5Q3240.0 364 3240.0 348Q3240.0 341 3243.0 330.5Q3246.0 320 3250.0 308L3319.0 141Q3320.0 137 3323.0 137Q3324.0 137 3326.0 141L3383.0 304Q3386.0 311 3388.5 322.5Q3391.0 334 3391.0 342Q3391.0 360 3382.5 369.5Q3374.0 379 3364.0 383Q3356.0 387 3347.0 391.5Q3338.0 396 3338.0 404Q3338.0 412 3346.5 414.5Q3355.0 417 3361.0 417Q3383.0 417 3398.0 415.0Q3413.0 413 3433.0 413Q3446.0 413 3454.5 414.0Q3463.0 415 3473.0 416.0Q3483.0 417 3498.0 417Q3504.0 417 3512.5 415.5Q3521.0 414 3521.0 406Q3521.0 398 3515.5 394.0Q3510.0 390 3501.0 386Q3484.0 381 3468.0 363.5Q3452.0 346 3442.0 323L3298.0 -25Q3292.0 -39 3282.0 -62.5Q3272.0 -86 3260.5 -114.0Q3249.0 -142 3236.0 -172.0Q3223.0 -202 3211.0 -231Q3200.0 -257 3177.5 -270.5Q3155.0 -284 3127.0 -284Z" transform="matrix(0.015000 0 0 -0.015000 444.44 70.00)" fill="#3c3015"/><rect x="396.0" y="80.0" width="150" height="228" rx="11.7" fill="#f4ecd8" stroke="#15130f" stroke-width="1.5"/><rect x="405.8" y="89.8" width="130.5" height="204.8" fill="none" stroke="#15130f" stroke-width="0.7"/><g fill="none" stroke="#15130f" stroke-width="1.0" stroke-linecap="round" stroke-linejoin="round"><line x1="405.8" y1="89.8" x2="536.2" y2="279.2"/></g><path d="M405.8,279.2 H536.2 V294.5 H405.8 Z" fill="#bfdedc"/><g fill="none" stroke="#15130f" stroke-width="0.8"><line x1="405.8" y1="279.2" x2="536.2" y2="279.2"/><line x1="420.0" y1="279.2" x2="420.0" y2="294.5"/><line x1="522.0" y1="279.2" x2="522.0" y2="294.5"/></g><rect x="466.1" y="85.2" width="9.9" height="10.9" fill="#bfdedc" stroke="#15130f" stroke-width="0.8"/><path d="M250.0 950Q250.0 859 278.0 774.5Q306.0 690 358.5 645.0Q411.0 600 467.0 600Q524.0 600 576.5 645.0Q629.0 690 657.0 774.5Q685.0 859 685.0 950Q685.0 1051 657.0 1135.5Q629.0 1220 576.5 1265.0Q524.0 1310 467.0 1310Q411.0 1310 358.5 1265.0Q306.0 1220 278.0 1135.5Q250.0 1051 250.0 950ZM589.0 1391Q633.0 1377 677.0 1352Q777.0 1294 831.0 1185.5Q885.0 1077 885.0 950Q885.0 833 831.0 724.5Q777.0 616 677.0 558Q623.0 527 568.0 513V350H785.0V250H568.0V170Q568.0 120 593.0 80.0Q618.0 40 688.0 40H738.0V0H198.0V40H248.0Q318.0 40 343.0 80.0Q368.0 120 368.0 170V250H150.0V350H368.0V513Q312.0 527 259.0 558Q158.0 616 104.0 724.5Q50.0 833 50.0 950Q50.0 1077 104.0 1185.5Q158.0 1294 259.0 1352Q301.0 1377 346.0 1391Q253.0 1414 191.0 1476Q126.0 1541 119.0 1596Q117.0 1608 117.0 1620Q117.0 1656 138.5 1677.5Q160.0 1699 196.0 1700Q231.0 1700 251.5 1679.0Q272.0 1658 282.0 1630Q289.0 1613 292.5 1548.0Q296.0 1483 346.5 1467.5Q397.0 1452 467.0 1452Q537.0 1452 587.5 1467.5Q638.0 1483 641.5 1548.0Q645.0 1613 652.0 1630Q662.0 1658 682.5 1679.0Q703.0 1700 738.0 1700Q774.0 1699 795.5 1677.5Q817.0 1656 817.0 1620Q817.0 1608 815.0 1596Q808.0 1541 743.0 1476Q681.0 1414 589.0 1391Z" transform="matrix(0.005347 0 0 -0.005347 410.38 291.41)" fill="#15130f"/><path d="M338.0 -15Q326.0 -15 321.0 -2Q315.0 11 306.0 34.0Q297.0 57 290.0 76L99.0 549Q89.0 574 72.0 592.5Q55.0 611 27.0 619Q15.0 623 7.5 627.5Q0.0 632 0.0 640Q0.0 647 7.0 650.5Q14.0 654 24.0 654Q42.0 654 66.5 653.0Q91.0 652 116.0 651.0Q141.0 650 162.0 650Q182.0 650 208.0 651.0Q234.0 652 258.5 653.0Q283.0 654 300.0 654Q310.0 654 319.0 650.5Q328.0 647 328.0 640Q328.0 632 319.0 626.5Q310.0 621 297.0 619Q268.0 614 252.5 605.5Q237.0 597 237.0 580Q237.0 570 240.0 561.0Q243.0 552 244.0 545L379.0 177Q381.0 172 383.5 171.0Q386.0 170 389.0 178L512.0 502Q532.0 554 518.5 583.5Q505.0 613 465.0 619Q452.0 621 442.5 626.5Q433.0 632 433.0 640Q433.0 647 442.0 650.0Q451.0 653 462.0 653Q480.0 653 495.0 652.5Q510.0 652 525.0 651.5Q540.0 651 559.0 651Q588.0 651 616.5 653.0Q645.0 655 670.0 655Q682.0 655 691.0 652.0Q700.0 649 700.0 641Q700.0 632 691.5 628.0Q683.0 624 671.0 621Q638.0 613 616.5 589.0Q595.0 565 579.0 527L415.0 133Q404.0 106 393.5 82.0Q383.0 58 374.5 37.0Q366.0 16 357.0 -2Q354.0 -9 350.0 -12.0Q346.0 -15 338.0 -15ZM907.0 -14Q852.0 -14 810.0 14.0Q768.0 42 744.0 91.5Q720.0 141 720.0 204Q720.0 265 748.5 315.5Q777.0 366 825.0 396.0Q873.0 426 930.0 426Q972.0 426 1005.0 408.5Q1038.0 391 1057.5 360.5Q1077.0 330 1077.0 292Q1077.0 256 1046.0 256H843.0Q829.0 256 822.5 248.5Q816.0 241 816.0 221Q816.0 179 834.5 145.0Q853.0 111 884.0 91.0Q915.0 71 955.0 71Q984.0 71 1008.5 82.5Q1033.0 94 1055.0 114Q1059.0 117 1062.0 119.5Q1065.0 122 1068.0 122Q1078.0 122 1078.0 110Q1078.0 96 1066.0 76Q1054.0 53 1031.5 32.0Q1009.0 11 977.0 -1.5Q945.0 -14 907.0 -14ZM843.0 295H914.0Q940.0 295 953.0 296.0Q966.0 297 978.0 300Q983.0 301 985.0 308.5Q987.0 316 987.0 326Q987.0 353 966.5 371.5Q946.0 390 916.0 390Q895.0 390 875.0 377.5Q855.0 365 842.0 346.0Q829.0 327 830.0 307Q830.0 295 843.0 295ZM1145.0 -3Q1137.0 -3 1131.0 0.5Q1125.0 4 1125.0 10Q1125.0 18 1131.5 22.0Q1138.0 26 1148.0 29Q1163.0 33 1175.5 40.0Q1188.0 47 1188.0 67V291Q1188.0 314 1181.5 330.5Q1175.0 347 1154.0 352Q1150.0 354 1147.0 357.5Q1144.0 361 1144.0 369Q1144.0 382 1153.0 384Q1188.0 392 1222.5 405.5Q1257.0 419 1283.0 434Q1287.0 436 1291.0 439.0Q1295.0 442 1299.0 442Q1304.0 442 1305.5 438.5Q1307.0 435 1307.0 431Q1307.0 424 1304.5 405.0Q1302.0 386 1302.0 372Q1302.0 368 1302.5 363.5Q1303.0 359 1304.0 358Q1338.0 390 1374.5 408.0Q1411.0 426 1457.0 426Q1508.0 426 1542.5 387.0Q1577.0 348 1577.0 284V66Q1577.0 46 1589.0 40.0Q1601.0 34 1616.0 29Q1624.0 26 1631.0 21.5Q1638.0 17 1638.0 9Q1638.0 3 1631.5 0.0Q1625.0 -3 1619.0 -3Q1599.0 -3 1584.0 -1.5Q1569.0 0 1554.5 1.0Q1540.0 2 1522.0 2Q1505.0 2 1490.0 1.0Q1475.0 0 1459.5 -1.5Q1444.0 -3 1424.0 -3Q1419.0 -3 1413.0 0.0Q1407.0 3 1407.0 9Q1407.0 17 1413.0 21.5Q1419.0 26 1427.0 29Q1442.0 34 1453.5 40.0Q1465.0 46 1465.0 66V269Q1465.0 309 1445.5 332.0Q1426.0 355 1393.0 355Q1366.0 355 1346.0 347.0Q1326.0 339 1307.0 324Q1303.0 321 1301.0 315.5Q1299.0 310 1299.0 304V66Q1299.0 46 1310.5 39.5Q1322.0 33 1337.0 29Q1358.0 22 1358.0 10Q1358.0 4 1353.0 0.5Q1348.0 -3 1340.0 -3Q1320.0 -3 1305.0 -1.5Q1290.0 0 1276.0 1.0Q1262.0 2 1244.0 2Q1227.0 2 1212.0 1.0Q1197.0 0 1181.0 -1.5Q1165.0 -3 1145.0 -3ZM2009.0 -20Q2001.0 -20 2001.0 -11Q2001.0 0 2003.5 20.0Q2006.0 40 2006.0 52Q2006.0 55 2005.5 57.5Q2005.0 60 2005.0 61Q1974.0 27 1932.5 6.0Q1891.0 -15 1845.0 -15Q1813.0 -15 1787.5 2.0Q1762.0 19 1747.5 49.0Q1733.0 79 1733.0 119V311Q1733.0 334 1724.0 347.5Q1715.0 361 1692.0 368Q1686.0 369 1681.5 373.0Q1677.0 377 1677.0 385Q1677.0 393 1681.5 397.0Q1686.0 401 1692.0 402Q1732.0 404 1761.0 409.5Q1790.0 415 1823.0 423Q1827.0 425 1831.0 426.0Q1835.0 427 1839.0 427Q1852.0 427 1851.0 413Q1848.0 390 1846.0 374.5Q1844.0 359 1844.0 336V143Q1844.0 119 1853.0 100.0Q1862.0 81 1878.0 70.0Q1894.0 59 1913.0 58Q1932.0 58 1948.5 62.0Q1965.0 66 1981.0 80Q1989.0 86 1999.0 102.5Q2009.0 119 2009.0 146V314Q2009.0 333 2000.5 344.5Q1992.0 356 1978.5 362.0Q1965.0 368 1951.0 368Q1940.0 369 1934.0 373.0Q1928.0 377 1928.0 389Q1928.0 399 1935.0 403.0Q1942.0 407 1951.0 407Q1995.0 410 2022.0 412.0Q2049.0 414 2067.5 417.0Q2086.0 420 2104.0 425Q2107.0 426 2110.5 426.5Q2114.0 427 2116.0 427Q2130.0 427 2130.0 416Q2130.0 413 2129.5 409.5Q2129.0 406 2127.0 402Q2126.0 399 2124.5 385.0Q2123.0 371 2121.5 356.0Q2120.0 341 2120.0 333V101Q2120.0 77 2125.5 68.0Q2131.0 59 2138.0 59Q2144.0 59 2155.5 59.5Q2167.0 60 2172.0 60Q2180.0 60 2185.0 56.0Q2190.0 52 2190.0 43Q2190.0 34 2186.5 29.5Q2183.0 25 2174.0 24Q2129.0 20 2094.0 8.5Q2059.0 -3 2033.0 -14Q2027.0 -16 2020.5 -18.0Q2014.0 -20 2009.0 -20ZM2357.0 -14Q2325.0 -14 2295.5 -5.5Q2266.0 3 2242.0 20Q2235.0 34 2231.5 64.0Q2228.0 94 2228.0 123Q2228.0 135 2245.0 135Q2252.0 135 2257.0 131.0Q2262.0 127 2264.0 122Q2281.0 78 2307.0 51.5Q2333.0 25 2366.0 25Q2394.0 25 2410.0 42.5Q2426.0 60 2426.0 83Q2426.0 110 2406.5 128.0Q2387.0 146 2353.0 165Q2322.0 182 2297.5 201.0Q2273.0 220 2259.0 244.5Q2245.0 269 2245.0 302Q2245.0 339 2264.0 367.0Q2283.0 395 2317.5 411.0Q2352.0 427 2397.0 427Q2429.0 427 2454.5 420.0Q2480.0 413 2490.0 406Q2498.0 396 2503.0 369.5Q2508.0 343 2508.0 314Q2508.0 305 2493.0 305Q2486.0 305 2479.0 309.0Q2472.0 313 2470.0 317Q2457.0 354 2437.0 373.0Q2417.0 392 2391.0 392Q2368.0 392 2349.5 377.5Q2331.0 363 2331.0 337Q2331.0 316 2348.5 299.0Q2366.0 282 2399.0 264Q2462.0 230 2490.0 199.5Q2518.0 169 2518.0 118Q2518.0 57 2476.0 21.5Q2434.0 -14 2357.0 -14Z" transform="matrix(0.015000 0 0 -0.015000 630.12 70.00)" fill="#3c3015"/><rect x="574.0" y="80.0" width="150" height="228" rx="11.7" fill="#f4ecd8" stroke="#15130f" stroke-width="1.5"/><rect x="583.8" y="89.8" width="130.5" height="204.8" fill="none" stroke="#15130f" stroke-width="0.7"/><path d="M583.8,279.2 H714.2 V294.5 H583.8 Z" fill="#e7bfd0"/><g fill="none" stroke="#15130f" stroke-width="0.8"><line x1="583.8" y1="279.2" x2="714.2" y2="279.2"/><line x1="598.0" y1="279.2" x2="598.0" y2="294.5"/><line x1="700.0" y1="279.2" x2="700.0" y2="294.5"/></g><rect x="644.0" y="85.2" width="9.9" height="10.9" fill="#e7bfd0" stroke="#15130f" stroke-width="0.8"/><path d="M250.0 950Q250.0 859 278.0 774.5Q306.0 690 358.5 645.0Q411.0 600 467.0 600Q524.0 600 576.5 645.0Q629.0 690 657.0 774.5Q685.0 859 685.0 950Q685.0 1051 657.0 1135.5Q629.0 1220 576.5 1265.0Q524.0 1310 467.0 1310Q411.0 1310 358.5 1265.0Q306.0 1220 278.0 1135.5Q250.0 1051 250.0 950ZM368.0 513Q312.0 527 259.0 558Q158.0 616 104.0 724.5Q50.0 833 50.0 950Q50.0 1077 104.0 1185.5Q158.0 1294 258.5 1352.0Q359.0 1410 467.0 1410Q576.0 1410 676.5 1352.0Q777.0 1294 831.0 1185.5Q885.0 1077 885.0 950Q885.0 833 831.0 724.5Q777.0 616 677.0 558Q623.0 527 568.0 513V350H785.0V250H568.0V170Q568.0 120 593.0 80.0Q618.0 40 688.0 40H738.0V0H198.0V40H248.0Q318.0 40 343.0 80.0Q368.0 120 368.0 170V250H150.0V350H368.0Z" transform="matrix(0.005347 0 0 -0.005347 588.38 290.63)" fill="#15130f"/><path d="M45.0 -4Q33.0 -4 26.5 -0.5Q20.0 3 20.0 9Q20.0 17 28.5 20.5Q37.0 24 49.0 27Q73.0 34 90.0 54.0Q107.0 74 111.0 106Q119.0 167 126.5 239.0Q134.0 311 140.5 384.0Q147.0 457 151.0 521Q151.0 528 151.0 537.0Q151.0 546 151.0 555Q150.0 570 145.5 579.5Q141.0 589 130.0 597Q116.0 607 101.0 612.5Q86.0 618 67.0 622Q56.0 624 49.5 629.5Q43.0 635 43.0 643Q43.0 651 51.0 654.0Q59.0 657 72.0 657Q85.0 657 107.0 656.0Q129.0 655 154.5 653.5Q180.0 652 205.0 651.0Q230.0 650 249.0 650Q257.0 650 263.0 645.0Q269.0 640 271.0 633Q277.0 614 283.0 596.0Q289.0 578 296.0 558L446.0 191Q449.0 186 454.0 185.5Q459.0 185 461.0 190L622.0 548Q629.0 577 633.5 599.0Q638.0 621 642.0 634Q645.0 647 655.0 647H696.0Q734.0 649 776.0 653.0Q818.0 657 841.0 657Q849.0 657 856.5 654.5Q864.0 652 864.0 644Q864.0 636 858.0 632.0Q852.0 628 840.0 623Q832.0 621 821.0 616.5Q810.0 612 802.0 608Q781.0 599 770.5 585.0Q760.0 571 761.0 545Q762.0 474 765.0 417.5Q768.0 361 770.5 311.5Q773.0 262 777.0 210.5Q781.0 159 784.0 97Q786.0 69 805.5 53.0Q825.0 37 858.0 29Q870.0 26 877.5 22.0Q885.0 18 885.0 10Q885.0 3 878.5 0.0Q872.0 -3 861.0 -3Q838.0 -3 813.0 -2.0Q788.0 -1 764.5 0.0Q741.0 1 720.0 1Q700.0 1 679.0 0.0Q658.0 -1 636.0 -2.5Q614.0 -4 590.0 -4Q580.0 -4 572.5 -0.5Q565.0 3 565.0 9Q565.0 17 572.5 22.0Q580.0 27 592.0 29Q626.0 36 639.5 50.0Q653.0 64 651.0 97Q650.0 162 648.0 222.0Q646.0 282 644.0 341.0Q642.0 400 639.0 460Q638.0 468 634.5 467.5Q631.0 467 627.0 459L423.0 -1Q419.0 -12 410.0 -10.5Q401.0 -9 398.0 -1Q352.0 115 301.5 228.5Q251.0 342 202.0 459Q199.0 467 193.5 465.0Q188.0 463 187.0 454Q182.0 398 178.0 338.5Q174.0 279 173.0 220.0Q172.0 161 172.0 103Q172.0 76 189.5 57.0Q207.0 38 243.0 29Q255.0 27 263.5 22.5Q272.0 18 272.0 10Q272.0 3 264.0 0.0Q256.0 -3 246.0 -3Q219.0 -3 205.0 -2.0Q191.0 -1 179.0 0.0Q167.0 1 147.0 1Q126.0 1 107.5 0.0Q89.0 -1 73.0 -2.5Q57.0 -4 45.0 -4ZM1037.0 -14Q1013.0 -14 991.5 -1.0Q970.0 12 957.0 33.0Q944.0 54 944.0 76Q944.0 110 964.0 131.5Q984.0 153 1024.0 170L1117.0 210Q1137.0 218 1141.5 225.0Q1146.0 232 1146.0 251L1148.0 310Q1149.0 338 1136.5 355.0Q1124.0 372 1099.0 372Q1086.0 372 1072.0 367.0Q1058.0 362 1050.0 354Q1046.0 350 1044.5 343.5Q1043.0 337 1043.0 331Q1043.0 326 1043.5 318.5Q1044.0 311 1044.0 305Q1044.0 299 1029.0 290.0Q1014.0 281 995.0 274.0Q976.0 267 963.0 267Q956.0 267 952.0 272.0Q948.0 277 948.0 284Q948.0 300 958.5 316.5Q969.0 333 992.0 352Q1017.0 373 1047.0 389.5Q1077.0 406 1105.5 416.0Q1134.0 426 1155.0 426Q1203.0 426 1232.0 394.5Q1261.0 363 1260.0 312L1255.0 98Q1254.0 76 1263.5 61.0Q1273.0 46 1287.0 46Q1308.0 46 1321.0 58Q1325.0 62 1328.0 62Q1333.0 62 1336.5 58.5Q1340.0 55 1340.0 50Q1340.0 39 1324.0 23Q1306.0 5 1285.5 -4.5Q1265.0 -14 1245.0 -14Q1192.0 -14 1159.0 41H1156.0Q1123.0 12 1095.5 -1.0Q1068.0 -14 1037.0 -14ZM1092.0 46Q1106.0 46 1116.0 50.5Q1126.0 55 1133.0 63Q1137.0 68 1139.5 75.0Q1142.0 82 1143.0 95L1145.0 159Q1146.0 169 1143.0 172.5Q1140.0 176 1136.0 176Q1134.0 176 1130.0 175.5Q1126.0 175 1121.0 172Q1084.0 157 1068.0 140.0Q1052.0 123 1052.0 96Q1052.0 69 1065.0 57.5Q1078.0 46 1092.0 46ZM1381.0 -3Q1373.0 -3 1367.0 0.5Q1361.0 4 1361.0 10Q1361.0 18 1367.5 22.0Q1374.0 26 1384.0 29Q1405.0 35 1413.5 43.5Q1422.0 52 1422.0 67V292Q1422.0 315 1415.5 330.5Q1409.0 346 1388.0 351Q1384.0 353 1380.0 356.5Q1376.0 360 1376.0 367Q1376.0 380 1387.0 383Q1417.0 391 1452.0 404.5Q1487.0 418 1511.0 431Q1516.0 434 1522.0 437.0Q1528.0 440 1531.0 440Q1539.0 440 1539.0 430Q1539.0 426 1538.5 412.0Q1538.0 398 1537.5 381.5Q1537.0 365 1536.0 352Q1536.0 346 1539.0 346Q1555.0 367 1575.0 385.0Q1595.0 403 1617.5 415.0Q1640.0 427 1663.0 427Q1692.0 427 1706.5 415.0Q1721.0 403 1721.0 385Q1721.0 371 1713.5 355.0Q1706.0 339 1694.5 327.5Q1683.0 316 1669.0 316Q1661.0 316 1652.0 319.5Q1643.0 323 1634.0 328Q1625.0 332 1615.5 336.0Q1606.0 340 1598.0 340Q1573.0 340 1553.0 321.5Q1533.0 303 1533.0 249V73Q1533.0 55 1546.0 45.5Q1559.0 36 1586.0 28Q1597.0 25 1602.5 21.5Q1608.0 18 1608.0 10Q1608.0 -3 1590.0 -3Q1560.0 -3 1533.5 -0.5Q1507.0 2 1481.0 2Q1464.0 2 1448.5 1.0Q1433.0 0 1417.0 -1.5Q1401.0 -3 1381.0 -3ZM1883.0 -14Q1851.0 -14 1821.5 -5.5Q1792.0 3 1768.0 20Q1761.0 34 1757.5 64.0Q1754.0 94 1754.0 123Q1754.0 135 1771.0 135Q1778.0 135 1783.0 131.0Q1788.0 127 1790.0 122Q1807.0 78 1833.0 51.5Q1859.0 25 1892.0 25Q1920.0 25 1936.0 42.5Q1952.0 60 1952.0 83Q1952.0 110 1932.5 128.0Q1913.0 146 1879.0 165Q1848.0 182 1823.5 201.0Q1799.0 220 1785.0 244.5Q1771.0 269 1771.0 302Q1771.0 339 1790.0 367.0Q1809.0 395 1843.5 411.0Q1878.0 427 1923.0 427Q1955.0 427 1980.5 420.0Q2006.0 413 2016.0 406Q2024.0 396 2029.0 369.5Q2034.0 343 2034.0 314Q2034.0 305 2019.0 305Q2012.0 305 2005.0 309.0Q1998.0 313 1996.0 317Q1983.0 354 1963.0 373.0Q1943.0 392 1917.0 392Q1894.0 392 1875.5 377.5Q1857.0 363 1857.0 337Q1857.0 316 1874.5 299.0Q1892.0 282 1925.0 264Q1988.0 230 2016.0 199.5Q2044.0 169 2044.0 118Q2044.0 57 2002.0 21.5Q1960.0 -14 1883.0 -14Z" transform="matrix(0.015000 0 0 -0.015000 188.52 336.00)" fill="#3c3015"/><rect x="129.0" y="346.0" width="150" height="228" rx="11.7" fill="#f4ecd8" stroke="#15130f" stroke-width="1.5"/><rect x="138.8" y="355.8" width="130.5" height="204.8" fill="none" stroke="#15130f" stroke-width="0.7"/><g fill="none" stroke="#15130f" stroke-width="1.0" stroke-linecap="round" stroke-linejoin="round"><line x1="204.0" y1="355.8" x2="204.0" y2="452.5"/><line x1="138.8" y1="452.5" x2="269.2" y2="452.5"/></g><path d="M138.8,545.2 H269.2 V560.5 H138.8 Z" fill="#e59680"/><g fill="none" stroke="#15130f" stroke-width="0.8"><line x1="138.8" y1="545.2" x2="269.2" y2="545.2"/><line x1="153.0" y1="545.2" x2="153.0" y2="560.5"/><line x1="255.0" y1="545.2" x2="255.0" y2="560.5"/></g><rect x="199.1" y="351.2" width="9.9" height="10.9" fill="#e59680" stroke="#15130f" stroke-width="0.8"/><path d="M250.0 450Q250.0 349 278.0 264.5Q306.0 180 358.5 135.0Q411.0 90 467.0 90Q524.0 90 576.5 135.0Q629.0 180 657.0 264.5Q685.0 349 685.0 450Q685.0 541 657.0 625.5Q629.0 710 576.5 755.0Q524.0 800 467.0 800Q411.0 800 358.5 755.0Q306.0 710 278.0 625.5Q250.0 541 250.0 450ZM800.0 729Q817.0 704 831.0 676Q885.0 567 885.0 450Q885.0 323 831.0 214.5Q777.0 106 676.5 48.0Q576.0 -10 467.0 -10Q359.0 -10 258.5 48.0Q158.0 106 104.0 214.5Q50.0 323 50.0 450Q50.0 567 104.0 675.5Q158.0 784 258.5 842.0Q359.0 900 467.0 900Q576.0 900 677.0 842Q706.0 825 732.0 803L1082.0 1153Q905.0 1153 658.0 1223L693.0 1259Q1117.0 1259 1400.0 1400Q1259.0 1117 1259.0 693L1223.0 658Q1153.0 905 1153.0 1082Z" transform="matrix(0.005347 0 0 -0.005347 142.00 556.58)" fill="#15130f"/><path d="M49.0 -200Q-78.0 -200 -78.0 -145Q-78.0 -126 -61.5 -108.5Q-45.0 -91 -31.0 -91Q-19.0 -91 -8.0 -96.5Q3.0 -102 13.0 -115Q30.0 -135 40.0 -146.5Q50.0 -158 62.0 -158Q94.0 -158 110.0 -118.0Q126.0 -78 126.0 4V551Q126.0 584 112.0 598.0Q98.0 612 60.0 620Q34.0 625 34.0 641Q34.0 647 41.0 650.5Q48.0 654 57.0 654Q82.0 654 104.5 653.0Q127.0 652 149.0 651.0Q171.0 650 192.0 650Q212.0 650 232.0 651.0Q252.0 652 274.0 653.0Q296.0 654 320.0 654Q330.0 654 336.0 650.5Q342.0 647 342.0 640Q342.0 632 335.5 627.5Q329.0 623 316.0 620Q277.0 610 266.0 596.5Q255.0 583 255.0 550V73Q255.0 41 243.5 6.5Q232.0 -28 213.5 -60.5Q195.0 -93 175.0 -119Q148.0 -154 116.0 -177.0Q84.0 -200 49.0 -200ZM713.0 -20Q705.0 -20 705.0 -11Q705.0 0 707.5 20.0Q710.0 40 710.0 52Q710.0 55 709.5 57.5Q709.0 60 709.0 61Q678.0 27 636.5 6.0Q595.0 -15 549.0 -15Q517.0 -15 491.5 2.0Q466.0 19 451.5 49.0Q437.0 79 437.0 119V311Q437.0 334 428.0 347.5Q419.0 361 396.0 368Q390.0 369 385.5 373.0Q381.0 377 381.0 385Q381.0 393 385.5 397.0Q390.0 401 396.0 402Q436.0 404 465.0 409.5Q494.0 415 527.0 423Q531.0 425 535.0 426.0Q539.0 427 543.0 427Q556.0 427 555.0 413Q552.0 390 550.0 374.5Q548.0 359 548.0 336V143Q548.0 119 557.0 100.0Q566.0 81 582.0 70.0Q598.0 59 617.0 58Q636.0 58 652.5 62.0Q669.0 66 685.0 80Q693.0 86 703.0 102.5Q713.0 119 713.0 146V314Q713.0 333 704.5 344.5Q696.0 356 682.5 362.0Q669.0 368 655.0 368Q644.0 369 638.0 373.0Q632.0 377 632.0 389Q632.0 399 639.0 403.0Q646.0 407 655.0 407Q699.0 410 726.0 412.0Q753.0 414 771.5 417.0Q790.0 420 808.0 425Q811.0 426 814.5 426.5Q818.0 427 820.0 427Q834.0 427 834.0 416Q834.0 413 833.5 409.5Q833.0 406 831.0 402Q830.0 399 828.5 385.0Q827.0 371 825.5 356.0Q824.0 341 824.0 333V101Q824.0 77 829.5 68.0Q835.0 59 842.0 59Q848.0 59 859.5 59.5Q871.0 60 876.0 60Q884.0 60 889.0 56.0Q894.0 52 894.0 43Q894.0 34 890.5 29.5Q887.0 25 878.0 24Q833.0 20 798.0 8.5Q763.0 -3 737.0 -14Q731.0 -16 724.5 -18.0Q718.0 -20 713.0 -20ZM940.0 -270Q934.0 -270 927.0 -267.0Q920.0 -264 920.0 -257Q920.0 -249 927.0 -245.0Q934.0 -241 943.0 -238Q962.0 -232 972.5 -224.5Q983.0 -217 983.0 -200V289Q983.0 299 978.0 312.5Q973.0 326 963.5 337.5Q954.0 349 939.0 351Q934.0 353 931.5 356.5Q929.0 360 929.0 368Q929.0 375 931.5 378.5Q934.0 382 938.0 383Q974.0 391 1010.0 403.5Q1046.0 416 1073.0 428Q1076.0 429 1079.0 431.5Q1082.0 434 1085.0 434Q1090.0 434 1091.5 430.5Q1093.0 427 1093.0 422Q1093.0 414 1090.5 395.5Q1088.0 377 1088.0 364Q1088.0 354 1090.0 353Q1100.0 363 1125.5 379.5Q1151.0 396 1184.5 409.0Q1218.0 422 1249.0 422Q1302.0 422 1339.5 393.5Q1377.0 365 1397.0 320.5Q1417.0 276 1417.0 228Q1417.0 182 1399.5 138.5Q1382.0 95 1350.0 60.0Q1318.0 25 1276.5 4.0Q1235.0 -17 1187.0 -17Q1175.0 -17 1158.5 -13.5Q1142.0 -10 1125.5 -4.5Q1109.0 1 1097.0 8Q1096.0 8 1095.0 2.5Q1094.0 -3 1093.5 -10.0Q1093.0 -17 1093.0 -21V-194Q1093.0 -207 1101.0 -215.5Q1109.0 -224 1121.0 -229.0Q1133.0 -234 1148.0 -238Q1158.0 -241 1164.0 -245.0Q1170.0 -249 1170.0 -257Q1170.0 -263 1164.0 -266.5Q1158.0 -270 1152.0 -270Q1122.0 -270 1093.5 -267.5Q1065.0 -265 1039.0 -265Q1022.0 -265 1007.0 -266.0Q992.0 -267 976.0 -268.5Q960.0 -270 940.0 -270ZM1190.0 25Q1202.0 25 1220.0 33.5Q1238.0 42 1255.5 61.0Q1273.0 80 1284.5 113.0Q1296.0 146 1296.0 194Q1296.0 249 1284.0 282.5Q1272.0 316 1254.0 333.0Q1236.0 350 1217.5 355.5Q1199.0 361 1185.0 361Q1165.0 361 1144.0 352.5Q1123.0 344 1109.0 332.5Q1095.0 321 1095.0 313Q1095.0 299 1095.0 276.5Q1095.0 254 1094.5 228.5Q1094.0 203 1093.5 182.0Q1093.0 161 1093.0 152Q1093.0 123 1106.0 93.5Q1119.0 64 1141.0 44.5Q1163.0 25 1190.0 25ZM1483.0 -3Q1475.0 -3 1470.0 0.5Q1465.0 4 1465.0 10Q1465.0 18 1471.0 22.0Q1477.0 26 1485.0 28Q1509.0 34 1519.5 41.0Q1530.0 48 1530.0 65V282Q1530.0 314 1520.0 330.0Q1510.0 346 1486.0 350Q1481.0 351 1478.0 355.5Q1475.0 360 1475.0 366Q1475.0 380 1486.0 381Q1534.0 391 1569.5 408.5Q1605.0 426 1624.0 436Q1638.0 443 1642.0 443Q1653.0 443 1653.0 433Q1652.0 419 1649.0 394.5Q1646.0 370 1643.5 342.5Q1641.0 315 1641.0 291V66Q1641.0 51 1652.0 43.0Q1663.0 35 1687.0 28Q1695.0 25 1701.0 21.5Q1707.0 18 1707.0 10Q1707.0 -2 1690.0 -2Q1671.0 -2 1653.5 -1.0Q1636.0 0 1619.5 1.0Q1603.0 2 1585.0 2Q1568.0 2 1552.0 1.0Q1536.0 0 1519.5 -1.5Q1503.0 -3 1483.0 -3ZM1583.0 501Q1554.0 501 1534.0 521.0Q1514.0 541 1514.0 569Q1514.0 600 1534.0 620.0Q1554.0 640 1583.0 640Q1613.0 640 1633.0 620.0Q1653.0 600 1653.0 569Q1653.0 541 1633.0 521.0Q1613.0 501 1583.0 501ZM1931.0 -14Q1871.0 -14 1840.0 18.0Q1809.0 50 1809.0 111V342Q1809.0 350 1802.5 354.0Q1796.0 358 1777.0 359H1766.0Q1760.0 359 1756.0 368.5Q1752.0 378 1752.0 387Q1752.0 389 1753.5 392.5Q1755.0 396 1758.0 397Q1781.0 407 1805.0 424.5Q1829.0 442 1850.0 460.5Q1871.0 479 1885.0 492Q1892.0 497 1896.5 501.0Q1901.0 505 1907.0 505Q1915.0 505 1919.5 501.5Q1924.0 498 1922.0 488L1916.0 433Q1915.0 421 1921.5 417.0Q1928.0 413 1940.0 413H2058.0Q2061.0 413 2064.0 406.0Q2067.0 399 2067.0 392Q2067.0 379 2063.5 368.0Q2060.0 357 2055.0 357H1960.0Q1937.0 357 1928.5 352.0Q1920.0 347 1920.0 331V139Q1920.0 95 1937.0 72.5Q1954.0 50 1985.0 50Q2013.0 50 2027.5 55.0Q2042.0 60 2054.0 67Q2057.0 69 2059.0 69Q2064.0 69 2066.5 63.0Q2069.0 57 2069.0 50Q2069.0 45 2049.5 29.0Q2030.0 13 1998.5 -0.5Q1967.0 -14 1931.0 -14ZM2289.0 -14Q2234.0 -14 2192.0 14.0Q2150.0 42 2126.0 91.5Q2102.0 141 2102.0 204Q2102.0 265 2130.5 315.5Q2159.0 366 2207.0 396.0Q2255.0 426 2312.0 426Q2354.0 426 2387.0 408.5Q2420.0 391 2439.5 360.5Q2459.0 330 2459.0 292Q2459.0 256 2428.0 256H2225.0Q2211.0 256 2204.5 248.5Q2198.0 241 2198.0 221Q2198.0 179 2216.5 145.0Q2235.0 111 2266.0 91.0Q2297.0 71 2337.0 71Q2366.0 71 2390.5 82.5Q2415.0 94 2437.0 114Q2441.0 117 2444.0 119.5Q2447.0 122 2450.0 122Q2460.0 122 2460.0 110Q2460.0 96 2448.0 76Q2436.0 53 2413.5 32.0Q2391.0 11 2359.0 -1.5Q2327.0 -14 2289.0 -14ZM2225.0 295H2296.0Q2322.0 295 2335.0 296.0Q2348.0 297 2360.0 300Q2365.0 301 2367.0 308.5Q2369.0 316 2369.0 326Q2369.0 353 2348.5 371.5Q2328.0 390 2298.0 390Q2277.0 390 2257.0 377.5Q2237.0 365 2224.0 346.0Q2211.0 327 2212.0 307Q2212.0 295 2225.0 295ZM2529.0 -3Q2521.0 -3 2515.0 0.5Q2509.0 4 2509.0 10Q2509.0 18 2515.5 22.0Q2522.0 26 2532.0 29Q2553.0 35 2561.5 43.5Q2570.0 52 2570.0 67V292Q2570.0 315 2563.5 330.5Q2557.0 346 2536.0 351Q2532.0 353 2528.0 356.5Q2524.0 360 2524.0 367Q2524.0 380 2535.0 383Q2565.0 391 2600.0 404.5Q2635.0 418 2659.0 431Q2664.0 434 2670.0 437.0Q2676.0 440 2679.0 440Q2687.0 440 2687.0 430Q2687.0 426 2686.5 412.0Q2686.0 398 2685.5 381.5Q2685.0 365 2684.0 352Q2684.0 346 2687.0 346Q2703.0 367 2723.0 385.0Q2743.0 403 2765.5 415.0Q2788.0 427 2811.0 427Q2840.0 427 2854.5 415.0Q2869.0 403 2869.0 385Q2869.0 371 2861.5 355.0Q2854.0 339 2842.5 327.5Q2831.0 316 2817.0 316Q2809.0 316 2800.0 319.5Q2791.0 323 2782.0 328Q2773.0 332 2763.5 336.0Q2754.0 340 2746.0 340Q2721.0 340 2701.0 321.5Q2681.0 303 2681.0 249V73Q2681.0 55 2694.0 45.5Q2707.0 36 2734.0 28Q2745.0 25 2750.5 21.5Q2756.0 18 2756.0 10Q2756.0 -3 2738.0 -3Q2708.0 -3 2681.5 -0.5Q2655.0 2 2629.0 2Q2612.0 2 2596.5 1.0Q2581.0 0 2565.0 -1.5Q2549.0 -3 2529.0 -3Z" transform="matrix(0.015000 0 0 -0.015000 361.07 336.00)" fill="#3c3015"/><rect x="307.0" y="346.0" width="150" height="228" rx="11.7" fill="#f4ecd8" stroke="#15130f" stroke-width="1.5"/><rect x="316.8" y="355.8" width="130.5" height="204.8" fill="none" stroke="#15130f" stroke-width="0.7"/><g fill="none" stroke="#15130f" stroke-width="1.0" stroke-linecap="round" stroke-linejoin="round"><path d="M382.0,355.8 L447.2,450.5 L382.0,545.2 L316.8,450.5 Z"/></g><path d="M316.8,545.2 H447.2 V560.5 H316.8 Z" fill="#c7dcf0"/><g fill="none" stroke="#15130f" stroke-width="0.8"><line x1="316.8" y1="545.2" x2="447.2" y2="545.2"/><line x1="331.0" y1="545.2" x2="331.0" y2="560.5"/><line x1="433.0" y1="545.2" x2="433.0" y2="560.5"/></g><rect x="377.1" y="351.2" width="9.9" height="10.9" fill="#c7dcf0" stroke="#15130f" stroke-width="0.8"/><path d="M542.0 980Q542.0 1081 524.0 1150.5Q506.0 1220 468.5 1265.0Q431.0 1310 374.0 1310Q309.0 1310 251.5 1260.0Q194.0 1210 140.5 1125.0Q87.0 1040 87.0 960H50.0V1410H87.0Q87.0 1385 110.5 1358.5Q134.0 1332 164.0 1332Q194.0 1332 249.0 1371.0Q304.0 1410 374.0 1410Q483.0 1410 568.5 1352.0Q654.0 1294 698.0 1210.5Q742.0 1127 742.0 1000Q742.0 883 691.0 779Q660.0 716 617.0 675H1060.0V1200Q1060.0 1250 1020.0 1305.0Q980.0 1360 910.0 1360H860.0V1400H1460.0V1360H1410.0Q1340.0 1360 1300.0 1305.0Q1260.0 1250 1260.0 1200V200Q1260.0 150 1300.0 95.0Q1340.0 40 1410.0 40H1460.0V0H860.0V40H910.0Q980.0 40 1020.0 95.0Q1060.0 150 1060.0 200V575H225.0Q430.0 680 486.0 784.5Q542.0 889 542.0 980Z" transform="matrix(0.005347 0 0 -0.005347 319.84 556.63)" fill="#15130f"/><path d="M214.0 -15Q171.0 -15 132.5 -4.0Q94.0 7 62.0 29Q56.0 34 51.0 39.5Q46.0 45 43.0 52Q35.0 77 32.0 113.5Q29.0 150 30.0 184Q30.0 191 35.5 194.0Q41.0 197 49.0 197Q57.0 197 61.5 194.5Q66.0 192 68.0 185Q90.0 110 132.0 68.0Q174.0 26 227.0 26Q260.0 26 283.0 41.0Q306.0 56 318.0 80.0Q330.0 104 330.0 132Q330.0 167 317.5 190.0Q305.0 213 280.0 231.5Q255.0 250 217.0 271Q176.0 295 137.0 321.5Q98.0 348 73.0 384.5Q48.0 421 48.0 475Q48.0 531 76.5 573.5Q105.0 616 156.0 640.0Q207.0 664 274.0 664Q311.0 664 343.0 656.0Q375.0 648 394.0 640Q405.0 636 410.5 630.0Q416.0 624 419.0 611Q425.0 590 429.5 561.0Q434.0 532 434.0 500Q434.0 488 416.0 488Q408.0 488 400.0 492.0Q392.0 496 390.0 503Q372.0 561 340.5 591.0Q309.0 621 263.0 621Q232.0 621 210.0 610.5Q188.0 600 175.0 578.5Q162.0 557 162.0 523Q162.0 497 179.5 475.0Q197.0 453 228.5 432.0Q260.0 411 299.0 386Q347.0 358 379.5 329.5Q412.0 301 429.0 266.5Q446.0 232 446.0 185Q446.0 119 417.0 74.5Q388.0 30 336.0 7.5Q284.0 -15 214.0 -15ZM609.0 -14Q585.0 -14 563.5 -1.0Q542.0 12 529.0 33.0Q516.0 54 516.0 76Q516.0 110 536.0 131.5Q556.0 153 596.0 170L689.0 210Q709.0 218 713.5 225.0Q718.0 232 718.0 251L720.0 310Q721.0 338 708.5 355.0Q696.0 372 671.0 372Q658.0 372 644.0 367.0Q630.0 362 622.0 354Q618.0 350 616.5 343.5Q615.0 337 615.0 331Q615.0 326 615.5 318.5Q616.0 311 616.0 305Q616.0 299 601.0 290.0Q586.0 281 567.0 274.0Q548.0 267 535.0 267Q528.0 267 524.0 272.0Q520.0 277 520.0 284Q520.0 300 530.5 316.5Q541.0 333 564.0 352Q589.0 373 619.0 389.5Q649.0 406 677.5 416.0Q706.0 426 727.0 426Q775.0 426 804.0 394.5Q833.0 363 832.0 312L827.0 98Q826.0 76 835.5 61.0Q845.0 46 859.0 46Q880.0 46 893.0 58Q897.0 62 900.0 62Q905.0 62 908.5 58.5Q912.0 55 912.0 50Q912.0 39 896.0 23Q878.0 5 857.5 -4.5Q837.0 -14 817.0 -14Q764.0 -14 731.0 41H728.0Q695.0 12 667.5 -1.0Q640.0 -14 609.0 -14ZM664.0 46Q678.0 46 688.0 50.5Q698.0 55 705.0 63Q709.0 68 711.5 75.0Q714.0 82 715.0 95L717.0 159Q718.0 169 715.0 172.5Q712.0 176 708.0 176Q706.0 176 702.0 175.5Q698.0 175 693.0 172Q656.0 157 640.0 140.0Q624.0 123 624.0 96Q624.0 69 637.0 57.5Q650.0 46 664.0 46ZM1118.0 -14Q1058.0 -14 1027.0 18.0Q996.0 50 996.0 111V342Q996.0 350 989.5 354.0Q983.0 358 964.0 359H953.0Q947.0 359 943.0 368.5Q939.0 378 939.0 387Q939.0 389 940.5 392.5Q942.0 396 945.0 397Q968.0 407 992.0 424.5Q1016.0 442 1037.0 460.5Q1058.0 479 1072.0 492Q1079.0 497 1083.5 501.0Q1088.0 505 1094.0 505Q1102.0 505 1106.5 501.5Q1111.0 498 1109.0 488L1103.0 433Q1102.0 421 1108.5 417.0Q1115.0 413 1127.0 413H1245.0Q1248.0 413 1251.0 406.0Q1254.0 399 1254.0 392Q1254.0 379 1250.5 368.0Q1247.0 357 1242.0 357H1147.0Q1124.0 357 1115.5 352.0Q1107.0 347 1107.0 331V139Q1107.0 95 1124.0 72.5Q1141.0 50 1172.0 50Q1200.0 50 1214.5 55.0Q1229.0 60 1241.0 67Q1244.0 69 1246.0 69Q1251.0 69 1253.5 63.0Q1256.0 57 1256.0 50Q1256.0 45 1236.5 29.0Q1217.0 13 1185.5 -0.5Q1154.0 -14 1118.0 -14ZM1617.0 -20Q1609.0 -20 1609.0 -11Q1609.0 0 1611.5 20.0Q1614.0 40 1614.0 52Q1614.0 55 1613.5 57.5Q1613.0 60 1613.0 61Q1582.0 27 1540.5 6.0Q1499.0 -15 1453.0 -15Q1421.0 -15 1395.5 2.0Q1370.0 19 1355.5 49.0Q1341.0 79 1341.0 119V311Q1341.0 334 1332.0 347.5Q1323.0 361 1300.0 368Q1294.0 369 1289.5 373.0Q1285.0 377 1285.0 385Q1285.0 393 1289.5 397.0Q1294.0 401 1300.0 402Q1340.0 404 1369.0 409.5Q1398.0 415 1431.0 423Q1435.0 425 1439.0 426.0Q1443.0 427 1447.0 427Q1460.0 427 1459.0 413Q1456.0 390 1454.0 374.5Q1452.0 359 1452.0 336V143Q1452.0 119 1461.0 100.0Q1470.0 81 1486.0 70.0Q1502.0 59 1521.0 58Q1540.0 58 1556.5 62.0Q1573.0 66 1589.0 80Q1597.0 86 1607.0 102.5Q1617.0 119 1617.0 146V314Q1617.0 333 1608.5 344.5Q1600.0 356 1586.5 362.0Q1573.0 368 1559.0 368Q1548.0 369 1542.0 373.0Q1536.0 377 1536.0 389Q1536.0 399 1543.0 403.0Q1550.0 407 1559.0 407Q1603.0 410 1630.0 412.0Q1657.0 414 1675.5 417.0Q1694.0 420 1712.0 425Q1715.0 426 1718.5 426.5Q1722.0 427 1724.0 427Q1738.0 427 1738.0 416Q1738.0 413 1737.5 409.5Q1737.0 406 1735.0 402Q1734.0 399 1732.5 385.0Q1731.0 371 1729.5 356.0Q1728.0 341 1728.0 333V101Q1728.0 77 1733.5 68.0Q1739.0 59 1746.0 59Q1752.0 59 1763.5 59.5Q1775.0 60 1780.0 60Q1788.0 60 1793.0 56.0Q1798.0 52 1798.0 43Q1798.0 34 1794.5 29.5Q1791.0 25 1782.0 24Q1737.0 20 1702.0 8.5Q1667.0 -3 1641.0 -14Q1635.0 -16 1628.5 -18.0Q1622.0 -20 1617.0 -20ZM1851.0 -3Q1843.0 -3 1837.0 0.5Q1831.0 4 1831.0 10Q1831.0 18 1837.5 22.0Q1844.0 26 1854.0 29Q1875.0 35 1883.5 43.5Q1892.0 52 1892.0 67V292Q1892.0 315 1885.5 330.5Q1879.0 346 1858.0 351Q1854.0 353 1850.0 356.5Q1846.0 360 1846.0 367Q1846.0 380 1857.0 383Q1887.0 391 1922.0 404.5Q1957.0 418 1981.0 431Q1986.0 434 1992.0 437.0Q1998.0 440 2001.0 440Q2009.0 440 2009.0 430Q2009.0 426 2008.5 412.0Q2008.0 398 2007.5 381.5Q2007.0 365 2006.0 352Q2006.0 346 2009.0 346Q2025.0 367 2045.0 385.0Q2065.0 403 2087.5 415.0Q2110.0 427 2133.0 427Q2162.0 427 2176.5 415.0Q2191.0 403 2191.0 385Q2191.0 371 2183.5 355.0Q2176.0 339 2164.5 327.5Q2153.0 316 2139.0 316Q2131.0 316 2122.0 319.5Q2113.0 323 2104.0 328Q2095.0 332 2085.5 336.0Q2076.0 340 2068.0 340Q2043.0 340 2023.0 321.5Q2003.0 303 2003.0 249V73Q2003.0 55 2016.0 45.5Q2029.0 36 2056.0 28Q2067.0 25 2072.5 21.5Q2078.0 18 2078.0 10Q2078.0 -3 2060.0 -3Q2030.0 -3 2003.5 -0.5Q1977.0 2 1951.0 2Q1934.0 2 1918.5 1.0Q1903.0 0 1887.0 -1.5Q1871.0 -3 1851.0 -3ZM2237.0 -3Q2229.0 -3 2223.0 0.5Q2217.0 4 2217.0 10Q2217.0 18 2223.5 22.0Q2230.0 26 2240.0 29Q2255.0 33 2267.5 40.0Q2280.0 47 2280.0 67V291Q2280.0 314 2273.5 330.5Q2267.0 347 2246.0 352Q2242.0 354 2239.0 357.5Q2236.0 361 2236.0 369Q2236.0 382 2245.0 384Q2280.0 392 2314.5 405.5Q2349.0 419 2375.0 434Q2379.0 436 2383.0 439.0Q2387.0 442 2391.0 442Q2396.0 442 2397.5 438.5Q2399.0 435 2399.0 431Q2399.0 424 2396.5 405.0Q2394.0 386 2394.0 372Q2394.0 368 2394.5 363.5Q2395.0 359 2396.0 358Q2430.0 390 2466.5 408.0Q2503.0 426 2549.0 426Q2600.0 426 2634.5 387.0Q2669.0 348 2669.0 284V66Q2669.0 46 2681.0 40.0Q2693.0 34 2708.0 29Q2716.0 26 2723.0 21.5Q2730.0 17 2730.0 9Q2730.0 3 2723.5 0.0Q2717.0 -3 2711.0 -3Q2691.0 -3 2676.0 -1.5Q2661.0 0 2646.5 1.0Q2632.0 2 2614.0 2Q2597.0 2 2582.0 1.0Q2567.0 0 2551.5 -1.5Q2536.0 -3 2516.0 -3Q2511.0 -3 2505.0 0.0Q2499.0 3 2499.0 9Q2499.0 17 2505.0 21.5Q2511.0 26 2519.0 29Q2534.0 34 2545.5 40.0Q2557.0 46 2557.0 66V269Q2557.0 309 2537.5 332.0Q2518.0 355 2485.0 355Q2458.0 355 2438.0 347.0Q2418.0 339 2399.0 324Q2395.0 321 2393.0 315.5Q2391.0 310 2391.0 304V66Q2391.0 46 2402.5 39.5Q2414.0 33 2429.0 29Q2450.0 22 2450.0 10Q2450.0 4 2445.0 0.5Q2440.0 -3 2432.0 -3Q2412.0 -3 2397.0 -1.5Q2382.0 0 2368.0 1.0Q2354.0 2 2336.0 2Q2319.0 2 2304.0 1.0Q2289.0 0 2273.0 -1.5Q2257.0 -3 2237.0 -3Z" transform="matrix(0.015000 0 0 -0.015000 539.30 336.00)" fill="#3c3015"/><rect x="485.0" y="346.0" width="150" height="228" rx="11.7" fill="#f4ecd8" stroke="#15130f" stroke-width="1.5"/><rect x="494.8" y="355.8" width="130.5" height="204.8" fill="none" stroke="#15130f" stroke-width="0.7"/><g fill="none" stroke="#15130f" stroke-width="1.0" stroke-linecap="round" stroke-linejoin="round"><line x1="494.8" y1="452.7" x2="625.2" y2="452.7"/></g><path d="M494.8,545.2 H625.2 V560.5 H494.8 Z" fill="#d9cf9a"/><g fill="none" stroke="#15130f" stroke-width="0.8"><line x1="494.8" y1="545.2" x2="625.2" y2="545.2"/><line x1="509.0" y1="545.2" x2="509.0" y2="560.5"/><line x1="611.0" y1="545.2" x2="611.0" y2="560.5"/></g><rect x="555.0" y="351.2" width="9.9" height="10.9" fill="#d9cf9a" stroke="#15130f" stroke-width="0.8"/><path d="M450.0 1050V690Q569.0 900 750.0 900Q934.0 900 1042.0 757.0Q1150.0 614 1150.0 429Q1150.0 290 1050.0 130.5Q950.0 -29 950.0 -150Q950.0 -420 1132.0 -450Q1179.0 -450 1240.0 -420L1260.0 -450Q1183.0 -500 1102.0 -500Q954.0 -500 852.0 -391.0Q750.0 -282 750.0 -150Q750.0 -44 850.0 129.5Q950.0 303 950.0 429Q950.0 573 887.5 686.5Q825.0 800 706.0 800Q551.0 800 450.0 576V200Q450.0 150 490.0 95.0Q530.0 40 600.0 40H650.0V0H50.0V40H100.0Q170.0 40 210.0 95.0Q250.0 150 250.0 200V1050H50.0V1150H250.0V1200Q250.0 1250 210.0 1305.0Q170.0 1360 100.0 1360H50.0V1400H650.0V1360H600.0Q530.0 1360 490.0 1305.0Q450.0 1250 450.0 1200V1150H650.0V1050Z" transform="matrix(0.005347 0 0 -0.005347 498.37 555.27)" fill="#15130f"/></svg>